%TF.GenerationSoftware,KiCad,Pcbnew,9.0.7*%
%TF.CreationDate,2026-09-01T13:42:02-03:00*%
%TF.ProjectId,amemiya_main_node,616d656d-6979-4615-9f6d-61696e5f6e6f,v2.0*%
%TF.SameCoordinates,Original*%
%TF.FileFunction,Copper,L2,Bot*%
%TF.FilePolarity,Positive*%
%FSLAX46Y46*%
G04 Gerber Fmt 4.6, Leading zero omitted, Abs format (unit mm)*
G04 Created by KiCad (PCBNEW 9.0.7) date 2026-09-01 13:42:02*
%MOMM*%
%LPD*%
G01*
G04 APERTURE LIST*
%TA.AperFunction,ComponentPad*%
%ADD10R,1.700000X1.700000*%
%TD*%
%TA.AperFunction,ComponentPad*%
%ADD11C,1.700000*%
%TD*%
G04 APERTURE END LIST*
D10*
%TO.P,U_ESP32_L,1*%
%TO.N,N/C*%
X22000000Y1670000D03*
D11*
%TO.P,U_ESP32_L,2*%
X22000000Y-870000D03*
%TO.P,U_ESP32_L,3*%
X22000000Y-3410000D03*
%TO.P,U_ESP32_L,4*%
X22000000Y-5950000D03*
%TO.P,U_ESP32_L,5*%
X22000000Y-8490000D03*
%TO.P,U_ESP32_L,6*%
X22000000Y-11030000D03*
%TO.P,U_ESP32_L,7*%
X22000000Y-13570000D03*
%TO.P,U_ESP32_L,8*%
X22000000Y-16110000D03*
%TO.P,U_ESP32_L,9*%
X22000000Y-18650000D03*
%TO.P,U_ESP32_L,10*%
X22000000Y-21190000D03*
%TO.P,U_ESP32_L,11*%
X22000000Y-23730000D03*
%TO.P,U_ESP32_L,12*%
X22000000Y-26269999D03*
%TO.P,U_ESP32_L,13*%
X22000000Y-28809999D03*
%TO.P,U_ESP32_L,14*%
X22000000Y-31350000D03*
%TO.P,U_ESP32_L,15*%
X22000000Y-33890000D03*
%TO.P,U_ESP32_L,16*%
X22000000Y-36430000D03*
%TO.P,U_ESP32_L,17*%
X22000000Y-38969999D03*
%TO.P,U_ESP32_L,18*%
X22000000Y-41509999D03*
%TO.P,U_ESP32_L,19*%
X22000000Y-44049999D03*
%TO.P,U_ESP32_L,20*%
X22000000Y-46589999D03*
%TO.P,U_ESP32_L,21*%
X22000000Y-49129999D03*
%TO.P,U_ESP32_L,22*%
X22000000Y-51670000D03*
%TD*%
D10*
%TO.P,U_ESP32_R,1*%
%TO.N,N/C*%
X47000000Y1670000D03*
D11*
%TO.P,U_ESP32_R,2*%
X47000000Y-870000D03*
%TO.P,U_ESP32_R,3*%
X47000000Y-3410000D03*
%TO.P,U_ESP32_R,4*%
X47000000Y-5950000D03*
%TO.P,U_ESP32_R,5*%
X47000000Y-8490000D03*
%TO.P,U_ESP32_R,6*%
X47000000Y-11030000D03*
%TO.P,U_ESP32_R,7*%
X47000000Y-13570000D03*
%TO.P,U_ESP32_R,8*%
X47000000Y-16110000D03*
%TO.P,U_ESP32_R,9*%
X47000000Y-18650000D03*
%TO.P,U_ESP32_R,10*%
X47000000Y-21190000D03*
%TO.P,U_ESP32_R,11*%
X47000000Y-23730000D03*
%TO.P,U_ESP32_R,12*%
X47000000Y-26269999D03*
%TO.P,U_ESP32_R,13*%
X47000000Y-28809999D03*
%TO.P,U_ESP32_R,14*%
X47000000Y-31350000D03*
%TO.P,U_ESP32_R,15*%
X47000000Y-33890000D03*
%TO.P,U_ESP32_R,16*%
X47000000Y-36430000D03*
%TO.P,U_ESP32_R,17*%
X47000000Y-38969999D03*
%TO.P,U_ESP32_R,18*%
X47000000Y-41509999D03*
%TO.P,U_ESP32_R,19*%
X47000000Y-44049999D03*
%TO.P,U_ESP32_R,20*%
X47000000Y-46589999D03*
%TO.P,U_ESP32_R,21*%
X47000000Y-49129999D03*
%TO.P,U_ESP32_R,22*%
X47000000Y-51670000D03*
%TD*%
D10*
%TO.P,U_OLED,1*%
%TO.N,N/C*%
X60000000Y-34190000D03*
D11*
%TO.P,U_OLED,2*%
X60000000Y-36730000D03*
%TO.P,U_OLED,3*%
X60000000Y-39270000D03*
%TO.P,U_OLED,4*%
X60000000Y-41810000D03*
%TD*%
D10*
%TO.P,J_PROBE,1*%
%TO.N,N/C*%
X8000000Y-5650000D03*
D11*
%TO.P,J_PROBE,2*%
X8000000Y-8190001D03*
%TO.P,J_PROBE,3*%
X8000000Y-10730001D03*
%TO.P,J_PROBE,4*%
X8000000Y-13270000D03*
%TO.P,J_PROBE,5*%
X8000000Y-15810000D03*
%TO.P,J_PROBE,6*%
X8000000Y-18350000D03*
%TD*%
D10*
%TO.P,U_LORA,1*%
%TO.N,N/C*%
X60000000Y-6110000D03*
D11*
%TO.P,U_LORA,2*%
X60000000Y-8650000D03*
%TO.P,U_LORA,3*%
X60000000Y-11190000D03*
%TO.P,U_LORA,4*%
X60000000Y-13730000D03*
%TO.P,U_LORA,5*%
X60000000Y-16269999D03*
%TO.P,U_LORA,6*%
X60000000Y-18809999D03*
%TO.P,U_LORA,7*%
X60000000Y-21350000D03*
%TO.P,U_LORA,8*%
X60000000Y-23890000D03*
%TD*%
D10*
%TO.P,J_TACHO,1*%
%TO.N,N/C*%
X8000000Y-23460000D03*
D11*
%TO.P,J_TACHO,2*%
X8000000Y-26000000D03*
%TO.P,J_TACHO,3*%
X8000000Y-28540000D03*
%TD*%
D10*
%TO.P,J_AMP,1*%
%TO.N,N/C*%
X8000000Y-36730000D03*
D11*
%TO.P,J_AMP,2*%
X8000000Y-39270000D03*
%TD*%
D10*
%TO.P,J_SIGNAL,1*%
%TO.N,N/C*%
X32000000Y-36920000D03*
D11*
%TO.P,J_SIGNAL,2*%
X32000000Y-39460000D03*
%TO.P,J_SIGNAL,3*%
X32000000Y-42000000D03*
%TO.P,J_SIGNAL,4*%
X32000000Y-44540000D03*
%TO.P,J_SIGNAL,5*%
X32000000Y-47080000D03*
%TD*%
M02*
