ISO-10303-21;
HEADER;
/* Generated by software containing ST-Developer
 * from STEP Tools, Inc. (www.steptools.com) 
 */

FILE_DESCRIPTION(
/* description */ (''),
/* implementation_level */ '2;1');

FILE_NAME(
/* name */ '08_Disco_Desbalanceamento_Calibrado.step',
/* time_stamp */ '2026-09-22T22:23:49-03:00',
/* author */ (''),
/* organization */ (''),
/* preprocessor_version */ 'ST-DEVELOPER v20.2',
/* originating_system */ 'Autodesk Translation Framework v15.15.0.0',
/* authorisation */ '');

FILE_SCHEMA (('AUTOMOTIVE_DESIGN { 1 0 10303 214 3 1 1 }'));
ENDSEC;

DATA;
#10=MECHANICAL_DESIGN_GEOMETRIC_PRESENTATION_REPRESENTATION('',(#13),#326);
#11=SHAPE_REPRESENTATION_RELATIONSHIP('SRR','None',#333,#12);
#12=ADVANCED_BREP_SHAPE_REPRESENTATION('',(#14),#325);
#13=STYLED_ITEM('',(#343),#14);
#14=MANIFOLD_SOLID_BREP('Corpo1',#182);
#15=FACE_BOUND('',#41,.T.);
#16=FACE_BOUND('',#49,.T.);
#17=FACE_BOUND('',#50,.T.);
#18=FACE_BOUND('',#51,.T.);
#19=FACE_BOUND('',#52,.T.);
#20=FACE_BOUND('',#53,.T.);
#21=FACE_BOUND('',#55,.T.);
#22=FACE_BOUND('',#56,.T.);
#23=FACE_BOUND('',#57,.T.);
#24=FACE_BOUND('',#58,.T.);
#25=FACE_BOUND('',#59,.T.);
#26=PLANE('',#199);
#27=PLANE('',#218);
#28=PLANE('',#219);
#29=FACE_OUTER_BOUND('',#39,.T.);
#30=FACE_OUTER_BOUND('',#40,.T.);
#31=FACE_OUTER_BOUND('',#42,.T.);
#32=FACE_OUTER_BOUND('',#43,.T.);
#33=FACE_OUTER_BOUND('',#44,.T.);
#34=FACE_OUTER_BOUND('',#45,.T.);
#35=FACE_OUTER_BOUND('',#46,.T.);
#36=FACE_OUTER_BOUND('',#47,.T.);
#37=FACE_OUTER_BOUND('',#48,.T.);
#38=FACE_OUTER_BOUND('',#54,.T.);
#39=EDGE_LOOP('',(#123,#124,#125,#126));
#40=EDGE_LOOP('',(#127));
#41=EDGE_LOOP('',(#128));
#42=EDGE_LOOP('',(#129,#130,#131,#132));
#43=EDGE_LOOP('',(#133,#134,#135,#136));
#44=EDGE_LOOP('',(#137,#138,#139,#140));
#45=EDGE_LOOP('',(#141,#142,#143,#144));
#46=EDGE_LOOP('',(#145,#146,#147,#148));
#47=EDGE_LOOP('',(#149,#150,#151,#152));
#48=EDGE_LOOP('',(#153));
#49=EDGE_LOOP('',(#154));
#50=EDGE_LOOP('',(#155));
#51=EDGE_LOOP('',(#156));
#52=EDGE_LOOP('',(#157));
#53=EDGE_LOOP('',(#158));
#54=EDGE_LOOP('',(#159));
#55=EDGE_LOOP('',(#160));
#56=EDGE_LOOP('',(#161));
#57=EDGE_LOOP('',(#162));
#58=EDGE_LOOP('',(#163));
#59=EDGE_LOOP('',(#164));
#60=LINE('',#282,#67);
#61=LINE('',#291,#68);
#62=LINE('',#297,#69);
#63=LINE('',#303,#70);
#64=LINE('',#309,#71);
#65=LINE('',#314,#72);
#66=LINE('',#319,#73);
#67=VECTOR('',#226,21.);
#68=VECTOR('',#237,3.);
#69=VECTOR('',#244,3.);
#70=VECTOR('',#251,3.);
#71=VECTOR('',#258,3.);
#72=VECTOR('',#265,10.);
#73=VECTOR('',#270,60.);
#74=CIRCLE('',#197,21.);
#75=CIRCLE('',#198,21.);
#76=CIRCLE('',#200,10.);
#77=CIRCLE('',#202,3.);
#78=CIRCLE('',#203,3.);
#79=CIRCLE('',#205,3.);
#80=CIRCLE('',#206,3.);
#81=CIRCLE('',#208,3.);
#82=CIRCLE('',#209,3.);
#83=CIRCLE('',#211,3.);
#84=CIRCLE('',#212,3.);
#85=CIRCLE('',#214,10.);
#86=CIRCLE('',#216,60.);
#87=CIRCLE('',#217,60.);
#88=VERTEX_POINT('',#279);
#89=VERTEX_POINT('',#281);
#90=VERTEX_POINT('',#285);
#91=VERTEX_POINT('',#288);
#92=VERTEX_POINT('',#290);
#93=VERTEX_POINT('',#294);
#94=VERTEX_POINT('',#296);
#95=VERTEX_POINT('',#300);
#96=VERTEX_POINT('',#302);
#97=VERTEX_POINT('',#306);
#98=VERTEX_POINT('',#308);
#99=VERTEX_POINT('',#312);
#100=VERTEX_POINT('',#316);
#101=VERTEX_POINT('',#318);
#102=EDGE_CURVE('',#88,#88,#74,.T.);
#103=EDGE_CURVE('',#88,#89,#60,.T.);
#104=EDGE_CURVE('',#89,#89,#75,.T.);
#105=EDGE_CURVE('',#90,#90,#76,.T.);
#106=EDGE_CURVE('',#91,#91,#77,.T.);
#107=EDGE_CURVE('',#91,#92,#61,.T.);
#108=EDGE_CURVE('',#92,#92,#78,.T.);
#109=EDGE_CURVE('',#93,#93,#79,.T.);
#110=EDGE_CURVE('',#93,#94,#62,.T.);
#111=EDGE_CURVE('',#94,#94,#80,.T.);
#112=EDGE_CURVE('',#95,#95,#81,.T.);
#113=EDGE_CURVE('',#95,#96,#63,.T.);
#114=EDGE_CURVE('',#96,#96,#82,.T.);
#115=EDGE_CURVE('',#97,#97,#83,.T.);
#116=EDGE_CURVE('',#97,#98,#64,.T.);
#117=EDGE_CURVE('',#98,#98,#84,.T.);
#118=EDGE_CURVE('',#99,#99,#85,.T.);
#119=EDGE_CURVE('',#99,#90,#65,.T.);
#120=EDGE_CURVE('',#100,#100,#86,.T.);
#121=EDGE_CURVE('',#100,#101,#66,.T.);
#122=EDGE_CURVE('',#101,#101,#87,.T.);
#123=ORIENTED_EDGE('',*,*,#102,.F.);
#124=ORIENTED_EDGE('',*,*,#103,.T.);
#125=ORIENTED_EDGE('',*,*,#104,.F.);
#126=ORIENTED_EDGE('',*,*,#103,.F.);
#127=ORIENTED_EDGE('',*,*,#102,.T.);
#128=ORIENTED_EDGE('',*,*,#105,.T.);
#129=ORIENTED_EDGE('',*,*,#106,.F.);
#130=ORIENTED_EDGE('',*,*,#107,.T.);
#131=ORIENTED_EDGE('',*,*,#108,.T.);
#132=ORIENTED_EDGE('',*,*,#107,.F.);
#133=ORIENTED_EDGE('',*,*,#109,.F.);
#134=ORIENTED_EDGE('',*,*,#110,.T.);
#135=ORIENTED_EDGE('',*,*,#111,.T.);
#136=ORIENTED_EDGE('',*,*,#110,.F.);
#137=ORIENTED_EDGE('',*,*,#112,.F.);
#138=ORIENTED_EDGE('',*,*,#113,.T.);
#139=ORIENTED_EDGE('',*,*,#114,.T.);
#140=ORIENTED_EDGE('',*,*,#113,.F.);
#141=ORIENTED_EDGE('',*,*,#115,.F.);
#142=ORIENTED_EDGE('',*,*,#116,.T.);
#143=ORIENTED_EDGE('',*,*,#117,.T.);
#144=ORIENTED_EDGE('',*,*,#116,.F.);
#145=ORIENTED_EDGE('',*,*,#118,.F.);
#146=ORIENTED_EDGE('',*,*,#119,.T.);
#147=ORIENTED_EDGE('',*,*,#105,.F.);
#148=ORIENTED_EDGE('',*,*,#119,.F.);
#149=ORIENTED_EDGE('',*,*,#120,.F.);
#150=ORIENTED_EDGE('',*,*,#121,.T.);
#151=ORIENTED_EDGE('',*,*,#122,.T.);
#152=ORIENTED_EDGE('',*,*,#121,.F.);
#153=ORIENTED_EDGE('',*,*,#120,.T.);
#154=ORIENTED_EDGE('',*,*,#118,.T.);
#155=ORIENTED_EDGE('',*,*,#115,.T.);
#156=ORIENTED_EDGE('',*,*,#112,.T.);
#157=ORIENTED_EDGE('',*,*,#109,.T.);
#158=ORIENTED_EDGE('',*,*,#106,.T.);
#159=ORIENTED_EDGE('',*,*,#122,.F.);
#160=ORIENTED_EDGE('',*,*,#104,.T.);
#161=ORIENTED_EDGE('',*,*,#117,.F.);
#162=ORIENTED_EDGE('',*,*,#114,.F.);
#163=ORIENTED_EDGE('',*,*,#111,.F.);
#164=ORIENTED_EDGE('',*,*,#108,.F.);
#165=CYLINDRICAL_SURFACE('',#196,21.);
#166=CYLINDRICAL_SURFACE('',#201,3.);
#167=CYLINDRICAL_SURFACE('',#204,3.);
#168=CYLINDRICAL_SURFACE('',#207,3.);
#169=CYLINDRICAL_SURFACE('',#210,3.);
#170=CYLINDRICAL_SURFACE('',#213,10.);
#171=CYLINDRICAL_SURFACE('',#215,60.);
#172=ADVANCED_FACE('',(#29),#165,.T.);
#173=ADVANCED_FACE('',(#30,#15),#26,.F.);
#174=ADVANCED_FACE('',(#31),#166,.F.);
#175=ADVANCED_FACE('',(#32),#167,.F.);
#176=ADVANCED_FACE('',(#33),#168,.F.);
#177=ADVANCED_FACE('',(#34),#169,.F.);
#178=ADVANCED_FACE('',(#35),#170,.F.);
#179=ADVANCED_FACE('',(#36),#171,.T.);
#180=ADVANCED_FACE('',(#37,#16,#17,#18,#19,#20),#27,.T.);
#181=ADVANCED_FACE('',(#38,#21,#22,#23,#24,#25),#28,.F.);
#182=CLOSED_SHELL('',(#172,#173,#174,#175,#176,#177,#178,#179,#180,#181));
#183=DERIVED_UNIT_ELEMENT(#185,1.);
#184=DERIVED_UNIT_ELEMENT(#328,-3.);
#185=(
MASS_UNIT()
NAMED_UNIT(*)
SI_UNIT(.KILO.,.GRAM.)
);
#186=DERIVED_UNIT((#183,#184));
#187=MEASURE_REPRESENTATION_ITEM('density measure',
POSITIVE_RATIO_MEASURE(7850.),#186);
#188=PROPERTY_DEFINITION_REPRESENTATION(#193,#190);
#189=PROPERTY_DEFINITION_REPRESENTATION(#194,#191);
#190=REPRESENTATION('material name',(#192),#325);
#191=REPRESENTATION('density',(#187),#325);
#192=DESCRIPTIVE_REPRESENTATION_ITEM('A\X\E7o','A\X\E7o');
#193=PROPERTY_DEFINITION('material property','material name',#335);
#194=PROPERTY_DEFINITION('material property','density of part',#335);
#195=AXIS2_PLACEMENT_3D('',#277,#220,#221);
#196=AXIS2_PLACEMENT_3D('',#278,#222,#223);
#197=AXIS2_PLACEMENT_3D('',#280,#224,#225);
#198=AXIS2_PLACEMENT_3D('',#283,#227,#228);
#199=AXIS2_PLACEMENT_3D('',#284,#229,#230);
#200=AXIS2_PLACEMENT_3D('',#286,#231,#232);
#201=AXIS2_PLACEMENT_3D('',#287,#233,#234);
#202=AXIS2_PLACEMENT_3D('',#289,#235,#236);
#203=AXIS2_PLACEMENT_3D('',#292,#238,#239);
#204=AXIS2_PLACEMENT_3D('',#293,#240,#241);
#205=AXIS2_PLACEMENT_3D('',#295,#242,#243);
#206=AXIS2_PLACEMENT_3D('',#298,#245,#246);
#207=AXIS2_PLACEMENT_3D('',#299,#247,#248);
#208=AXIS2_PLACEMENT_3D('',#301,#249,#250);
#209=AXIS2_PLACEMENT_3D('',#304,#252,#253);
#210=AXIS2_PLACEMENT_3D('',#305,#254,#255);
#211=AXIS2_PLACEMENT_3D('',#307,#256,#257);
#212=AXIS2_PLACEMENT_3D('',#310,#259,#260);
#213=AXIS2_PLACEMENT_3D('',#311,#261,#262);
#214=AXIS2_PLACEMENT_3D('',#313,#263,#264);
#215=AXIS2_PLACEMENT_3D('',#315,#266,#267);
#216=AXIS2_PLACEMENT_3D('',#317,#268,#269);
#217=AXIS2_PLACEMENT_3D('',#320,#271,#272);
#218=AXIS2_PLACEMENT_3D('',#321,#273,#274);
#219=AXIS2_PLACEMENT_3D('',#322,#275,#276);
#220=DIRECTION('axis',(0.,0.,1.));
#221=DIRECTION('refdir',(1.,0.,0.));
#222=DIRECTION('center_axis',(-1.,0.,0.));
#223=DIRECTION('ref_axis',(0.,0.,-1.));
#224=DIRECTION('center_axis',(-1.,0.,0.));
#225=DIRECTION('ref_axis',(0.,0.,-1.));
#226=DIRECTION('',(1.,0.,0.));
#227=DIRECTION('center_axis',(1.,0.,0.));
#228=DIRECTION('ref_axis',(0.,0.,-1.));
#229=DIRECTION('center_axis',(1.,0.,0.));
#230=DIRECTION('ref_axis',(0.,0.,-1.));
#231=DIRECTION('center_axis',(1.,0.,0.));
#232=DIRECTION('ref_axis',(0.,0.,-1.));
#233=DIRECTION('center_axis',(1.,0.,0.));
#234=DIRECTION('ref_axis',(0.,0.,-1.));
#235=DIRECTION('center_axis',(-1.,0.,0.));
#236=DIRECTION('ref_axis',(0.,0.,-1.));
#237=DIRECTION('',(-1.,0.,0.));
#238=DIRECTION('center_axis',(-1.,0.,0.));
#239=DIRECTION('ref_axis',(0.,0.,-1.));
#240=DIRECTION('center_axis',(1.,0.,0.));
#241=DIRECTION('ref_axis',(0.,0.,-1.));
#242=DIRECTION('center_axis',(-1.,0.,0.));
#243=DIRECTION('ref_axis',(0.,0.,-1.));
#244=DIRECTION('',(-1.,0.,0.));
#245=DIRECTION('center_axis',(-1.,0.,0.));
#246=DIRECTION('ref_axis',(0.,0.,-1.));
#247=DIRECTION('center_axis',(1.,0.,0.));
#248=DIRECTION('ref_axis',(0.,0.,-1.));
#249=DIRECTION('center_axis',(-1.,0.,0.));
#250=DIRECTION('ref_axis',(0.,0.,-1.));
#251=DIRECTION('',(-1.,0.,0.));
#252=DIRECTION('center_axis',(-1.,0.,0.));
#253=DIRECTION('ref_axis',(0.,0.,-1.));
#254=DIRECTION('center_axis',(1.,0.,0.));
#255=DIRECTION('ref_axis',(0.,0.,-1.));
#256=DIRECTION('center_axis',(-1.,0.,0.));
#257=DIRECTION('ref_axis',(0.,0.,-1.));
#258=DIRECTION('',(-1.,0.,0.));
#259=DIRECTION('center_axis',(-1.,0.,0.));
#260=DIRECTION('ref_axis',(0.,0.,-1.));
#261=DIRECTION('center_axis',(1.,0.,0.));
#262=DIRECTION('ref_axis',(0.,0.,-1.));
#263=DIRECTION('center_axis',(-1.,0.,0.));
#264=DIRECTION('ref_axis',(0.,0.,-1.));
#265=DIRECTION('',(-1.,0.,0.));
#266=DIRECTION('center_axis',(1.,0.,0.));
#267=DIRECTION('ref_axis',(0.,0.,-1.));
#268=DIRECTION('center_axis',(1.,0.,0.));
#269=DIRECTION('ref_axis',(0.,0.,-1.));
#270=DIRECTION('',(-1.,0.,0.));
#271=DIRECTION('center_axis',(1.,0.,0.));
#272=DIRECTION('ref_axis',(0.,0.,-1.));
#273=DIRECTION('center_axis',(1.,0.,0.));
#274=DIRECTION('ref_axis',(0.,0.,-1.));
#275=DIRECTION('center_axis',(1.,0.,0.));
#276=DIRECTION('ref_axis',(0.,0.,-1.));
#277=CARTESIAN_POINT('',(0.,0.,0.));
#278=CARTESIAN_POINT('Origin',(0.,0.,0.));
#279=CARTESIAN_POINT('',(-14.,-2.57175827820944E-15,21.));
#280=CARTESIAN_POINT('Origin',(-14.,0.,0.));
#281=CARTESIAN_POINT('',(0.,-2.57175827820944E-15,21.));
#282=CARTESIAN_POINT('',(0.,2.57175827820944E-15,21.));
#283=CARTESIAN_POINT('Origin',(0.,0.,0.));
#284=CARTESIAN_POINT('Origin',(-14.,0.,0.));
#285=CARTESIAN_POINT('',(-14.,-1.22464679914735E-15,10.));
#286=CARTESIAN_POINT('Origin',(-14.,0.,0.));
#287=CARTESIAN_POINT('Origin',(0.,35.,0.));
#288=CARTESIAN_POINT('',(12.,35.,3.));
#289=CARTESIAN_POINT('Origin',(12.,35.,0.));
#290=CARTESIAN_POINT('',(0.,35.,3.));
#291=CARTESIAN_POINT('',(0.,35.,3.));
#292=CARTESIAN_POINT('Origin',(0.,35.,0.));
#293=CARTESIAN_POINT('Origin',(0.,0.,-48.));
#294=CARTESIAN_POINT('',(12.,-3.67394039744206E-16,-45.));
#295=CARTESIAN_POINT('Origin',(12.,0.,-48.));
#296=CARTESIAN_POINT('',(0.,-3.67394039744206E-16,-45.));
#297=CARTESIAN_POINT('',(0.,-3.67394039744206E-16,-45.));
#298=CARTESIAN_POINT('Origin',(0.,0.,-48.));
#299=CARTESIAN_POINT('Origin',(0.,0.,-35.));
#300=CARTESIAN_POINT('',(12.,-3.67394039744206E-16,-32.));
#301=CARTESIAN_POINT('Origin',(12.,0.,-35.));
#302=CARTESIAN_POINT('',(0.,-3.67394039744206E-16,-32.));
#303=CARTESIAN_POINT('',(0.,-3.67394039744206E-16,-32.));
#304=CARTESIAN_POINT('Origin',(0.,0.,-35.));
#305=CARTESIAN_POINT('Origin',(0.,48.,0.));
#306=CARTESIAN_POINT('',(12.,48.,3.));
#307=CARTESIAN_POINT('Origin',(12.,48.,0.));
#308=CARTESIAN_POINT('',(0.,48.,3.));
#309=CARTESIAN_POINT('',(0.,48.,3.));
#310=CARTESIAN_POINT('Origin',(0.,48.,0.));
#311=CARTESIAN_POINT('Origin',(0.,0.,0.));
#312=CARTESIAN_POINT('',(12.,-1.22464679914735E-15,10.));
#313=CARTESIAN_POINT('Origin',(12.,0.,0.));
#314=CARTESIAN_POINT('',(0.,-1.22464679914735E-15,10.));
#315=CARTESIAN_POINT('Origin',(0.,0.,0.));
#316=CARTESIAN_POINT('',(12.,-7.34788079488412E-15,60.));
#317=CARTESIAN_POINT('Origin',(12.,0.,0.));
#318=CARTESIAN_POINT('',(0.,-7.34788079488412E-15,60.));
#319=CARTESIAN_POINT('',(0.,-7.34788079488412E-15,60.));
#320=CARTESIAN_POINT('Origin',(0.,0.,0.));
#321=CARTESIAN_POINT('Origin',(12.,0.,0.));
#322=CARTESIAN_POINT('Origin',(0.,0.,0.));
#323=UNCERTAINTY_MEASURE_WITH_UNIT(LENGTH_MEASURE(0.01),#327,
'DISTANCE_ACCURACY_VALUE',
'Maximum model space distance between geometric entities at asserted c
onnectivities');
#324=UNCERTAINTY_MEASURE_WITH_UNIT(LENGTH_MEASURE(0.01),#327,
'DISTANCE_ACCURACY_VALUE',
'Maximum model space distance between geometric entities at asserted c
onnectivities');
#325=(
GEOMETRIC_REPRESENTATION_CONTEXT(3)
GLOBAL_UNCERTAINTY_ASSIGNED_CONTEXT((#323))
GLOBAL_UNIT_ASSIGNED_CONTEXT((#327,#329,#330))
REPRESENTATION_CONTEXT('','3D')
);
#326=(
GEOMETRIC_REPRESENTATION_CONTEXT(3)
GLOBAL_UNCERTAINTY_ASSIGNED_CONTEXT((#324))
GLOBAL_UNIT_ASSIGNED_CONTEXT((#327,#329,#330))
REPRESENTATION_CONTEXT('','3D')
);
#327=(
LENGTH_UNIT()
NAMED_UNIT(*)
SI_UNIT(.MILLI.,.METRE.)
);
#328=(
LENGTH_UNIT()
NAMED_UNIT(*)
SI_UNIT($,.METRE.)
);
#329=(
NAMED_UNIT(*)
PLANE_ANGLE_UNIT()
SI_UNIT($,.RADIAN.)
);
#330=(
NAMED_UNIT(*)
SI_UNIT($,.STERADIAN.)
SOLID_ANGLE_UNIT()
);
#331=SHAPE_DEFINITION_REPRESENTATION(#332,#333);
#332=PRODUCT_DEFINITION_SHAPE('',$,#335);
#333=SHAPE_REPRESENTATION('',(#195),#325);
#334=PRODUCT_DEFINITION_CONTEXT('part definition',#339,'design');
#335=PRODUCT_DEFINITION('(N\X\E3o salvo)','(N\X\E3o salvo)',#336,#334);
#336=PRODUCT_DEFINITION_FORMATION('',$,#341);
#337=PRODUCT_RELATED_PRODUCT_CATEGORY('(N\X\E3o salvo)','(N\X\E3o salv
o)',(#341));
#338=APPLICATION_PROTOCOL_DEFINITION('international standard',
'automotive_design',2009,#339);
#339=APPLICATION_CONTEXT(
'Core Data for Automotive Mechanical Design Process');
#340=PRODUCT_CONTEXT('part definition',#339,'mechanical');
#341=PRODUCT('(N\X\E3o salvo)','(N\X\E3o salvo)',$,(#340));
#342=PRESENTATION_STYLE_ASSIGNMENT((#344));
#343=PRESENTATION_STYLE_ASSIGNMENT((#345));
#344=SURFACE_STYLE_USAGE(.BOTH.,#346);
#345=SURFACE_STYLE_USAGE(.BOTH.,#347);
#346=SURFACE_SIDE_STYLE('',(#348));
#347=SURFACE_SIDE_STYLE('',(#349));
#348=SURFACE_STYLE_FILL_AREA(#350);
#349=SURFACE_STYLE_FILL_AREA(#351);
#350=FILL_AREA_STYLE('A\X\E7o - Acetinado',(#352));
#351=FILL_AREA_STYLE('Aco_Usinado_Disco',(#353));
#352=FILL_AREA_STYLE_COLOUR('A\X\E7o - Acetinado',#354);
#353=FILL_AREA_STYLE_COLOUR('Aco_Usinado_Disco',#355);
#354=COLOUR_RGB('A\X\E7o - Acetinado',0.627450980392157,0.627450980392157,
0.627450980392157);
#355=COLOUR_RGB('Aco_Usinado_Disco',0.964705882352941,0.964705882352941,
0.952941176470588);
ENDSEC;
END-ISO-10303-21;
