ISO-10303-21;
HEADER;
/* Generated by software containing ST-Developer
 * from STEP Tools, Inc. (www.steptools.com) 
 */

FILE_DESCRIPTION(
/* description */ (''),
/* implementation_level */ '2;1');

FILE_NAME(
/* name */ '15_Botao_Emergencia_NR12.step',
/* time_stamp */ '2026-09-24T14:38:46-03:00',
/* author */ (''),
/* organization */ (''),
/* preprocessor_version */ 'ST-DEVELOPER v20.2',
/* originating_system */ 'Autodesk Translation Framework v15.15.0.0',
/* authorisation */ '');

FILE_SCHEMA (('AUTOMOTIVE_DESIGN { 1 0 10303 214 3 1 1 }'));
ENDSEC;

DATA;
#10=MECHANICAL_DESIGN_GEOMETRIC_PRESENTATION_REPRESENTATION('',(#26,#27,
#28,#29),#513);
#11=SHAPE_REPRESENTATION_RELATIONSHIP('SRR','None',#520,#12);
#12=ADVANCED_BREP_SHAPE_REPRESENTATION('',(#30,#31,#32,#33),#512);
#13=FACE_BOUND('',#74,.T.);
#14=TOROIDAL_SURFACE('',#331,16.,4.);
#15=CIRCLE('',#327,28.);
#16=CIRCLE('',#328,28.);
#17=CIRCLE('',#332,16.);
#18=CIRCLE('',#333,4.);
#19=CIRCLE('',#334,20.);
#20=CIRCLE('',#336,20.);
#21=CIRCLE('',#339,11.);
#22=CIRCLE('',#341,11.);
#23=CYLINDRICAL_SURFACE('',#326,28.);
#24=CYLINDRICAL_SURFACE('',#335,20.);
#25=CYLINDRICAL_SURFACE('',#340,11.);
#26=STYLED_ITEM('',(#530),#30);
#27=STYLED_ITEM('',(#529),#31);
#28=STYLED_ITEM('',(#531),#32);
#29=STYLED_ITEM('',(#532),#33);
#30=MANIFOLD_SOLID_BREP('Corpo1',#297);
#31=MANIFOLD_SOLID_BREP('Corpo2',#298);
#32=MANIFOLD_SOLID_BREP('Corpo3',#299);
#33=MANIFOLD_SOLID_BREP('Corpo4',#300);
#34=FACE_OUTER_BOUND('',#55,.T.);
#35=FACE_OUTER_BOUND('',#56,.T.);
#36=FACE_OUTER_BOUND('',#57,.T.);
#37=FACE_OUTER_BOUND('',#58,.T.);
#38=FACE_OUTER_BOUND('',#59,.T.);
#39=FACE_OUTER_BOUND('',#60,.T.);
#40=FACE_OUTER_BOUND('',#61,.T.);
#41=FACE_OUTER_BOUND('',#62,.T.);
#42=FACE_OUTER_BOUND('',#63,.T.);
#43=FACE_OUTER_BOUND('',#64,.T.);
#44=FACE_OUTER_BOUND('',#65,.T.);
#45=FACE_OUTER_BOUND('',#66,.T.);
#46=FACE_OUTER_BOUND('',#67,.T.);
#47=FACE_OUTER_BOUND('',#68,.T.);
#48=FACE_OUTER_BOUND('',#69,.T.);
#49=FACE_OUTER_BOUND('',#70,.T.);
#50=FACE_OUTER_BOUND('',#71,.T.);
#51=FACE_OUTER_BOUND('',#72,.T.);
#52=FACE_OUTER_BOUND('',#73,.T.);
#53=FACE_OUTER_BOUND('',#75,.T.);
#54=FACE_OUTER_BOUND('',#76,.T.);
#55=EDGE_LOOP('',(#189,#190,#191,#192));
#56=EDGE_LOOP('',(#193,#194,#195,#196));
#57=EDGE_LOOP('',(#197,#198,#199,#200));
#58=EDGE_LOOP('',(#201,#202,#203,#204));
#59=EDGE_LOOP('',(#205,#206,#207,#208));
#60=EDGE_LOOP('',(#209,#210,#211,#212));
#61=EDGE_LOOP('',(#213,#214,#215,#216));
#62=EDGE_LOOP('',(#217,#218,#219,#220));
#63=EDGE_LOOP('',(#221,#222,#223,#224));
#64=EDGE_LOOP('',(#225,#226,#227,#228));
#65=EDGE_LOOP('',(#229,#230,#231,#232));
#66=EDGE_LOOP('',(#233,#234,#235,#236));
#67=EDGE_LOOP('',(#237,#238,#239,#240));
#68=EDGE_LOOP('',(#241));
#69=EDGE_LOOP('',(#242));
#70=EDGE_LOOP('',(#243,#244,#245,#246));
#71=EDGE_LOOP('',(#247,#248,#249,#250));
#72=EDGE_LOOP('',(#251));
#73=EDGE_LOOP('',(#252));
#74=EDGE_LOOP('',(#253));
#75=EDGE_LOOP('',(#254,#255,#256,#257));
#76=EDGE_LOOP('',(#258));
#77=LINE('',#434,#104);
#78=LINE('',#436,#105);
#79=LINE('',#438,#106);
#80=LINE('',#439,#107);
#81=LINE('',#442,#108);
#82=LINE('',#444,#109);
#83=LINE('',#445,#110);
#84=LINE('',#448,#111);
#85=LINE('',#450,#112);
#86=LINE('',#451,#113);
#87=LINE('',#453,#114);
#88=LINE('',#454,#115);
#89=LINE('',#460,#116);
#90=LINE('',#462,#117);
#91=LINE('',#464,#118);
#92=LINE('',#465,#119);
#93=LINE('',#468,#120);
#94=LINE('',#470,#121);
#95=LINE('',#471,#122);
#96=LINE('',#474,#123);
#97=LINE('',#476,#124);
#98=LINE('',#477,#125);
#99=LINE('',#479,#126);
#100=LINE('',#480,#127);
#101=LINE('',#487,#128);
#102=LINE('',#499,#129);
#103=LINE('',#507,#130);
#104=VECTOR('',#347,10.);
#105=VECTOR('',#348,10.);
#106=VECTOR('',#349,10.);
#107=VECTOR('',#350,10.);
#108=VECTOR('',#353,10.);
#109=VECTOR('',#354,10.);
#110=VECTOR('',#355,10.);
#111=VECTOR('',#358,10.);
#112=VECTOR('',#359,10.);
#113=VECTOR('',#360,10.);
#114=VECTOR('',#363,10.);
#115=VECTOR('',#364,10.);
#116=VECTOR('',#371,10.);
#117=VECTOR('',#372,10.);
#118=VECTOR('',#373,10.);
#119=VECTOR('',#374,10.);
#120=VECTOR('',#377,10.);
#121=VECTOR('',#378,10.);
#122=VECTOR('',#379,10.);
#123=VECTOR('',#382,10.);
#124=VECTOR('',#383,10.);
#125=VECTOR('',#384,10.);
#126=VECTOR('',#387,10.);
#127=VECTOR('',#388,10.);
#128=VECTOR('',#397,28.);
#129=VECTOR('',#414,20.);
#130=VECTOR('',#425,11.);
#131=VERTEX_POINT('',#432);
#132=VERTEX_POINT('',#433);
#133=VERTEX_POINT('',#435);
#134=VERTEX_POINT('',#437);
#135=VERTEX_POINT('',#441);
#136=VERTEX_POINT('',#443);
#137=VERTEX_POINT('',#447);
#138=VERTEX_POINT('',#449);
#139=VERTEX_POINT('',#458);
#140=VERTEX_POINT('',#459);
#141=VERTEX_POINT('',#461);
#142=VERTEX_POINT('',#463);
#143=VERTEX_POINT('',#467);
#144=VERTEX_POINT('',#469);
#145=VERTEX_POINT('',#473);
#146=VERTEX_POINT('',#475);
#147=VERTEX_POINT('',#484);
#148=VERTEX_POINT('',#486);
#149=VERTEX_POINT('',#492);
#150=VERTEX_POINT('',#494);
#151=VERTEX_POINT('',#498);
#152=VERTEX_POINT('',#503);
#153=VERTEX_POINT('',#506);
#154=EDGE_CURVE('',#131,#132,#77,.T.);
#155=EDGE_CURVE('',#132,#133,#78,.T.);
#156=EDGE_CURVE('',#134,#133,#79,.T.);
#157=EDGE_CURVE('',#131,#134,#80,.T.);
#158=EDGE_CURVE('',#135,#131,#81,.T.);
#159=EDGE_CURVE('',#136,#134,#82,.T.);
#160=EDGE_CURVE('',#135,#136,#83,.T.);
#161=EDGE_CURVE('',#137,#135,#84,.T.);
#162=EDGE_CURVE('',#138,#136,#85,.T.);
#163=EDGE_CURVE('',#137,#138,#86,.T.);
#164=EDGE_CURVE('',#132,#137,#87,.T.);
#165=EDGE_CURVE('',#133,#138,#88,.T.);
#166=EDGE_CURVE('',#139,#140,#89,.T.);
#167=EDGE_CURVE('',#139,#141,#90,.T.);
#168=EDGE_CURVE('',#142,#141,#91,.T.);
#169=EDGE_CURVE('',#140,#142,#92,.T.);
#170=EDGE_CURVE('',#140,#143,#93,.T.);
#171=EDGE_CURVE('',#144,#142,#94,.T.);
#172=EDGE_CURVE('',#143,#144,#95,.T.);
#173=EDGE_CURVE('',#143,#145,#96,.T.);
#174=EDGE_CURVE('',#146,#144,#97,.T.);
#175=EDGE_CURVE('',#145,#146,#98,.T.);
#176=EDGE_CURVE('',#145,#139,#99,.T.);
#177=EDGE_CURVE('',#141,#146,#100,.T.);
#178=EDGE_CURVE('',#147,#147,#15,.T.);
#179=EDGE_CURVE('',#147,#148,#101,.T.);
#180=EDGE_CURVE('',#148,#148,#16,.T.);
#181=EDGE_CURVE('',#149,#149,#17,.T.);
#182=EDGE_CURVE('',#149,#150,#18,.T.);
#183=EDGE_CURVE('',#150,#150,#19,.T.);
#184=EDGE_CURVE('',#150,#151,#102,.T.);
#185=EDGE_CURVE('',#151,#151,#20,.T.);
#186=EDGE_CURVE('',#152,#152,#21,.T.);
#187=EDGE_CURVE('',#152,#153,#103,.T.);
#188=EDGE_CURVE('',#153,#153,#22,.T.);
#189=ORIENTED_EDGE('',*,*,#154,.T.);
#190=ORIENTED_EDGE('',*,*,#155,.T.);
#191=ORIENTED_EDGE('',*,*,#156,.F.);
#192=ORIENTED_EDGE('',*,*,#157,.F.);
#193=ORIENTED_EDGE('',*,*,#158,.T.);
#194=ORIENTED_EDGE('',*,*,#157,.T.);
#195=ORIENTED_EDGE('',*,*,#159,.F.);
#196=ORIENTED_EDGE('',*,*,#160,.F.);
#197=ORIENTED_EDGE('',*,*,#161,.T.);
#198=ORIENTED_EDGE('',*,*,#160,.T.);
#199=ORIENTED_EDGE('',*,*,#162,.F.);
#200=ORIENTED_EDGE('',*,*,#163,.F.);
#201=ORIENTED_EDGE('',*,*,#164,.T.);
#202=ORIENTED_EDGE('',*,*,#163,.T.);
#203=ORIENTED_EDGE('',*,*,#165,.F.);
#204=ORIENTED_EDGE('',*,*,#155,.F.);
#205=ORIENTED_EDGE('',*,*,#165,.T.);
#206=ORIENTED_EDGE('',*,*,#162,.T.);
#207=ORIENTED_EDGE('',*,*,#159,.T.);
#208=ORIENTED_EDGE('',*,*,#156,.T.);
#209=ORIENTED_EDGE('',*,*,#164,.F.);
#210=ORIENTED_EDGE('',*,*,#154,.F.);
#211=ORIENTED_EDGE('',*,*,#158,.F.);
#212=ORIENTED_EDGE('',*,*,#161,.F.);
#213=ORIENTED_EDGE('',*,*,#166,.F.);
#214=ORIENTED_EDGE('',*,*,#167,.T.);
#215=ORIENTED_EDGE('',*,*,#168,.F.);
#216=ORIENTED_EDGE('',*,*,#169,.F.);
#217=ORIENTED_EDGE('',*,*,#170,.F.);
#218=ORIENTED_EDGE('',*,*,#169,.T.);
#219=ORIENTED_EDGE('',*,*,#171,.F.);
#220=ORIENTED_EDGE('',*,*,#172,.F.);
#221=ORIENTED_EDGE('',*,*,#173,.F.);
#222=ORIENTED_EDGE('',*,*,#172,.T.);
#223=ORIENTED_EDGE('',*,*,#174,.F.);
#224=ORIENTED_EDGE('',*,*,#175,.F.);
#225=ORIENTED_EDGE('',*,*,#176,.F.);
#226=ORIENTED_EDGE('',*,*,#175,.T.);
#227=ORIENTED_EDGE('',*,*,#177,.F.);
#228=ORIENTED_EDGE('',*,*,#167,.F.);
#229=ORIENTED_EDGE('',*,*,#176,.T.);
#230=ORIENTED_EDGE('',*,*,#166,.T.);
#231=ORIENTED_EDGE('',*,*,#170,.T.);
#232=ORIENTED_EDGE('',*,*,#173,.T.);
#233=ORIENTED_EDGE('',*,*,#177,.T.);
#234=ORIENTED_EDGE('',*,*,#174,.T.);
#235=ORIENTED_EDGE('',*,*,#171,.T.);
#236=ORIENTED_EDGE('',*,*,#168,.T.);
#237=ORIENTED_EDGE('',*,*,#178,.F.);
#238=ORIENTED_EDGE('',*,*,#179,.T.);
#239=ORIENTED_EDGE('',*,*,#180,.T.);
#240=ORIENTED_EDGE('',*,*,#179,.F.);
#241=ORIENTED_EDGE('',*,*,#178,.T.);
#242=ORIENTED_EDGE('',*,*,#180,.F.);
#243=ORIENTED_EDGE('',*,*,#181,.T.);
#244=ORIENTED_EDGE('',*,*,#182,.T.);
#245=ORIENTED_EDGE('',*,*,#183,.T.);
#246=ORIENTED_EDGE('',*,*,#182,.F.);
#247=ORIENTED_EDGE('',*,*,#183,.F.);
#248=ORIENTED_EDGE('',*,*,#184,.T.);
#249=ORIENTED_EDGE('',*,*,#185,.T.);
#250=ORIENTED_EDGE('',*,*,#184,.F.);
#251=ORIENTED_EDGE('',*,*,#181,.F.);
#252=ORIENTED_EDGE('',*,*,#185,.F.);
#253=ORIENTED_EDGE('',*,*,#186,.T.);
#254=ORIENTED_EDGE('',*,*,#186,.F.);
#255=ORIENTED_EDGE('',*,*,#187,.T.);
#256=ORIENTED_EDGE('',*,*,#188,.T.);
#257=ORIENTED_EDGE('',*,*,#187,.F.);
#258=ORIENTED_EDGE('',*,*,#188,.F.);
#259=PLANE('',#314);
#260=PLANE('',#315);
#261=PLANE('',#316);
#262=PLANE('',#317);
#263=PLANE('',#318);
#264=PLANE('',#319);
#265=PLANE('',#320);
#266=PLANE('',#321);
#267=PLANE('',#322);
#268=PLANE('',#323);
#269=PLANE('',#324);
#270=PLANE('',#325);
#271=PLANE('',#329);
#272=PLANE('',#330);
#273=PLANE('',#337);
#274=PLANE('',#338);
#275=PLANE('',#342);
#276=ADVANCED_FACE('',(#34),#259,.T.);
#277=ADVANCED_FACE('',(#35),#260,.T.);
#278=ADVANCED_FACE('',(#36),#261,.T.);
#279=ADVANCED_FACE('',(#37),#262,.T.);
#280=ADVANCED_FACE('',(#38),#263,.T.);
#281=ADVANCED_FACE('',(#39),#264,.F.);
#282=ADVANCED_FACE('',(#40),#265,.T.);
#283=ADVANCED_FACE('',(#41),#266,.T.);
#284=ADVANCED_FACE('',(#42),#267,.T.);
#285=ADVANCED_FACE('',(#43),#268,.T.);
#286=ADVANCED_FACE('',(#44),#269,.T.);
#287=ADVANCED_FACE('',(#45),#270,.T.);
#288=ADVANCED_FACE('',(#46),#23,.T.);
#289=ADVANCED_FACE('',(#47),#271,.T.);
#290=ADVANCED_FACE('',(#48),#272,.F.);
#291=ADVANCED_FACE('',(#49),#14,.T.);
#292=ADVANCED_FACE('',(#50),#24,.T.);
#293=ADVANCED_FACE('',(#51),#273,.T.);
#294=ADVANCED_FACE('',(#52,#13),#274,.F.);
#295=ADVANCED_FACE('',(#53),#25,.T.);
#296=ADVANCED_FACE('',(#54),#275,.F.);
#297=CLOSED_SHELL('',(#276,#277,#278,#279,#280,#281));
#298=CLOSED_SHELL('',(#282,#283,#284,#285,#286,#287));
#299=CLOSED_SHELL('',(#288,#289,#290));
#300=CLOSED_SHELL('',(#291,#292,#293,#294,#295,#296));
#301=DERIVED_UNIT_ELEMENT(#303,1.);
#302=DERIVED_UNIT_ELEMENT(#515,-3.);
#303=(
MASS_UNIT()
NAMED_UNIT(*)
SI_UNIT(.KILO.,.GRAM.)
);
#304=DERIVED_UNIT((#301,#302));
#305=MEASURE_REPRESENTATION_ITEM('density measure',
POSITIVE_RATIO_MEASURE(7850.),#304);
#306=PROPERTY_DEFINITION_REPRESENTATION(#311,#308);
#307=PROPERTY_DEFINITION_REPRESENTATION(#312,#309);
#308=REPRESENTATION('material name',(#310),#512);
#309=REPRESENTATION('density',(#305),#512);
#310=DESCRIPTIVE_REPRESENTATION_ITEM('A\X\E7o','A\X\E7o');
#311=PROPERTY_DEFINITION('material property','material name',#522);
#312=PROPERTY_DEFINITION('material property','density of part',#522);
#313=AXIS2_PLACEMENT_3D('',#430,#343,#344);
#314=AXIS2_PLACEMENT_3D('',#431,#345,#346);
#315=AXIS2_PLACEMENT_3D('',#440,#351,#352);
#316=AXIS2_PLACEMENT_3D('',#446,#356,#357);
#317=AXIS2_PLACEMENT_3D('',#452,#361,#362);
#318=AXIS2_PLACEMENT_3D('',#455,#365,#366);
#319=AXIS2_PLACEMENT_3D('',#456,#367,#368);
#320=AXIS2_PLACEMENT_3D('',#457,#369,#370);
#321=AXIS2_PLACEMENT_3D('',#466,#375,#376);
#322=AXIS2_PLACEMENT_3D('',#472,#380,#381);
#323=AXIS2_PLACEMENT_3D('',#478,#385,#386);
#324=AXIS2_PLACEMENT_3D('',#481,#389,#390);
#325=AXIS2_PLACEMENT_3D('',#482,#391,#392);
#326=AXIS2_PLACEMENT_3D('',#483,#393,#394);
#327=AXIS2_PLACEMENT_3D('',#485,#395,#396);
#328=AXIS2_PLACEMENT_3D('',#488,#398,#399);
#329=AXIS2_PLACEMENT_3D('',#489,#400,#401);
#330=AXIS2_PLACEMENT_3D('',#490,#402,#403);
#331=AXIS2_PLACEMENT_3D('',#491,#404,#405);
#332=AXIS2_PLACEMENT_3D('',#493,#406,#407);
#333=AXIS2_PLACEMENT_3D('',#495,#408,#409);
#334=AXIS2_PLACEMENT_3D('',#496,#410,#411);
#335=AXIS2_PLACEMENT_3D('',#497,#412,#413);
#336=AXIS2_PLACEMENT_3D('',#500,#415,#416);
#337=AXIS2_PLACEMENT_3D('',#501,#417,#418);
#338=AXIS2_PLACEMENT_3D('',#502,#419,#420);
#339=AXIS2_PLACEMENT_3D('',#504,#421,#422);
#340=AXIS2_PLACEMENT_3D('',#505,#423,#424);
#341=AXIS2_PLACEMENT_3D('',#508,#426,#427);
#342=AXIS2_PLACEMENT_3D('',#509,#428,#429);
#343=DIRECTION('axis',(0.,0.,1.));
#344=DIRECTION('refdir',(1.,0.,0.));
#345=DIRECTION('center_axis',(0.,0.,-1.));
#346=DIRECTION('ref_axis',(-1.,0.,0.));
#347=DIRECTION('',(-1.,0.,0.));
#348=DIRECTION('',(0.,1.,0.));
#349=DIRECTION('',(-1.,0.,0.));
#350=DIRECTION('',(0.,1.,0.));
#351=DIRECTION('center_axis',(1.,0.,0.));
#352=DIRECTION('ref_axis',(0.,0.,-1.));
#353=DIRECTION('',(0.,0.,-1.));
#354=DIRECTION('',(0.,0.,-1.));
#355=DIRECTION('',(0.,1.,0.));
#356=DIRECTION('center_axis',(0.,0.,1.));
#357=DIRECTION('ref_axis',(1.,0.,0.));
#358=DIRECTION('',(1.,0.,0.));
#359=DIRECTION('',(1.,0.,0.));
#360=DIRECTION('',(0.,1.,0.));
#361=DIRECTION('center_axis',(-1.,0.,0.));
#362=DIRECTION('ref_axis',(0.,0.,1.));
#363=DIRECTION('',(0.,0.,1.));
#364=DIRECTION('',(0.,0.,1.));
#365=DIRECTION('center_axis',(0.,1.,0.));
#366=DIRECTION('ref_axis',(0.,0.,1.));
#367=DIRECTION('center_axis',(0.,1.,0.));
#368=DIRECTION('ref_axis',(1.,0.,0.));
#369=DIRECTION('center_axis',(0.,-1.,0.));
#370=DIRECTION('ref_axis',(-1.,0.,0.));
#371=DIRECTION('',(1.,0.,0.));
#372=DIRECTION('',(0.,0.,-1.));
#373=DIRECTION('',(-1.,0.,0.));
#374=DIRECTION('',(0.,0.,-1.));
#375=DIRECTION('center_axis',(1.,0.,0.));
#376=DIRECTION('ref_axis',(0.,-1.,0.));
#377=DIRECTION('',(0.,1.,0.));
#378=DIRECTION('',(0.,-1.,0.));
#379=DIRECTION('',(0.,0.,-1.));
#380=DIRECTION('center_axis',(0.,1.,0.));
#381=DIRECTION('ref_axis',(1.,0.,0.));
#382=DIRECTION('',(-1.,0.,0.));
#383=DIRECTION('',(1.,0.,0.));
#384=DIRECTION('',(0.,0.,-1.));
#385=DIRECTION('center_axis',(-1.,0.,0.));
#386=DIRECTION('ref_axis',(0.,1.,0.));
#387=DIRECTION('',(0.,-1.,0.));
#388=DIRECTION('',(0.,1.,0.));
#389=DIRECTION('center_axis',(0.,0.,1.));
#390=DIRECTION('ref_axis',(1.,0.,0.));
#391=DIRECTION('center_axis',(0.,0.,-1.));
#392=DIRECTION('ref_axis',(-1.,0.,0.));
#393=DIRECTION('center_axis',(0.,0.,1.));
#394=DIRECTION('ref_axis',(1.,0.,0.));
#395=DIRECTION('center_axis',(0.,0.,1.));
#396=DIRECTION('ref_axis',(1.,0.,0.));
#397=DIRECTION('',(0.,0.,-1.));
#398=DIRECTION('center_axis',(0.,0.,1.));
#399=DIRECTION('ref_axis',(1.,0.,0.));
#400=DIRECTION('center_axis',(0.,0.,1.));
#401=DIRECTION('ref_axis',(1.,0.,0.));
#402=DIRECTION('center_axis',(0.,0.,1.));
#403=DIRECTION('ref_axis',(1.,0.,0.));
#404=DIRECTION('center_axis',(0.,0.,1.));
#405=DIRECTION('ref_axis',(1.,0.,0.));
#406=DIRECTION('center_axis',(0.,0.,-1.));
#407=DIRECTION('ref_axis',(1.,0.,0.));
#408=DIRECTION('center_axis',(2.22044604925031E-16,-1.,0.));
#409=DIRECTION('ref_axis',(-1.,-2.22044604925031E-16,0.));
#410=DIRECTION('center_axis',(0.,0.,1.));
#411=DIRECTION('ref_axis',(1.,0.,0.));
#412=DIRECTION('center_axis',(0.,0.,1.));
#413=DIRECTION('ref_axis',(1.,0.,0.));
#414=DIRECTION('',(0.,0.,-1.));
#415=DIRECTION('center_axis',(0.,0.,1.));
#416=DIRECTION('ref_axis',(1.,0.,0.));
#417=DIRECTION('center_axis',(0.,0.,1.));
#418=DIRECTION('ref_axis',(1.,0.,0.));
#419=DIRECTION('center_axis',(0.,0.,1.));
#420=DIRECTION('ref_axis',(1.,0.,0.));
#421=DIRECTION('center_axis',(0.,0.,1.));
#422=DIRECTION('ref_axis',(1.,0.,0.));
#423=DIRECTION('center_axis',(0.,0.,1.));
#424=DIRECTION('ref_axis',(1.,0.,0.));
#425=DIRECTION('',(0.,0.,-1.));
#426=DIRECTION('center_axis',(0.,0.,1.));
#427=DIRECTION('ref_axis',(1.,0.,0.));
#428=DIRECTION('center_axis',(0.,0.,1.));
#429=DIRECTION('ref_axis',(1.,0.,0.));
#430=CARTESIAN_POINT('',(0.,0.,0.));
#431=CARTESIAN_POINT('Origin',(25.,0.,-40.));
#432=CARTESIAN_POINT('',(25.,0.,-40.));
#433=CARTESIAN_POINT('',(-25.,0.,-40.));
#434=CARTESIAN_POINT('',(25.,0.,-40.));
#435=CARTESIAN_POINT('',(-25.,6.,-40.));
#436=CARTESIAN_POINT('',(-25.,0.,-40.));
#437=CARTESIAN_POINT('',(25.,6.,-40.));
#438=CARTESIAN_POINT('',(25.,6.,-40.));
#439=CARTESIAN_POINT('',(25.,0.,-40.));
#440=CARTESIAN_POINT('Origin',(25.,0.,0.));
#441=CARTESIAN_POINT('',(25.,0.,0.));
#442=CARTESIAN_POINT('',(25.,0.,0.));
#443=CARTESIAN_POINT('',(25.,6.,0.));
#444=CARTESIAN_POINT('',(25.,6.,0.));
#445=CARTESIAN_POINT('',(25.,0.,0.));
#446=CARTESIAN_POINT('Origin',(-25.,0.,0.));
#447=CARTESIAN_POINT('',(-25.,0.,0.));
#448=CARTESIAN_POINT('',(-25.,0.,0.));
#449=CARTESIAN_POINT('',(-25.,6.,0.));
#450=CARTESIAN_POINT('',(-25.,6.,0.));
#451=CARTESIAN_POINT('',(-25.,0.,0.));
#452=CARTESIAN_POINT('Origin',(-25.,0.,-40.));
#453=CARTESIAN_POINT('',(-25.,0.,-40.));
#454=CARTESIAN_POINT('',(-25.,6.,-40.));
#455=CARTESIAN_POINT('Origin',(0.,6.,-20.));
#456=CARTESIAN_POINT('Origin',(0.,0.,-20.));
#457=CARTESIAN_POINT('Origin',(25.,6.,40.));
#458=CARTESIAN_POINT('',(-25.,6.,40.));
#459=CARTESIAN_POINT('',(25.,6.,40.));
#460=CARTESIAN_POINT('',(-25.,6.,40.));
#461=CARTESIAN_POINT('',(-25.,6.,34.));
#462=CARTESIAN_POINT('',(-25.,6.,40.));
#463=CARTESIAN_POINT('',(25.,6.,34.));
#464=CARTESIAN_POINT('',(-25.,6.,34.));
#465=CARTESIAN_POINT('',(25.,6.,40.));
#466=CARTESIAN_POINT('Origin',(25.,55.,40.));
#467=CARTESIAN_POINT('',(25.,55.,40.));
#468=CARTESIAN_POINT('',(25.,6.,40.));
#469=CARTESIAN_POINT('',(25.,55.,34.));
#470=CARTESIAN_POINT('',(25.,6.,34.));
#471=CARTESIAN_POINT('',(25.,55.,40.));
#472=CARTESIAN_POINT('Origin',(-25.,55.,40.));
#473=CARTESIAN_POINT('',(-25.,55.,40.));
#474=CARTESIAN_POINT('',(25.,55.,40.));
#475=CARTESIAN_POINT('',(-25.,55.,34.));
#476=CARTESIAN_POINT('',(25.,55.,34.));
#477=CARTESIAN_POINT('',(-25.,55.,40.));
#478=CARTESIAN_POINT('Origin',(-25.,6.,40.));
#479=CARTESIAN_POINT('',(-25.,55.,40.));
#480=CARTESIAN_POINT('',(-25.,55.,34.));
#481=CARTESIAN_POINT('Origin',(0.,30.5,40.));
#482=CARTESIAN_POINT('Origin',(0.,30.5,34.));
#483=CARTESIAN_POINT('Origin',(0.,30.5,40.));
#484=CARTESIAN_POINT('',(-28.,30.5,42.));
#485=CARTESIAN_POINT('Origin',(0.,30.5,42.));
#486=CARTESIAN_POINT('',(-28.,30.5,40.));
#487=CARTESIAN_POINT('',(-28.,30.5,40.));
#488=CARTESIAN_POINT('Origin',(0.,30.5,40.));
#489=CARTESIAN_POINT('Origin',(0.,30.5,42.));
#490=CARTESIAN_POINT('Origin',(0.,30.5,40.));
#491=CARTESIAN_POINT('Origin',(0.,30.5,62.));
#492=CARTESIAN_POINT('',(-16.,30.5,66.));
#493=CARTESIAN_POINT('Origin',(0.,30.5,66.));
#494=CARTESIAN_POINT('',(-20.,30.5,62.));
#495=CARTESIAN_POINT('Origin',(-16.,30.5,62.));
#496=CARTESIAN_POINT('Origin',(0.,30.5,62.));
#497=CARTESIAN_POINT('Origin',(0.,30.5,50.));
#498=CARTESIAN_POINT('',(-20.,30.5,50.));
#499=CARTESIAN_POINT('',(-20.,30.5,50.));
#500=CARTESIAN_POINT('Origin',(0.,30.5,50.));
#501=CARTESIAN_POINT('Origin',(0.,30.5,66.));
#502=CARTESIAN_POINT('Origin',(0.,30.5,50.));
#503=CARTESIAN_POINT('',(-11.,30.5,50.));
#504=CARTESIAN_POINT('Origin',(0.,30.5,50.));
#505=CARTESIAN_POINT('Origin',(0.,30.5,42.));
#506=CARTESIAN_POINT('',(-11.,30.5,42.));
#507=CARTESIAN_POINT('',(-11.,30.5,42.));
#508=CARTESIAN_POINT('Origin',(0.,30.5,42.));
#509=CARTESIAN_POINT('Origin',(0.,30.5,42.));
#510=UNCERTAINTY_MEASURE_WITH_UNIT(LENGTH_MEASURE(0.01),#514,
'DISTANCE_ACCURACY_VALUE',
'Maximum model space distance between geometric entities at asserted c
onnectivities');
#511=UNCERTAINTY_MEASURE_WITH_UNIT(LENGTH_MEASURE(0.01),#514,
'DISTANCE_ACCURACY_VALUE',
'Maximum model space distance between geometric entities at asserted c
onnectivities');
#512=(
GEOMETRIC_REPRESENTATION_CONTEXT(3)
GLOBAL_UNCERTAINTY_ASSIGNED_CONTEXT((#510))
GLOBAL_UNIT_ASSIGNED_CONTEXT((#514,#516,#517))
REPRESENTATION_CONTEXT('','3D')
);
#513=(
GEOMETRIC_REPRESENTATION_CONTEXT(3)
GLOBAL_UNCERTAINTY_ASSIGNED_CONTEXT((#511))
GLOBAL_UNIT_ASSIGNED_CONTEXT((#514,#516,#517))
REPRESENTATION_CONTEXT('','3D')
);
#514=(
LENGTH_UNIT()
NAMED_UNIT(*)
SI_UNIT(.MILLI.,.METRE.)
);
#515=(
LENGTH_UNIT()
NAMED_UNIT(*)
SI_UNIT($,.METRE.)
);
#516=(
NAMED_UNIT(*)
PLANE_ANGLE_UNIT()
SI_UNIT($,.RADIAN.)
);
#517=(
NAMED_UNIT(*)
SI_UNIT($,.STERADIAN.)
SOLID_ANGLE_UNIT()
);
#518=SHAPE_DEFINITION_REPRESENTATION(#519,#520);
#519=PRODUCT_DEFINITION_SHAPE('',$,#522);
#520=SHAPE_REPRESENTATION('',(#313),#512);
#521=PRODUCT_DEFINITION_CONTEXT('part definition',#526,'design');
#522=PRODUCT_DEFINITION('(N\X\E3o salvo)','(N\X\E3o salvo)',#523,#521);
#523=PRODUCT_DEFINITION_FORMATION('',$,#528);
#524=PRODUCT_RELATED_PRODUCT_CATEGORY('(N\X\E3o salvo)','(N\X\E3o salv
o)',(#528));
#525=APPLICATION_PROTOCOL_DEFINITION('international standard',
'automotive_design',2009,#526);
#526=APPLICATION_CONTEXT(
'Core Data for Automotive Mechanical Design Process');
#527=PRODUCT_CONTEXT('part definition',#526,'mechanical');
#528=PRODUCT('(N\X\E3o salvo)','(N\X\E3o salvo)',$,(#527));
#529=PRESENTATION_STYLE_ASSIGNMENT((#533));
#530=PRESENTATION_STYLE_ASSIGNMENT((#534));
#531=PRESENTATION_STYLE_ASSIGNMENT((#535));
#532=PRESENTATION_STYLE_ASSIGNMENT((#536));
#533=SURFACE_STYLE_USAGE(.BOTH.,#537);
#534=SURFACE_STYLE_USAGE(.BOTH.,#538);
#535=SURFACE_STYLE_USAGE(.BOTH.,#539);
#536=SURFACE_STYLE_USAGE(.BOTH.,#540);
#537=SURFACE_SIDE_STYLE('',(#541));
#538=SURFACE_SIDE_STYLE('',(#542));
#539=SURFACE_SIDE_STYLE('',(#543));
#540=SURFACE_SIDE_STYLE('',(#544));
#541=SURFACE_STYLE_FILL_AREA(#545);
#542=SURFACE_STYLE_FILL_AREA(#546);
#543=SURFACE_STYLE_FILL_AREA(#547);
#544=SURFACE_STYLE_FILL_AREA(#548);
#545=FILL_AREA_STYLE('A\X\E7o - Acetinado',(#549));
#546=FILL_AREA_STYLE('Mat_Suporte_Emergencia',(#550));
#547=FILL_AREA_STYLE('Mat_Amarelo_Advertencia_NR12',(#551));
#548=FILL_AREA_STYLE('Mat_Vermelho_Emergencia_NR12',(#552));
#549=FILL_AREA_STYLE_COLOUR('A\X\E7o - Acetinado',#553);
#550=FILL_AREA_STYLE_COLOUR('Mat_Suporte_Emergencia',#554);
#551=FILL_AREA_STYLE_COLOUR('Mat_Amarelo_Advertencia_NR12',#555);
#552=FILL_AREA_STYLE_COLOUR('Mat_Vermelho_Emergencia_NR12',#556);
#553=COLOUR_RGB('A\X\E7o - Acetinado',0.627450980392157,0.627450980392157,
0.627450980392157);
#554=COLOUR_RGB('Mat_Suporte_Emergencia',0.705882352941177,0.725490196078431,
0.745098039215686);
#555=COLOUR_RGB('Mat_Amarelo_Advertencia_NR12',0.96078431372549,0.803921568627451,
0.0392156862745098);
#556=COLOUR_RGB('Mat_Vermelho_Emergencia_NR12',0.862745098039216,0.0980392156862745,
0.0980392156862745);
ENDSEC;
END-ISO-10303-21;
