ISO-10303-21;
HEADER;
/* Generated by software containing ST-Developer
 * from STEP Tools, Inc. (www.steptools.com) 
 */

FILE_DESCRIPTION(
/* description */ (''),
/* implementation_level */ '2;1');

FILE_NAME(
/* name */ '16_Microswitch_Seguranca_Tampa.step',
/* time_stamp */ '2026-09-24T14:38:52-03:00',
/* author */ (''),
/* organization */ (''),
/* preprocessor_version */ 'ST-DEVELOPER v20.2',
/* originating_system */ 'Autodesk Translation Framework v15.15.0.0',
/* authorisation */ '');

FILE_SCHEMA (('AUTOMOTIVE_DESIGN { 1 0 10303 214 3 1 1 }'));
ENDSEC;

DATA;
#10=MECHANICAL_DESIGN_GEOMETRIC_PRESENTATION_REPRESENTATION('',(#16,#17,
#18),#388);
#11=SHAPE_REPRESENTATION_RELATIONSHIP('SRR','None',#395,#12);
#12=ADVANCED_BREP_SHAPE_REPRESENTATION('',(#19,#20,#21),#387);
#13=CIRCLE('',#259,3.);
#14=CIRCLE('',#260,3.);
#15=CYLINDRICAL_SURFACE('',#258,3.);
#16=STYLED_ITEM('',(#405),#19);
#17=STYLED_ITEM('',(#406),#20);
#18=STYLED_ITEM('',(#407),#21);
#19=MANIFOLD_SOLID_BREP('Corpo1',#230);
#20=MANIFOLD_SOLID_BREP('Corpo2',#231);
#21=MANIFOLD_SOLID_BREP('Corpo3',#232);
#22=FACE_OUTER_BOUND('',#37,.T.);
#23=FACE_OUTER_BOUND('',#38,.T.);
#24=FACE_OUTER_BOUND('',#39,.T.);
#25=FACE_OUTER_BOUND('',#40,.T.);
#26=FACE_OUTER_BOUND('',#41,.T.);
#27=FACE_OUTER_BOUND('',#42,.T.);
#28=FACE_OUTER_BOUND('',#43,.T.);
#29=FACE_OUTER_BOUND('',#44,.T.);
#30=FACE_OUTER_BOUND('',#45,.T.);
#31=FACE_OUTER_BOUND('',#46,.T.);
#32=FACE_OUTER_BOUND('',#47,.T.);
#33=FACE_OUTER_BOUND('',#48,.T.);
#34=FACE_OUTER_BOUND('',#49,.T.);
#35=FACE_OUTER_BOUND('',#50,.T.);
#36=FACE_OUTER_BOUND('',#51,.T.);
#37=EDGE_LOOP('',(#147,#148,#149,#150));
#38=EDGE_LOOP('',(#151,#152,#153,#154));
#39=EDGE_LOOP('',(#155,#156,#157,#158));
#40=EDGE_LOOP('',(#159,#160,#161,#162));
#41=EDGE_LOOP('',(#163,#164,#165,#166));
#42=EDGE_LOOP('',(#167,#168,#169,#170));
#43=EDGE_LOOP('',(#171,#172,#173,#174));
#44=EDGE_LOOP('',(#175,#176,#177,#178));
#45=EDGE_LOOP('',(#179,#180,#181,#182));
#46=EDGE_LOOP('',(#183,#184,#185,#186));
#47=EDGE_LOOP('',(#187,#188,#189,#190));
#48=EDGE_LOOP('',(#191,#192,#193,#194));
#49=EDGE_LOOP('',(#195,#196,#197,#198));
#50=EDGE_LOOP('',(#199));
#51=EDGE_LOOP('',(#200));
#52=LINE('',#328,#77);
#53=LINE('',#330,#78);
#54=LINE('',#332,#79);
#55=LINE('',#333,#80);
#56=LINE('',#336,#81);
#57=LINE('',#338,#82);
#58=LINE('',#339,#83);
#59=LINE('',#342,#84);
#60=LINE('',#344,#85);
#61=LINE('',#345,#86);
#62=LINE('',#347,#87);
#63=LINE('',#348,#88);
#64=LINE('',#354,#89);
#65=LINE('',#356,#90);
#66=LINE('',#358,#91);
#67=LINE('',#359,#92);
#68=LINE('',#362,#93);
#69=LINE('',#364,#94);
#70=LINE('',#365,#95);
#71=LINE('',#368,#96);
#72=LINE('',#370,#97);
#73=LINE('',#371,#98);
#74=LINE('',#373,#99);
#75=LINE('',#374,#100);
#76=LINE('',#381,#101);
#77=VECTOR('',#267,10.);
#78=VECTOR('',#268,10.);
#79=VECTOR('',#269,10.);
#80=VECTOR('',#270,10.);
#81=VECTOR('',#273,10.);
#82=VECTOR('',#274,10.);
#83=VECTOR('',#275,10.);
#84=VECTOR('',#278,10.);
#85=VECTOR('',#279,10.);
#86=VECTOR('',#280,10.);
#87=VECTOR('',#283,10.);
#88=VECTOR('',#284,10.);
#89=VECTOR('',#291,10.);
#90=VECTOR('',#292,10.);
#91=VECTOR('',#293,10.);
#92=VECTOR('',#294,10.);
#93=VECTOR('',#297,10.);
#94=VECTOR('',#298,10.);
#95=VECTOR('',#299,10.);
#96=VECTOR('',#302,10.);
#97=VECTOR('',#303,10.);
#98=VECTOR('',#304,10.);
#99=VECTOR('',#307,10.);
#100=VECTOR('',#308,10.);
#101=VECTOR('',#317,3.);
#102=VERTEX_POINT('',#326);
#103=VERTEX_POINT('',#327);
#104=VERTEX_POINT('',#329);
#105=VERTEX_POINT('',#331);
#106=VERTEX_POINT('',#335);
#107=VERTEX_POINT('',#337);
#108=VERTEX_POINT('',#341);
#109=VERTEX_POINT('',#343);
#110=VERTEX_POINT('',#352);
#111=VERTEX_POINT('',#353);
#112=VERTEX_POINT('',#355);
#113=VERTEX_POINT('',#357);
#114=VERTEX_POINT('',#361);
#115=VERTEX_POINT('',#363);
#116=VERTEX_POINT('',#367);
#117=VERTEX_POINT('',#369);
#118=VERTEX_POINT('',#378);
#119=VERTEX_POINT('',#380);
#120=EDGE_CURVE('',#102,#103,#52,.T.);
#121=EDGE_CURVE('',#103,#104,#53,.T.);
#122=EDGE_CURVE('',#105,#104,#54,.T.);
#123=EDGE_CURVE('',#102,#105,#55,.T.);
#124=EDGE_CURVE('',#106,#102,#56,.T.);
#125=EDGE_CURVE('',#107,#105,#57,.T.);
#126=EDGE_CURVE('',#106,#107,#58,.T.);
#127=EDGE_CURVE('',#108,#106,#59,.T.);
#128=EDGE_CURVE('',#109,#107,#60,.T.);
#129=EDGE_CURVE('',#108,#109,#61,.T.);
#130=EDGE_CURVE('',#103,#108,#62,.T.);
#131=EDGE_CURVE('',#104,#109,#63,.T.);
#132=EDGE_CURVE('',#110,#111,#64,.T.);
#133=EDGE_CURVE('',#110,#112,#65,.T.);
#134=EDGE_CURVE('',#113,#112,#66,.T.);
#135=EDGE_CURVE('',#111,#113,#67,.T.);
#136=EDGE_CURVE('',#111,#114,#68,.T.);
#137=EDGE_CURVE('',#115,#113,#69,.T.);
#138=EDGE_CURVE('',#114,#115,#70,.T.);
#139=EDGE_CURVE('',#114,#116,#71,.T.);
#140=EDGE_CURVE('',#117,#115,#72,.T.);
#141=EDGE_CURVE('',#116,#117,#73,.T.);
#142=EDGE_CURVE('',#116,#110,#74,.T.);
#143=EDGE_CURVE('',#112,#117,#75,.T.);
#144=EDGE_CURVE('',#118,#118,#13,.T.);
#145=EDGE_CURVE('',#118,#119,#76,.T.);
#146=EDGE_CURVE('',#119,#119,#14,.T.);
#147=ORIENTED_EDGE('',*,*,#120,.T.);
#148=ORIENTED_EDGE('',*,*,#121,.T.);
#149=ORIENTED_EDGE('',*,*,#122,.F.);
#150=ORIENTED_EDGE('',*,*,#123,.F.);
#151=ORIENTED_EDGE('',*,*,#124,.T.);
#152=ORIENTED_EDGE('',*,*,#123,.T.);
#153=ORIENTED_EDGE('',*,*,#125,.F.);
#154=ORIENTED_EDGE('',*,*,#126,.F.);
#155=ORIENTED_EDGE('',*,*,#127,.T.);
#156=ORIENTED_EDGE('',*,*,#126,.T.);
#157=ORIENTED_EDGE('',*,*,#128,.F.);
#158=ORIENTED_EDGE('',*,*,#129,.F.);
#159=ORIENTED_EDGE('',*,*,#130,.T.);
#160=ORIENTED_EDGE('',*,*,#129,.T.);
#161=ORIENTED_EDGE('',*,*,#131,.F.);
#162=ORIENTED_EDGE('',*,*,#121,.F.);
#163=ORIENTED_EDGE('',*,*,#131,.T.);
#164=ORIENTED_EDGE('',*,*,#128,.T.);
#165=ORIENTED_EDGE('',*,*,#125,.T.);
#166=ORIENTED_EDGE('',*,*,#122,.T.);
#167=ORIENTED_EDGE('',*,*,#130,.F.);
#168=ORIENTED_EDGE('',*,*,#120,.F.);
#169=ORIENTED_EDGE('',*,*,#124,.F.);
#170=ORIENTED_EDGE('',*,*,#127,.F.);
#171=ORIENTED_EDGE('',*,*,#132,.F.);
#172=ORIENTED_EDGE('',*,*,#133,.T.);
#173=ORIENTED_EDGE('',*,*,#134,.F.);
#174=ORIENTED_EDGE('',*,*,#135,.F.);
#175=ORIENTED_EDGE('',*,*,#136,.F.);
#176=ORIENTED_EDGE('',*,*,#135,.T.);
#177=ORIENTED_EDGE('',*,*,#137,.F.);
#178=ORIENTED_EDGE('',*,*,#138,.F.);
#179=ORIENTED_EDGE('',*,*,#139,.F.);
#180=ORIENTED_EDGE('',*,*,#138,.T.);
#181=ORIENTED_EDGE('',*,*,#140,.F.);
#182=ORIENTED_EDGE('',*,*,#141,.F.);
#183=ORIENTED_EDGE('',*,*,#142,.F.);
#184=ORIENTED_EDGE('',*,*,#141,.T.);
#185=ORIENTED_EDGE('',*,*,#143,.F.);
#186=ORIENTED_EDGE('',*,*,#133,.F.);
#187=ORIENTED_EDGE('',*,*,#142,.T.);
#188=ORIENTED_EDGE('',*,*,#132,.T.);
#189=ORIENTED_EDGE('',*,*,#136,.T.);
#190=ORIENTED_EDGE('',*,*,#139,.T.);
#191=ORIENTED_EDGE('',*,*,#143,.T.);
#192=ORIENTED_EDGE('',*,*,#140,.T.);
#193=ORIENTED_EDGE('',*,*,#137,.T.);
#194=ORIENTED_EDGE('',*,*,#134,.T.);
#195=ORIENTED_EDGE('',*,*,#144,.F.);
#196=ORIENTED_EDGE('',*,*,#145,.T.);
#197=ORIENTED_EDGE('',*,*,#146,.T.);
#198=ORIENTED_EDGE('',*,*,#145,.F.);
#199=ORIENTED_EDGE('',*,*,#144,.T.);
#200=ORIENTED_EDGE('',*,*,#146,.F.);
#201=PLANE('',#246);
#202=PLANE('',#247);
#203=PLANE('',#248);
#204=PLANE('',#249);
#205=PLANE('',#250);
#206=PLANE('',#251);
#207=PLANE('',#252);
#208=PLANE('',#253);
#209=PLANE('',#254);
#210=PLANE('',#255);
#211=PLANE('',#256);
#212=PLANE('',#257);
#213=PLANE('',#261);
#214=PLANE('',#262);
#215=ADVANCED_FACE('',(#22),#201,.T.);
#216=ADVANCED_FACE('',(#23),#202,.T.);
#217=ADVANCED_FACE('',(#24),#203,.T.);
#218=ADVANCED_FACE('',(#25),#204,.T.);
#219=ADVANCED_FACE('',(#26),#205,.T.);
#220=ADVANCED_FACE('',(#27),#206,.F.);
#221=ADVANCED_FACE('',(#28),#207,.T.);
#222=ADVANCED_FACE('',(#29),#208,.T.);
#223=ADVANCED_FACE('',(#30),#209,.T.);
#224=ADVANCED_FACE('',(#31),#210,.T.);
#225=ADVANCED_FACE('',(#32),#211,.T.);
#226=ADVANCED_FACE('',(#33),#212,.T.);
#227=ADVANCED_FACE('',(#34),#15,.T.);
#228=ADVANCED_FACE('',(#35),#213,.T.);
#229=ADVANCED_FACE('',(#36),#214,.F.);
#230=CLOSED_SHELL('',(#215,#216,#217,#218,#219,#220));
#231=CLOSED_SHELL('',(#221,#222,#223,#224,#225,#226));
#232=CLOSED_SHELL('',(#227,#228,#229));
#233=DERIVED_UNIT_ELEMENT(#235,1.);
#234=DERIVED_UNIT_ELEMENT(#390,-3.);
#235=(
MASS_UNIT()
NAMED_UNIT(*)
SI_UNIT(.KILO.,.GRAM.)
);
#236=DERIVED_UNIT((#233,#234));
#237=MEASURE_REPRESENTATION_ITEM('density measure',
POSITIVE_RATIO_MEASURE(7850.),#236);
#238=PROPERTY_DEFINITION_REPRESENTATION(#243,#240);
#239=PROPERTY_DEFINITION_REPRESENTATION(#244,#241);
#240=REPRESENTATION('material name',(#242),#387);
#241=REPRESENTATION('density',(#237),#387);
#242=DESCRIPTIVE_REPRESENTATION_ITEM('A\X\E7o','A\X\E7o');
#243=PROPERTY_DEFINITION('material property','material name',#397);
#244=PROPERTY_DEFINITION('material property','density of part',#397);
#245=AXIS2_PLACEMENT_3D('',#324,#263,#264);
#246=AXIS2_PLACEMENT_3D('',#325,#265,#266);
#247=AXIS2_PLACEMENT_3D('',#334,#271,#272);
#248=AXIS2_PLACEMENT_3D('',#340,#276,#277);
#249=AXIS2_PLACEMENT_3D('',#346,#281,#282);
#250=AXIS2_PLACEMENT_3D('',#349,#285,#286);
#251=AXIS2_PLACEMENT_3D('',#350,#287,#288);
#252=AXIS2_PLACEMENT_3D('',#351,#289,#290);
#253=AXIS2_PLACEMENT_3D('',#360,#295,#296);
#254=AXIS2_PLACEMENT_3D('',#366,#300,#301);
#255=AXIS2_PLACEMENT_3D('',#372,#305,#306);
#256=AXIS2_PLACEMENT_3D('',#375,#309,#310);
#257=AXIS2_PLACEMENT_3D('',#376,#311,#312);
#258=AXIS2_PLACEMENT_3D('',#377,#313,#314);
#259=AXIS2_PLACEMENT_3D('',#379,#315,#316);
#260=AXIS2_PLACEMENT_3D('',#382,#318,#319);
#261=AXIS2_PLACEMENT_3D('',#383,#320,#321);
#262=AXIS2_PLACEMENT_3D('',#384,#322,#323);
#263=DIRECTION('axis',(0.,0.,1.));
#264=DIRECTION('refdir',(1.,0.,0.));
#265=DIRECTION('center_axis',(0.,1.,0.));
#266=DIRECTION('ref_axis',(-1.,0.,0.));
#267=DIRECTION('',(-1.,0.,0.));
#268=DIRECTION('',(0.,0.,1.));
#269=DIRECTION('',(-1.,0.,0.));
#270=DIRECTION('',(0.,0.,1.));
#271=DIRECTION('center_axis',(1.,0.,0.));
#272=DIRECTION('ref_axis',(0.,1.,0.));
#273=DIRECTION('',(0.,1.,0.));
#274=DIRECTION('',(0.,1.,0.));
#275=DIRECTION('',(0.,0.,1.));
#276=DIRECTION('center_axis',(0.,-1.,0.));
#277=DIRECTION('ref_axis',(1.,0.,0.));
#278=DIRECTION('',(1.,0.,0.));
#279=DIRECTION('',(1.,0.,0.));
#280=DIRECTION('',(0.,0.,1.));
#281=DIRECTION('center_axis',(-1.,0.,0.));
#282=DIRECTION('ref_axis',(0.,-1.,0.));
#283=DIRECTION('',(0.,-1.,0.));
#284=DIRECTION('',(0.,-1.,0.));
#285=DIRECTION('center_axis',(0.,0.,1.));
#286=DIRECTION('ref_axis',(1.,0.,0.));
#287=DIRECTION('center_axis',(0.,0.,1.));
#288=DIRECTION('ref_axis',(1.,0.,0.));
#289=DIRECTION('center_axis',(0.,0.,1.));
#290=DIRECTION('ref_axis',(-1.,0.,0.));
#291=DIRECTION('',(1.,0.,0.));
#292=DIRECTION('',(0.,-1.,0.));
#293=DIRECTION('',(-1.,0.,0.));
#294=DIRECTION('',(0.,-1.,0.));
#295=DIRECTION('center_axis',(1.,0.,0.));
#296=DIRECTION('ref_axis',(0.,0.,1.));
#297=DIRECTION('',(0.,0.,-1.));
#298=DIRECTION('',(0.,0.,1.));
#299=DIRECTION('',(0.,-1.,0.));
#300=DIRECTION('center_axis',(0.,0.,-1.));
#301=DIRECTION('ref_axis',(1.,0.,0.));
#302=DIRECTION('',(-1.,0.,0.));
#303=DIRECTION('',(1.,0.,0.));
#304=DIRECTION('',(0.,-1.,0.));
#305=DIRECTION('center_axis',(-1.,0.,0.));
#306=DIRECTION('ref_axis',(0.,0.,-1.));
#307=DIRECTION('',(0.,0.,1.));
#308=DIRECTION('',(0.,0.,-1.));
#309=DIRECTION('center_axis',(0.,1.,0.));
#310=DIRECTION('ref_axis',(1.,0.,0.));
#311=DIRECTION('center_axis',(0.,-1.,0.));
#312=DIRECTION('ref_axis',(0.,0.,-1.));
#313=DIRECTION('center_axis',(0.,1.,0.));
#314=DIRECTION('ref_axis',(1.,0.,0.));
#315=DIRECTION('center_axis',(0.,1.,0.));
#316=DIRECTION('ref_axis',(1.,0.,0.));
#317=DIRECTION('',(0.,-1.,0.));
#318=DIRECTION('center_axis',(0.,1.,0.));
#319=DIRECTION('ref_axis',(1.,0.,0.));
#320=DIRECTION('center_axis',(0.,1.,0.));
#321=DIRECTION('ref_axis',(1.,0.,0.));
#322=DIRECTION('center_axis',(0.,1.,0.));
#323=DIRECTION('ref_axis',(1.,0.,0.));
#324=CARTESIAN_POINT('',(0.,0.,0.));
#325=CARTESIAN_POINT('Origin',(14.,10.,0.));
#326=CARTESIAN_POINT('',(14.,10.,0.));
#327=CARTESIAN_POINT('',(-14.,10.,0.));
#328=CARTESIAN_POINT('',(14.,10.,0.));
#329=CARTESIAN_POINT('',(-14.,10.,16.));
#330=CARTESIAN_POINT('',(-14.,10.,0.));
#331=CARTESIAN_POINT('',(14.,10.,16.));
#332=CARTESIAN_POINT('',(14.,10.,16.));
#333=CARTESIAN_POINT('',(14.,10.,0.));
#334=CARTESIAN_POINT('Origin',(14.,0.,0.));
#335=CARTESIAN_POINT('',(14.,0.,0.));
#336=CARTESIAN_POINT('',(14.,0.,0.));
#337=CARTESIAN_POINT('',(14.,0.,16.));
#338=CARTESIAN_POINT('',(14.,0.,16.));
#339=CARTESIAN_POINT('',(14.,0.,0.));
#340=CARTESIAN_POINT('Origin',(-14.,0.,0.));
#341=CARTESIAN_POINT('',(-14.,0.,0.));
#342=CARTESIAN_POINT('',(-14.,0.,0.));
#343=CARTESIAN_POINT('',(-14.,0.,16.));
#344=CARTESIAN_POINT('',(-14.,0.,16.));
#345=CARTESIAN_POINT('',(-14.,0.,0.));
#346=CARTESIAN_POINT('Origin',(-14.,10.,0.));
#347=CARTESIAN_POINT('',(-14.,10.,0.));
#348=CARTESIAN_POINT('',(-14.,10.,16.));
#349=CARTESIAN_POINT('Origin',(0.,5.,16.));
#350=CARTESIAN_POINT('Origin',(0.,5.,0.));
#351=CARTESIAN_POINT('Origin',(15.,0.,0.));
#352=CARTESIAN_POINT('',(-15.,0.,0.));
#353=CARTESIAN_POINT('',(15.,0.,0.));
#354=CARTESIAN_POINT('',(-15.,0.,0.));
#355=CARTESIAN_POINT('',(-15.,-4.,0.));
#356=CARTESIAN_POINT('',(-15.,0.,0.));
#357=CARTESIAN_POINT('',(15.,-4.,0.));
#358=CARTESIAN_POINT('',(-15.,-4.,0.));
#359=CARTESIAN_POINT('',(15.,0.,0.));
#360=CARTESIAN_POINT('Origin',(15.,0.,-20.));
#361=CARTESIAN_POINT('',(15.,0.,-20.));
#362=CARTESIAN_POINT('',(15.,0.,0.));
#363=CARTESIAN_POINT('',(15.,-4.,-20.));
#364=CARTESIAN_POINT('',(15.,-4.,0.));
#365=CARTESIAN_POINT('',(15.,0.,-20.));
#366=CARTESIAN_POINT('Origin',(-15.,0.,-20.));
#367=CARTESIAN_POINT('',(-15.,0.,-20.));
#368=CARTESIAN_POINT('',(15.,0.,-20.));
#369=CARTESIAN_POINT('',(-15.,-4.,-20.));
#370=CARTESIAN_POINT('',(15.,-4.,-20.));
#371=CARTESIAN_POINT('',(-15.,0.,-20.));
#372=CARTESIAN_POINT('Origin',(-15.,0.,0.));
#373=CARTESIAN_POINT('',(-15.,0.,-20.));
#374=CARTESIAN_POINT('',(-15.,-4.,-20.));
#375=CARTESIAN_POINT('Origin',(0.,0.,-10.));
#376=CARTESIAN_POINT('Origin',(0.,-4.,-10.));
#377=CARTESIAN_POINT('Origin',(12.,3.,-22.));
#378=CARTESIAN_POINT('',(9.,7.,-22.));
#379=CARTESIAN_POINT('Origin',(12.,7.,-22.));
#380=CARTESIAN_POINT('',(9.,3.,-22.));
#381=CARTESIAN_POINT('',(9.,3.,-22.));
#382=CARTESIAN_POINT('Origin',(12.,3.,-22.));
#383=CARTESIAN_POINT('Origin',(12.,7.,-22.));
#384=CARTESIAN_POINT('Origin',(12.,3.,-22.));
#385=UNCERTAINTY_MEASURE_WITH_UNIT(LENGTH_MEASURE(0.01),#389,
'DISTANCE_ACCURACY_VALUE',
'Maximum model space distance between geometric entities at asserted c
onnectivities');
#386=UNCERTAINTY_MEASURE_WITH_UNIT(LENGTH_MEASURE(0.01),#389,
'DISTANCE_ACCURACY_VALUE',
'Maximum model space distance between geometric entities at asserted c
onnectivities');
#387=(
GEOMETRIC_REPRESENTATION_CONTEXT(3)
GLOBAL_UNCERTAINTY_ASSIGNED_CONTEXT((#385))
GLOBAL_UNIT_ASSIGNED_CONTEXT((#389,#391,#392))
REPRESENTATION_CONTEXT('','3D')
);
#388=(
GEOMETRIC_REPRESENTATION_CONTEXT(3)
GLOBAL_UNCERTAINTY_ASSIGNED_CONTEXT((#386))
GLOBAL_UNIT_ASSIGNED_CONTEXT((#389,#391,#392))
REPRESENTATION_CONTEXT('','3D')
);
#389=(
LENGTH_UNIT()
NAMED_UNIT(*)
SI_UNIT(.MILLI.,.METRE.)
);
#390=(
LENGTH_UNIT()
NAMED_UNIT(*)
SI_UNIT($,.METRE.)
);
#391=(
NAMED_UNIT(*)
PLANE_ANGLE_UNIT()
SI_UNIT($,.RADIAN.)
);
#392=(
NAMED_UNIT(*)
SI_UNIT($,.STERADIAN.)
SOLID_ANGLE_UNIT()
);
#393=SHAPE_DEFINITION_REPRESENTATION(#394,#395);
#394=PRODUCT_DEFINITION_SHAPE('',$,#397);
#395=SHAPE_REPRESENTATION('',(#245),#387);
#396=PRODUCT_DEFINITION_CONTEXT('part definition',#401,'design');
#397=PRODUCT_DEFINITION('(N\X\E3o salvo)','(N\X\E3o salvo)',#398,#396);
#398=PRODUCT_DEFINITION_FORMATION('',$,#403);
#399=PRODUCT_RELATED_PRODUCT_CATEGORY('(N\X\E3o salvo)','(N\X\E3o salv
o)',(#403));
#400=APPLICATION_PROTOCOL_DEFINITION('international standard',
'automotive_design',2009,#401);
#401=APPLICATION_CONTEXT(
'Core Data for Automotive Mechanical Design Process');
#402=PRODUCT_CONTEXT('part definition',#401,'mechanical');
#403=PRODUCT('(N\X\E3o salvo)','(N\X\E3o salvo)',$,(#402));
#404=PRESENTATION_STYLE_ASSIGNMENT((#408));
#405=PRESENTATION_STYLE_ASSIGNMENT((#409));
#406=PRESENTATION_STYLE_ASSIGNMENT((#410));
#407=PRESENTATION_STYLE_ASSIGNMENT((#411));
#408=SURFACE_STYLE_USAGE(.BOTH.,#412);
#409=SURFACE_STYLE_USAGE(.BOTH.,#413);
#410=SURFACE_STYLE_USAGE(.BOTH.,#414);
#411=SURFACE_STYLE_USAGE(.BOTH.,#415);
#412=SURFACE_SIDE_STYLE('',(#416));
#413=SURFACE_SIDE_STYLE('',(#417));
#414=SURFACE_SIDE_STYLE('',(#418));
#415=SURFACE_SIDE_STYLE('',(#419));
#416=SURFACE_STYLE_FILL_AREA(#420);
#417=SURFACE_STYLE_FILL_AREA(#421);
#418=SURFACE_STYLE_FILL_AREA(#422);
#419=SURFACE_STYLE_FILL_AREA(#423);
#420=FILL_AREA_STYLE('A\X\E7o - Acetinado',(#424));
#421=FILL_AREA_STYLE('Mat_Switch_Termoplastico',(#425));
#422=FILL_AREA_STYLE('Mat_Suporte_Microswitch',(#426));
#423=FILL_AREA_STYLE('Mat_Rolete_Vermelho',(#427));
#424=FILL_AREA_STYLE_COLOUR('A\X\E7o - Acetinado',#428);
#425=FILL_AREA_STYLE_COLOUR('Mat_Switch_Termoplastico',#429);
#426=FILL_AREA_STYLE_COLOUR('Mat_Suporte_Microswitch',#430);
#427=FILL_AREA_STYLE_COLOUR('Mat_Rolete_Vermelho',#431);
#428=COLOUR_RGB('A\X\E7o - Acetinado',0.627450980392157,0.627450980392157,
0.627450980392157);
#429=COLOUR_RGB('Mat_Switch_Termoplastico',0.137254901960784,0.137254901960784,
0.149019607843137);
#430=COLOUR_RGB('Mat_Suporte_Microswitch',0.705882352941177,0.725490196078431,
0.745098039215686);
#431=COLOUR_RGB('Mat_Rolete_Vermelho',0.843137254901961,0.117647058823529,
0.117647058823529);
ENDSEC;
END-ISO-10303-21;
