M48
; DRILL file {KiCad 9.0.7} date 2026-09-26T16:36:30-0300
; FORMAT={-:-/ absolute / metric / decimal}
; #@! TF.CreationDate,2026-09-26T16:36:30-03:00
; #@! TF.GenerationSoftware,Kicad,Pcbnew,9.0.7
; #@! TF.FileFunction,Plated,1,2,PTH
FMAT,2
METRIC
; #@! TA.AperFunction,Plated,PTH,ComponentDrill
T1C0.700
; #@! TA.AperFunction,Plated,PTH,ComponentDrill
T2C0.800
; #@! TA.AperFunction,Plated,PTH,ComponentDrill
T3C0.950
; #@! TA.AperFunction,Plated,PTH,ComponentDrill
T4C1.000
%
G90
G05
T1
X9.46Y-11.5
X14.54Y-11.5
T2
X9.46Y-7.5
X11.96Y-7.5
T3
X3.25Y-43.8
X5.75Y-43.8
X8.25Y-43.8
X10.75Y-43.8
X13.25Y-43.8
X15.75Y-43.8
X18.25Y-43.8
X20.75Y-43.8
T4
X4.5Y-7.5
X4.5Y-10.04
X4.5Y-12.58
X4.5Y-15.12
X4.5Y-17.66
X4.5Y-20.2
X4.5Y-22.74
X4.5Y-25.28
X6.92Y-30.46
X6.92Y-33.0
X6.92Y-35.54
X9.46Y-4.0
X12.0Y-4.0
X14.54Y-4.0
X17.08Y-30.46
X17.08Y-33.0
X17.08Y-35.54
M30
