%TF.GenerationSoftware,KiCad,Pcbnew,9.0.7*%
%TF.CreationDate,2026-09-26T16:36:30-03:00*%
%TF.ProjectId,amemiya_probe_tower,616d656d-6979-4615-9f70-726f62655f74,v7.0*%
%TF.SameCoordinates,Original*%
%TF.FileFunction,Legend,Top*%
%TF.FilePolarity,Positive*%
%FSLAX46Y46*%
G04 Gerber Fmt 4.6, Leading zero omitted, Abs format (unit mm)*
G04 Created by KiCad (PCBNEW 9.0.7) date 2026-09-26 16:36:30*
%MOMM*%
%LPD*%
G01*
G04 APERTURE LIST*
G04 Aperture macros list*
%AMRoundRect*
0 Rectangle with rounded corners*
0 $1 Rounding radius*
0 $2 $3 $4 $5 $6 $7 $8 $9 X,Y pos of 4 corners*
0 Add a 4 corners polygon primitive as box body*
4,1,4,$2,$3,$4,$5,$6,$7,$8,$9,$2,$3,0*
0 Add four circle primitives for the rounded corners*
1,1,$1+$1,$2,$3*
1,1,$1+$1,$4,$5*
1,1,$1+$1,$6,$7*
1,1,$1+$1,$8,$9*
0 Add four rect primitives between the rounded corners*
20,1,$1+$1,$2,$3,$4,$5,0*
20,1,$1+$1,$4,$5,$6,$7,0*
20,1,$1+$1,$6,$7,$8,$9,0*
20,1,$1+$1,$8,$9,$2,$3,0*%
G04 Aperture macros list end*
%ADD10C,0.150000*%
%ADD11C,0.120000*%
%ADD12C,0.200000*%
%ADD13R,1.700000X1.700000*%
%ADD14C,1.700000*%
%ADD15RoundRect,0.250000X-0.600000X-0.725000X0.600000X-0.725000X0.600000X0.725000X-0.600000X0.725000X0*%
%ADD16O,1.700000X1.950000*%
%ADD17C,1.400000*%
%ADD18R,1.800000X1.800000*%
%ADD19C,1.800000*%
%ADD20C,1.600000*%
G04 APERTURE END LIST*
D10*
X1362295Y-17638095D02*
X1933723Y-17638095D01*
X1933723Y-17638095D02*
X2048009Y-17676190D01*
X2048009Y-17676190D02*
X2124200Y-17752381D01*
X2124200Y-17752381D02*
X2162295Y-17866666D01*
X2162295Y-17866666D02*
X2162295Y-17942857D01*
X2238485Y-17447619D02*
X2238485Y-16838095D01*
X1933723Y-16685714D02*
X1933723Y-16304761D01*
X2162295Y-16761904D02*
X1362295Y-16495237D01*
X1362295Y-16495237D02*
X2162295Y-16228571D01*
X2162295Y-15961904D02*
X1362295Y-15961904D01*
X1362295Y-15961904D02*
X1362295Y-15771428D01*
X1362295Y-15771428D02*
X1400390Y-15657142D01*
X1400390Y-15657142D02*
X1476580Y-15580952D01*
X1476580Y-15580952D02*
X1552771Y-15542857D01*
X1552771Y-15542857D02*
X1705152Y-15504761D01*
X1705152Y-15504761D02*
X1819438Y-15504761D01*
X1819438Y-15504761D02*
X1971819Y-15542857D01*
X1971819Y-15542857D02*
X2048009Y-15580952D01*
X2048009Y-15580952D02*
X2124200Y-15657142D01*
X2124200Y-15657142D02*
X2162295Y-15771428D01*
X2162295Y-15771428D02*
X2162295Y-15961904D01*
X1362295Y-15238095D02*
X2162295Y-14704761D01*
X1362295Y-14704761D02*
X2162295Y-15238095D01*
X2162295Y-14019047D02*
X2162295Y-14399999D01*
X2162295Y-14399999D02*
X1362295Y-14399999D01*
X10761904Y-24062295D02*
X10761904Y-24633723D01*
X10761904Y-24633723D02*
X10723809Y-24748009D01*
X10723809Y-24748009D02*
X10647618Y-24824200D01*
X10647618Y-24824200D02*
X10533333Y-24862295D01*
X10533333Y-24862295D02*
X10457142Y-24862295D01*
X10952381Y-24938485D02*
X11561904Y-24938485D01*
X11752381Y-24862295D02*
X11752381Y-24062295D01*
X11752381Y-24062295D02*
X12019047Y-24633723D01*
X12019047Y-24633723D02*
X12285714Y-24062295D01*
X12285714Y-24062295D02*
X12285714Y-24862295D01*
X12666667Y-24862295D02*
X12666667Y-24062295D01*
X13504762Y-24786104D02*
X13466666Y-24824200D01*
X13466666Y-24824200D02*
X13352381Y-24862295D01*
X13352381Y-24862295D02*
X13276190Y-24862295D01*
X13276190Y-24862295D02*
X13161904Y-24824200D01*
X13161904Y-24824200D02*
X13085714Y-24748009D01*
X13085714Y-24748009D02*
X13047619Y-24671819D01*
X13047619Y-24671819D02*
X13009523Y-24519438D01*
X13009523Y-24519438D02*
X13009523Y-24405152D01*
X13009523Y-24405152D02*
X13047619Y-24252771D01*
X13047619Y-24252771D02*
X13085714Y-24176580D01*
X13085714Y-24176580D02*
X13161904Y-24100390D01*
X13161904Y-24100390D02*
X13276190Y-24062295D01*
X13276190Y-24062295D02*
X13352381Y-24062295D01*
X13352381Y-24062295D02*
X13466666Y-24100390D01*
X13466666Y-24100390D02*
X13504762Y-24138485D01*
X10285713Y-1362295D02*
X10285713Y-1933723D01*
X10285713Y-1933723D02*
X10247618Y-2048009D01*
X10247618Y-2048009D02*
X10171427Y-2124200D01*
X10171427Y-2124200D02*
X10057142Y-2162295D01*
X10057142Y-2162295D02*
X9980951Y-2162295D01*
X10476190Y-2238485D02*
X11085713Y-2238485D01*
X11161904Y-1362295D02*
X11619047Y-1362295D01*
X11390475Y-2162295D02*
X11390475Y-1362295D01*
X11885714Y-1743247D02*
X12152380Y-1743247D01*
X12266666Y-2162295D02*
X11885714Y-2162295D01*
X11885714Y-2162295D02*
X11885714Y-1362295D01*
X11885714Y-1362295D02*
X12266666Y-1362295D01*
X12609524Y-2162295D02*
X12609524Y-1362295D01*
X12609524Y-1362295D02*
X12876190Y-1933723D01*
X12876190Y-1933723D02*
X13142857Y-1362295D01*
X13142857Y-1362295D02*
X13142857Y-2162295D01*
X13523810Y-2162295D02*
X13523810Y-1362295D01*
X13523810Y-1362295D02*
X13828572Y-1362295D01*
X13828572Y-1362295D02*
X13904762Y-1400390D01*
X13904762Y-1400390D02*
X13942857Y-1438485D01*
X13942857Y-1438485D02*
X13980953Y-1514676D01*
X13980953Y-1514676D02*
X13980953Y-1628961D01*
X13980953Y-1628961D02*
X13942857Y-1705152D01*
X13942857Y-1705152D02*
X13904762Y-1743247D01*
X13904762Y-1743247D02*
X13828572Y-1781342D01*
X13828572Y-1781342D02*
X13523810Y-1781342D01*
D11*
%TO.C,J_ADXL*%
X3120000Y-6120000D02*
X4500000Y-6120000D01*
X3120000Y-7500000D02*
X3120000Y-6120000D01*
X3120000Y-8770000D02*
X3120000Y-26660000D01*
X3120000Y-8770000D02*
X5880000Y-8770000D01*
X3120000Y-26660000D02*
X5880000Y-26660000D01*
X5880000Y-8770000D02*
X5880000Y-26660000D01*
%TO.C,J_CABLE*%
X400000Y-41050000D02*
X400000Y-42300000D01*
X700000Y-43600000D02*
X1450000Y-43600000D01*
X1450000Y-43600000D02*
X1450000Y-46550000D01*
X1450000Y-46550000D02*
X12000000Y-46550000D01*
X1650000Y-41050000D02*
X400000Y-41050000D01*
X22550000Y-43600000D02*
X22550000Y-46550000D01*
X22550000Y-46550000D02*
X12000000Y-46550000D01*
X23300000Y-43600000D02*
X22550000Y-43600000D01*
X690000Y-41340000D02*
X23310000Y-41340000D01*
X23310000Y-47310000D01*
X690000Y-47310000D01*
X690000Y-41340000D01*
X700000Y-41350000D02*
X2500000Y-41350000D01*
X2500000Y-42100000D01*
X700000Y-42100000D01*
X700000Y-41350000D01*
X4000000Y-41350000D02*
X20000000Y-41350000D01*
X20000000Y-42100000D01*
X4000000Y-42100000D01*
X4000000Y-41350000D01*
X21500000Y-41350000D02*
X23300000Y-41350000D01*
X23300000Y-42100000D01*
X21500000Y-42100000D01*
X21500000Y-41350000D01*
%TO.C,R1*%
X10080000Y-10580000D02*
X13920000Y-10580000D01*
X10080000Y-12420000D02*
X13920000Y-12420000D01*
D10*
%TO.C,J_MIC*%
X13800000Y-33000000D02*
G75*
G02*
X10200000Y-33000000I-1800000J0D01*
G01*
X10200000Y-33000000D02*
G75*
G02*
X13800000Y-33000000I1800000J0D01*
G01*
D12*
X19000000Y-33000000D02*
G75*
G02*
X5000000Y-33000000I-7000000J0D01*
G01*
X5000000Y-33000000D02*
G75*
G02*
X19000000Y-33000000I7000000J0D01*
G01*
D11*
%TO.C,C1*%
X8690000Y-6080000D02*
X12730000Y-6080000D01*
X8690000Y-6801000D02*
X8690000Y-6080000D01*
X8690000Y-8920000D02*
X8690000Y-8199000D01*
X12730000Y-6080000D02*
X12730000Y-6801000D01*
X12730000Y-8199000D02*
X12730000Y-8920000D01*
X12730000Y-8920000D02*
X8690000Y-8920000D01*
%TO.C,J_TEMP*%
X8080000Y-5380000D02*
X8080000Y-4000000D01*
X9460000Y-5380000D02*
X8080000Y-5380000D01*
X10730000Y-2620000D02*
X15920000Y-2620000D01*
X10730000Y-5380000D02*
X10730000Y-2620000D01*
X10730000Y-5380000D02*
X15920000Y-5380000D01*
X15920000Y-5380000D02*
X15920000Y-2620000D01*
%TD*%
%LPC*%
D13*
%TO.C,J_ADXL*%
X4500000Y-7500000D03*
D14*
X4500000Y-10040000D03*
X4500000Y-12580000D03*
X4500000Y-15120000D03*
X4500000Y-17660000D03*
X4500000Y-20200000D03*
X4500000Y-22740000D03*
X4500000Y-25280000D03*
%TD*%
D15*
%TO.C,J_CABLE*%
X3250000Y-43800000D03*
D16*
X5750000Y-43800000D03*
X8250000Y-43800000D03*
X10750000Y-43800000D03*
X13250000Y-43800000D03*
X15750000Y-43800000D03*
X18250000Y-43800000D03*
X20750000Y-43800000D03*
%TD*%
D17*
%TO.C,R1*%
X9460000Y-11500000D03*
X14540000Y-11500000D03*
%TD*%
D18*
%TO.C,J_MIC*%
X6920000Y-30460000D03*
D19*
X6920000Y-33000000D03*
X6920000Y-35540000D03*
D18*
X17080000Y-30460000D03*
D19*
X17080000Y-33000000D03*
X17080000Y-35540000D03*
%TD*%
D20*
%TO.C,C1*%
X9460000Y-7500000D03*
X11960000Y-7500000D03*
%TD*%
D13*
%TO.C,J_TEMP*%
X9460000Y-4000000D03*
D14*
X12000000Y-4000000D03*
X14540000Y-4000000D03*
%TD*%
%LPD*%
M02*
