%TF.GenerationSoftware,KiCad,Pcbnew,9.0.7*%
%TF.CreationDate,2026-09-26T15:32:39-03:00*%
%TF.ProjectId,amemiya_main_node,616d656d-6979-4615-9f6d-61696e5f6e6f,rev?*%
%TF.SameCoordinates,Original*%
%TF.FileFunction,Legend,Top*%
%TF.FilePolarity,Positive*%
%FSLAX46Y46*%
G04 Gerber Fmt 4.6, Leading zero omitted, Abs format (unit mm)*
G04 Created by KiCad (PCBNEW 9.0.7) date 2026-09-26 15:32:39*
%MOMM*%
%LPD*%
G01*
G04 APERTURE LIST*
G04 Aperture macros list*
%AMRoundRect*
0 Rectangle with rounded corners*
0 $1 Rounding radius*
0 $2 $3 $4 $5 $6 $7 $8 $9 X,Y pos of 4 corners*
0 Add a 4 corners polygon primitive as box body*
4,1,4,$2,$3,$4,$5,$6,$7,$8,$9,$2,$3,0*
0 Add four circle primitives for the rounded corners*
1,1,$1+$1,$2,$3*
1,1,$1+$1,$4,$5*
1,1,$1+$1,$6,$7*
1,1,$1+$1,$8,$9*
0 Add four rect primitives between the rounded corners*
20,1,$1+$1,$2,$3,$4,$5,0*
20,1,$1+$1,$4,$5,$6,$7,0*
20,1,$1+$1,$6,$7,$8,$9,0*
20,1,$1+$1,$8,$9,$2,$3,0*%
G04 Aperture macros list end*
%ADD10C,0.150000*%
%ADD11C,0.120000*%
%ADD12RoundRect,0.250000X0.450000X-0.262500X0.450000X0.262500X-0.450000X0.262500X-0.450000X-0.262500X0*%
%ADD13C,3.200000*%
%ADD14RoundRect,0.250000X-0.725000X0.600000X-0.725000X-0.600000X0.725000X-0.600000X0.725000X0.600000X0*%
%ADD15O,1.950000X1.700000*%
%ADD16RoundRect,0.250000X-0.600000X-0.750000X0.600000X-0.750000X0.600000X0.750000X-0.600000X0.750000X0*%
%ADD17O,1.700000X2.000000*%
%ADD18RoundRect,0.112500X-0.187500X-0.112500X0.187500X-0.112500X0.187500X0.112500X-0.187500X0.112500X0*%
%ADD19RoundRect,0.250000X-0.262500X-0.450000X0.262500X-0.450000X0.262500X0.450000X-0.262500X0.450000X0*%
%ADD20RoundRect,0.250000X-0.250000X-0.475000X0.250000X-0.475000X0.250000X0.475000X-0.250000X0.475000X0*%
%ADD21RoundRect,0.250000X0.475000X-0.250000X0.475000X0.250000X-0.475000X0.250000X-0.475000X-0.250000X0*%
%ADD22R,1.700000X1.700000*%
%ADD23C,1.700000*%
%ADD24RoundRect,0.250000X0.550000X-0.550000X0.550000X0.550000X-0.550000X0.550000X-0.550000X-0.550000X0*%
%ADD25C,1.600000*%
%ADD26RoundRect,0.250000X-0.750000X0.600000X-0.750000X-0.600000X0.750000X-0.600000X0.750000X0.600000X0*%
%ADD27O,2.000000X1.700000*%
G04 APERTURE END LIST*
D10*
X84562295Y-50657143D02*
X85133723Y-50657143D01*
X85133723Y-50657143D02*
X85248009Y-50695238D01*
X85248009Y-50695238D02*
X85324200Y-50771429D01*
X85324200Y-50771429D02*
X85362295Y-50885714D01*
X85362295Y-50885714D02*
X85362295Y-50961905D01*
X85438485Y-50466667D02*
X85438485Y-49857143D01*
X85362295Y-49285714D02*
X85362295Y-49666666D01*
X85362295Y-49666666D02*
X84562295Y-49666666D01*
X84943247Y-49019047D02*
X84943247Y-48752381D01*
X85362295Y-48638095D02*
X85362295Y-49019047D01*
X85362295Y-49019047D02*
X84562295Y-49019047D01*
X84562295Y-49019047D02*
X84562295Y-48638095D01*
X85362295Y-48295237D02*
X84562295Y-48295237D01*
X84562295Y-48295237D02*
X84562295Y-48104761D01*
X84562295Y-48104761D02*
X84600390Y-47990475D01*
X84600390Y-47990475D02*
X84676580Y-47914285D01*
X84676580Y-47914285D02*
X84752771Y-47876190D01*
X84752771Y-47876190D02*
X84905152Y-47838094D01*
X84905152Y-47838094D02*
X85019438Y-47838094D01*
X85019438Y-47838094D02*
X85171819Y-47876190D01*
X85171819Y-47876190D02*
X85248009Y-47914285D01*
X85248009Y-47914285D02*
X85324200Y-47990475D01*
X85324200Y-47990475D02*
X85362295Y-48104761D01*
X85362295Y-48104761D02*
X85362295Y-48295237D01*
X85324200Y-47533333D02*
X85362295Y-47419047D01*
X85362295Y-47419047D02*
X85362295Y-47228571D01*
X85362295Y-47228571D02*
X85324200Y-47152380D01*
X85324200Y-47152380D02*
X85286104Y-47114285D01*
X85286104Y-47114285D02*
X85209914Y-47076190D01*
X85209914Y-47076190D02*
X85133723Y-47076190D01*
X85133723Y-47076190D02*
X85057533Y-47114285D01*
X85057533Y-47114285D02*
X85019438Y-47152380D01*
X85019438Y-47152380D02*
X84981342Y-47228571D01*
X84981342Y-47228571D02*
X84943247Y-47380952D01*
X84943247Y-47380952D02*
X84905152Y-47457142D01*
X84905152Y-47457142D02*
X84867057Y-47495237D01*
X84867057Y-47495237D02*
X84790866Y-47533333D01*
X84790866Y-47533333D02*
X84714676Y-47533333D01*
X84714676Y-47533333D02*
X84638485Y-47495237D01*
X84638485Y-47495237D02*
X84600390Y-47457142D01*
X84600390Y-47457142D02*
X84562295Y-47380952D01*
X84562295Y-47380952D02*
X84562295Y-47190475D01*
X84562295Y-47190475D02*
X84600390Y-47076190D01*
X61552380Y-65562295D02*
X61552380Y-66133723D01*
X61552380Y-66133723D02*
X61514285Y-66248009D01*
X61514285Y-66248009D02*
X61438094Y-66324200D01*
X61438094Y-66324200D02*
X61323809Y-66362295D01*
X61323809Y-66362295D02*
X61247618Y-66362295D01*
X61742857Y-66438485D02*
X62352380Y-66438485D01*
X62809523Y-65943247D02*
X62923809Y-65981342D01*
X62923809Y-65981342D02*
X62961904Y-66019438D01*
X62961904Y-66019438D02*
X63000000Y-66095628D01*
X63000000Y-66095628D02*
X63000000Y-66209914D01*
X63000000Y-66209914D02*
X62961904Y-66286104D01*
X62961904Y-66286104D02*
X62923809Y-66324200D01*
X62923809Y-66324200D02*
X62847619Y-66362295D01*
X62847619Y-66362295D02*
X62542857Y-66362295D01*
X62542857Y-66362295D02*
X62542857Y-65562295D01*
X62542857Y-65562295D02*
X62809523Y-65562295D01*
X62809523Y-65562295D02*
X62885714Y-65600390D01*
X62885714Y-65600390D02*
X62923809Y-65638485D01*
X62923809Y-65638485D02*
X62961904Y-65714676D01*
X62961904Y-65714676D02*
X62961904Y-65790866D01*
X62961904Y-65790866D02*
X62923809Y-65867057D01*
X62923809Y-65867057D02*
X62885714Y-65905152D01*
X62885714Y-65905152D02*
X62809523Y-65943247D01*
X62809523Y-65943247D02*
X62542857Y-65943247D01*
X63304761Y-66133723D02*
X63685714Y-66133723D01*
X63228571Y-66362295D02*
X63495238Y-65562295D01*
X63495238Y-65562295D02*
X63761904Y-66362295D01*
X63914285Y-65562295D02*
X64371428Y-65562295D01*
X64142856Y-66362295D02*
X64142856Y-65562295D01*
X64447619Y-66438485D02*
X65057142Y-66438485D01*
X65209523Y-66324200D02*
X65323809Y-66362295D01*
X65323809Y-66362295D02*
X65514285Y-66362295D01*
X65514285Y-66362295D02*
X65590476Y-66324200D01*
X65590476Y-66324200D02*
X65628571Y-66286104D01*
X65628571Y-66286104D02*
X65666666Y-66209914D01*
X65666666Y-66209914D02*
X65666666Y-66133723D01*
X65666666Y-66133723D02*
X65628571Y-66057533D01*
X65628571Y-66057533D02*
X65590476Y-66019438D01*
X65590476Y-66019438D02*
X65514285Y-65981342D01*
X65514285Y-65981342D02*
X65361904Y-65943247D01*
X65361904Y-65943247D02*
X65285714Y-65905152D01*
X65285714Y-65905152D02*
X65247619Y-65867057D01*
X65247619Y-65867057D02*
X65209523Y-65790866D01*
X65209523Y-65790866D02*
X65209523Y-65714676D01*
X65209523Y-65714676D02*
X65247619Y-65638485D01*
X65247619Y-65638485D02*
X65285714Y-65600390D01*
X65285714Y-65600390D02*
X65361904Y-65562295D01*
X65361904Y-65562295D02*
X65552381Y-65562295D01*
X65552381Y-65562295D02*
X65666666Y-65600390D01*
X66009524Y-65943247D02*
X66276190Y-65943247D01*
X66390476Y-66362295D02*
X66009524Y-66362295D01*
X66009524Y-66362295D02*
X66009524Y-65562295D01*
X66009524Y-65562295D02*
X66390476Y-65562295D01*
X66733334Y-66362295D02*
X66733334Y-65562295D01*
X66733334Y-65562295D02*
X67190477Y-66362295D01*
X67190477Y-66362295D02*
X67190477Y-65562295D01*
X67533333Y-66324200D02*
X67647619Y-66362295D01*
X67647619Y-66362295D02*
X67838095Y-66362295D01*
X67838095Y-66362295D02*
X67914286Y-66324200D01*
X67914286Y-66324200D02*
X67952381Y-66286104D01*
X67952381Y-66286104D02*
X67990476Y-66209914D01*
X67990476Y-66209914D02*
X67990476Y-66133723D01*
X67990476Y-66133723D02*
X67952381Y-66057533D01*
X67952381Y-66057533D02*
X67914286Y-66019438D01*
X67914286Y-66019438D02*
X67838095Y-65981342D01*
X67838095Y-65981342D02*
X67685714Y-65943247D01*
X67685714Y-65943247D02*
X67609524Y-65905152D01*
X67609524Y-65905152D02*
X67571429Y-65867057D01*
X67571429Y-65867057D02*
X67533333Y-65790866D01*
X67533333Y-65790866D02*
X67533333Y-65714676D01*
X67533333Y-65714676D02*
X67571429Y-65638485D01*
X67571429Y-65638485D02*
X67609524Y-65600390D01*
X67609524Y-65600390D02*
X67685714Y-65562295D01*
X67685714Y-65562295D02*
X67876191Y-65562295D01*
X67876191Y-65562295D02*
X67990476Y-65600390D01*
X68333334Y-65943247D02*
X68600000Y-65943247D01*
X68714286Y-66362295D02*
X68333334Y-66362295D01*
X68333334Y-66362295D02*
X68333334Y-65562295D01*
X68333334Y-65562295D02*
X68714286Y-65562295D01*
X5562295Y-57076190D02*
X6133723Y-57076190D01*
X6133723Y-57076190D02*
X6248009Y-57114285D01*
X6248009Y-57114285D02*
X6324200Y-57190476D01*
X6324200Y-57190476D02*
X6362295Y-57304761D01*
X6362295Y-57304761D02*
X6362295Y-57380952D01*
X6438485Y-56885714D02*
X6438485Y-56276190D01*
X5562295Y-56199999D02*
X5562295Y-55742856D01*
X6362295Y-55971428D02*
X5562295Y-55971428D01*
X6133723Y-55514285D02*
X6133723Y-55133332D01*
X6362295Y-55590475D02*
X5562295Y-55323808D01*
X5562295Y-55323808D02*
X6362295Y-55057142D01*
X6286104Y-54333332D02*
X6324200Y-54371428D01*
X6324200Y-54371428D02*
X6362295Y-54485713D01*
X6362295Y-54485713D02*
X6362295Y-54561904D01*
X6362295Y-54561904D02*
X6324200Y-54676190D01*
X6324200Y-54676190D02*
X6248009Y-54752380D01*
X6248009Y-54752380D02*
X6171819Y-54790475D01*
X6171819Y-54790475D02*
X6019438Y-54828571D01*
X6019438Y-54828571D02*
X5905152Y-54828571D01*
X5905152Y-54828571D02*
X5752771Y-54790475D01*
X5752771Y-54790475D02*
X5676580Y-54752380D01*
X5676580Y-54752380D02*
X5600390Y-54676190D01*
X5600390Y-54676190D02*
X5562295Y-54561904D01*
X5562295Y-54561904D02*
X5562295Y-54485713D01*
X5562295Y-54485713D02*
X5600390Y-54371428D01*
X5600390Y-54371428D02*
X5638485Y-54333332D01*
X6362295Y-53990475D02*
X5562295Y-53990475D01*
X5943247Y-53990475D02*
X5943247Y-53533332D01*
X6362295Y-53533332D02*
X5562295Y-53533332D01*
X5562295Y-52999999D02*
X5562295Y-52847618D01*
X5562295Y-52847618D02*
X5600390Y-52771428D01*
X5600390Y-52771428D02*
X5676580Y-52695237D01*
X5676580Y-52695237D02*
X5828961Y-52657142D01*
X5828961Y-52657142D02*
X6095628Y-52657142D01*
X6095628Y-52657142D02*
X6248009Y-52695237D01*
X6248009Y-52695237D02*
X6324200Y-52771428D01*
X6324200Y-52771428D02*
X6362295Y-52847618D01*
X6362295Y-52847618D02*
X6362295Y-52999999D01*
X6362295Y-52999999D02*
X6324200Y-53076190D01*
X6324200Y-53076190D02*
X6248009Y-53152380D01*
X6248009Y-53152380D02*
X6095628Y-53190476D01*
X6095628Y-53190476D02*
X5828961Y-53190476D01*
X5828961Y-53190476D02*
X5676580Y-53152380D01*
X5676580Y-53152380D02*
X5600390Y-53076190D01*
X5600390Y-53076190D02*
X5562295Y-52999999D01*
X46761904Y-65562295D02*
X46761904Y-66133723D01*
X46761904Y-66133723D02*
X46723809Y-66248009D01*
X46723809Y-66248009D02*
X46647618Y-66324200D01*
X46647618Y-66324200D02*
X46533333Y-66362295D01*
X46533333Y-66362295D02*
X46457142Y-66362295D01*
X46952381Y-66438485D02*
X47561904Y-66438485D01*
X48019047Y-65943247D02*
X48133333Y-65981342D01*
X48133333Y-65981342D02*
X48171428Y-66019438D01*
X48171428Y-66019438D02*
X48209524Y-66095628D01*
X48209524Y-66095628D02*
X48209524Y-66209914D01*
X48209524Y-66209914D02*
X48171428Y-66286104D01*
X48171428Y-66286104D02*
X48133333Y-66324200D01*
X48133333Y-66324200D02*
X48057143Y-66362295D01*
X48057143Y-66362295D02*
X47752381Y-66362295D01*
X47752381Y-66362295D02*
X47752381Y-65562295D01*
X47752381Y-65562295D02*
X48019047Y-65562295D01*
X48019047Y-65562295D02*
X48095238Y-65600390D01*
X48095238Y-65600390D02*
X48133333Y-65638485D01*
X48133333Y-65638485D02*
X48171428Y-65714676D01*
X48171428Y-65714676D02*
X48171428Y-65790866D01*
X48171428Y-65790866D02*
X48133333Y-65867057D01*
X48133333Y-65867057D02*
X48095238Y-65905152D01*
X48095238Y-65905152D02*
X48019047Y-65943247D01*
X48019047Y-65943247D02*
X47752381Y-65943247D01*
X48514285Y-66133723D02*
X48895238Y-66133723D01*
X48438095Y-66362295D02*
X48704762Y-65562295D01*
X48704762Y-65562295D02*
X48971428Y-66362295D01*
X49123809Y-65562295D02*
X49580952Y-65562295D01*
X49352380Y-66362295D02*
X49352380Y-65562295D01*
X5562295Y-38171428D02*
X6133723Y-38171428D01*
X6133723Y-38171428D02*
X6248009Y-38209523D01*
X6248009Y-38209523D02*
X6324200Y-38285714D01*
X6324200Y-38285714D02*
X6362295Y-38399999D01*
X6362295Y-38399999D02*
X6362295Y-38476190D01*
X6438485Y-37980952D02*
X6438485Y-37371428D01*
X6362295Y-37180951D02*
X5562295Y-37180951D01*
X5562295Y-37180951D02*
X5562295Y-36876189D01*
X5562295Y-36876189D02*
X5600390Y-36799999D01*
X5600390Y-36799999D02*
X5638485Y-36761904D01*
X5638485Y-36761904D02*
X5714676Y-36723808D01*
X5714676Y-36723808D02*
X5828961Y-36723808D01*
X5828961Y-36723808D02*
X5905152Y-36761904D01*
X5905152Y-36761904D02*
X5943247Y-36799999D01*
X5943247Y-36799999D02*
X5981342Y-36876189D01*
X5981342Y-36876189D02*
X5981342Y-37180951D01*
X6362295Y-35923808D02*
X5981342Y-36190475D01*
X6362295Y-36380951D02*
X5562295Y-36380951D01*
X5562295Y-36380951D02*
X5562295Y-36076189D01*
X5562295Y-36076189D02*
X5600390Y-35999999D01*
X5600390Y-35999999D02*
X5638485Y-35961904D01*
X5638485Y-35961904D02*
X5714676Y-35923808D01*
X5714676Y-35923808D02*
X5828961Y-35923808D01*
X5828961Y-35923808D02*
X5905152Y-35961904D01*
X5905152Y-35961904D02*
X5943247Y-35999999D01*
X5943247Y-35999999D02*
X5981342Y-36076189D01*
X5981342Y-36076189D02*
X5981342Y-36380951D01*
X5562295Y-35428570D02*
X5562295Y-35276189D01*
X5562295Y-35276189D02*
X5600390Y-35199999D01*
X5600390Y-35199999D02*
X5676580Y-35123808D01*
X5676580Y-35123808D02*
X5828961Y-35085713D01*
X5828961Y-35085713D02*
X6095628Y-35085713D01*
X6095628Y-35085713D02*
X6248009Y-35123808D01*
X6248009Y-35123808D02*
X6324200Y-35199999D01*
X6324200Y-35199999D02*
X6362295Y-35276189D01*
X6362295Y-35276189D02*
X6362295Y-35428570D01*
X6362295Y-35428570D02*
X6324200Y-35504761D01*
X6324200Y-35504761D02*
X6248009Y-35580951D01*
X6248009Y-35580951D02*
X6095628Y-35619047D01*
X6095628Y-35619047D02*
X5828961Y-35619047D01*
X5828961Y-35619047D02*
X5676580Y-35580951D01*
X5676580Y-35580951D02*
X5600390Y-35504761D01*
X5600390Y-35504761D02*
X5562295Y-35428570D01*
X5943247Y-34476190D02*
X5981342Y-34361904D01*
X5981342Y-34361904D02*
X6019438Y-34323809D01*
X6019438Y-34323809D02*
X6095628Y-34285713D01*
X6095628Y-34285713D02*
X6209914Y-34285713D01*
X6209914Y-34285713D02*
X6286104Y-34323809D01*
X6286104Y-34323809D02*
X6324200Y-34361904D01*
X6324200Y-34361904D02*
X6362295Y-34438094D01*
X6362295Y-34438094D02*
X6362295Y-34742856D01*
X6362295Y-34742856D02*
X5562295Y-34742856D01*
X5562295Y-34742856D02*
X5562295Y-34476190D01*
X5562295Y-34476190D02*
X5600390Y-34399999D01*
X5600390Y-34399999D02*
X5638485Y-34361904D01*
X5638485Y-34361904D02*
X5714676Y-34323809D01*
X5714676Y-34323809D02*
X5790866Y-34323809D01*
X5790866Y-34323809D02*
X5867057Y-34361904D01*
X5867057Y-34361904D02*
X5905152Y-34399999D01*
X5905152Y-34399999D02*
X5943247Y-34476190D01*
X5943247Y-34476190D02*
X5943247Y-34742856D01*
X5943247Y-33942856D02*
X5943247Y-33676190D01*
X6362295Y-33561904D02*
X6362295Y-33942856D01*
X6362295Y-33942856D02*
X5562295Y-33942856D01*
X5562295Y-33942856D02*
X5562295Y-33561904D01*
X84562295Y-35695238D02*
X85133723Y-35695238D01*
X85133723Y-35695238D02*
X85248009Y-35733333D01*
X85248009Y-35733333D02*
X85324200Y-35809524D01*
X85324200Y-35809524D02*
X85362295Y-35923809D01*
X85362295Y-35923809D02*
X85362295Y-36000000D01*
X85438485Y-35504762D02*
X85438485Y-34895238D01*
X84562295Y-34552380D02*
X84562295Y-34399999D01*
X84562295Y-34399999D02*
X84600390Y-34323809D01*
X84600390Y-34323809D02*
X84676580Y-34247618D01*
X84676580Y-34247618D02*
X84828961Y-34209523D01*
X84828961Y-34209523D02*
X85095628Y-34209523D01*
X85095628Y-34209523D02*
X85248009Y-34247618D01*
X85248009Y-34247618D02*
X85324200Y-34323809D01*
X85324200Y-34323809D02*
X85362295Y-34399999D01*
X85362295Y-34399999D02*
X85362295Y-34552380D01*
X85362295Y-34552380D02*
X85324200Y-34628571D01*
X85324200Y-34628571D02*
X85248009Y-34704761D01*
X85248009Y-34704761D02*
X85095628Y-34742857D01*
X85095628Y-34742857D02*
X84828961Y-34742857D01*
X84828961Y-34742857D02*
X84676580Y-34704761D01*
X84676580Y-34704761D02*
X84600390Y-34628571D01*
X84600390Y-34628571D02*
X84562295Y-34552380D01*
X85362295Y-33485714D02*
X85362295Y-33866666D01*
X85362295Y-33866666D02*
X84562295Y-33866666D01*
X84943247Y-33219047D02*
X84943247Y-32952381D01*
X85362295Y-32838095D02*
X85362295Y-33219047D01*
X85362295Y-33219047D02*
X84562295Y-33219047D01*
X84562295Y-33219047D02*
X84562295Y-32838095D01*
X85362295Y-32495237D02*
X84562295Y-32495237D01*
X84562295Y-32495237D02*
X84562295Y-32304761D01*
X84562295Y-32304761D02*
X84600390Y-32190475D01*
X84600390Y-32190475D02*
X84676580Y-32114285D01*
X84676580Y-32114285D02*
X84752771Y-32076190D01*
X84752771Y-32076190D02*
X84905152Y-32038094D01*
X84905152Y-32038094D02*
X85019438Y-32038094D01*
X85019438Y-32038094D02*
X85171819Y-32076190D01*
X85171819Y-32076190D02*
X85248009Y-32114285D01*
X85248009Y-32114285D02*
X85324200Y-32190475D01*
X85324200Y-32190475D02*
X85362295Y-32304761D01*
X85362295Y-32304761D02*
X85362295Y-32495237D01*
X53562295Y-22380952D02*
X54209914Y-22380952D01*
X54209914Y-22380952D02*
X54286104Y-22342857D01*
X54286104Y-22342857D02*
X54324200Y-22304762D01*
X54324200Y-22304762D02*
X54362295Y-22228571D01*
X54362295Y-22228571D02*
X54362295Y-22076190D01*
X54362295Y-22076190D02*
X54324200Y-22000000D01*
X54324200Y-22000000D02*
X54286104Y-21961905D01*
X54286104Y-21961905D02*
X54209914Y-21923809D01*
X54209914Y-21923809D02*
X53562295Y-21923809D01*
X54438485Y-21733334D02*
X54438485Y-21123810D01*
X53943247Y-20933333D02*
X53943247Y-20666667D01*
X54362295Y-20552381D02*
X54362295Y-20933333D01*
X54362295Y-20933333D02*
X53562295Y-20933333D01*
X53562295Y-20933333D02*
X53562295Y-20552381D01*
X54324200Y-20247619D02*
X54362295Y-20133333D01*
X54362295Y-20133333D02*
X54362295Y-19942857D01*
X54362295Y-19942857D02*
X54324200Y-19866666D01*
X54324200Y-19866666D02*
X54286104Y-19828571D01*
X54286104Y-19828571D02*
X54209914Y-19790476D01*
X54209914Y-19790476D02*
X54133723Y-19790476D01*
X54133723Y-19790476D02*
X54057533Y-19828571D01*
X54057533Y-19828571D02*
X54019438Y-19866666D01*
X54019438Y-19866666D02*
X53981342Y-19942857D01*
X53981342Y-19942857D02*
X53943247Y-20095238D01*
X53943247Y-20095238D02*
X53905152Y-20171428D01*
X53905152Y-20171428D02*
X53867057Y-20209523D01*
X53867057Y-20209523D02*
X53790866Y-20247619D01*
X53790866Y-20247619D02*
X53714676Y-20247619D01*
X53714676Y-20247619D02*
X53638485Y-20209523D01*
X53638485Y-20209523D02*
X53600390Y-20171428D01*
X53600390Y-20171428D02*
X53562295Y-20095238D01*
X53562295Y-20095238D02*
X53562295Y-19904761D01*
X53562295Y-19904761D02*
X53600390Y-19790476D01*
X54362295Y-19447618D02*
X53562295Y-19447618D01*
X53562295Y-19447618D02*
X53562295Y-19142856D01*
X53562295Y-19142856D02*
X53600390Y-19066666D01*
X53600390Y-19066666D02*
X53638485Y-19028571D01*
X53638485Y-19028571D02*
X53714676Y-18990475D01*
X53714676Y-18990475D02*
X53828961Y-18990475D01*
X53828961Y-18990475D02*
X53905152Y-19028571D01*
X53905152Y-19028571D02*
X53943247Y-19066666D01*
X53943247Y-19066666D02*
X53981342Y-19142856D01*
X53981342Y-19142856D02*
X53981342Y-19447618D01*
X54438485Y-18838095D02*
X54438485Y-18228571D01*
X54362295Y-17580951D02*
X53981342Y-17847618D01*
X54362295Y-18038094D02*
X53562295Y-18038094D01*
X53562295Y-18038094D02*
X53562295Y-17733332D01*
X53562295Y-17733332D02*
X53600390Y-17657142D01*
X53600390Y-17657142D02*
X53638485Y-17619047D01*
X53638485Y-17619047D02*
X53714676Y-17580951D01*
X53714676Y-17580951D02*
X53828961Y-17580951D01*
X53828961Y-17580951D02*
X53905152Y-17619047D01*
X53905152Y-17619047D02*
X53943247Y-17657142D01*
X53943247Y-17657142D02*
X53981342Y-17733332D01*
X53981342Y-17733332D02*
X53981342Y-18038094D01*
X5562295Y-15390476D02*
X6133723Y-15390476D01*
X6133723Y-15390476D02*
X6248009Y-15428571D01*
X6248009Y-15428571D02*
X6324200Y-15504762D01*
X6324200Y-15504762D02*
X6362295Y-15619047D01*
X6362295Y-15619047D02*
X6362295Y-15695238D01*
X6438485Y-15200000D02*
X6438485Y-14590476D01*
X6133723Y-14438095D02*
X6133723Y-14057142D01*
X6362295Y-14514285D02*
X5562295Y-14247618D01*
X5562295Y-14247618D02*
X6362295Y-13980952D01*
X6362295Y-13714285D02*
X5562295Y-13714285D01*
X5562295Y-13714285D02*
X6133723Y-13447619D01*
X6133723Y-13447619D02*
X5562295Y-13180952D01*
X5562295Y-13180952D02*
X6362295Y-13180952D01*
X6362295Y-12799999D02*
X5562295Y-12799999D01*
X5562295Y-12799999D02*
X5562295Y-12495237D01*
X5562295Y-12495237D02*
X5600390Y-12419047D01*
X5600390Y-12419047D02*
X5638485Y-12380952D01*
X5638485Y-12380952D02*
X5714676Y-12342856D01*
X5714676Y-12342856D02*
X5828961Y-12342856D01*
X5828961Y-12342856D02*
X5905152Y-12380952D01*
X5905152Y-12380952D02*
X5943247Y-12419047D01*
X5943247Y-12419047D02*
X5981342Y-12495237D01*
X5981342Y-12495237D02*
X5981342Y-12799999D01*
X84562295Y-17019046D02*
X85209914Y-17019046D01*
X85209914Y-17019046D02*
X85286104Y-16980951D01*
X85286104Y-16980951D02*
X85324200Y-16942856D01*
X85324200Y-16942856D02*
X85362295Y-16866665D01*
X85362295Y-16866665D02*
X85362295Y-16714284D01*
X85362295Y-16714284D02*
X85324200Y-16638094D01*
X85324200Y-16638094D02*
X85286104Y-16599999D01*
X85286104Y-16599999D02*
X85209914Y-16561903D01*
X85209914Y-16561903D02*
X84562295Y-16561903D01*
X85438485Y-16371428D02*
X85438485Y-15761904D01*
X85362295Y-15190475D02*
X85362295Y-15571427D01*
X85362295Y-15571427D02*
X84562295Y-15571427D01*
X84562295Y-14771427D02*
X84562295Y-14619046D01*
X84562295Y-14619046D02*
X84600390Y-14542856D01*
X84600390Y-14542856D02*
X84676580Y-14466665D01*
X84676580Y-14466665D02*
X84828961Y-14428570D01*
X84828961Y-14428570D02*
X85095628Y-14428570D01*
X85095628Y-14428570D02*
X85248009Y-14466665D01*
X85248009Y-14466665D02*
X85324200Y-14542856D01*
X85324200Y-14542856D02*
X85362295Y-14619046D01*
X85362295Y-14619046D02*
X85362295Y-14771427D01*
X85362295Y-14771427D02*
X85324200Y-14847618D01*
X85324200Y-14847618D02*
X85248009Y-14923808D01*
X85248009Y-14923808D02*
X85095628Y-14961904D01*
X85095628Y-14961904D02*
X84828961Y-14961904D01*
X84828961Y-14961904D02*
X84676580Y-14923808D01*
X84676580Y-14923808D02*
X84600390Y-14847618D01*
X84600390Y-14847618D02*
X84562295Y-14771427D01*
X85362295Y-13628570D02*
X84981342Y-13895237D01*
X85362295Y-14085713D02*
X84562295Y-14085713D01*
X84562295Y-14085713D02*
X84562295Y-13780951D01*
X84562295Y-13780951D02*
X84600390Y-13704761D01*
X84600390Y-13704761D02*
X84638485Y-13666666D01*
X84638485Y-13666666D02*
X84714676Y-13628570D01*
X84714676Y-13628570D02*
X84828961Y-13628570D01*
X84828961Y-13628570D02*
X84905152Y-13666666D01*
X84905152Y-13666666D02*
X84943247Y-13704761D01*
X84943247Y-13704761D02*
X84981342Y-13780951D01*
X84981342Y-13780951D02*
X84981342Y-14085713D01*
X85133723Y-13323809D02*
X85133723Y-12942856D01*
X85362295Y-13399999D02*
X84562295Y-13133332D01*
X84562295Y-13133332D02*
X85362295Y-12866666D01*
X76609523Y-57562295D02*
X76609523Y-58133723D01*
X76609523Y-58133723D02*
X76571428Y-58248009D01*
X76571428Y-58248009D02*
X76495237Y-58324200D01*
X76495237Y-58324200D02*
X76380952Y-58362295D01*
X76380952Y-58362295D02*
X76304761Y-58362295D01*
X76800000Y-58438485D02*
X77409523Y-58438485D01*
X77866666Y-57943247D02*
X77980952Y-57981342D01*
X77980952Y-57981342D02*
X78019047Y-58019438D01*
X78019047Y-58019438D02*
X78057143Y-58095628D01*
X78057143Y-58095628D02*
X78057143Y-58209914D01*
X78057143Y-58209914D02*
X78019047Y-58286104D01*
X78019047Y-58286104D02*
X77980952Y-58324200D01*
X77980952Y-58324200D02*
X77904762Y-58362295D01*
X77904762Y-58362295D02*
X77600000Y-58362295D01*
X77600000Y-58362295D02*
X77600000Y-57562295D01*
X77600000Y-57562295D02*
X77866666Y-57562295D01*
X77866666Y-57562295D02*
X77942857Y-57600390D01*
X77942857Y-57600390D02*
X77980952Y-57638485D01*
X77980952Y-57638485D02*
X78019047Y-57714676D01*
X78019047Y-57714676D02*
X78019047Y-57790866D01*
X78019047Y-57790866D02*
X77980952Y-57867057D01*
X77980952Y-57867057D02*
X77942857Y-57905152D01*
X77942857Y-57905152D02*
X77866666Y-57943247D01*
X77866666Y-57943247D02*
X77600000Y-57943247D01*
X78400000Y-57562295D02*
X78400000Y-58209914D01*
X78400000Y-58209914D02*
X78438095Y-58286104D01*
X78438095Y-58286104D02*
X78476190Y-58324200D01*
X78476190Y-58324200D02*
X78552381Y-58362295D01*
X78552381Y-58362295D02*
X78704762Y-58362295D01*
X78704762Y-58362295D02*
X78780952Y-58324200D01*
X78780952Y-58324200D02*
X78819047Y-58286104D01*
X78819047Y-58286104D02*
X78857143Y-58209914D01*
X78857143Y-58209914D02*
X78857143Y-57562295D01*
X79161904Y-57562295D02*
X79695238Y-57562295D01*
X79695238Y-57562295D02*
X79161904Y-58362295D01*
X79161904Y-58362295D02*
X79695238Y-58362295D01*
X35562296Y-22304761D02*
X36209915Y-22304761D01*
X36209915Y-22304761D02*
X36286105Y-22266666D01*
X36286105Y-22266666D02*
X36324201Y-22228571D01*
X36324201Y-22228571D02*
X36362296Y-22152380D01*
X36362296Y-22152380D02*
X36362296Y-21999999D01*
X36362296Y-21999999D02*
X36324201Y-21923809D01*
X36324201Y-21923809D02*
X36286105Y-21885714D01*
X36286105Y-21885714D02*
X36209915Y-21847618D01*
X36209915Y-21847618D02*
X35562296Y-21847618D01*
X36438486Y-21657143D02*
X36438486Y-21047619D01*
X35943248Y-20857142D02*
X35943248Y-20590476D01*
X36362296Y-20476190D02*
X36362296Y-20857142D01*
X36362296Y-20857142D02*
X35562296Y-20857142D01*
X35562296Y-20857142D02*
X35562296Y-20476190D01*
X36324201Y-20171428D02*
X36362296Y-20057142D01*
X36362296Y-20057142D02*
X36362296Y-19866666D01*
X36362296Y-19866666D02*
X36324201Y-19790475D01*
X36324201Y-19790475D02*
X36286105Y-19752380D01*
X36286105Y-19752380D02*
X36209915Y-19714285D01*
X36209915Y-19714285D02*
X36133724Y-19714285D01*
X36133724Y-19714285D02*
X36057534Y-19752380D01*
X36057534Y-19752380D02*
X36019439Y-19790475D01*
X36019439Y-19790475D02*
X35981343Y-19866666D01*
X35981343Y-19866666D02*
X35943248Y-20019047D01*
X35943248Y-20019047D02*
X35905153Y-20095237D01*
X35905153Y-20095237D02*
X35867058Y-20133332D01*
X35867058Y-20133332D02*
X35790867Y-20171428D01*
X35790867Y-20171428D02*
X35714677Y-20171428D01*
X35714677Y-20171428D02*
X35638486Y-20133332D01*
X35638486Y-20133332D02*
X35600391Y-20095237D01*
X35600391Y-20095237D02*
X35562296Y-20019047D01*
X35562296Y-20019047D02*
X35562296Y-19828570D01*
X35562296Y-19828570D02*
X35600391Y-19714285D01*
X36362296Y-19371427D02*
X35562296Y-19371427D01*
X35562296Y-19371427D02*
X35562296Y-19066665D01*
X35562296Y-19066665D02*
X35600391Y-18990475D01*
X35600391Y-18990475D02*
X35638486Y-18952380D01*
X35638486Y-18952380D02*
X35714677Y-18914284D01*
X35714677Y-18914284D02*
X35828962Y-18914284D01*
X35828962Y-18914284D02*
X35905153Y-18952380D01*
X35905153Y-18952380D02*
X35943248Y-18990475D01*
X35943248Y-18990475D02*
X35981343Y-19066665D01*
X35981343Y-19066665D02*
X35981343Y-19371427D01*
X36438486Y-18761904D02*
X36438486Y-18152380D01*
X36362296Y-17580951D02*
X36362296Y-17961903D01*
X36362296Y-17961903D02*
X35562296Y-17961903D01*
D11*
%TO.C,R_BAT2*%
X66265000Y-64227064D02*
X66265000Y-63772936D01*
X67735000Y-64227064D02*
X67735000Y-63772936D01*
%TO.C,J_LEDS*%
X77250000Y-44200000D02*
X77250000Y-49750000D01*
X77250000Y-55300000D02*
X77250000Y-49750000D01*
X80200000Y-43450000D02*
X80200000Y-44200000D01*
X80200000Y-44200000D02*
X77250000Y-44200000D01*
X80200000Y-55300000D02*
X77250000Y-55300000D01*
X80200000Y-56050000D02*
X80200000Y-55300000D01*
X82750000Y-43150000D02*
X81500000Y-43150000D01*
X82750000Y-44400000D02*
X82750000Y-43150000D01*
X82450000Y-43450000D02*
X81700000Y-43450000D01*
X81700000Y-45250000D01*
X82450000Y-45250000D01*
X82450000Y-43450000D01*
X82450000Y-46750000D02*
X81700000Y-46750000D01*
X81700000Y-52750000D01*
X82450000Y-52750000D01*
X82450000Y-46750000D01*
X82450000Y-54250000D02*
X81700000Y-54250000D01*
X81700000Y-56050000D01*
X82450000Y-56050000D01*
X82450000Y-54250000D01*
X82460000Y-43440000D02*
X76490000Y-43440000D01*
X76490000Y-56060000D01*
X82460000Y-56060000D01*
X82460000Y-43440000D01*
%TO.C,J_BAT_SENSE*%
X62150000Y-66750000D02*
X62150000Y-68000000D01*
X62450000Y-69300000D02*
X63200000Y-69300000D01*
X63200000Y-69300000D02*
X63200000Y-72250000D01*
X63200000Y-72250000D02*
X66250000Y-72250000D01*
X63400000Y-66750000D02*
X62150000Y-66750000D01*
X69300000Y-69300000D02*
X69300000Y-72250000D01*
X69300000Y-72250000D02*
X66250000Y-72250000D01*
X70050000Y-69300000D02*
X69300000Y-69300000D01*
X62440000Y-67040000D02*
X70060000Y-67040000D01*
X70060000Y-73010000D01*
X62440000Y-73010000D01*
X62440000Y-67040000D01*
X62450000Y-67050000D02*
X64250000Y-67050000D01*
X64250000Y-67800000D01*
X62450000Y-67800000D01*
X62450000Y-67050000D01*
X65750000Y-67050000D02*
X66750000Y-67050000D01*
X66750000Y-67800000D01*
X65750000Y-67800000D01*
X65750000Y-67050000D01*
X68250000Y-67050000D02*
X70050000Y-67050000D01*
X70050000Y-67800000D01*
X68250000Y-67800000D01*
X68250000Y-67050000D01*
%TO.C,D_AMP_HI*%
X22390000Y-22150000D02*
X22390000Y-23850000D01*
X22390000Y-22150000D02*
X25050000Y-22150000D01*
X22390000Y-23850000D02*
X25050000Y-23850000D01*
%TO.C,R_BUZ*%
X51772936Y-11265000D02*
X52227064Y-11265000D01*
X51772936Y-12735000D02*
X52227064Y-12735000D01*
%TO.C,D_AMP_LO*%
X26390000Y-22150000D02*
X26390000Y-23850000D01*
X26390000Y-22150000D02*
X29050000Y-22150000D01*
X26390000Y-23850000D02*
X29050000Y-23850000D01*
%TO.C,C_F*%
X23738748Y-19265000D02*
X24261252Y-19265000D01*
X23738748Y-20735000D02*
X24261252Y-20735000D01*
%TO.C,J_TACHO*%
X9250000Y-52200000D02*
X9250000Y-56500000D01*
X9250000Y-60800000D02*
X9250000Y-56500000D01*
X12200000Y-51450000D02*
X12200000Y-52200000D01*
X12200000Y-52200000D02*
X9250000Y-52200000D01*
X12200000Y-60800000D02*
X9250000Y-60800000D01*
X12200000Y-61550000D02*
X12200000Y-60800000D01*
X14750000Y-51150000D02*
X13500000Y-51150000D01*
X14750000Y-52400000D02*
X14750000Y-51150000D01*
X14450000Y-51450000D02*
X13700000Y-51450000D01*
X13700000Y-53250000D01*
X14450000Y-53250000D01*
X14450000Y-51450000D01*
X14450000Y-54750000D02*
X13700000Y-54750000D01*
X13700000Y-58250000D01*
X14450000Y-58250000D01*
X14450000Y-54750000D01*
X14450000Y-59750000D02*
X13700000Y-59750000D01*
X13700000Y-61550000D01*
X14450000Y-61550000D01*
X14450000Y-59750000D01*
X14460000Y-51440000D02*
X8490000Y-51440000D01*
X8490000Y-61560000D01*
X14460000Y-61560000D01*
X14460000Y-51440000D01*
%TO.C,R_LED1*%
X73772936Y-45265000D02*
X74227064Y-45265000D01*
X73772936Y-46735000D02*
X74227064Y-46735000D01*
%TO.C,J_BAT*%
X45150000Y-66750000D02*
X45150000Y-68000000D01*
X45450000Y-69300000D02*
X46200000Y-69300000D01*
X46200000Y-69300000D02*
X46200000Y-72250000D01*
X46200000Y-72250000D02*
X49250000Y-72250000D01*
X46400000Y-66750000D02*
X45150000Y-66750000D01*
X52300000Y-69300000D02*
X52300000Y-72250000D01*
X52300000Y-72250000D02*
X49250000Y-72250000D01*
X53050000Y-69300000D02*
X52300000Y-69300000D01*
X45440000Y-67040000D02*
X53060000Y-67040000D01*
X53060000Y-73010000D01*
X45440000Y-73010000D01*
X45440000Y-67040000D01*
X45450000Y-67050000D02*
X47250000Y-67050000D01*
X47250000Y-67800000D01*
X45450000Y-67800000D01*
X45450000Y-67050000D01*
X48750000Y-67050000D02*
X49750000Y-67050000D01*
X49750000Y-67800000D01*
X48750000Y-67800000D01*
X48750000Y-67050000D01*
X51250000Y-67050000D02*
X53050000Y-67050000D01*
X53050000Y-67800000D01*
X51250000Y-67800000D01*
X51250000Y-67050000D01*
%TO.C,C_OLED*%
X73738748Y-30265000D02*
X74261252Y-30265000D01*
X73738748Y-31735000D02*
X74261252Y-31735000D01*
%TO.C,C_IN1*%
X42265000Y-64261252D02*
X42265000Y-63738748D01*
X43735000Y-64261252D02*
X43735000Y-63738748D01*
%TO.C,R_LED3*%
X73772936Y-50265000D02*
X74227064Y-50265000D01*
X73772936Y-51735000D02*
X74227064Y-51735000D01*
%TO.C,J_PROBE*%
X9250000Y-26200000D02*
X9250000Y-36750000D01*
X9250000Y-47300000D02*
X9250000Y-36750000D01*
X12200000Y-25450000D02*
X12200000Y-26200000D01*
X12200000Y-26200000D02*
X9250000Y-26200000D01*
X12200000Y-47300000D02*
X9250000Y-47300000D01*
X12200000Y-48050000D02*
X12200000Y-47300000D01*
X14750000Y-25150000D02*
X13500000Y-25150000D01*
X14750000Y-26400000D02*
X14750000Y-25150000D01*
X14450000Y-25450000D02*
X13700000Y-25450000D01*
X13700000Y-27250000D01*
X14450000Y-27250000D01*
X14450000Y-25450000D01*
X14450000Y-28750000D02*
X13700000Y-28750000D01*
X13700000Y-44750000D01*
X14450000Y-44750000D01*
X14450000Y-28750000D01*
X14450000Y-46250000D02*
X13700000Y-46250000D01*
X13700000Y-48050000D01*
X14450000Y-48050000D01*
X14450000Y-46250000D01*
X14460000Y-25440000D02*
X8490000Y-25440000D01*
X8490000Y-48060000D01*
X14460000Y-48060000D01*
X14460000Y-25440000D01*
%TO.C,J_OLED*%
X78620000Y-28620000D02*
X80000000Y-28620000D01*
X78620000Y-30000000D02*
X78620000Y-28620000D01*
X78620000Y-31270000D02*
X78620000Y-39000000D01*
X78620000Y-31270000D02*
X81380000Y-31270000D01*
X78620000Y-39000000D02*
X81380000Y-39000000D01*
X81380000Y-31270000D02*
X81380000Y-39000000D01*
%TO.C,C_BIAS*%
X23738748Y-15265000D02*
X24261252Y-15265000D01*
X23738748Y-16735000D02*
X24261252Y-16735000D01*
%TO.C,U_ESP_R*%
X56320000Y-7620000D02*
X57700000Y-7620000D01*
X56320000Y-9000000D02*
X56320000Y-7620000D01*
X56320000Y-10270000D02*
X56320000Y-63720000D01*
X56320000Y-10270000D02*
X59080000Y-10270000D01*
X56320000Y-63720000D02*
X59080000Y-63720000D01*
X59080000Y-10270000D02*
X59080000Y-63720000D01*
%TO.C,C_IN2*%
X47265000Y-64261252D02*
X47265000Y-63738748D01*
X48735000Y-64261252D02*
X48735000Y-63738748D01*
%TO.C,R_PU_1W*%
X19772936Y-32265000D02*
X20227064Y-32265000D01*
X19772936Y-33735000D02*
X20227064Y-33735000D01*
%TO.C,R_PU_SCL*%
X19772936Y-39265000D02*
X20227064Y-39265000D01*
X19772936Y-40735000D02*
X20227064Y-40735000D01*
%TO.C,C_PROBE*%
X17738748Y-27265000D02*
X18261252Y-27265000D01*
X17738748Y-28735000D02*
X18261252Y-28735000D01*
%TO.C,C_LORA_BULK*%
X65920000Y-9210000D02*
X74080000Y-9210000D01*
X65920000Y-9250000D02*
X74080000Y-9250000D01*
X65921000Y-9170000D02*
X74079000Y-9170000D01*
X65922000Y-9130000D02*
X74078000Y-9130000D01*
X65923000Y-9090000D02*
X74077000Y-9090000D01*
X65925000Y-9050000D02*
X74075000Y-9050000D01*
X65927000Y-9010000D02*
X74073000Y-9010000D01*
X65930000Y-8970000D02*
X74070000Y-8970000D01*
X65932000Y-8930000D02*
X74068000Y-8930000D01*
X65936000Y-8890000D02*
X74064000Y-8890000D01*
X65939000Y-8850000D02*
X74061000Y-8850000D01*
X65944000Y-8810000D02*
X74056000Y-8810000D01*
X65948000Y-8770000D02*
X74052000Y-8770000D01*
X65953000Y-8730000D02*
X74047000Y-8730000D01*
X65958000Y-8690000D02*
X74042000Y-8690000D01*
X65964000Y-8650000D02*
X74036000Y-8650000D01*
X65970000Y-8610000D02*
X74030000Y-8610000D01*
X65977000Y-8570000D02*
X74023000Y-8570000D01*
X65983000Y-8530000D02*
X68960000Y-8530000D01*
X65991000Y-8490000D02*
X68960000Y-8490000D01*
X65998000Y-8450000D02*
X68960000Y-8450000D01*
X66007000Y-8410000D02*
X68960000Y-8410000D01*
X66015000Y-8370000D02*
X68960000Y-8370000D01*
X66024000Y-8330000D02*
X68960000Y-8330000D01*
X66033000Y-8290000D02*
X68960000Y-8290000D01*
X66043000Y-8250000D02*
X68960000Y-8250000D01*
X66053000Y-8210000D02*
X68960000Y-8210000D01*
X66064000Y-8170000D02*
X68960000Y-8170000D01*
X66075000Y-8130000D02*
X68960000Y-8130000D01*
X66087000Y-8090000D02*
X68960000Y-8090000D01*
X66099000Y-8050000D02*
X68960000Y-8050000D01*
X66111000Y-8010000D02*
X68960000Y-8010000D01*
X66124000Y-7970000D02*
X68960000Y-7970000D01*
X66137000Y-7930000D02*
X68960000Y-7930000D01*
X66151000Y-7890000D02*
X68960000Y-7890000D01*
X66165000Y-7850000D02*
X68960000Y-7850000D01*
X66180000Y-7810000D02*
X68960000Y-7810000D01*
X66195000Y-7770000D02*
X68960000Y-7770000D01*
X66211000Y-7730000D02*
X68960000Y-7730000D01*
X66227000Y-7690000D02*
X68960000Y-7690000D01*
X66243000Y-7650000D02*
X68960000Y-7650000D01*
X66260000Y-7610000D02*
X68960000Y-7610000D01*
X66278000Y-7570000D02*
X68960000Y-7570000D01*
X66296000Y-7530000D02*
X68960000Y-7530000D01*
X66315000Y-7490000D02*
X68960000Y-7490000D01*
X66334000Y-7450000D02*
X68960000Y-7450000D01*
X66354000Y-7410000D02*
X68960000Y-7410000D01*
X66374000Y-7370000D02*
X68960000Y-7370000D01*
X66395000Y-7330000D02*
X68960000Y-7330000D01*
X66416000Y-7290000D02*
X68960000Y-7290000D01*
X66438000Y-7250000D02*
X68960000Y-7250000D01*
X66461000Y-7210000D02*
X68960000Y-7210000D01*
X66484000Y-7170000D02*
X68960000Y-7170000D01*
X66507000Y-7130000D02*
X68960000Y-7130000D01*
X66532000Y-7090000D02*
X68960000Y-7090000D01*
X66557000Y-7050000D02*
X68960000Y-7050000D01*
X66582000Y-7010000D02*
X68960000Y-7010000D01*
X66608000Y-6970000D02*
X68960000Y-6970000D01*
X66635000Y-6930000D02*
X68960000Y-6930000D01*
X66663000Y-6890000D02*
X68960000Y-6890000D01*
X66691000Y-6850000D02*
X68960000Y-6850000D01*
X66720000Y-6810000D02*
X68960000Y-6810000D01*
X66750000Y-6770000D02*
X68960000Y-6770000D01*
X66781000Y-6730000D02*
X68960000Y-6730000D01*
X66812000Y-6690000D02*
X68960000Y-6690000D01*
X66844000Y-6650000D02*
X68960000Y-6650000D01*
X66877000Y-6610000D02*
X68960000Y-6610000D01*
X66911000Y-6570000D02*
X68960000Y-6570000D01*
X66945000Y-6530000D02*
X68960000Y-6530000D01*
X66981000Y-6490000D02*
X68960000Y-6490000D01*
X67018000Y-6450000D02*
X72982000Y-6450000D01*
X67055000Y-6410000D02*
X72945000Y-6410000D01*
X67094000Y-6370000D02*
X72906000Y-6370000D01*
X67133000Y-6330000D02*
X72867000Y-6330000D01*
X67174000Y-6290000D02*
X72826000Y-6290000D01*
X67216000Y-6250000D02*
X72784000Y-6250000D01*
X67259000Y-6210000D02*
X72741000Y-6210000D01*
X67285000Y-13259698D02*
X68085000Y-13259698D01*
X67304000Y-6170000D02*
X72696000Y-6170000D01*
X67349000Y-6130000D02*
X72651000Y-6130000D01*
X67396000Y-6090000D02*
X72604000Y-6090000D01*
X67445000Y-6050000D02*
X72555000Y-6050000D01*
X67495000Y-6010000D02*
X72505000Y-6010000D01*
X67547000Y-5970000D02*
X72453000Y-5970000D01*
X67600000Y-5930000D02*
X72400000Y-5930000D01*
X67656000Y-5890000D02*
X72344000Y-5890000D01*
X67685000Y-13659698D02*
X67685000Y-12859698D01*
X67713000Y-5850000D02*
X72287000Y-5850000D01*
X67773000Y-5810000D02*
X72227000Y-5810000D01*
X67835000Y-5770000D02*
X72165000Y-5770000D01*
X67899000Y-5730000D02*
X72101000Y-5730000D01*
X67966000Y-5690000D02*
X72034000Y-5690000D01*
X68036000Y-5650000D02*
X71964000Y-5650000D01*
X68110000Y-5610000D02*
X71890000Y-5610000D01*
X68187000Y-5570000D02*
X71813000Y-5570000D01*
X68269000Y-5530000D02*
X71731000Y-5530000D01*
X68356000Y-5490000D02*
X71644000Y-5490000D01*
X68448000Y-5450000D02*
X71552000Y-5450000D01*
X68547000Y-5410000D02*
X71453000Y-5410000D01*
X68654000Y-5370000D02*
X71346000Y-5370000D01*
X68772000Y-5330000D02*
X71228000Y-5330000D01*
X68903000Y-5290000D02*
X71097000Y-5290000D01*
X69053000Y-5250000D02*
X70947000Y-5250000D01*
X69232000Y-5210000D02*
X70768000Y-5210000D01*
X69467000Y-5170000D02*
X70533000Y-5170000D01*
X71040000Y-6490000D02*
X73019000Y-6490000D01*
X71040000Y-6530000D02*
X73055000Y-6530000D01*
X71040000Y-6570000D02*
X73089000Y-6570000D01*
X71040000Y-6610000D02*
X73123000Y-6610000D01*
X71040000Y-6650000D02*
X73156000Y-6650000D01*
X71040000Y-6690000D02*
X73188000Y-6690000D01*
X71040000Y-6730000D02*
X73219000Y-6730000D01*
X71040000Y-6770000D02*
X73250000Y-6770000D01*
X71040000Y-6810000D02*
X73280000Y-6810000D01*
X71040000Y-6850000D02*
X73309000Y-6850000D01*
X71040000Y-6890000D02*
X73337000Y-6890000D01*
X71040000Y-6930000D02*
X73365000Y-6930000D01*
X71040000Y-6970000D02*
X73392000Y-6970000D01*
X71040000Y-7010000D02*
X73418000Y-7010000D01*
X71040000Y-7050000D02*
X73443000Y-7050000D01*
X71040000Y-7090000D02*
X73468000Y-7090000D01*
X71040000Y-7130000D02*
X73493000Y-7130000D01*
X71040000Y-7170000D02*
X73516000Y-7170000D01*
X71040000Y-7210000D02*
X73539000Y-7210000D01*
X71040000Y-7250000D02*
X73562000Y-7250000D01*
X71040000Y-7290000D02*
X73584000Y-7290000D01*
X71040000Y-7330000D02*
X73605000Y-7330000D01*
X71040000Y-7370000D02*
X73626000Y-7370000D01*
X71040000Y-7410000D02*
X73646000Y-7410000D01*
X71040000Y-7450000D02*
X73666000Y-7450000D01*
X71040000Y-7490000D02*
X73685000Y-7490000D01*
X71040000Y-7530000D02*
X73704000Y-7530000D01*
X71040000Y-7570000D02*
X73722000Y-7570000D01*
X71040000Y-7610000D02*
X73740000Y-7610000D01*
X71040000Y-7650000D02*
X73757000Y-7650000D01*
X71040000Y-7690000D02*
X73773000Y-7690000D01*
X71040000Y-7730000D02*
X73789000Y-7730000D01*
X71040000Y-7770000D02*
X73805000Y-7770000D01*
X71040000Y-7810000D02*
X73820000Y-7810000D01*
X71040000Y-7850000D02*
X73835000Y-7850000D01*
X71040000Y-7890000D02*
X73849000Y-7890000D01*
X71040000Y-7930000D02*
X73863000Y-7930000D01*
X71040000Y-7970000D02*
X73876000Y-7970000D01*
X71040000Y-8010000D02*
X73889000Y-8010000D01*
X71040000Y-8050000D02*
X73901000Y-8050000D01*
X71040000Y-8090000D02*
X73913000Y-8090000D01*
X71040000Y-8130000D02*
X73925000Y-8130000D01*
X71040000Y-8170000D02*
X73936000Y-8170000D01*
X71040000Y-8210000D02*
X73947000Y-8210000D01*
X71040000Y-8250000D02*
X73957000Y-8250000D01*
X71040000Y-8290000D02*
X73967000Y-8290000D01*
X71040000Y-8330000D02*
X73976000Y-8330000D01*
X71040000Y-8370000D02*
X73985000Y-8370000D01*
X71040000Y-8410000D02*
X73993000Y-8410000D01*
X71040000Y-8450000D02*
X74002000Y-8450000D01*
X71040000Y-8490000D02*
X74009000Y-8490000D01*
X71040000Y-8530000D02*
X74017000Y-8530000D01*
X74120000Y-9250000D02*
G75*
G02*
X65880000Y-9250000I-4120000J0D01*
G01*
X65880000Y-9250000D02*
G75*
G02*
X74120000Y-9250000I4120000J0D01*
G01*
%TO.C,R_S_TACHO*%
X17772936Y-56265000D02*
X18227064Y-56265000D01*
X17772936Y-57735000D02*
X18227064Y-57735000D01*
%TO.C,C_ESP2*%
X36238748Y-11765000D02*
X36761252Y-11765000D01*
X36238748Y-13235000D02*
X36761252Y-13235000D01*
%TO.C,J_AMP*%
X9250000Y-12200000D02*
X9250000Y-15250000D01*
X9250000Y-18300000D02*
X9250000Y-15250000D01*
X12200000Y-11450000D02*
X12200000Y-12200000D01*
X12200000Y-12200000D02*
X9250000Y-12200000D01*
X12200000Y-18300000D02*
X9250000Y-18300000D01*
X12200000Y-19050000D02*
X12200000Y-18300000D01*
X14750000Y-11150000D02*
X13500000Y-11150000D01*
X14750000Y-12400000D02*
X14750000Y-11150000D01*
X14450000Y-11450000D02*
X13700000Y-11450000D01*
X13700000Y-13250000D01*
X14450000Y-13250000D01*
X14450000Y-11450000D01*
X14450000Y-14750000D02*
X13700000Y-14750000D01*
X13700000Y-15750000D01*
X14450000Y-15750000D01*
X14450000Y-14750000D01*
X14450000Y-17250000D02*
X13700000Y-17250000D01*
X13700000Y-19050000D01*
X14450000Y-19050000D01*
X14450000Y-17250000D01*
X14460000Y-11440000D02*
X8490000Y-11440000D01*
X8490000Y-19060000D01*
X14460000Y-19060000D01*
X14460000Y-11440000D01*
%TO.C,R_B*%
X16630000Y-6920000D02*
X16960000Y-6920000D01*
X16630000Y-13460000D02*
X16630000Y-6920000D01*
X16960000Y-13460000D02*
X16630000Y-13460000D01*
X19040000Y-13460000D02*
X19370000Y-13460000D01*
X19370000Y-6920000D02*
X19040000Y-6920000D01*
X19370000Y-13460000D02*
X19370000Y-6920000D01*
%TO.C,C_ESP1*%
X36238748Y-8265000D02*
X36761252Y-8265000D01*
X36238748Y-9735000D02*
X36761252Y-9735000D01*
%TO.C,R_BIAS2*%
X23772936Y-11765000D02*
X24227064Y-11765000D01*
X23772936Y-13235000D02*
X24227064Y-13235000D01*
%TO.C,C_3V3_1*%
X32038748Y-2765000D02*
X32561252Y-2765000D01*
X32038748Y-4235000D02*
X32561252Y-4235000D01*
%TO.C,C_LORA_DEC*%
X69738748Y-18265000D02*
X70261252Y-18265000D01*
X69738748Y-19735000D02*
X70261252Y-19735000D01*
%TO.C,R_PU_SDA*%
X19772936Y-42265000D02*
X20227064Y-42265000D01*
X19772936Y-43735000D02*
X20227064Y-43735000D01*
%TO.C,U_LORA*%
X78620000Y-6620000D02*
X80000000Y-6620000D01*
X78620000Y-8000000D02*
X78620000Y-6620000D01*
X78620000Y-9270000D02*
X78620000Y-24620000D01*
X78620000Y-9270000D02*
X81380000Y-9270000D01*
X78620000Y-24620000D02*
X81380000Y-24620000D01*
X81380000Y-9270000D02*
X81380000Y-24620000D01*
%TO.C,R_LED2*%
X73772936Y-47765000D02*
X74227064Y-47765000D01*
X73772936Y-49235000D02*
X74227064Y-49235000D01*
%TO.C,R_F*%
X17772936Y-19265000D02*
X18227064Y-19265000D01*
X17772936Y-20735000D02*
X18227064Y-20735000D01*
%TO.C,R_PU_TACHO*%
X17772936Y-52265000D02*
X18227064Y-52265000D01*
X17772936Y-53735000D02*
X18227064Y-53735000D01*
%TO.C,C_BAT*%
X66738748Y-58265000D02*
X67261252Y-58265000D01*
X66738748Y-59735000D02*
X67261252Y-59735000D01*
%TO.C,C_3V3_2*%
X36738748Y-2765000D02*
X37261252Y-2765000D01*
X36738748Y-4235000D02*
X37261252Y-4235000D01*
%TO.C,J_BUZ*%
X75150000Y-59250000D02*
X75150000Y-60500000D01*
X75450000Y-61800000D02*
X76200000Y-61800000D01*
X76200000Y-61800000D02*
X76200000Y-64750000D01*
X76200000Y-64750000D02*
X79250000Y-64750000D01*
X76400000Y-59250000D02*
X75150000Y-59250000D01*
X82300000Y-61800000D02*
X82300000Y-64750000D01*
X82300000Y-64750000D02*
X79250000Y-64750000D01*
X83050000Y-61800000D02*
X82300000Y-61800000D01*
X75440000Y-59540000D02*
X83060000Y-59540000D01*
X83060000Y-65510000D01*
X75440000Y-65510000D01*
X75440000Y-59540000D01*
X75450000Y-59550000D02*
X77250000Y-59550000D01*
X77250000Y-60300000D01*
X75450000Y-60300000D01*
X75450000Y-59550000D01*
X78750000Y-59550000D02*
X79750000Y-59550000D01*
X79750000Y-60300000D01*
X78750000Y-60300000D01*
X78750000Y-59550000D01*
X81250000Y-59550000D02*
X83050000Y-59550000D01*
X83050000Y-60300000D01*
X81250000Y-60300000D01*
X81250000Y-59550000D01*
%TO.C,R_BIAS1*%
X23772936Y-8265000D02*
X24227064Y-8265000D01*
X23772936Y-9735000D02*
X24227064Y-9735000D01*
%TO.C,R_BAT1*%
X62265000Y-64227064D02*
X62265000Y-63772936D01*
X63735000Y-64227064D02*
X63735000Y-63772936D01*
%TO.C,C_F_TACHO*%
X21738748Y-56265000D02*
X22261252Y-56265000D01*
X21738748Y-57735000D02*
X22261252Y-57735000D01*
%TO.C,U_ESP_L*%
X30920000Y-7620000D02*
X32300000Y-7620000D01*
X30920000Y-9000000D02*
X30920000Y-7620000D01*
X30920000Y-10270000D02*
X30920000Y-63720000D01*
X30920000Y-10270000D02*
X33680000Y-10270000D01*
X30920000Y-63720000D02*
X33680000Y-63720000D01*
X33680000Y-10270000D02*
X33680000Y-63720000D01*
%TD*%
%LPC*%
D12*
%TO.C,R_BAT2*%
X67000000Y-64912500D03*
X67000000Y-63087500D03*
%TD*%
D13*
%TO.C,H2*%
X85500000Y-4500000D03*
%TD*%
D14*
%TO.C,J_LEDS*%
X80000000Y-46000000D03*
D15*
X80000000Y-48500000D03*
X80000000Y-51000000D03*
X80000000Y-53500000D03*
%TD*%
D16*
%TO.C,J_BAT_SENSE*%
X65000000Y-69500000D03*
D17*
X67500000Y-69500000D03*
%TD*%
D18*
%TO.C,D_AMP_HI*%
X22950000Y-23000000D03*
X25050000Y-23000000D03*
%TD*%
D19*
%TO.C,R_BUZ*%
X51087500Y-12000000D03*
X52912500Y-12000000D03*
%TD*%
D18*
%TO.C,D_AMP_LO*%
X26950000Y-23000000D03*
X29050000Y-23000000D03*
%TD*%
D20*
%TO.C,C_F*%
X23050000Y-20000000D03*
X24950000Y-20000000D03*
%TD*%
D14*
%TO.C,J_TACHO*%
X12000000Y-54000000D03*
D15*
X12000000Y-56500000D03*
X12000000Y-59000000D03*
%TD*%
D13*
%TO.C,H4*%
X4500000Y-70500000D03*
%TD*%
D19*
%TO.C,R_LED1*%
X73087500Y-46000000D03*
X74912500Y-46000000D03*
%TD*%
D16*
%TO.C,J_BAT*%
X48000000Y-69500000D03*
D17*
X50500000Y-69500000D03*
%TD*%
D20*
%TO.C,C_OLED*%
X73050000Y-31000000D03*
X74950000Y-31000000D03*
%TD*%
D21*
%TO.C,C_IN1*%
X43000000Y-64950000D03*
X43000000Y-63050000D03*
%TD*%
D19*
%TO.C,R_LED3*%
X73087500Y-51000000D03*
X74912500Y-51000000D03*
%TD*%
D14*
%TO.C,J_PROBE*%
X12000000Y-28000000D03*
D15*
X12000000Y-30500000D03*
X12000000Y-33000000D03*
X12000000Y-35500000D03*
X12000000Y-38000000D03*
X12000000Y-40500000D03*
X12000000Y-43000000D03*
X12000000Y-45500000D03*
%TD*%
D22*
%TO.C,J_OLED*%
X80000000Y-30000000D03*
D23*
X80000000Y-32540000D03*
X80000000Y-35080000D03*
X80000000Y-37620000D03*
%TD*%
D20*
%TO.C,C_BIAS*%
X23050000Y-16000000D03*
X24950000Y-16000000D03*
%TD*%
D22*
%TO.C,U_ESP_R*%
X57700000Y-9000000D03*
D23*
X57700000Y-11540000D03*
X57700000Y-14080000D03*
X57700000Y-16620000D03*
X57700000Y-19160000D03*
X57700000Y-21700000D03*
X57700000Y-24240000D03*
X57700000Y-26780000D03*
X57700000Y-29320000D03*
X57700000Y-31860000D03*
X57700000Y-34400000D03*
X57700000Y-36940000D03*
X57700000Y-39480000D03*
X57700000Y-42020000D03*
X57700000Y-44560000D03*
X57700000Y-47100000D03*
X57700000Y-49640000D03*
X57700000Y-52180000D03*
X57700000Y-54720000D03*
X57700000Y-57260000D03*
X57700000Y-59800000D03*
X57700000Y-62340000D03*
%TD*%
D21*
%TO.C,C_IN2*%
X48000000Y-64950000D03*
X48000000Y-63050000D03*
%TD*%
D19*
%TO.C,R_PU_1W*%
X19087500Y-33000000D03*
X20912500Y-33000000D03*
%TD*%
%TO.C,R_PU_SCL*%
X19087500Y-40000000D03*
X20912500Y-40000000D03*
%TD*%
D20*
%TO.C,C_PROBE*%
X17050000Y-28000000D03*
X18950000Y-28000000D03*
%TD*%
D24*
%TO.C,C_LORA_BULK*%
X70000000Y-11000000D03*
D25*
X70000000Y-7500000D03*
%TD*%
D19*
%TO.C,R_S_TACHO*%
X17087500Y-57000000D03*
X18912500Y-57000000D03*
%TD*%
D20*
%TO.C,C_ESP2*%
X35550000Y-12500000D03*
X37450000Y-12500000D03*
%TD*%
D26*
%TO.C,J_AMP*%
X12000000Y-14000000D03*
D27*
X12000000Y-16500000D03*
%TD*%
D13*
%TO.C,H3*%
X85500000Y-70500000D03*
%TD*%
D25*
%TO.C,R_B*%
X18000000Y-14000000D03*
X18000000Y-6380000D03*
%TD*%
D20*
%TO.C,C_ESP1*%
X35550000Y-9000000D03*
X37450000Y-9000000D03*
%TD*%
D19*
%TO.C,R_BIAS2*%
X23087500Y-12500000D03*
X24912500Y-12500000D03*
%TD*%
D20*
%TO.C,C_3V3_1*%
X31350000Y-3500000D03*
X33250000Y-3500000D03*
%TD*%
%TO.C,C_LORA_DEC*%
X69050000Y-19000000D03*
X70950000Y-19000000D03*
%TD*%
D19*
%TO.C,R_PU_SDA*%
X19087500Y-43000000D03*
X20912500Y-43000000D03*
%TD*%
D22*
%TO.C,U_LORA*%
X80000000Y-8000000D03*
D23*
X80000000Y-10540000D03*
X80000000Y-13080000D03*
X80000000Y-15620000D03*
X80000000Y-18160000D03*
X80000000Y-20700000D03*
X80000000Y-23240000D03*
%TD*%
D19*
%TO.C,R_LED2*%
X73087500Y-48500000D03*
X74912500Y-48500000D03*
%TD*%
%TO.C,R_F*%
X17087500Y-20000000D03*
X18912500Y-20000000D03*
%TD*%
%TO.C,R_PU_TACHO*%
X17087500Y-53000000D03*
X18912500Y-53000000D03*
%TD*%
D20*
%TO.C,C_BAT*%
X66050000Y-59000000D03*
X67950000Y-59000000D03*
%TD*%
%TO.C,C_3V3_2*%
X36050000Y-3500000D03*
X37950000Y-3500000D03*
%TD*%
D16*
%TO.C,J_BUZ*%
X78000000Y-62000000D03*
D17*
X80500000Y-62000000D03*
%TD*%
D19*
%TO.C,R_BIAS1*%
X23087500Y-9000000D03*
X24912500Y-9000000D03*
%TD*%
D12*
%TO.C,R_BAT1*%
X63000000Y-64912500D03*
X63000000Y-63087500D03*
%TD*%
D20*
%TO.C,C_F_TACHO*%
X21050000Y-57000000D03*
X22950000Y-57000000D03*
%TD*%
D13*
%TO.C,H1*%
X4500000Y-4500000D03*
%TD*%
D22*
%TO.C,U_ESP_L*%
X32300000Y-9000000D03*
D23*
X32300000Y-11540000D03*
X32300000Y-14080000D03*
X32300000Y-16620000D03*
X32300000Y-19160000D03*
X32300000Y-21700000D03*
X32300000Y-24240000D03*
X32300000Y-26780000D03*
X32300000Y-29320000D03*
X32300000Y-31860000D03*
X32300000Y-34400000D03*
X32300000Y-36940000D03*
X32300000Y-39480000D03*
X32300000Y-42020000D03*
X32300000Y-44560000D03*
X32300000Y-47100000D03*
X32300000Y-49640000D03*
X32300000Y-52180000D03*
X32300000Y-54720000D03*
X32300000Y-57260000D03*
X32300000Y-59800000D03*
X32300000Y-62340000D03*
%TD*%
%LPD*%
M02*
