%TF.GenerationSoftware,KiCad,Pcbnew,9.0.7*%
%TF.CreationDate,2026-09-26T15:32:39-03:00*%
%TF.ProjectId,amemiya_main_node,616d656d-6979-4615-9f6d-61696e5f6e6f,rev?*%
%TF.SameCoordinates,Original*%
%TF.FileFunction,Copper,L1,Top*%
%TF.FilePolarity,Positive*%
%FSLAX46Y46*%
G04 Gerber Fmt 4.6, Leading zero omitted, Abs format (unit mm)*
G04 Created by KiCad (PCBNEW 9.0.7) date 2026-09-26 15:32:39*
%MOMM*%
%LPD*%
G01*
G04 APERTURE LIST*
G04 Aperture macros list*
%AMRoundRect*
0 Rectangle with rounded corners*
0 $1 Rounding radius*
0 $2 $3 $4 $5 $6 $7 $8 $9 X,Y pos of 4 corners*
0 Add a 4 corners polygon primitive as box body*
4,1,4,$2,$3,$4,$5,$6,$7,$8,$9,$2,$3,0*
0 Add four circle primitives for the rounded corners*
1,1,$1+$1,$2,$3*
1,1,$1+$1,$4,$5*
1,1,$1+$1,$6,$7*
1,1,$1+$1,$8,$9*
0 Add four rect primitives between the rounded corners*
20,1,$1+$1,$2,$3,$4,$5,0*
20,1,$1+$1,$4,$5,$6,$7,0*
20,1,$1+$1,$6,$7,$8,$9,0*
20,1,$1+$1,$8,$9,$2,$3,0*%
G04 Aperture macros list end*
%TA.AperFunction,SMDPad,CuDef*%
%ADD10RoundRect,0.250000X0.450000X-0.262500X0.450000X0.262500X-0.450000X0.262500X-0.450000X-0.262500X0*%
%TD*%
%TA.AperFunction,ComponentPad*%
%ADD11RoundRect,0.250000X-0.725000X0.600000X-0.725000X-0.600000X0.725000X-0.600000X0.725000X0.600000X0*%
%TD*%
%TA.AperFunction,ComponentPad*%
%ADD12O,1.950000X1.700000*%
%TD*%
%TA.AperFunction,ComponentPad*%
%ADD13RoundRect,0.250000X-0.600000X-0.750000X0.600000X-0.750000X0.600000X0.750000X-0.600000X0.750000X0*%
%TD*%
%TA.AperFunction,ComponentPad*%
%ADD14O,1.700000X2.000000*%
%TD*%
%TA.AperFunction,SMDPad,CuDef*%
%ADD15RoundRect,0.112500X-0.187500X-0.112500X0.187500X-0.112500X0.187500X0.112500X-0.187500X0.112500X0*%
%TD*%
%TA.AperFunction,SMDPad,CuDef*%
%ADD16RoundRect,0.250000X-0.262500X-0.450000X0.262500X-0.450000X0.262500X0.450000X-0.262500X0.450000X0*%
%TD*%
%TA.AperFunction,SMDPad,CuDef*%
%ADD17RoundRect,0.250000X-0.250000X-0.475000X0.250000X-0.475000X0.250000X0.475000X-0.250000X0.475000X0*%
%TD*%
%TA.AperFunction,SMDPad,CuDef*%
%ADD18RoundRect,0.250000X0.475000X-0.250000X0.475000X0.250000X-0.475000X0.250000X-0.475000X-0.250000X0*%
%TD*%
%TA.AperFunction,ComponentPad*%
%ADD19R,1.700000X1.700000*%
%TD*%
%TA.AperFunction,ComponentPad*%
%ADD20C,1.700000*%
%TD*%
%TA.AperFunction,ComponentPad*%
%ADD21RoundRect,0.250000X0.550000X-0.550000X0.550000X0.550000X-0.550000X0.550000X-0.550000X-0.550000X0*%
%TD*%
%TA.AperFunction,ComponentPad*%
%ADD22C,1.600000*%
%TD*%
%TA.AperFunction,ComponentPad*%
%ADD23RoundRect,0.250000X-0.750000X0.600000X-0.750000X-0.600000X0.750000X-0.600000X0.750000X0.600000X0*%
%TD*%
%TA.AperFunction,ComponentPad*%
%ADD24O,2.000000X1.700000*%
%TD*%
%TA.AperFunction,ViaPad*%
%ADD25C,0.800000*%
%TD*%
%TA.AperFunction,Conductor*%
%ADD26C,0.600000*%
%TD*%
%TA.AperFunction,Conductor*%
%ADD27C,0.300000*%
%TD*%
G04 APERTURE END LIST*
D10*
%TO.P,R_BAT2,1*%
%TO.N,/MCU_ESP32S3/VBAT_ADC*%
X67000000Y-64912500D03*
%TO.P,R_BAT2,2*%
%TO.N,GND*%
X67000000Y-63087500D03*
%TD*%
D11*
%TO.P,J_LEDS,1*%
%TO.N,Net-(J_LEDS-Pin_1)*%
X80000000Y-46000000D03*
D12*
%TO.P,J_LEDS,2*%
%TO.N,Net-(J_LEDS-Pin_2)*%
X80000000Y-48500000D03*
%TO.P,J_LEDS,3*%
%TO.N,Net-(J_LEDS-Pin_3)*%
X80000000Y-51000000D03*
%TO.P,J_LEDS,4*%
%TO.N,GND*%
X80000000Y-53500000D03*
%TD*%
D13*
%TO.P,J_BAT_SENSE,1*%
%TO.N,/Power_Supply/VBAT_RAW*%
X65000000Y-69500000D03*
D14*
%TO.P,J_BAT_SENSE,2*%
%TO.N,GND*%
X67500000Y-69500000D03*
%TD*%
D15*
%TO.P,D_AMP_HI,1*%
%TO.N,/MCU_ESP32S3/AMP_ADC*%
X22950000Y-23000000D03*
%TO.P,D_AMP_HI,2*%
%TO.N,+3V3*%
X25050000Y-23000000D03*
%TD*%
D16*
%TO.P,R_BUZ,1*%
%TO.N,Net-(J_BUZ-Pin_2)*%
X51087500Y-12000000D03*
%TO.P,R_BUZ,2*%
%TO.N,/MCU_ESP32S3/GPIO_BUZZER*%
X52912500Y-12000000D03*
%TD*%
D15*
%TO.P,D_AMP_LO,1*%
%TO.N,GND*%
X26950000Y-23000000D03*
%TO.P,D_AMP_LO,2*%
%TO.N,/MCU_ESP32S3/AMP_ADC*%
X29050000Y-23000000D03*
%TD*%
D17*
%TO.P,C_F,1*%
%TO.N,/MCU_ESP32S3/AMP_ADC*%
X23050000Y-20000000D03*
%TO.P,C_F,2*%
%TO.N,GND*%
X24950000Y-20000000D03*
%TD*%
D11*
%TO.P,J_TACHO,1*%
%TO.N,+3V3*%
X12000000Y-54000000D03*
D12*
%TO.P,J_TACHO,2*%
%TO.N,GND*%
X12000000Y-56500000D03*
%TO.P,J_TACHO,3*%
%TO.N,/Sensors_AFE/TACHO_RAW*%
X12000000Y-59000000D03*
%TD*%
D16*
%TO.P,R_LED1,1*%
%TO.N,Net-(J_LEDS-Pin_1)*%
X73087500Y-46000000D03*
%TO.P,R_LED1,2*%
%TO.N,/MCU_ESP32S3/GPIO_LED_GRN*%
X74912500Y-46000000D03*
%TD*%
D13*
%TO.P,J_BAT,1*%
%TO.N,+5V*%
X48000000Y-69500000D03*
D14*
%TO.P,J_BAT,2*%
%TO.N,GND*%
X50500000Y-69500000D03*
%TD*%
D17*
%TO.P,C_OLED,1*%
%TO.N,+3V3*%
X73050000Y-31000000D03*
%TO.P,C_OLED,2*%
%TO.N,GND*%
X74950000Y-31000000D03*
%TD*%
D18*
%TO.P,C_IN1,1*%
%TO.N,+5V*%
X43000000Y-64950000D03*
%TO.P,C_IN1,2*%
%TO.N,GND*%
X43000000Y-63050000D03*
%TD*%
D16*
%TO.P,R_LED3,1*%
%TO.N,Net-(J_LEDS-Pin_3)*%
X73087500Y-51000000D03*
%TO.P,R_LED3,2*%
%TO.N,/MCU_ESP32S3/GPIO_LED_BLU*%
X74912500Y-51000000D03*
%TD*%
D11*
%TO.P,J_PROBE,1*%
%TO.N,+3V3*%
X12000000Y-28000000D03*
D12*
%TO.P,J_PROBE,2*%
%TO.N,GND*%
X12000000Y-30500000D03*
%TO.P,J_PROBE,3*%
%TO.N,/MCU_ESP32S3/1W_DQ*%
X12000000Y-33000000D03*
%TO.P,J_PROBE,4*%
%TO.N,/MCU_ESP32S3/I2S_SD*%
X12000000Y-35500000D03*
%TO.P,J_PROBE,5*%
%TO.N,/MCU_ESP32S3/I2S_SCK*%
X12000000Y-38000000D03*
%TO.P,J_PROBE,6*%
%TO.N,/MCU_ESP32S3/I2S_WS*%
X12000000Y-40500000D03*
%TO.P,J_PROBE,7*%
%TO.N,/MCU_ESP32S3/I2C_SCL*%
X12000000Y-43000000D03*
%TO.P,J_PROBE,8*%
%TO.N,/MCU_ESP32S3/I2C_SDA*%
X12000000Y-45500000D03*
%TD*%
D19*
%TO.P,J_OLED,1*%
%TO.N,GND*%
X80000000Y-30000000D03*
D20*
%TO.P,J_OLED,2*%
%TO.N,+3V3*%
X80000000Y-32540000D03*
%TO.P,J_OLED,3*%
%TO.N,/MCU_ESP32S3/I2C_SCL*%
X80000000Y-35080000D03*
%TO.P,J_OLED,4*%
%TO.N,/MCU_ESP32S3/I2C_SDA*%
X80000000Y-37620000D03*
%TD*%
D17*
%TO.P,C_BIAS,1*%
%TO.N,Net-(J_AMP-Pin_2)*%
X23050000Y-16000000D03*
%TO.P,C_BIAS,2*%
%TO.N,GND*%
X24950000Y-16000000D03*
%TD*%
D19*
%TO.P,U_ESP_R,1*%
%TO.N,GND*%
X57700000Y-9000000D03*
D20*
%TO.P,U_ESP_R,2*%
%TO.N,/MCU_ESP32S3/GPIO_BUZZER*%
X57700000Y-11540000D03*
%TO.P,U_ESP_R,3*%
%TO.N,/MCU_ESP32S3/VBAT_ADC*%
X57700000Y-14080000D03*
%TO.P,U_ESP_R,4*%
%TO.N,unconnected-(U_ESP_R-Pin_4-Pad4)*%
X57700000Y-16620000D03*
%TO.P,U_ESP_R,5*%
%TO.N,unconnected-(U_ESP_R-Pin_5-Pad5)*%
X57700000Y-19160000D03*
%TO.P,U_ESP_R,6*%
%TO.N,unconnected-(U_ESP_R-Pin_6-Pad6)*%
X57700000Y-21700000D03*
%TO.P,U_ESP_R,7*%
%TO.N,unconnected-(U_ESP_R-Pin_7-Pad7)*%
X57700000Y-24240000D03*
%TO.P,U_ESP_R,8*%
%TO.N,unconnected-(U_ESP_R-Pin_8-Pad8)*%
X57700000Y-26780000D03*
%TO.P,U_ESP_R,9*%
%TO.N,unconnected-(U_ESP_R-Pin_9-Pad9)*%
X57700000Y-29320000D03*
%TO.P,U_ESP_R,10*%
%TO.N,unconnected-(U_ESP_R-Pin_10-Pad10)*%
X57700000Y-31860000D03*
%TO.P,U_ESP_R,11*%
%TO.N,unconnected-(U_ESP_R-Pin_11-Pad11)*%
X57700000Y-34400000D03*
%TO.P,U_ESP_R,12*%
%TO.N,unconnected-(U_ESP_R-Pin_12-Pad12)*%
X57700000Y-36940000D03*
%TO.P,U_ESP_R,13*%
%TO.N,unconnected-(U_ESP_R-Pin_13-Pad13)*%
X57700000Y-39480000D03*
%TO.P,U_ESP_R,14*%
%TO.N,unconnected-(U_ESP_R-Pin_14-Pad14)*%
X57700000Y-42020000D03*
%TO.P,U_ESP_R,15*%
%TO.N,unconnected-(U_ESP_R-Pin_15-Pad15)*%
X57700000Y-44560000D03*
%TO.P,U_ESP_R,16*%
%TO.N,unconnected-(U_ESP_R-Pin_16-Pad16)*%
X57700000Y-47100000D03*
%TO.P,U_ESP_R,17*%
%TO.N,unconnected-(U_ESP_R-Pin_17-Pad17)*%
X57700000Y-49640000D03*
%TO.P,U_ESP_R,18*%
%TO.N,unconnected-(U_ESP_R-Pin_18-Pad18)*%
X57700000Y-52180000D03*
%TO.P,U_ESP_R,19*%
%TO.N,unconnected-(U_ESP_R-Pin_19-Pad19)*%
X57700000Y-54720000D03*
%TO.P,U_ESP_R,20*%
%TO.N,unconnected-(U_ESP_R-Pin_20-Pad20)*%
X57700000Y-57260000D03*
%TO.P,U_ESP_R,21*%
%TO.N,unconnected-(U_ESP_R-Pin_21-Pad21)*%
X57700000Y-59800000D03*
%TO.P,U_ESP_R,22*%
%TO.N,+5V*%
X57700000Y-62340000D03*
%TD*%
D18*
%TO.P,C_IN2,1*%
%TO.N,+5V*%
X48000000Y-64950000D03*
%TO.P,C_IN2,2*%
%TO.N,GND*%
X48000000Y-63050000D03*
%TD*%
D16*
%TO.P,R_PU_1W,1*%
%TO.N,+3V3*%
X19087500Y-33000000D03*
%TO.P,R_PU_1W,2*%
%TO.N,/MCU_ESP32S3/1W_DQ*%
X20912500Y-33000000D03*
%TD*%
%TO.P,R_PU_SCL,1*%
%TO.N,+3V3*%
X19087500Y-40000000D03*
%TO.P,R_PU_SCL,2*%
%TO.N,/MCU_ESP32S3/I2C_SCL*%
X20912500Y-40000000D03*
%TD*%
D17*
%TO.P,C_PROBE,1*%
%TO.N,+3V3*%
X17050000Y-28000000D03*
%TO.P,C_PROBE,2*%
%TO.N,GND*%
X18950000Y-28000000D03*
%TD*%
D21*
%TO.P,C_LORA_BULK,1*%
%TO.N,+3V3*%
X70000000Y-11000000D03*
D22*
%TO.P,C_LORA_BULK,2*%
%TO.N,GND*%
X70000000Y-7500000D03*
%TD*%
D16*
%TO.P,R_S_TACHO,1*%
%TO.N,/Sensors_AFE/TACHO_RAW*%
X17087500Y-57000000D03*
%TO.P,R_S_TACHO,2*%
%TO.N,/MCU_ESP32S3/TACHO*%
X18912500Y-57000000D03*
%TD*%
D17*
%TO.P,C_ESP2,1*%
%TO.N,+3V3*%
X35550000Y-12500000D03*
%TO.P,C_ESP2,2*%
%TO.N,GND*%
X37450000Y-12500000D03*
%TD*%
D23*
%TO.P,J_AMP,1*%
%TO.N,Net-(J_AMP-Pin_1)*%
X12000000Y-14000000D03*
D24*
%TO.P,J_AMP,2*%
%TO.N,Net-(J_AMP-Pin_2)*%
X12000000Y-16500000D03*
%TD*%
D22*
%TO.P,R_B,1*%
%TO.N,Net-(J_AMP-Pin_1)*%
X18000000Y-14000000D03*
%TO.P,R_B,2*%
%TO.N,Net-(J_AMP-Pin_2)*%
X18000000Y-6380000D03*
%TD*%
D17*
%TO.P,C_ESP1,1*%
%TO.N,+3V3*%
X35550000Y-9000000D03*
%TO.P,C_ESP1,2*%
%TO.N,GND*%
X37450000Y-9000000D03*
%TD*%
D16*
%TO.P,R_BIAS2,1*%
%TO.N,Net-(J_AMP-Pin_2)*%
X23087500Y-12500000D03*
%TO.P,R_BIAS2,2*%
%TO.N,GND*%
X24912500Y-12500000D03*
%TD*%
D17*
%TO.P,C_3V3_1,1*%
%TO.N,+3V3*%
X31350000Y-3500000D03*
%TO.P,C_3V3_1,2*%
%TO.N,GND*%
X33250000Y-3500000D03*
%TD*%
%TO.P,C_LORA_DEC,1*%
%TO.N,+3V3*%
X69050000Y-19000000D03*
%TO.P,C_LORA_DEC,2*%
%TO.N,GND*%
X70950000Y-19000000D03*
%TD*%
D16*
%TO.P,R_PU_SDA,1*%
%TO.N,+3V3*%
X19087500Y-43000000D03*
%TO.P,R_PU_SDA,2*%
%TO.N,/MCU_ESP32S3/I2C_SDA*%
X20912500Y-43000000D03*
%TD*%
D19*
%TO.P,U_LORA,1*%
%TO.N,GND*%
X80000000Y-8000000D03*
D20*
%TO.P,U_LORA,2*%
X80000000Y-10540000D03*
%TO.P,U_LORA,3*%
%TO.N,/MCU_ESP32S3/LORA_TX*%
X80000000Y-13080000D03*
%TO.P,U_LORA,4*%
%TO.N,/MCU_ESP32S3/LORA_RX*%
X80000000Y-15620000D03*
%TO.P,U_LORA,5*%
%TO.N,/MCU_ESP32S3/LORA_AUX*%
X80000000Y-18160000D03*
%TO.P,U_LORA,6*%
%TO.N,+3V3*%
X80000000Y-20700000D03*
%TO.P,U_LORA,7*%
%TO.N,GND*%
X80000000Y-23240000D03*
%TD*%
D16*
%TO.P,R_LED2,1*%
%TO.N,Net-(J_LEDS-Pin_2)*%
X73087500Y-48500000D03*
%TO.P,R_LED2,2*%
%TO.N,/MCU_ESP32S3/GPIO_LED_ORG*%
X74912500Y-48500000D03*
%TD*%
%TO.P,R_F,1*%
%TO.N,Net-(J_AMP-Pin_1)*%
X17087500Y-20000000D03*
%TO.P,R_F,2*%
%TO.N,/MCU_ESP32S3/AMP_ADC*%
X18912500Y-20000000D03*
%TD*%
%TO.P,R_PU_TACHO,1*%
%TO.N,+3V3*%
X17087500Y-53000000D03*
%TO.P,R_PU_TACHO,2*%
%TO.N,/Sensors_AFE/TACHO_RAW*%
X18912500Y-53000000D03*
%TD*%
D17*
%TO.P,C_BAT,1*%
%TO.N,/MCU_ESP32S3/VBAT_ADC*%
X66050000Y-59000000D03*
%TO.P,C_BAT,2*%
%TO.N,GND*%
X67950000Y-59000000D03*
%TD*%
%TO.P,C_3V3_2,1*%
%TO.N,+3V3*%
X36050000Y-3500000D03*
%TO.P,C_3V3_2,2*%
%TO.N,GND*%
X37950000Y-3500000D03*
%TD*%
D13*
%TO.P,J_BUZ,1*%
%TO.N,GND*%
X78000000Y-62000000D03*
D14*
%TO.P,J_BUZ,2*%
%TO.N,Net-(J_BUZ-Pin_2)*%
X80500000Y-62000000D03*
%TD*%
D16*
%TO.P,R_BIAS1,1*%
%TO.N,+3V3*%
X23087500Y-9000000D03*
%TO.P,R_BIAS1,2*%
%TO.N,Net-(J_AMP-Pin_2)*%
X24912500Y-9000000D03*
%TD*%
D10*
%TO.P,R_BAT1,1*%
%TO.N,/Power_Supply/VBAT_RAW*%
X63000000Y-64912500D03*
%TO.P,R_BAT1,2*%
%TO.N,/MCU_ESP32S3/VBAT_ADC*%
X63000000Y-63087500D03*
%TD*%
D17*
%TO.P,C_F_TACHO,1*%
%TO.N,/MCU_ESP32S3/TACHO*%
X21050000Y-57000000D03*
%TO.P,C_F_TACHO,2*%
%TO.N,GND*%
X22950000Y-57000000D03*
%TD*%
D19*
%TO.P,U_ESP_L,1*%
%TO.N,+3V3*%
X32300000Y-9000000D03*
D20*
%TO.P,U_ESP_L,2*%
X32300000Y-11540000D03*
%TO.P,U_ESP_L,3*%
%TO.N,unconnected-(U_ESP_L-Pin_3-Pad3)*%
X32300000Y-14080000D03*
%TO.P,U_ESP_L,4*%
%TO.N,/MCU_ESP32S3/1W_DQ*%
X32300000Y-16620000D03*
%TO.P,U_ESP_L,5*%
%TO.N,/MCU_ESP32S3/I2S_SD*%
X32300000Y-19160000D03*
%TO.P,U_ESP_L,6*%
%TO.N,/MCU_ESP32S3/I2S_SCK*%
X32300000Y-21700000D03*
%TO.P,U_ESP_L,7*%
%TO.N,/MCU_ESP32S3/I2S_WS*%
X32300000Y-24240000D03*
%TO.P,U_ESP_L,8*%
%TO.N,unconnected-(U_ESP_L-Pin_8-Pad8)*%
X32300000Y-26780000D03*
%TO.P,U_ESP_L,9*%
%TO.N,unconnected-(U_ESP_L-Pin_9-Pad9)*%
X32300000Y-29320000D03*
%TO.P,U_ESP_L,10*%
%TO.N,unconnected-(U_ESP_L-Pin_10-Pad10)*%
X32300000Y-31860000D03*
%TO.P,U_ESP_L,11*%
%TO.N,unconnected-(U_ESP_L-Pin_11-Pad11)*%
X32300000Y-34400000D03*
%TO.P,U_ESP_L,12*%
%TO.N,/MCU_ESP32S3/I2C_SCL*%
X32300000Y-36940000D03*
%TO.P,U_ESP_L,13*%
%TO.N,/MCU_ESP32S3/I2C_SDA*%
X32300000Y-39480000D03*
%TO.P,U_ESP_L,14*%
%TO.N,/MCU_ESP32S3/TACHO*%
X32300000Y-42020000D03*
%TO.P,U_ESP_L,15*%
%TO.N,/MCU_ESP32S3/AMP_ADC*%
X32300000Y-44560000D03*
%TO.P,U_ESP_L,16*%
%TO.N,/MCU_ESP32S3/LORA_TX*%
X32300000Y-47100000D03*
%TO.P,U_ESP_L,17*%
%TO.N,/MCU_ESP32S3/LORA_RX*%
X32300000Y-49640000D03*
%TO.P,U_ESP_L,18*%
%TO.N,/MCU_ESP32S3/LORA_AUX*%
X32300000Y-52180000D03*
%TO.P,U_ESP_L,19*%
%TO.N,/MCU_ESP32S3/GPIO_LED_GRN*%
X32300000Y-54720000D03*
%TO.P,U_ESP_L,20*%
%TO.N,/MCU_ESP32S3/GPIO_LED_ORG*%
X32300000Y-57260000D03*
%TO.P,U_ESP_L,21*%
%TO.N,/MCU_ESP32S3/GPIO_LED_BLU*%
X32300000Y-59800000D03*
%TO.P,U_ESP_L,22*%
%TO.N,GND*%
X32300000Y-62340000D03*
%TD*%
D25*
%TO.N,+3V3*%
X17101500Y-33562900D03*
%TO.N,/MCU_ESP32S3/I2C_SCL*%
X60230700Y-35656500D03*
%TO.N,/MCU_ESP32S3/VBAT_ADC*%
X66050000Y-57662600D03*
%TO.N,Net-(J_BUZ-Pin_2)*%
X65246300Y-26787800D03*
%TD*%
D26*
%TO.N,+3V3*%
X20205800Y-24844200D02*
X17050000Y-28000000D01*
X34590000Y-11540000D02*
X34590000Y-9960000D01*
X17050000Y-28000000D02*
X12000000Y-28000000D01*
X23205800Y-24844200D02*
X20205800Y-24844200D01*
X37327700Y-2222300D02*
X36050000Y-3500000D01*
X24701600Y-10735900D02*
X23087500Y-9121800D01*
X17101500Y-33562900D02*
X18524600Y-33562900D01*
X19087500Y-43000000D02*
X17087500Y-45000000D01*
X31495900Y-10735900D02*
X24701600Y-10735900D01*
X32300000Y-11540000D02*
X34590000Y-11540000D01*
X70000000Y-11000000D02*
X69050000Y-11950000D01*
X25050000Y-23000000D02*
X23205800Y-24844200D01*
X19087500Y-40000000D02*
X19087500Y-43000000D01*
X31350000Y-6648300D02*
X31350000Y-3500000D01*
X34590000Y-11540000D02*
X35550000Y-12500000D01*
X12000000Y-54000000D02*
X16087500Y-54000000D01*
X31350000Y-3500000D02*
X32627700Y-2222300D01*
X18524600Y-33562900D02*
X19087500Y-33000000D01*
X23087500Y-9121800D02*
X23087500Y-9000000D01*
X69050000Y-11950000D02*
X69050000Y-19000000D01*
X32300000Y-9000000D02*
X32300000Y-7598300D01*
X59322300Y-2222300D02*
X37327700Y-2222300D01*
X80000000Y-32540000D02*
X74590000Y-32540000D01*
X73050000Y-31000000D02*
X73050000Y-27650000D01*
X16087500Y-54000000D02*
X17087500Y-53000000D01*
X34590000Y-9960000D02*
X35550000Y-9000000D01*
X32627700Y-2222300D02*
X34772300Y-2222300D01*
X34772300Y-2222300D02*
X36050000Y-3500000D01*
X32300000Y-7598300D02*
X31350000Y-6648300D01*
X17087500Y-45000000D02*
X17087500Y-53000000D01*
X74590000Y-32540000D02*
X73050000Y-31000000D01*
X69050000Y-11950000D02*
X59322300Y-2222300D01*
X32300000Y-11540000D02*
X31495900Y-10735900D01*
X73050000Y-27650000D02*
X80000000Y-20700000D01*
%TO.N,+5V*%
X43000000Y-64950000D02*
X48000000Y-64950000D01*
X48000000Y-64950000D02*
X48000000Y-69500000D01*
D27*
%TO.N,/MCU_ESP32S3/1W_DQ*%
X13326700Y-33000000D02*
X14472800Y-31853900D01*
X32300000Y-16620000D02*
X30148100Y-18771900D01*
X12000000Y-33000000D02*
X13326700Y-33000000D01*
X20912500Y-31853900D02*
X20912500Y-33000000D01*
X30148100Y-22894600D02*
X21188800Y-31853900D01*
X14472800Y-31853900D02*
X20912500Y-31853900D01*
X30148100Y-18771900D02*
X30148100Y-22894600D01*
X21188800Y-31853900D02*
X20912500Y-31853900D01*
%TO.N,/MCU_ESP32S3/AMP_ADC*%
X32829100Y-15415400D02*
X34043800Y-16630100D01*
X16513600Y-21190800D02*
X10614800Y-27089600D01*
X17721700Y-21190800D02*
X16513600Y-21190800D01*
X31754300Y-15415400D02*
X32829100Y-15415400D01*
X21482000Y-30568000D02*
X29050000Y-23000000D01*
X22950000Y-23000000D02*
X23050000Y-22900000D01*
X10614800Y-27089600D02*
X10614800Y-31070700D01*
X23050000Y-20000000D02*
X18912500Y-20000000D01*
X11329400Y-31785300D02*
X13554800Y-31785300D01*
X29050000Y-18119700D02*
X31754300Y-15415400D01*
X23050000Y-22900000D02*
X23050000Y-20000000D01*
X29050000Y-23000000D02*
X29050000Y-18119700D01*
X10614800Y-31070700D02*
X11329400Y-31785300D01*
X14772100Y-30568000D02*
X21482000Y-30568000D01*
X18912500Y-20000000D02*
X17721700Y-21190800D01*
X34043800Y-16630100D02*
X34043800Y-42816200D01*
X34043800Y-42816200D02*
X32300000Y-44560000D01*
X13554800Y-31785300D02*
X14772100Y-30568000D01*
%TO.N,/MCU_ESP32S3/GPIO_BUZZER*%
X57700000Y-11540000D02*
X53372500Y-11540000D01*
X53372500Y-11540000D02*
X52912500Y-12000000D01*
%TO.N,/MCU_ESP32S3/GPIO_LED_BLU*%
X33570000Y-58530000D02*
X61880500Y-58530000D01*
X61880500Y-58530000D02*
X67374900Y-53035600D01*
X32300000Y-59800000D02*
X33570000Y-58530000D01*
X67374900Y-53035600D02*
X72876900Y-53035600D01*
X72876900Y-53035600D02*
X74912500Y-51000000D01*
%TO.N,/MCU_ESP32S3/GPIO_LED_GRN*%
X64716400Y-48371600D02*
X65838000Y-47250000D01*
X73662500Y-47250000D02*
X74912500Y-46000000D01*
X33630300Y-54720000D02*
X39978700Y-48371600D01*
X39978700Y-48371600D02*
X64716400Y-48371600D01*
X32300000Y-54720000D02*
X33630300Y-54720000D01*
X65838000Y-47250000D02*
X73662500Y-47250000D01*
%TO.N,/MCU_ESP32S3/GPIO_LED_ORG*%
X73662500Y-49750000D02*
X64227400Y-49750000D01*
X36110000Y-53450000D02*
X32300000Y-57260000D01*
X60527400Y-53450000D02*
X36110000Y-53450000D01*
X64227400Y-49750000D02*
X60527400Y-53450000D01*
X74912500Y-48500000D02*
X73662500Y-49750000D01*
%TO.N,/MCU_ESP32S3/I2C_SCL*%
X29786300Y-39453700D02*
X20912500Y-39453700D01*
X80000000Y-35080000D02*
X79423500Y-35656500D01*
X13326700Y-43000000D02*
X17947800Y-38378900D01*
X12000000Y-43000000D02*
X13326700Y-43000000D01*
X20912500Y-39453700D02*
X20912500Y-40000000D01*
X32300000Y-36940000D02*
X29786300Y-39453700D01*
X79423500Y-35656500D02*
X60230700Y-35656500D01*
X19837700Y-38378900D02*
X20912500Y-39453700D01*
X17947800Y-38378900D02*
X19837700Y-38378900D01*
%TO.N,/MCU_ESP32S3/I2C_SDA*%
X31752200Y-53393100D02*
X33538400Y-53393100D01*
X20912500Y-42220300D02*
X29559700Y-42220300D01*
X12000000Y-45500000D02*
X13326700Y-45500000D01*
X31736800Y-43358300D02*
X31055100Y-44040000D01*
X20912500Y-42220300D02*
X20912500Y-43000000D01*
X31889500Y-39890500D02*
X33538300Y-41539300D01*
X20025000Y-39289300D02*
X20025000Y-41332800D01*
X33538400Y-53393100D02*
X41040300Y-45891200D01*
X33538300Y-41539300D02*
X33538300Y-42504800D01*
X13326700Y-45500000D02*
X13326700Y-44098700D01*
X31889500Y-39890500D02*
X32300000Y-39480000D01*
X41040300Y-45891200D02*
X61691300Y-45891200D01*
X19630400Y-38894700D02*
X20025000Y-39289300D01*
X61691300Y-45891200D02*
X69962500Y-37620000D01*
X31055100Y-44040000D02*
X31055100Y-52696000D01*
X32684800Y-43358300D02*
X31736800Y-43358300D01*
X20025000Y-41332800D02*
X20912500Y-42220300D01*
X31055100Y-52696000D02*
X31752200Y-53393100D01*
X69962500Y-37620000D02*
X80000000Y-37620000D01*
X13326700Y-44098700D02*
X18530700Y-38894700D01*
X18530700Y-38894700D02*
X19630400Y-38894700D01*
X33538300Y-42504800D02*
X32684800Y-43358300D01*
X29559700Y-42220300D02*
X31889500Y-39890500D01*
%TO.N,/MCU_ESP32S3/I2S_SCK*%
X22277900Y-33908700D02*
X31098300Y-25088300D01*
X31098300Y-23425300D02*
X32300000Y-22223600D01*
X21735800Y-34452800D02*
X22277900Y-33910700D01*
X32300000Y-22223600D02*
X32300000Y-21700000D01*
X22277900Y-33910700D02*
X22277900Y-33908700D01*
X31098300Y-25088300D02*
X31098300Y-23425300D01*
X13326700Y-38000000D02*
X14439700Y-36887000D01*
X21733800Y-34452800D02*
X21735800Y-34452800D01*
X12000000Y-38000000D02*
X13326700Y-38000000D01*
X19299600Y-36887000D02*
X21733800Y-34452800D01*
X14439700Y-36887000D02*
X19299600Y-36887000D01*
%TO.N,/MCU_ESP32S3/I2S_SD*%
X30874100Y-22940100D02*
X30874100Y-20585900D01*
X12000000Y-35500000D02*
X19975000Y-35500000D01*
X19975000Y-35500000D02*
X21422300Y-34052700D01*
X21424500Y-34052700D02*
X21777700Y-33699500D01*
X30874100Y-20585900D02*
X32300000Y-19160000D01*
X21777700Y-33699500D02*
X21777700Y-32036500D01*
X21777700Y-32036500D02*
X30874100Y-22940100D01*
X21422300Y-34052700D02*
X21424500Y-34052700D01*
%TO.N,/MCU_ESP32S3/I2S_WS*%
X12000000Y-40500000D02*
X13326700Y-40500000D01*
X32300000Y-24598000D02*
X32300000Y-24240000D01*
X16438000Y-37388700D02*
X19509300Y-37388700D01*
X19509300Y-37388700D02*
X32300000Y-24598000D01*
X13326700Y-40500000D02*
X16438000Y-37388700D01*
%TO.N,/MCU_ESP32S3/LORA_AUX*%
X59218800Y-37167500D02*
X59218800Y-35605100D01*
X64019600Y-34140400D02*
X80000000Y-18160000D01*
X59218800Y-35605100D02*
X60683500Y-34140400D01*
X58176300Y-38210000D02*
X59218800Y-37167500D01*
X46270000Y-38210000D02*
X58176300Y-38210000D01*
X60683500Y-34140400D02*
X64019600Y-34140400D01*
X32300000Y-52180000D02*
X46270000Y-38210000D01*
%TO.N,/MCU_ESP32S3/LORA_RX*%
X58510900Y-35603600D02*
X46336400Y-35603600D01*
X78494500Y-15620000D02*
X58510900Y-35603600D01*
X46336400Y-35603600D02*
X32300000Y-49640000D01*
X80000000Y-15620000D02*
X78494500Y-15620000D01*
%TO.N,/MCU_ESP32S3/LORA_TX*%
X80000000Y-13097100D02*
X80000000Y-13080000D01*
X51350000Y-28050000D02*
X65047100Y-28050000D01*
X32300000Y-47100000D02*
X51350000Y-28050000D01*
X65047100Y-28050000D02*
X80000000Y-13097100D01*
%TO.N,/MCU_ESP32S3/TACHO*%
X21050000Y-57000000D02*
X18912500Y-57000000D01*
X21050000Y-53270000D02*
X21050000Y-57000000D01*
X32300000Y-42020000D02*
X21050000Y-53270000D01*
%TO.N,/MCU_ESP32S3/VBAT_ADC*%
X63000000Y-63087500D02*
X65175000Y-63087500D01*
X66050000Y-57662600D02*
X66050000Y-59000000D01*
X65175000Y-63087500D02*
X65175000Y-59875000D01*
X65175000Y-63087500D02*
X67000000Y-64912500D01*
X65175000Y-59875000D02*
X66050000Y-59000000D01*
D26*
%TO.N,/Power_Supply/VBAT_RAW*%
X63000000Y-64912500D02*
X63000000Y-67500000D01*
X63000000Y-67500000D02*
X65000000Y-69500000D01*
D27*
%TO.N,/Sensors_AFE/TACHO_RAW*%
X15087500Y-59000000D02*
X17087500Y-57000000D01*
X12000000Y-59000000D02*
X15087500Y-59000000D01*
X17087500Y-54825000D02*
X17087500Y-57000000D01*
X18912500Y-53000000D02*
X17087500Y-54825000D01*
D26*
%TO.N,GND*%
X43000000Y-63050000D02*
X48000000Y-63050000D01*
X11315200Y-60443500D02*
X10422400Y-59550700D01*
X75901700Y-59000000D02*
X75901700Y-59901700D01*
X67950000Y-59000000D02*
X75901700Y-59000000D01*
X65945900Y-71054100D02*
X67500000Y-69500000D01*
X37450000Y-9000000D02*
X37450000Y-5557600D01*
X71352700Y-18597300D02*
X70950000Y-19000000D01*
X71352700Y-8700800D02*
X71200800Y-8700800D01*
X75901700Y-59000000D02*
X80000000Y-54901700D01*
X18950000Y-28000000D02*
X21950000Y-28000000D01*
X80000000Y-10540000D02*
X80000000Y-9401700D01*
X37450000Y-9000000D02*
X57700000Y-9000000D01*
X67676400Y-63087500D02*
X67000000Y-63087500D01*
X14232900Y-29793800D02*
X17156200Y-29793800D01*
X32300000Y-62340000D02*
X28290000Y-62340000D01*
X68289100Y-63700200D02*
X67676400Y-63087500D01*
X21950000Y-28000000D02*
X26950000Y-23000000D01*
X43000000Y-63050000D02*
X42290000Y-62340000D01*
X13526700Y-30500000D02*
X14232900Y-29793800D01*
X17156200Y-29793800D02*
X18950000Y-28000000D01*
X26950000Y-23000000D02*
X24950000Y-21000000D01*
X51901700Y-69500000D02*
X53455800Y-71054100D01*
X80000000Y-53500000D02*
X80000000Y-54901700D01*
X42290000Y-62340000D02*
X32300000Y-62340000D01*
X28290000Y-62340000D02*
X22950000Y-57000000D01*
X37450000Y-12500000D02*
X37450000Y-9000000D01*
X24950000Y-20000000D02*
X24950000Y-16000000D01*
X53455800Y-71054100D02*
X65945900Y-71054100D01*
X22950000Y-57000000D02*
X19506500Y-60443500D01*
X67500000Y-69500000D02*
X67500000Y-67948300D01*
X50500000Y-65550000D02*
X50500000Y-69500000D01*
X71352700Y-8700800D02*
X71352700Y-18597300D01*
X37950000Y-3500000D02*
X36671200Y-4778800D01*
X67950000Y-62813900D02*
X67676400Y-63087500D01*
X68289100Y-67159200D02*
X68289100Y-63700200D01*
X50500000Y-69500000D02*
X51901700Y-69500000D01*
X74950000Y-31000000D02*
X77598300Y-31000000D01*
X24912500Y-15962500D02*
X24912500Y-12500000D01*
X34528800Y-4778800D02*
X33250000Y-3500000D01*
X36671200Y-4778800D02*
X34528800Y-4778800D01*
X24950000Y-16000000D02*
X24912500Y-15962500D01*
X24950000Y-21000000D02*
X24950000Y-20000000D01*
X71200800Y-8700800D02*
X70000000Y-7500000D01*
X37450000Y-5557600D02*
X36671200Y-4778800D01*
X80000000Y-30000000D02*
X78598300Y-30000000D01*
X80000000Y-8000000D02*
X80000000Y-8700800D01*
X10422400Y-58077600D02*
X12000000Y-56500000D01*
X67950000Y-59000000D02*
X67950000Y-62813900D01*
X80000000Y-8700800D02*
X80000000Y-9401700D01*
X19506500Y-60443500D02*
X11315200Y-60443500D01*
X48000000Y-63050000D02*
X50500000Y-65550000D01*
X77598300Y-31000000D02*
X78598300Y-30000000D01*
X80000000Y-8700800D02*
X71352700Y-8700800D01*
X12000000Y-30500000D02*
X13526700Y-30500000D01*
X10422400Y-59550700D02*
X10422400Y-58077600D01*
X75901700Y-59901700D02*
X78000000Y-62000000D01*
X67500000Y-67948300D02*
X68289100Y-67159200D01*
D27*
%TO.N,Net-(J_AMP-Pin_1)*%
X18000000Y-14000000D02*
X12000000Y-14000000D01*
X10643000Y-17041000D02*
X13602000Y-20000000D01*
X12000000Y-14000000D02*
X10643000Y-15357000D01*
X10643000Y-15357000D02*
X10643000Y-17041000D01*
X13602000Y-20000000D02*
X17087500Y-20000000D01*
%TO.N,Net-(J_AMP-Pin_2)*%
X22145200Y-7883800D02*
X23796300Y-7883800D01*
X20641400Y-6380000D02*
X18000000Y-6380000D01*
X22550000Y-16500000D02*
X23050000Y-16000000D01*
X23087500Y-15962500D02*
X23087500Y-12500000D01*
X23087500Y-12500000D02*
X22145200Y-11557700D01*
X22145200Y-7883800D02*
X20641400Y-6380000D01*
X12000000Y-16500000D02*
X22550000Y-16500000D01*
X22145200Y-11557700D02*
X22145200Y-7883800D01*
X23050000Y-16000000D02*
X23087500Y-15962500D01*
X23796300Y-7883800D02*
X24912500Y-9000000D01*
%TO.N,Net-(J_BUZ-Pin_2)*%
X58888500Y-20430000D02*
X57221600Y-20430000D01*
X57221600Y-20430000D02*
X51087500Y-14295900D01*
X51087500Y-14295900D02*
X51087500Y-12000000D01*
X65246300Y-26787800D02*
X58888500Y-20430000D01*
%TO.N,Net-(J_LEDS-Pin_1)*%
X74165600Y-44921900D02*
X73087500Y-46000000D01*
X80000000Y-46000000D02*
X78921900Y-44921900D01*
X78921900Y-44921900D02*
X74165600Y-44921900D01*
%TO.N,Net-(J_LEDS-Pin_2)*%
X74386900Y-47298300D02*
X80000000Y-47298300D01*
X80000000Y-48500000D02*
X80000000Y-47298300D01*
X73185200Y-48500000D02*
X74386900Y-47298300D01*
X73087500Y-48500000D02*
X73185200Y-48500000D01*
%TO.N,Net-(J_LEDS-Pin_3)*%
X80000000Y-51000000D02*
X80000000Y-49798300D01*
X73087500Y-51000000D02*
X73185200Y-51000000D01*
X73185200Y-51000000D02*
X74386900Y-49798300D01*
X74386900Y-49798300D02*
X80000000Y-49798300D01*
%TD*%
%TA.AperFunction,Conductor*%
%TO.N,GND*%
G36*
X16585930Y-54531580D02*
G01*
X16619923Y-54582454D01*
X16620267Y-54634949D01*
X16587000Y-54759108D01*
X16587000Y-55932456D01*
X16568093Y-55990647D01*
X16525894Y-56023917D01*
X16522156Y-56025465D01*
X16396723Y-56121713D01*
X16396713Y-56121723D01*
X16300462Y-56247160D01*
X16300462Y-56247161D01*
X16239957Y-56393233D01*
X16239955Y-56393241D01*
X16224500Y-56510637D01*
X16224500Y-57114177D01*
X16205593Y-57172368D01*
X16195504Y-57184181D01*
X14909182Y-58470504D01*
X14854665Y-58498281D01*
X14839178Y-58499500D01*
X13278003Y-58499500D01*
X13219812Y-58480593D01*
X13189793Y-58445445D01*
X13151761Y-58370803D01*
X13151760Y-58370801D01*
X13040690Y-58217927D01*
X12907073Y-58084310D01*
X12754199Y-57973240D01*
X12754198Y-57973239D01*
X12754196Y-57973238D01*
X12585832Y-57887453D01*
X12567551Y-57881513D01*
X12451764Y-57843891D01*
X12402265Y-57807928D01*
X12383358Y-57749737D01*
X12402265Y-57691546D01*
X12451765Y-57655582D01*
X12451766Y-57655582D01*
X12585633Y-57612086D01*
X12753936Y-57526332D01*
X12753940Y-57526330D01*
X12906742Y-57415313D01*
X13040313Y-57281742D01*
X13151330Y-57128940D01*
X13151332Y-57128936D01*
X13237085Y-56960635D01*
X13295453Y-56780996D01*
X13308282Y-56700000D01*
X12433013Y-56700000D01*
X12442630Y-56683343D01*
X12475000Y-56562535D01*
X12475000Y-56437465D01*
X12442630Y-56316657D01*
X12433013Y-56300000D01*
X13308281Y-56300000D01*
X13295453Y-56219003D01*
X13237085Y-56039364D01*
X13151332Y-55871063D01*
X13151330Y-55871059D01*
X13040313Y-55718257D01*
X12906742Y-55584686D01*
X12753940Y-55473669D01*
X12753936Y-55473667D01*
X12585231Y-55387709D01*
X12541967Y-55344444D01*
X12532395Y-55284012D01*
X12560172Y-55229496D01*
X12614689Y-55201718D01*
X12630174Y-55200499D01*
X12764360Y-55200499D01*
X12881762Y-55185044D01*
X13027841Y-55124536D01*
X13153282Y-55028282D01*
X13249536Y-54902841D01*
X13310044Y-54756762D01*
X13312701Y-54736578D01*
X13339041Y-54681354D01*
X13392812Y-54652158D01*
X13410854Y-54650500D01*
X16151568Y-54650500D01*
X16151569Y-54650500D01*
X16277244Y-54625501D01*
X16395627Y-54576465D01*
X16469641Y-54527011D01*
X16528526Y-54510403D01*
X16585930Y-54531580D01*
G37*
%TD.AperFunction*%
%TA.AperFunction,Conductor*%
G36*
X31058691Y-11405307D02*
G01*
X31094655Y-11454807D01*
X31099500Y-11485400D01*
X31099500Y-11634484D01*
X31129058Y-11821113D01*
X31187453Y-12000832D01*
X31270748Y-12164310D01*
X31273240Y-12169199D01*
X31384310Y-12322073D01*
X31517927Y-12455690D01*
X31670801Y-12566760D01*
X31839168Y-12652547D01*
X32018882Y-12710940D01*
X32018883Y-12710940D01*
X32018886Y-12710941D01*
X32026954Y-12712219D01*
X32081471Y-12739996D01*
X32109248Y-12794513D01*
X32099677Y-12854945D01*
X32056412Y-12898210D01*
X32026954Y-12907781D01*
X32018886Y-12909058D01*
X31839167Y-12967453D01*
X31670803Y-13053238D01*
X31517928Y-13164309D01*
X31384309Y-13297928D01*
X31273238Y-13450803D01*
X31187453Y-13619167D01*
X31129058Y-13798886D01*
X31099500Y-13985515D01*
X31099500Y-14174484D01*
X31129058Y-14361113D01*
X31187453Y-14540832D01*
X31270748Y-14704310D01*
X31273240Y-14709199D01*
X31384310Y-14862073D01*
X31422059Y-14899822D01*
X31449835Y-14954337D01*
X31440264Y-15014769D01*
X31422058Y-15039828D01*
X28742686Y-17719200D01*
X28742685Y-17719199D01*
X28649500Y-17812385D01*
X28649496Y-17812390D01*
X28583609Y-17926509D01*
X28549500Y-18053809D01*
X28549500Y-22499324D01*
X28530593Y-22557515D01*
X28530156Y-22558111D01*
X28448532Y-22668709D01*
X28448529Y-22668714D01*
X28402434Y-22800446D01*
X28402432Y-22800455D01*
X28399500Y-22831717D01*
X28399500Y-22901678D01*
X28380593Y-22959869D01*
X28370504Y-22971682D01*
X21303682Y-30038504D01*
X21249165Y-30066281D01*
X21233678Y-30067500D01*
X14837992Y-30067500D01*
X14706207Y-30067500D01*
X14636716Y-30086120D01*
X14578909Y-30101609D01*
X14464790Y-30167496D01*
X13376482Y-31255804D01*
X13369364Y-31259430D01*
X13364669Y-31265893D01*
X13342620Y-31273056D01*
X13321965Y-31283581D01*
X13306478Y-31284800D01*
X13232389Y-31284800D01*
X13174198Y-31265893D01*
X13138234Y-31216393D01*
X13138234Y-31155207D01*
X13149782Y-31132546D01*
X13149301Y-31132251D01*
X13151332Y-31128936D01*
X13237085Y-30960635D01*
X13295453Y-30780996D01*
X13308282Y-30700000D01*
X12433013Y-30700000D01*
X12442630Y-30683343D01*
X12475000Y-30562535D01*
X12475000Y-30437465D01*
X12442630Y-30316657D01*
X12433013Y-30300000D01*
X13308281Y-30300000D01*
X13295453Y-30219003D01*
X13237085Y-30039364D01*
X13151332Y-29871063D01*
X13151330Y-29871059D01*
X13040313Y-29718257D01*
X12906742Y-29584686D01*
X12753940Y-29473669D01*
X12753936Y-29473667D01*
X12585231Y-29387709D01*
X12541967Y-29344444D01*
X12532395Y-29284012D01*
X12560172Y-29229496D01*
X12614689Y-29201718D01*
X12630174Y-29200499D01*
X12764360Y-29200499D01*
X12881762Y-29185044D01*
X13027841Y-29124536D01*
X13153282Y-29028282D01*
X13249536Y-28902841D01*
X13310044Y-28756762D01*
X13312701Y-28736578D01*
X13339041Y-28681354D01*
X13392812Y-28652158D01*
X13410854Y-28650500D01*
X16156568Y-28650500D01*
X16214759Y-28669407D01*
X16248032Y-28711614D01*
X16275463Y-28777839D01*
X16275464Y-28777842D01*
X16371439Y-28902919D01*
X16371718Y-28903282D01*
X16497159Y-28999536D01*
X16497160Y-28999536D01*
X16497161Y-28999537D01*
X16615974Y-29048751D01*
X16643238Y-29060044D01*
X16760639Y-29075500D01*
X17339360Y-29075499D01*
X17456762Y-29060044D01*
X17602841Y-28999536D01*
X17728282Y-28903282D01*
X17824536Y-28777841D01*
X17885044Y-28631762D01*
X17900500Y-28514361D01*
X17900499Y-28200001D01*
X18100001Y-28200001D01*
X18100001Y-28514324D01*
X18115443Y-28631629D01*
X18115444Y-28631631D01*
X18175899Y-28777585D01*
X18175901Y-28777589D01*
X18272070Y-28902919D01*
X18272080Y-28902929D01*
X18397410Y-28999098D01*
X18397414Y-28999100D01*
X18543368Y-29059555D01*
X18543369Y-29059556D01*
X18660676Y-29074999D01*
X18750000Y-29074999D01*
X18750000Y-28200001D01*
X19150000Y-28200001D01*
X19150000Y-29074998D01*
X19150001Y-29074999D01*
X19239320Y-29074999D01*
X19239324Y-29074998D01*
X19356629Y-29059556D01*
X19356631Y-29059555D01*
X19502585Y-28999100D01*
X19502589Y-28999098D01*
X19627919Y-28902929D01*
X19627929Y-28902919D01*
X19724098Y-28777589D01*
X19724100Y-28777585D01*
X19784555Y-28631631D01*
X19784556Y-28631630D01*
X19799999Y-28514323D01*
X19800000Y-28514322D01*
X19800000Y-28200001D01*
X19799999Y-28200000D01*
X19150001Y-28200000D01*
X19150000Y-28200001D01*
X18750000Y-28200001D01*
X18749999Y-28200000D01*
X18100002Y-28200000D01*
X18100001Y-28200001D01*
X17900499Y-28200001D01*
X17900499Y-28110452D01*
X17919406Y-28052262D01*
X17929496Y-28040449D01*
X18140950Y-27828996D01*
X18195466Y-27801219D01*
X18210953Y-27800000D01*
X19799998Y-27800000D01*
X19799999Y-27799999D01*
X19799999Y-27485680D01*
X19799998Y-27485675D01*
X19784556Y-27368370D01*
X19784555Y-27368368D01*
X19724100Y-27222414D01*
X19724098Y-27222410D01*
X19627929Y-27097080D01*
X19627919Y-27097070D01*
X19502589Y-27000901D01*
X19502585Y-27000899D01*
X19356631Y-26940444D01*
X19356630Y-26940443D01*
X19266592Y-26928590D01*
X19211367Y-26902249D01*
X19182172Y-26848478D01*
X19190158Y-26787816D01*
X19209505Y-26760439D01*
X20446249Y-25523696D01*
X20500766Y-25495919D01*
X20516253Y-25494700D01*
X23269868Y-25494700D01*
X23269869Y-25494700D01*
X23395544Y-25469701D01*
X23513927Y-25420665D01*
X23551419Y-25395614D01*
X23620469Y-25349477D01*
X25420603Y-23549341D01*
X25450165Y-23530769D01*
X25449726Y-23529938D01*
X25456283Y-23526472D01*
X25456285Y-23526470D01*
X25456289Y-23526469D01*
X25568589Y-23443589D01*
X25651469Y-23331289D01*
X25697409Y-23200000D01*
X26303122Y-23200000D01*
X26348979Y-23331056D01*
X26431765Y-23443227D01*
X26431772Y-23443234D01*
X26543945Y-23526021D01*
X26675546Y-23572070D01*
X26706782Y-23574999D01*
X26750000Y-23574998D01*
X26750000Y-23200001D01*
X27150000Y-23200001D01*
X27150000Y-23574998D01*
X27150001Y-23574999D01*
X27193209Y-23574999D01*
X27224451Y-23572070D01*
X27224456Y-23572069D01*
X27356054Y-23526021D01*
X27468227Y-23443234D01*
X27468234Y-23443227D01*
X27551020Y-23331056D01*
X27596878Y-23200000D01*
X27150001Y-23200000D01*
X27150000Y-23200001D01*
X26750000Y-23200001D01*
X26749999Y-23200000D01*
X26303122Y-23200000D01*
X25697409Y-23200000D01*
X25697567Y-23199549D01*
X25698481Y-23189801D01*
X25699853Y-23175179D01*
X25699853Y-23175178D01*
X25700499Y-23168280D01*
X25700500Y-23168279D01*
X25700500Y-22831721D01*
X25700499Y-22831719D01*
X25699853Y-22824822D01*
X25699853Y-22824821D01*
X25697567Y-22800455D01*
X25697567Y-22800451D01*
X25697409Y-22800000D01*
X26303122Y-22800000D01*
X26749999Y-22800000D01*
X26750000Y-22799999D01*
X26750000Y-22425001D01*
X27150000Y-22425001D01*
X27150000Y-22799999D01*
X27150001Y-22800000D01*
X27596878Y-22800000D01*
X27551020Y-22668943D01*
X27468234Y-22556772D01*
X27468227Y-22556765D01*
X27356054Y-22473978D01*
X27224453Y-22427929D01*
X27193219Y-22425000D01*
X27150001Y-22425000D01*
X27150000Y-22425001D01*
X26750000Y-22425001D01*
X26750000Y-22424999D01*
X26706791Y-22425000D01*
X26675548Y-22427929D01*
X26675543Y-22427930D01*
X26543945Y-22473978D01*
X26431772Y-22556765D01*
X26431765Y-22556772D01*
X26348979Y-22668943D01*
X26303122Y-22800000D01*
X25697409Y-22800000D01*
X25651469Y-22668711D01*
X25568589Y-22556411D01*
X25568584Y-22556407D01*
X25456292Y-22473532D01*
X25456286Y-22473529D01*
X25419154Y-22460536D01*
X25396851Y-22449408D01*
X25358131Y-22423536D01*
X25358121Y-22423531D01*
X25239745Y-22374499D01*
X25114069Y-22349500D01*
X24985931Y-22349500D01*
X24985930Y-22349500D01*
X24860255Y-22374499D01*
X24741879Y-22423531D01*
X24741871Y-22423535D01*
X24703148Y-22449409D01*
X24680847Y-22460536D01*
X24643708Y-22473531D01*
X24531415Y-22556407D01*
X24531408Y-22556414D01*
X24448531Y-22668710D01*
X24445063Y-22675273D01*
X24444233Y-22674834D01*
X24425658Y-22704394D01*
X23725065Y-23404987D01*
X23670548Y-23432764D01*
X23610116Y-23423193D01*
X23566851Y-23379928D01*
X23557280Y-23319496D01*
X23561613Y-23302297D01*
X23597567Y-23199549D01*
X23600499Y-23168281D01*
X23600500Y-23168279D01*
X23600500Y-22831721D01*
X23600499Y-22831717D01*
X23597567Y-22800455D01*
X23597567Y-22800451D01*
X23556056Y-22681819D01*
X23550500Y-22649121D01*
X23550500Y-21086912D01*
X23569407Y-21028721D01*
X23600003Y-21001174D01*
X23602832Y-20999539D01*
X23602841Y-20999536D01*
X23728282Y-20903282D01*
X23824536Y-20777841D01*
X23885044Y-20631762D01*
X23900500Y-20514361D01*
X23900499Y-20200001D01*
X24100001Y-20200001D01*
X24100001Y-20514324D01*
X24115443Y-20631629D01*
X24115444Y-20631631D01*
X24175899Y-20777585D01*
X24175901Y-20777589D01*
X24272070Y-20902919D01*
X24272080Y-20902929D01*
X24397410Y-20999098D01*
X24397414Y-20999100D01*
X24543368Y-21059555D01*
X24543369Y-21059556D01*
X24660676Y-21074999D01*
X24750000Y-21074999D01*
X24750000Y-20200001D01*
X25150000Y-20200001D01*
X25150000Y-21074998D01*
X25150001Y-21074999D01*
X25239320Y-21074999D01*
X25239324Y-21074998D01*
X25356629Y-21059556D01*
X25356631Y-21059555D01*
X25502585Y-20999100D01*
X25502589Y-20999098D01*
X25627919Y-20902929D01*
X25627929Y-20902919D01*
X25724098Y-20777589D01*
X25724100Y-20777585D01*
X25784555Y-20631631D01*
X25784556Y-20631630D01*
X25799999Y-20514323D01*
X25800000Y-20514322D01*
X25800000Y-20200001D01*
X25799999Y-20200000D01*
X25150001Y-20200000D01*
X25150000Y-20200001D01*
X24750000Y-20200001D01*
X24749999Y-20200000D01*
X24100002Y-20200000D01*
X24100001Y-20200001D01*
X23900499Y-20200001D01*
X23900499Y-19999537D01*
X23900499Y-19485676D01*
X24100000Y-19485676D01*
X24100000Y-19799999D01*
X24100001Y-19800000D01*
X24749999Y-19800000D01*
X24750000Y-19799999D01*
X24750000Y-18925001D01*
X25150000Y-18925001D01*
X25150000Y-19799999D01*
X25150001Y-19800000D01*
X25799998Y-19800000D01*
X25799999Y-19799999D01*
X25799999Y-19485680D01*
X25799998Y-19485675D01*
X25784556Y-19368370D01*
X25784555Y-19368368D01*
X25724100Y-19222414D01*
X25724098Y-19222410D01*
X25627929Y-19097080D01*
X25627919Y-19097070D01*
X25502589Y-19000901D01*
X25502585Y-19000899D01*
X25356631Y-18940444D01*
X25356630Y-18940443D01*
X25239323Y-18925000D01*
X25150001Y-18925000D01*
X25150000Y-18925001D01*
X24750000Y-18925001D01*
X24750000Y-18925000D01*
X24660679Y-18925000D01*
X24660674Y-18925001D01*
X24543370Y-18940443D01*
X24543368Y-18940444D01*
X24397414Y-19000899D01*
X24397410Y-19000901D01*
X24272080Y-19097070D01*
X24272070Y-19097080D01*
X24175901Y-19222410D01*
X24175899Y-19222414D01*
X24115444Y-19368368D01*
X24115443Y-19368369D01*
X24100000Y-19485676D01*
X23900499Y-19485676D01*
X23900499Y-19485642D01*
X23900499Y-19485640D01*
X23885044Y-19368238D01*
X23885042Y-19368233D01*
X23824537Y-19222161D01*
X23824537Y-19222160D01*
X23728286Y-19096723D01*
X23728285Y-19096722D01*
X23728282Y-19096718D01*
X23728277Y-19096714D01*
X23728276Y-19096713D01*
X23614007Y-19009032D01*
X23602841Y-19000464D01*
X23602840Y-19000463D01*
X23602838Y-19000462D01*
X23456766Y-18939957D01*
X23456758Y-18939955D01*
X23339361Y-18924500D01*
X22760642Y-18924500D01*
X22760637Y-18924501D01*
X22643241Y-18939955D01*
X22643233Y-18939957D01*
X22497161Y-19000462D01*
X22497160Y-19000462D01*
X22371723Y-19096713D01*
X22371713Y-19096723D01*
X22275462Y-19222160D01*
X22275462Y-19222161D01*
X22214957Y-19368233D01*
X22214955Y-19368241D01*
X22209008Y-19413421D01*
X22182668Y-19468646D01*
X22128897Y-19497842D01*
X22110855Y-19499500D01*
X19860854Y-19499500D01*
X19802663Y-19480593D01*
X19766699Y-19431093D01*
X19762701Y-19413421D01*
X19760044Y-19393241D01*
X19760044Y-19393238D01*
X19749743Y-19368369D01*
X19699537Y-19247161D01*
X19699537Y-19247160D01*
X19603286Y-19121723D01*
X19603285Y-19121722D01*
X19603282Y-19121718D01*
X19603277Y-19121714D01*
X19603276Y-19121713D01*
X19477838Y-19025462D01*
X19331766Y-18964957D01*
X19331758Y-18964955D01*
X19214361Y-18949500D01*
X18610642Y-18949500D01*
X18610637Y-18949501D01*
X18493241Y-18964955D01*
X18493233Y-18964957D01*
X18347161Y-19025462D01*
X18347160Y-19025462D01*
X18221723Y-19121713D01*
X18221713Y-19121723D01*
X18125463Y-19247160D01*
X18091464Y-19329242D01*
X18051727Y-19375767D01*
X17992233Y-19390051D01*
X17935705Y-19366636D01*
X17908536Y-19329242D01*
X17885052Y-19272547D01*
X17874536Y-19247159D01*
X17778282Y-19121718D01*
X17778277Y-19121714D01*
X17778276Y-19121713D01*
X17652838Y-19025462D01*
X17506766Y-18964957D01*
X17506758Y-18964955D01*
X17389361Y-18949500D01*
X16785642Y-18949500D01*
X16785637Y-18949501D01*
X16668241Y-18964955D01*
X16668233Y-18964957D01*
X16522161Y-19025462D01*
X16522160Y-19025462D01*
X16396723Y-19121713D01*
X16396713Y-19121723D01*
X16300462Y-19247160D01*
X16300462Y-19247161D01*
X16239956Y-19393237D01*
X16239955Y-19393238D01*
X16237299Y-19413421D01*
X16210959Y-19468646D01*
X16157188Y-19497842D01*
X16139146Y-19499500D01*
X13850322Y-19499500D01*
X13792131Y-19480593D01*
X13780318Y-19470504D01*
X12179248Y-17869434D01*
X12151471Y-17814917D01*
X12161042Y-17754485D01*
X12204307Y-17711220D01*
X12241499Y-17700734D01*
X12244477Y-17700500D01*
X12244481Y-17700500D01*
X12244484Y-17700499D01*
X12244490Y-17700499D01*
X12431113Y-17670941D01*
X12431114Y-17670940D01*
X12431118Y-17670940D01*
X12610832Y-17612547D01*
X12779199Y-17526760D01*
X12932073Y-17415690D01*
X13065690Y-17282073D01*
X13176760Y-17129199D01*
X13214793Y-17054555D01*
X13258058Y-17011290D01*
X13303003Y-17000500D01*
X22479794Y-17000500D01*
X22517679Y-17008035D01*
X22643238Y-17060044D01*
X22760639Y-17075500D01*
X23339360Y-17075499D01*
X23456762Y-17060044D01*
X23602841Y-16999536D01*
X23728282Y-16903282D01*
X23824536Y-16777841D01*
X23885044Y-16631762D01*
X23900500Y-16514361D01*
X23900499Y-16200001D01*
X24100001Y-16200001D01*
X24100001Y-16514324D01*
X24115443Y-16631629D01*
X24115444Y-16631631D01*
X24175899Y-16777585D01*
X24175901Y-16777589D01*
X24272070Y-16902919D01*
X24272080Y-16902929D01*
X24397410Y-16999098D01*
X24397414Y-16999100D01*
X24543368Y-17059555D01*
X24543369Y-17059556D01*
X24660676Y-17074999D01*
X24750000Y-17074999D01*
X24750000Y-16200001D01*
X25150000Y-16200001D01*
X25150000Y-17074998D01*
X25150001Y-17074999D01*
X25239320Y-17074999D01*
X25239324Y-17074998D01*
X25356629Y-17059556D01*
X25356631Y-17059555D01*
X25502585Y-16999100D01*
X25502589Y-16999098D01*
X25627919Y-16902929D01*
X25627929Y-16902919D01*
X25724098Y-16777589D01*
X25724100Y-16777585D01*
X25784555Y-16631631D01*
X25784556Y-16631630D01*
X25799999Y-16514323D01*
X25800000Y-16514322D01*
X25800000Y-16200001D01*
X25799999Y-16200000D01*
X25150001Y-16200000D01*
X25150000Y-16200001D01*
X24750000Y-16200001D01*
X24749999Y-16200000D01*
X24100002Y-16200000D01*
X24100001Y-16200001D01*
X23900499Y-16200001D01*
X23900499Y-15999500D01*
X23900499Y-15485676D01*
X24100000Y-15485676D01*
X24100000Y-15799999D01*
X24100001Y-15800000D01*
X24749999Y-15800000D01*
X24750000Y-15799999D01*
X24750000Y-14925001D01*
X25150000Y-14925001D01*
X25150000Y-15799999D01*
X25150001Y-15800000D01*
X25799998Y-15800000D01*
X25799999Y-15799999D01*
X25799999Y-15485680D01*
X25799998Y-15485675D01*
X25784556Y-15368370D01*
X25784555Y-15368368D01*
X25724100Y-15222414D01*
X25724098Y-15222410D01*
X25627929Y-15097080D01*
X25627919Y-15097070D01*
X25502589Y-15000901D01*
X25502585Y-15000899D01*
X25356631Y-14940444D01*
X25356630Y-14940443D01*
X25239323Y-14925000D01*
X25150001Y-14925000D01*
X25150000Y-14925001D01*
X24750000Y-14925001D01*
X24750000Y-14925000D01*
X24660679Y-14925000D01*
X24660674Y-14925001D01*
X24543370Y-14940443D01*
X24543368Y-14940444D01*
X24397414Y-15000899D01*
X24397410Y-15000901D01*
X24272080Y-15097070D01*
X24272070Y-15097080D01*
X24175901Y-15222410D01*
X24175899Y-15222414D01*
X24115444Y-15368368D01*
X24115443Y-15368369D01*
X24100000Y-15485676D01*
X23900499Y-15485676D01*
X23900499Y-15485642D01*
X23900499Y-15485640D01*
X23885044Y-15368238D01*
X23853096Y-15291108D01*
X23824537Y-15222161D01*
X23824537Y-15222160D01*
X23728286Y-15096723D01*
X23728285Y-15096722D01*
X23728282Y-15096718D01*
X23649970Y-15036627D01*
X23626732Y-15018796D01*
X23592077Y-14968371D01*
X23588000Y-14940254D01*
X23588000Y-13567543D01*
X23606907Y-13509352D01*
X23649117Y-13476078D01*
X23652841Y-13474536D01*
X23778282Y-13378282D01*
X23874536Y-13252841D01*
X23908807Y-13170104D01*
X23948543Y-13123578D01*
X24008038Y-13109294D01*
X24064566Y-13132709D01*
X24091735Y-13170104D01*
X24125899Y-13252585D01*
X24125901Y-13252589D01*
X24222070Y-13377919D01*
X24222080Y-13377929D01*
X24347410Y-13474098D01*
X24347414Y-13474100D01*
X24493368Y-13534555D01*
X24493369Y-13534556D01*
X24610676Y-13549999D01*
X24712500Y-13549999D01*
X24712500Y-12700001D01*
X25112500Y-12700001D01*
X25112500Y-13549998D01*
X25112501Y-13549999D01*
X25214320Y-13549999D01*
X25214324Y-13549998D01*
X25331629Y-13534556D01*
X25331631Y-13534555D01*
X25477585Y-13474100D01*
X25477589Y-13474098D01*
X25602919Y-13377929D01*
X25602929Y-13377919D01*
X25699098Y-13252589D01*
X25699100Y-13252585D01*
X25759555Y-13106631D01*
X25759556Y-13106630D01*
X25774999Y-12989323D01*
X25775000Y-12989322D01*
X25775000Y-12700001D01*
X25774999Y-12700000D01*
X25112501Y-12700000D01*
X25112500Y-12700001D01*
X24712500Y-12700001D01*
X24712500Y-12599000D01*
X24731407Y-12540809D01*
X24780907Y-12504845D01*
X24811500Y-12500000D01*
X24912499Y-12500000D01*
X24912500Y-12499999D01*
X24912500Y-12399000D01*
X24931407Y-12340809D01*
X24980907Y-12304845D01*
X25011500Y-12300000D01*
X25774998Y-12300000D01*
X25774999Y-12299999D01*
X25774999Y-12010680D01*
X25774998Y-12010675D01*
X25759556Y-11893370D01*
X25759555Y-11893368D01*
X25699100Y-11747414D01*
X25699098Y-11747410D01*
X25602929Y-11622080D01*
X25602919Y-11622070D01*
X25527165Y-11563942D01*
X25492509Y-11513517D01*
X25494111Y-11452353D01*
X25531358Y-11403811D01*
X25587432Y-11386400D01*
X31000500Y-11386400D01*
X31058691Y-11405307D01*
G37*
%TD.AperFunction*%
%TA.AperFunction,Conductor*%
G36*
X89458691Y-519407D02*
G01*
X89494655Y-568907D01*
X89499500Y-599500D01*
X89499500Y-74400500D01*
X89480593Y-74458691D01*
X89431093Y-74494655D01*
X89400500Y-74499500D01*
X599500Y-74499500D01*
X541309Y-74480593D01*
X505345Y-74431093D01*
X500500Y-74400500D01*
X500500Y-70378710D01*
X2649500Y-70378710D01*
X2649500Y-70621289D01*
X2681161Y-70861781D01*
X2681161Y-70861786D01*
X2743944Y-71096092D01*
X2743948Y-71096105D01*
X2836772Y-71320204D01*
X2836774Y-71320208D01*
X2836776Y-71320212D01*
X2958064Y-71530289D01*
X2958066Y-71530292D01*
X3105729Y-71722731D01*
X3105731Y-71722733D01*
X3105735Y-71722738D01*
X3277262Y-71894265D01*
X3277266Y-71894268D01*
X3277268Y-71894270D01*
X3469707Y-72041933D01*
X3469711Y-72041936D01*
X3679788Y-72163224D01*
X3903900Y-72256054D01*
X4138211Y-72318838D01*
X4378712Y-72350500D01*
X4378713Y-72350500D01*
X4621287Y-72350500D01*
X4621288Y-72350500D01*
X4861789Y-72318838D01*
X5096100Y-72256054D01*
X5320212Y-72163224D01*
X5530289Y-72041936D01*
X5722738Y-71894265D01*
X5894265Y-71722738D01*
X6041936Y-71530289D01*
X6163224Y-71320212D01*
X6256054Y-71096100D01*
X6318838Y-70861789D01*
X6350500Y-70621288D01*
X6350500Y-70378712D01*
X6318838Y-70138211D01*
X6256054Y-69903900D01*
X6178391Y-69716406D01*
X6163227Y-69679795D01*
X6163226Y-69679794D01*
X6163224Y-69679788D01*
X6041936Y-69469711D01*
X5917089Y-69307007D01*
X5894270Y-69277268D01*
X5894268Y-69277266D01*
X5894265Y-69277262D01*
X5722738Y-69105735D01*
X5722733Y-69105731D01*
X5722731Y-69105729D01*
X5530292Y-68958066D01*
X5503511Y-68942604D01*
X5320212Y-68836776D01*
X5320208Y-68836774D01*
X5320204Y-68836772D01*
X5096105Y-68743948D01*
X5096104Y-68743947D01*
X5096100Y-68743946D01*
X4861789Y-68681162D01*
X4861786Y-68681161D01*
X4861784Y-68681161D01*
X4621289Y-68649500D01*
X4621288Y-68649500D01*
X4378712Y-68649500D01*
X4378710Y-68649500D01*
X4138218Y-68681161D01*
X4138213Y-68681161D01*
X3903907Y-68743944D01*
X3903894Y-68743948D01*
X3679795Y-68836772D01*
X3469707Y-68958066D01*
X3277268Y-69105729D01*
X3105729Y-69277268D01*
X2958066Y-69469707D01*
X2836772Y-69679795D01*
X2743948Y-69903894D01*
X2743944Y-69903907D01*
X2681161Y-70138213D01*
X2681161Y-70138218D01*
X2649500Y-70378710D01*
X500500Y-70378710D01*
X500500Y-64660637D01*
X41924500Y-64660637D01*
X41924500Y-65239357D01*
X41924501Y-65239362D01*
X41939955Y-65356758D01*
X41939957Y-65356766D01*
X42000462Y-65502838D01*
X42000462Y-65502839D01*
X42096713Y-65628276D01*
X42096718Y-65628282D01*
X42222159Y-65724536D01*
X42222160Y-65724536D01*
X42222161Y-65724537D01*
X42345192Y-65775498D01*
X42368238Y-65785044D01*
X42485639Y-65800500D01*
X43514360Y-65800499D01*
X43631762Y-65785044D01*
X43777841Y-65724536D01*
X43903282Y-65628282D01*
X43903281Y-65628282D01*
X43908430Y-65624332D01*
X43909490Y-65625713D01*
X43956584Y-65601719D01*
X43972071Y-65600500D01*
X47027929Y-65600500D01*
X47086120Y-65619407D01*
X47094687Y-65626723D01*
X47096716Y-65628280D01*
X47096718Y-65628282D01*
X47160077Y-65676899D01*
X47222157Y-65724535D01*
X47222158Y-65724535D01*
X47222159Y-65724536D01*
X47288386Y-65751968D01*
X47334911Y-65791703D01*
X47349500Y-65843431D01*
X47349500Y-68064145D01*
X47330593Y-68122336D01*
X47281093Y-68158300D01*
X47263425Y-68162298D01*
X47247761Y-68164360D01*
X47243238Y-68164956D01*
X47243237Y-68164956D01*
X47243233Y-68164957D01*
X47097161Y-68225462D01*
X47097160Y-68225462D01*
X46971723Y-68321713D01*
X46971713Y-68321723D01*
X46875462Y-68447160D01*
X46875462Y-68447161D01*
X46814957Y-68593233D01*
X46814955Y-68593241D01*
X46799500Y-68710637D01*
X46799500Y-70289357D01*
X46799501Y-70289362D01*
X46814955Y-70406758D01*
X46814957Y-70406766D01*
X46875462Y-70552838D01*
X46875462Y-70552839D01*
X46971713Y-70678276D01*
X46971718Y-70678282D01*
X47097159Y-70774536D01*
X47243238Y-70835044D01*
X47360639Y-70850500D01*
X48639360Y-70850499D01*
X48756762Y-70835044D01*
X48902841Y-70774536D01*
X49028282Y-70678282D01*
X49124536Y-70552841D01*
X49185044Y-70406762D01*
X49200500Y-70289361D01*
X49200499Y-70155176D01*
X49219406Y-70096988D01*
X49268906Y-70061024D01*
X49330091Y-70061023D01*
X49379591Y-70096987D01*
X49387709Y-70110233D01*
X49473667Y-70278936D01*
X49473669Y-70278940D01*
X49584686Y-70431742D01*
X49718257Y-70565313D01*
X49871059Y-70676330D01*
X49871063Y-70676332D01*
X50039364Y-70762085D01*
X50219003Y-70820453D01*
X50300000Y-70833281D01*
X50300000Y-69961879D01*
X50307007Y-69965925D01*
X50434174Y-70000000D01*
X50565826Y-70000000D01*
X50692993Y-69965925D01*
X50700000Y-69961879D01*
X50700000Y-70833280D01*
X50780996Y-70820453D01*
X50960635Y-70762085D01*
X51128936Y-70676332D01*
X51128940Y-70676330D01*
X51281742Y-70565313D01*
X51415313Y-70431742D01*
X51526330Y-70278940D01*
X51526332Y-70278936D01*
X51612085Y-70110635D01*
X51670453Y-69930996D01*
X51700000Y-69744445D01*
X51700000Y-69700001D01*
X51699999Y-69700000D01*
X50961880Y-69700000D01*
X50965925Y-69692993D01*
X51000000Y-69565826D01*
X51000000Y-69434174D01*
X50965925Y-69307007D01*
X50961880Y-69300000D01*
X51699999Y-69300000D01*
X51700000Y-69299999D01*
X51700000Y-69255554D01*
X51670453Y-69069003D01*
X51612085Y-68889364D01*
X51526332Y-68721063D01*
X51526330Y-68721059D01*
X51415313Y-68568257D01*
X51281742Y-68434686D01*
X51128940Y-68323669D01*
X51128936Y-68323667D01*
X50960635Y-68237914D01*
X50780997Y-68179547D01*
X50700000Y-68166717D01*
X50700000Y-69038120D01*
X50692993Y-69034075D01*
X50565826Y-69000000D01*
X50434174Y-69000000D01*
X50307007Y-69034075D01*
X50300000Y-69038120D01*
X50300000Y-68166718D01*
X50299999Y-68166717D01*
X50219002Y-68179547D01*
X50039364Y-68237914D01*
X49871063Y-68323667D01*
X49871059Y-68323669D01*
X49718257Y-68434686D01*
X49584686Y-68568257D01*
X49473669Y-68721059D01*
X49473667Y-68721063D01*
X49387709Y-68889768D01*
X49344444Y-68933033D01*
X49284012Y-68942604D01*
X49229496Y-68914827D01*
X49201718Y-68860310D01*
X49200499Y-68844823D01*
X49200499Y-68710642D01*
X49200499Y-68710640D01*
X49185044Y-68593238D01*
X49124537Y-68447161D01*
X49124537Y-68447160D01*
X49028286Y-68321723D01*
X49028285Y-68321722D01*
X49028282Y-68321718D01*
X49028277Y-68321714D01*
X49028276Y-68321713D01*
X48902838Y-68225462D01*
X48756762Y-68164956D01*
X48756764Y-68164956D01*
X48736575Y-68162298D01*
X48681351Y-68135955D01*
X48652157Y-68082184D01*
X48650500Y-68064145D01*
X48650500Y-65843431D01*
X48669407Y-65785240D01*
X48711613Y-65751968D01*
X48777841Y-65724536D01*
X48903282Y-65628282D01*
X48999536Y-65502841D01*
X49060044Y-65356762D01*
X49075500Y-65239361D01*
X49075499Y-64660640D01*
X49060044Y-64543238D01*
X48999537Y-64397161D01*
X48999537Y-64397160D01*
X48903286Y-64271723D01*
X48903285Y-64271722D01*
X48903282Y-64271718D01*
X48903277Y-64271714D01*
X48903276Y-64271713D01*
X48777838Y-64175462D01*
X48631766Y-64114957D01*
X48631758Y-64114955D01*
X48514361Y-64099500D01*
X47485642Y-64099500D01*
X47485637Y-64099501D01*
X47368241Y-64114955D01*
X47368233Y-64114957D01*
X47222161Y-64175462D01*
X47222160Y-64175462D01*
X47091570Y-64275668D01*
X47090509Y-64274286D01*
X47043416Y-64298281D01*
X47027929Y-64299500D01*
X43972071Y-64299500D01*
X43913880Y-64280593D01*
X43905312Y-64273276D01*
X43838120Y-64221718D01*
X43777841Y-64175464D01*
X43777840Y-64175463D01*
X43777838Y-64175462D01*
X43631766Y-64114957D01*
X43631758Y-64114955D01*
X43514361Y-64099500D01*
X42485642Y-64099500D01*
X42485637Y-64099501D01*
X42368241Y-64114955D01*
X42368233Y-64114957D01*
X42222161Y-64175462D01*
X42222160Y-64175462D01*
X42096723Y-64271713D01*
X42096713Y-64271723D01*
X42000462Y-64397160D01*
X42000462Y-64397161D01*
X41939957Y-64543233D01*
X41939955Y-64543241D01*
X41924500Y-64660637D01*
X500500Y-64660637D01*
X500500Y-27023708D01*
X10114300Y-27023708D01*
X10114300Y-31004808D01*
X10114300Y-31136592D01*
X10136356Y-31218906D01*
X10148409Y-31263890D01*
X10214296Y-31378009D01*
X10214297Y-31378010D01*
X10214298Y-31378011D01*
X10214300Y-31378014D01*
X10588901Y-31752615D01*
X10939457Y-32103171D01*
X10967234Y-32157688D01*
X10957663Y-32218120D01*
X10949546Y-32231366D01*
X10848238Y-32370803D01*
X10762453Y-32539167D01*
X10704058Y-32718886D01*
X10674500Y-32905515D01*
X10674500Y-33094484D01*
X10704058Y-33281113D01*
X10762453Y-33460832D01*
X10844058Y-33620993D01*
X10848240Y-33629199D01*
X10959310Y-33782073D01*
X11092927Y-33915690D01*
X11245801Y-34026760D01*
X11414168Y-34112547D01*
X11516667Y-34145851D01*
X11547425Y-34155845D01*
X11596925Y-34191809D01*
X11615832Y-34250000D01*
X11596925Y-34308191D01*
X11547425Y-34344155D01*
X11414167Y-34387453D01*
X11245803Y-34473238D01*
X11092928Y-34584309D01*
X10959309Y-34717928D01*
X10848238Y-34870803D01*
X10762453Y-35039167D01*
X10704058Y-35218886D01*
X10674500Y-35405515D01*
X10674500Y-35594484D01*
X10704058Y-35781113D01*
X10762453Y-35960832D01*
X10842615Y-36118161D01*
X10848240Y-36129199D01*
X10959310Y-36282073D01*
X11092927Y-36415690D01*
X11245801Y-36526760D01*
X11414168Y-36612547D01*
X11547425Y-36655845D01*
X11596925Y-36691809D01*
X11615832Y-36750000D01*
X11596925Y-36808191D01*
X11547425Y-36844155D01*
X11414167Y-36887453D01*
X11245803Y-36973238D01*
X11092928Y-37084309D01*
X10959309Y-37217928D01*
X10848238Y-37370803D01*
X10762453Y-37539167D01*
X10704058Y-37718886D01*
X10674500Y-37905515D01*
X10674500Y-38094484D01*
X10704058Y-38281113D01*
X10762453Y-38460832D01*
X10815177Y-38564310D01*
X10848240Y-38629199D01*
X10959310Y-38782073D01*
X11092927Y-38915690D01*
X11245801Y-39026760D01*
X11414168Y-39112547D01*
X11547425Y-39155845D01*
X11596925Y-39191809D01*
X11615832Y-39250000D01*
X11596925Y-39308191D01*
X11547425Y-39344155D01*
X11414167Y-39387453D01*
X11245803Y-39473238D01*
X11092928Y-39584309D01*
X10959309Y-39717928D01*
X10848238Y-39870803D01*
X10762453Y-40039167D01*
X10704058Y-40218886D01*
X10674500Y-40405515D01*
X10674500Y-40594484D01*
X10704058Y-40781113D01*
X10762453Y-40960832D01*
X10835682Y-41104554D01*
X10848240Y-41129199D01*
X10959310Y-41282073D01*
X11092927Y-41415690D01*
X11245801Y-41526760D01*
X11414168Y-41612547D01*
X11547425Y-41655845D01*
X11596925Y-41691809D01*
X11615832Y-41750000D01*
X11596925Y-41808191D01*
X11547425Y-41844155D01*
X11414167Y-41887453D01*
X11245803Y-41973238D01*
X11092928Y-42084309D01*
X10959309Y-42217928D01*
X10848238Y-42370803D01*
X10762453Y-42539167D01*
X10704058Y-42718886D01*
X10674500Y-42905515D01*
X10674500Y-43094484D01*
X10704058Y-43281113D01*
X10762453Y-43460832D01*
X10836809Y-43606766D01*
X10848240Y-43629199D01*
X10959310Y-43782073D01*
X11092927Y-43915690D01*
X11245801Y-44026760D01*
X11414168Y-44112547D01*
X11547425Y-44155845D01*
X11596925Y-44191809D01*
X11615832Y-44250000D01*
X11596925Y-44308191D01*
X11547425Y-44344155D01*
X11414167Y-44387453D01*
X11245803Y-44473238D01*
X11092928Y-44584309D01*
X10959309Y-44717928D01*
X10848238Y-44870803D01*
X10762453Y-45039167D01*
X10704058Y-45218886D01*
X10674500Y-45405515D01*
X10674500Y-45594484D01*
X10704058Y-45781113D01*
X10762453Y-45960832D01*
X10819727Y-46073240D01*
X10848240Y-46129199D01*
X10959310Y-46282073D01*
X11092927Y-46415690D01*
X11245801Y-46526760D01*
X11414168Y-46612547D01*
X11593882Y-46670940D01*
X11593883Y-46670940D01*
X11593886Y-46670941D01*
X11780516Y-46700500D01*
X11780519Y-46700500D01*
X12219484Y-46700500D01*
X12406113Y-46670941D01*
X12406114Y-46670940D01*
X12406118Y-46670940D01*
X12585832Y-46612547D01*
X12754199Y-46526760D01*
X12907073Y-46415690D01*
X13040690Y-46282073D01*
X13151760Y-46129199D01*
X13189793Y-46054555D01*
X13233058Y-46011290D01*
X13278003Y-46000500D01*
X13392590Y-46000500D01*
X13392592Y-46000500D01*
X13519886Y-45966392D01*
X13519888Y-45966390D01*
X13519890Y-45966390D01*
X13634009Y-45900503D01*
X13634009Y-45900502D01*
X13634014Y-45900500D01*
X13727200Y-45807314D01*
X13793092Y-45693186D01*
X13827200Y-45565892D01*
X13827200Y-44347021D01*
X13846107Y-44288830D01*
X13856190Y-44277023D01*
X18055498Y-40077714D01*
X18110013Y-40049939D01*
X18170445Y-40059510D01*
X18213710Y-40102775D01*
X18224500Y-40147720D01*
X18224500Y-40489357D01*
X18224501Y-40489362D01*
X18239955Y-40606758D01*
X18239957Y-40606766D01*
X18300462Y-40752838D01*
X18300462Y-40752839D01*
X18374295Y-40849060D01*
X18396718Y-40878282D01*
X18398263Y-40879467D01*
X18399051Y-40880614D01*
X18401307Y-40882870D01*
X18400889Y-40883287D01*
X18432921Y-40929887D01*
X18437000Y-40958012D01*
X18437000Y-42041987D01*
X18418093Y-42100178D01*
X18398271Y-42120526D01*
X18396723Y-42121713D01*
X18396713Y-42121723D01*
X18300462Y-42247160D01*
X18300462Y-42247161D01*
X18239957Y-42393233D01*
X18239955Y-42393241D01*
X18224500Y-42510637D01*
X18224500Y-42902046D01*
X18205593Y-42960237D01*
X18195504Y-42972050D01*
X16582220Y-44585334D01*
X16522643Y-44674500D01*
X16522642Y-44674499D01*
X16511035Y-44691870D01*
X16462000Y-44810252D01*
X16461999Y-44810257D01*
X16437000Y-44935930D01*
X16437000Y-52041987D01*
X16418093Y-52100178D01*
X16398271Y-52120526D01*
X16396723Y-52121713D01*
X16396713Y-52121723D01*
X16300462Y-52247160D01*
X16300462Y-52247161D01*
X16239957Y-52393233D01*
X16239955Y-52393241D01*
X16224500Y-52510637D01*
X16224500Y-52902046D01*
X16205593Y-52960237D01*
X16195504Y-52972049D01*
X15847051Y-53320503D01*
X15792534Y-53348281D01*
X15777047Y-53349500D01*
X13410854Y-53349500D01*
X13352663Y-53330593D01*
X13316699Y-53281093D01*
X13312701Y-53263421D01*
X13310044Y-53243241D01*
X13310044Y-53243238D01*
X13249537Y-53097161D01*
X13249537Y-53097160D01*
X13153286Y-52971723D01*
X13153285Y-52971722D01*
X13153282Y-52971718D01*
X13153277Y-52971714D01*
X13153276Y-52971713D01*
X13027838Y-52875462D01*
X12881766Y-52814957D01*
X12881758Y-52814955D01*
X12764361Y-52799500D01*
X11235642Y-52799500D01*
X11235637Y-52799501D01*
X11118241Y-52814955D01*
X11118233Y-52814957D01*
X10972161Y-52875462D01*
X10972160Y-52875462D01*
X10846723Y-52971713D01*
X10846713Y-52971723D01*
X10750462Y-53097160D01*
X10750462Y-53097161D01*
X10689957Y-53243233D01*
X10689955Y-53243241D01*
X10674500Y-53360637D01*
X10674500Y-54639357D01*
X10674501Y-54639362D01*
X10689955Y-54756758D01*
X10689957Y-54756766D01*
X10750462Y-54902838D01*
X10750462Y-54902839D01*
X10836626Y-55015130D01*
X10846718Y-55028282D01*
X10846722Y-55028285D01*
X10846723Y-55028286D01*
X10876082Y-55050813D01*
X10972159Y-55124536D01*
X11118238Y-55185044D01*
X11235639Y-55200500D01*
X11369822Y-55200499D01*
X11428011Y-55219406D01*
X11463975Y-55268906D01*
X11463976Y-55330091D01*
X11428012Y-55379591D01*
X11414766Y-55387709D01*
X11246063Y-55473667D01*
X11246059Y-55473669D01*
X11093257Y-55584686D01*
X10959686Y-55718257D01*
X10848669Y-55871059D01*
X10848667Y-55871063D01*
X10762914Y-56039364D01*
X10704546Y-56219003D01*
X10691718Y-56300000D01*
X11566987Y-56300000D01*
X11557370Y-56316657D01*
X11525000Y-56437465D01*
X11525000Y-56562535D01*
X11557370Y-56683343D01*
X11566987Y-56700000D01*
X10691718Y-56700000D01*
X10704546Y-56780996D01*
X10762914Y-56960635D01*
X10848667Y-57128936D01*
X10848669Y-57128940D01*
X10959686Y-57281742D01*
X11093257Y-57415313D01*
X11246059Y-57526330D01*
X11246063Y-57526332D01*
X11414364Y-57612085D01*
X11548234Y-57655582D01*
X11597734Y-57691546D01*
X11616641Y-57749737D01*
X11597734Y-57807928D01*
X11548234Y-57843892D01*
X11414167Y-57887453D01*
X11245803Y-57973238D01*
X11092928Y-58084309D01*
X10959309Y-58217928D01*
X10848238Y-58370803D01*
X10762453Y-58539167D01*
X10704058Y-58718886D01*
X10674500Y-58905515D01*
X10674500Y-59094484D01*
X10704058Y-59281113D01*
X10762453Y-59460832D01*
X10816899Y-59567690D01*
X10848240Y-59629199D01*
X10959310Y-59782073D01*
X11092927Y-59915690D01*
X11245801Y-60026760D01*
X11414168Y-60112547D01*
X11593882Y-60170940D01*
X11593883Y-60170940D01*
X11593886Y-60170941D01*
X11780516Y-60200500D01*
X11780519Y-60200500D01*
X12219484Y-60200500D01*
X12406113Y-60170941D01*
X12406114Y-60170940D01*
X12406118Y-60170940D01*
X12585832Y-60112547D01*
X12754199Y-60026760D01*
X12907073Y-59915690D01*
X13040690Y-59782073D01*
X13151760Y-59629199D01*
X13189793Y-59554555D01*
X13233058Y-59511290D01*
X13278003Y-59500500D01*
X15153390Y-59500500D01*
X15153392Y-59500500D01*
X15280686Y-59466392D01*
X15280688Y-59466390D01*
X15280690Y-59466390D01*
X15394809Y-59400503D01*
X15394809Y-59400502D01*
X15394814Y-59400500D01*
X16715819Y-58079493D01*
X16770334Y-58051718D01*
X16785808Y-58050499D01*
X17389360Y-58050499D01*
X17506762Y-58035044D01*
X17652841Y-57974536D01*
X17778282Y-57878282D01*
X17874536Y-57752841D01*
X17908536Y-57670758D01*
X17948272Y-57624232D01*
X18007767Y-57609948D01*
X18064295Y-57633362D01*
X18091464Y-57670758D01*
X18125462Y-57752838D01*
X18125462Y-57752839D01*
X18221713Y-57878276D01*
X18221718Y-57878282D01*
X18221722Y-57878285D01*
X18221723Y-57878286D01*
X18249900Y-57899907D01*
X18347159Y-57974536D01*
X18347160Y-57974536D01*
X18347161Y-57974537D01*
X18493233Y-58035042D01*
X18493238Y-58035044D01*
X18610639Y-58050500D01*
X19214360Y-58050499D01*
X19331762Y-58035044D01*
X19477841Y-57974536D01*
X19603282Y-57878282D01*
X19699536Y-57752841D01*
X19760044Y-57606762D01*
X19762701Y-57586578D01*
X19789041Y-57531354D01*
X19842812Y-57502158D01*
X19860854Y-57500500D01*
X20110855Y-57500500D01*
X20169046Y-57519407D01*
X20205010Y-57568907D01*
X20209008Y-57586579D01*
X20214955Y-57631758D01*
X20214957Y-57631766D01*
X20275462Y-57777838D01*
X20275462Y-57777839D01*
X20369128Y-57899907D01*
X20371718Y-57903282D01*
X20497159Y-57999536D01*
X20497160Y-57999536D01*
X20497161Y-57999537D01*
X20619149Y-58050066D01*
X20643238Y-58060044D01*
X20760639Y-58075500D01*
X21339360Y-58075499D01*
X21456762Y-58060044D01*
X21602841Y-57999536D01*
X21728282Y-57903282D01*
X21824536Y-57777841D01*
X21885044Y-57631762D01*
X21900500Y-57514361D01*
X21900499Y-57200001D01*
X22100001Y-57200001D01*
X22100001Y-57514324D01*
X22115443Y-57631629D01*
X22115444Y-57631631D01*
X22175899Y-57777585D01*
X22175901Y-57777589D01*
X22272070Y-57902919D01*
X22272080Y-57902929D01*
X22397410Y-57999098D01*
X22397414Y-57999100D01*
X22543368Y-58059555D01*
X22543369Y-58059556D01*
X22660676Y-58074999D01*
X22750000Y-58074999D01*
X22750000Y-57200001D01*
X23150000Y-57200001D01*
X23150000Y-58074998D01*
X23150001Y-58074999D01*
X23239320Y-58074999D01*
X23239324Y-58074998D01*
X23356629Y-58059556D01*
X23356631Y-58059555D01*
X23502585Y-57999100D01*
X23502589Y-57999098D01*
X23627919Y-57902929D01*
X23627929Y-57902919D01*
X23724098Y-57777589D01*
X23724100Y-57777585D01*
X23784555Y-57631631D01*
X23784556Y-57631630D01*
X23799999Y-57514323D01*
X23800000Y-57514322D01*
X23800000Y-57200001D01*
X23799999Y-57200000D01*
X23150001Y-57200000D01*
X23150000Y-57200001D01*
X22750000Y-57200001D01*
X22749999Y-57200000D01*
X22100002Y-57200000D01*
X22100001Y-57200001D01*
X21900499Y-57200001D01*
X21900499Y-56997516D01*
X21900499Y-56485676D01*
X22100000Y-56485676D01*
X22100000Y-56799999D01*
X22100001Y-56800000D01*
X22749999Y-56800000D01*
X22750000Y-56799999D01*
X22750000Y-55925001D01*
X23150000Y-55925001D01*
X23150000Y-56799999D01*
X23150001Y-56800000D01*
X23799998Y-56800000D01*
X23799999Y-56799999D01*
X23799999Y-56485680D01*
X23799998Y-56485675D01*
X23784556Y-56368370D01*
X23784555Y-56368368D01*
X23724100Y-56222414D01*
X23724098Y-56222410D01*
X23627929Y-56097080D01*
X23627919Y-56097070D01*
X23502589Y-56000901D01*
X23502585Y-56000899D01*
X23356631Y-55940444D01*
X23356630Y-55940443D01*
X23239323Y-55925000D01*
X23150001Y-55925000D01*
X23150000Y-55925001D01*
X22750000Y-55925001D01*
X22750000Y-55925000D01*
X22660679Y-55925000D01*
X22660674Y-55925001D01*
X22543370Y-55940443D01*
X22543368Y-55940444D01*
X22397414Y-56000899D01*
X22397410Y-56000901D01*
X22272080Y-56097070D01*
X22272070Y-56097080D01*
X22175901Y-56222410D01*
X22175899Y-56222414D01*
X22115444Y-56368368D01*
X22115443Y-56368369D01*
X22100000Y-56485676D01*
X21900499Y-56485676D01*
X21900499Y-56485642D01*
X21900499Y-56485640D01*
X21885044Y-56368238D01*
X21885042Y-56368233D01*
X21824537Y-56222161D01*
X21824537Y-56222160D01*
X21728286Y-56096723D01*
X21728285Y-56096722D01*
X21728282Y-56096718D01*
X21728277Y-56096714D01*
X21728276Y-56096713D01*
X21602839Y-56000462D01*
X21599992Y-55998818D01*
X21598417Y-55997069D01*
X21597694Y-55996514D01*
X21597796Y-55996379D01*
X21559055Y-55953345D01*
X21550500Y-55913086D01*
X21550500Y-53518322D01*
X21569407Y-53460131D01*
X21579496Y-53448318D01*
X30385596Y-44642218D01*
X30440113Y-44614441D01*
X30500545Y-44624012D01*
X30543810Y-44667277D01*
X30554600Y-44712222D01*
X30554600Y-52630108D01*
X30554600Y-52761892D01*
X30568819Y-52814957D01*
X30588709Y-52889190D01*
X30654596Y-53003309D01*
X30654598Y-53003311D01*
X30654600Y-53003314D01*
X31351698Y-53700411D01*
X31351700Y-53700414D01*
X31416759Y-53765473D01*
X31444535Y-53819988D01*
X31434964Y-53880420D01*
X31416759Y-53905478D01*
X31384309Y-53937928D01*
X31273238Y-54090803D01*
X31187453Y-54259167D01*
X31129058Y-54438886D01*
X31099500Y-54625515D01*
X31099500Y-54814484D01*
X31129058Y-55001113D01*
X31187453Y-55180832D01*
X31240025Y-55284012D01*
X31273240Y-55349199D01*
X31384310Y-55502073D01*
X31517927Y-55635690D01*
X31670801Y-55746760D01*
X31839168Y-55832547D01*
X32018882Y-55890940D01*
X32018883Y-55890940D01*
X32018886Y-55890941D01*
X32026954Y-55892219D01*
X32081471Y-55919996D01*
X32109248Y-55974513D01*
X32099677Y-56034945D01*
X32056412Y-56078210D01*
X32026954Y-56087781D01*
X32018886Y-56089058D01*
X31839167Y-56147453D01*
X31670803Y-56233238D01*
X31517928Y-56344309D01*
X31384309Y-56477928D01*
X31273238Y-56630803D01*
X31187453Y-56799167D01*
X31129058Y-56978886D01*
X31099500Y-57165515D01*
X31099500Y-57354484D01*
X31129058Y-57541113D01*
X31187453Y-57720832D01*
X31269323Y-57881513D01*
X31273240Y-57889199D01*
X31384310Y-58042073D01*
X31517927Y-58175690D01*
X31670801Y-58286760D01*
X31839168Y-58372547D01*
X32018882Y-58430940D01*
X32018883Y-58430940D01*
X32018886Y-58430941D01*
X32026954Y-58432219D01*
X32081471Y-58459996D01*
X32109248Y-58514513D01*
X32099677Y-58574945D01*
X32056412Y-58618210D01*
X32026954Y-58627781D01*
X32018886Y-58629058D01*
X31839167Y-58687453D01*
X31670803Y-58773238D01*
X31517928Y-58884309D01*
X31384309Y-59017928D01*
X31273238Y-59170803D01*
X31187453Y-59339167D01*
X31129058Y-59518886D01*
X31099500Y-59705515D01*
X31099500Y-59894484D01*
X31129058Y-60081113D01*
X31167850Y-60200500D01*
X31187453Y-60260832D01*
X31273240Y-60429199D01*
X31384310Y-60582073D01*
X31517927Y-60715690D01*
X31670801Y-60826760D01*
X31839168Y-60912547D01*
X32018882Y-60970940D01*
X32018885Y-60970940D01*
X32018887Y-60970941D01*
X32028551Y-60972472D01*
X32083068Y-61000248D01*
X32110847Y-61054764D01*
X32101276Y-61115196D01*
X32058013Y-61158462D01*
X32028555Y-61168034D01*
X32019001Y-61169547D01*
X31839364Y-61227914D01*
X31671063Y-61313667D01*
X31671059Y-61313669D01*
X31604715Y-61361871D01*
X32114824Y-61871980D01*
X32107007Y-61874075D01*
X31992993Y-61939901D01*
X31899901Y-62032993D01*
X31834075Y-62147007D01*
X31831980Y-62154824D01*
X31321871Y-61644715D01*
X31273669Y-61711059D01*
X31273667Y-61711063D01*
X31187914Y-61879364D01*
X31129546Y-62059003D01*
X31100000Y-62245554D01*
X31100000Y-62434445D01*
X31129546Y-62620996D01*
X31187914Y-62800635D01*
X31273667Y-62968936D01*
X31273671Y-62968942D01*
X31321871Y-63035283D01*
X31831979Y-62525174D01*
X31834075Y-62532993D01*
X31899901Y-62647007D01*
X31992993Y-62740099D01*
X32107007Y-62805925D01*
X32114822Y-62808019D01*
X31604715Y-63318126D01*
X31604715Y-63318127D01*
X31671057Y-63366328D01*
X31671063Y-63366332D01*
X31839364Y-63452085D01*
X32019003Y-63510453D01*
X32205555Y-63540000D01*
X32394445Y-63540000D01*
X32580996Y-63510453D01*
X32760635Y-63452085D01*
X32928939Y-63366330D01*
X32995283Y-63318127D01*
X32927157Y-63250001D01*
X41925001Y-63250001D01*
X41925001Y-63339324D01*
X41940443Y-63456629D01*
X41940444Y-63456631D01*
X42000899Y-63602585D01*
X42000900Y-63602587D01*
X42097070Y-63727919D01*
X42097080Y-63727929D01*
X42222410Y-63824098D01*
X42222414Y-63824100D01*
X42368368Y-63884555D01*
X42368369Y-63884556D01*
X42485676Y-63899999D01*
X42799998Y-63899999D01*
X42800000Y-63899998D01*
X42800000Y-63250001D01*
X43200000Y-63250001D01*
X43200000Y-63899998D01*
X43200001Y-63899999D01*
X43514320Y-63899999D01*
X43514324Y-63899998D01*
X43631629Y-63884556D01*
X43631631Y-63884555D01*
X43777585Y-63824100D01*
X43777589Y-63824098D01*
X43902919Y-63727929D01*
X43902929Y-63727919D01*
X43999100Y-63602587D01*
X43999100Y-63602585D01*
X44059555Y-63456631D01*
X44059556Y-63456630D01*
X44074999Y-63339323D01*
X44075000Y-63339322D01*
X44075000Y-63250001D01*
X46925001Y-63250001D01*
X46925001Y-63339324D01*
X46940443Y-63456629D01*
X46940444Y-63456631D01*
X47000899Y-63602585D01*
X47000900Y-63602587D01*
X47097070Y-63727919D01*
X47097080Y-63727929D01*
X47222410Y-63824098D01*
X47222414Y-63824100D01*
X47368368Y-63884555D01*
X47368369Y-63884556D01*
X47485676Y-63899999D01*
X47799998Y-63899999D01*
X47800000Y-63899998D01*
X47800000Y-63250001D01*
X48200000Y-63250001D01*
X48200000Y-63899998D01*
X48200001Y-63899999D01*
X48514320Y-63899999D01*
X48514324Y-63899998D01*
X48631629Y-63884556D01*
X48631631Y-63884555D01*
X48777585Y-63824100D01*
X48777589Y-63824098D01*
X48902919Y-63727929D01*
X48902929Y-63727919D01*
X48999100Y-63602587D01*
X48999100Y-63602585D01*
X49059555Y-63456631D01*
X49059556Y-63456630D01*
X49074999Y-63339323D01*
X49075000Y-63339322D01*
X49075000Y-63250001D01*
X49074999Y-63250000D01*
X48200001Y-63250000D01*
X48200000Y-63250001D01*
X47800000Y-63250001D01*
X47799999Y-63250000D01*
X46925002Y-63250000D01*
X46925001Y-63250001D01*
X44075000Y-63250001D01*
X44074999Y-63250000D01*
X43200001Y-63250000D01*
X43200000Y-63250001D01*
X42800000Y-63250001D01*
X42799999Y-63250000D01*
X41925002Y-63250000D01*
X41925001Y-63250001D01*
X32927157Y-63250001D01*
X32485175Y-62808019D01*
X32492993Y-62805925D01*
X32607007Y-62740099D01*
X32700099Y-62647007D01*
X32765925Y-62532993D01*
X32768019Y-62525175D01*
X33278127Y-63035283D01*
X33326330Y-62968939D01*
X33412085Y-62800635D01*
X33425069Y-62760676D01*
X41925000Y-62760676D01*
X41925000Y-62849999D01*
X41925001Y-62850000D01*
X42799999Y-62850000D01*
X42800000Y-62849999D01*
X42800000Y-62200001D01*
X43200000Y-62200001D01*
X43200000Y-62849999D01*
X43200001Y-62850000D01*
X44074998Y-62850000D01*
X44074999Y-62849999D01*
X44074999Y-62760681D01*
X44074998Y-62760676D01*
X46925000Y-62760676D01*
X46925000Y-62849999D01*
X46925001Y-62850000D01*
X47799999Y-62850000D01*
X47800000Y-62849999D01*
X47800000Y-62200001D01*
X48200000Y-62200001D01*
X48200000Y-62849999D01*
X48200001Y-62850000D01*
X49074998Y-62850000D01*
X49074999Y-62849999D01*
X49074999Y-62760680D01*
X49074998Y-62760675D01*
X49059556Y-62643370D01*
X49059555Y-62643368D01*
X48999100Y-62497414D01*
X48999098Y-62497410D01*
X48902929Y-62372080D01*
X48902919Y-62372070D01*
X48777589Y-62275901D01*
X48777585Y-62275899D01*
X48631631Y-62215444D01*
X48631630Y-62215443D01*
X48514323Y-62200000D01*
X48200001Y-62200000D01*
X48200000Y-62200001D01*
X47800000Y-62200001D01*
X47799999Y-62200000D01*
X47485680Y-62200000D01*
X47485675Y-62200001D01*
X47368370Y-62215443D01*
X47368368Y-62215444D01*
X47222414Y-62275899D01*
X47222410Y-62275901D01*
X47097080Y-62372070D01*
X47097070Y-62372080D01*
X47000901Y-62497410D01*
X47000899Y-62497414D01*
X46940444Y-62643368D01*
X46940443Y-62643369D01*
X46925000Y-62760676D01*
X44074998Y-62760676D01*
X44074998Y-62760674D01*
X44059556Y-62643370D01*
X44059555Y-62643368D01*
X43999100Y-62497414D01*
X43999098Y-62497410D01*
X43902929Y-62372080D01*
X43902919Y-62372070D01*
X43777589Y-62275901D01*
X43777585Y-62275899D01*
X43631631Y-62215444D01*
X43631630Y-62215443D01*
X43514323Y-62200000D01*
X43200001Y-62200000D01*
X43200000Y-62200001D01*
X42800000Y-62200001D01*
X42799999Y-62200000D01*
X42485680Y-62200000D01*
X42485675Y-62200001D01*
X42368370Y-62215443D01*
X42368368Y-62215444D01*
X42222414Y-62275899D01*
X42222410Y-62275901D01*
X42097080Y-62372070D01*
X42097070Y-62372080D01*
X42000901Y-62497410D01*
X42000899Y-62497414D01*
X41940444Y-62643368D01*
X41940443Y-62643369D01*
X41925000Y-62760676D01*
X33425069Y-62760676D01*
X33436062Y-62726843D01*
X33436062Y-62726842D01*
X33470452Y-62620998D01*
X33500000Y-62434445D01*
X33500000Y-62245554D01*
X33470453Y-62059003D01*
X33412085Y-61879364D01*
X33326332Y-61711063D01*
X33326328Y-61711057D01*
X33278127Y-61644715D01*
X33278126Y-61644715D01*
X32768019Y-62154822D01*
X32765925Y-62147007D01*
X32700099Y-62032993D01*
X32607007Y-61939901D01*
X32492993Y-61874075D01*
X32485174Y-61871979D01*
X32995283Y-61361871D01*
X32928942Y-61313671D01*
X32928936Y-61313667D01*
X32760635Y-61227914D01*
X32580997Y-61169547D01*
X32571445Y-61168034D01*
X32516929Y-61140256D01*
X32489152Y-61085739D01*
X32498724Y-61025307D01*
X32541989Y-60982043D01*
X32571446Y-60972471D01*
X32581118Y-60970940D01*
X32760832Y-60912547D01*
X32929199Y-60826760D01*
X33082073Y-60715690D01*
X33215690Y-60582073D01*
X33326760Y-60429199D01*
X33412547Y-60260832D01*
X33470940Y-60081118D01*
X33471909Y-60074999D01*
X33500500Y-59894484D01*
X33500500Y-59705515D01*
X33470940Y-59518882D01*
X33456519Y-59474500D01*
X33445050Y-59439204D01*
X33445050Y-59378022D01*
X33469200Y-59338611D01*
X33748317Y-59059496D01*
X33802833Y-59031719D01*
X33818320Y-59030500D01*
X56583173Y-59030500D01*
X56641364Y-59049407D01*
X56677328Y-59098907D01*
X56677328Y-59160093D01*
X56671383Y-59174445D01*
X56587453Y-59339167D01*
X56529058Y-59518886D01*
X56499500Y-59705515D01*
X56499500Y-59894484D01*
X56529058Y-60081113D01*
X56567850Y-60200500D01*
X56587453Y-60260832D01*
X56673240Y-60429199D01*
X56784310Y-60582073D01*
X56917927Y-60715690D01*
X57070801Y-60826760D01*
X57239168Y-60912547D01*
X57418882Y-60970940D01*
X57418883Y-60970940D01*
X57418886Y-60970941D01*
X57426954Y-60972219D01*
X57481471Y-60999996D01*
X57509248Y-61054513D01*
X57499677Y-61114945D01*
X57456412Y-61158210D01*
X57426954Y-61167781D01*
X57418886Y-61169058D01*
X57239167Y-61227453D01*
X57070803Y-61313238D01*
X56917928Y-61424309D01*
X56784309Y-61557928D01*
X56673238Y-61710803D01*
X56587453Y-61879167D01*
X56529058Y-62058886D01*
X56499500Y-62245515D01*
X56499500Y-62434484D01*
X56529058Y-62621113D01*
X56587453Y-62800832D01*
X56673107Y-62968939D01*
X56673240Y-62969199D01*
X56784310Y-63122073D01*
X56917927Y-63255690D01*
X57070801Y-63366760D01*
X57239168Y-63452547D01*
X57418882Y-63510940D01*
X57418883Y-63510940D01*
X57418886Y-63510941D01*
X57605516Y-63540500D01*
X57605519Y-63540500D01*
X57794484Y-63540500D01*
X57981113Y-63510941D01*
X57981114Y-63510940D01*
X57981118Y-63510940D01*
X58160832Y-63452547D01*
X58329199Y-63366760D01*
X58482073Y-63255690D01*
X58615690Y-63122073D01*
X58726760Y-62969199D01*
X58812547Y-62800832D01*
X58812548Y-62800827D01*
X58812550Y-62800825D01*
X58817485Y-62785637D01*
X61949500Y-62785637D01*
X61949500Y-63389357D01*
X61949501Y-63389362D01*
X61964955Y-63506758D01*
X61964957Y-63506766D01*
X62025462Y-63652838D01*
X62025462Y-63652839D01*
X62121439Y-63777919D01*
X62121718Y-63778282D01*
X62247159Y-63874536D01*
X62308630Y-63899998D01*
X62329242Y-63908536D01*
X62375767Y-63948273D01*
X62390051Y-64007767D01*
X62366636Y-64064295D01*
X62329242Y-64091464D01*
X62247160Y-64125463D01*
X62121723Y-64221713D01*
X62121713Y-64221723D01*
X62025462Y-64347160D01*
X62025462Y-64347161D01*
X61964957Y-64493233D01*
X61964955Y-64493241D01*
X61949500Y-64610637D01*
X61949500Y-65214357D01*
X61949501Y-65214362D01*
X61964955Y-65331758D01*
X61964957Y-65331766D01*
X62025462Y-65477838D01*
X62025462Y-65477839D01*
X62121713Y-65603276D01*
X62121718Y-65603282D01*
X62121722Y-65603285D01*
X62121723Y-65603286D01*
X62247157Y-65699535D01*
X62247158Y-65699535D01*
X62247159Y-65699536D01*
X62288385Y-65716612D01*
X62334911Y-65756348D01*
X62349500Y-65808076D01*
X62349500Y-67564069D01*
X62374499Y-67689742D01*
X62374500Y-67689747D01*
X62423534Y-67808126D01*
X62423535Y-67808127D01*
X62494723Y-67914669D01*
X63148312Y-68568257D01*
X63770504Y-69190449D01*
X63798281Y-69244966D01*
X63799500Y-69260453D01*
X63799500Y-70289357D01*
X63799501Y-70289362D01*
X63814955Y-70406758D01*
X63814957Y-70406766D01*
X63875462Y-70552838D01*
X63875462Y-70552839D01*
X63971713Y-70678276D01*
X63971718Y-70678282D01*
X64097159Y-70774536D01*
X64243238Y-70835044D01*
X64360639Y-70850500D01*
X65639360Y-70850499D01*
X65756762Y-70835044D01*
X65902841Y-70774536D01*
X66028282Y-70678282D01*
X66124536Y-70552841D01*
X66185044Y-70406762D01*
X66200500Y-70289361D01*
X66200499Y-70155176D01*
X66219406Y-70096988D01*
X66268906Y-70061024D01*
X66330091Y-70061023D01*
X66379591Y-70096987D01*
X66387709Y-70110233D01*
X66473667Y-70278936D01*
X66473669Y-70278940D01*
X66584686Y-70431742D01*
X66718257Y-70565313D01*
X66871059Y-70676330D01*
X66871063Y-70676332D01*
X67039364Y-70762085D01*
X67219003Y-70820453D01*
X67300000Y-70833281D01*
X67300000Y-69961879D01*
X67307007Y-69965925D01*
X67434174Y-70000000D01*
X67565826Y-70000000D01*
X67692993Y-69965925D01*
X67700000Y-69961879D01*
X67700000Y-70833280D01*
X67780996Y-70820453D01*
X67960635Y-70762085D01*
X68128936Y-70676332D01*
X68128940Y-70676330D01*
X68281742Y-70565313D01*
X68415313Y-70431742D01*
X68453843Y-70378710D01*
X83649500Y-70378710D01*
X83649500Y-70621289D01*
X83681161Y-70861781D01*
X83681161Y-70861786D01*
X83743944Y-71096092D01*
X83743948Y-71096105D01*
X83836772Y-71320204D01*
X83836774Y-71320208D01*
X83836776Y-71320212D01*
X83958064Y-71530289D01*
X83958066Y-71530292D01*
X84105729Y-71722731D01*
X84105731Y-71722733D01*
X84105735Y-71722738D01*
X84277262Y-71894265D01*
X84277266Y-71894268D01*
X84277268Y-71894270D01*
X84469707Y-72041933D01*
X84469711Y-72041936D01*
X84679788Y-72163224D01*
X84903900Y-72256054D01*
X85138211Y-72318838D01*
X85378712Y-72350500D01*
X85378713Y-72350500D01*
X85621287Y-72350500D01*
X85621288Y-72350500D01*
X85861789Y-72318838D01*
X86096100Y-72256054D01*
X86320212Y-72163224D01*
X86530289Y-72041936D01*
X86722738Y-71894265D01*
X86894265Y-71722738D01*
X87041936Y-71530289D01*
X87163224Y-71320212D01*
X87256054Y-71096100D01*
X87318838Y-70861789D01*
X87350500Y-70621288D01*
X87350500Y-70378712D01*
X87318838Y-70138211D01*
X87256054Y-69903900D01*
X87178391Y-69716406D01*
X87163227Y-69679795D01*
X87163226Y-69679794D01*
X87163224Y-69679788D01*
X87041936Y-69469711D01*
X86917089Y-69307007D01*
X86894270Y-69277268D01*
X86894268Y-69277266D01*
X86894265Y-69277262D01*
X86722738Y-69105735D01*
X86722733Y-69105731D01*
X86722731Y-69105729D01*
X86530292Y-68958066D01*
X86503511Y-68942604D01*
X86320212Y-68836776D01*
X86320208Y-68836774D01*
X86320204Y-68836772D01*
X86096105Y-68743948D01*
X86096104Y-68743947D01*
X86096100Y-68743946D01*
X85861789Y-68681162D01*
X85861786Y-68681161D01*
X85861784Y-68681161D01*
X85621289Y-68649500D01*
X85621288Y-68649500D01*
X85378712Y-68649500D01*
X85378710Y-68649500D01*
X85138218Y-68681161D01*
X85138213Y-68681161D01*
X84903907Y-68743944D01*
X84903894Y-68743948D01*
X84679795Y-68836772D01*
X84469707Y-68958066D01*
X84277268Y-69105729D01*
X84105729Y-69277268D01*
X83958066Y-69469707D01*
X83836772Y-69679795D01*
X83743948Y-69903894D01*
X83743944Y-69903907D01*
X83681161Y-70138213D01*
X83681161Y-70138218D01*
X83649500Y-70378710D01*
X68453843Y-70378710D01*
X68498474Y-70317281D01*
X68498475Y-70317280D01*
X68526330Y-70278940D01*
X68526332Y-70278936D01*
X68612085Y-70110635D01*
X68670453Y-69930996D01*
X68700000Y-69744445D01*
X68700000Y-69700001D01*
X68699999Y-69700000D01*
X67961880Y-69700000D01*
X67965925Y-69692993D01*
X68000000Y-69565826D01*
X68000000Y-69434174D01*
X67965925Y-69307007D01*
X67961880Y-69300000D01*
X68699999Y-69300000D01*
X68700000Y-69299999D01*
X68700000Y-69255554D01*
X68670453Y-69069003D01*
X68612085Y-68889364D01*
X68526332Y-68721063D01*
X68526330Y-68721059D01*
X68415313Y-68568257D01*
X68281742Y-68434686D01*
X68128940Y-68323669D01*
X68128936Y-68323667D01*
X67960635Y-68237914D01*
X67780997Y-68179547D01*
X67700000Y-68166717D01*
X67700000Y-69038120D01*
X67692993Y-69034075D01*
X67565826Y-69000000D01*
X67434174Y-69000000D01*
X67307007Y-69034075D01*
X67300000Y-69038120D01*
X67300000Y-68166718D01*
X67299999Y-68166717D01*
X67219002Y-68179547D01*
X67039364Y-68237914D01*
X66871063Y-68323667D01*
X66871059Y-68323669D01*
X66718257Y-68434686D01*
X66584686Y-68568257D01*
X66473669Y-68721059D01*
X66473667Y-68721063D01*
X66387709Y-68889768D01*
X66344444Y-68933033D01*
X66284012Y-68942604D01*
X66229496Y-68914827D01*
X66201718Y-68860310D01*
X66200499Y-68844823D01*
X66200499Y-68710642D01*
X66200499Y-68710640D01*
X66185044Y-68593238D01*
X66124537Y-68447161D01*
X66124537Y-68447160D01*
X66028286Y-68321723D01*
X66028285Y-68321722D01*
X66028282Y-68321718D01*
X66028277Y-68321714D01*
X66028276Y-68321713D01*
X65902838Y-68225462D01*
X65756766Y-68164957D01*
X65756758Y-68164955D01*
X65639362Y-68149500D01*
X65639361Y-68149500D01*
X64610454Y-68149500D01*
X64552263Y-68130593D01*
X64540450Y-68120504D01*
X63679496Y-67259550D01*
X63651719Y-67205033D01*
X63650500Y-67189546D01*
X63650500Y-65808076D01*
X63669407Y-65749885D01*
X63711614Y-65716612D01*
X63752841Y-65699536D01*
X63878282Y-65603282D01*
X63974536Y-65477841D01*
X64035044Y-65331762D01*
X64050500Y-65214361D01*
X64050499Y-64610640D01*
X64035044Y-64493238D01*
X63974537Y-64347161D01*
X63974537Y-64347160D01*
X63878286Y-64221723D01*
X63878285Y-64221722D01*
X63878282Y-64221718D01*
X63878277Y-64221714D01*
X63878276Y-64221713D01*
X63752838Y-64125462D01*
X63670758Y-64091464D01*
X63624232Y-64051728D01*
X63609948Y-63992233D01*
X63633362Y-63935705D01*
X63670758Y-63908536D01*
X63691370Y-63899998D01*
X63752841Y-63874536D01*
X63878282Y-63778282D01*
X63974536Y-63652841D01*
X63976081Y-63649110D01*
X64015820Y-63602587D01*
X64067544Y-63588000D01*
X64926678Y-63588000D01*
X64984869Y-63606907D01*
X64996682Y-63616996D01*
X65920504Y-64540818D01*
X65948281Y-64595335D01*
X65949500Y-64610822D01*
X65949500Y-65214357D01*
X65949501Y-65214362D01*
X65964955Y-65331758D01*
X65964957Y-65331766D01*
X66025462Y-65477838D01*
X66025462Y-65477839D01*
X66121713Y-65603276D01*
X66121718Y-65603282D01*
X66247159Y-65699536D01*
X66247160Y-65699536D01*
X66247161Y-65699537D01*
X66349500Y-65741927D01*
X66393238Y-65760044D01*
X66510639Y-65775500D01*
X67489360Y-65775499D01*
X67606762Y-65760044D01*
X67752841Y-65699536D01*
X67878282Y-65603282D01*
X67974536Y-65477841D01*
X68035044Y-65331762D01*
X68050500Y-65214361D01*
X68050499Y-64610640D01*
X68035044Y-64493238D01*
X67974537Y-64347161D01*
X67974537Y-64347160D01*
X67878286Y-64221723D01*
X67878285Y-64221722D01*
X67878282Y-64221718D01*
X67878277Y-64221714D01*
X67878276Y-64221713D01*
X67818000Y-64175462D01*
X67752841Y-64125464D01*
X67752839Y-64125463D01*
X67670103Y-64091192D01*
X67623577Y-64051455D01*
X67609294Y-63991960D01*
X67632709Y-63935432D01*
X67670105Y-63908263D01*
X67752589Y-63874098D01*
X67877919Y-63777929D01*
X67877929Y-63777919D01*
X67974098Y-63652589D01*
X67974100Y-63652585D01*
X68034555Y-63506631D01*
X68034556Y-63506630D01*
X68049999Y-63389323D01*
X68050000Y-63389322D01*
X68050000Y-63287501D01*
X68049999Y-63287500D01*
X67099000Y-63287500D01*
X67040809Y-63268593D01*
X67004845Y-63219093D01*
X67000000Y-63188500D01*
X67000000Y-63087501D01*
X66999999Y-63087500D01*
X66899000Y-63087500D01*
X66840809Y-63068593D01*
X66804845Y-63019093D01*
X66800000Y-62988500D01*
X66800000Y-62225001D01*
X67200000Y-62225001D01*
X67200000Y-62887499D01*
X67200001Y-62887500D01*
X68049998Y-62887500D01*
X68049999Y-62887499D01*
X68049999Y-62785680D01*
X68049998Y-62785675D01*
X68034556Y-62668370D01*
X68034555Y-62668368D01*
X67974100Y-62522414D01*
X67974098Y-62522410D01*
X67877929Y-62397080D01*
X67877919Y-62397070D01*
X67752589Y-62300901D01*
X67752585Y-62300899D01*
X67630809Y-62250458D01*
X67630805Y-62250458D01*
X67606627Y-62240443D01*
X67489323Y-62225000D01*
X67200001Y-62225000D01*
X67200000Y-62225001D01*
X66800000Y-62225001D01*
X66799999Y-62225000D01*
X66510680Y-62225000D01*
X66510675Y-62225001D01*
X66393370Y-62240443D01*
X66393368Y-62240444D01*
X66247414Y-62300899D01*
X66247410Y-62300901D01*
X66122080Y-62397070D01*
X66122070Y-62397080D01*
X66025901Y-62522410D01*
X66025899Y-62522414D01*
X65965444Y-62668368D01*
X65965443Y-62668369D01*
X65950000Y-62785676D01*
X65950000Y-62915678D01*
X65942836Y-62937725D01*
X65939210Y-62960623D01*
X65933561Y-62966271D01*
X65931093Y-62973869D01*
X65912336Y-62987496D01*
X65895945Y-63003888D01*
X65888055Y-63005137D01*
X65881593Y-63009833D01*
X65858408Y-63009833D01*
X65835513Y-63013459D01*
X65828396Y-63009833D01*
X65820407Y-63009833D01*
X65780996Y-62985682D01*
X65704496Y-62909182D01*
X65676719Y-62854665D01*
X65675500Y-62839178D01*
X65675500Y-61210676D01*
X76800000Y-61210676D01*
X76800000Y-61799999D01*
X76800001Y-61800000D01*
X77538120Y-61800000D01*
X77534075Y-61807007D01*
X77500000Y-61934174D01*
X77500000Y-62065826D01*
X77534075Y-62192993D01*
X77538120Y-62200000D01*
X76800002Y-62200000D01*
X76800001Y-62200001D01*
X76800001Y-62789324D01*
X76815443Y-62906629D01*
X76815444Y-62906631D01*
X76875899Y-63052585D01*
X76875901Y-63052589D01*
X76972070Y-63177919D01*
X76972080Y-63177929D01*
X77097410Y-63274098D01*
X77097414Y-63274100D01*
X77243368Y-63334555D01*
X77243369Y-63334556D01*
X77360676Y-63349999D01*
X77799998Y-63349999D01*
X77800000Y-63349998D01*
X77800000Y-62461879D01*
X77807007Y-62465925D01*
X77934174Y-62500000D01*
X78065826Y-62500000D01*
X78192993Y-62465925D01*
X78200000Y-62461879D01*
X78200000Y-63349998D01*
X78200001Y-63349999D01*
X78639320Y-63349999D01*
X78639324Y-63349998D01*
X78756629Y-63334556D01*
X78756631Y-63334555D01*
X78902585Y-63274100D01*
X78902589Y-63274098D01*
X79027919Y-63177929D01*
X79027929Y-63177919D01*
X79124098Y-63052589D01*
X79124100Y-63052585D01*
X79184555Y-62906631D01*
X79184556Y-62906630D01*
X79199999Y-62789323D01*
X79199999Y-62655300D01*
X79218906Y-62597109D01*
X79268406Y-62561145D01*
X79329591Y-62561144D01*
X79379091Y-62597108D01*
X79387209Y-62610354D01*
X79463804Y-62760681D01*
X79473240Y-62779199D01*
X79584310Y-62932073D01*
X79717927Y-63065690D01*
X79870801Y-63176760D01*
X80039168Y-63262547D01*
X80218882Y-63320940D01*
X80218883Y-63320940D01*
X80218886Y-63320941D01*
X80405516Y-63350500D01*
X80405519Y-63350500D01*
X80594484Y-63350500D01*
X80781113Y-63320941D01*
X80781114Y-63320940D01*
X80781118Y-63320940D01*
X80960832Y-63262547D01*
X81129199Y-63176760D01*
X81282073Y-63065690D01*
X81415690Y-62932073D01*
X81526760Y-62779199D01*
X81612547Y-62610832D01*
X81670940Y-62431118D01*
X81676388Y-62396723D01*
X81700500Y-62244484D01*
X81700500Y-61755515D01*
X81670941Y-61568886D01*
X81670940Y-61568882D01*
X81612547Y-61389168D01*
X81526760Y-61220801D01*
X81415690Y-61067927D01*
X81282073Y-60934310D01*
X81129199Y-60823240D01*
X81129198Y-60823239D01*
X81129196Y-60823238D01*
X80960832Y-60737453D01*
X80781113Y-60679058D01*
X80594484Y-60649500D01*
X80594481Y-60649500D01*
X80405519Y-60649500D01*
X80405516Y-60649500D01*
X80218886Y-60679058D01*
X80039167Y-60737453D01*
X79870803Y-60823238D01*
X79717928Y-60934309D01*
X79584309Y-61067928D01*
X79473238Y-61220803D01*
X79387209Y-61389646D01*
X79343944Y-61432911D01*
X79283512Y-61442482D01*
X79228995Y-61414705D01*
X79201218Y-61360188D01*
X79199999Y-61344701D01*
X79199999Y-61210680D01*
X79199998Y-61210675D01*
X79184556Y-61093370D01*
X79184555Y-61093368D01*
X79124100Y-60947414D01*
X79124098Y-60947410D01*
X79027929Y-60822080D01*
X79027919Y-60822070D01*
X78902589Y-60725901D01*
X78902585Y-60725899D01*
X78756631Y-60665444D01*
X78756630Y-60665443D01*
X78639323Y-60650000D01*
X78200001Y-60650000D01*
X78200000Y-60650001D01*
X78200000Y-61538120D01*
X78192993Y-61534075D01*
X78065826Y-61500000D01*
X77934174Y-61500000D01*
X77807007Y-61534075D01*
X77800000Y-61538120D01*
X77800000Y-60650001D01*
X77799999Y-60650000D01*
X77360680Y-60650000D01*
X77360675Y-60650001D01*
X77243370Y-60665443D01*
X77243368Y-60665444D01*
X77097414Y-60725899D01*
X77097410Y-60725901D01*
X76972080Y-60822070D01*
X76972070Y-60822080D01*
X76875901Y-60947410D01*
X76875899Y-60947414D01*
X76815444Y-61093368D01*
X76815443Y-61093369D01*
X76800000Y-61210676D01*
X65675500Y-61210676D01*
X65675500Y-60174499D01*
X65694407Y-60116308D01*
X65743907Y-60080344D01*
X65774493Y-60075499D01*
X66339360Y-60075499D01*
X66456762Y-60060044D01*
X66602841Y-59999536D01*
X66728282Y-59903282D01*
X66824536Y-59777841D01*
X66885044Y-59631762D01*
X66900500Y-59514361D01*
X66900499Y-59200001D01*
X67100001Y-59200001D01*
X67100001Y-59514324D01*
X67115443Y-59631629D01*
X67115444Y-59631631D01*
X67175899Y-59777585D01*
X67175901Y-59777589D01*
X67272070Y-59902919D01*
X67272080Y-59902929D01*
X67397410Y-59999098D01*
X67397414Y-59999100D01*
X67543368Y-60059555D01*
X67543369Y-60059556D01*
X67660676Y-60074999D01*
X67750000Y-60074999D01*
X67750000Y-59200001D01*
X68150000Y-59200001D01*
X68150000Y-60074998D01*
X68150001Y-60074999D01*
X68239320Y-60074999D01*
X68239324Y-60074998D01*
X68356629Y-60059556D01*
X68356631Y-60059555D01*
X68502585Y-59999100D01*
X68502589Y-59999098D01*
X68627919Y-59902929D01*
X68627929Y-59902919D01*
X68724098Y-59777589D01*
X68724100Y-59777585D01*
X68784555Y-59631631D01*
X68784556Y-59631630D01*
X68799999Y-59514323D01*
X68800000Y-59514322D01*
X68800000Y-59200001D01*
X68799999Y-59200000D01*
X68150001Y-59200000D01*
X68150000Y-59200001D01*
X67750000Y-59200001D01*
X67749999Y-59200000D01*
X67100002Y-59200000D01*
X67100001Y-59200001D01*
X66900499Y-59200001D01*
X66900499Y-58996392D01*
X66900499Y-58485676D01*
X67100000Y-58485676D01*
X67100000Y-58799999D01*
X67100001Y-58800000D01*
X67749999Y-58800000D01*
X67750000Y-58799999D01*
X67750000Y-57925001D01*
X68150000Y-57925001D01*
X68150000Y-58799999D01*
X68150001Y-58800000D01*
X68799998Y-58800000D01*
X68799999Y-58799999D01*
X68799999Y-58485680D01*
X68799998Y-58485675D01*
X68784556Y-58368370D01*
X68784555Y-58368368D01*
X68724100Y-58222414D01*
X68724098Y-58222410D01*
X68627929Y-58097080D01*
X68627919Y-58097070D01*
X68502589Y-58000901D01*
X68502585Y-58000899D01*
X68356631Y-57940444D01*
X68356630Y-57940443D01*
X68239323Y-57925000D01*
X68150001Y-57925000D01*
X68150000Y-57925001D01*
X67750000Y-57925001D01*
X67750000Y-57925000D01*
X67660679Y-57925000D01*
X67660674Y-57925001D01*
X67543370Y-57940443D01*
X67543368Y-57940444D01*
X67397414Y-58000899D01*
X67397410Y-58000901D01*
X67272080Y-58097070D01*
X67272070Y-58097080D01*
X67175901Y-58222410D01*
X67175899Y-58222414D01*
X67115444Y-58368368D01*
X67115443Y-58368369D01*
X67100000Y-58485676D01*
X66900499Y-58485676D01*
X66900499Y-58485642D01*
X66900499Y-58485640D01*
X66885044Y-58368238D01*
X66824537Y-58222161D01*
X66824537Y-58222160D01*
X66733356Y-58103330D01*
X66712932Y-58045654D01*
X66720434Y-58005178D01*
X66771658Y-57881513D01*
X66800500Y-57736518D01*
X66800500Y-57588682D01*
X66771658Y-57443687D01*
X66715084Y-57307105D01*
X66632951Y-57184184D01*
X66528416Y-57079649D01*
X66405495Y-56997516D01*
X66405493Y-56997515D01*
X66268914Y-56940942D01*
X66123918Y-56912100D01*
X65976082Y-56912100D01*
X65976081Y-56912100D01*
X65831085Y-56940942D01*
X65694506Y-56997515D01*
X65571585Y-57079648D01*
X65467048Y-57184185D01*
X65384915Y-57307106D01*
X65328342Y-57443685D01*
X65299500Y-57588681D01*
X65299500Y-57736518D01*
X65328342Y-57881514D01*
X65379565Y-58005178D01*
X65384366Y-58066175D01*
X65366644Y-58103330D01*
X65275461Y-58222163D01*
X65214957Y-58368233D01*
X65214955Y-58368241D01*
X65199500Y-58485637D01*
X65199500Y-59101678D01*
X65180593Y-59159869D01*
X65170509Y-59171675D01*
X64867686Y-59474500D01*
X64867685Y-59474499D01*
X64774500Y-59567685D01*
X64774496Y-59567690D01*
X64708609Y-59681809D01*
X64708608Y-59681814D01*
X64681745Y-59782071D01*
X64674500Y-59809109D01*
X64674500Y-62488000D01*
X64655593Y-62546191D01*
X64606093Y-62582155D01*
X64575500Y-62587000D01*
X64067544Y-62587000D01*
X64009353Y-62568093D01*
X63976081Y-62525889D01*
X63974536Y-62522159D01*
X63974535Y-62522158D01*
X63974535Y-62522157D01*
X63878286Y-62396723D01*
X63878285Y-62396722D01*
X63878282Y-62396718D01*
X63878277Y-62396714D01*
X63878276Y-62396713D01*
X63761368Y-62307007D01*
X63752841Y-62300464D01*
X63752840Y-62300463D01*
X63752838Y-62300462D01*
X63606766Y-62239957D01*
X63606758Y-62239955D01*
X63489361Y-62224500D01*
X62510642Y-62224500D01*
X62510637Y-62224501D01*
X62393241Y-62239955D01*
X62393233Y-62239957D01*
X62247161Y-62300462D01*
X62247160Y-62300462D01*
X62121723Y-62396713D01*
X62121713Y-62396723D01*
X62025462Y-62522160D01*
X62025462Y-62522161D01*
X61964957Y-62668233D01*
X61964955Y-62668241D01*
X61949500Y-62785637D01*
X58817485Y-62785637D01*
X58828477Y-62751808D01*
X58828477Y-62751805D01*
X58836588Y-62726842D01*
X58870940Y-62621118D01*
X58870959Y-62620998D01*
X58900500Y-62434484D01*
X58900500Y-62245515D01*
X58870941Y-62058886D01*
X58832280Y-61939901D01*
X58812547Y-61879168D01*
X58726760Y-61710801D01*
X58615690Y-61557927D01*
X58482073Y-61424310D01*
X58329199Y-61313240D01*
X58329198Y-61313239D01*
X58329196Y-61313238D01*
X58160832Y-61227453D01*
X57981113Y-61169058D01*
X57973046Y-61167781D01*
X57918529Y-61140004D01*
X57890751Y-61085488D01*
X57900322Y-61025056D01*
X57943586Y-60981791D01*
X57973046Y-60972219D01*
X57981113Y-60970941D01*
X57981114Y-60970940D01*
X57981118Y-60970940D01*
X58160832Y-60912547D01*
X58329199Y-60826760D01*
X58482073Y-60715690D01*
X58615690Y-60582073D01*
X58726760Y-60429199D01*
X58812547Y-60260832D01*
X58870940Y-60081118D01*
X58871909Y-60074999D01*
X58900500Y-59894484D01*
X58900500Y-59705515D01*
X58870941Y-59518886D01*
X58869471Y-59514361D01*
X58812547Y-59339168D01*
X58728617Y-59174445D01*
X58719046Y-59114013D01*
X58746824Y-59059496D01*
X58801340Y-59031719D01*
X58816827Y-59030500D01*
X61946390Y-59030500D01*
X61946392Y-59030500D01*
X62073686Y-58996392D01*
X62073688Y-58996390D01*
X62073690Y-58996390D01*
X62187809Y-58930503D01*
X62187809Y-58930502D01*
X62187814Y-58930500D01*
X67553218Y-53565096D01*
X67607735Y-53537319D01*
X67623222Y-53536100D01*
X72942790Y-53536100D01*
X72942792Y-53536100D01*
X73070086Y-53501992D01*
X73070088Y-53501990D01*
X73070090Y-53501990D01*
X73184209Y-53436103D01*
X73184209Y-53436102D01*
X73184214Y-53436100D01*
X74540819Y-52079493D01*
X74595334Y-52051718D01*
X74610808Y-52050499D01*
X75214360Y-52050499D01*
X75331762Y-52035044D01*
X75477841Y-51974536D01*
X75603282Y-51878282D01*
X75699536Y-51752841D01*
X75760044Y-51606762D01*
X75775500Y-51489361D01*
X75775499Y-50510640D01*
X75762345Y-50410720D01*
X75773495Y-50350561D01*
X75817878Y-50308444D01*
X75860498Y-50298800D01*
X78723373Y-50298800D01*
X78781564Y-50317707D01*
X78817528Y-50367207D01*
X78817528Y-50428393D01*
X78811583Y-50442745D01*
X78762453Y-50539167D01*
X78704058Y-50718886D01*
X78674500Y-50905515D01*
X78674500Y-51094484D01*
X78704058Y-51281113D01*
X78762453Y-51460832D01*
X78836809Y-51606766D01*
X78848240Y-51629199D01*
X78959310Y-51782073D01*
X79092927Y-51915690D01*
X79245801Y-52026760D01*
X79414168Y-52112547D01*
X79548234Y-52156108D01*
X79597733Y-52192071D01*
X79616641Y-52250262D01*
X79597734Y-52308452D01*
X79548234Y-52344416D01*
X79414370Y-52387911D01*
X79246063Y-52473667D01*
X79246059Y-52473669D01*
X79093257Y-52584686D01*
X78959686Y-52718257D01*
X78848669Y-52871059D01*
X78848667Y-52871063D01*
X78762914Y-53039364D01*
X78704546Y-53219003D01*
X78691718Y-53300000D01*
X79566987Y-53300000D01*
X79557370Y-53316657D01*
X79525000Y-53437465D01*
X79525000Y-53562535D01*
X79557370Y-53683343D01*
X79566987Y-53700000D01*
X78691718Y-53700000D01*
X78704546Y-53780996D01*
X78762914Y-53960635D01*
X78848667Y-54128936D01*
X78848669Y-54128940D01*
X78959686Y-54281742D01*
X79093257Y-54415313D01*
X79246059Y-54526330D01*
X79246063Y-54526332D01*
X79414364Y-54612085D01*
X79594003Y-54670453D01*
X79780555Y-54700000D01*
X79799999Y-54700000D01*
X79800000Y-54699999D01*
X79800000Y-53933013D01*
X79816657Y-53942630D01*
X79937465Y-53975000D01*
X80062535Y-53975000D01*
X80183343Y-53942630D01*
X80200000Y-53933013D01*
X80200000Y-54699999D01*
X80200001Y-54700000D01*
X80219445Y-54700000D01*
X80405996Y-54670453D01*
X80585635Y-54612085D01*
X80753936Y-54526332D01*
X80753940Y-54526330D01*
X80906742Y-54415313D01*
X81040313Y-54281742D01*
X81151330Y-54128940D01*
X81151332Y-54128936D01*
X81237085Y-53960635D01*
X81295453Y-53780996D01*
X81308282Y-53700000D01*
X80433013Y-53700000D01*
X80442630Y-53683343D01*
X80475000Y-53562535D01*
X80475000Y-53437465D01*
X80442630Y-53316657D01*
X80433013Y-53300000D01*
X81308281Y-53300000D01*
X81295453Y-53219003D01*
X81237085Y-53039364D01*
X81151332Y-52871063D01*
X81151330Y-52871059D01*
X81040313Y-52718257D01*
X80906742Y-52584686D01*
X80753940Y-52473669D01*
X80753936Y-52473667D01*
X80585629Y-52387911D01*
X80451765Y-52344416D01*
X80402265Y-52308452D01*
X80383358Y-52250262D01*
X80402266Y-52192071D01*
X80451763Y-52156108D01*
X80585832Y-52112547D01*
X80754199Y-52026760D01*
X80907073Y-51915690D01*
X81040690Y-51782073D01*
X81151760Y-51629199D01*
X81237547Y-51460832D01*
X81295940Y-51281118D01*
X81300206Y-51254186D01*
X81325500Y-51094484D01*
X81325500Y-50905515D01*
X81295941Y-50718886D01*
X81295940Y-50718882D01*
X81237547Y-50539168D01*
X81151760Y-50370801D01*
X81040690Y-50217927D01*
X80907073Y-50084310D01*
X80837805Y-50033983D01*
X80754197Y-49973238D01*
X80651903Y-49921118D01*
X80585832Y-49887453D01*
X80568904Y-49881952D01*
X80545067Y-49864633D01*
X80520801Y-49847862D01*
X80520415Y-49846721D01*
X80519406Y-49845988D01*
X80500528Y-49790133D01*
X80500500Y-49788945D01*
X80500500Y-49732408D01*
X80499038Y-49726952D01*
X80498759Y-49715109D01*
X80504259Y-49696715D01*
X80505214Y-49677539D01*
X80512816Y-49668099D01*
X80516289Y-49656488D01*
X80531550Y-49644840D01*
X80543594Y-49629888D01*
X80563834Y-49620201D01*
X80564927Y-49619368D01*
X80565610Y-49619351D01*
X80567137Y-49618621D01*
X80585832Y-49612547D01*
X80754199Y-49526760D01*
X80907073Y-49415690D01*
X81040690Y-49282073D01*
X81151760Y-49129199D01*
X81237547Y-48960832D01*
X81295940Y-48781118D01*
X81297368Y-48772102D01*
X81325500Y-48594484D01*
X81325500Y-48405515D01*
X81295941Y-48218886D01*
X81295940Y-48218882D01*
X81237547Y-48039168D01*
X81151760Y-47870801D01*
X81040690Y-47717927D01*
X80907073Y-47584310D01*
X80754199Y-47473240D01*
X80754195Y-47473237D01*
X80754193Y-47473236D01*
X80659501Y-47424989D01*
X80586331Y-47387707D01*
X80543068Y-47344445D01*
X80533496Y-47284013D01*
X80561273Y-47229496D01*
X80615789Y-47201718D01*
X80631277Y-47200499D01*
X80764358Y-47200499D01*
X80764360Y-47200499D01*
X80881762Y-47185044D01*
X81027841Y-47124536D01*
X81153282Y-47028282D01*
X81249536Y-46902841D01*
X81310044Y-46756762D01*
X81325500Y-46639361D01*
X81325499Y-45360640D01*
X81310044Y-45243238D01*
X81249537Y-45097161D01*
X81249537Y-45097160D01*
X81153286Y-44971723D01*
X81153285Y-44971722D01*
X81153282Y-44971718D01*
X81153277Y-44971714D01*
X81153276Y-44971713D01*
X81027838Y-44875462D01*
X80881766Y-44814957D01*
X80881758Y-44814955D01*
X80764362Y-44799500D01*
X80764361Y-44799500D01*
X79548322Y-44799500D01*
X79490131Y-44780593D01*
X79478319Y-44770504D01*
X79229214Y-44521400D01*
X79229209Y-44521396D01*
X79115089Y-44455509D01*
X79115091Y-44455509D01*
X79065699Y-44442275D01*
X78987792Y-44421400D01*
X74231493Y-44421400D01*
X74099708Y-44421400D01*
X74021800Y-44442275D01*
X73972409Y-44455509D01*
X73858290Y-44521396D01*
X73858285Y-44521400D01*
X73459181Y-44920504D01*
X73404665Y-44948281D01*
X73389178Y-44949500D01*
X72785642Y-44949500D01*
X72785637Y-44949501D01*
X72668241Y-44964955D01*
X72668233Y-44964957D01*
X72522161Y-45025462D01*
X72522160Y-45025462D01*
X72396723Y-45121713D01*
X72396713Y-45121723D01*
X72300462Y-45247160D01*
X72300462Y-45247161D01*
X72239957Y-45393233D01*
X72239955Y-45393241D01*
X72224500Y-45510637D01*
X72224500Y-46489357D01*
X72224501Y-46489362D01*
X72239955Y-46606758D01*
X72239956Y-46606763D01*
X72242381Y-46612616D01*
X72247180Y-46673612D01*
X72215210Y-46725781D01*
X72158682Y-46749195D01*
X72150916Y-46749500D01*
X65903893Y-46749500D01*
X65772108Y-46749500D01*
X65705449Y-46767361D01*
X65644809Y-46783609D01*
X65530690Y-46849496D01*
X64538082Y-47842104D01*
X64483565Y-47869881D01*
X64468078Y-47871100D01*
X58816011Y-47871100D01*
X58757820Y-47852193D01*
X58721856Y-47802693D01*
X58721856Y-47741507D01*
X58727801Y-47727155D01*
X58812547Y-47560832D01*
X58870940Y-47381118D01*
X58874328Y-47359726D01*
X58900500Y-47194484D01*
X58900500Y-47005515D01*
X58870941Y-46818886D01*
X58859479Y-46783609D01*
X58812547Y-46639168D01*
X58759800Y-46535645D01*
X58750229Y-46475213D01*
X58778007Y-46420696D01*
X58832523Y-46392919D01*
X58848010Y-46391700D01*
X61757190Y-46391700D01*
X61757192Y-46391700D01*
X61884486Y-46357592D01*
X61884488Y-46357590D01*
X61884490Y-46357590D01*
X61998609Y-46291703D01*
X61998609Y-46291702D01*
X61998614Y-46291700D01*
X70140817Y-38149495D01*
X70195334Y-38121719D01*
X70210821Y-38120500D01*
X78846997Y-38120500D01*
X78905188Y-38139407D01*
X78935207Y-38174555D01*
X78961158Y-38225488D01*
X78973240Y-38249199D01*
X79084310Y-38402073D01*
X79217927Y-38535690D01*
X79370801Y-38646760D01*
X79539168Y-38732547D01*
X79718882Y-38790940D01*
X79718883Y-38790940D01*
X79718886Y-38790941D01*
X79905516Y-38820500D01*
X79905519Y-38820500D01*
X80094484Y-38820500D01*
X80281113Y-38790941D01*
X80281114Y-38790940D01*
X80281118Y-38790940D01*
X80460832Y-38732547D01*
X80629199Y-38646760D01*
X80782073Y-38535690D01*
X80915690Y-38402073D01*
X81026760Y-38249199D01*
X81112547Y-38080832D01*
X81170940Y-37901118D01*
X81185451Y-37809500D01*
X81200500Y-37714484D01*
X81200500Y-37525515D01*
X81170941Y-37338886D01*
X81162428Y-37312685D01*
X81112547Y-37159168D01*
X81026760Y-36990801D01*
X80915690Y-36837927D01*
X80782073Y-36704310D01*
X80629199Y-36593240D01*
X80629198Y-36593239D01*
X80629196Y-36593238D01*
X80460832Y-36507453D01*
X80281113Y-36449058D01*
X80273046Y-36447781D01*
X80218529Y-36420004D01*
X80190751Y-36365488D01*
X80200322Y-36305056D01*
X80243586Y-36261791D01*
X80273046Y-36252219D01*
X80281113Y-36250941D01*
X80281114Y-36250940D01*
X80281118Y-36250940D01*
X80460832Y-36192547D01*
X80629199Y-36106760D01*
X80782073Y-35995690D01*
X80915690Y-35862073D01*
X81026760Y-35709199D01*
X81112547Y-35540832D01*
X81170940Y-35361118D01*
X81181208Y-35296288D01*
X81200500Y-35174484D01*
X81200500Y-34985515D01*
X81170941Y-34798886D01*
X81144636Y-34717928D01*
X81112547Y-34619168D01*
X81026760Y-34450801D01*
X80915690Y-34297927D01*
X80782073Y-34164310D01*
X80629199Y-34053240D01*
X80629198Y-34053239D01*
X80629196Y-34053238D01*
X80460832Y-33967453D01*
X80281113Y-33909058D01*
X80273046Y-33907781D01*
X80218529Y-33880004D01*
X80190751Y-33825488D01*
X80200322Y-33765056D01*
X80243586Y-33721791D01*
X80273046Y-33712219D01*
X80281113Y-33710941D01*
X80281114Y-33710940D01*
X80281118Y-33710940D01*
X80460832Y-33652547D01*
X80629199Y-33566760D01*
X80782073Y-33455690D01*
X80915690Y-33322073D01*
X81026760Y-33169199D01*
X81112547Y-33000832D01*
X81170940Y-32821118D01*
X81170941Y-32821113D01*
X81200500Y-32634484D01*
X81200500Y-32445515D01*
X81170941Y-32258886D01*
X81170940Y-32258882D01*
X81112547Y-32079168D01*
X81026760Y-31910801D01*
X80915690Y-31757927D01*
X80782073Y-31624310D01*
X80629199Y-31513240D01*
X80629198Y-31513239D01*
X80629196Y-31513238D01*
X80460832Y-31427453D01*
X80355271Y-31393154D01*
X80305771Y-31357190D01*
X80286864Y-31298999D01*
X80305771Y-31240808D01*
X80355272Y-31204844D01*
X80385864Y-31199999D01*
X80883213Y-31199999D01*
X80883216Y-31199998D01*
X80951250Y-31190087D01*
X81056188Y-31138785D01*
X81138786Y-31056187D01*
X81190087Y-30951248D01*
X81200000Y-30883215D01*
X81200000Y-30200001D01*
X81199999Y-30200000D01*
X80461880Y-30200000D01*
X80465925Y-30192993D01*
X80500000Y-30065826D01*
X80500000Y-29934174D01*
X80465925Y-29807007D01*
X80461880Y-29800000D01*
X81199998Y-29800000D01*
X81199999Y-29799999D01*
X81199999Y-29116786D01*
X81199998Y-29116783D01*
X81190087Y-29048749D01*
X81138785Y-28943811D01*
X81056187Y-28861213D01*
X80951248Y-28809912D01*
X80883216Y-28800000D01*
X80200001Y-28800000D01*
X80200000Y-28800001D01*
X80200000Y-29538120D01*
X80192993Y-29534075D01*
X80065826Y-29500000D01*
X79934174Y-29500000D01*
X79807007Y-29534075D01*
X79800000Y-29538120D01*
X79800000Y-28800001D01*
X79799999Y-28800000D01*
X79116786Y-28800000D01*
X79116783Y-28800001D01*
X79048749Y-28809912D01*
X78943811Y-28861214D01*
X78861213Y-28943812D01*
X78809912Y-29048751D01*
X78800000Y-29116784D01*
X78800000Y-29799999D01*
X78800001Y-29800000D01*
X79538120Y-29800000D01*
X79534075Y-29807007D01*
X79500000Y-29934174D01*
X79500000Y-30065826D01*
X79534075Y-30192993D01*
X79538120Y-30200000D01*
X78800002Y-30200000D01*
X78800001Y-30200001D01*
X78800001Y-30883216D01*
X78809912Y-30951250D01*
X78861214Y-31056188D01*
X78943812Y-31138786D01*
X79048751Y-31190087D01*
X79116784Y-31199999D01*
X79614134Y-31199999D01*
X79672325Y-31218906D01*
X79708289Y-31268406D01*
X79708289Y-31329591D01*
X79672325Y-31379092D01*
X79644727Y-31393153D01*
X79539174Y-31427449D01*
X79539171Y-31427451D01*
X79370803Y-31513238D01*
X79217928Y-31624309D01*
X79084305Y-31757932D01*
X79018365Y-31848691D01*
X78968865Y-31884655D01*
X78938273Y-31889500D01*
X75825908Y-31889500D01*
X75767717Y-31870593D01*
X75731753Y-31821093D01*
X75731753Y-31759907D01*
X75734444Y-31752615D01*
X75784555Y-31631631D01*
X75784556Y-31631630D01*
X75799999Y-31514323D01*
X75800000Y-31514322D01*
X75800000Y-31200001D01*
X75799999Y-31200000D01*
X74210954Y-31200000D01*
X74152763Y-31181093D01*
X74140950Y-31171004D01*
X73929495Y-30959549D01*
X73901718Y-30905032D01*
X73900499Y-30889545D01*
X73900499Y-30485676D01*
X74100000Y-30485676D01*
X74100000Y-30799999D01*
X74100001Y-30800000D01*
X74749999Y-30800000D01*
X74750000Y-30799999D01*
X74750000Y-29925001D01*
X75150000Y-29925001D01*
X75150000Y-30799999D01*
X75150001Y-30800000D01*
X75799998Y-30800000D01*
X75799999Y-30799999D01*
X75799999Y-30485680D01*
X75799998Y-30485675D01*
X75784556Y-30368370D01*
X75784555Y-30368368D01*
X75724100Y-30222414D01*
X75724098Y-30222410D01*
X75627929Y-30097080D01*
X75627919Y-30097070D01*
X75502589Y-30000901D01*
X75502585Y-30000899D01*
X75356631Y-29940444D01*
X75356630Y-29940443D01*
X75239323Y-29925000D01*
X75150001Y-29925000D01*
X75150000Y-29925001D01*
X74750000Y-29925001D01*
X74750000Y-29925000D01*
X74660679Y-29925000D01*
X74660674Y-29925001D01*
X74543370Y-29940443D01*
X74543368Y-29940444D01*
X74397414Y-30000899D01*
X74397410Y-30000901D01*
X74272080Y-30097070D01*
X74272070Y-30097080D01*
X74175901Y-30222410D01*
X74175899Y-30222414D01*
X74115444Y-30368368D01*
X74115443Y-30368369D01*
X74100000Y-30485676D01*
X73900499Y-30485676D01*
X73900499Y-30485642D01*
X73900499Y-30485640D01*
X73885044Y-30368238D01*
X73873683Y-30340809D01*
X73824537Y-30222161D01*
X73824537Y-30222160D01*
X73724332Y-30091570D01*
X73725713Y-30090509D01*
X73701719Y-30043416D01*
X73700500Y-30027929D01*
X73700500Y-27960453D01*
X73719407Y-27902262D01*
X73729490Y-27890455D01*
X78645831Y-22974113D01*
X78700344Y-22946339D01*
X78760776Y-22955910D01*
X78804041Y-22999175D01*
X78813612Y-23059606D01*
X78800000Y-23145553D01*
X78800000Y-23334445D01*
X78829546Y-23520996D01*
X78887914Y-23700635D01*
X78973667Y-23868936D01*
X78973671Y-23868942D01*
X79021871Y-23935283D01*
X79021872Y-23935283D01*
X79531980Y-23425176D01*
X79534075Y-23432993D01*
X79599901Y-23547007D01*
X79692993Y-23640099D01*
X79807007Y-23705925D01*
X79814822Y-23708019D01*
X79304715Y-24218126D01*
X79304715Y-24218127D01*
X79371057Y-24266328D01*
X79371063Y-24266332D01*
X79539364Y-24352085D01*
X79719003Y-24410453D01*
X79905555Y-24440000D01*
X80094445Y-24440000D01*
X80280996Y-24410453D01*
X80460635Y-24352085D01*
X80628939Y-24266330D01*
X80695283Y-24218127D01*
X80185175Y-23708019D01*
X80192993Y-23705925D01*
X80307007Y-23640099D01*
X80400099Y-23547007D01*
X80465925Y-23432993D01*
X80468019Y-23425175D01*
X80978127Y-23935283D01*
X81026330Y-23868939D01*
X81112085Y-23700635D01*
X81170453Y-23520996D01*
X81200000Y-23334445D01*
X81200000Y-23145554D01*
X81170453Y-22959003D01*
X81112085Y-22779364D01*
X81026332Y-22611063D01*
X81026328Y-22611057D01*
X80978127Y-22544715D01*
X80978126Y-22544715D01*
X80468019Y-23054822D01*
X80465925Y-23047007D01*
X80400099Y-22932993D01*
X80307007Y-22839901D01*
X80192993Y-22774075D01*
X80185176Y-22771980D01*
X80695283Y-22261872D01*
X80695283Y-22261871D01*
X80628942Y-22213671D01*
X80628936Y-22213667D01*
X80460635Y-22127914D01*
X80280997Y-22069547D01*
X80271445Y-22068034D01*
X80216929Y-22040256D01*
X80189152Y-21985739D01*
X80198724Y-21925307D01*
X80241989Y-21882043D01*
X80271446Y-21872471D01*
X80281118Y-21870940D01*
X80460832Y-21812547D01*
X80629199Y-21726760D01*
X80782073Y-21615690D01*
X80915690Y-21482073D01*
X81026760Y-21329199D01*
X81112547Y-21160832D01*
X81170940Y-20981118D01*
X81170941Y-20981113D01*
X81200500Y-20794484D01*
X81200500Y-20605515D01*
X81170941Y-20418886D01*
X81142366Y-20330941D01*
X81112547Y-20239168D01*
X81026760Y-20070801D01*
X80915690Y-19917927D01*
X80782073Y-19784310D01*
X80629199Y-19673240D01*
X80629198Y-19673239D01*
X80629196Y-19673238D01*
X80460832Y-19587453D01*
X80281113Y-19529058D01*
X80273046Y-19527781D01*
X80218529Y-19500004D01*
X80190751Y-19445488D01*
X80200322Y-19385056D01*
X80243586Y-19341791D01*
X80273046Y-19332219D01*
X80281113Y-19330941D01*
X80281114Y-19330940D01*
X80281118Y-19330940D01*
X80460832Y-19272547D01*
X80629199Y-19186760D01*
X80782073Y-19075690D01*
X80915690Y-18942073D01*
X81026760Y-18789199D01*
X81112547Y-18620832D01*
X81170940Y-18441118D01*
X81180948Y-18377928D01*
X81200500Y-18254484D01*
X81200500Y-18065515D01*
X81170941Y-17878886D01*
X81151970Y-17820500D01*
X81112547Y-17699168D01*
X81026760Y-17530801D01*
X80915690Y-17377927D01*
X80782073Y-17244310D01*
X80629199Y-17133240D01*
X80629198Y-17133239D01*
X80629196Y-17133238D01*
X80460832Y-17047453D01*
X80281113Y-16989058D01*
X80273046Y-16987781D01*
X80218529Y-16960004D01*
X80190751Y-16905488D01*
X80200322Y-16845056D01*
X80243586Y-16801791D01*
X80273046Y-16792219D01*
X80281113Y-16790941D01*
X80281114Y-16790940D01*
X80281118Y-16790940D01*
X80460832Y-16732547D01*
X80629199Y-16646760D01*
X80782073Y-16535690D01*
X80915690Y-16402073D01*
X81026760Y-16249199D01*
X81112547Y-16080832D01*
X81170940Y-15901118D01*
X81171038Y-15900500D01*
X81200500Y-15714484D01*
X81200500Y-15525515D01*
X81170941Y-15338886D01*
X81169520Y-15334513D01*
X81112547Y-15159168D01*
X81026760Y-14990801D01*
X80915690Y-14837927D01*
X80782073Y-14704310D01*
X80629199Y-14593240D01*
X80629198Y-14593239D01*
X80629196Y-14593238D01*
X80460832Y-14507453D01*
X80281113Y-14449058D01*
X80273046Y-14447781D01*
X80218529Y-14420004D01*
X80190751Y-14365488D01*
X80200322Y-14305056D01*
X80243586Y-14261791D01*
X80273046Y-14252219D01*
X80281113Y-14250941D01*
X80281114Y-14250940D01*
X80281118Y-14250940D01*
X80460832Y-14192547D01*
X80629199Y-14106760D01*
X80782073Y-13995690D01*
X80915690Y-13862073D01*
X81026760Y-13709199D01*
X81112547Y-13540832D01*
X81170940Y-13361118D01*
X81170941Y-13361113D01*
X81200500Y-13174484D01*
X81200500Y-12985515D01*
X81170941Y-12798886D01*
X81155980Y-12752841D01*
X81112547Y-12619168D01*
X81026760Y-12450801D01*
X80915690Y-12297927D01*
X80782073Y-12164310D01*
X80629199Y-12053240D01*
X80629198Y-12053239D01*
X80629196Y-12053238D01*
X80460832Y-11967453D01*
X80281110Y-11909057D01*
X80271442Y-11907526D01*
X80216926Y-11879747D01*
X80189151Y-11825229D01*
X80198725Y-11764797D01*
X80241992Y-11721534D01*
X80271452Y-11711964D01*
X80280998Y-11710452D01*
X80460635Y-11652085D01*
X80628939Y-11566330D01*
X80695283Y-11518127D01*
X80185175Y-11008019D01*
X80192993Y-11005925D01*
X80307007Y-10940099D01*
X80400099Y-10847007D01*
X80465925Y-10732993D01*
X80468019Y-10725175D01*
X80978127Y-11235283D01*
X81026330Y-11168939D01*
X81112085Y-11000635D01*
X81170453Y-10820996D01*
X81200000Y-10634445D01*
X81200000Y-10445554D01*
X81170453Y-10259003D01*
X81112085Y-10079364D01*
X81026332Y-9911063D01*
X81026328Y-9911057D01*
X80978127Y-9844715D01*
X80978126Y-9844715D01*
X80468019Y-10354822D01*
X80465925Y-10347007D01*
X80400099Y-10232993D01*
X80307007Y-10139901D01*
X80192993Y-10074075D01*
X80185174Y-10071979D01*
X80695283Y-9561871D01*
X80628942Y-9513671D01*
X80628936Y-9513667D01*
X80460635Y-9427914D01*
X80353653Y-9393154D01*
X80304153Y-9357190D01*
X80285246Y-9298999D01*
X80304153Y-9240808D01*
X80353653Y-9204844D01*
X80384246Y-9199999D01*
X80883213Y-9199999D01*
X80883216Y-9199998D01*
X80951250Y-9190087D01*
X81056188Y-9138785D01*
X81138786Y-9056187D01*
X81190087Y-8951248D01*
X81200000Y-8883215D01*
X81200000Y-8200001D01*
X81199999Y-8200000D01*
X80461880Y-8200000D01*
X80465925Y-8192993D01*
X80500000Y-8065826D01*
X80500000Y-7934174D01*
X80465925Y-7807007D01*
X80461880Y-7800000D01*
X81199998Y-7800000D01*
X81199999Y-7799999D01*
X81199999Y-7116786D01*
X81199998Y-7116783D01*
X81190087Y-7048749D01*
X81138785Y-6943811D01*
X81056187Y-6861213D01*
X80951248Y-6809912D01*
X80883216Y-6800000D01*
X80200001Y-6800000D01*
X80200000Y-6800001D01*
X80200000Y-7538120D01*
X80192993Y-7534075D01*
X80065826Y-7500000D01*
X79934174Y-7500000D01*
X79807007Y-7534075D01*
X79800000Y-7538120D01*
X79800000Y-6800001D01*
X79799999Y-6800000D01*
X79116786Y-6800000D01*
X79116783Y-6800001D01*
X79048749Y-6809912D01*
X78943811Y-6861214D01*
X78861213Y-6943812D01*
X78809912Y-7048751D01*
X78800000Y-7116784D01*
X78800000Y-7799999D01*
X78800001Y-7800000D01*
X79538120Y-7800000D01*
X79534075Y-7807007D01*
X79500000Y-7934174D01*
X79500000Y-8065826D01*
X79534075Y-8192993D01*
X79538120Y-8200000D01*
X78800002Y-8200000D01*
X78800001Y-8200001D01*
X78800001Y-8883216D01*
X78809912Y-8951250D01*
X78861214Y-9056188D01*
X78943812Y-9138786D01*
X79048751Y-9190087D01*
X79116784Y-9199999D01*
X79615752Y-9199999D01*
X79673943Y-9218906D01*
X79709907Y-9268406D01*
X79709907Y-9329591D01*
X79673943Y-9379092D01*
X79646345Y-9393153D01*
X79539370Y-9427911D01*
X79371063Y-9513667D01*
X79371059Y-9513669D01*
X79304715Y-9561871D01*
X79814824Y-10071980D01*
X79807007Y-10074075D01*
X79692993Y-10139901D01*
X79599901Y-10232993D01*
X79534075Y-10347007D01*
X79531980Y-10354824D01*
X79021871Y-9844715D01*
X78973669Y-9911059D01*
X78973667Y-9911063D01*
X78887914Y-10079364D01*
X78829546Y-10259003D01*
X78800000Y-10445554D01*
X78800000Y-10634445D01*
X78829546Y-10820996D01*
X78887914Y-11000635D01*
X78973667Y-11168936D01*
X78973671Y-11168942D01*
X79021871Y-11235283D01*
X79531979Y-10725174D01*
X79534075Y-10732993D01*
X79599901Y-10847007D01*
X79692993Y-10940099D01*
X79807007Y-11005925D01*
X79814822Y-11008019D01*
X79304715Y-11518126D01*
X79304715Y-11518127D01*
X79371057Y-11566328D01*
X79371063Y-11566332D01*
X79539364Y-11652085D01*
X79719000Y-11710452D01*
X79728548Y-11711964D01*
X79783066Y-11739739D01*
X79810846Y-11794254D01*
X79801278Y-11854686D01*
X79758016Y-11897953D01*
X79728558Y-11907526D01*
X79718888Y-11909057D01*
X79539167Y-11967453D01*
X79370803Y-12053238D01*
X79217928Y-12164309D01*
X79084309Y-12297928D01*
X78973238Y-12450803D01*
X78887453Y-12619167D01*
X78829058Y-12798886D01*
X78799500Y-12985515D01*
X78799500Y-13174484D01*
X78829059Y-13361115D01*
X78859140Y-13453699D01*
X78859139Y-13514885D01*
X78834989Y-13554295D01*
X66014946Y-26374338D01*
X65960429Y-26402115D01*
X65899997Y-26392544D01*
X65862628Y-26359337D01*
X65829251Y-26309384D01*
X65724716Y-26204849D01*
X65601795Y-26122716D01*
X65601793Y-26122715D01*
X65465214Y-26066142D01*
X65320218Y-26037300D01*
X65244622Y-26037300D01*
X65186431Y-26018393D01*
X65174618Y-26008304D01*
X62205814Y-23039500D01*
X59195814Y-20029500D01*
X59195811Y-20029498D01*
X59195810Y-20029497D01*
X59195809Y-20029496D01*
X59081689Y-19963609D01*
X59081691Y-19963609D01*
X59032299Y-19950375D01*
X58954392Y-19929500D01*
X58954390Y-19929500D01*
X58816827Y-19929500D01*
X58758636Y-19910593D01*
X58722672Y-19861093D01*
X58722672Y-19799907D01*
X58728617Y-19785555D01*
X58783011Y-19678799D01*
X58812547Y-19620832D01*
X58870940Y-19441118D01*
X58878523Y-19393241D01*
X58900500Y-19254484D01*
X58900500Y-19065515D01*
X58870941Y-18878886D01*
X58857990Y-18839026D01*
X58812547Y-18699168D01*
X58726760Y-18530801D01*
X58615690Y-18377927D01*
X58482073Y-18244310D01*
X58329199Y-18133240D01*
X58329198Y-18133239D01*
X58329196Y-18133238D01*
X58160832Y-18047453D01*
X57981113Y-17989058D01*
X57973046Y-17987781D01*
X57918529Y-17960004D01*
X57890751Y-17905488D01*
X57900322Y-17845056D01*
X57943586Y-17801791D01*
X57973046Y-17792219D01*
X57981113Y-17790941D01*
X57981114Y-17790940D01*
X57981118Y-17790940D01*
X58160832Y-17732547D01*
X58329199Y-17646760D01*
X58482073Y-17535690D01*
X58615690Y-17402073D01*
X58726760Y-17249199D01*
X58812547Y-17080832D01*
X58870940Y-16901118D01*
X58871097Y-16900128D01*
X58900500Y-16714484D01*
X58900500Y-16525515D01*
X58870941Y-16338886D01*
X58870940Y-16338882D01*
X58812547Y-16159168D01*
X58726760Y-15990801D01*
X58615690Y-15837927D01*
X58482073Y-15704310D01*
X58329199Y-15593240D01*
X58329198Y-15593239D01*
X58329196Y-15593238D01*
X58160832Y-15507453D01*
X57981113Y-15449058D01*
X57973046Y-15447781D01*
X57918529Y-15420004D01*
X57890751Y-15365488D01*
X57900322Y-15305056D01*
X57943586Y-15261791D01*
X57973046Y-15252219D01*
X57981113Y-15250941D01*
X57981114Y-15250940D01*
X57981118Y-15250940D01*
X58160832Y-15192547D01*
X58329199Y-15106760D01*
X58482073Y-14995690D01*
X58615690Y-14862073D01*
X58726760Y-14709199D01*
X58812547Y-14540832D01*
X58870940Y-14361118D01*
X58870941Y-14361113D01*
X58900500Y-14174484D01*
X58900500Y-13985515D01*
X58870941Y-13798886D01*
X58848751Y-13730593D01*
X58812547Y-13619168D01*
X58726760Y-13450801D01*
X58615690Y-13297927D01*
X58482073Y-13164310D01*
X58329199Y-13053240D01*
X58329198Y-13053239D01*
X58329196Y-13053238D01*
X58160832Y-12967453D01*
X57981113Y-12909058D01*
X57973046Y-12907781D01*
X57918529Y-12880004D01*
X57890751Y-12825488D01*
X57900322Y-12765056D01*
X57943586Y-12721791D01*
X57973046Y-12712219D01*
X57981113Y-12710941D01*
X57981114Y-12710940D01*
X57981118Y-12710940D01*
X58160832Y-12652547D01*
X58329199Y-12566760D01*
X58482073Y-12455690D01*
X58615690Y-12322073D01*
X58726760Y-12169199D01*
X58812547Y-12000832D01*
X58870940Y-11821118D01*
X58875195Y-11794254D01*
X58900500Y-11634484D01*
X58900500Y-11445515D01*
X58870941Y-11258886D01*
X58870940Y-11258882D01*
X58812547Y-11079168D01*
X58726760Y-10910801D01*
X58615690Y-10757927D01*
X58482073Y-10624310D01*
X58329199Y-10513240D01*
X58329198Y-10513239D01*
X58329196Y-10513238D01*
X58160832Y-10427453D01*
X58055271Y-10393154D01*
X58005771Y-10357190D01*
X57986864Y-10298999D01*
X58005771Y-10240808D01*
X58055272Y-10204844D01*
X58085864Y-10199999D01*
X58583213Y-10199999D01*
X58583216Y-10199998D01*
X58651250Y-10190087D01*
X58756188Y-10138785D01*
X58838786Y-10056187D01*
X58890087Y-9951248D01*
X58900000Y-9883215D01*
X58900000Y-9200001D01*
X58899999Y-9200000D01*
X58161880Y-9200000D01*
X58165925Y-9192993D01*
X58200000Y-9065826D01*
X58200000Y-8934174D01*
X58165925Y-8807007D01*
X58161880Y-8800000D01*
X58899998Y-8800000D01*
X58899999Y-8799999D01*
X58899999Y-8116786D01*
X58899998Y-8116783D01*
X58890087Y-8048749D01*
X58838785Y-7943811D01*
X58756187Y-7861213D01*
X58651248Y-7809912D01*
X58583216Y-7800000D01*
X57900001Y-7800000D01*
X57900000Y-7800001D01*
X57900000Y-8538120D01*
X57892993Y-8534075D01*
X57765826Y-8500000D01*
X57634174Y-8500000D01*
X57507007Y-8534075D01*
X57500000Y-8538120D01*
X57500000Y-7800001D01*
X57499999Y-7800000D01*
X56816786Y-7800000D01*
X56816783Y-7800001D01*
X56748749Y-7809912D01*
X56643811Y-7861214D01*
X56561213Y-7943812D01*
X56509912Y-8048751D01*
X56500000Y-8116784D01*
X56500000Y-8799999D01*
X56500001Y-8800000D01*
X57238120Y-8800000D01*
X57234075Y-8807007D01*
X57200000Y-8934174D01*
X57200000Y-9065826D01*
X57234075Y-9192993D01*
X57238120Y-9200000D01*
X56500002Y-9200000D01*
X56500001Y-9200001D01*
X56500001Y-9883216D01*
X56509912Y-9951250D01*
X56561214Y-10056188D01*
X56643812Y-10138786D01*
X56748751Y-10190087D01*
X56816784Y-10199999D01*
X57314134Y-10199999D01*
X57372325Y-10218906D01*
X57408289Y-10268406D01*
X57408289Y-10329591D01*
X57372325Y-10379092D01*
X57344727Y-10393153D01*
X57239174Y-10427449D01*
X57239171Y-10427451D01*
X57070803Y-10513238D01*
X56917928Y-10624309D01*
X56784309Y-10757928D01*
X56673238Y-10910803D01*
X56635207Y-10985445D01*
X56591942Y-11028710D01*
X56546997Y-11039500D01*
X53528679Y-11039500D01*
X53484009Y-11027530D01*
X53483837Y-11027947D01*
X53480670Y-11026635D01*
X53479176Y-11026235D01*
X53477836Y-11025461D01*
X53331766Y-10964957D01*
X53331758Y-10964955D01*
X53214361Y-10949500D01*
X52610642Y-10949500D01*
X52610637Y-10949501D01*
X52493241Y-10964955D01*
X52493233Y-10964957D01*
X52347161Y-11025462D01*
X52347160Y-11025462D01*
X52221723Y-11121713D01*
X52221713Y-11121723D01*
X52125463Y-11247160D01*
X52091464Y-11329242D01*
X52051727Y-11375767D01*
X51992233Y-11390051D01*
X51935705Y-11366636D01*
X51908536Y-11329242D01*
X51895254Y-11297177D01*
X51874536Y-11247159D01*
X51778282Y-11121718D01*
X51778277Y-11121714D01*
X51778276Y-11121713D01*
X51707104Y-11067101D01*
X51652841Y-11025464D01*
X51652840Y-11025463D01*
X51652838Y-11025462D01*
X51506766Y-10964957D01*
X51506758Y-10964955D01*
X51389361Y-10949500D01*
X50785642Y-10949500D01*
X50785637Y-10949501D01*
X50668241Y-10964955D01*
X50668233Y-10964957D01*
X50522161Y-11025462D01*
X50522160Y-11025462D01*
X50396723Y-11121713D01*
X50396713Y-11121723D01*
X50300462Y-11247160D01*
X50300462Y-11247161D01*
X50239957Y-11393233D01*
X50239955Y-11393241D01*
X50224500Y-11510637D01*
X50224500Y-12489357D01*
X50224501Y-12489362D01*
X50239955Y-12606758D01*
X50239957Y-12606766D01*
X50300462Y-12752838D01*
X50300462Y-12752839D01*
X50396370Y-12877829D01*
X50396718Y-12878282D01*
X50522159Y-12974536D01*
X50525882Y-12976078D01*
X50572409Y-13015811D01*
X50587000Y-13067543D01*
X50587000Y-14230008D01*
X50587000Y-14361792D01*
X50610383Y-14449058D01*
X50621109Y-14489090D01*
X50686996Y-14603209D01*
X50686997Y-14603210D01*
X50686998Y-14603211D01*
X50687000Y-14603214D01*
X53754726Y-17670940D01*
X56821100Y-20737314D01*
X56823007Y-20739221D01*
X56850784Y-20793738D01*
X56841213Y-20854170D01*
X56823008Y-20879227D01*
X56784312Y-20917924D01*
X56673238Y-21070803D01*
X56587453Y-21239167D01*
X56529058Y-21418886D01*
X56499500Y-21605515D01*
X56499500Y-21794484D01*
X56529058Y-21981113D01*
X56587453Y-22160832D01*
X56643909Y-22271635D01*
X56673240Y-22329199D01*
X56784310Y-22482073D01*
X56917927Y-22615690D01*
X57070801Y-22726760D01*
X57239168Y-22812547D01*
X57418882Y-22870940D01*
X57418883Y-22870940D01*
X57418886Y-22870941D01*
X57426954Y-22872219D01*
X57481471Y-22899996D01*
X57509248Y-22954513D01*
X57499677Y-23014945D01*
X57456412Y-23058210D01*
X57426954Y-23067781D01*
X57418886Y-23069058D01*
X57239167Y-23127453D01*
X57070803Y-23213238D01*
X56917928Y-23324309D01*
X56784309Y-23457928D01*
X56673238Y-23610803D01*
X56587453Y-23779167D01*
X56529058Y-23958886D01*
X56499500Y-24145515D01*
X56499500Y-24334484D01*
X56529058Y-24521113D01*
X56587453Y-24700832D01*
X56643909Y-24811635D01*
X56673240Y-24869199D01*
X56784310Y-25022073D01*
X56917927Y-25155690D01*
X57070801Y-25266760D01*
X57239168Y-25352547D01*
X57418882Y-25410940D01*
X57418883Y-25410940D01*
X57418886Y-25410941D01*
X57426954Y-25412219D01*
X57481471Y-25439996D01*
X57509248Y-25494513D01*
X57499677Y-25554945D01*
X57456412Y-25598210D01*
X57426954Y-25607781D01*
X57418886Y-25609058D01*
X57239167Y-25667453D01*
X57070803Y-25753238D01*
X56917928Y-25864309D01*
X56784309Y-25997928D01*
X56673238Y-26150803D01*
X56587453Y-26319167D01*
X56529058Y-26498886D01*
X56499500Y-26685515D01*
X56499500Y-26874484D01*
X56529058Y-27061113D01*
X56587453Y-27240832D01*
X56671383Y-27405555D01*
X56680954Y-27465987D01*
X56653176Y-27520504D01*
X56598660Y-27548281D01*
X56583173Y-27549500D01*
X51415892Y-27549500D01*
X51284107Y-27549500D01*
X51274191Y-27552156D01*
X51237184Y-27562072D01*
X51237184Y-27562073D01*
X51156814Y-27583608D01*
X51156812Y-27583608D01*
X51156808Y-27583610D01*
X51042690Y-27649496D01*
X51042684Y-27649500D01*
X51042685Y-27649501D01*
X33579569Y-45112615D01*
X33525052Y-45140392D01*
X33464620Y-45130821D01*
X33421355Y-45087556D01*
X33411784Y-45027124D01*
X33415411Y-45012018D01*
X33470940Y-44841119D01*
X33500500Y-44654484D01*
X33500500Y-44465515D01*
X33470941Y-44278886D01*
X33461555Y-44250000D01*
X33445050Y-44199205D01*
X33445050Y-44138024D01*
X33469199Y-44098613D01*
X34444300Y-43123514D01*
X34461062Y-43094481D01*
X34510190Y-43009390D01*
X34510190Y-43009388D01*
X34510192Y-43009386D01*
X34544300Y-42882092D01*
X34544300Y-42750307D01*
X34544300Y-16564208D01*
X34533933Y-16525519D01*
X34510192Y-16436914D01*
X34489168Y-16400500D01*
X34444300Y-16322786D01*
X34351114Y-16229600D01*
X34351111Y-16229598D01*
X33169639Y-15048126D01*
X33141864Y-14993611D01*
X33151435Y-14933179D01*
X33169640Y-14908122D01*
X33215690Y-14862073D01*
X33326760Y-14709199D01*
X33412547Y-14540832D01*
X33470940Y-14361118D01*
X33470941Y-14361113D01*
X33500500Y-14174484D01*
X33500500Y-13985515D01*
X33470941Y-13798886D01*
X33448751Y-13730593D01*
X33412547Y-13619168D01*
X33326760Y-13450801D01*
X33215690Y-13297927D01*
X33082073Y-13164310D01*
X32929199Y-13053240D01*
X32929198Y-13053239D01*
X32929196Y-13053238D01*
X32760832Y-12967453D01*
X32581113Y-12909058D01*
X32573046Y-12907781D01*
X32518529Y-12880004D01*
X32490751Y-12825488D01*
X32500322Y-12765056D01*
X32543586Y-12721791D01*
X32573046Y-12712219D01*
X32581113Y-12710941D01*
X32581114Y-12710940D01*
X32581118Y-12710940D01*
X32760832Y-12652547D01*
X32929199Y-12566760D01*
X33082073Y-12455690D01*
X33215690Y-12322073D01*
X33265981Y-12252854D01*
X33281635Y-12231309D01*
X33331135Y-12195345D01*
X33361727Y-12190500D01*
X34279546Y-12190500D01*
X34337737Y-12209407D01*
X34349550Y-12219496D01*
X34670504Y-12540450D01*
X34698281Y-12594967D01*
X34699500Y-12610454D01*
X34699500Y-13014357D01*
X34699501Y-13014362D01*
X34714955Y-13131758D01*
X34714957Y-13131766D01*
X34775462Y-13277838D01*
X34775462Y-13277839D01*
X34869583Y-13400500D01*
X34871718Y-13403282D01*
X34997159Y-13499536D01*
X34997160Y-13499536D01*
X34997161Y-13499537D01*
X35096856Y-13540832D01*
X35143238Y-13560044D01*
X35260639Y-13575500D01*
X35839360Y-13575499D01*
X35956762Y-13560044D01*
X36102841Y-13499536D01*
X36228282Y-13403282D01*
X36324536Y-13277841D01*
X36385044Y-13131762D01*
X36400500Y-13014361D01*
X36400499Y-12700001D01*
X36600001Y-12700001D01*
X36600001Y-13014324D01*
X36615443Y-13131629D01*
X36615444Y-13131631D01*
X36675899Y-13277585D01*
X36675901Y-13277589D01*
X36772070Y-13402919D01*
X36772080Y-13402929D01*
X36897410Y-13499098D01*
X36897414Y-13499100D01*
X37043368Y-13559555D01*
X37043369Y-13559556D01*
X37160676Y-13574999D01*
X37250000Y-13574999D01*
X37250000Y-12700001D01*
X37650000Y-12700001D01*
X37650000Y-13574998D01*
X37650001Y-13574999D01*
X37739320Y-13574999D01*
X37739324Y-13574998D01*
X37856629Y-13559556D01*
X37856631Y-13559555D01*
X38002585Y-13499100D01*
X38002589Y-13499098D01*
X38127919Y-13402929D01*
X38127929Y-13402919D01*
X38224098Y-13277589D01*
X38224100Y-13277585D01*
X38284555Y-13131631D01*
X38284556Y-13131630D01*
X38299999Y-13014323D01*
X38300000Y-13014322D01*
X38300000Y-12700001D01*
X38299999Y-12700000D01*
X37650001Y-12700000D01*
X37650000Y-12700001D01*
X37250000Y-12700001D01*
X37249999Y-12700000D01*
X36600002Y-12700000D01*
X36600001Y-12700001D01*
X36400499Y-12700001D01*
X36400499Y-12500000D01*
X36400499Y-11985676D01*
X36600000Y-11985676D01*
X36600000Y-12299999D01*
X36600001Y-12300000D01*
X37249999Y-12300000D01*
X37250000Y-12299999D01*
X37250000Y-11425001D01*
X37650000Y-11425001D01*
X37650000Y-12299999D01*
X37650001Y-12300000D01*
X38299998Y-12300000D01*
X38299999Y-12299999D01*
X38299999Y-11985680D01*
X38299998Y-11985675D01*
X38284556Y-11868370D01*
X38284555Y-11868368D01*
X38224100Y-11722414D01*
X38224098Y-11722410D01*
X38127929Y-11597080D01*
X38127919Y-11597070D01*
X38002589Y-11500901D01*
X38002585Y-11500899D01*
X37856631Y-11440444D01*
X37856630Y-11440443D01*
X37739323Y-11425000D01*
X37650001Y-11425000D01*
X37650000Y-11425001D01*
X37250000Y-11425001D01*
X37250000Y-11425000D01*
X37160679Y-11425000D01*
X37160674Y-11425001D01*
X37043370Y-11440443D01*
X37043368Y-11440444D01*
X36897414Y-11500899D01*
X36897410Y-11500901D01*
X36772080Y-11597070D01*
X36772070Y-11597080D01*
X36675901Y-11722410D01*
X36675899Y-11722414D01*
X36615444Y-11868368D01*
X36615443Y-11868369D01*
X36600000Y-11985676D01*
X36400499Y-11985676D01*
X36400499Y-11985642D01*
X36400499Y-11985640D01*
X36385044Y-11868238D01*
X36334892Y-11747160D01*
X36324537Y-11722161D01*
X36324537Y-11722160D01*
X36228286Y-11596723D01*
X36228285Y-11596722D01*
X36228282Y-11596718D01*
X36228277Y-11596714D01*
X36228276Y-11596713D01*
X36125860Y-11518127D01*
X36102841Y-11500464D01*
X36102840Y-11500463D01*
X36102838Y-11500462D01*
X35956766Y-11439957D01*
X35956758Y-11439955D01*
X35839362Y-11424500D01*
X35839361Y-11424500D01*
X35435454Y-11424500D01*
X35427856Y-11422031D01*
X35419967Y-11423281D01*
X35399311Y-11412756D01*
X35377263Y-11405593D01*
X35365450Y-11395504D01*
X35269496Y-11299550D01*
X35241719Y-11245033D01*
X35240500Y-11229546D01*
X35240500Y-10270452D01*
X35259407Y-10212261D01*
X35269485Y-10200460D01*
X35365451Y-10104493D01*
X35419966Y-10076718D01*
X35435453Y-10075499D01*
X35839358Y-10075499D01*
X35839360Y-10075499D01*
X35956762Y-10060044D01*
X36102841Y-9999536D01*
X36228282Y-9903282D01*
X36324536Y-9777841D01*
X36385044Y-9631762D01*
X36400500Y-9514361D01*
X36400499Y-9200001D01*
X36600001Y-9200001D01*
X36600001Y-9514324D01*
X36615443Y-9631629D01*
X36615444Y-9631631D01*
X36675899Y-9777585D01*
X36675901Y-9777589D01*
X36772070Y-9902919D01*
X36772080Y-9902929D01*
X36897410Y-9999098D01*
X36897414Y-9999100D01*
X37043368Y-10059555D01*
X37043369Y-10059556D01*
X37160676Y-10074999D01*
X37250000Y-10074999D01*
X37250000Y-9200001D01*
X37650000Y-9200001D01*
X37650000Y-10074998D01*
X37650001Y-10074999D01*
X37739320Y-10074999D01*
X37739324Y-10074998D01*
X37856629Y-10059556D01*
X37856631Y-10059555D01*
X38002585Y-9999100D01*
X38002589Y-9999098D01*
X38127919Y-9902929D01*
X38127929Y-9902919D01*
X38224098Y-9777589D01*
X38224100Y-9777585D01*
X38284555Y-9631631D01*
X38284556Y-9631630D01*
X38299999Y-9514323D01*
X38300000Y-9514322D01*
X38300000Y-9200001D01*
X38299999Y-9200000D01*
X37650001Y-9200000D01*
X37650000Y-9200001D01*
X37250000Y-9200001D01*
X37249999Y-9200000D01*
X36600002Y-9200000D01*
X36600001Y-9200001D01*
X36400499Y-9200001D01*
X36400499Y-8959548D01*
X36400499Y-8485676D01*
X36600000Y-8485676D01*
X36600000Y-8799999D01*
X36600001Y-8800000D01*
X37249999Y-8800000D01*
X37250000Y-8799999D01*
X37250000Y-7925001D01*
X37650000Y-7925001D01*
X37650000Y-8799999D01*
X37650001Y-8800000D01*
X38299998Y-8800000D01*
X38299999Y-8799999D01*
X38299999Y-8485680D01*
X38299998Y-8485675D01*
X38284556Y-8368370D01*
X38284555Y-8368368D01*
X38224100Y-8222414D01*
X38224098Y-8222410D01*
X38186542Y-8173466D01*
X38127929Y-8097080D01*
X38127919Y-8097070D01*
X38002589Y-8000901D01*
X38002585Y-8000899D01*
X37856631Y-7940444D01*
X37856630Y-7940443D01*
X37739323Y-7925000D01*
X37650001Y-7925000D01*
X37650000Y-7925001D01*
X37250000Y-7925001D01*
X37250000Y-7925000D01*
X37160679Y-7925000D01*
X37160674Y-7925001D01*
X37043370Y-7940443D01*
X37043368Y-7940444D01*
X36897414Y-8000899D01*
X36897410Y-8000901D01*
X36772080Y-8097070D01*
X36772070Y-8097080D01*
X36675901Y-8222410D01*
X36675899Y-8222414D01*
X36615444Y-8368368D01*
X36615443Y-8368369D01*
X36600000Y-8485676D01*
X36400499Y-8485676D01*
X36400499Y-8485642D01*
X36400499Y-8485640D01*
X36385044Y-8368238D01*
X36334892Y-8247160D01*
X36324537Y-8222161D01*
X36324537Y-8222160D01*
X36228286Y-8096723D01*
X36228285Y-8096722D01*
X36228282Y-8096718D01*
X36228277Y-8096714D01*
X36228276Y-8096713D01*
X36135419Y-8025462D01*
X36102841Y-8000464D01*
X36102840Y-8000463D01*
X36102838Y-8000462D01*
X35956766Y-7939957D01*
X35956758Y-7939955D01*
X35839361Y-7924500D01*
X35260642Y-7924500D01*
X35260637Y-7924501D01*
X35143241Y-7939955D01*
X35143233Y-7939957D01*
X34997161Y-8000462D01*
X34997160Y-8000462D01*
X34871723Y-8096713D01*
X34871713Y-8096723D01*
X34775462Y-8222160D01*
X34775462Y-8222161D01*
X34714957Y-8368233D01*
X34714955Y-8368241D01*
X34699500Y-8485637D01*
X34699500Y-8889545D01*
X34680593Y-8947736D01*
X34670504Y-8959548D01*
X34084722Y-9545331D01*
X34043677Y-9606762D01*
X34013534Y-9651873D01*
X33964500Y-9770252D01*
X33964499Y-9770255D01*
X33964499Y-9770256D01*
X33962991Y-9777838D01*
X33939500Y-9895930D01*
X33939500Y-10790500D01*
X33920593Y-10848691D01*
X33871093Y-10884655D01*
X33840500Y-10889500D01*
X33361727Y-10889500D01*
X33303536Y-10870593D01*
X33281635Y-10848691D01*
X33215694Y-10757932D01*
X33215692Y-10757930D01*
X33215690Y-10757927D01*
X33082073Y-10624310D01*
X32929199Y-10513240D01*
X32929198Y-10513239D01*
X32929196Y-10513238D01*
X32760832Y-10427453D01*
X32656813Y-10393655D01*
X32607313Y-10357691D01*
X32588406Y-10299500D01*
X32607313Y-10241309D01*
X32656814Y-10205345D01*
X32687406Y-10200500D01*
X33183257Y-10200500D01*
X33183260Y-10200500D01*
X33251393Y-10190573D01*
X33356483Y-10139198D01*
X33439198Y-10056483D01*
X33490573Y-9951393D01*
X33500500Y-9883260D01*
X33500500Y-8116740D01*
X33490573Y-8048607D01*
X33467037Y-8000464D01*
X33442123Y-7949501D01*
X33439198Y-7943517D01*
X33356483Y-7860802D01*
X33356481Y-7860801D01*
X33251395Y-7809427D01*
X33224139Y-7805456D01*
X33183260Y-7799500D01*
X33183257Y-7799500D01*
X33049500Y-7799500D01*
X32991309Y-7780593D01*
X32955345Y-7731093D01*
X32950500Y-7700500D01*
X32950500Y-7534232D01*
X32950500Y-7534231D01*
X32925501Y-7408556D01*
X32876465Y-7290173D01*
X32832761Y-7224765D01*
X32805277Y-7183631D01*
X32029496Y-6407850D01*
X32001719Y-6353333D01*
X32000500Y-6337846D01*
X32000500Y-4472071D01*
X32019407Y-4413880D01*
X32026715Y-4405324D01*
X32028282Y-4403282D01*
X32124536Y-4277841D01*
X32185044Y-4131762D01*
X32200500Y-4014361D01*
X32200499Y-3700001D01*
X32400001Y-3700001D01*
X32400001Y-4014324D01*
X32415443Y-4131629D01*
X32415444Y-4131631D01*
X32475899Y-4277585D01*
X32475901Y-4277589D01*
X32572070Y-4402919D01*
X32572080Y-4402929D01*
X32697410Y-4499098D01*
X32697414Y-4499100D01*
X32843368Y-4559555D01*
X32843369Y-4559556D01*
X32960676Y-4574999D01*
X33050000Y-4574999D01*
X33050000Y-3700001D01*
X33450000Y-3700001D01*
X33450000Y-4574998D01*
X33450001Y-4574999D01*
X33539320Y-4574999D01*
X33539324Y-4574998D01*
X33656629Y-4559556D01*
X33656631Y-4559555D01*
X33802585Y-4499100D01*
X33802589Y-4499098D01*
X33927919Y-4402929D01*
X33927929Y-4402919D01*
X34024098Y-4277589D01*
X34024100Y-4277585D01*
X34084555Y-4131631D01*
X34084556Y-4131630D01*
X34099999Y-4014323D01*
X34100000Y-4014322D01*
X34100000Y-3700001D01*
X34099999Y-3700000D01*
X33450001Y-3700000D01*
X33450000Y-3700001D01*
X33050000Y-3700001D01*
X33049999Y-3700000D01*
X32400002Y-3700000D01*
X32400001Y-3700001D01*
X32200499Y-3700001D01*
X32200499Y-3610452D01*
X32219406Y-3552262D01*
X32229496Y-3540449D01*
X32440950Y-3328996D01*
X32495466Y-3301219D01*
X32510953Y-3300000D01*
X34099998Y-3300000D01*
X34099999Y-3299999D01*
X34099999Y-2985680D01*
X34099998Y-2985677D01*
X34099873Y-2984722D01*
X34099919Y-2984470D01*
X34099787Y-2982447D01*
X34100300Y-2982413D01*
X34111023Y-2924561D01*
X34155405Y-2882444D01*
X34198026Y-2872800D01*
X34461846Y-2872800D01*
X34520037Y-2891707D01*
X34531850Y-2901796D01*
X35170504Y-3540450D01*
X35198281Y-3594967D01*
X35199500Y-3610454D01*
X35199500Y-4014357D01*
X35199501Y-4014362D01*
X35214955Y-4131758D01*
X35214957Y-4131766D01*
X35275462Y-4277838D01*
X35275462Y-4277839D01*
X35371439Y-4402919D01*
X35371718Y-4403282D01*
X35497159Y-4499536D01*
X35643238Y-4560044D01*
X35760639Y-4575500D01*
X36339360Y-4575499D01*
X36456762Y-4560044D01*
X36602841Y-4499536D01*
X36728282Y-4403282D01*
X36824536Y-4277841D01*
X36885044Y-4131762D01*
X36900500Y-4014361D01*
X36900499Y-3700001D01*
X37100001Y-3700001D01*
X37100001Y-4014324D01*
X37115443Y-4131629D01*
X37115444Y-4131631D01*
X37175899Y-4277585D01*
X37175901Y-4277589D01*
X37272070Y-4402919D01*
X37272080Y-4402929D01*
X37397410Y-4499098D01*
X37397414Y-4499100D01*
X37543368Y-4559555D01*
X37543369Y-4559556D01*
X37660676Y-4574999D01*
X37750000Y-4574999D01*
X37750000Y-3700001D01*
X38150000Y-3700001D01*
X38150000Y-4574998D01*
X38150001Y-4574999D01*
X38239320Y-4574999D01*
X38239324Y-4574998D01*
X38356629Y-4559556D01*
X38356631Y-4559555D01*
X38502585Y-4499100D01*
X38502589Y-4499098D01*
X38627919Y-4402929D01*
X38627929Y-4402919D01*
X38724098Y-4277589D01*
X38724100Y-4277585D01*
X38784555Y-4131631D01*
X38784556Y-4131630D01*
X38799999Y-4014323D01*
X38800000Y-4014322D01*
X38800000Y-3700001D01*
X38799999Y-3700000D01*
X38150001Y-3700000D01*
X38150000Y-3700001D01*
X37750000Y-3700001D01*
X37749999Y-3700000D01*
X37100002Y-3700000D01*
X37100001Y-3700001D01*
X36900499Y-3700001D01*
X36900499Y-3610452D01*
X36919406Y-3552262D01*
X36929496Y-3540449D01*
X37140950Y-3328996D01*
X37195466Y-3301219D01*
X37210953Y-3300000D01*
X38799998Y-3300000D01*
X38799999Y-3299999D01*
X38799999Y-2985680D01*
X38799998Y-2985677D01*
X38799873Y-2984722D01*
X38799919Y-2984470D01*
X38799787Y-2982447D01*
X38800300Y-2982413D01*
X38811023Y-2924561D01*
X38855405Y-2882444D01*
X38898026Y-2872800D01*
X59011846Y-2872800D01*
X59070037Y-2891707D01*
X59081850Y-2901796D01*
X68370504Y-12190450D01*
X68398281Y-12244967D01*
X68399500Y-12260454D01*
X68399500Y-18027929D01*
X68380593Y-18086120D01*
X68373276Y-18094687D01*
X68275462Y-18222160D01*
X68275462Y-18222161D01*
X68214957Y-18368233D01*
X68214955Y-18368241D01*
X68199500Y-18485637D01*
X68199500Y-19514357D01*
X68199501Y-19514362D01*
X68214955Y-19631758D01*
X68214957Y-19631766D01*
X68275462Y-19777838D01*
X68275462Y-19777839D01*
X68371439Y-19902919D01*
X68371718Y-19903282D01*
X68497159Y-19999536D01*
X68497160Y-19999536D01*
X68497161Y-19999537D01*
X68569491Y-20029497D01*
X68643238Y-20060044D01*
X68760639Y-20075500D01*
X69339360Y-20075499D01*
X69456762Y-20060044D01*
X69602841Y-19999536D01*
X69728282Y-19903282D01*
X69824536Y-19777841D01*
X69885044Y-19631762D01*
X69900500Y-19514361D01*
X69900499Y-19200001D01*
X70100001Y-19200001D01*
X70100001Y-19514324D01*
X70115443Y-19631629D01*
X70115444Y-19631631D01*
X70175899Y-19777585D01*
X70175901Y-19777589D01*
X70272070Y-19902919D01*
X70272080Y-19902929D01*
X70397410Y-19999098D01*
X70397414Y-19999100D01*
X70543368Y-20059555D01*
X70543369Y-20059556D01*
X70660676Y-20074999D01*
X70750000Y-20074999D01*
X70750000Y-19200001D01*
X71150000Y-19200001D01*
X71150000Y-20074998D01*
X71150001Y-20074999D01*
X71239320Y-20074999D01*
X71239324Y-20074998D01*
X71356629Y-20059556D01*
X71356631Y-20059555D01*
X71502585Y-19999100D01*
X71502589Y-19999098D01*
X71627919Y-19902929D01*
X71627929Y-19902919D01*
X71724098Y-19777589D01*
X71724100Y-19777585D01*
X71784555Y-19631631D01*
X71784556Y-19631630D01*
X71799999Y-19514323D01*
X71800000Y-19514322D01*
X71800000Y-19200001D01*
X71799999Y-19200000D01*
X71150001Y-19200000D01*
X71150000Y-19200001D01*
X70750000Y-19200001D01*
X70749999Y-19200000D01*
X70100002Y-19200000D01*
X70100001Y-19200001D01*
X69900499Y-19200001D01*
X69900499Y-18979214D01*
X69900499Y-18485676D01*
X70100000Y-18485676D01*
X70100000Y-18799999D01*
X70100001Y-18800000D01*
X70749999Y-18800000D01*
X70750000Y-18799999D01*
X70750000Y-17925001D01*
X71150000Y-17925001D01*
X71150000Y-18799999D01*
X71150001Y-18800000D01*
X71799998Y-18800000D01*
X71799999Y-18799999D01*
X71799999Y-18485680D01*
X71799998Y-18485675D01*
X71784556Y-18368370D01*
X71784555Y-18368368D01*
X71724100Y-18222414D01*
X71724098Y-18222410D01*
X71627929Y-18097080D01*
X71627919Y-18097070D01*
X71502589Y-18000901D01*
X71502585Y-18000899D01*
X71356631Y-17940444D01*
X71356630Y-17940443D01*
X71239323Y-17925000D01*
X71150001Y-17925000D01*
X71150000Y-17925001D01*
X70750000Y-17925001D01*
X70750000Y-17925000D01*
X70660679Y-17925000D01*
X70660674Y-17925001D01*
X70543370Y-17940443D01*
X70543368Y-17940444D01*
X70397414Y-18000899D01*
X70397410Y-18000901D01*
X70272080Y-18097070D01*
X70272070Y-18097080D01*
X70175901Y-18222410D01*
X70175899Y-18222414D01*
X70115444Y-18368368D01*
X70115443Y-18368369D01*
X70100000Y-18485676D01*
X69900499Y-18485676D01*
X69900499Y-18485642D01*
X69900499Y-18485640D01*
X69885044Y-18368238D01*
X69884954Y-18368021D01*
X69824537Y-18222161D01*
X69824537Y-18222160D01*
X69724332Y-18091570D01*
X69725713Y-18090509D01*
X69701719Y-18043416D01*
X69700500Y-18027929D01*
X69700500Y-12260452D01*
X69702968Y-12252854D01*
X69701719Y-12244965D01*
X69712243Y-12224309D01*
X69719407Y-12202261D01*
X69729486Y-12190458D01*
X69740451Y-12179493D01*
X69794966Y-12151718D01*
X69810453Y-12150499D01*
X70589358Y-12150499D01*
X70589360Y-12150499D01*
X70706762Y-12135044D01*
X70852841Y-12074536D01*
X70978282Y-11978282D01*
X71074536Y-11852841D01*
X71135044Y-11706762D01*
X71150500Y-11589361D01*
X71150499Y-10410640D01*
X71135044Y-10293238D01*
X71109108Y-10230623D01*
X71074537Y-10147161D01*
X71074537Y-10147160D01*
X70978286Y-10021723D01*
X70978285Y-10021722D01*
X70978282Y-10021718D01*
X70978277Y-10021714D01*
X70978276Y-10021713D01*
X70852838Y-9925462D01*
X70706766Y-9864957D01*
X70706758Y-9864955D01*
X70589361Y-9849500D01*
X69410642Y-9849500D01*
X69410637Y-9849501D01*
X69293241Y-9864955D01*
X69293233Y-9864957D01*
X69147161Y-9925462D01*
X69147160Y-9925462D01*
X69021723Y-10021713D01*
X69021713Y-10021723D01*
X68925462Y-10147160D01*
X68925462Y-10147161D01*
X68864957Y-10293233D01*
X68864955Y-10293241D01*
X68849500Y-10410637D01*
X68849500Y-10590546D01*
X68830593Y-10648737D01*
X68781093Y-10684701D01*
X68719907Y-10684701D01*
X68680496Y-10660550D01*
X65429435Y-7409489D01*
X68850000Y-7409489D01*
X68850000Y-7590510D01*
X68878316Y-7769289D01*
X68934250Y-7941440D01*
X69016430Y-8102728D01*
X69057667Y-8159488D01*
X69613629Y-7603525D01*
X69627259Y-7654394D01*
X69679920Y-7745606D01*
X69754394Y-7820080D01*
X69845606Y-7872741D01*
X69896470Y-7886370D01*
X69340511Y-8442330D01*
X69397275Y-8483571D01*
X69558559Y-8565749D01*
X69730710Y-8621683D01*
X69909490Y-8650000D01*
X70090510Y-8650000D01*
X70269289Y-8621683D01*
X70441440Y-8565749D01*
X70602728Y-8483569D01*
X70659487Y-8442330D01*
X70103527Y-7886370D01*
X70154394Y-7872741D01*
X70245606Y-7820080D01*
X70320080Y-7745606D01*
X70372741Y-7654394D01*
X70386370Y-7603527D01*
X70942330Y-8159487D01*
X70983569Y-8102728D01*
X71065749Y-7941440D01*
X71121683Y-7769289D01*
X71150000Y-7590510D01*
X71150000Y-7409489D01*
X71121684Y-7230712D01*
X71093442Y-7143792D01*
X71093442Y-7143791D01*
X71065749Y-7058559D01*
X70983571Y-6897275D01*
X70942330Y-6840511D01*
X70386370Y-7396470D01*
X70372741Y-7345606D01*
X70320080Y-7254394D01*
X70245606Y-7179920D01*
X70154394Y-7127259D01*
X70103525Y-7113629D01*
X70659488Y-6557667D01*
X70602728Y-6516430D01*
X70441440Y-6434250D01*
X70269289Y-6378316D01*
X70090510Y-6350000D01*
X69909490Y-6350000D01*
X69730710Y-6378316D01*
X69558559Y-6434250D01*
X69397267Y-6516432D01*
X69340510Y-6557667D01*
X69896472Y-7113629D01*
X69845606Y-7127259D01*
X69754394Y-7179920D01*
X69679920Y-7254394D01*
X69627259Y-7345606D01*
X69613629Y-7396472D01*
X69057667Y-6840510D01*
X69016432Y-6897267D01*
X68934250Y-7058559D01*
X68878316Y-7230710D01*
X68850000Y-7409489D01*
X65429435Y-7409489D01*
X62465421Y-4445475D01*
X62398656Y-4378710D01*
X83649500Y-4378710D01*
X83649500Y-4621289D01*
X83681161Y-4861781D01*
X83681161Y-4861786D01*
X83743944Y-5096092D01*
X83743948Y-5096105D01*
X83836772Y-5320204D01*
X83836774Y-5320208D01*
X83836776Y-5320212D01*
X83941991Y-5502449D01*
X83958066Y-5530292D01*
X84105729Y-5722731D01*
X84105731Y-5722733D01*
X84105735Y-5722738D01*
X84277262Y-5894265D01*
X84277266Y-5894268D01*
X84277268Y-5894270D01*
X84469707Y-6041933D01*
X84469711Y-6041936D01*
X84679788Y-6163224D01*
X84903900Y-6256054D01*
X85138211Y-6318838D01*
X85378712Y-6350500D01*
X85378713Y-6350500D01*
X85621287Y-6350500D01*
X85621288Y-6350500D01*
X85861789Y-6318838D01*
X86096100Y-6256054D01*
X86320212Y-6163224D01*
X86530289Y-6041936D01*
X86722738Y-5894265D01*
X86894265Y-5722738D01*
X87041936Y-5530289D01*
X87163224Y-5320212D01*
X87256054Y-5096100D01*
X87318838Y-4861789D01*
X87350500Y-4621288D01*
X87350500Y-4378712D01*
X87318838Y-4138211D01*
X87256054Y-3903900D01*
X87178391Y-3716406D01*
X87163227Y-3679795D01*
X87163226Y-3679794D01*
X87163224Y-3679788D01*
X87041936Y-3469711D01*
X86912648Y-3301219D01*
X86894270Y-3277268D01*
X86894268Y-3277266D01*
X86894265Y-3277262D01*
X86722738Y-3105735D01*
X86722733Y-3105731D01*
X86722731Y-3105729D01*
X86530292Y-2958066D01*
X86530289Y-2958064D01*
X86320212Y-2836776D01*
X86320208Y-2836774D01*
X86320204Y-2836772D01*
X86096105Y-2743948D01*
X86096104Y-2743947D01*
X86096100Y-2743946D01*
X85861789Y-2681162D01*
X85861786Y-2681161D01*
X85861784Y-2681161D01*
X85621289Y-2649500D01*
X85621288Y-2649500D01*
X85378712Y-2649500D01*
X85378710Y-2649500D01*
X85138218Y-2681161D01*
X85138213Y-2681161D01*
X84903907Y-2743944D01*
X84903894Y-2743948D01*
X84679795Y-2836772D01*
X84469707Y-2958066D01*
X84277268Y-3105729D01*
X84105729Y-3277268D01*
X83958066Y-3469707D01*
X83836772Y-3679795D01*
X83743948Y-3903894D01*
X83743944Y-3903907D01*
X83681161Y-4138213D01*
X83681161Y-4138218D01*
X83649500Y-4378710D01*
X62398656Y-4378710D01*
X61125675Y-3105729D01*
X59736969Y-1717023D01*
X59630427Y-1645835D01*
X59630428Y-1645835D01*
X59630426Y-1645834D01*
X59512047Y-1596800D01*
X59512045Y-1596799D01*
X59512044Y-1596799D01*
X59386369Y-1571800D01*
X37263631Y-1571800D01*
X37263630Y-1571800D01*
X37137954Y-1596799D01*
X37088920Y-1617110D01*
X37019576Y-1645832D01*
X36913031Y-1717022D01*
X36234548Y-2395504D01*
X36180032Y-2423281D01*
X36164545Y-2424500D01*
X35935454Y-2424500D01*
X35877263Y-2405593D01*
X35865450Y-2395504D01*
X35186969Y-1717023D01*
X35080427Y-1645835D01*
X35080428Y-1645835D01*
X35080426Y-1645834D01*
X34962047Y-1596800D01*
X34962045Y-1596799D01*
X34962044Y-1596799D01*
X34836369Y-1571800D01*
X32563631Y-1571800D01*
X32563630Y-1571800D01*
X32437954Y-1596799D01*
X32388920Y-1617110D01*
X32319576Y-1645832D01*
X32213031Y-1717022D01*
X31534547Y-2395504D01*
X31480031Y-2423281D01*
X31464544Y-2424500D01*
X31060642Y-2424500D01*
X31060637Y-2424501D01*
X30943241Y-2439955D01*
X30943233Y-2439957D01*
X30797161Y-2500462D01*
X30797160Y-2500462D01*
X30671723Y-2596713D01*
X30671713Y-2596723D01*
X30575462Y-2722160D01*
X30575462Y-2722161D01*
X30514957Y-2868233D01*
X30514955Y-2868241D01*
X30499500Y-2985637D01*
X30499500Y-4014357D01*
X30499501Y-4014362D01*
X30514955Y-4131758D01*
X30514957Y-4131766D01*
X30575462Y-4277838D01*
X30575462Y-4277839D01*
X30675668Y-4408431D01*
X30674283Y-4409493D01*
X30698279Y-4456569D01*
X30699500Y-4472071D01*
X30699500Y-6712369D01*
X30721236Y-6821639D01*
X30721235Y-6821639D01*
X30724496Y-6838033D01*
X30724501Y-6838050D01*
X30773533Y-6956424D01*
X30835221Y-7048749D01*
X30844723Y-7062969D01*
X31136058Y-7354304D01*
X31420811Y-7639057D01*
X31448588Y-7693574D01*
X31439017Y-7754006D01*
X31395752Y-7797271D01*
X31365082Y-7807026D01*
X31348607Y-7809426D01*
X31243518Y-7860801D01*
X31160801Y-7943518D01*
X31109427Y-8048604D01*
X31109427Y-8048607D01*
X31099500Y-8116740D01*
X31099500Y-9883260D01*
X31102417Y-9903282D01*
X31109427Y-9951396D01*
X31111214Y-9957177D01*
X31110326Y-10018356D01*
X31073648Y-10067329D01*
X31016625Y-10085400D01*
X25625005Y-10085400D01*
X25566814Y-10066493D01*
X25530850Y-10016993D01*
X25530850Y-9955807D01*
X25564738Y-9907858D01*
X25580281Y-9895931D01*
X25603282Y-9878282D01*
X25699536Y-9752841D01*
X25760044Y-9606762D01*
X25775500Y-9489361D01*
X25775499Y-8510640D01*
X25760044Y-8393238D01*
X25749743Y-8368369D01*
X25699537Y-8247161D01*
X25699537Y-8247160D01*
X25603286Y-8121723D01*
X25603285Y-8121722D01*
X25603282Y-8121718D01*
X25603277Y-8121714D01*
X25603276Y-8121713D01*
X25508187Y-8048749D01*
X25477841Y-8025464D01*
X25477840Y-8025463D01*
X25477838Y-8025462D01*
X25331766Y-7964957D01*
X25331758Y-7964955D01*
X25214362Y-7949500D01*
X24610821Y-7949500D01*
X24552630Y-7930593D01*
X24540817Y-7920504D01*
X24351406Y-7731093D01*
X24103614Y-7483300D01*
X24103611Y-7483298D01*
X24103609Y-7483296D01*
X23989489Y-7417409D01*
X23989491Y-7417409D01*
X23940099Y-7404175D01*
X23862192Y-7383300D01*
X23862190Y-7383300D01*
X22393522Y-7383300D01*
X22335331Y-7364393D01*
X22323518Y-7354304D01*
X21681583Y-6712369D01*
X20948714Y-5979500D01*
X20948711Y-5979498D01*
X20948710Y-5979497D01*
X20948709Y-5979496D01*
X20834589Y-5913609D01*
X20834591Y-5913609D01*
X20785199Y-5900375D01*
X20707292Y-5879500D01*
X20707290Y-5879500D01*
X19096887Y-5879500D01*
X19038696Y-5860593D01*
X19008677Y-5825445D01*
X18983997Y-5777008D01*
X18983996Y-5777006D01*
X18877553Y-5630499D01*
X18749501Y-5502447D01*
X18602994Y-5396004D01*
X18602993Y-5396003D01*
X18602991Y-5396002D01*
X18441637Y-5313788D01*
X18269406Y-5257828D01*
X18090549Y-5229500D01*
X18090546Y-5229500D01*
X17909454Y-5229500D01*
X17909451Y-5229500D01*
X17730593Y-5257828D01*
X17558362Y-5313788D01*
X17397008Y-5396002D01*
X17323752Y-5449225D01*
X17250499Y-5502447D01*
X17122447Y-5630499D01*
X17069225Y-5703752D01*
X17016002Y-5777008D01*
X16933788Y-5938362D01*
X16877828Y-6110593D01*
X16849500Y-6289450D01*
X16849500Y-6470549D01*
X16877828Y-6649406D01*
X16933788Y-6821637D01*
X17002465Y-6956424D01*
X17016004Y-6982994D01*
X17122447Y-7129501D01*
X17250499Y-7257553D01*
X17397006Y-7363996D01*
X17558361Y-7446211D01*
X17730591Y-7502171D01*
X17802136Y-7513502D01*
X17909451Y-7530500D01*
X17909454Y-7530500D01*
X18090549Y-7530500D01*
X18179977Y-7516335D01*
X18269409Y-7502171D01*
X18441639Y-7446211D01*
X18602994Y-7363996D01*
X18749501Y-7257553D01*
X18877553Y-7129501D01*
X18983996Y-6982994D01*
X19008677Y-6934554D01*
X19051942Y-6891290D01*
X19096887Y-6880500D01*
X20393078Y-6880500D01*
X20451269Y-6899407D01*
X20463082Y-6909496D01*
X21615704Y-8062118D01*
X21643481Y-8116635D01*
X21644700Y-8132122D01*
X21644700Y-11491808D01*
X21644700Y-11623592D01*
X21652335Y-11652085D01*
X21678809Y-11750890D01*
X21744696Y-11865009D01*
X21744700Y-11865014D01*
X22195504Y-12315819D01*
X22223281Y-12370335D01*
X22224500Y-12385822D01*
X22224500Y-12989357D01*
X22224501Y-12989361D01*
X22239955Y-13106758D01*
X22239957Y-13106766D01*
X22300462Y-13252838D01*
X22300462Y-13252839D01*
X22396439Y-13377919D01*
X22396718Y-13378282D01*
X22522159Y-13474536D01*
X22525882Y-13476078D01*
X22572409Y-13515811D01*
X22587000Y-13567543D01*
X22587000Y-14897100D01*
X22568093Y-14955291D01*
X22525887Y-14988563D01*
X22497163Y-15000461D01*
X22497157Y-15000464D01*
X22371723Y-15096713D01*
X22371713Y-15096723D01*
X22275462Y-15222160D01*
X22275462Y-15222161D01*
X22214957Y-15368233D01*
X22214955Y-15368241D01*
X22199500Y-15485637D01*
X22199500Y-15900500D01*
X22180593Y-15958691D01*
X22131093Y-15994655D01*
X22100500Y-15999500D01*
X13303003Y-15999500D01*
X13244812Y-15980593D01*
X13214793Y-15945445D01*
X13176761Y-15870803D01*
X13152876Y-15837928D01*
X13065690Y-15717927D01*
X12932073Y-15584310D01*
X12779199Y-15473240D01*
X12779198Y-15473239D01*
X12779196Y-15473238D01*
X12611334Y-15387709D01*
X12568069Y-15344444D01*
X12558498Y-15284012D01*
X12586275Y-15229496D01*
X12640792Y-15201718D01*
X12656279Y-15200499D01*
X12789358Y-15200499D01*
X12789360Y-15200499D01*
X12906762Y-15185044D01*
X13052841Y-15124536D01*
X13178282Y-15028282D01*
X13274536Y-14902841D01*
X13335044Y-14756762D01*
X13350500Y-14639361D01*
X13350500Y-14599500D01*
X13369407Y-14541309D01*
X13418907Y-14505345D01*
X13449500Y-14500500D01*
X16903113Y-14500500D01*
X16961304Y-14519407D01*
X16991323Y-14554555D01*
X17015332Y-14601677D01*
X17016004Y-14602994D01*
X17122447Y-14749501D01*
X17250499Y-14877553D01*
X17397006Y-14983996D01*
X17558361Y-15066211D01*
X17730591Y-15122171D01*
X17802136Y-15133502D01*
X17909451Y-15150500D01*
X17909454Y-15150500D01*
X18090549Y-15150500D01*
X18179977Y-15136335D01*
X18269409Y-15122171D01*
X18441639Y-15066211D01*
X18602994Y-14983996D01*
X18749501Y-14877553D01*
X18877553Y-14749501D01*
X18983996Y-14602994D01*
X19066211Y-14441639D01*
X19122171Y-14269409D01*
X19150500Y-14090546D01*
X19150500Y-13909454D01*
X19150500Y-13909450D01*
X19122171Y-13730593D01*
X19122171Y-13730591D01*
X19066211Y-13558361D01*
X18983996Y-13397006D01*
X18877553Y-13250499D01*
X18749501Y-13122447D01*
X18602994Y-13016004D01*
X18602993Y-13016003D01*
X18602991Y-13016002D01*
X18441637Y-12933788D01*
X18269406Y-12877828D01*
X18090549Y-12849500D01*
X18090546Y-12849500D01*
X17909454Y-12849500D01*
X17909451Y-12849500D01*
X17730593Y-12877828D01*
X17558362Y-12933788D01*
X17397008Y-13016002D01*
X17345755Y-13053240D01*
X17250499Y-13122447D01*
X17122447Y-13250499D01*
X17102582Y-13277841D01*
X17016002Y-13397008D01*
X16991323Y-13445445D01*
X16948058Y-13488710D01*
X16903113Y-13499500D01*
X13449499Y-13499500D01*
X13391308Y-13480593D01*
X13355344Y-13431093D01*
X13350499Y-13400500D01*
X13350499Y-13360642D01*
X13350499Y-13360640D01*
X13335044Y-13243238D01*
X13302351Y-13164310D01*
X13274537Y-13097161D01*
X13274537Y-13097160D01*
X13178286Y-12971723D01*
X13178285Y-12971722D01*
X13178282Y-12971718D01*
X13178277Y-12971714D01*
X13178276Y-12971713D01*
X13082484Y-12898210D01*
X13052841Y-12875464D01*
X13052840Y-12875463D01*
X13052838Y-12875462D01*
X12906766Y-12814957D01*
X12906758Y-12814955D01*
X12789361Y-12799500D01*
X11210642Y-12799500D01*
X11210637Y-12799501D01*
X11093241Y-12814955D01*
X11093233Y-12814957D01*
X10947161Y-12875462D01*
X10947160Y-12875462D01*
X10821723Y-12971713D01*
X10821713Y-12971723D01*
X10725462Y-13097160D01*
X10725462Y-13097161D01*
X10664957Y-13243233D01*
X10664955Y-13243241D01*
X10649500Y-13360637D01*
X10649500Y-14601677D01*
X10630593Y-14659868D01*
X10620504Y-14671680D01*
X10335686Y-14956499D01*
X10242500Y-15049685D01*
X10242496Y-15049690D01*
X10176609Y-15163809D01*
X10166778Y-15200499D01*
X10142500Y-15291108D01*
X10142500Y-16975108D01*
X10142500Y-17106892D01*
X10153614Y-17148371D01*
X10176609Y-17234190D01*
X10242496Y-17348309D01*
X10242497Y-17348310D01*
X10242498Y-17348311D01*
X10242500Y-17348314D01*
X13201500Y-20307314D01*
X13201499Y-20307314D01*
X13294685Y-20400499D01*
X13294690Y-20400503D01*
X13408810Y-20466390D01*
X13408808Y-20466390D01*
X13408812Y-20466391D01*
X13408814Y-20466392D01*
X13536108Y-20500500D01*
X16139146Y-20500500D01*
X16197337Y-20519407D01*
X16233301Y-20568907D01*
X16233487Y-20569488D01*
X16236151Y-20577864D01*
X16239956Y-20606762D01*
X16263186Y-20662846D01*
X16264461Y-20666852D01*
X16264297Y-20693451D01*
X16266384Y-20719977D01*
X16264110Y-20723686D01*
X16264084Y-20728036D01*
X16248316Y-20749459D01*
X16234414Y-20772145D01*
X16228590Y-20776261D01*
X16227816Y-20777313D01*
X16226517Y-20777726D01*
X16219623Y-20782599D01*
X16206288Y-20790298D01*
X10307486Y-26689100D01*
X10307485Y-26689099D01*
X10214300Y-26782285D01*
X10214296Y-26782290D01*
X10148409Y-26896409D01*
X10136610Y-26940444D01*
X10114300Y-27023708D01*
X500500Y-27023708D01*
X500500Y-4378710D01*
X2649500Y-4378710D01*
X2649500Y-4621289D01*
X2681161Y-4861781D01*
X2681161Y-4861786D01*
X2743944Y-5096092D01*
X2743948Y-5096105D01*
X2836772Y-5320204D01*
X2836774Y-5320208D01*
X2836776Y-5320212D01*
X2941991Y-5502449D01*
X2958066Y-5530292D01*
X3105729Y-5722731D01*
X3105731Y-5722733D01*
X3105735Y-5722738D01*
X3277262Y-5894265D01*
X3277266Y-5894268D01*
X3277268Y-5894270D01*
X3469707Y-6041933D01*
X3469711Y-6041936D01*
X3679788Y-6163224D01*
X3903900Y-6256054D01*
X4138211Y-6318838D01*
X4378712Y-6350500D01*
X4378713Y-6350500D01*
X4621287Y-6350500D01*
X4621288Y-6350500D01*
X4861789Y-6318838D01*
X5096100Y-6256054D01*
X5320212Y-6163224D01*
X5530289Y-6041936D01*
X5722738Y-5894265D01*
X5894265Y-5722738D01*
X6041936Y-5530289D01*
X6163224Y-5320212D01*
X6256054Y-5096100D01*
X6318838Y-4861789D01*
X6350500Y-4621288D01*
X6350500Y-4378712D01*
X6318838Y-4138211D01*
X6256054Y-3903900D01*
X6178391Y-3716406D01*
X6163227Y-3679795D01*
X6163226Y-3679794D01*
X6163224Y-3679788D01*
X6041936Y-3469711D01*
X5912648Y-3301219D01*
X5894270Y-3277268D01*
X5894268Y-3277266D01*
X5894265Y-3277262D01*
X5722738Y-3105735D01*
X5722733Y-3105731D01*
X5722731Y-3105729D01*
X5530292Y-2958066D01*
X5530289Y-2958064D01*
X5320212Y-2836776D01*
X5320208Y-2836774D01*
X5320204Y-2836772D01*
X5096105Y-2743948D01*
X5096104Y-2743947D01*
X5096100Y-2743946D01*
X4861789Y-2681162D01*
X4861786Y-2681161D01*
X4861784Y-2681161D01*
X4621289Y-2649500D01*
X4621288Y-2649500D01*
X4378712Y-2649500D01*
X4378710Y-2649500D01*
X4138218Y-2681161D01*
X4138213Y-2681161D01*
X3903907Y-2743944D01*
X3903894Y-2743948D01*
X3679795Y-2836772D01*
X3469707Y-2958066D01*
X3277268Y-3105729D01*
X3105729Y-3277268D01*
X2958066Y-3469707D01*
X2836772Y-3679795D01*
X2743948Y-3903894D01*
X2743944Y-3903907D01*
X2681161Y-4138213D01*
X2681161Y-4138218D01*
X2649500Y-4378710D01*
X500500Y-4378710D01*
X500500Y-599500D01*
X519407Y-541309D01*
X568907Y-505345D01*
X599500Y-500500D01*
X89400500Y-500500D01*
X89458691Y-519407D01*
G37*
%TD.AperFunction*%
%TD*%
M02*
