M48
; DRILL file {KiCad 9.0.7} date 2026-09-26T15:32:39-0300
; FORMAT={-:-/ absolute / metric / decimal}
; #@! TF.CreationDate,2026-09-26T15:32:39-03:00
; #@! TF.GenerationSoftware,Kicad,Pcbnew,9.0.7
; #@! TF.FileFunction,Plated,1,2,PTH
FMAT,2
METRIC
; #@! TA.AperFunction,Plated,PTH,ViaDrill
T1C0.400
; #@! TA.AperFunction,Plated,PTH,ComponentDrill
T2C0.800
; #@! TA.AperFunction,Plated,PTH,ComponentDrill
T3C0.950
; #@! TA.AperFunction,Plated,PTH,ComponentDrill
T4C1.000
%
G90
G05
T1
X17.101Y-33.563
X60.231Y-35.657
X65.246Y-26.788
X66.05Y-57.663
T2
X18.0Y-6.38
X18.0Y-14.0
X70.0Y-7.5
X70.0Y-11.0
T3
X12.0Y-28.0
X12.0Y-30.5
X12.0Y-33.0
X12.0Y-35.5
X12.0Y-38.0
X12.0Y-40.5
X12.0Y-43.0
X12.0Y-45.5
X12.0Y-54.0
X12.0Y-56.5
X12.0Y-59.0
X80.0Y-46.0
X80.0Y-48.5
X80.0Y-51.0
X80.0Y-53.5
T4
X12.0Y-14.0
X12.0Y-16.5
X32.3Y-9.0
X32.3Y-11.54
X32.3Y-14.08
X32.3Y-16.62
X32.3Y-19.16
X32.3Y-21.7
X32.3Y-24.24
X32.3Y-26.78
X32.3Y-29.32
X32.3Y-31.86
X32.3Y-34.4
X32.3Y-36.94
X32.3Y-39.48
X32.3Y-42.02
X32.3Y-44.56
X32.3Y-47.1
X32.3Y-49.64
X32.3Y-52.18
X32.3Y-54.72
X32.3Y-57.26
X32.3Y-59.8
X32.3Y-62.34
X48.0Y-69.5
X50.5Y-69.5
X57.7Y-9.0
X57.7Y-11.54
X57.7Y-14.08
X57.7Y-16.62
X57.7Y-19.16
X57.7Y-21.7
X57.7Y-24.24
X57.7Y-26.78
X57.7Y-29.32
X57.7Y-31.86
X57.7Y-34.4
X57.7Y-36.94
X57.7Y-39.48
X57.7Y-42.02
X57.7Y-44.56
X57.7Y-47.1
X57.7Y-49.64
X57.7Y-52.18
X57.7Y-54.72
X57.7Y-57.26
X57.7Y-59.8
X57.7Y-62.34
X65.0Y-69.5
X67.5Y-69.5
X78.0Y-62.0
X80.0Y-8.0
X80.0Y-10.54
X80.0Y-13.08
X80.0Y-15.62
X80.0Y-18.16
X80.0Y-20.7
X80.0Y-23.24
X80.0Y-30.0
X80.0Y-32.54
X80.0Y-35.08
X80.0Y-37.62
X80.5Y-62.0
M30
