%TF.GenerationSoftware,KiCad,Pcbnew,9.0.7*%
%TF.CreationDate,2026-09-26T15:32:39-03:00*%
%TF.ProjectId,amemiya_main_node,616d656d-6979-4615-9f6d-61696e5f6e6f,rev?*%
%TF.SameCoordinates,Original*%
%TF.FileFunction,Paste,Top*%
%TF.FilePolarity,Positive*%
%FSLAX46Y46*%
G04 Gerber Fmt 4.6, Leading zero omitted, Abs format (unit mm)*
G04 Created by KiCad (PCBNEW 9.0.7) date 2026-09-26 15:32:39*
%MOMM*%
%LPD*%
G01*
G04 APERTURE LIST*
G04 Aperture macros list*
%AMRoundRect*
0 Rectangle with rounded corners*
0 $1 Rounding radius*
0 $2 $3 $4 $5 $6 $7 $8 $9 X,Y pos of 4 corners*
0 Add a 4 corners polygon primitive as box body*
4,1,4,$2,$3,$4,$5,$6,$7,$8,$9,$2,$3,0*
0 Add four circle primitives for the rounded corners*
1,1,$1+$1,$2,$3*
1,1,$1+$1,$4,$5*
1,1,$1+$1,$6,$7*
1,1,$1+$1,$8,$9*
0 Add four rect primitives between the rounded corners*
20,1,$1+$1,$2,$3,$4,$5,0*
20,1,$1+$1,$4,$5,$6,$7,0*
20,1,$1+$1,$6,$7,$8,$9,0*
20,1,$1+$1,$8,$9,$2,$3,0*%
G04 Aperture macros list end*
%ADD10RoundRect,0.250000X0.450000X-0.262500X0.450000X0.262500X-0.450000X0.262500X-0.450000X-0.262500X0*%
%ADD11RoundRect,0.112500X-0.187500X-0.112500X0.187500X-0.112500X0.187500X0.112500X-0.187500X0.112500X0*%
%ADD12RoundRect,0.250000X-0.262500X-0.450000X0.262500X-0.450000X0.262500X0.450000X-0.262500X0.450000X0*%
%ADD13RoundRect,0.250000X-0.250000X-0.475000X0.250000X-0.475000X0.250000X0.475000X-0.250000X0.475000X0*%
%ADD14RoundRect,0.250000X0.475000X-0.250000X0.475000X0.250000X-0.475000X0.250000X-0.475000X-0.250000X0*%
G04 APERTURE END LIST*
D10*
%TO.C,R_BAT2*%
X67000000Y-64912500D03*
X67000000Y-63087500D03*
%TD*%
D11*
%TO.C,D_AMP_HI*%
X22950000Y-23000000D03*
X25050000Y-23000000D03*
%TD*%
D12*
%TO.C,R_BUZ*%
X51087500Y-12000000D03*
X52912500Y-12000000D03*
%TD*%
D11*
%TO.C,D_AMP_LO*%
X26950000Y-23000000D03*
X29050000Y-23000000D03*
%TD*%
D13*
%TO.C,C_F*%
X23050000Y-20000000D03*
X24950000Y-20000000D03*
%TD*%
D12*
%TO.C,R_LED1*%
X73087500Y-46000000D03*
X74912500Y-46000000D03*
%TD*%
D13*
%TO.C,C_OLED*%
X73050000Y-31000000D03*
X74950000Y-31000000D03*
%TD*%
D14*
%TO.C,C_IN1*%
X43000000Y-64950000D03*
X43000000Y-63050000D03*
%TD*%
D12*
%TO.C,R_LED3*%
X73087500Y-51000000D03*
X74912500Y-51000000D03*
%TD*%
D13*
%TO.C,C_BIAS*%
X23050000Y-16000000D03*
X24950000Y-16000000D03*
%TD*%
D14*
%TO.C,C_IN2*%
X48000000Y-64950000D03*
X48000000Y-63050000D03*
%TD*%
D12*
%TO.C,R_PU_1W*%
X19087500Y-33000000D03*
X20912500Y-33000000D03*
%TD*%
%TO.C,R_PU_SCL*%
X19087500Y-40000000D03*
X20912500Y-40000000D03*
%TD*%
D13*
%TO.C,C_PROBE*%
X17050000Y-28000000D03*
X18950000Y-28000000D03*
%TD*%
D12*
%TO.C,R_S_TACHO*%
X17087500Y-57000000D03*
X18912500Y-57000000D03*
%TD*%
D13*
%TO.C,C_ESP2*%
X35550000Y-12500000D03*
X37450000Y-12500000D03*
%TD*%
%TO.C,C_ESP1*%
X35550000Y-9000000D03*
X37450000Y-9000000D03*
%TD*%
D12*
%TO.C,R_BIAS2*%
X23087500Y-12500000D03*
X24912500Y-12500000D03*
%TD*%
D13*
%TO.C,C_3V3_1*%
X31350000Y-3500000D03*
X33250000Y-3500000D03*
%TD*%
%TO.C,C_LORA_DEC*%
X69050000Y-19000000D03*
X70950000Y-19000000D03*
%TD*%
D12*
%TO.C,R_PU_SDA*%
X19087500Y-43000000D03*
X20912500Y-43000000D03*
%TD*%
%TO.C,R_LED2*%
X73087500Y-48500000D03*
X74912500Y-48500000D03*
%TD*%
%TO.C,R_F*%
X17087500Y-20000000D03*
X18912500Y-20000000D03*
%TD*%
%TO.C,R_PU_TACHO*%
X17087500Y-53000000D03*
X18912500Y-53000000D03*
%TD*%
D13*
%TO.C,C_BAT*%
X66050000Y-59000000D03*
X67950000Y-59000000D03*
%TD*%
%TO.C,C_3V3_2*%
X36050000Y-3500000D03*
X37950000Y-3500000D03*
%TD*%
D12*
%TO.C,R_BIAS1*%
X23087500Y-9000000D03*
X24912500Y-9000000D03*
%TD*%
D10*
%TO.C,R_BAT1*%
X63000000Y-64912500D03*
X63000000Y-63087500D03*
%TD*%
D13*
%TO.C,C_F_TACHO*%
X21050000Y-57000000D03*
X22950000Y-57000000D03*
%TD*%
M02*
