M48
; DRILL file {KiCad 9.0.7} date 2026-09-02T18:41:27-0300
; FORMAT={-:-/ absolute / metric / decimal}
; #@! TF.CreationDate,2026-09-02T18:41:27-03:00
; #@! TF.GenerationSoftware,Kicad,Pcbnew,9.0.7
; #@! TF.FileFunction,Plated,1,2,PTH
FMAT,2
METRIC
; #@! TA.AperFunction,Plated,PTH,ComponentDrill
T1C0.850
; #@! TA.AperFunction,Plated,PTH,ComponentDrill
T2C1.000
%
G90
G05
T1
X20.0Y-38.19
X20.0Y-45.81
T2
X12.0Y-9.14
X12.0Y-11.68
X12.0Y-14.22
X12.0Y-16.76
X12.0Y-19.3
X12.0Y-21.84
X12.0Y-28.46
X12.0Y-31.0
X12.0Y-33.54
X12.0Y-40.73
X12.0Y-43.27
X20.19Y-54.0
X22.73Y-54.0
X25.27Y-54.0
X27.81Y-54.0
X36.0Y-9.14
X36.0Y-11.68
X36.0Y-14.22
X36.0Y-16.76
X36.0Y-19.3
X36.0Y-21.84
X36.0Y-24.38
X36.0Y-26.92
X36.0Y-29.46
X36.0Y-32.0
X36.0Y-34.54
X36.0Y-37.08
X36.0Y-39.62
X36.0Y-42.16
X36.0Y-44.7
X36.0Y-47.24
X36.0Y-49.78
X36.0Y-52.32
X36.0Y-54.86
X46.73Y-54.0
X49.27Y-54.0
X61.4Y-9.14
X61.4Y-11.68
X61.4Y-14.22
X61.4Y-16.76
X61.4Y-19.3
X61.4Y-21.84
X61.4Y-24.38
X61.4Y-26.92
X61.4Y-29.46
X61.4Y-32.0
X61.4Y-34.54
X61.4Y-37.08
X61.4Y-39.62
X61.4Y-42.16
X61.4Y-44.7
X61.4Y-47.24
X61.4Y-49.78
X61.4Y-52.32
X61.4Y-54.86
X78.0Y-10.19
X78.0Y-12.73
X78.0Y-15.27
X78.0Y-17.81
X78.0Y-24.38
X78.0Y-26.92
X78.0Y-29.46
X78.0Y-32.0
X78.0Y-34.54
X78.0Y-37.08
X78.0Y-39.62
X78.0Y-42.16
M30
