ISO-10303-21;
HEADER;
/* Generated by software containing ST-Developer
 * from STEP Tools, Inc. (www.steptools.com) 
 */

FILE_DESCRIPTION(
/* description */ (''),
/* implementation_level */ '2;1');

FILE_NAME(
/* name */ '01_Gabinete_Corpo_Torre.step',
/* time_stamp */ '2026-09-21T23:35:06-03:00',
/* author */ (''),
/* organization */ (''),
/* preprocessor_version */ 'ST-DEVELOPER v20.2',
/* originating_system */ 'Autodesk Translation Framework v15.15.0.0',
/* authorisation */ '');

FILE_SCHEMA (('AUTOMOTIVE_DESIGN { 1 0 10303 214 3 1 1 }'));
ENDSEC;

DATA;
#10=MECHANICAL_DESIGN_GEOMETRIC_PRESENTATION_REPRESENTATION('',(#13),#1229);
#11=SHAPE_REPRESENTATION_RELATIONSHIP('SRR','None',#1236,#12);
#12=ADVANCED_BREP_SHAPE_REPRESENTATION('',(#14),#1228);
#13=STYLED_ITEM('',(#1246),#14);
#14=MANIFOLD_SOLID_BREP('Corpo_Usinado_Torre',#701);
#15=FACE_BOUND('',#89,.T.);
#16=FACE_BOUND('',#90,.T.);
#17=FACE_BOUND('',#91,.T.);
#18=FACE_BOUND('',#92,.T.);
#19=FACE_BOUND('',#93,.T.);
#20=FACE_BOUND('',#110,.T.);
#21=FACE_BOUND('',#130,.T.);
#22=FACE_BOUND('',#132,.T.);
#23=FACE_BOUND('',#134,.T.);
#24=FACE_BOUND('',#136,.T.);
#25=FACE_BOUND('',#137,.T.);
#26=PLANE('',#718);
#27=PLANE('',#719);
#28=PLANE('',#739);
#29=PLANE('',#750);
#30=PLANE('',#753);
#31=PLANE('',#762);
#32=PLANE('',#765);
#33=PLANE('',#777);
#34=PLANE('',#781);
#35=PLANE('',#782);
#36=PLANE('',#785);
#37=PLANE('',#788);
#38=PLANE('',#791);
#39=PLANE('',#794);
#40=PLANE('',#795);
#41=PLANE('',#796);
#42=PLANE('',#797);
#43=PLANE('',#798);
#44=PLANE('',#799);
#45=FACE_OUTER_BOUND('',#86,.T.);
#46=FACE_OUTER_BOUND('',#87,.T.);
#47=FACE_OUTER_BOUND('',#88,.T.);
#48=FACE_OUTER_BOUND('',#94,.T.);
#49=FACE_OUTER_BOUND('',#95,.T.);
#50=FACE_OUTER_BOUND('',#96,.T.);
#51=FACE_OUTER_BOUND('',#97,.T.);
#52=FACE_OUTER_BOUND('',#98,.T.);
#53=FACE_OUTER_BOUND('',#99,.T.);
#54=FACE_OUTER_BOUND('',#100,.T.);
#55=FACE_OUTER_BOUND('',#101,.T.);
#56=FACE_OUTER_BOUND('',#102,.T.);
#57=FACE_OUTER_BOUND('',#103,.T.);
#58=FACE_OUTER_BOUND('',#104,.T.);
#59=FACE_OUTER_BOUND('',#105,.T.);
#60=FACE_OUTER_BOUND('',#106,.T.);
#61=FACE_OUTER_BOUND('',#107,.T.);
#62=FACE_OUTER_BOUND('',#108,.T.);
#63=FACE_OUTER_BOUND('',#109,.T.);
#64=FACE_OUTER_BOUND('',#111,.T.);
#65=FACE_OUTER_BOUND('',#112,.T.);
#66=FACE_OUTER_BOUND('',#113,.T.);
#67=FACE_OUTER_BOUND('',#114,.T.);
#68=FACE_OUTER_BOUND('',#115,.T.);
#69=FACE_OUTER_BOUND('',#116,.T.);
#70=FACE_OUTER_BOUND('',#117,.T.);
#71=FACE_OUTER_BOUND('',#118,.T.);
#72=FACE_OUTER_BOUND('',#119,.T.);
#73=FACE_OUTER_BOUND('',#120,.T.);
#74=FACE_OUTER_BOUND('',#121,.T.);
#75=FACE_OUTER_BOUND('',#122,.T.);
#76=FACE_OUTER_BOUND('',#123,.T.);
#77=FACE_OUTER_BOUND('',#124,.T.);
#78=FACE_OUTER_BOUND('',#125,.T.);
#79=FACE_OUTER_BOUND('',#126,.T.);
#80=FACE_OUTER_BOUND('',#127,.T.);
#81=FACE_OUTER_BOUND('',#128,.T.);
#82=FACE_OUTER_BOUND('',#129,.T.);
#83=FACE_OUTER_BOUND('',#131,.T.);
#84=FACE_OUTER_BOUND('',#133,.T.);
#85=FACE_OUTER_BOUND('',#135,.T.);
#86=EDGE_LOOP('',(#446,#447,#448,#449));
#87=EDGE_LOOP('',(#450,#451,#452,#453));
#88=EDGE_LOOP('',(#454,#455,#456,#457,#458,#459,#460,#461));
#89=EDGE_LOOP('',(#462));
#90=EDGE_LOOP('',(#463,#464,#465,#466,#467,#468,#469,#470,#471,#472,#473,
#474,#475,#476,#477,#478));
#91=EDGE_LOOP('',(#479));
#92=EDGE_LOOP('',(#480));
#93=EDGE_LOOP('',(#481));
#94=EDGE_LOOP('',(#482,#483,#484,#485));
#95=EDGE_LOOP('',(#486,#487,#488,#489));
#96=EDGE_LOOP('',(#490,#491,#492,#493));
#97=EDGE_LOOP('',(#494,#495,#496,#497));
#98=EDGE_LOOP('',(#498,#499,#500,#501));
#99=EDGE_LOOP('',(#502,#503,#504,#505));
#100=EDGE_LOOP('',(#506,#507,#508,#509));
#101=EDGE_LOOP('',(#510,#511,#512,#513));
#102=EDGE_LOOP('',(#514,#515,#516,#517));
#103=EDGE_LOOP('',(#518,#519,#520,#521));
#104=EDGE_LOOP('',(#522,#523,#524,#525));
#105=EDGE_LOOP('',(#526,#527,#528,#529));
#106=EDGE_LOOP('',(#530,#531,#532,#533));
#107=EDGE_LOOP('',(#534,#535,#536,#537));
#108=EDGE_LOOP('',(#538,#539,#540,#541,#542,#543,#544,#545,#546,#547,#548,
#549,#550,#551,#552,#553));
#109=EDGE_LOOP('',(#554,#555,#556,#557));
#110=EDGE_LOOP('',(#558));
#111=EDGE_LOOP('',(#559,#560,#561,#562));
#112=EDGE_LOOP('',(#563,#564,#565,#566));
#113=EDGE_LOOP('',(#567,#568,#569,#570));
#114=EDGE_LOOP('',(#571,#572,#573,#574));
#115=EDGE_LOOP('',(#575,#576,#577,#578));
#116=EDGE_LOOP('',(#579));
#117=EDGE_LOOP('',(#580,#581,#582,#583));
#118=EDGE_LOOP('',(#584));
#119=EDGE_LOOP('',(#585));
#120=EDGE_LOOP('',(#586,#587,#588,#589));
#121=EDGE_LOOP('',(#590));
#122=EDGE_LOOP('',(#591,#592,#593,#594));
#123=EDGE_LOOP('',(#595));
#124=EDGE_LOOP('',(#596,#597,#598,#599));
#125=EDGE_LOOP('',(#600));
#126=EDGE_LOOP('',(#601,#602,#603,#604));
#127=EDGE_LOOP('',(#605,#606,#607,#608));
#128=EDGE_LOOP('',(#609,#610,#611,#612));
#129=EDGE_LOOP('',(#613,#614,#615,#616));
#130=EDGE_LOOP('',(#617));
#131=EDGE_LOOP('',(#618,#619,#620,#621));
#132=EDGE_LOOP('',(#622));
#133=EDGE_LOOP('',(#623,#624,#625,#626));
#134=EDGE_LOOP('',(#627));
#135=EDGE_LOOP('',(#628,#629,#630,#631,#632,#633,#634,#635));
#136=EDGE_LOOP('',(#636));
#137=EDGE_LOOP('',(#637));
#138=LINE('',#1030,#190);
#139=LINE('',#1033,#191);
#140=LINE('',#1036,#192);
#141=LINE('',#1038,#193);
#142=LINE('',#1039,#194);
#143=LINE('',#1045,#195);
#144=LINE('',#1049,#196);
#145=LINE('',#1053,#197);
#146=LINE('',#1056,#198);
#147=LINE('',#1064,#199);
#148=LINE('',#1068,#200);
#149=LINE('',#1072,#201);
#150=LINE('',#1080,#202);
#151=LINE('',#1084,#203);
#152=LINE('',#1094,#204);
#153=LINE('',#1097,#205);
#154=LINE('',#1100,#206);
#155=LINE('',#1101,#207);
#156=LINE('',#1104,#208);
#157=LINE('',#1107,#209);
#158=LINE('',#1112,#210);
#159=LINE('',#1115,#211);
#160=LINE('',#1120,#212);
#161=LINE('',#1123,#213);
#162=LINE('',#1126,#214);
#163=LINE('',#1127,#215);
#164=LINE('',#1130,#216);
#165=LINE('',#1133,#217);
#166=LINE('',#1136,#218);
#167=LINE('',#1137,#219);
#168=LINE('',#1141,#220);
#169=LINE('',#1144,#221);
#170=LINE('',#1149,#222);
#171=LINE('',#1153,#223);
#172=LINE('',#1156,#224);
#173=LINE('',#1159,#225);
#174=LINE('',#1161,#226);
#175=LINE('',#1164,#227);
#176=LINE('',#1166,#228);
#177=LINE('',#1170,#229);
#178=LINE('',#1172,#230);
#179=LINE('',#1173,#231);
#180=LINE('',#1178,#232);
#181=LINE('',#1183,#233);
#182=LINE('',#1188,#234);
#183=LINE('',#1195,#235);
#184=LINE('',#1202,#236);
#185=LINE('',#1207,#237);
#186=LINE('',#1212,#238);
#187=LINE('',#1217,#239);
#188=LINE('',#1222,#240);
#189=LINE('',#1224,#241);
#190=VECTOR('',#806,10.);
#191=VECTOR('',#809,10.);
#192=VECTOR('',#812,10.);
#193=VECTOR('',#813,10.);
#194=VECTOR('',#814,10.);
#195=VECTOR('',#819,10.);
#196=VECTOR('',#822,10.);
#197=VECTOR('',#825,10.);
#198=VECTOR('',#828,10.);
#199=VECTOR('',#835,10.);
#200=VECTOR('',#838,10.);
#201=VECTOR('',#841,10.);
#202=VECTOR('',#848,10.);
#203=VECTOR('',#851,10.);
#204=VECTOR('',#862,10.);
#205=VECTOR('',#865,10.);
#206=VECTOR('',#868,10.);
#207=VECTOR('',#869,10.);
#208=VECTOR('',#872,10.);
#209=VECTOR('',#875,10.);
#210=VECTOR('',#882,10.);
#211=VECTOR('',#885,10.);
#212=VECTOR('',#892,10.);
#213=VECTOR('',#895,10.);
#214=VECTOR('',#898,10.);
#215=VECTOR('',#899,10.);
#216=VECTOR('',#902,10.);
#217=VECTOR('',#905,10.);
#218=VECTOR('',#908,10.);
#219=VECTOR('',#909,10.);
#220=VECTOR('',#914,10.);
#221=VECTOR('',#917,10.);
#222=VECTOR('',#924,10.);
#223=VECTOR('',#929,10.);
#224=VECTOR('',#932,10.);
#225=VECTOR('',#935,10.);
#226=VECTOR('',#936,10.);
#227=VECTOR('',#939,10.);
#228=VECTOR('',#942,10.);
#229=VECTOR('',#947,10.);
#230=VECTOR('',#950,10.);
#231=VECTOR('',#951,10.);
#232=VECTOR('',#956,1.75);
#233=VECTOR('',#963,1.75);
#234=VECTOR('',#968,5.1);
#235=VECTOR('',#977,5.1);
#236=VECTOR('',#988,1.025);
#237=VECTOR('',#995,1.025);
#238=VECTOR('',#1002,1.025);
#239=VECTOR('',#1009,1.025);
#240=VECTOR('',#1018,10.);
#241=VECTOR('',#1021,10.);
#242=CIRCLE('',#716,2.);
#243=CIRCLE('',#717,2.);
#244=CIRCLE('',#720,2.);
#245=CIRCLE('',#721,2.);
#246=CIRCLE('',#722,2.);
#247=CIRCLE('',#723,2.);
#248=CIRCLE('',#724,1.025);
#249=CIRCLE('',#725,2.);
#250=CIRCLE('',#726,2.);
#251=CIRCLE('',#727,2.);
#252=CIRCLE('',#728,2.);
#253=CIRCLE('',#729,2.);
#254=CIRCLE('',#730,2.);
#255=CIRCLE('',#731,2.);
#256=CIRCLE('',#732,2.);
#257=CIRCLE('',#733,2.);
#258=CIRCLE('',#734,1.025);
#259=CIRCLE('',#735,1.025);
#260=CIRCLE('',#736,1.025);
#261=CIRCLE('',#738,2.);
#262=CIRCLE('',#741,2.);
#263=CIRCLE('',#743,2.);
#264=CIRCLE('',#745,2.);
#265=CIRCLE('',#747,2.);
#266=CIRCLE('',#749,2.);
#267=CIRCLE('',#752,2.);
#268=CIRCLE('',#755,2.);
#269=CIRCLE('',#757,2.);
#270=CIRCLE('',#759,2.);
#271=CIRCLE('',#761,2.);
#272=CIRCLE('',#763,2.);
#273=CIRCLE('',#764,2.);
#274=CIRCLE('',#766,1.75);
#275=CIRCLE('',#770,1.75);
#276=CIRCLE('',#771,1.75);
#277=CIRCLE('',#773,1.75);
#278=CIRCLE('',#775,5.1);
#279=CIRCLE('',#776,5.1);
#280=CIRCLE('',#779,5.1);
#281=CIRCLE('',#780,5.1);
#282=CIRCLE('',#783,1.025);
#283=CIRCLE('',#786,1.025);
#284=CIRCLE('',#789,1.025);
#285=CIRCLE('',#792,1.025);
#286=VERTEX_POINT('',#1026);
#287=VERTEX_POINT('',#1027);
#288=VERTEX_POINT('',#1029);
#289=VERTEX_POINT('',#1031);
#290=VERTEX_POINT('',#1035);
#291=VERTEX_POINT('',#1037);
#292=VERTEX_POINT('',#1041);
#293=VERTEX_POINT('',#1042);
#294=VERTEX_POINT('',#1044);
#295=VERTEX_POINT('',#1046);
#296=VERTEX_POINT('',#1048);
#297=VERTEX_POINT('',#1050);
#298=VERTEX_POINT('',#1052);
#299=VERTEX_POINT('',#1054);
#300=VERTEX_POINT('',#1057);
#301=VERTEX_POINT('',#1059);
#302=VERTEX_POINT('',#1061);
#303=VERTEX_POINT('',#1063);
#304=VERTEX_POINT('',#1065);
#305=VERTEX_POINT('',#1067);
#306=VERTEX_POINT('',#1069);
#307=VERTEX_POINT('',#1071);
#308=VERTEX_POINT('',#1073);
#309=VERTEX_POINT('',#1075);
#310=VERTEX_POINT('',#1077);
#311=VERTEX_POINT('',#1079);
#312=VERTEX_POINT('',#1081);
#313=VERTEX_POINT('',#1083);
#314=VERTEX_POINT('',#1086);
#315=VERTEX_POINT('',#1088);
#316=VERTEX_POINT('',#1090);
#317=VERTEX_POINT('',#1093);
#318=VERTEX_POINT('',#1095);
#319=VERTEX_POINT('',#1099);
#320=VERTEX_POINT('',#1103);
#321=VERTEX_POINT('',#1105);
#322=VERTEX_POINT('',#1111);
#323=VERTEX_POINT('',#1113);
#324=VERTEX_POINT('',#1119);
#325=VERTEX_POINT('',#1121);
#326=VERTEX_POINT('',#1125);
#327=VERTEX_POINT('',#1129);
#328=VERTEX_POINT('',#1131);
#329=VERTEX_POINT('',#1135);
#330=VERTEX_POINT('',#1139);
#331=VERTEX_POINT('',#1143);
#332=VERTEX_POINT('',#1147);
#333=VERTEX_POINT('',#1151);
#334=VERTEX_POINT('',#1155);
#335=VERTEX_POINT('',#1157);
#336=VERTEX_POINT('',#1160);
#337=VERTEX_POINT('',#1162);
#338=VERTEX_POINT('',#1167);
#339=VERTEX_POINT('',#1175);
#340=VERTEX_POINT('',#1177);
#341=VERTEX_POINT('',#1181);
#342=VERTEX_POINT('',#1185);
#343=VERTEX_POINT('',#1187);
#344=VERTEX_POINT('',#1192);
#345=VERTEX_POINT('',#1194);
#346=VERTEX_POINT('',#1199);
#347=VERTEX_POINT('',#1204);
#348=VERTEX_POINT('',#1209);
#349=VERTEX_POINT('',#1214);
#350=EDGE_CURVE('',#286,#287,#242,.T.);
#351=EDGE_CURVE('',#287,#288,#138,.T.);
#352=EDGE_CURVE('',#288,#289,#243,.F.);
#353=EDGE_CURVE('',#289,#286,#139,.T.);
#354=EDGE_CURVE('',#290,#287,#140,.T.);
#355=EDGE_CURVE('',#291,#290,#141,.T.);
#356=EDGE_CURVE('',#291,#288,#142,.T.);
#357=EDGE_CURVE('',#292,#293,#244,.T.);
#358=EDGE_CURVE('',#292,#294,#143,.T.);
#359=EDGE_CURVE('',#295,#294,#245,.T.);
#360=EDGE_CURVE('',#295,#296,#144,.T.);
#361=EDGE_CURVE('',#297,#296,#246,.T.);
#362=EDGE_CURVE('',#297,#298,#145,.T.);
#363=EDGE_CURVE('',#299,#298,#247,.T.);
#364=EDGE_CURVE('',#299,#293,#146,.T.);
#365=EDGE_CURVE('',#300,#300,#248,.F.);
#366=EDGE_CURVE('',#286,#301,#249,.F.);
#367=EDGE_CURVE('',#302,#301,#250,.T.);
#368=EDGE_CURVE('',#302,#303,#147,.T.);
#369=EDGE_CURVE('',#303,#304,#251,.F.);
#370=EDGE_CURVE('',#304,#305,#148,.T.);
#371=EDGE_CURVE('',#305,#306,#252,.F.);
#372=EDGE_CURVE('',#306,#307,#149,.T.);
#373=EDGE_CURVE('',#308,#307,#253,.T.);
#374=EDGE_CURVE('',#308,#309,#254,.F.);
#375=EDGE_CURVE('',#310,#309,#255,.T.);
#376=EDGE_CURVE('',#310,#311,#150,.T.);
#377=EDGE_CURVE('',#311,#312,#256,.F.);
#378=EDGE_CURVE('',#312,#313,#151,.T.);
#379=EDGE_CURVE('',#313,#290,#257,.F.);
#380=EDGE_CURVE('',#314,#314,#258,.F.);
#381=EDGE_CURVE('',#315,#315,#259,.F.);
#382=EDGE_CURVE('',#316,#316,#260,.F.);
#383=EDGE_CURVE('',#307,#317,#152,.T.);
#384=EDGE_CURVE('',#317,#318,#261,.F.);
#385=EDGE_CURVE('',#318,#308,#153,.T.);
#386=EDGE_CURVE('',#319,#306,#154,.T.);
#387=EDGE_CURVE('',#319,#317,#155,.T.);
#388=EDGE_CURVE('',#301,#320,#156,.T.);
#389=EDGE_CURVE('',#320,#321,#262,.F.);
#390=EDGE_CURVE('',#321,#302,#157,.T.);
#391=EDGE_CURVE('',#320,#289,#263,.T.);
#392=EDGE_CURVE('',#309,#322,#158,.T.);
#393=EDGE_CURVE('',#322,#323,#264,.F.);
#394=EDGE_CURVE('',#323,#310,#159,.T.);
#395=EDGE_CURVE('',#322,#318,#265,.T.);
#396=EDGE_CURVE('',#293,#324,#160,.T.);
#397=EDGE_CURVE('',#324,#325,#266,.T.);
#398=EDGE_CURVE('',#325,#292,#161,.T.);
#399=EDGE_CURVE('',#326,#299,#162,.T.);
#400=EDGE_CURVE('',#326,#324,#163,.T.);
#401=EDGE_CURVE('',#294,#327,#164,.T.);
#402=EDGE_CURVE('',#327,#328,#267,.T.);
#403=EDGE_CURVE('',#328,#295,#165,.T.);
#404=EDGE_CURVE('',#328,#329,#166,.T.);
#405=EDGE_CURVE('',#296,#329,#167,.T.);
#406=EDGE_CURVE('',#329,#330,#268,.T.);
#407=EDGE_CURVE('',#330,#297,#168,.T.);
#408=EDGE_CURVE('',#298,#331,#169,.T.);
#409=EDGE_CURVE('',#331,#326,#269,.T.);
#410=EDGE_CURVE('',#291,#332,#270,.T.);
#411=EDGE_CURVE('',#313,#332,#170,.T.);
#412=EDGE_CURVE('',#319,#333,#271,.T.);
#413=EDGE_CURVE('',#305,#333,#171,.T.);
#414=EDGE_CURVE('',#334,#332,#172,.T.);
#415=EDGE_CURVE('',#334,#335,#272,.T.);
#416=EDGE_CURVE('',#323,#335,#173,.T.);
#417=EDGE_CURVE('',#336,#333,#174,.T.);
#418=EDGE_CURVE('',#336,#337,#273,.T.);
#419=EDGE_CURVE('',#321,#337,#175,.T.);
#420=EDGE_CURVE('',#336,#304,#176,.T.);
#421=EDGE_CURVE('',#338,#338,#274,.T.);
#422=EDGE_CURVE('',#303,#337,#177,.T.);
#423=EDGE_CURVE('',#334,#312,#178,.T.);
#424=EDGE_CURVE('',#311,#335,#179,.T.);
#425=EDGE_CURVE('',#339,#339,#275,.T.);
#426=EDGE_CURVE('',#339,#340,#180,.T.);
#427=EDGE_CURVE('',#340,#340,#276,.T.);
#428=EDGE_CURVE('',#341,#341,#277,.T.);
#429=EDGE_CURVE('',#341,#338,#181,.T.);
#430=EDGE_CURVE('',#342,#342,#278,.T.);
#431=EDGE_CURVE('',#342,#343,#182,.T.);
#432=EDGE_CURVE('',#343,#343,#279,.T.);
#433=EDGE_CURVE('',#344,#344,#280,.T.);
#434=EDGE_CURVE('',#344,#345,#183,.T.);
#435=EDGE_CURVE('',#345,#345,#281,.T.);
#436=EDGE_CURVE('',#346,#346,#282,.T.);
#437=EDGE_CURVE('',#315,#346,#184,.T.);
#438=EDGE_CURVE('',#347,#347,#283,.T.);
#439=EDGE_CURVE('',#314,#347,#185,.T.);
#440=EDGE_CURVE('',#348,#348,#284,.T.);
#441=EDGE_CURVE('',#316,#348,#186,.T.);
#442=EDGE_CURVE('',#349,#349,#285,.T.);
#443=EDGE_CURVE('',#300,#349,#187,.T.);
#444=EDGE_CURVE('',#330,#331,#188,.T.);
#445=EDGE_CURVE('',#325,#327,#189,.T.);
#446=ORIENTED_EDGE('',*,*,#350,.T.);
#447=ORIENTED_EDGE('',*,*,#351,.T.);
#448=ORIENTED_EDGE('',*,*,#352,.T.);
#449=ORIENTED_EDGE('',*,*,#353,.T.);
#450=ORIENTED_EDGE('',*,*,#351,.F.);
#451=ORIENTED_EDGE('',*,*,#354,.F.);
#452=ORIENTED_EDGE('',*,*,#355,.F.);
#453=ORIENTED_EDGE('',*,*,#356,.T.);
#454=ORIENTED_EDGE('',*,*,#357,.F.);
#455=ORIENTED_EDGE('',*,*,#358,.T.);
#456=ORIENTED_EDGE('',*,*,#359,.F.);
#457=ORIENTED_EDGE('',*,*,#360,.T.);
#458=ORIENTED_EDGE('',*,*,#361,.F.);
#459=ORIENTED_EDGE('',*,*,#362,.T.);
#460=ORIENTED_EDGE('',*,*,#363,.F.);
#461=ORIENTED_EDGE('',*,*,#364,.T.);
#462=ORIENTED_EDGE('',*,*,#365,.T.);
#463=ORIENTED_EDGE('',*,*,#350,.F.);
#464=ORIENTED_EDGE('',*,*,#366,.T.);
#465=ORIENTED_EDGE('',*,*,#367,.F.);
#466=ORIENTED_EDGE('',*,*,#368,.T.);
#467=ORIENTED_EDGE('',*,*,#369,.T.);
#468=ORIENTED_EDGE('',*,*,#370,.T.);
#469=ORIENTED_EDGE('',*,*,#371,.T.);
#470=ORIENTED_EDGE('',*,*,#372,.T.);
#471=ORIENTED_EDGE('',*,*,#373,.F.);
#472=ORIENTED_EDGE('',*,*,#374,.T.);
#473=ORIENTED_EDGE('',*,*,#375,.F.);
#474=ORIENTED_EDGE('',*,*,#376,.T.);
#475=ORIENTED_EDGE('',*,*,#377,.T.);
#476=ORIENTED_EDGE('',*,*,#378,.T.);
#477=ORIENTED_EDGE('',*,*,#379,.T.);
#478=ORIENTED_EDGE('',*,*,#354,.T.);
#479=ORIENTED_EDGE('',*,*,#380,.T.);
#480=ORIENTED_EDGE('',*,*,#381,.T.);
#481=ORIENTED_EDGE('',*,*,#382,.T.);
#482=ORIENTED_EDGE('',*,*,#373,.T.);
#483=ORIENTED_EDGE('',*,*,#383,.T.);
#484=ORIENTED_EDGE('',*,*,#384,.T.);
#485=ORIENTED_EDGE('',*,*,#385,.T.);
#486=ORIENTED_EDGE('',*,*,#383,.F.);
#487=ORIENTED_EDGE('',*,*,#372,.F.);
#488=ORIENTED_EDGE('',*,*,#386,.F.);
#489=ORIENTED_EDGE('',*,*,#387,.T.);
#490=ORIENTED_EDGE('',*,*,#367,.T.);
#491=ORIENTED_EDGE('',*,*,#388,.T.);
#492=ORIENTED_EDGE('',*,*,#389,.T.);
#493=ORIENTED_EDGE('',*,*,#390,.T.);
#494=ORIENTED_EDGE('',*,*,#353,.F.);
#495=ORIENTED_EDGE('',*,*,#391,.F.);
#496=ORIENTED_EDGE('',*,*,#388,.F.);
#497=ORIENTED_EDGE('',*,*,#366,.F.);
#498=ORIENTED_EDGE('',*,*,#375,.T.);
#499=ORIENTED_EDGE('',*,*,#392,.T.);
#500=ORIENTED_EDGE('',*,*,#393,.T.);
#501=ORIENTED_EDGE('',*,*,#394,.T.);
#502=ORIENTED_EDGE('',*,*,#385,.F.);
#503=ORIENTED_EDGE('',*,*,#395,.F.);
#504=ORIENTED_EDGE('',*,*,#392,.F.);
#505=ORIENTED_EDGE('',*,*,#374,.F.);
#506=ORIENTED_EDGE('',*,*,#357,.T.);
#507=ORIENTED_EDGE('',*,*,#396,.T.);
#508=ORIENTED_EDGE('',*,*,#397,.T.);
#509=ORIENTED_EDGE('',*,*,#398,.T.);
#510=ORIENTED_EDGE('',*,*,#396,.F.);
#511=ORIENTED_EDGE('',*,*,#364,.F.);
#512=ORIENTED_EDGE('',*,*,#399,.F.);
#513=ORIENTED_EDGE('',*,*,#400,.T.);
#514=ORIENTED_EDGE('',*,*,#359,.T.);
#515=ORIENTED_EDGE('',*,*,#401,.T.);
#516=ORIENTED_EDGE('',*,*,#402,.T.);
#517=ORIENTED_EDGE('',*,*,#403,.T.);
#518=ORIENTED_EDGE('',*,*,#403,.F.);
#519=ORIENTED_EDGE('',*,*,#404,.T.);
#520=ORIENTED_EDGE('',*,*,#405,.F.);
#521=ORIENTED_EDGE('',*,*,#360,.F.);
#522=ORIENTED_EDGE('',*,*,#361,.T.);
#523=ORIENTED_EDGE('',*,*,#405,.T.);
#524=ORIENTED_EDGE('',*,*,#406,.T.);
#525=ORIENTED_EDGE('',*,*,#407,.T.);
#526=ORIENTED_EDGE('',*,*,#363,.T.);
#527=ORIENTED_EDGE('',*,*,#408,.T.);
#528=ORIENTED_EDGE('',*,*,#409,.T.);
#529=ORIENTED_EDGE('',*,*,#399,.T.);
#530=ORIENTED_EDGE('',*,*,#410,.F.);
#531=ORIENTED_EDGE('',*,*,#355,.T.);
#532=ORIENTED_EDGE('',*,*,#379,.F.);
#533=ORIENTED_EDGE('',*,*,#411,.T.);
#534=ORIENTED_EDGE('',*,*,#412,.F.);
#535=ORIENTED_EDGE('',*,*,#386,.T.);
#536=ORIENTED_EDGE('',*,*,#371,.F.);
#537=ORIENTED_EDGE('',*,*,#413,.T.);
#538=ORIENTED_EDGE('',*,*,#391,.T.);
#539=ORIENTED_EDGE('',*,*,#352,.F.);
#540=ORIENTED_EDGE('',*,*,#356,.F.);
#541=ORIENTED_EDGE('',*,*,#410,.T.);
#542=ORIENTED_EDGE('',*,*,#414,.F.);
#543=ORIENTED_EDGE('',*,*,#415,.T.);
#544=ORIENTED_EDGE('',*,*,#416,.F.);
#545=ORIENTED_EDGE('',*,*,#393,.F.);
#546=ORIENTED_EDGE('',*,*,#395,.T.);
#547=ORIENTED_EDGE('',*,*,#384,.F.);
#548=ORIENTED_EDGE('',*,*,#387,.F.);
#549=ORIENTED_EDGE('',*,*,#412,.T.);
#550=ORIENTED_EDGE('',*,*,#417,.F.);
#551=ORIENTED_EDGE('',*,*,#418,.T.);
#552=ORIENTED_EDGE('',*,*,#419,.F.);
#553=ORIENTED_EDGE('',*,*,#389,.F.);
#554=ORIENTED_EDGE('',*,*,#413,.F.);
#555=ORIENTED_EDGE('',*,*,#370,.F.);
#556=ORIENTED_EDGE('',*,*,#420,.F.);
#557=ORIENTED_EDGE('',*,*,#417,.T.);
#558=ORIENTED_EDGE('',*,*,#421,.T.);
#559=ORIENTED_EDGE('',*,*,#418,.F.);
#560=ORIENTED_EDGE('',*,*,#420,.T.);
#561=ORIENTED_EDGE('',*,*,#369,.F.);
#562=ORIENTED_EDGE('',*,*,#422,.T.);
#563=ORIENTED_EDGE('',*,*,#415,.F.);
#564=ORIENTED_EDGE('',*,*,#423,.T.);
#565=ORIENTED_EDGE('',*,*,#377,.F.);
#566=ORIENTED_EDGE('',*,*,#424,.T.);
#567=ORIENTED_EDGE('',*,*,#425,.F.);
#568=ORIENTED_EDGE('',*,*,#426,.T.);
#569=ORIENTED_EDGE('',*,*,#427,.F.);
#570=ORIENTED_EDGE('',*,*,#426,.F.);
#571=ORIENTED_EDGE('',*,*,#428,.F.);
#572=ORIENTED_EDGE('',*,*,#429,.T.);
#573=ORIENTED_EDGE('',*,*,#421,.F.);
#574=ORIENTED_EDGE('',*,*,#429,.F.);
#575=ORIENTED_EDGE('',*,*,#430,.F.);
#576=ORIENTED_EDGE('',*,*,#431,.T.);
#577=ORIENTED_EDGE('',*,*,#432,.T.);
#578=ORIENTED_EDGE('',*,*,#431,.F.);
#579=ORIENTED_EDGE('',*,*,#432,.F.);
#580=ORIENTED_EDGE('',*,*,#433,.F.);
#581=ORIENTED_EDGE('',*,*,#434,.T.);
#582=ORIENTED_EDGE('',*,*,#435,.T.);
#583=ORIENTED_EDGE('',*,*,#434,.F.);
#584=ORIENTED_EDGE('',*,*,#435,.F.);
#585=ORIENTED_EDGE('',*,*,#436,.T.);
#586=ORIENTED_EDGE('',*,*,#381,.F.);
#587=ORIENTED_EDGE('',*,*,#437,.T.);
#588=ORIENTED_EDGE('',*,*,#436,.F.);
#589=ORIENTED_EDGE('',*,*,#437,.F.);
#590=ORIENTED_EDGE('',*,*,#438,.T.);
#591=ORIENTED_EDGE('',*,*,#380,.F.);
#592=ORIENTED_EDGE('',*,*,#439,.T.);
#593=ORIENTED_EDGE('',*,*,#438,.F.);
#594=ORIENTED_EDGE('',*,*,#439,.F.);
#595=ORIENTED_EDGE('',*,*,#440,.F.);
#596=ORIENTED_EDGE('',*,*,#382,.F.);
#597=ORIENTED_EDGE('',*,*,#441,.T.);
#598=ORIENTED_EDGE('',*,*,#440,.T.);
#599=ORIENTED_EDGE('',*,*,#441,.F.);
#600=ORIENTED_EDGE('',*,*,#442,.T.);
#601=ORIENTED_EDGE('',*,*,#365,.F.);
#602=ORIENTED_EDGE('',*,*,#443,.T.);
#603=ORIENTED_EDGE('',*,*,#442,.F.);
#604=ORIENTED_EDGE('',*,*,#443,.F.);
#605=ORIENTED_EDGE('',*,*,#394,.F.);
#606=ORIENTED_EDGE('',*,*,#416,.T.);
#607=ORIENTED_EDGE('',*,*,#424,.F.);
#608=ORIENTED_EDGE('',*,*,#376,.F.);
#609=ORIENTED_EDGE('',*,*,#390,.F.);
#610=ORIENTED_EDGE('',*,*,#419,.T.);
#611=ORIENTED_EDGE('',*,*,#422,.F.);
#612=ORIENTED_EDGE('',*,*,#368,.F.);
#613=ORIENTED_EDGE('',*,*,#411,.F.);
#614=ORIENTED_EDGE('',*,*,#378,.F.);
#615=ORIENTED_EDGE('',*,*,#423,.F.);
#616=ORIENTED_EDGE('',*,*,#414,.T.);
#617=ORIENTED_EDGE('',*,*,#425,.T.);
#618=ORIENTED_EDGE('',*,*,#407,.F.);
#619=ORIENTED_EDGE('',*,*,#444,.T.);
#620=ORIENTED_EDGE('',*,*,#408,.F.);
#621=ORIENTED_EDGE('',*,*,#362,.F.);
#622=ORIENTED_EDGE('',*,*,#427,.T.);
#623=ORIENTED_EDGE('',*,*,#398,.F.);
#624=ORIENTED_EDGE('',*,*,#445,.T.);
#625=ORIENTED_EDGE('',*,*,#401,.F.);
#626=ORIENTED_EDGE('',*,*,#358,.F.);
#627=ORIENTED_EDGE('',*,*,#428,.T.);
#628=ORIENTED_EDGE('',*,*,#397,.F.);
#629=ORIENTED_EDGE('',*,*,#400,.F.);
#630=ORIENTED_EDGE('',*,*,#409,.F.);
#631=ORIENTED_EDGE('',*,*,#444,.F.);
#632=ORIENTED_EDGE('',*,*,#406,.F.);
#633=ORIENTED_EDGE('',*,*,#404,.F.);
#634=ORIENTED_EDGE('',*,*,#402,.F.);
#635=ORIENTED_EDGE('',*,*,#445,.F.);
#636=ORIENTED_EDGE('',*,*,#430,.T.);
#637=ORIENTED_EDGE('',*,*,#433,.T.);
#638=CYLINDRICAL_SURFACE('',#715,2.);
#639=CYLINDRICAL_SURFACE('',#737,2.);
#640=CYLINDRICAL_SURFACE('',#740,2.);
#641=CYLINDRICAL_SURFACE('',#742,2.);
#642=CYLINDRICAL_SURFACE('',#744,2.);
#643=CYLINDRICAL_SURFACE('',#746,2.);
#644=CYLINDRICAL_SURFACE('',#748,2.);
#645=CYLINDRICAL_SURFACE('',#751,2.);
#646=CYLINDRICAL_SURFACE('',#754,2.);
#647=CYLINDRICAL_SURFACE('',#756,2.);
#648=CYLINDRICAL_SURFACE('',#758,2.);
#649=CYLINDRICAL_SURFACE('',#760,2.);
#650=CYLINDRICAL_SURFACE('',#767,2.);
#651=CYLINDRICAL_SURFACE('',#768,2.);
#652=CYLINDRICAL_SURFACE('',#769,1.75);
#653=CYLINDRICAL_SURFACE('',#772,1.75);
#654=CYLINDRICAL_SURFACE('',#774,5.1);
#655=CYLINDRICAL_SURFACE('',#778,5.1);
#656=CYLINDRICAL_SURFACE('',#784,1.025);
#657=CYLINDRICAL_SURFACE('',#787,1.025);
#658=CYLINDRICAL_SURFACE('',#790,1.025);
#659=CYLINDRICAL_SURFACE('',#793,1.025);
#660=ADVANCED_FACE('',(#45),#638,.T.);
#661=ADVANCED_FACE('',(#46),#26,.F.);
#662=ADVANCED_FACE('',(#47,#15,#16,#17,#18,#19),#27,.T.);
#663=ADVANCED_FACE('',(#48),#639,.T.);
#664=ADVANCED_FACE('',(#49),#28,.F.);
#665=ADVANCED_FACE('',(#50),#640,.T.);
#666=ADVANCED_FACE('',(#51),#641,.F.);
#667=ADVANCED_FACE('',(#52),#642,.T.);
#668=ADVANCED_FACE('',(#53),#643,.F.);
#669=ADVANCED_FACE('',(#54),#644,.T.);
#670=ADVANCED_FACE('',(#55),#29,.T.);
#671=ADVANCED_FACE('',(#56),#645,.T.);
#672=ADVANCED_FACE('',(#57),#30,.T.);
#673=ADVANCED_FACE('',(#58),#646,.T.);
#674=ADVANCED_FACE('',(#59),#647,.T.);
#675=ADVANCED_FACE('',(#60),#648,.F.);
#676=ADVANCED_FACE('',(#61),#649,.F.);
#677=ADVANCED_FACE('',(#62),#31,.F.);
#678=ADVANCED_FACE('',(#63,#20),#32,.F.);
#679=ADVANCED_FACE('',(#64),#650,.F.);
#680=ADVANCED_FACE('',(#65),#651,.F.);
#681=ADVANCED_FACE('',(#66),#652,.F.);
#682=ADVANCED_FACE('',(#67),#653,.F.);
#683=ADVANCED_FACE('',(#68),#654,.F.);
#684=ADVANCED_FACE('',(#69),#33,.F.);
#685=ADVANCED_FACE('',(#70),#655,.F.);
#686=ADVANCED_FACE('',(#71),#34,.F.);
#687=ADVANCED_FACE('',(#72),#35,.T.);
#688=ADVANCED_FACE('',(#73),#656,.F.);
#689=ADVANCED_FACE('',(#74),#36,.T.);
#690=ADVANCED_FACE('',(#75),#657,.F.);
#691=ADVANCED_FACE('',(#76),#37,.T.);
#692=ADVANCED_FACE('',(#77),#658,.F.);
#693=ADVANCED_FACE('',(#78),#38,.T.);
#694=ADVANCED_FACE('',(#79),#659,.F.);
#695=ADVANCED_FACE('',(#80),#39,.F.);
#696=ADVANCED_FACE('',(#81),#40,.F.);
#697=ADVANCED_FACE('',(#82,#21),#41,.F.);
#698=ADVANCED_FACE('',(#83,#22),#42,.T.);
#699=ADVANCED_FACE('',(#84,#23),#43,.T.);
#700=ADVANCED_FACE('',(#85,#24,#25),#44,.F.);
#701=CLOSED_SHELL('',(#660,#661,#662,#663,#664,#665,#666,#667,#668,#669,
#670,#671,#672,#673,#674,#675,#676,#677,#678,#679,#680,#681,#682,#683,#684,
#685,#686,#687,#688,#689,#690,#691,#692,#693,#694,#695,#696,#697,#698,#699,
#700));
#702=DERIVED_UNIT_ELEMENT(#704,1.);
#703=DERIVED_UNIT_ELEMENT(#1231,-3.);
#704=(
MASS_UNIT()
NAMED_UNIT(*)
SI_UNIT(.KILO.,.GRAM.)
);
#705=DERIVED_UNIT((#702,#703));
#706=MEASURE_REPRESENTATION_ITEM('density measure',
POSITIVE_RATIO_MEASURE(7850.),#705);
#707=PROPERTY_DEFINITION_REPRESENTATION(#712,#709);
#708=PROPERTY_DEFINITION_REPRESENTATION(#713,#710);
#709=REPRESENTATION('material name',(#711),#1228);
#710=REPRESENTATION('density',(#706),#1228);
#711=DESCRIPTIVE_REPRESENTATION_ITEM('A\X\E7o','A\X\E7o');
#712=PROPERTY_DEFINITION('material property','material name',#1238);
#713=PROPERTY_DEFINITION('material property','density of part',#1238);
#714=AXIS2_PLACEMENT_3D('',#1024,#800,#801);
#715=AXIS2_PLACEMENT_3D('',#1025,#802,#803);
#716=AXIS2_PLACEMENT_3D('',#1028,#804,#805);
#717=AXIS2_PLACEMENT_3D('',#1032,#807,#808);
#718=AXIS2_PLACEMENT_3D('',#1034,#810,#811);
#719=AXIS2_PLACEMENT_3D('',#1040,#815,#816);
#720=AXIS2_PLACEMENT_3D('',#1043,#817,#818);
#721=AXIS2_PLACEMENT_3D('',#1047,#820,#821);
#722=AXIS2_PLACEMENT_3D('',#1051,#823,#824);
#723=AXIS2_PLACEMENT_3D('',#1055,#826,#827);
#724=AXIS2_PLACEMENT_3D('',#1058,#829,#830);
#725=AXIS2_PLACEMENT_3D('',#1060,#831,#832);
#726=AXIS2_PLACEMENT_3D('',#1062,#833,#834);
#727=AXIS2_PLACEMENT_3D('',#1066,#836,#837);
#728=AXIS2_PLACEMENT_3D('',#1070,#839,#840);
#729=AXIS2_PLACEMENT_3D('',#1074,#842,#843);
#730=AXIS2_PLACEMENT_3D('',#1076,#844,#845);
#731=AXIS2_PLACEMENT_3D('',#1078,#846,#847);
#732=AXIS2_PLACEMENT_3D('',#1082,#849,#850);
#733=AXIS2_PLACEMENT_3D('',#1085,#852,#853);
#734=AXIS2_PLACEMENT_3D('',#1087,#854,#855);
#735=AXIS2_PLACEMENT_3D('',#1089,#856,#857);
#736=AXIS2_PLACEMENT_3D('',#1091,#858,#859);
#737=AXIS2_PLACEMENT_3D('',#1092,#860,#861);
#738=AXIS2_PLACEMENT_3D('',#1096,#863,#864);
#739=AXIS2_PLACEMENT_3D('',#1098,#866,#867);
#740=AXIS2_PLACEMENT_3D('',#1102,#870,#871);
#741=AXIS2_PLACEMENT_3D('',#1106,#873,#874);
#742=AXIS2_PLACEMENT_3D('',#1108,#876,#877);
#743=AXIS2_PLACEMENT_3D('',#1109,#878,#879);
#744=AXIS2_PLACEMENT_3D('',#1110,#880,#881);
#745=AXIS2_PLACEMENT_3D('',#1114,#883,#884);
#746=AXIS2_PLACEMENT_3D('',#1116,#886,#887);
#747=AXIS2_PLACEMENT_3D('',#1117,#888,#889);
#748=AXIS2_PLACEMENT_3D('',#1118,#890,#891);
#749=AXIS2_PLACEMENT_3D('',#1122,#893,#894);
#750=AXIS2_PLACEMENT_3D('',#1124,#896,#897);
#751=AXIS2_PLACEMENT_3D('',#1128,#900,#901);
#752=AXIS2_PLACEMENT_3D('',#1132,#903,#904);
#753=AXIS2_PLACEMENT_3D('',#1134,#906,#907);
#754=AXIS2_PLACEMENT_3D('',#1138,#910,#911);
#755=AXIS2_PLACEMENT_3D('',#1140,#912,#913);
#756=AXIS2_PLACEMENT_3D('',#1142,#915,#916);
#757=AXIS2_PLACEMENT_3D('',#1145,#918,#919);
#758=AXIS2_PLACEMENT_3D('',#1146,#920,#921);
#759=AXIS2_PLACEMENT_3D('',#1148,#922,#923);
#760=AXIS2_PLACEMENT_3D('',#1150,#925,#926);
#761=AXIS2_PLACEMENT_3D('',#1152,#927,#928);
#762=AXIS2_PLACEMENT_3D('',#1154,#930,#931);
#763=AXIS2_PLACEMENT_3D('',#1158,#933,#934);
#764=AXIS2_PLACEMENT_3D('',#1163,#937,#938);
#765=AXIS2_PLACEMENT_3D('',#1165,#940,#941);
#766=AXIS2_PLACEMENT_3D('',#1168,#943,#944);
#767=AXIS2_PLACEMENT_3D('',#1169,#945,#946);
#768=AXIS2_PLACEMENT_3D('',#1171,#948,#949);
#769=AXIS2_PLACEMENT_3D('',#1174,#952,#953);
#770=AXIS2_PLACEMENT_3D('',#1176,#954,#955);
#771=AXIS2_PLACEMENT_3D('',#1179,#957,#958);
#772=AXIS2_PLACEMENT_3D('',#1180,#959,#960);
#773=AXIS2_PLACEMENT_3D('',#1182,#961,#962);
#774=AXIS2_PLACEMENT_3D('',#1184,#964,#965);
#775=AXIS2_PLACEMENT_3D('',#1186,#966,#967);
#776=AXIS2_PLACEMENT_3D('',#1189,#969,#970);
#777=AXIS2_PLACEMENT_3D('',#1190,#971,#972);
#778=AXIS2_PLACEMENT_3D('',#1191,#973,#974);
#779=AXIS2_PLACEMENT_3D('',#1193,#975,#976);
#780=AXIS2_PLACEMENT_3D('',#1196,#978,#979);
#781=AXIS2_PLACEMENT_3D('',#1197,#980,#981);
#782=AXIS2_PLACEMENT_3D('',#1198,#982,#983);
#783=AXIS2_PLACEMENT_3D('',#1200,#984,#985);
#784=AXIS2_PLACEMENT_3D('',#1201,#986,#987);
#785=AXIS2_PLACEMENT_3D('',#1203,#989,#990);
#786=AXIS2_PLACEMENT_3D('',#1205,#991,#992);
#787=AXIS2_PLACEMENT_3D('',#1206,#993,#994);
#788=AXIS2_PLACEMENT_3D('',#1208,#996,#997);
#789=AXIS2_PLACEMENT_3D('',#1210,#998,#999);
#790=AXIS2_PLACEMENT_3D('',#1211,#1000,#1001);
#791=AXIS2_PLACEMENT_3D('',#1213,#1003,#1004);
#792=AXIS2_PLACEMENT_3D('',#1215,#1005,#1006);
#793=AXIS2_PLACEMENT_3D('',#1216,#1007,#1008);
#794=AXIS2_PLACEMENT_3D('',#1218,#1010,#1011);
#795=AXIS2_PLACEMENT_3D('',#1219,#1012,#1013);
#796=AXIS2_PLACEMENT_3D('',#1220,#1014,#1015);
#797=AXIS2_PLACEMENT_3D('',#1221,#1016,#1017);
#798=AXIS2_PLACEMENT_3D('',#1223,#1019,#1020);
#799=AXIS2_PLACEMENT_3D('',#1225,#1022,#1023);
#800=DIRECTION('axis',(0.,0.,1.));
#801=DIRECTION('refdir',(1.,0.,0.));
#802=DIRECTION('center_axis',(0.,0.,-1.));
#803=DIRECTION('ref_axis',(-0.986537956058279,-0.163532447105623,0.));
#804=DIRECTION('center_axis',(0.,0.,-1.));
#805=DIRECTION('ref_axis',(-0.986537956058279,-0.163532447105623,0.));
#806=DIRECTION('',(0.,0.,-1.));
#807=DIRECTION('center_axis',(0.,0.,-1.));
#808=DIRECTION('ref_axis',(-0.986537956058279,-0.163532447105623,0.));
#809=DIRECTION('',(0.,0.,1.));
#810=DIRECTION('center_axis',(1.,0.,0.));
#811=DIRECTION('ref_axis',(0.,-1.,0.));
#812=DIRECTION('',(0.,-1.,0.));
#813=DIRECTION('',(0.,0.,1.));
#814=DIRECTION('',(0.,-1.,0.));
#815=DIRECTION('center_axis',(0.,0.,1.));
#816=DIRECTION('ref_axis',(1.,0.,0.));
#817=DIRECTION('center_axis',(0.,0.,-1.));
#818=DIRECTION('ref_axis',(-0.707106781186548,-0.707106781186548,0.));
#819=DIRECTION('',(1.,0.,0.));
#820=DIRECTION('center_axis',(0.,0.,-1.));
#821=DIRECTION('ref_axis',(0.707106781186548,-0.707106781186548,0.));
#822=DIRECTION('',(0.,1.,0.));
#823=DIRECTION('center_axis',(0.,0.,-1.));
#824=DIRECTION('ref_axis',(0.707106781186548,0.707106781186548,0.));
#825=DIRECTION('',(-1.,0.,0.));
#826=DIRECTION('center_axis',(0.,0.,-1.));
#827=DIRECTION('ref_axis',(-0.707106781186548,0.707106781186548,0.));
#828=DIRECTION('',(0.,-1.,0.));
#829=DIRECTION('center_axis',(0.,0.,1.));
#830=DIRECTION('ref_axis',(1.,0.,0.));
#831=DIRECTION('center_axis',(0.,0.,1.));
#832=DIRECTION('ref_axis',(0.893028554974588,-0.45,0.));
#833=DIRECTION('center_axis',(0.,0.,-1.));
#834=DIRECTION('ref_axis',(-0.986537956058279,0.163532447105623,0.));
#835=DIRECTION('',(0.,-1.,0.));
#836=DIRECTION('center_axis',(0.,0.,1.));
#837=DIRECTION('ref_axis',(0.707106781186547,-0.707106781186548,0.));
#838=DIRECTION('',(-1.,0.,0.));
#839=DIRECTION('center_axis',(0.,0.,1.));
#840=DIRECTION('ref_axis',(-0.707106781186547,-0.707106781186548,0.));
#841=DIRECTION('',(0.,1.,0.));
#842=DIRECTION('center_axis',(0.,0.,-1.));
#843=DIRECTION('ref_axis',(0.986537956058279,0.163532447105623,0.));
#844=DIRECTION('center_axis',(0.,0.,1.));
#845=DIRECTION('ref_axis',(-0.893028554974588,0.45,0.));
#846=DIRECTION('center_axis',(0.,0.,-1.));
#847=DIRECTION('ref_axis',(0.986537956058279,-0.163532447105623,0.));
#848=DIRECTION('',(0.,1.,0.));
#849=DIRECTION('center_axis',(0.,0.,1.));
#850=DIRECTION('ref_axis',(-0.707106781186547,0.707106781186548,0.));
#851=DIRECTION('',(1.,0.,0.));
#852=DIRECTION('center_axis',(0.,0.,1.));
#853=DIRECTION('ref_axis',(0.707106781186547,0.707106781186548,0.));
#854=DIRECTION('center_axis',(0.,0.,1.));
#855=DIRECTION('ref_axis',(1.,0.,0.));
#856=DIRECTION('center_axis',(0.,0.,1.));
#857=DIRECTION('ref_axis',(1.,0.,0.));
#858=DIRECTION('center_axis',(0.,0.,1.));
#859=DIRECTION('ref_axis',(1.,0.,0.));
#860=DIRECTION('center_axis',(0.,0.,-1.));
#861=DIRECTION('ref_axis',(0.986537956058279,0.163532447105623,0.));
#862=DIRECTION('',(0.,0.,-1.));
#863=DIRECTION('center_axis',(0.,0.,-1.));
#864=DIRECTION('ref_axis',(0.986537956058279,0.163532447105623,0.));
#865=DIRECTION('',(0.,0.,1.));
#866=DIRECTION('center_axis',(-1.,0.,0.));
#867=DIRECTION('ref_axis',(0.,1.,0.));
#868=DIRECTION('',(0.,0.,1.));
#869=DIRECTION('',(0.,1.,0.));
#870=DIRECTION('center_axis',(0.,0.,-1.));
#871=DIRECTION('ref_axis',(-0.986537956058279,0.163532447105623,0.));
#872=DIRECTION('',(0.,0.,-1.));
#873=DIRECTION('center_axis',(0.,0.,-1.));
#874=DIRECTION('ref_axis',(-0.986537956058279,0.163532447105623,0.));
#875=DIRECTION('',(0.,0.,1.));
#876=DIRECTION('center_axis',(0.,0.,1.));
#877=DIRECTION('ref_axis',(0.893028554974588,-0.45,0.));
#878=DIRECTION('center_axis',(0.,0.,1.));
#879=DIRECTION('ref_axis',(0.893028554974588,-0.45,0.));
#880=DIRECTION('center_axis',(0.,0.,-1.));
#881=DIRECTION('ref_axis',(0.986537956058279,-0.163532447105623,0.));
#882=DIRECTION('',(0.,0.,-1.));
#883=DIRECTION('center_axis',(0.,0.,-1.));
#884=DIRECTION('ref_axis',(0.986537956058279,-0.163532447105623,0.));
#885=DIRECTION('',(0.,0.,1.));
#886=DIRECTION('center_axis',(0.,0.,1.));
#887=DIRECTION('ref_axis',(-0.893028554974588,0.45,0.));
#888=DIRECTION('center_axis',(0.,0.,1.));
#889=DIRECTION('ref_axis',(-0.893028554974588,0.45,0.));
#890=DIRECTION('center_axis',(0.,0.,1.));
#891=DIRECTION('ref_axis',(-0.707106781186548,-0.707106781186548,0.));
#892=DIRECTION('',(0.,0.,-1.));
#893=DIRECTION('center_axis',(0.,0.,1.));
#894=DIRECTION('ref_axis',(-0.707106781186548,-0.707106781186548,0.));
#895=DIRECTION('',(0.,0.,1.));
#896=DIRECTION('center_axis',(-1.,0.,0.));
#897=DIRECTION('ref_axis',(0.,-1.,0.));
#898=DIRECTION('',(0.,0.,1.));
#899=DIRECTION('',(0.,-1.,0.));
#900=DIRECTION('center_axis',(0.,0.,1.));
#901=DIRECTION('ref_axis',(0.707106781186548,-0.707106781186548,0.));
#902=DIRECTION('',(0.,0.,-1.));
#903=DIRECTION('center_axis',(0.,0.,1.));
#904=DIRECTION('ref_axis',(0.707106781186548,-0.707106781186548,0.));
#905=DIRECTION('',(0.,0.,1.));
#906=DIRECTION('center_axis',(1.,0.,0.));
#907=DIRECTION('ref_axis',(0.,1.,0.));
#908=DIRECTION('',(0.,1.,0.));
#909=DIRECTION('',(0.,0.,-1.));
#910=DIRECTION('center_axis',(0.,0.,1.));
#911=DIRECTION('ref_axis',(0.707106781186548,0.707106781186548,0.));
#912=DIRECTION('center_axis',(0.,0.,1.));
#913=DIRECTION('ref_axis',(0.707106781186548,0.707106781186548,0.));
#914=DIRECTION('',(0.,0.,1.));
#915=DIRECTION('center_axis',(0.,0.,1.));
#916=DIRECTION('ref_axis',(-0.707106781186548,0.707106781186548,0.));
#917=DIRECTION('',(0.,0.,-1.));
#918=DIRECTION('center_axis',(0.,0.,1.));
#919=DIRECTION('ref_axis',(-0.707106781186548,0.707106781186548,0.));
#920=DIRECTION('center_axis',(0.,0.,-1.));
#921=DIRECTION('ref_axis',(0.707106781186547,0.707106781186548,0.));
#922=DIRECTION('center_axis',(0.,0.,1.));
#923=DIRECTION('ref_axis',(0.707106781186547,0.707106781186548,0.));
#924=DIRECTION('',(0.,0.,-1.));
#925=DIRECTION('center_axis',(0.,0.,-1.));
#926=DIRECTION('ref_axis',(-0.707106781186547,-0.707106781186548,0.));
#927=DIRECTION('center_axis',(0.,0.,1.));
#928=DIRECTION('ref_axis',(-0.707106781186547,-0.707106781186548,0.));
#929=DIRECTION('',(0.,0.,-1.));
#930=DIRECTION('center_axis',(0.,0.,-1.));
#931=DIRECTION('ref_axis',(-1.,0.,0.));
#932=DIRECTION('',(1.,0.,0.));
#933=DIRECTION('center_axis',(0.,0.,1.));
#934=DIRECTION('ref_axis',(-0.707106781186547,0.707106781186548,0.));
#935=DIRECTION('',(0.,1.,0.));
#936=DIRECTION('',(-1.,0.,0.));
#937=DIRECTION('center_axis',(0.,0.,1.));
#938=DIRECTION('ref_axis',(0.707106781186547,-0.707106781186548,0.));
#939=DIRECTION('',(0.,-1.,0.));
#940=DIRECTION('center_axis',(0.,-1.,0.));
#941=DIRECTION('ref_axis',(-1.,0.,0.));
#942=DIRECTION('',(0.,0.,1.));
#943=DIRECTION('center_axis',(0.,-1.,0.));
#944=DIRECTION('ref_axis',(1.,0.,0.));
#945=DIRECTION('center_axis',(0.,0.,-1.));
#946=DIRECTION('ref_axis',(0.707106781186547,-0.707106781186548,0.));
#947=DIRECTION('',(0.,0.,-1.));
#948=DIRECTION('center_axis',(0.,0.,-1.));
#949=DIRECTION('ref_axis',(-0.707106781186547,0.707106781186548,0.));
#950=DIRECTION('',(0.,0.,1.));
#951=DIRECTION('',(0.,0.,-1.));
#952=DIRECTION('center_axis',(0.,1.,0.));
#953=DIRECTION('ref_axis',(1.,0.,0.));
#954=DIRECTION('center_axis',(0.,1.,0.));
#955=DIRECTION('ref_axis',(1.,0.,0.));
#956=DIRECTION('',(0.,1.,0.));
#957=DIRECTION('center_axis',(0.,-1.,0.));
#958=DIRECTION('ref_axis',(1.,0.,0.));
#959=DIRECTION('center_axis',(0.,1.,0.));
#960=DIRECTION('ref_axis',(1.,0.,0.));
#961=DIRECTION('center_axis',(0.,1.,0.));
#962=DIRECTION('ref_axis',(1.,0.,0.));
#963=DIRECTION('',(0.,1.,0.));
#964=DIRECTION('center_axis',(0.,0.,1.));
#965=DIRECTION('ref_axis',(1.,0.,0.));
#966=DIRECTION('center_axis',(0.,0.,1.));
#967=DIRECTION('ref_axis',(1.,0.,0.));
#968=DIRECTION('',(0.,0.,1.));
#969=DIRECTION('center_axis',(0.,0.,1.));
#970=DIRECTION('ref_axis',(1.,0.,0.));
#971=DIRECTION('center_axis',(0.,0.,1.));
#972=DIRECTION('ref_axis',(1.,0.,0.));
#973=DIRECTION('center_axis',(0.,0.,1.));
#974=DIRECTION('ref_axis',(1.,0.,0.));
#975=DIRECTION('center_axis',(0.,0.,1.));
#976=DIRECTION('ref_axis',(1.,0.,0.));
#977=DIRECTION('',(0.,0.,1.));
#978=DIRECTION('center_axis',(0.,0.,1.));
#979=DIRECTION('ref_axis',(1.,0.,0.));
#980=DIRECTION('center_axis',(0.,0.,1.));
#981=DIRECTION('ref_axis',(1.,0.,0.));
#982=DIRECTION('center_axis',(0.,0.,1.));
#983=DIRECTION('ref_axis',(1.,0.,0.));
#984=DIRECTION('center_axis',(0.,0.,1.));
#985=DIRECTION('ref_axis',(1.,0.,0.));
#986=DIRECTION('center_axis',(0.,0.,-1.));
#987=DIRECTION('ref_axis',(1.,0.,0.));
#988=DIRECTION('',(0.,0.,-1.));
#989=DIRECTION('center_axis',(0.,0.,1.));
#990=DIRECTION('ref_axis',(1.,0.,0.));
#991=DIRECTION('center_axis',(0.,0.,1.));
#992=DIRECTION('ref_axis',(1.,0.,0.));
#993=DIRECTION('center_axis',(0.,0.,-1.));
#994=DIRECTION('ref_axis',(1.,0.,0.));
#995=DIRECTION('',(0.,0.,-1.));
#996=DIRECTION('center_axis',(0.,0.,1.));
#997=DIRECTION('ref_axis',(1.,0.,0.));
#998=DIRECTION('center_axis',(0.,0.,-1.));
#999=DIRECTION('ref_axis',(1.,0.,0.));
#1000=DIRECTION('center_axis',(0.,0.,-1.));
#1001=DIRECTION('ref_axis',(1.,0.,0.));
#1002=DIRECTION('',(0.,0.,-1.));
#1003=DIRECTION('center_axis',(0.,0.,1.));
#1004=DIRECTION('ref_axis',(1.,0.,0.));
#1005=DIRECTION('center_axis',(0.,0.,1.));
#1006=DIRECTION('ref_axis',(1.,0.,0.));
#1007=DIRECTION('center_axis',(0.,0.,-1.));
#1008=DIRECTION('ref_axis',(1.,0.,0.));
#1009=DIRECTION('',(0.,0.,-1.));
#1010=DIRECTION('center_axis',(-1.,0.,0.));
#1011=DIRECTION('ref_axis',(0.,1.,0.));
#1012=DIRECTION('center_axis',(1.,0.,0.));
#1013=DIRECTION('ref_axis',(0.,-1.,0.));
#1014=DIRECTION('center_axis',(0.,1.,0.));
#1015=DIRECTION('ref_axis',(1.,0.,0.));
#1016=DIRECTION('center_axis',(0.,1.,0.));
#1017=DIRECTION('ref_axis',(-1.,0.,0.));
#1018=DIRECTION('',(-1.,0.,0.));
#1019=DIRECTION('center_axis',(0.,-1.,0.));
#1020=DIRECTION('ref_axis',(1.,0.,0.));
#1021=DIRECTION('',(1.,0.,0.));
#1022=DIRECTION('center_axis',(0.,0.,1.));
#1023=DIRECTION('ref_axis',(1.,0.,0.));
#1024=CARTESIAN_POINT('',(0.,0.,0.));
#1025=CARTESIAN_POINT('Origin',(12.8,1.29064772893432,56.));
#1026=CARTESIAN_POINT('',(10.9069714450254,0.645323864467158,56.));
#1027=CARTESIAN_POINT('',(10.8,1.29064772893432,56.));
#1028=CARTESIAN_POINT('Origin',(12.8,1.29064772893432,56.));
#1029=CARTESIAN_POINT('',(10.8,1.29064772893432,3.));
#1030=CARTESIAN_POINT('',(10.8,1.29064772893432,56.));
#1031=CARTESIAN_POINT('',(10.9069714450254,0.645323864467158,3.));
#1032=CARTESIAN_POINT('Origin',(12.8,1.29064772893432,3.));
#1033=CARTESIAN_POINT('',(10.9069714450254,0.645323864467158,56.));
#1034=CARTESIAN_POINT('Origin',(10.8,13.,56.));
#1035=CARTESIAN_POINT('',(10.8,11.,56.));
#1036=CARTESIAN_POINT('',(10.8,6.5,56.));
#1037=CARTESIAN_POINT('',(10.8,11.,3.));
#1038=CARTESIAN_POINT('',(10.8,11.,56.));
#1039=CARTESIAN_POINT('',(10.8,-13.,3.));
#1040=CARTESIAN_POINT('Origin',(0.,0.,56.));
#1041=CARTESIAN_POINT('',(-13.,-16.,56.));
#1042=CARTESIAN_POINT('',(-15.,-14.,56.));
#1043=CARTESIAN_POINT('Origin',(-13.,-14.,56.));
#1044=CARTESIAN_POINT('',(13.,-16.,56.));
#1045=CARTESIAN_POINT('',(-15.,-16.,56.));
#1046=CARTESIAN_POINT('',(15.,-14.,56.));
#1047=CARTESIAN_POINT('Origin',(13.,-14.,56.));
#1048=CARTESIAN_POINT('',(15.,14.,56.));
#1049=CARTESIAN_POINT('',(15.,-16.,56.));
#1050=CARTESIAN_POINT('',(13.,16.,56.));
#1051=CARTESIAN_POINT('Origin',(13.,14.,56.));
#1052=CARTESIAN_POINT('',(-13.,16.,56.));
#1053=CARTESIAN_POINT('',(15.,16.,56.));
#1054=CARTESIAN_POINT('',(-15.,14.,56.));
#1055=CARTESIAN_POINT('Origin',(-13.,14.,56.));
#1056=CARTESIAN_POINT('',(-15.,16.,56.));
#1057=CARTESIAN_POINT('',(10.475,12.5,56.));
#1058=CARTESIAN_POINT('Origin',(11.5,12.5,56.));
#1059=CARTESIAN_POINT('',(10.9069714450254,-0.645323864467159,56.));
#1060=CARTESIAN_POINT('Origin',(9.01394289005083,0.,56.));
#1061=CARTESIAN_POINT('',(10.8,-1.29064772893432,56.));
#1062=CARTESIAN_POINT('Origin',(12.8,-1.29064772893432,56.));
#1063=CARTESIAN_POINT('',(10.8,-11.,56.));
#1064=CARTESIAN_POINT('',(10.8,-0.45,56.));
#1065=CARTESIAN_POINT('',(8.8,-13.,56.));
#1066=CARTESIAN_POINT('Origin',(8.8,-11.,56.));
#1067=CARTESIAN_POINT('',(-8.8,-13.,56.));
#1068=CARTESIAN_POINT('',(5.4,-13.,56.));
#1069=CARTESIAN_POINT('',(-10.8,-11.,56.));
#1070=CARTESIAN_POINT('Origin',(-8.8,-11.,56.));
#1071=CARTESIAN_POINT('',(-10.8,-1.29064772893432,56.));
#1072=CARTESIAN_POINT('',(-10.8,-6.5,56.));
#1073=CARTESIAN_POINT('',(-10.9069714450254,-0.645323864467158,56.));
#1074=CARTESIAN_POINT('Origin',(-12.8,-1.29064772893432,56.));
#1075=CARTESIAN_POINT('',(-10.9069714450254,0.645323864467159,56.));
#1076=CARTESIAN_POINT('Origin',(-9.01394289005083,0.,56.));
#1077=CARTESIAN_POINT('',(-10.8,1.29064772893432,56.));
#1078=CARTESIAN_POINT('Origin',(-12.8,1.29064772893432,56.));
#1079=CARTESIAN_POINT('',(-10.8,11.,56.));
#1080=CARTESIAN_POINT('',(-10.8,0.45,56.));
#1081=CARTESIAN_POINT('',(-8.8,13.,56.));
#1082=CARTESIAN_POINT('Origin',(-8.8,11.,56.));
#1083=CARTESIAN_POINT('',(8.8,13.,56.));
#1084=CARTESIAN_POINT('',(-5.4,13.,56.));
#1085=CARTESIAN_POINT('Origin',(8.8,11.,56.));
#1086=CARTESIAN_POINT('',(10.475,-12.5,56.));
#1087=CARTESIAN_POINT('Origin',(11.5,-12.5,56.));
#1088=CARTESIAN_POINT('',(-12.525,12.5,56.));
#1089=CARTESIAN_POINT('Origin',(-11.5,12.5,56.));
#1090=CARTESIAN_POINT('',(-12.525,-12.5,56.));
#1091=CARTESIAN_POINT('Origin',(-11.5,-12.5,56.));
#1092=CARTESIAN_POINT('Origin',(-12.8,-1.29064772893432,56.));
#1093=CARTESIAN_POINT('',(-10.8,-1.29064772893432,3.));
#1094=CARTESIAN_POINT('',(-10.8,-1.29064772893432,56.));
#1095=CARTESIAN_POINT('',(-10.9069714450254,-0.645323864467158,3.));
#1096=CARTESIAN_POINT('Origin',(-12.8,-1.29064772893432,3.));
#1097=CARTESIAN_POINT('',(-10.9069714450254,-0.645323864467158,56.));
#1098=CARTESIAN_POINT('Origin',(-10.8,-13.,56.));
#1099=CARTESIAN_POINT('',(-10.8,-11.,3.));
#1100=CARTESIAN_POINT('',(-10.8,-11.,56.));
#1101=CARTESIAN_POINT('',(-10.8,13.,3.));
#1102=CARTESIAN_POINT('Origin',(12.8,-1.29064772893432,56.));
#1103=CARTESIAN_POINT('',(10.9069714450254,-0.645323864467159,3.));
#1104=CARTESIAN_POINT('',(10.9069714450254,-0.645323864467159,56.));
#1105=CARTESIAN_POINT('',(10.8,-1.29064772893432,3.));
#1106=CARTESIAN_POINT('Origin',(12.8,-1.29064772893432,3.));
#1107=CARTESIAN_POINT('',(10.8,-1.29064772893432,56.));
#1108=CARTESIAN_POINT('Origin',(9.01394289005083,0.,56.));
#1109=CARTESIAN_POINT('Origin',(9.01394289005083,0.,3.));
#1110=CARTESIAN_POINT('Origin',(-12.8,1.29064772893432,56.));
#1111=CARTESIAN_POINT('',(-10.9069714450254,0.645323864467159,3.));
#1112=CARTESIAN_POINT('',(-10.9069714450254,0.645323864467159,56.));
#1113=CARTESIAN_POINT('',(-10.8,1.29064772893432,3.));
#1114=CARTESIAN_POINT('Origin',(-12.8,1.29064772893432,3.));
#1115=CARTESIAN_POINT('',(-10.8,1.29064772893432,56.));
#1116=CARTESIAN_POINT('Origin',(-9.01394289005083,0.,56.));
#1117=CARTESIAN_POINT('Origin',(-9.01394289005083,0.,3.));
#1118=CARTESIAN_POINT('Origin',(-13.,-14.,0.));
#1119=CARTESIAN_POINT('',(-15.,-14.,0.));
#1120=CARTESIAN_POINT('',(-15.,-14.,0.));
#1121=CARTESIAN_POINT('',(-13.,-16.,0.));
#1122=CARTESIAN_POINT('Origin',(-13.,-14.,0.));
#1123=CARTESIAN_POINT('',(-13.,-16.,0.));
#1124=CARTESIAN_POINT('Origin',(-15.,16.,0.));
#1125=CARTESIAN_POINT('',(-15.,14.,0.));
#1126=CARTESIAN_POINT('',(-15.,14.,0.));
#1127=CARTESIAN_POINT('',(-15.,16.,0.));
#1128=CARTESIAN_POINT('Origin',(13.,-14.,0.));
#1129=CARTESIAN_POINT('',(13.,-16.,0.));
#1130=CARTESIAN_POINT('',(13.,-16.,0.));
#1131=CARTESIAN_POINT('',(15.,-14.,0.));
#1132=CARTESIAN_POINT('Origin',(13.,-14.,0.));
#1133=CARTESIAN_POINT('',(15.,-14.,0.));
#1134=CARTESIAN_POINT('Origin',(15.,-16.,0.));
#1135=CARTESIAN_POINT('',(15.,14.,0.));
#1136=CARTESIAN_POINT('',(15.,-16.,0.));
#1137=CARTESIAN_POINT('',(15.,14.,0.));
#1138=CARTESIAN_POINT('Origin',(13.,14.,0.));
#1139=CARTESIAN_POINT('',(13.,16.,0.));
#1140=CARTESIAN_POINT('Origin',(13.,14.,0.));
#1141=CARTESIAN_POINT('',(13.,16.,0.));
#1142=CARTESIAN_POINT('Origin',(-13.,14.,0.));
#1143=CARTESIAN_POINT('',(-13.,16.,0.));
#1144=CARTESIAN_POINT('',(-13.,16.,0.));
#1145=CARTESIAN_POINT('Origin',(-13.,14.,0.));
#1146=CARTESIAN_POINT('Origin',(8.8,11.,56.));
#1147=CARTESIAN_POINT('',(8.8,13.,3.));
#1148=CARTESIAN_POINT('Origin',(8.8,11.,3.));
#1149=CARTESIAN_POINT('',(8.8,13.,56.));
#1150=CARTESIAN_POINT('Origin',(-8.8,-11.,56.));
#1151=CARTESIAN_POINT('',(-8.8,-13.,3.));
#1152=CARTESIAN_POINT('Origin',(-8.8,-11.,3.));
#1153=CARTESIAN_POINT('',(-8.8,-13.,56.));
#1154=CARTESIAN_POINT('Origin',(0.,0.,3.));
#1155=CARTESIAN_POINT('',(-8.8,13.,3.));
#1156=CARTESIAN_POINT('',(10.8,13.,3.));
#1157=CARTESIAN_POINT('',(-10.8,11.,3.));
#1158=CARTESIAN_POINT('Origin',(-8.8,11.,3.));
#1159=CARTESIAN_POINT('',(-10.8,13.,3.));
#1160=CARTESIAN_POINT('',(8.8,-13.,3.));
#1161=CARTESIAN_POINT('',(-10.8,-13.,3.));
#1162=CARTESIAN_POINT('',(10.8,-11.,3.));
#1163=CARTESIAN_POINT('Origin',(8.8,-11.,3.));
#1164=CARTESIAN_POINT('',(10.8,-13.,3.));
#1165=CARTESIAN_POINT('Origin',(10.8,-13.,56.));
#1166=CARTESIAN_POINT('',(8.8,-13.,56.));
#1167=CARTESIAN_POINT('',(-1.75,-13.,38.));
#1168=CARTESIAN_POINT('Origin',(0.,-13.,38.));
#1169=CARTESIAN_POINT('Origin',(8.8,-11.,56.));
#1170=CARTESIAN_POINT('',(10.8,-11.,56.));
#1171=CARTESIAN_POINT('Origin',(-8.8,11.,56.));
#1172=CARTESIAN_POINT('',(-8.8,13.,56.));
#1173=CARTESIAN_POINT('',(-10.8,11.,56.));
#1174=CARTESIAN_POINT('Origin',(0.,0.,38.));
#1175=CARTESIAN_POINT('',(-1.75,13.,38.));
#1176=CARTESIAN_POINT('Origin',(0.,13.,38.));
#1177=CARTESIAN_POINT('',(-1.75,16.,38.));
#1178=CARTESIAN_POINT('',(-1.75,0.,38.));
#1179=CARTESIAN_POINT('Origin',(0.,16.,38.));
#1180=CARTESIAN_POINT('Origin',(0.,0.,38.));
#1181=CARTESIAN_POINT('',(-1.75,-16.,38.));
#1182=CARTESIAN_POINT('Origin',(0.,-16.,38.));
#1183=CARTESIAN_POINT('',(-1.75,0.,38.));
#1184=CARTESIAN_POINT('Origin',(-7.5,0.,0.));
#1185=CARTESIAN_POINT('',(-12.6,-6.2456986756515E-16,0.));
#1186=CARTESIAN_POINT('Origin',(-7.5,0.,0.));
#1187=CARTESIAN_POINT('',(-12.6,-6.2456986756515E-16,2.1));
#1188=CARTESIAN_POINT('',(-12.6,-6.2456986756515E-16,0.));
#1189=CARTESIAN_POINT('Origin',(-7.5,0.,2.1));
#1190=CARTESIAN_POINT('Origin',(-7.5,0.,2.1));
#1191=CARTESIAN_POINT('Origin',(7.5,0.,0.));
#1192=CARTESIAN_POINT('',(2.4,-6.2456986756515E-16,0.));
#1193=CARTESIAN_POINT('Origin',(7.5,0.,0.));
#1194=CARTESIAN_POINT('',(2.4,-6.2456986756515E-16,2.1));
#1195=CARTESIAN_POINT('',(2.4,-6.2456986756515E-16,0.));
#1196=CARTESIAN_POINT('Origin',(7.5,0.,2.1));
#1197=CARTESIAN_POINT('Origin',(7.5,0.,2.1));
#1198=CARTESIAN_POINT('Origin',(-11.5,12.5,50.));
#1199=CARTESIAN_POINT('',(-12.525,12.5,50.));
#1200=CARTESIAN_POINT('Origin',(-11.5,12.5,50.));
#1201=CARTESIAN_POINT('Origin',(-11.5,12.5,56.));
#1202=CARTESIAN_POINT('',(-12.525,12.5,56.));
#1203=CARTESIAN_POINT('Origin',(11.5,-12.5,50.));
#1204=CARTESIAN_POINT('',(10.475,-12.5,50.));
#1205=CARTESIAN_POINT('Origin',(11.5,-12.5,50.));
#1206=CARTESIAN_POINT('Origin',(11.5,-12.5,56.));
#1207=CARTESIAN_POINT('',(10.475,-12.5,56.));
#1208=CARTESIAN_POINT('Origin',(-11.5,-12.5,50.));
#1209=CARTESIAN_POINT('',(-12.525,-12.5,50.));
#1210=CARTESIAN_POINT('Origin',(-11.5,-12.5,50.));
#1211=CARTESIAN_POINT('Origin',(-11.5,-12.5,56.));
#1212=CARTESIAN_POINT('',(-12.525,-12.5,56.));
#1213=CARTESIAN_POINT('Origin',(11.5,12.5,50.));
#1214=CARTESIAN_POINT('',(10.475,12.5,50.));
#1215=CARTESIAN_POINT('Origin',(11.5,12.5,50.));
#1216=CARTESIAN_POINT('Origin',(11.5,12.5,56.));
#1217=CARTESIAN_POINT('',(10.475,12.5,56.));
#1218=CARTESIAN_POINT('Origin',(-10.8,0.900000000000001,56.));
#1219=CARTESIAN_POINT('Origin',(10.8,-0.900000000000001,56.));
#1220=CARTESIAN_POINT('Origin',(-10.8,13.,56.));
#1221=CARTESIAN_POINT('Origin',(15.,16.,0.));
#1222=CARTESIAN_POINT('',(15.,16.,0.));
#1223=CARTESIAN_POINT('Origin',(-15.,-16.,0.));
#1224=CARTESIAN_POINT('',(-15.,-16.,0.));
#1225=CARTESIAN_POINT('Origin',(0.,0.,0.));
#1226=UNCERTAINTY_MEASURE_WITH_UNIT(LENGTH_MEASURE(0.01),#1230,
'DISTANCE_ACCURACY_VALUE',
'Maximum model space distance between geometric entities at asserted c
onnectivities');
#1227=UNCERTAINTY_MEASURE_WITH_UNIT(LENGTH_MEASURE(0.01),#1230,
'DISTANCE_ACCURACY_VALUE',
'Maximum model space distance between geometric entities at asserted c
onnectivities');
#1228=(
GEOMETRIC_REPRESENTATION_CONTEXT(3)
GLOBAL_UNCERTAINTY_ASSIGNED_CONTEXT((#1226))
GLOBAL_UNIT_ASSIGNED_CONTEXT((#1230,#1232,#1233))
REPRESENTATION_CONTEXT('','3D')
);
#1229=(
GEOMETRIC_REPRESENTATION_CONTEXT(3)
GLOBAL_UNCERTAINTY_ASSIGNED_CONTEXT((#1227))
GLOBAL_UNIT_ASSIGNED_CONTEXT((#1230,#1232,#1233))
REPRESENTATION_CONTEXT('','3D')
);
#1230=(
LENGTH_UNIT()
NAMED_UNIT(*)
SI_UNIT(.MILLI.,.METRE.)
);
#1231=(
LENGTH_UNIT()
NAMED_UNIT(*)
SI_UNIT($,.METRE.)
);
#1232=(
NAMED_UNIT(*)
PLANE_ANGLE_UNIT()
SI_UNIT($,.RADIAN.)
);
#1233=(
NAMED_UNIT(*)
SI_UNIT($,.STERADIAN.)
SOLID_ANGLE_UNIT()
);
#1234=SHAPE_DEFINITION_REPRESENTATION(#1235,#1236);
#1235=PRODUCT_DEFINITION_SHAPE('',$,#1238);
#1236=SHAPE_REPRESENTATION('',(#714),#1228);
#1237=PRODUCT_DEFINITION_CONTEXT('part definition',#1242,'design');
#1238=PRODUCT_DEFINITION('(N\X\E3o salvo)','(N\X\E3o salvo)',#1239,#1237);
#1239=PRODUCT_DEFINITION_FORMATION('',$,#1244);
#1240=PRODUCT_RELATED_PRODUCT_CATEGORY('(N\X\E3o salvo)','(N\X\E3o sal
vo)',(#1244));
#1241=APPLICATION_PROTOCOL_DEFINITION('international standard',
'automotive_design',2009,#1242);
#1242=APPLICATION_CONTEXT(
'Core Data for Automotive Mechanical Design Process');
#1243=PRODUCT_CONTEXT('part definition',#1242,'mechanical');
#1244=PRODUCT('(N\X\E3o salvo)','(N\X\E3o salvo)',$,(#1243));
#1245=PRESENTATION_STYLE_ASSIGNMENT((#1247));
#1246=PRESENTATION_STYLE_ASSIGNMENT((#1248));
#1247=SURFACE_STYLE_USAGE(.BOTH.,#1249);
#1248=SURFACE_STYLE_USAGE(.BOTH.,#1250);
#1249=SURFACE_SIDE_STYLE('',(#1251));
#1250=SURFACE_SIDE_STYLE('',(#1252));
#1251=SURFACE_STYLE_FILL_AREA(#1253);
#1252=SURFACE_STYLE_FILL_AREA(#1254);
#1253=FILL_AREA_STYLE('A\X\E7o - Acetinado',(#1255));
#1254=FILL_AREA_STYLE('Alum_Anodized',(#1256));
#1255=FILL_AREA_STYLE_COLOUR('A\X\E7o - Acetinado',#1257);
#1256=FILL_AREA_STYLE_COLOUR('Alum_Anodized',#1258);
#1257=COLOUR_RGB('A\X\E7o - Acetinado',0.627450980392157,0.627450980392157,
0.627450980392157);
#1258=COLOUR_RGB('Alum_Anodized',0.537254901960784,0.537254901960784,0.537254901960784);
ENDSEC;
END-ISO-10303-21;
