ISO-10303-21;
HEADER;
/* Generated by software containing ST-Developer
 * from STEP Tools, Inc. (www.steptools.com) 
 */

FILE_DESCRIPTION(
/* description */ (''),
/* implementation_level */ '2;1');

FILE_NAME(
/* name */ '02_Placa_PCB_Torre_Com_Sensores.step',
/* time_stamp */ '2026-09-21T23:35:13-03:00',
/* author */ (''),
/* organization */ (''),
/* preprocessor_version */ 'ST-DEVELOPER v20.2',
/* originating_system */ 'Autodesk Translation Framework v15.15.0.0',
/* authorisation */ '');

FILE_SCHEMA (('AUTOMOTIVE_DESIGN { 1 0 10303 214 3 1 1 }'));
ENDSEC;

DATA;
#10=MECHANICAL_DESIGN_GEOMETRIC_PRESENTATION_REPRESENTATION('',(#19,#20,
#21,#22),#442);
#11=SHAPE_REPRESENTATION_RELATIONSHIP('SRR','None',#449,#12);
#12=ADVANCED_BREP_SHAPE_REPRESENTATION('',(#23,#24,#25,#26),#441);
#13=CIRCLE('',#283,7.);
#14=CIRCLE('',#284,7.);
#15=CIRCLE('',#294,2.2);
#16=CIRCLE('',#295,2.2);
#17=CYLINDRICAL_SURFACE('',#282,7.);
#18=CYLINDRICAL_SURFACE('',#293,2.2);
#19=STYLED_ITEM('',(#459),#23);
#20=STYLED_ITEM('',(#460),#24);
#21=STYLED_ITEM('',(#461),#25);
#22=STYLED_ITEM('',(#462),#26);
#23=MANIFOLD_SOLID_BREP('Substrato_FR4_Verde',#259);
#24=MANIFOLD_SOLID_BREP('PCB_Circular_INMP441',#260);
#25=MANIFOLD_SOLID_BREP('Modulo_ADXL345_Azul',#261);
#26=MANIFOLD_SOLID_BREP('Bulbo_DS18B20_Inox',#262);
#27=FACE_OUTER_BOUND('',#45,.T.);
#28=FACE_OUTER_BOUND('',#46,.T.);
#29=FACE_OUTER_BOUND('',#47,.T.);
#30=FACE_OUTER_BOUND('',#48,.T.);
#31=FACE_OUTER_BOUND('',#49,.T.);
#32=FACE_OUTER_BOUND('',#50,.T.);
#33=FACE_OUTER_BOUND('',#51,.T.);
#34=FACE_OUTER_BOUND('',#52,.T.);
#35=FACE_OUTER_BOUND('',#53,.T.);
#36=FACE_OUTER_BOUND('',#54,.T.);
#37=FACE_OUTER_BOUND('',#55,.T.);
#38=FACE_OUTER_BOUND('',#56,.T.);
#39=FACE_OUTER_BOUND('',#57,.T.);
#40=FACE_OUTER_BOUND('',#58,.T.);
#41=FACE_OUTER_BOUND('',#59,.T.);
#42=FACE_OUTER_BOUND('',#60,.T.);
#43=FACE_OUTER_BOUND('',#61,.T.);
#44=FACE_OUTER_BOUND('',#62,.T.);
#45=EDGE_LOOP('',(#165,#166,#167,#168));
#46=EDGE_LOOP('',(#169,#170,#171,#172));
#47=EDGE_LOOP('',(#173,#174,#175,#176));
#48=EDGE_LOOP('',(#177,#178,#179,#180));
#49=EDGE_LOOP('',(#181,#182,#183,#184));
#50=EDGE_LOOP('',(#185,#186,#187,#188));
#51=EDGE_LOOP('',(#189,#190,#191,#192));
#52=EDGE_LOOP('',(#193));
#53=EDGE_LOOP('',(#194));
#54=EDGE_LOOP('',(#195,#196,#197,#198));
#55=EDGE_LOOP('',(#199,#200,#201,#202));
#56=EDGE_LOOP('',(#203,#204,#205,#206));
#57=EDGE_LOOP('',(#207,#208,#209,#210));
#58=EDGE_LOOP('',(#211,#212,#213,#214));
#59=EDGE_LOOP('',(#215,#216,#217,#218));
#60=EDGE_LOOP('',(#219,#220,#221,#222));
#61=EDGE_LOOP('',(#223));
#62=EDGE_LOOP('',(#224));
#63=LINE('',#374,#89);
#64=LINE('',#376,#90);
#65=LINE('',#378,#91);
#66=LINE('',#379,#92);
#67=LINE('',#382,#93);
#68=LINE('',#384,#94);
#69=LINE('',#385,#95);
#70=LINE('',#388,#96);
#71=LINE('',#390,#97);
#72=LINE('',#391,#98);
#73=LINE('',#393,#99);
#74=LINE('',#394,#100);
#75=LINE('',#401,#101);
#76=LINE('',#408,#102);
#77=LINE('',#410,#103);
#78=LINE('',#412,#104);
#79=LINE('',#413,#105);
#80=LINE('',#416,#106);
#81=LINE('',#418,#107);
#82=LINE('',#419,#108);
#83=LINE('',#422,#109);
#84=LINE('',#424,#110);
#85=LINE('',#425,#111);
#86=LINE('',#427,#112);
#87=LINE('',#428,#113);
#88=LINE('',#435,#114);
#89=VECTOR('',#302,10.);
#90=VECTOR('',#303,10.);
#91=VECTOR('',#304,10.);
#92=VECTOR('',#305,10.);
#93=VECTOR('',#308,10.);
#94=VECTOR('',#309,10.);
#95=VECTOR('',#310,10.);
#96=VECTOR('',#313,10.);
#97=VECTOR('',#314,10.);
#98=VECTOR('',#315,10.);
#99=VECTOR('',#318,10.);
#100=VECTOR('',#319,10.);
#101=VECTOR('',#328,7.);
#102=VECTOR('',#337,10.);
#103=VECTOR('',#338,10.);
#104=VECTOR('',#339,10.);
#105=VECTOR('',#340,10.);
#106=VECTOR('',#343,10.);
#107=VECTOR('',#344,10.);
#108=VECTOR('',#345,10.);
#109=VECTOR('',#348,10.);
#110=VECTOR('',#349,10.);
#111=VECTOR('',#350,10.);
#112=VECTOR('',#353,10.);
#113=VECTOR('',#354,10.);
#114=VECTOR('',#363,2.2);
#115=VERTEX_POINT('',#372);
#116=VERTEX_POINT('',#373);
#117=VERTEX_POINT('',#375);
#118=VERTEX_POINT('',#377);
#119=VERTEX_POINT('',#381);
#120=VERTEX_POINT('',#383);
#121=VERTEX_POINT('',#387);
#122=VERTEX_POINT('',#389);
#123=VERTEX_POINT('',#398);
#124=VERTEX_POINT('',#400);
#125=VERTEX_POINT('',#406);
#126=VERTEX_POINT('',#407);
#127=VERTEX_POINT('',#409);
#128=VERTEX_POINT('',#411);
#129=VERTEX_POINT('',#415);
#130=VERTEX_POINT('',#417);
#131=VERTEX_POINT('',#421);
#132=VERTEX_POINT('',#423);
#133=VERTEX_POINT('',#432);
#134=VERTEX_POINT('',#434);
#135=EDGE_CURVE('',#115,#116,#63,.T.);
#136=EDGE_CURVE('',#116,#117,#64,.T.);
#137=EDGE_CURVE('',#118,#117,#65,.T.);
#138=EDGE_CURVE('',#115,#118,#66,.T.);
#139=EDGE_CURVE('',#119,#115,#67,.T.);
#140=EDGE_CURVE('',#120,#118,#68,.T.);
#141=EDGE_CURVE('',#119,#120,#69,.T.);
#142=EDGE_CURVE('',#121,#119,#70,.T.);
#143=EDGE_CURVE('',#122,#120,#71,.T.);
#144=EDGE_CURVE('',#121,#122,#72,.T.);
#145=EDGE_CURVE('',#116,#121,#73,.T.);
#146=EDGE_CURVE('',#117,#122,#74,.T.);
#147=EDGE_CURVE('',#123,#123,#13,.T.);
#148=EDGE_CURVE('',#123,#124,#75,.T.);
#149=EDGE_CURVE('',#124,#124,#14,.T.);
#150=EDGE_CURVE('',#125,#126,#76,.T.);
#151=EDGE_CURVE('',#125,#127,#77,.T.);
#152=EDGE_CURVE('',#128,#127,#78,.T.);
#153=EDGE_CURVE('',#126,#128,#79,.T.);
#154=EDGE_CURVE('',#126,#129,#80,.T.);
#155=EDGE_CURVE('',#130,#128,#81,.T.);
#156=EDGE_CURVE('',#129,#130,#82,.T.);
#157=EDGE_CURVE('',#129,#131,#83,.T.);
#158=EDGE_CURVE('',#132,#130,#84,.T.);
#159=EDGE_CURVE('',#131,#132,#85,.T.);
#160=EDGE_CURVE('',#131,#125,#86,.T.);
#161=EDGE_CURVE('',#127,#132,#87,.T.);
#162=EDGE_CURVE('',#133,#133,#15,.T.);
#163=EDGE_CURVE('',#133,#134,#88,.T.);
#164=EDGE_CURVE('',#134,#134,#16,.T.);
#165=ORIENTED_EDGE('',*,*,#135,.T.);
#166=ORIENTED_EDGE('',*,*,#136,.T.);
#167=ORIENTED_EDGE('',*,*,#137,.F.);
#168=ORIENTED_EDGE('',*,*,#138,.F.);
#169=ORIENTED_EDGE('',*,*,#139,.T.);
#170=ORIENTED_EDGE('',*,*,#138,.T.);
#171=ORIENTED_EDGE('',*,*,#140,.F.);
#172=ORIENTED_EDGE('',*,*,#141,.F.);
#173=ORIENTED_EDGE('',*,*,#142,.T.);
#174=ORIENTED_EDGE('',*,*,#141,.T.);
#175=ORIENTED_EDGE('',*,*,#143,.F.);
#176=ORIENTED_EDGE('',*,*,#144,.F.);
#177=ORIENTED_EDGE('',*,*,#145,.T.);
#178=ORIENTED_EDGE('',*,*,#144,.T.);
#179=ORIENTED_EDGE('',*,*,#146,.F.);
#180=ORIENTED_EDGE('',*,*,#136,.F.);
#181=ORIENTED_EDGE('',*,*,#146,.T.);
#182=ORIENTED_EDGE('',*,*,#143,.T.);
#183=ORIENTED_EDGE('',*,*,#140,.T.);
#184=ORIENTED_EDGE('',*,*,#137,.T.);
#185=ORIENTED_EDGE('',*,*,#145,.F.);
#186=ORIENTED_EDGE('',*,*,#135,.F.);
#187=ORIENTED_EDGE('',*,*,#139,.F.);
#188=ORIENTED_EDGE('',*,*,#142,.F.);
#189=ORIENTED_EDGE('',*,*,#147,.F.);
#190=ORIENTED_EDGE('',*,*,#148,.T.);
#191=ORIENTED_EDGE('',*,*,#149,.F.);
#192=ORIENTED_EDGE('',*,*,#148,.F.);
#193=ORIENTED_EDGE('',*,*,#149,.T.);
#194=ORIENTED_EDGE('',*,*,#147,.T.);
#195=ORIENTED_EDGE('',*,*,#150,.F.);
#196=ORIENTED_EDGE('',*,*,#151,.T.);
#197=ORIENTED_EDGE('',*,*,#152,.F.);
#198=ORIENTED_EDGE('',*,*,#153,.F.);
#199=ORIENTED_EDGE('',*,*,#154,.F.);
#200=ORIENTED_EDGE('',*,*,#153,.T.);
#201=ORIENTED_EDGE('',*,*,#155,.F.);
#202=ORIENTED_EDGE('',*,*,#156,.F.);
#203=ORIENTED_EDGE('',*,*,#157,.F.);
#204=ORIENTED_EDGE('',*,*,#156,.T.);
#205=ORIENTED_EDGE('',*,*,#158,.F.);
#206=ORIENTED_EDGE('',*,*,#159,.F.);
#207=ORIENTED_EDGE('',*,*,#160,.F.);
#208=ORIENTED_EDGE('',*,*,#159,.T.);
#209=ORIENTED_EDGE('',*,*,#161,.F.);
#210=ORIENTED_EDGE('',*,*,#151,.F.);
#211=ORIENTED_EDGE('',*,*,#160,.T.);
#212=ORIENTED_EDGE('',*,*,#150,.T.);
#213=ORIENTED_EDGE('',*,*,#154,.T.);
#214=ORIENTED_EDGE('',*,*,#157,.T.);
#215=ORIENTED_EDGE('',*,*,#161,.T.);
#216=ORIENTED_EDGE('',*,*,#158,.T.);
#217=ORIENTED_EDGE('',*,*,#155,.T.);
#218=ORIENTED_EDGE('',*,*,#152,.T.);
#219=ORIENTED_EDGE('',*,*,#162,.F.);
#220=ORIENTED_EDGE('',*,*,#163,.T.);
#221=ORIENTED_EDGE('',*,*,#164,.T.);
#222=ORIENTED_EDGE('',*,*,#163,.F.);
#223=ORIENTED_EDGE('',*,*,#162,.T.);
#224=ORIENTED_EDGE('',*,*,#164,.F.);
#225=PLANE('',#276);
#226=PLANE('',#277);
#227=PLANE('',#278);
#228=PLANE('',#279);
#229=PLANE('',#280);
#230=PLANE('',#281);
#231=PLANE('',#285);
#232=PLANE('',#286);
#233=PLANE('',#287);
#234=PLANE('',#288);
#235=PLANE('',#289);
#236=PLANE('',#290);
#237=PLANE('',#291);
#238=PLANE('',#292);
#239=PLANE('',#296);
#240=PLANE('',#297);
#241=ADVANCED_FACE('',(#27),#225,.T.);
#242=ADVANCED_FACE('',(#28),#226,.T.);
#243=ADVANCED_FACE('',(#29),#227,.T.);
#244=ADVANCED_FACE('',(#30),#228,.T.);
#245=ADVANCED_FACE('',(#31),#229,.T.);
#246=ADVANCED_FACE('',(#32),#230,.F.);
#247=ADVANCED_FACE('',(#33),#17,.T.);
#248=ADVANCED_FACE('',(#34),#231,.T.);
#249=ADVANCED_FACE('',(#35),#232,.F.);
#250=ADVANCED_FACE('',(#36),#233,.T.);
#251=ADVANCED_FACE('',(#37),#234,.T.);
#252=ADVANCED_FACE('',(#38),#235,.T.);
#253=ADVANCED_FACE('',(#39),#236,.T.);
#254=ADVANCED_FACE('',(#40),#237,.T.);
#255=ADVANCED_FACE('',(#41),#238,.T.);
#256=ADVANCED_FACE('',(#42),#18,.T.);
#257=ADVANCED_FACE('',(#43),#239,.T.);
#258=ADVANCED_FACE('',(#44),#240,.F.);
#259=CLOSED_SHELL('',(#241,#242,#243,#244,#245,#246));
#260=CLOSED_SHELL('',(#247,#248,#249));
#261=CLOSED_SHELL('',(#250,#251,#252,#253,#254,#255));
#262=CLOSED_SHELL('',(#256,#257,#258));
#263=DERIVED_UNIT_ELEMENT(#265,1.);
#264=DERIVED_UNIT_ELEMENT(#444,-3.);
#265=(
MASS_UNIT()
NAMED_UNIT(*)
SI_UNIT(.KILO.,.GRAM.)
);
#266=DERIVED_UNIT((#263,#264));
#267=MEASURE_REPRESENTATION_ITEM('density measure',
POSITIVE_RATIO_MEASURE(7850.),#266);
#268=PROPERTY_DEFINITION_REPRESENTATION(#273,#270);
#269=PROPERTY_DEFINITION_REPRESENTATION(#274,#271);
#270=REPRESENTATION('material name',(#272),#441);
#271=REPRESENTATION('density',(#267),#441);
#272=DESCRIPTIVE_REPRESENTATION_ITEM('A\X\E7o','A\X\E7o');
#273=PROPERTY_DEFINITION('material property','material name',#451);
#274=PROPERTY_DEFINITION('material property','density of part',#451);
#275=AXIS2_PLACEMENT_3D('',#370,#298,#299);
#276=AXIS2_PLACEMENT_3D('',#371,#300,#301);
#277=AXIS2_PLACEMENT_3D('',#380,#306,#307);
#278=AXIS2_PLACEMENT_3D('',#386,#311,#312);
#279=AXIS2_PLACEMENT_3D('',#392,#316,#317);
#280=AXIS2_PLACEMENT_3D('',#395,#320,#321);
#281=AXIS2_PLACEMENT_3D('',#396,#322,#323);
#282=AXIS2_PLACEMENT_3D('',#397,#324,#325);
#283=AXIS2_PLACEMENT_3D('',#399,#326,#327);
#284=AXIS2_PLACEMENT_3D('',#402,#329,#330);
#285=AXIS2_PLACEMENT_3D('',#403,#331,#332);
#286=AXIS2_PLACEMENT_3D('',#404,#333,#334);
#287=AXIS2_PLACEMENT_3D('',#405,#335,#336);
#288=AXIS2_PLACEMENT_3D('',#414,#341,#342);
#289=AXIS2_PLACEMENT_3D('',#420,#346,#347);
#290=AXIS2_PLACEMENT_3D('',#426,#351,#352);
#291=AXIS2_PLACEMENT_3D('',#429,#355,#356);
#292=AXIS2_PLACEMENT_3D('',#430,#357,#358);
#293=AXIS2_PLACEMENT_3D('',#431,#359,#360);
#294=AXIS2_PLACEMENT_3D('',#433,#361,#362);
#295=AXIS2_PLACEMENT_3D('',#436,#364,#365);
#296=AXIS2_PLACEMENT_3D('',#437,#366,#367);
#297=AXIS2_PLACEMENT_3D('',#438,#368,#369);
#298=DIRECTION('axis',(0.,0.,1.));
#299=DIRECTION('refdir',(1.,0.,0.));
#300=DIRECTION('center_axis',(0.,1.,0.));
#301=DIRECTION('ref_axis',(-1.,0.,0.));
#302=DIRECTION('',(-1.,0.,0.));
#303=DIRECTION('',(0.,0.,1.));
#304=DIRECTION('',(-1.,0.,0.));
#305=DIRECTION('',(0.,0.,1.));
#306=DIRECTION('center_axis',(1.,0.,0.));
#307=DIRECTION('ref_axis',(0.,1.,0.));
#308=DIRECTION('',(0.,1.,0.));
#309=DIRECTION('',(0.,1.,0.));
#310=DIRECTION('',(0.,0.,1.));
#311=DIRECTION('center_axis',(0.,-1.,0.));
#312=DIRECTION('ref_axis',(1.,0.,0.));
#313=DIRECTION('',(1.,0.,0.));
#314=DIRECTION('',(1.,0.,0.));
#315=DIRECTION('',(0.,0.,1.));
#316=DIRECTION('center_axis',(-1.,0.,0.));
#317=DIRECTION('ref_axis',(0.,-1.,0.));
#318=DIRECTION('',(0.,-1.,0.));
#319=DIRECTION('',(0.,-1.,0.));
#320=DIRECTION('center_axis',(0.,0.,1.));
#321=DIRECTION('ref_axis',(1.,0.,0.));
#322=DIRECTION('center_axis',(0.,0.,1.));
#323=DIRECTION('ref_axis',(1.,0.,0.));
#324=DIRECTION('center_axis',(0.,-1.,0.));
#325=DIRECTION('ref_axis',(1.,0.,0.));
#326=DIRECTION('center_axis',(0.,-1.,0.));
#327=DIRECTION('ref_axis',(1.,0.,0.));
#328=DIRECTION('',(0.,1.,0.));
#329=DIRECTION('center_axis',(0.,1.,0.));
#330=DIRECTION('ref_axis',(1.,0.,0.));
#331=DIRECTION('center_axis',(0.,1.,0.));
#332=DIRECTION('ref_axis',(1.,0.,0.));
#333=DIRECTION('center_axis',(0.,1.,0.));
#334=DIRECTION('ref_axis',(1.,0.,0.));
#335=DIRECTION('center_axis',(0.,0.,1.));
#336=DIRECTION('ref_axis',(-1.,0.,0.));
#337=DIRECTION('',(1.,0.,0.));
#338=DIRECTION('',(0.,-1.,0.));
#339=DIRECTION('',(-1.,0.,0.));
#340=DIRECTION('',(0.,-1.,0.));
#341=DIRECTION('center_axis',(1.,0.,0.));
#342=DIRECTION('ref_axis',(0.,0.,1.));
#343=DIRECTION('',(0.,0.,-1.));
#344=DIRECTION('',(0.,0.,1.));
#345=DIRECTION('',(0.,-1.,0.));
#346=DIRECTION('center_axis',(0.,0.,-1.));
#347=DIRECTION('ref_axis',(1.,0.,0.));
#348=DIRECTION('',(-1.,0.,0.));
#349=DIRECTION('',(1.,0.,0.));
#350=DIRECTION('',(0.,-1.,0.));
#351=DIRECTION('center_axis',(-1.,0.,0.));
#352=DIRECTION('ref_axis',(0.,0.,-1.));
#353=DIRECTION('',(0.,0.,1.));
#354=DIRECTION('',(0.,0.,-1.));
#355=DIRECTION('center_axis',(0.,1.,0.));
#356=DIRECTION('ref_axis',(1.,0.,0.));
#357=DIRECTION('center_axis',(0.,-1.,0.));
#358=DIRECTION('ref_axis',(0.,0.,-1.));
#359=DIRECTION('center_axis',(0.,0.,1.));
#360=DIRECTION('ref_axis',(1.,0.,0.));
#361=DIRECTION('center_axis',(0.,0.,1.));
#362=DIRECTION('ref_axis',(1.,0.,0.));
#363=DIRECTION('',(0.,0.,-1.));
#364=DIRECTION('center_axis',(0.,0.,1.));
#365=DIRECTION('ref_axis',(1.,0.,0.));
#366=DIRECTION('center_axis',(0.,0.,1.));
#367=DIRECTION('ref_axis',(1.,0.,0.));
#368=DIRECTION('center_axis',(0.,0.,1.));
#369=DIRECTION('ref_axis',(1.,0.,0.));
#370=CARTESIAN_POINT('',(0.,0.,0.));
#371=CARTESIAN_POINT('Origin',(12.,0.8,5.));
#372=CARTESIAN_POINT('',(12.,0.8,5.));
#373=CARTESIAN_POINT('',(-12.,0.8,5.));
#374=CARTESIAN_POINT('',(12.,0.8,5.));
#375=CARTESIAN_POINT('',(-12.,0.8,53.));
#376=CARTESIAN_POINT('',(-12.,0.8,5.));
#377=CARTESIAN_POINT('',(12.,0.8,53.));
#378=CARTESIAN_POINT('',(12.,0.8,53.));
#379=CARTESIAN_POINT('',(12.,0.8,5.));
#380=CARTESIAN_POINT('Origin',(12.,-0.8,5.));
#381=CARTESIAN_POINT('',(12.,-0.8,5.));
#382=CARTESIAN_POINT('',(12.,-0.8,5.));
#383=CARTESIAN_POINT('',(12.,-0.8,53.));
#384=CARTESIAN_POINT('',(12.,-0.8,53.));
#385=CARTESIAN_POINT('',(12.,-0.8,5.));
#386=CARTESIAN_POINT('Origin',(-12.,-0.8,5.));
#387=CARTESIAN_POINT('',(-12.,-0.8,5.));
#388=CARTESIAN_POINT('',(-12.,-0.8,5.));
#389=CARTESIAN_POINT('',(-12.,-0.8,53.));
#390=CARTESIAN_POINT('',(-12.,-0.8,53.));
#391=CARTESIAN_POINT('',(-12.,-0.8,5.));
#392=CARTESIAN_POINT('Origin',(-12.,0.8,5.));
#393=CARTESIAN_POINT('',(-12.,0.8,5.));
#394=CARTESIAN_POINT('',(-12.,0.8,53.));
#395=CARTESIAN_POINT('Origin',(0.,0.,53.));
#396=CARTESIAN_POINT('Origin',(0.,0.,5.));
#397=CARTESIAN_POINT('Origin',(0.,0.,38.));
#398=CARTESIAN_POINT('',(-7.,-1.2,38.));
#399=CARTESIAN_POINT('Origin',(0.,-1.2,38.));
#400=CARTESIAN_POINT('',(-7.,0.,38.));
#401=CARTESIAN_POINT('',(-7.,0.,38.));
#402=CARTESIAN_POINT('Origin',(0.,0.,38.));
#403=CARTESIAN_POINT('Origin',(0.,0.,38.));
#404=CARTESIAN_POINT('Origin',(0.,-1.2,38.));
#405=CARTESIAN_POINT('Origin',(7.5,0.,33.));
#406=CARTESIAN_POINT('',(-7.5,0.,33.));
#407=CARTESIAN_POINT('',(7.5,0.,33.));
#408=CARTESIAN_POINT('',(-7.5,0.,33.));
#409=CARTESIAN_POINT('',(-7.5,-1.5,33.));
#410=CARTESIAN_POINT('',(-7.5,0.,33.));
#411=CARTESIAN_POINT('',(7.5,-1.5,33.));
#412=CARTESIAN_POINT('',(-7.5,-1.5,33.));
#413=CARTESIAN_POINT('',(7.5,0.,33.));
#414=CARTESIAN_POINT('Origin',(7.5,0.,13.));
#415=CARTESIAN_POINT('',(7.5,0.,13.));
#416=CARTESIAN_POINT('',(7.5,0.,33.));
#417=CARTESIAN_POINT('',(7.5,-1.5,13.));
#418=CARTESIAN_POINT('',(7.5,-1.5,33.));
#419=CARTESIAN_POINT('',(7.5,0.,13.));
#420=CARTESIAN_POINT('Origin',(-7.5,0.,13.));
#421=CARTESIAN_POINT('',(-7.5,0.,13.));
#422=CARTESIAN_POINT('',(7.5,0.,13.));
#423=CARTESIAN_POINT('',(-7.5,-1.5,13.));
#424=CARTESIAN_POINT('',(7.5,-1.5,13.));
#425=CARTESIAN_POINT('',(-7.5,0.,13.));
#426=CARTESIAN_POINT('Origin',(-7.5,0.,33.));
#427=CARTESIAN_POINT('',(-7.5,0.,13.));
#428=CARTESIAN_POINT('',(-7.5,-1.5,13.));
#429=CARTESIAN_POINT('Origin',(0.,0.,23.));
#430=CARTESIAN_POINT('Origin',(0.,-1.5,23.));
#431=CARTESIAN_POINT('Origin',(0.,-1.5,0.));
#432=CARTESIAN_POINT('',(-2.2,-1.5,8.));
#433=CARTESIAN_POINT('Origin',(0.,-1.5,8.));
#434=CARTESIAN_POINT('',(-2.2,-1.5,0.));
#435=CARTESIAN_POINT('',(-2.2,-1.5,0.));
#436=CARTESIAN_POINT('Origin',(0.,-1.5,0.));
#437=CARTESIAN_POINT('Origin',(0.,-1.5,8.));
#438=CARTESIAN_POINT('Origin',(0.,-1.5,0.));
#439=UNCERTAINTY_MEASURE_WITH_UNIT(LENGTH_MEASURE(0.01),#443,
'DISTANCE_ACCURACY_VALUE',
'Maximum model space distance between geometric entities at asserted c
onnectivities');
#440=UNCERTAINTY_MEASURE_WITH_UNIT(LENGTH_MEASURE(0.01),#443,
'DISTANCE_ACCURACY_VALUE',
'Maximum model space distance between geometric entities at asserted c
onnectivities');
#441=(
GEOMETRIC_REPRESENTATION_CONTEXT(3)
GLOBAL_UNCERTAINTY_ASSIGNED_CONTEXT((#439))
GLOBAL_UNIT_ASSIGNED_CONTEXT((#443,#445,#446))
REPRESENTATION_CONTEXT('','3D')
);
#442=(
GEOMETRIC_REPRESENTATION_CONTEXT(3)
GLOBAL_UNCERTAINTY_ASSIGNED_CONTEXT((#440))
GLOBAL_UNIT_ASSIGNED_CONTEXT((#443,#445,#446))
REPRESENTATION_CONTEXT('','3D')
);
#443=(
LENGTH_UNIT()
NAMED_UNIT(*)
SI_UNIT(.MILLI.,.METRE.)
);
#444=(
LENGTH_UNIT()
NAMED_UNIT(*)
SI_UNIT($,.METRE.)
);
#445=(
NAMED_UNIT(*)
PLANE_ANGLE_UNIT()
SI_UNIT($,.RADIAN.)
);
#446=(
NAMED_UNIT(*)
SI_UNIT($,.STERADIAN.)
SOLID_ANGLE_UNIT()
);
#447=SHAPE_DEFINITION_REPRESENTATION(#448,#449);
#448=PRODUCT_DEFINITION_SHAPE('',$,#451);
#449=SHAPE_REPRESENTATION('',(#275),#441);
#450=PRODUCT_DEFINITION_CONTEXT('part definition',#455,'design');
#451=PRODUCT_DEFINITION('(N\X\E3o salvo)','(N\X\E3o salvo)',#452,#450);
#452=PRODUCT_DEFINITION_FORMATION('',$,#457);
#453=PRODUCT_RELATED_PRODUCT_CATEGORY('(N\X\E3o salvo)','(N\X\E3o salv
o)',(#457));
#454=APPLICATION_PROTOCOL_DEFINITION('international standard',
'automotive_design',2009,#455);
#455=APPLICATION_CONTEXT(
'Core Data for Automotive Mechanical Design Process');
#456=PRODUCT_CONTEXT('part definition',#455,'mechanical');
#457=PRODUCT('(N\X\E3o salvo)','(N\X\E3o salvo)',$,(#456));
#458=PRESENTATION_STYLE_ASSIGNMENT((#463));
#459=PRESENTATION_STYLE_ASSIGNMENT((#464));
#460=PRESENTATION_STYLE_ASSIGNMENT((#465));
#461=PRESENTATION_STYLE_ASSIGNMENT((#466));
#462=PRESENTATION_STYLE_ASSIGNMENT((#467));
#463=SURFACE_STYLE_USAGE(.BOTH.,#468);
#464=SURFACE_STYLE_USAGE(.BOTH.,#469);
#465=SURFACE_STYLE_USAGE(.BOTH.,#470);
#466=SURFACE_STYLE_USAGE(.BOTH.,#471);
#467=SURFACE_STYLE_USAGE(.BOTH.,#472);
#468=SURFACE_SIDE_STYLE('',(#473));
#469=SURFACE_SIDE_STYLE('',(#474));
#470=SURFACE_SIDE_STYLE('',(#475));
#471=SURFACE_SIDE_STYLE('',(#476));
#472=SURFACE_SIDE_STYLE('',(#477));
#473=SURFACE_STYLE_FILL_AREA(#478);
#474=SURFACE_STYLE_FILL_AREA(#479);
#475=SURFACE_STYLE_FILL_AREA(#480);
#476=SURFACE_STYLE_FILL_AREA(#481);
#477=SURFACE_STYLE_FILL_AREA(#482);
#478=FILL_AREA_STYLE('A\X\E7o - Acetinado',(#483));
#479=FILL_AREA_STYLE('PCB_Green',(#484));
#480=FILL_AREA_STYLE('IC_Black',(#485));
#481=FILL_AREA_STYLE('ADXL_Blue',(#486));
#482=FILL_AREA_STYLE('Steel_Inox',(#487));
#483=FILL_AREA_STYLE_COLOUR('A\X\E7o - Acetinado',#488);
#484=FILL_AREA_STYLE_COLOUR('PCB_Green',#489);
#485=FILL_AREA_STYLE_COLOUR('IC_Black',#490);
#486=FILL_AREA_STYLE_COLOUR('ADXL_Blue',#491);
#487=FILL_AREA_STYLE_COLOUR('Steel_Inox',#492);
#488=COLOUR_RGB('A\X\E7o - Acetinado',0.627450980392157,0.627450980392157,
0.627450980392157);
#489=COLOUR_RGB('PCB_Green',0.266666666666667,0.588235294117647,0.282352941176471);
#490=COLOUR_RGB('IC_Black',0.0980392156862745,0.0980392156862745,0.0980392156862745);
#491=COLOUR_RGB('ADXL_Blue',0.349019607843137,0.584313725490196,0.854901960784314);
#492=COLOUR_RGB('Steel_Inox',0.796078431372549,0.796078431372549,0.796078431372549);
ENDSEC;
END-ISO-10303-21;
