ISO-10303-21;
HEADER;
/* Generated by software containing ST-Developer
 * from STEP Tools, Inc. (www.steptools.com) 
 */

FILE_DESCRIPTION(
/* description */ (''),
/* implementation_level */ '2;1');

FILE_NAME(
/* name */ '03_Tampa_Superior_Torre_GX16.step',
/* time_stamp */ '2026-09-21T23:35:20-03:00',
/* author */ (''),
/* organization */ (''),
/* preprocessor_version */ 'ST-DEVELOPER v20.2',
/* originating_system */ 'Autodesk Translation Framework v15.15.0.0',
/* authorisation */ '');

FILE_SCHEMA (('AUTOMOTIVE_DESIGN { 1 0 10303 214 3 1 1 }'));
ENDSEC;

DATA;
#10=MECHANICAL_DESIGN_GEOMETRIC_PRESENTATION_REPRESENTATION('',(#13),#826);
#11=SHAPE_REPRESENTATION_RELATIONSHIP('SRR','None',#833,#12);
#12=ADVANCED_BREP_SHAPE_REPRESENTATION('',(#14),#825);
#13=STYLED_ITEM('',(#843),#14);
#14=MANIFOLD_SOLID_BREP('Tampa_Usinada_Aluminio',#478);
#15=FACE_BOUND('',#65,.T.);
#16=FACE_BOUND('',#88,.T.);
#17=FACE_BOUND('',#89,.T.);
#18=FACE_BOUND('',#90,.T.);
#19=FACE_BOUND('',#91,.T.);
#20=FACE_BOUND('',#92,.T.);
#21=PLANE('',#495);
#22=PLANE('',#496);
#23=PLANE('',#508);
#24=PLANE('',#511);
#25=PLANE('',#514);
#26=PLANE('',#518);
#27=PLANE('',#519);
#28=PLANE('',#527);
#29=PLANE('',#531);
#30=PLANE('',#532);
#31=PLANE('',#537);
#32=PLANE('',#538);
#33=PLANE('',#539);
#34=PLANE('',#540);
#35=PLANE('',#541);
#36=PLANE('',#542);
#37=FACE_OUTER_BOUND('',#62,.T.);
#38=FACE_OUTER_BOUND('',#63,.T.);
#39=FACE_OUTER_BOUND('',#64,.T.);
#40=FACE_OUTER_BOUND('',#66,.T.);
#41=FACE_OUTER_BOUND('',#67,.T.);
#42=FACE_OUTER_BOUND('',#68,.T.);
#43=FACE_OUTER_BOUND('',#69,.T.);
#44=FACE_OUTER_BOUND('',#70,.T.);
#45=FACE_OUTER_BOUND('',#71,.T.);
#46=FACE_OUTER_BOUND('',#72,.T.);
#47=FACE_OUTER_BOUND('',#73,.T.);
#48=FACE_OUTER_BOUND('',#74,.T.);
#49=FACE_OUTER_BOUND('',#75,.T.);
#50=FACE_OUTER_BOUND('',#76,.T.);
#51=FACE_OUTER_BOUND('',#77,.T.);
#52=FACE_OUTER_BOUND('',#78,.T.);
#53=FACE_OUTER_BOUND('',#79,.T.);
#54=FACE_OUTER_BOUND('',#80,.T.);
#55=FACE_OUTER_BOUND('',#81,.T.);
#56=FACE_OUTER_BOUND('',#82,.T.);
#57=FACE_OUTER_BOUND('',#83,.T.);
#58=FACE_OUTER_BOUND('',#84,.T.);
#59=FACE_OUTER_BOUND('',#85,.T.);
#60=FACE_OUTER_BOUND('',#86,.T.);
#61=FACE_OUTER_BOUND('',#87,.T.);
#62=EDGE_LOOP('',(#310,#311,#312,#313));
#63=EDGE_LOOP('',(#314,#315,#316,#317));
#64=EDGE_LOOP('',(#318,#319,#320,#321,#322,#323,#324,#325));
#65=EDGE_LOOP('',(#326,#327,#328,#329,#330,#331,#332,#333,#334,#335));
#66=EDGE_LOOP('',(#336,#337,#338,#339));
#67=EDGE_LOOP('',(#340,#341,#342,#343));
#68=EDGE_LOOP('',(#344,#345,#346,#347));
#69=EDGE_LOOP('',(#348,#349,#350,#351));
#70=EDGE_LOOP('',(#352,#353,#354,#355));
#71=EDGE_LOOP('',(#356,#357,#358,#359));
#72=EDGE_LOOP('',(#360,#361,#362,#363,#364,#365));
#73=EDGE_LOOP('',(#366,#367,#368));
#74=EDGE_LOOP('',(#369,#370,#371,#372));
#75=EDGE_LOOP('',(#373,#374,#375,#376,#377,#378));
#76=EDGE_LOOP('',(#379,#380,#381,#382,#383,#384));
#77=EDGE_LOOP('',(#385,#386,#387));
#78=EDGE_LOOP('',(#388,#389,#390,#391));
#79=EDGE_LOOP('',(#392));
#80=EDGE_LOOP('',(#393,#394,#395,#396));
#81=EDGE_LOOP('',(#397,#398,#399,#400,#401,#402));
#82=EDGE_LOOP('',(#403,#404,#405,#406,#407,#408));
#83=EDGE_LOOP('',(#409,#410,#411,#412,#413,#414));
#84=EDGE_LOOP('',(#415,#416,#417,#418,#419,#420));
#85=EDGE_LOOP('',(#421,#422,#423,#424,#425,#426));
#86=EDGE_LOOP('',(#427,#428,#429,#430));
#87=EDGE_LOOP('',(#431,#432,#433,#434,#435,#436,#437,#438));
#88=EDGE_LOOP('',(#439));
#89=EDGE_LOOP('',(#440));
#90=EDGE_LOOP('',(#441));
#91=EDGE_LOOP('',(#442));
#92=EDGE_LOOP('',(#443));
#93=LINE('',#694,#134);
#94=LINE('',#697,#135);
#95=LINE('',#700,#136);
#96=LINE('',#702,#137);
#97=LINE('',#703,#138);
#98=LINE('',#706,#139);
#99=LINE('',#710,#140);
#100=LINE('',#714,#141);
#101=LINE('',#722,#142);
#102=LINE('',#728,#143);
#103=LINE('',#732,#144);
#104=LINE('',#735,#145);
#105=LINE('',#739,#146);
#106=LINE('',#742,#147);
#107=LINE('',#743,#148);
#108=LINE('',#747,#149);
#109=LINE('',#750,#150);
#110=LINE('',#751,#151);
#111=LINE('',#755,#152);
#112=LINE('',#757,#153);
#113=LINE('',#761,#154);
#114=LINE('',#765,#155);
#115=LINE('',#766,#156);
#116=LINE('',#769,#157);
#117=LINE('',#773,#158);
#118=LINE('',#776,#159);
#119=LINE('',#781,#160);
#120=LINE('',#785,#161);
#121=LINE('',#786,#162);
#122=LINE('',#791,#163);
#123=LINE('',#796,#164);
#124=LINE('',#800,#165);
#125=LINE('',#803,#166);
#126=LINE('',#807,#167);
#127=LINE('',#809,#168);
#128=LINE('',#810,#169);
#129=LINE('',#813,#170);
#130=LINE('',#814,#171);
#131=LINE('',#817,#172);
#132=LINE('',#818,#173);
#133=LINE('',#820,#174);
#134=VECTOR('',#549,10.);
#135=VECTOR('',#552,10.);
#136=VECTOR('',#555,10.);
#137=VECTOR('',#556,10.);
#138=VECTOR('',#557,10.);
#139=VECTOR('',#560,10.);
#140=VECTOR('',#563,10.);
#141=VECTOR('',#566,10.);
#142=VECTOR('',#573,10.);
#143=VECTOR('',#578,10.);
#144=VECTOR('',#581,10.);
#145=VECTOR('',#584,10.);
#146=VECTOR('',#589,10.);
#147=VECTOR('',#592,10.);
#148=VECTOR('',#593,10.);
#149=VECTOR('',#598,10.);
#150=VECTOR('',#601,10.);
#151=VECTOR('',#602,10.);
#152=VECTOR('',#607,10.);
#153=VECTOR('',#610,10.);
#154=VECTOR('',#615,1.4);
#155=VECTOR('',#620,10.);
#156=VECTOR('',#621,10.);
#157=VECTOR('',#624,10.);
#158=VECTOR('',#629,10.);
#159=VECTOR('',#632,1.4);
#160=VECTOR('',#639,1.4);
#161=VECTOR('',#644,10.);
#162=VECTOR('',#645,10.);
#163=VECTOR('',#650,8.1);
#164=VECTOR('',#657,10.);
#165=VECTOR('',#662,10.);
#166=VECTOR('',#665,1.4);
#167=VECTOR('',#670,10.);
#168=VECTOR('',#671,10.);
#169=VECTOR('',#672,10.);
#170=VECTOR('',#675,10.);
#171=VECTOR('',#676,10.);
#172=VECTOR('',#679,10.);
#173=VECTOR('',#680,10.);
#174=VECTOR('',#683,10.);
#175=CIRCLE('',#493,2.);
#176=CIRCLE('',#494,2.);
#177=CIRCLE('',#497,2.);
#178=CIRCLE('',#498,2.);
#179=CIRCLE('',#499,2.);
#180=CIRCLE('',#500,1.4);
#181=CIRCLE('',#501,1.4);
#182=CIRCLE('',#502,1.4);
#183=CIRCLE('',#503,1.4);
#184=CIRCLE('',#504,1.4);
#185=CIRCLE('',#505,1.4);
#186=CIRCLE('',#507,2.);
#187=CIRCLE('',#510,2.);
#188=CIRCLE('',#513,2.);
#189=CIRCLE('',#516,1.4);
#190=CIRCLE('',#517,1.4);
#191=CIRCLE('',#520,1.4);
#192=CIRCLE('',#521,1.4);
#193=CIRCLE('',#523,1.4);
#194=CIRCLE('',#525,1.4);
#195=CIRCLE('',#526,1.4);
#196=CIRCLE('',#529,8.1);
#197=CIRCLE('',#530,8.1);
#198=CIRCLE('',#533,1.4);
#199=CIRCLE('',#534,1.4);
#200=CIRCLE('',#536,1.4);
#201=VERTEX_POINT('',#690);
#202=VERTEX_POINT('',#691);
#203=VERTEX_POINT('',#693);
#204=VERTEX_POINT('',#695);
#205=VERTEX_POINT('',#699);
#206=VERTEX_POINT('',#701);
#207=VERTEX_POINT('',#705);
#208=VERTEX_POINT('',#707);
#209=VERTEX_POINT('',#709);
#210=VERTEX_POINT('',#711);
#211=VERTEX_POINT('',#713);
#212=VERTEX_POINT('',#716);
#213=VERTEX_POINT('',#717);
#214=VERTEX_POINT('',#719);
#215=VERTEX_POINT('',#721);
#216=VERTEX_POINT('',#723);
#217=VERTEX_POINT('',#725);
#218=VERTEX_POINT('',#727);
#219=VERTEX_POINT('',#729);
#220=VERTEX_POINT('',#731);
#221=VERTEX_POINT('',#733);
#222=VERTEX_POINT('',#737);
#223=VERTEX_POINT('',#741);
#224=VERTEX_POINT('',#745);
#225=VERTEX_POINT('',#749);
#226=VERTEX_POINT('',#753);
#227=VERTEX_POINT('',#760);
#228=VERTEX_POINT('',#764);
#229=VERTEX_POINT('',#768);
#230=VERTEX_POINT('',#770);
#231=VERTEX_POINT('',#775);
#232=VERTEX_POINT('',#780);
#233=VERTEX_POINT('',#784);
#234=VERTEX_POINT('',#788);
#235=VERTEX_POINT('',#790);
#236=VERTEX_POINT('',#795);
#237=VERTEX_POINT('',#797);
#238=VERTEX_POINT('',#802);
#239=VERTEX_POINT('',#806);
#240=VERTEX_POINT('',#808);
#241=VERTEX_POINT('',#812);
#242=VERTEX_POINT('',#816);
#243=EDGE_CURVE('',#201,#202,#175,.T.);
#244=EDGE_CURVE('',#202,#203,#93,.T.);
#245=EDGE_CURVE('',#203,#204,#176,.T.);
#246=EDGE_CURVE('',#204,#201,#94,.T.);
#247=EDGE_CURVE('',#204,#205,#95,.T.);
#248=EDGE_CURVE('',#206,#205,#96,.T.);
#249=EDGE_CURVE('',#201,#206,#97,.T.);
#250=EDGE_CURVE('',#207,#203,#98,.T.);
#251=EDGE_CURVE('',#208,#207,#177,.T.);
#252=EDGE_CURVE('',#209,#208,#99,.T.);
#253=EDGE_CURVE('',#210,#209,#178,.T.);
#254=EDGE_CURVE('',#211,#210,#100,.T.);
#255=EDGE_CURVE('',#205,#211,#179,.T.);
#256=EDGE_CURVE('',#212,#213,#180,.T.);
#257=EDGE_CURVE('',#213,#214,#181,.T.);
#258=EDGE_CURVE('',#214,#215,#101,.T.);
#259=EDGE_CURVE('',#215,#216,#182,.T.);
#260=EDGE_CURVE('',#216,#217,#183,.T.);
#261=EDGE_CURVE('',#217,#218,#102,.T.);
#262=EDGE_CURVE('',#218,#219,#184,.T.);
#263=EDGE_CURVE('',#219,#220,#103,.T.);
#264=EDGE_CURVE('',#220,#221,#185,.T.);
#265=EDGE_CURVE('',#221,#212,#104,.T.);
#266=EDGE_CURVE('',#222,#206,#186,.T.);
#267=EDGE_CURVE('',#211,#222,#105,.T.);
#268=EDGE_CURVE('',#223,#210,#106,.T.);
#269=EDGE_CURVE('',#222,#223,#107,.T.);
#270=EDGE_CURVE('',#224,#223,#187,.T.);
#271=EDGE_CURVE('',#209,#224,#108,.T.);
#272=EDGE_CURVE('',#225,#208,#109,.T.);
#273=EDGE_CURVE('',#224,#225,#110,.T.);
#274=EDGE_CURVE('',#226,#225,#188,.T.);
#275=EDGE_CURVE('',#207,#226,#111,.T.);
#276=EDGE_CURVE('',#226,#202,#112,.T.);
#277=EDGE_CURVE('',#214,#212,#189,.T.);
#278=EDGE_CURVE('',#213,#227,#113,.T.);
#279=EDGE_CURVE('',#227,#227,#190,.T.);
#280=EDGE_CURVE('',#212,#228,#114,.T.);
#281=EDGE_CURVE('',#228,#214,#115,.T.);
#282=EDGE_CURVE('',#229,#219,#116,.T.);
#283=EDGE_CURVE('',#219,#230,#191,.T.);
#284=EDGE_CURVE('',#230,#218,#192,.T.);
#285=EDGE_CURVE('',#218,#229,#117,.T.);
#286=EDGE_CURVE('',#230,#231,#118,.T.);
#287=EDGE_CURVE('',#231,#231,#193,.T.);
#288=EDGE_CURVE('',#217,#215,#194,.T.);
#289=EDGE_CURVE('',#216,#232,#119,.T.);
#290=EDGE_CURVE('',#232,#232,#195,.T.);
#291=EDGE_CURVE('',#215,#233,#120,.T.);
#292=EDGE_CURVE('',#233,#217,#121,.T.);
#293=EDGE_CURVE('',#234,#234,#196,.T.);
#294=EDGE_CURVE('',#234,#235,#122,.T.);
#295=EDGE_CURVE('',#235,#235,#197,.T.);
#296=EDGE_CURVE('',#236,#221,#123,.T.);
#297=EDGE_CURVE('',#221,#237,#198,.T.);
#298=EDGE_CURVE('',#237,#220,#199,.T.);
#299=EDGE_CURVE('',#220,#236,#124,.T.);
#300=EDGE_CURVE('',#237,#238,#125,.T.);
#301=EDGE_CURVE('',#238,#238,#200,.T.);
#302=EDGE_CURVE('',#233,#239,#126,.T.);
#303=EDGE_CURVE('',#240,#239,#127,.T.);
#304=EDGE_CURVE('',#229,#240,#128,.T.);
#305=EDGE_CURVE('',#241,#240,#129,.T.);
#306=EDGE_CURVE('',#236,#241,#130,.T.);
#307=EDGE_CURVE('',#242,#241,#131,.T.);
#308=EDGE_CURVE('',#228,#242,#132,.T.);
#309=EDGE_CURVE('',#239,#242,#133,.T.);
#310=ORIENTED_EDGE('',*,*,#243,.T.);
#311=ORIENTED_EDGE('',*,*,#244,.T.);
#312=ORIENTED_EDGE('',*,*,#245,.T.);
#313=ORIENTED_EDGE('',*,*,#246,.T.);
#314=ORIENTED_EDGE('',*,*,#246,.F.);
#315=ORIENTED_EDGE('',*,*,#247,.T.);
#316=ORIENTED_EDGE('',*,*,#248,.F.);
#317=ORIENTED_EDGE('',*,*,#249,.F.);
#318=ORIENTED_EDGE('',*,*,#245,.F.);
#319=ORIENTED_EDGE('',*,*,#250,.F.);
#320=ORIENTED_EDGE('',*,*,#251,.F.);
#321=ORIENTED_EDGE('',*,*,#252,.F.);
#322=ORIENTED_EDGE('',*,*,#253,.F.);
#323=ORIENTED_EDGE('',*,*,#254,.F.);
#324=ORIENTED_EDGE('',*,*,#255,.F.);
#325=ORIENTED_EDGE('',*,*,#247,.F.);
#326=ORIENTED_EDGE('',*,*,#256,.T.);
#327=ORIENTED_EDGE('',*,*,#257,.T.);
#328=ORIENTED_EDGE('',*,*,#258,.T.);
#329=ORIENTED_EDGE('',*,*,#259,.T.);
#330=ORIENTED_EDGE('',*,*,#260,.T.);
#331=ORIENTED_EDGE('',*,*,#261,.T.);
#332=ORIENTED_EDGE('',*,*,#262,.T.);
#333=ORIENTED_EDGE('',*,*,#263,.T.);
#334=ORIENTED_EDGE('',*,*,#264,.T.);
#335=ORIENTED_EDGE('',*,*,#265,.T.);
#336=ORIENTED_EDGE('',*,*,#266,.T.);
#337=ORIENTED_EDGE('',*,*,#248,.T.);
#338=ORIENTED_EDGE('',*,*,#255,.T.);
#339=ORIENTED_EDGE('',*,*,#267,.T.);
#340=ORIENTED_EDGE('',*,*,#267,.F.);
#341=ORIENTED_EDGE('',*,*,#254,.T.);
#342=ORIENTED_EDGE('',*,*,#268,.F.);
#343=ORIENTED_EDGE('',*,*,#269,.F.);
#344=ORIENTED_EDGE('',*,*,#270,.T.);
#345=ORIENTED_EDGE('',*,*,#268,.T.);
#346=ORIENTED_EDGE('',*,*,#253,.T.);
#347=ORIENTED_EDGE('',*,*,#271,.T.);
#348=ORIENTED_EDGE('',*,*,#271,.F.);
#349=ORIENTED_EDGE('',*,*,#252,.T.);
#350=ORIENTED_EDGE('',*,*,#272,.F.);
#351=ORIENTED_EDGE('',*,*,#273,.F.);
#352=ORIENTED_EDGE('',*,*,#274,.T.);
#353=ORIENTED_EDGE('',*,*,#272,.T.);
#354=ORIENTED_EDGE('',*,*,#251,.T.);
#355=ORIENTED_EDGE('',*,*,#275,.T.);
#356=ORIENTED_EDGE('',*,*,#244,.F.);
#357=ORIENTED_EDGE('',*,*,#276,.F.);
#358=ORIENTED_EDGE('',*,*,#275,.F.);
#359=ORIENTED_EDGE('',*,*,#250,.T.);
#360=ORIENTED_EDGE('',*,*,#256,.F.);
#361=ORIENTED_EDGE('',*,*,#277,.F.);
#362=ORIENTED_EDGE('',*,*,#257,.F.);
#363=ORIENTED_EDGE('',*,*,#278,.T.);
#364=ORIENTED_EDGE('',*,*,#279,.F.);
#365=ORIENTED_EDGE('',*,*,#278,.F.);
#366=ORIENTED_EDGE('',*,*,#280,.T.);
#367=ORIENTED_EDGE('',*,*,#281,.T.);
#368=ORIENTED_EDGE('',*,*,#277,.T.);
#369=ORIENTED_EDGE('',*,*,#282,.T.);
#370=ORIENTED_EDGE('',*,*,#283,.T.);
#371=ORIENTED_EDGE('',*,*,#284,.T.);
#372=ORIENTED_EDGE('',*,*,#285,.T.);
#373=ORIENTED_EDGE('',*,*,#283,.F.);
#374=ORIENTED_EDGE('',*,*,#262,.F.);
#375=ORIENTED_EDGE('',*,*,#284,.F.);
#376=ORIENTED_EDGE('',*,*,#286,.T.);
#377=ORIENTED_EDGE('',*,*,#287,.F.);
#378=ORIENTED_EDGE('',*,*,#286,.F.);
#379=ORIENTED_EDGE('',*,*,#259,.F.);
#380=ORIENTED_EDGE('',*,*,#288,.F.);
#381=ORIENTED_EDGE('',*,*,#260,.F.);
#382=ORIENTED_EDGE('',*,*,#289,.T.);
#383=ORIENTED_EDGE('',*,*,#290,.F.);
#384=ORIENTED_EDGE('',*,*,#289,.F.);
#385=ORIENTED_EDGE('',*,*,#291,.T.);
#386=ORIENTED_EDGE('',*,*,#292,.T.);
#387=ORIENTED_EDGE('',*,*,#288,.T.);
#388=ORIENTED_EDGE('',*,*,#293,.F.);
#389=ORIENTED_EDGE('',*,*,#294,.T.);
#390=ORIENTED_EDGE('',*,*,#295,.F.);
#391=ORIENTED_EDGE('',*,*,#294,.F.);
#392=ORIENTED_EDGE('',*,*,#293,.T.);
#393=ORIENTED_EDGE('',*,*,#296,.T.);
#394=ORIENTED_EDGE('',*,*,#297,.T.);
#395=ORIENTED_EDGE('',*,*,#298,.T.);
#396=ORIENTED_EDGE('',*,*,#299,.T.);
#397=ORIENTED_EDGE('',*,*,#297,.F.);
#398=ORIENTED_EDGE('',*,*,#264,.F.);
#399=ORIENTED_EDGE('',*,*,#298,.F.);
#400=ORIENTED_EDGE('',*,*,#300,.T.);
#401=ORIENTED_EDGE('',*,*,#301,.F.);
#402=ORIENTED_EDGE('',*,*,#300,.F.);
#403=ORIENTED_EDGE('',*,*,#292,.F.);
#404=ORIENTED_EDGE('',*,*,#302,.T.);
#405=ORIENTED_EDGE('',*,*,#303,.F.);
#406=ORIENTED_EDGE('',*,*,#304,.F.);
#407=ORIENTED_EDGE('',*,*,#285,.F.);
#408=ORIENTED_EDGE('',*,*,#261,.F.);
#409=ORIENTED_EDGE('',*,*,#282,.F.);
#410=ORIENTED_EDGE('',*,*,#304,.T.);
#411=ORIENTED_EDGE('',*,*,#305,.F.);
#412=ORIENTED_EDGE('',*,*,#306,.F.);
#413=ORIENTED_EDGE('',*,*,#299,.F.);
#414=ORIENTED_EDGE('',*,*,#263,.F.);
#415=ORIENTED_EDGE('',*,*,#296,.F.);
#416=ORIENTED_EDGE('',*,*,#306,.T.);
#417=ORIENTED_EDGE('',*,*,#307,.F.);
#418=ORIENTED_EDGE('',*,*,#308,.F.);
#419=ORIENTED_EDGE('',*,*,#280,.F.);
#420=ORIENTED_EDGE('',*,*,#265,.F.);
#421=ORIENTED_EDGE('',*,*,#281,.F.);
#422=ORIENTED_EDGE('',*,*,#308,.T.);
#423=ORIENTED_EDGE('',*,*,#309,.F.);
#424=ORIENTED_EDGE('',*,*,#302,.F.);
#425=ORIENTED_EDGE('',*,*,#291,.F.);
#426=ORIENTED_EDGE('',*,*,#258,.F.);
#427=ORIENTED_EDGE('',*,*,#309,.T.);
#428=ORIENTED_EDGE('',*,*,#307,.T.);
#429=ORIENTED_EDGE('',*,*,#305,.T.);
#430=ORIENTED_EDGE('',*,*,#303,.T.);
#431=ORIENTED_EDGE('',*,*,#243,.F.);
#432=ORIENTED_EDGE('',*,*,#249,.T.);
#433=ORIENTED_EDGE('',*,*,#266,.F.);
#434=ORIENTED_EDGE('',*,*,#269,.T.);
#435=ORIENTED_EDGE('',*,*,#270,.F.);
#436=ORIENTED_EDGE('',*,*,#273,.T.);
#437=ORIENTED_EDGE('',*,*,#274,.F.);
#438=ORIENTED_EDGE('',*,*,#276,.T.);
#439=ORIENTED_EDGE('',*,*,#301,.T.);
#440=ORIENTED_EDGE('',*,*,#295,.T.);
#441=ORIENTED_EDGE('',*,*,#290,.T.);
#442=ORIENTED_EDGE('',*,*,#287,.T.);
#443=ORIENTED_EDGE('',*,*,#279,.T.);
#444=CYLINDRICAL_SURFACE('',#492,2.);
#445=CYLINDRICAL_SURFACE('',#506,2.);
#446=CYLINDRICAL_SURFACE('',#509,2.);
#447=CYLINDRICAL_SURFACE('',#512,2.);
#448=CYLINDRICAL_SURFACE('',#515,1.4);
#449=CYLINDRICAL_SURFACE('',#522,1.4);
#450=CYLINDRICAL_SURFACE('',#524,1.4);
#451=CYLINDRICAL_SURFACE('',#528,8.1);
#452=CYLINDRICAL_SURFACE('',#535,1.4);
#453=ADVANCED_FACE('',(#37),#444,.T.);
#454=ADVANCED_FACE('',(#38),#21,.T.);
#455=ADVANCED_FACE('',(#39,#15),#22,.F.);
#456=ADVANCED_FACE('',(#40),#445,.T.);
#457=ADVANCED_FACE('',(#41),#23,.T.);
#458=ADVANCED_FACE('',(#42),#446,.T.);
#459=ADVANCED_FACE('',(#43),#24,.T.);
#460=ADVANCED_FACE('',(#44),#447,.T.);
#461=ADVANCED_FACE('',(#45),#25,.T.);
#462=ADVANCED_FACE('',(#46),#448,.F.);
#463=ADVANCED_FACE('',(#47),#26,.T.);
#464=ADVANCED_FACE('',(#48),#27,.T.);
#465=ADVANCED_FACE('',(#49),#449,.F.);
#466=ADVANCED_FACE('',(#50),#450,.F.);
#467=ADVANCED_FACE('',(#51),#28,.T.);
#468=ADVANCED_FACE('',(#52),#451,.F.);
#469=ADVANCED_FACE('',(#53),#29,.T.);
#470=ADVANCED_FACE('',(#54),#30,.T.);
#471=ADVANCED_FACE('',(#55),#452,.F.);
#472=ADVANCED_FACE('',(#56),#31,.T.);
#473=ADVANCED_FACE('',(#57),#32,.T.);
#474=ADVANCED_FACE('',(#58),#33,.T.);
#475=ADVANCED_FACE('',(#59),#34,.T.);
#476=ADVANCED_FACE('',(#60),#35,.T.);
#477=ADVANCED_FACE('',(#61,#16,#17,#18,#19,#20),#36,.T.);
#478=CLOSED_SHELL('',(#453,#454,#455,#456,#457,#458,#459,#460,#461,#462,
#463,#464,#465,#466,#467,#468,#469,#470,#471,#472,#473,#474,#475,#476,#477));
#479=DERIVED_UNIT_ELEMENT(#481,1.);
#480=DERIVED_UNIT_ELEMENT(#828,-3.);
#481=(
MASS_UNIT()
NAMED_UNIT(*)
SI_UNIT(.KILO.,.GRAM.)
);
#482=DERIVED_UNIT((#479,#480));
#483=MEASURE_REPRESENTATION_ITEM('density measure',
POSITIVE_RATIO_MEASURE(7850.),#482);
#484=PROPERTY_DEFINITION_REPRESENTATION(#489,#486);
#485=PROPERTY_DEFINITION_REPRESENTATION(#490,#487);
#486=REPRESENTATION('material name',(#488),#825);
#487=REPRESENTATION('density',(#483),#825);
#488=DESCRIPTIVE_REPRESENTATION_ITEM('A\X\E7o','A\X\E7o');
#489=PROPERTY_DEFINITION('material property','material name',#835);
#490=PROPERTY_DEFINITION('material property','density of part',#835);
#491=AXIS2_PLACEMENT_3D('',#688,#543,#544);
#492=AXIS2_PLACEMENT_3D('',#689,#545,#546);
#493=AXIS2_PLACEMENT_3D('',#692,#547,#548);
#494=AXIS2_PLACEMENT_3D('',#696,#550,#551);
#495=AXIS2_PLACEMENT_3D('',#698,#553,#554);
#496=AXIS2_PLACEMENT_3D('',#704,#558,#559);
#497=AXIS2_PLACEMENT_3D('',#708,#561,#562);
#498=AXIS2_PLACEMENT_3D('',#712,#564,#565);
#499=AXIS2_PLACEMENT_3D('',#715,#567,#568);
#500=AXIS2_PLACEMENT_3D('',#718,#569,#570);
#501=AXIS2_PLACEMENT_3D('',#720,#571,#572);
#502=AXIS2_PLACEMENT_3D('',#724,#574,#575);
#503=AXIS2_PLACEMENT_3D('',#726,#576,#577);
#504=AXIS2_PLACEMENT_3D('',#730,#579,#580);
#505=AXIS2_PLACEMENT_3D('',#734,#582,#583);
#506=AXIS2_PLACEMENT_3D('',#736,#585,#586);
#507=AXIS2_PLACEMENT_3D('',#738,#587,#588);
#508=AXIS2_PLACEMENT_3D('',#740,#590,#591);
#509=AXIS2_PLACEMENT_3D('',#744,#594,#595);
#510=AXIS2_PLACEMENT_3D('',#746,#596,#597);
#511=AXIS2_PLACEMENT_3D('',#748,#599,#600);
#512=AXIS2_PLACEMENT_3D('',#752,#603,#604);
#513=AXIS2_PLACEMENT_3D('',#754,#605,#606);
#514=AXIS2_PLACEMENT_3D('',#756,#608,#609);
#515=AXIS2_PLACEMENT_3D('',#758,#611,#612);
#516=AXIS2_PLACEMENT_3D('',#759,#613,#614);
#517=AXIS2_PLACEMENT_3D('',#762,#616,#617);
#518=AXIS2_PLACEMENT_3D('',#763,#618,#619);
#519=AXIS2_PLACEMENT_3D('',#767,#622,#623);
#520=AXIS2_PLACEMENT_3D('',#771,#625,#626);
#521=AXIS2_PLACEMENT_3D('',#772,#627,#628);
#522=AXIS2_PLACEMENT_3D('',#774,#630,#631);
#523=AXIS2_PLACEMENT_3D('',#777,#633,#634);
#524=AXIS2_PLACEMENT_3D('',#778,#635,#636);
#525=AXIS2_PLACEMENT_3D('',#779,#637,#638);
#526=AXIS2_PLACEMENT_3D('',#782,#640,#641);
#527=AXIS2_PLACEMENT_3D('',#783,#642,#643);
#528=AXIS2_PLACEMENT_3D('',#787,#646,#647);
#529=AXIS2_PLACEMENT_3D('',#789,#648,#649);
#530=AXIS2_PLACEMENT_3D('',#792,#651,#652);
#531=AXIS2_PLACEMENT_3D('',#793,#653,#654);
#532=AXIS2_PLACEMENT_3D('',#794,#655,#656);
#533=AXIS2_PLACEMENT_3D('',#798,#658,#659);
#534=AXIS2_PLACEMENT_3D('',#799,#660,#661);
#535=AXIS2_PLACEMENT_3D('',#801,#663,#664);
#536=AXIS2_PLACEMENT_3D('',#804,#666,#667);
#537=AXIS2_PLACEMENT_3D('',#805,#668,#669);
#538=AXIS2_PLACEMENT_3D('',#811,#673,#674);
#539=AXIS2_PLACEMENT_3D('',#815,#677,#678);
#540=AXIS2_PLACEMENT_3D('',#819,#681,#682);
#541=AXIS2_PLACEMENT_3D('',#821,#684,#685);
#542=AXIS2_PLACEMENT_3D('',#822,#686,#687);
#543=DIRECTION('axis',(0.,0.,1.));
#544=DIRECTION('refdir',(1.,0.,0.));
#545=DIRECTION('center_axis',(0.,0.,1.));
#546=DIRECTION('ref_axis',(-0.707106781186548,-0.707106781186548,0.));
#547=DIRECTION('center_axis',(0.,0.,-1.));
#548=DIRECTION('ref_axis',(-0.707106781186548,-0.707106781186548,0.));
#549=DIRECTION('',(0.,0.,-1.));
#550=DIRECTION('center_axis',(0.,0.,1.));
#551=DIRECTION('ref_axis',(-0.707106781186548,-0.707106781186548,0.));
#552=DIRECTION('',(0.,0.,1.));
#553=DIRECTION('center_axis',(0.,-1.,0.));
#554=DIRECTION('ref_axis',(1.,0.,0.));
#555=DIRECTION('',(1.,0.,0.));
#556=DIRECTION('',(0.,0.,-1.));
#557=DIRECTION('',(1.,0.,0.));
#558=DIRECTION('center_axis',(0.,0.,1.));
#559=DIRECTION('ref_axis',(1.,0.,0.));
#560=DIRECTION('',(0.,-1.,0.));
#561=DIRECTION('center_axis',(0.,0.,1.));
#562=DIRECTION('ref_axis',(-0.707106781186548,0.707106781186548,0.));
#563=DIRECTION('',(-1.,0.,0.));
#564=DIRECTION('center_axis',(0.,0.,1.));
#565=DIRECTION('ref_axis',(0.707106781186548,0.707106781186548,0.));
#566=DIRECTION('',(0.,1.,0.));
#567=DIRECTION('center_axis',(0.,0.,1.));
#568=DIRECTION('ref_axis',(0.707106781186548,-0.707106781186548,0.));
#569=DIRECTION('center_axis',(0.,0.,1.));
#570=DIRECTION('ref_axis',(1.,0.,0.));
#571=DIRECTION('center_axis',(0.,0.,1.));
#572=DIRECTION('ref_axis',(1.,0.,0.));
#573=DIRECTION('',(0.,-1.,0.));
#574=DIRECTION('center_axis',(0.,0.,1.));
#575=DIRECTION('ref_axis',(1.,0.,0.));
#576=DIRECTION('center_axis',(0.,0.,1.));
#577=DIRECTION('ref_axis',(1.,0.,0.));
#578=DIRECTION('',(1.,0.,0.));
#579=DIRECTION('center_axis',(0.,0.,1.));
#580=DIRECTION('ref_axis',(1.,0.,0.));
#581=DIRECTION('',(0.,1.,0.));
#582=DIRECTION('center_axis',(0.,0.,1.));
#583=DIRECTION('ref_axis',(1.,0.,0.));
#584=DIRECTION('',(-1.,0.,0.));
#585=DIRECTION('center_axis',(0.,0.,1.));
#586=DIRECTION('ref_axis',(0.707106781186548,-0.707106781186548,0.));
#587=DIRECTION('center_axis',(0.,0.,-1.));
#588=DIRECTION('ref_axis',(0.707106781186548,-0.707106781186548,0.));
#589=DIRECTION('',(0.,0.,1.));
#590=DIRECTION('center_axis',(1.,0.,0.));
#591=DIRECTION('ref_axis',(0.,1.,0.));
#592=DIRECTION('',(0.,0.,-1.));
#593=DIRECTION('',(0.,1.,0.));
#594=DIRECTION('center_axis',(0.,0.,1.));
#595=DIRECTION('ref_axis',(0.707106781186548,0.707106781186548,0.));
#596=DIRECTION('center_axis',(0.,0.,-1.));
#597=DIRECTION('ref_axis',(0.707106781186548,0.707106781186548,0.));
#598=DIRECTION('',(0.,0.,1.));
#599=DIRECTION('center_axis',(0.,1.,0.));
#600=DIRECTION('ref_axis',(-1.,0.,0.));
#601=DIRECTION('',(0.,0.,-1.));
#602=DIRECTION('',(-1.,0.,0.));
#603=DIRECTION('center_axis',(0.,0.,1.));
#604=DIRECTION('ref_axis',(-0.707106781186548,0.707106781186548,0.));
#605=DIRECTION('center_axis',(0.,0.,-1.));
#606=DIRECTION('ref_axis',(-0.707106781186548,0.707106781186548,0.));
#607=DIRECTION('',(0.,0.,1.));
#608=DIRECTION('center_axis',(-1.,0.,0.));
#609=DIRECTION('ref_axis',(0.,-1.,0.));
#610=DIRECTION('',(0.,-1.,0.));
#611=DIRECTION('center_axis',(0.,0.,1.));
#612=DIRECTION('ref_axis',(1.,0.,0.));
#613=DIRECTION('center_axis',(0.,0.,1.));
#614=DIRECTION('ref_axis',(1.,0.,0.));
#615=DIRECTION('',(0.,0.,1.));
#616=DIRECTION('center_axis',(0.,0.,-1.));
#617=DIRECTION('ref_axis',(1.,0.,0.));
#618=DIRECTION('center_axis',(0.,0.,1.));
#619=DIRECTION('ref_axis',(1.,0.,0.));
#620=DIRECTION('',(-1.,0.,0.));
#621=DIRECTION('',(0.,-1.,0.));
#622=DIRECTION('center_axis',(0.,0.,1.));
#623=DIRECTION('ref_axis',(1.,0.,0.));
#624=DIRECTION('',(0.,1.,0.));
#625=DIRECTION('center_axis',(0.,0.,1.));
#626=DIRECTION('ref_axis',(1.,0.,0.));
#627=DIRECTION('center_axis',(0.,0.,1.));
#628=DIRECTION('ref_axis',(1.,0.,0.));
#629=DIRECTION('',(1.,0.,0.));
#630=DIRECTION('center_axis',(0.,0.,1.));
#631=DIRECTION('ref_axis',(1.,0.,0.));
#632=DIRECTION('',(0.,0.,1.));
#633=DIRECTION('center_axis',(0.,0.,-1.));
#634=DIRECTION('ref_axis',(1.,0.,0.));
#635=DIRECTION('center_axis',(0.,0.,1.));
#636=DIRECTION('ref_axis',(1.,0.,0.));
#637=DIRECTION('center_axis',(0.,0.,1.));
#638=DIRECTION('ref_axis',(1.,0.,0.));
#639=DIRECTION('',(0.,0.,1.));
#640=DIRECTION('center_axis',(0.,0.,-1.));
#641=DIRECTION('ref_axis',(1.,0.,0.));
#642=DIRECTION('center_axis',(0.,0.,1.));
#643=DIRECTION('ref_axis',(1.,0.,0.));
#644=DIRECTION('',(0.,-1.,0.));
#645=DIRECTION('',(1.,0.,0.));
#646=DIRECTION('center_axis',(0.,0.,1.));
#647=DIRECTION('ref_axis',(1.,0.,0.));
#648=DIRECTION('center_axis',(0.,0.,1.));
#649=DIRECTION('ref_axis',(1.,0.,0.));
#650=DIRECTION('',(0.,0.,1.));
#651=DIRECTION('center_axis',(0.,0.,-1.));
#652=DIRECTION('ref_axis',(1.,0.,0.));
#653=DIRECTION('center_axis',(0.,0.,1.));
#654=DIRECTION('ref_axis',(1.,0.,0.));
#655=DIRECTION('center_axis',(0.,0.,1.));
#656=DIRECTION('ref_axis',(1.,0.,0.));
#657=DIRECTION('',(-1.,0.,0.));
#658=DIRECTION('center_axis',(0.,0.,1.));
#659=DIRECTION('ref_axis',(1.,0.,0.));
#660=DIRECTION('center_axis',(0.,0.,1.));
#661=DIRECTION('ref_axis',(1.,0.,0.));
#662=DIRECTION('',(0.,1.,0.));
#663=DIRECTION('center_axis',(0.,0.,1.));
#664=DIRECTION('ref_axis',(1.,0.,0.));
#665=DIRECTION('',(0.,0.,1.));
#666=DIRECTION('center_axis',(0.,0.,-1.));
#667=DIRECTION('ref_axis',(1.,0.,0.));
#668=DIRECTION('center_axis',(0.,-1.,0.));
#669=DIRECTION('ref_axis',(-1.,0.,0.));
#670=DIRECTION('',(0.,0.,-1.));
#671=DIRECTION('',(-1.,0.,0.));
#672=DIRECTION('',(0.,0.,-1.));
#673=DIRECTION('center_axis',(1.,0.,0.));
#674=DIRECTION('ref_axis',(0.,-1.,0.));
#675=DIRECTION('',(0.,-1.,0.));
#676=DIRECTION('',(0.,0.,-1.));
#677=DIRECTION('center_axis',(0.,1.,0.));
#678=DIRECTION('ref_axis',(1.,0.,0.));
#679=DIRECTION('',(1.,0.,0.));
#680=DIRECTION('',(0.,0.,-1.));
#681=DIRECTION('center_axis',(-1.,0.,0.));
#682=DIRECTION('ref_axis',(0.,1.,0.));
#683=DIRECTION('',(0.,1.,0.));
#684=DIRECTION('center_axis',(0.,0.,-1.));
#685=DIRECTION('ref_axis',(-1.,0.,0.));
#686=DIRECTION('center_axis',(0.,0.,1.));
#687=DIRECTION('ref_axis',(1.,0.,0.));
#688=CARTESIAN_POINT('',(0.,0.,0.));
#689=CARTESIAN_POINT('Origin',(-13.,-14.,0.));
#690=CARTESIAN_POINT('',(-13.,-16.,8.));
#691=CARTESIAN_POINT('',(-15.,-14.,8.));
#692=CARTESIAN_POINT('Origin',(-13.,-14.,8.));
#693=CARTESIAN_POINT('',(-15.,-14.,0.));
#694=CARTESIAN_POINT('',(-15.,-14.,0.));
#695=CARTESIAN_POINT('',(-13.,-16.,0.));
#696=CARTESIAN_POINT('Origin',(-13.,-14.,0.));
#697=CARTESIAN_POINT('',(-13.,-16.,0.));
#698=CARTESIAN_POINT('Origin',(-15.,-16.,0.));
#699=CARTESIAN_POINT('',(13.,-16.,0.));
#700=CARTESIAN_POINT('',(-15.,-16.,0.));
#701=CARTESIAN_POINT('',(13.,-16.,8.));
#702=CARTESIAN_POINT('',(13.,-16.,0.));
#703=CARTESIAN_POINT('',(-15.,-16.,8.));
#704=CARTESIAN_POINT('Origin',(0.,0.,0.));
#705=CARTESIAN_POINT('',(-15.,14.,0.));
#706=CARTESIAN_POINT('',(-15.,16.,0.));
#707=CARTESIAN_POINT('',(-13.,16.,0.));
#708=CARTESIAN_POINT('Origin',(-13.,14.,0.));
#709=CARTESIAN_POINT('',(13.,16.,0.));
#710=CARTESIAN_POINT('',(15.,16.,0.));
#711=CARTESIAN_POINT('',(15.,14.,0.));
#712=CARTESIAN_POINT('Origin',(13.,14.,0.));
#713=CARTESIAN_POINT('',(15.,-14.,0.));
#714=CARTESIAN_POINT('',(15.,-16.,0.));
#715=CARTESIAN_POINT('Origin',(13.,-14.,0.));
#716=CARTESIAN_POINT('',(-10.1325205668823,12.8,0.));
#717=CARTESIAN_POINT('',(-12.9,12.5,0.));
#718=CARTESIAN_POINT('Origin',(-11.5,12.5,0.));
#719=CARTESIAN_POINT('',(-10.6,11.4276194705236,0.));
#720=CARTESIAN_POINT('Origin',(-11.5,12.5,0.));
#721=CARTESIAN_POINT('',(-10.6,-11.4276194705236,0.));
#722=CARTESIAN_POINT('',(-10.6,-6.4,0.));
#723=CARTESIAN_POINT('',(-12.9,-12.5,0.));
#724=CARTESIAN_POINT('Origin',(-11.5,-12.5,0.));
#725=CARTESIAN_POINT('',(-10.1325205668823,-12.8,0.));
#726=CARTESIAN_POINT('Origin',(-11.5,-12.5,0.));
#727=CARTESIAN_POINT('',(10.1325205668823,-12.8,0.));
#728=CARTESIAN_POINT('',(5.3,-12.8,0.));
#729=CARTESIAN_POINT('',(10.6,-11.4276194705236,0.));
#730=CARTESIAN_POINT('Origin',(11.5,-12.5,0.));
#731=CARTESIAN_POINT('',(10.6,11.4276194705236,0.));
#732=CARTESIAN_POINT('',(10.6,6.4,0.));
#733=CARTESIAN_POINT('',(10.1325205668823,12.8,0.));
#734=CARTESIAN_POINT('Origin',(11.5,12.5,0.));
#735=CARTESIAN_POINT('',(-5.3,12.8,0.));
#736=CARTESIAN_POINT('Origin',(13.,-14.,0.));
#737=CARTESIAN_POINT('',(15.,-14.,8.));
#738=CARTESIAN_POINT('Origin',(13.,-14.,8.));
#739=CARTESIAN_POINT('',(15.,-14.,0.));
#740=CARTESIAN_POINT('Origin',(15.,-16.,0.));
#741=CARTESIAN_POINT('',(15.,14.,8.));
#742=CARTESIAN_POINT('',(15.,14.,0.));
#743=CARTESIAN_POINT('',(15.,-16.,8.));
#744=CARTESIAN_POINT('Origin',(13.,14.,0.));
#745=CARTESIAN_POINT('',(13.,16.,8.));
#746=CARTESIAN_POINT('Origin',(13.,14.,8.));
#747=CARTESIAN_POINT('',(13.,16.,0.));
#748=CARTESIAN_POINT('Origin',(15.,16.,0.));
#749=CARTESIAN_POINT('',(-13.,16.,8.));
#750=CARTESIAN_POINT('',(-13.,16.,0.));
#751=CARTESIAN_POINT('',(15.,16.,8.));
#752=CARTESIAN_POINT('Origin',(-13.,14.,0.));
#753=CARTESIAN_POINT('',(-15.,14.,8.));
#754=CARTESIAN_POINT('Origin',(-13.,14.,8.));
#755=CARTESIAN_POINT('',(-15.,14.,0.));
#756=CARTESIAN_POINT('Origin',(-15.,16.,0.));
#757=CARTESIAN_POINT('',(-15.,16.,8.));
#758=CARTESIAN_POINT('Origin',(-11.5,12.5,0.));
#759=CARTESIAN_POINT('Origin',(-11.5,12.5,0.));
#760=CARTESIAN_POINT('',(-12.9,12.5,8.));
#761=CARTESIAN_POINT('',(-12.9,12.5,0.));
#762=CARTESIAN_POINT('Origin',(-11.5,12.5,8.));
#763=CARTESIAN_POINT('Origin',(-11.5,12.5,0.));
#764=CARTESIAN_POINT('',(-10.6,12.8,0.));
#765=CARTESIAN_POINT('',(-5.3,12.8,0.));
#766=CARTESIAN_POINT('',(-10.6,-6.4,0.));
#767=CARTESIAN_POINT('Origin',(11.5,-12.5,0.));
#768=CARTESIAN_POINT('',(10.6,-12.8,0.));
#769=CARTESIAN_POINT('',(10.6,6.4,0.));
#770=CARTESIAN_POINT('',(10.1,-12.5,0.));
#771=CARTESIAN_POINT('Origin',(11.5,-12.5,0.));
#772=CARTESIAN_POINT('Origin',(11.5,-12.5,0.));
#773=CARTESIAN_POINT('',(5.3,-12.8,0.));
#774=CARTESIAN_POINT('Origin',(11.5,-12.5,0.));
#775=CARTESIAN_POINT('',(10.1,-12.5,8.));
#776=CARTESIAN_POINT('',(10.1,-12.5,0.));
#777=CARTESIAN_POINT('Origin',(11.5,-12.5,8.));
#778=CARTESIAN_POINT('Origin',(-11.5,-12.5,0.));
#779=CARTESIAN_POINT('Origin',(-11.5,-12.5,0.));
#780=CARTESIAN_POINT('',(-12.9,-12.5,8.));
#781=CARTESIAN_POINT('',(-12.9,-12.5,0.));
#782=CARTESIAN_POINT('Origin',(-11.5,-12.5,8.));
#783=CARTESIAN_POINT('Origin',(-11.5,-12.5,0.));
#784=CARTESIAN_POINT('',(-10.6,-12.8,0.));
#785=CARTESIAN_POINT('',(-10.6,-6.4,0.));
#786=CARTESIAN_POINT('',(5.3,-12.8,0.));
#787=CARTESIAN_POINT('Origin',(0.,0.,0.));
#788=CARTESIAN_POINT('',(-8.1,-9.91963907309356E-16,0.));
#789=CARTESIAN_POINT('Origin',(0.,0.,0.));
#790=CARTESIAN_POINT('',(-8.1,-9.91963907309356E-16,8.));
#791=CARTESIAN_POINT('',(-8.1,-9.91963907309356E-16,0.));
#792=CARTESIAN_POINT('Origin',(0.,0.,8.));
#793=CARTESIAN_POINT('Origin',(0.,0.,0.));
#794=CARTESIAN_POINT('Origin',(11.5,12.5,0.));
#795=CARTESIAN_POINT('',(10.6,12.8,0.));
#796=CARTESIAN_POINT('',(-5.3,12.8,0.));
#797=CARTESIAN_POINT('',(10.1,12.5,0.));
#798=CARTESIAN_POINT('Origin',(11.5,12.5,0.));
#799=CARTESIAN_POINT('Origin',(11.5,12.5,0.));
#800=CARTESIAN_POINT('',(10.6,6.4,0.));
#801=CARTESIAN_POINT('Origin',(11.5,12.5,0.));
#802=CARTESIAN_POINT('',(10.1,12.5,8.));
#803=CARTESIAN_POINT('',(10.1,12.5,0.));
#804=CARTESIAN_POINT('Origin',(11.5,12.5,8.));
#805=CARTESIAN_POINT('Origin',(10.6,-12.8,0.));
#806=CARTESIAN_POINT('',(-10.6,-12.8,-2.));
#807=CARTESIAN_POINT('',(-10.6,-12.8,0.));
#808=CARTESIAN_POINT('',(10.6,-12.8,-2.));
#809=CARTESIAN_POINT('',(-10.6,-12.8,-2.));
#810=CARTESIAN_POINT('',(10.6,-12.8,0.));
#811=CARTESIAN_POINT('Origin',(10.6,12.8,0.));
#812=CARTESIAN_POINT('',(10.6,12.8,-2.));
#813=CARTESIAN_POINT('',(10.6,-12.8,-2.));
#814=CARTESIAN_POINT('',(10.6,12.8,0.));
#815=CARTESIAN_POINT('Origin',(-10.6,12.8,0.));
#816=CARTESIAN_POINT('',(-10.6,12.8,-2.));
#817=CARTESIAN_POINT('',(10.6,12.8,-2.));
#818=CARTESIAN_POINT('',(-10.6,12.8,0.));
#819=CARTESIAN_POINT('Origin',(-10.6,-12.8,0.));
#820=CARTESIAN_POINT('',(-10.6,12.8,-2.));
#821=CARTESIAN_POINT('Origin',(0.,0.,-2.));
#822=CARTESIAN_POINT('Origin',(0.,0.,8.));
#823=UNCERTAINTY_MEASURE_WITH_UNIT(LENGTH_MEASURE(0.01),#827,
'DISTANCE_ACCURACY_VALUE',
'Maximum model space distance between geometric entities at asserted c
onnectivities');
#824=UNCERTAINTY_MEASURE_WITH_UNIT(LENGTH_MEASURE(0.01),#827,
'DISTANCE_ACCURACY_VALUE',
'Maximum model space distance between geometric entities at asserted c
onnectivities');
#825=(
GEOMETRIC_REPRESENTATION_CONTEXT(3)
GLOBAL_UNCERTAINTY_ASSIGNED_CONTEXT((#823))
GLOBAL_UNIT_ASSIGNED_CONTEXT((#827,#829,#830))
REPRESENTATION_CONTEXT('','3D')
);
#826=(
GEOMETRIC_REPRESENTATION_CONTEXT(3)
GLOBAL_UNCERTAINTY_ASSIGNED_CONTEXT((#824))
GLOBAL_UNIT_ASSIGNED_CONTEXT((#827,#829,#830))
REPRESENTATION_CONTEXT('','3D')
);
#827=(
LENGTH_UNIT()
NAMED_UNIT(*)
SI_UNIT(.MILLI.,.METRE.)
);
#828=(
LENGTH_UNIT()
NAMED_UNIT(*)
SI_UNIT($,.METRE.)
);
#829=(
NAMED_UNIT(*)
PLANE_ANGLE_UNIT()
SI_UNIT($,.RADIAN.)
);
#830=(
NAMED_UNIT(*)
SI_UNIT($,.STERADIAN.)
SOLID_ANGLE_UNIT()
);
#831=SHAPE_DEFINITION_REPRESENTATION(#832,#833);
#832=PRODUCT_DEFINITION_SHAPE('',$,#835);
#833=SHAPE_REPRESENTATION('',(#491),#825);
#834=PRODUCT_DEFINITION_CONTEXT('part definition',#839,'design');
#835=PRODUCT_DEFINITION('(N\X\E3o salvo)','(N\X\E3o salvo)',#836,#834);
#836=PRODUCT_DEFINITION_FORMATION('',$,#841);
#837=PRODUCT_RELATED_PRODUCT_CATEGORY('(N\X\E3o salvo)','(N\X\E3o salv
o)',(#841));
#838=APPLICATION_PROTOCOL_DEFINITION('international standard',
'automotive_design',2009,#839);
#839=APPLICATION_CONTEXT(
'Core Data for Automotive Mechanical Design Process');
#840=PRODUCT_CONTEXT('part definition',#839,'mechanical');
#841=PRODUCT('(N\X\E3o salvo)','(N\X\E3o salvo)',$,(#840));
#842=PRESENTATION_STYLE_ASSIGNMENT((#844));
#843=PRESENTATION_STYLE_ASSIGNMENT((#845));
#844=SURFACE_STYLE_USAGE(.BOTH.,#846);
#845=SURFACE_STYLE_USAGE(.BOTH.,#847);
#846=SURFACE_SIDE_STYLE('',(#848));
#847=SURFACE_SIDE_STYLE('',(#849));
#848=SURFACE_STYLE_FILL_AREA(#850);
#849=SURFACE_STYLE_FILL_AREA(#851);
#850=FILL_AREA_STYLE('A\X\E7o - Acetinado',(#852));
#851=FILL_AREA_STYLE('Alum_Anodized',(#853));
#852=FILL_AREA_STYLE_COLOUR('A\X\E7o - Acetinado',#854);
#853=FILL_AREA_STYLE_COLOUR('Alum_Anodized',#855);
#854=COLOUR_RGB('A\X\E7o - Acetinado',0.627450980392157,0.627450980392157,
0.627450980392157);
#855=COLOUR_RGB('Alum_Anodized',0.537254901960784,0.537254901960784,0.537254901960784);
ENDSEC;
END-ISO-10303-21;
