ISO-10303-21;
HEADER;
/* Generated by software containing ST-Developer
 * from STEP Tools, Inc. (www.steptools.com) 
 */

FILE_DESCRIPTION(
/* description */ (''),
/* implementation_level */ '2;1');

FILE_NAME(
/* name */ '04_Conector_Industrial_GX16_8Vias.step',
/* time_stamp */ '2026-09-21T23:35:29-03:00',
/* author */ (''),
/* organization */ (''),
/* preprocessor_version */ 'ST-DEVELOPER v20.2',
/* originating_system */ 'Autodesk Translation Framework v15.15.0.0',
/* authorisation */ '');

FILE_SCHEMA (('AUTOMOTIVE_DESIGN { 1 0 10303 214 3 1 1 }'));
ENDSEC;

DATA;
#10=MECHANICAL_DESIGN_GEOMETRIC_PRESENTATION_REPRESENTATION('',(#13,#14,
#15,#16,#17,#18,#19,#20,#21),#608);
#11=SHAPE_REPRESENTATION_RELATIONSHIP('SRR','None',#615,#12);
#12=ADVANCED_BREP_SHAPE_REPRESENTATION('',(#22,#23,#24,#25,#26,#27,#28,
#29,#30),#607);
#13=STYLED_ITEM('',(#625),#22);
#14=STYLED_ITEM('',(#626),#23);
#15=STYLED_ITEM('',(#626),#24);
#16=STYLED_ITEM('',(#626),#25);
#17=STYLED_ITEM('',(#626),#26);
#18=STYLED_ITEM('',(#626),#27);
#19=STYLED_ITEM('',(#626),#28);
#20=STYLED_ITEM('',(#626),#29);
#21=STYLED_ITEM('',(#626),#30);
#22=MANIFOLD_SOLID_BREP('Corpo_Metalico_GX16',#324);
#23=MANIFOLD_SOLID_BREP('Pino_Dourado',#325);
#24=MANIFOLD_SOLID_BREP('Pino_Dourado (1)',#326);
#25=MANIFOLD_SOLID_BREP('Pino_Dourado (2)',#327);
#26=MANIFOLD_SOLID_BREP('Pino_Dourado (3)',#328);
#27=MANIFOLD_SOLID_BREP('Pino_Dourado (4)',#329);
#28=MANIFOLD_SOLID_BREP('Pino_Dourado (5)',#330);
#29=MANIFOLD_SOLID_BREP('Pino_Dourado (6)',#331);
#30=MANIFOLD_SOLID_BREP('Pino_Dourado (7)',#332);
#31=FACE_BOUND('',#87,.T.);
#32=FACE_BOUND('',#90,.T.);
#33=PLANE('',#349);
#34=PLANE('',#350);
#35=PLANE('',#355);
#36=PLANE('',#358);
#37=PLANE('',#362);
#38=PLANE('',#363);
#39=PLANE('',#367);
#40=PLANE('',#368);
#41=PLANE('',#372);
#42=PLANE('',#373);
#43=PLANE('',#377);
#44=PLANE('',#378);
#45=PLANE('',#382);
#46=PLANE('',#383);
#47=PLANE('',#387);
#48=PLANE('',#388);
#49=PLANE('',#392);
#50=PLANE('',#393);
#51=PLANE('',#397);
#52=PLANE('',#398);
#53=FACE_OUTER_BOUND('',#84,.T.);
#54=FACE_OUTER_BOUND('',#85,.T.);
#55=FACE_OUTER_BOUND('',#86,.T.);
#56=FACE_OUTER_BOUND('',#88,.T.);
#57=FACE_OUTER_BOUND('',#89,.T.);
#58=FACE_OUTER_BOUND('',#91,.T.);
#59=FACE_OUTER_BOUND('',#92,.T.);
#60=FACE_OUTER_BOUND('',#93,.T.);
#61=FACE_OUTER_BOUND('',#94,.T.);
#62=FACE_OUTER_BOUND('',#95,.T.);
#63=FACE_OUTER_BOUND('',#96,.T.);
#64=FACE_OUTER_BOUND('',#97,.T.);
#65=FACE_OUTER_BOUND('',#98,.T.);
#66=FACE_OUTER_BOUND('',#99,.T.);
#67=FACE_OUTER_BOUND('',#100,.T.);
#68=FACE_OUTER_BOUND('',#101,.T.);
#69=FACE_OUTER_BOUND('',#102,.T.);
#70=FACE_OUTER_BOUND('',#103,.T.);
#71=FACE_OUTER_BOUND('',#104,.T.);
#72=FACE_OUTER_BOUND('',#105,.T.);
#73=FACE_OUTER_BOUND('',#106,.T.);
#74=FACE_OUTER_BOUND('',#107,.T.);
#75=FACE_OUTER_BOUND('',#108,.T.);
#76=FACE_OUTER_BOUND('',#109,.T.);
#77=FACE_OUTER_BOUND('',#110,.T.);
#78=FACE_OUTER_BOUND('',#111,.T.);
#79=FACE_OUTER_BOUND('',#112,.T.);
#80=FACE_OUTER_BOUND('',#113,.T.);
#81=FACE_OUTER_BOUND('',#114,.T.);
#82=FACE_OUTER_BOUND('',#115,.T.);
#83=FACE_OUTER_BOUND('',#116,.T.);
#84=EDGE_LOOP('',(#216,#217,#218,#219));
#85=EDGE_LOOP('',(#220));
#86=EDGE_LOOP('',(#221));
#87=EDGE_LOOP('',(#222));
#88=EDGE_LOOP('',(#223,#224,#225,#226));
#89=EDGE_LOOP('',(#227));
#90=EDGE_LOOP('',(#228));
#91=EDGE_LOOP('',(#229,#230,#231,#232));
#92=EDGE_LOOP('',(#233));
#93=EDGE_LOOP('',(#234,#235,#236,#237));
#94=EDGE_LOOP('',(#238));
#95=EDGE_LOOP('',(#239));
#96=EDGE_LOOP('',(#240,#241,#242,#243));
#97=EDGE_LOOP('',(#244));
#98=EDGE_LOOP('',(#245));
#99=EDGE_LOOP('',(#246,#247,#248,#249));
#100=EDGE_LOOP('',(#250));
#101=EDGE_LOOP('',(#251));
#102=EDGE_LOOP('',(#252,#253,#254,#255));
#103=EDGE_LOOP('',(#256));
#104=EDGE_LOOP('',(#257));
#105=EDGE_LOOP('',(#258,#259,#260,#261));
#106=EDGE_LOOP('',(#262));
#107=EDGE_LOOP('',(#263));
#108=EDGE_LOOP('',(#264,#265,#266,#267));
#109=EDGE_LOOP('',(#268));
#110=EDGE_LOOP('',(#269));
#111=EDGE_LOOP('',(#270,#271,#272,#273));
#112=EDGE_LOOP('',(#274));
#113=EDGE_LOOP('',(#275));
#114=EDGE_LOOP('',(#276,#277,#278,#279));
#115=EDGE_LOOP('',(#280));
#116=EDGE_LOOP('',(#281));
#117=LINE('',#523,#128);
#118=LINE('',#534,#129);
#119=LINE('',#538,#130);
#120=LINE('',#545,#131);
#121=LINE('',#553,#132);
#122=LINE('',#561,#133);
#123=LINE('',#569,#134);
#124=LINE('',#577,#135);
#125=LINE('',#585,#136);
#126=LINE('',#593,#137);
#127=LINE('',#601,#138);
#128=VECTOR('',#405,9.);
#129=VECTOR('',#420,9.5);
#130=VECTOR('',#425,8.);
#131=VECTOR('',#434,0.6);
#132=VECTOR('',#445,0.6);
#133=VECTOR('',#456,0.6);
#134=VECTOR('',#467,0.6);
#135=VECTOR('',#478,0.6);
#136=VECTOR('',#489,0.6);
#137=VECTOR('',#500,0.6);
#138=VECTOR('',#511,0.6);
#139=CIRCLE('',#347,9.);
#140=CIRCLE('',#348,9.);
#141=CIRCLE('',#351,9.5);
#142=CIRCLE('',#352,8.);
#143=CIRCLE('',#354,9.5);
#144=CIRCLE('',#357,8.);
#145=CIRCLE('',#360,0.6);
#146=CIRCLE('',#361,0.6);
#147=CIRCLE('',#365,0.6);
#148=CIRCLE('',#366,0.6);
#149=CIRCLE('',#370,0.6);
#150=CIRCLE('',#371,0.6);
#151=CIRCLE('',#375,0.6);
#152=CIRCLE('',#376,0.6);
#153=CIRCLE('',#380,0.6);
#154=CIRCLE('',#381,0.6);
#155=CIRCLE('',#385,0.6);
#156=CIRCLE('',#386,0.6);
#157=CIRCLE('',#390,0.6);
#158=CIRCLE('',#391,0.6);
#159=CIRCLE('',#395,0.6);
#160=CIRCLE('',#396,0.6);
#161=VERTEX_POINT('',#520);
#162=VERTEX_POINT('',#522);
#163=VERTEX_POINT('',#527);
#164=VERTEX_POINT('',#529);
#165=VERTEX_POINT('',#532);
#166=VERTEX_POINT('',#537);
#167=VERTEX_POINT('',#542);
#168=VERTEX_POINT('',#544);
#169=VERTEX_POINT('',#550);
#170=VERTEX_POINT('',#552);
#171=VERTEX_POINT('',#558);
#172=VERTEX_POINT('',#560);
#173=VERTEX_POINT('',#566);
#174=VERTEX_POINT('',#568);
#175=VERTEX_POINT('',#574);
#176=VERTEX_POINT('',#576);
#177=VERTEX_POINT('',#582);
#178=VERTEX_POINT('',#584);
#179=VERTEX_POINT('',#590);
#180=VERTEX_POINT('',#592);
#181=VERTEX_POINT('',#598);
#182=VERTEX_POINT('',#600);
#183=EDGE_CURVE('',#161,#161,#139,.T.);
#184=EDGE_CURVE('',#161,#162,#117,.T.);
#185=EDGE_CURVE('',#162,#162,#140,.T.);
#186=EDGE_CURVE('',#163,#163,#141,.T.);
#187=EDGE_CURVE('',#164,#164,#142,.T.);
#188=EDGE_CURVE('',#165,#165,#143,.T.);
#189=EDGE_CURVE('',#165,#163,#118,.T.);
#190=EDGE_CURVE('',#164,#166,#119,.T.);
#191=EDGE_CURVE('',#166,#166,#144,.T.);
#192=EDGE_CURVE('',#167,#167,#145,.T.);
#193=EDGE_CURVE('',#167,#168,#120,.T.);
#194=EDGE_CURVE('',#168,#168,#146,.T.);
#195=EDGE_CURVE('',#169,#169,#147,.T.);
#196=EDGE_CURVE('',#169,#170,#121,.T.);
#197=EDGE_CURVE('',#170,#170,#148,.T.);
#198=EDGE_CURVE('',#171,#171,#149,.T.);
#199=EDGE_CURVE('',#171,#172,#122,.T.);
#200=EDGE_CURVE('',#172,#172,#150,.T.);
#201=EDGE_CURVE('',#173,#173,#151,.T.);
#202=EDGE_CURVE('',#173,#174,#123,.T.);
#203=EDGE_CURVE('',#174,#174,#152,.T.);
#204=EDGE_CURVE('',#175,#175,#153,.T.);
#205=EDGE_CURVE('',#175,#176,#124,.T.);
#206=EDGE_CURVE('',#176,#176,#154,.T.);
#207=EDGE_CURVE('',#177,#177,#155,.T.);
#208=EDGE_CURVE('',#177,#178,#125,.T.);
#209=EDGE_CURVE('',#178,#178,#156,.T.);
#210=EDGE_CURVE('',#179,#179,#157,.T.);
#211=EDGE_CURVE('',#179,#180,#126,.T.);
#212=EDGE_CURVE('',#180,#180,#158,.T.);
#213=EDGE_CURVE('',#181,#181,#159,.T.);
#214=EDGE_CURVE('',#181,#182,#127,.T.);
#215=EDGE_CURVE('',#182,#182,#160,.T.);
#216=ORIENTED_EDGE('',*,*,#183,.F.);
#217=ORIENTED_EDGE('',*,*,#184,.T.);
#218=ORIENTED_EDGE('',*,*,#185,.F.);
#219=ORIENTED_EDGE('',*,*,#184,.F.);
#220=ORIENTED_EDGE('',*,*,#183,.T.);
#221=ORIENTED_EDGE('',*,*,#186,.F.);
#222=ORIENTED_EDGE('',*,*,#187,.T.);
#223=ORIENTED_EDGE('',*,*,#188,.F.);
#224=ORIENTED_EDGE('',*,*,#189,.T.);
#225=ORIENTED_EDGE('',*,*,#186,.T.);
#226=ORIENTED_EDGE('',*,*,#189,.F.);
#227=ORIENTED_EDGE('',*,*,#188,.T.);
#228=ORIENTED_EDGE('',*,*,#185,.T.);
#229=ORIENTED_EDGE('',*,*,#187,.F.);
#230=ORIENTED_EDGE('',*,*,#190,.T.);
#231=ORIENTED_EDGE('',*,*,#191,.T.);
#232=ORIENTED_EDGE('',*,*,#190,.F.);
#233=ORIENTED_EDGE('',*,*,#191,.F.);
#234=ORIENTED_EDGE('',*,*,#192,.F.);
#235=ORIENTED_EDGE('',*,*,#193,.T.);
#236=ORIENTED_EDGE('',*,*,#194,.F.);
#237=ORIENTED_EDGE('',*,*,#193,.F.);
#238=ORIENTED_EDGE('',*,*,#194,.T.);
#239=ORIENTED_EDGE('',*,*,#192,.T.);
#240=ORIENTED_EDGE('',*,*,#195,.F.);
#241=ORIENTED_EDGE('',*,*,#196,.T.);
#242=ORIENTED_EDGE('',*,*,#197,.F.);
#243=ORIENTED_EDGE('',*,*,#196,.F.);
#244=ORIENTED_EDGE('',*,*,#197,.T.);
#245=ORIENTED_EDGE('',*,*,#195,.T.);
#246=ORIENTED_EDGE('',*,*,#198,.F.);
#247=ORIENTED_EDGE('',*,*,#199,.T.);
#248=ORIENTED_EDGE('',*,*,#200,.F.);
#249=ORIENTED_EDGE('',*,*,#199,.F.);
#250=ORIENTED_EDGE('',*,*,#200,.T.);
#251=ORIENTED_EDGE('',*,*,#198,.T.);
#252=ORIENTED_EDGE('',*,*,#201,.F.);
#253=ORIENTED_EDGE('',*,*,#202,.T.);
#254=ORIENTED_EDGE('',*,*,#203,.F.);
#255=ORIENTED_EDGE('',*,*,#202,.F.);
#256=ORIENTED_EDGE('',*,*,#203,.T.);
#257=ORIENTED_EDGE('',*,*,#201,.T.);
#258=ORIENTED_EDGE('',*,*,#204,.F.);
#259=ORIENTED_EDGE('',*,*,#205,.T.);
#260=ORIENTED_EDGE('',*,*,#206,.F.);
#261=ORIENTED_EDGE('',*,*,#205,.F.);
#262=ORIENTED_EDGE('',*,*,#206,.T.);
#263=ORIENTED_EDGE('',*,*,#204,.T.);
#264=ORIENTED_EDGE('',*,*,#207,.F.);
#265=ORIENTED_EDGE('',*,*,#208,.T.);
#266=ORIENTED_EDGE('',*,*,#209,.F.);
#267=ORIENTED_EDGE('',*,*,#208,.F.);
#268=ORIENTED_EDGE('',*,*,#209,.T.);
#269=ORIENTED_EDGE('',*,*,#207,.T.);
#270=ORIENTED_EDGE('',*,*,#210,.F.);
#271=ORIENTED_EDGE('',*,*,#211,.T.);
#272=ORIENTED_EDGE('',*,*,#212,.F.);
#273=ORIENTED_EDGE('',*,*,#211,.F.);
#274=ORIENTED_EDGE('',*,*,#212,.T.);
#275=ORIENTED_EDGE('',*,*,#210,.T.);
#276=ORIENTED_EDGE('',*,*,#213,.F.);
#277=ORIENTED_EDGE('',*,*,#214,.T.);
#278=ORIENTED_EDGE('',*,*,#215,.F.);
#279=ORIENTED_EDGE('',*,*,#214,.F.);
#280=ORIENTED_EDGE('',*,*,#215,.T.);
#281=ORIENTED_EDGE('',*,*,#213,.T.);
#282=CYLINDRICAL_SURFACE('',#346,9.);
#283=CYLINDRICAL_SURFACE('',#353,9.5);
#284=CYLINDRICAL_SURFACE('',#356,8.);
#285=CYLINDRICAL_SURFACE('',#359,0.6);
#286=CYLINDRICAL_SURFACE('',#364,0.6);
#287=CYLINDRICAL_SURFACE('',#369,0.6);
#288=CYLINDRICAL_SURFACE('',#374,0.6);
#289=CYLINDRICAL_SURFACE('',#379,0.6);
#290=CYLINDRICAL_SURFACE('',#384,0.6);
#291=CYLINDRICAL_SURFACE('',#389,0.6);
#292=CYLINDRICAL_SURFACE('',#394,0.6);
#293=ADVANCED_FACE('',(#53),#282,.T.);
#294=ADVANCED_FACE('',(#54),#33,.T.);
#295=ADVANCED_FACE('',(#55,#31),#34,.F.);
#296=ADVANCED_FACE('',(#56),#283,.T.);
#297=ADVANCED_FACE('',(#57,#32),#35,.T.);
#298=ADVANCED_FACE('',(#58),#284,.T.);
#299=ADVANCED_FACE('',(#59),#36,.F.);
#300=ADVANCED_FACE('',(#60),#285,.T.);
#301=ADVANCED_FACE('',(#61),#37,.T.);
#302=ADVANCED_FACE('',(#62),#38,.F.);
#303=ADVANCED_FACE('',(#63),#286,.T.);
#304=ADVANCED_FACE('',(#64),#39,.T.);
#305=ADVANCED_FACE('',(#65),#40,.F.);
#306=ADVANCED_FACE('',(#66),#287,.T.);
#307=ADVANCED_FACE('',(#67),#41,.T.);
#308=ADVANCED_FACE('',(#68),#42,.F.);
#309=ADVANCED_FACE('',(#69),#288,.T.);
#310=ADVANCED_FACE('',(#70),#43,.T.);
#311=ADVANCED_FACE('',(#71),#44,.F.);
#312=ADVANCED_FACE('',(#72),#289,.T.);
#313=ADVANCED_FACE('',(#73),#45,.T.);
#314=ADVANCED_FACE('',(#74),#46,.F.);
#315=ADVANCED_FACE('',(#75),#290,.T.);
#316=ADVANCED_FACE('',(#76),#47,.T.);
#317=ADVANCED_FACE('',(#77),#48,.F.);
#318=ADVANCED_FACE('',(#78),#291,.T.);
#319=ADVANCED_FACE('',(#79),#49,.T.);
#320=ADVANCED_FACE('',(#80),#50,.F.);
#321=ADVANCED_FACE('',(#81),#292,.T.);
#322=ADVANCED_FACE('',(#82),#51,.T.);
#323=ADVANCED_FACE('',(#83),#52,.F.);
#324=CLOSED_SHELL('',(#293,#294,#295,#296,#297,#298,#299));
#325=CLOSED_SHELL('',(#300,#301,#302));
#326=CLOSED_SHELL('',(#303,#304,#305));
#327=CLOSED_SHELL('',(#306,#307,#308));
#328=CLOSED_SHELL('',(#309,#310,#311));
#329=CLOSED_SHELL('',(#312,#313,#314));
#330=CLOSED_SHELL('',(#315,#316,#317));
#331=CLOSED_SHELL('',(#318,#319,#320));
#332=CLOSED_SHELL('',(#321,#322,#323));
#333=DERIVED_UNIT_ELEMENT(#335,1.);
#334=DERIVED_UNIT_ELEMENT(#610,-3.);
#335=(
MASS_UNIT()
NAMED_UNIT(*)
SI_UNIT(.KILO.,.GRAM.)
);
#336=DERIVED_UNIT((#333,#334));
#337=MEASURE_REPRESENTATION_ITEM('density measure',
POSITIVE_RATIO_MEASURE(7850.),#336);
#338=PROPERTY_DEFINITION_REPRESENTATION(#343,#340);
#339=PROPERTY_DEFINITION_REPRESENTATION(#344,#341);
#340=REPRESENTATION('material name',(#342),#607);
#341=REPRESENTATION('density',(#337),#607);
#342=DESCRIPTIVE_REPRESENTATION_ITEM('A\X\E7o','A\X\E7o');
#343=PROPERTY_DEFINITION('material property','material name',#617);
#344=PROPERTY_DEFINITION('material property','density of part',#617);
#345=AXIS2_PLACEMENT_3D('',#518,#399,#400);
#346=AXIS2_PLACEMENT_3D('',#519,#401,#402);
#347=AXIS2_PLACEMENT_3D('',#521,#403,#404);
#348=AXIS2_PLACEMENT_3D('',#524,#406,#407);
#349=AXIS2_PLACEMENT_3D('',#525,#408,#409);
#350=AXIS2_PLACEMENT_3D('',#526,#410,#411);
#351=AXIS2_PLACEMENT_3D('',#528,#412,#413);
#352=AXIS2_PLACEMENT_3D('',#530,#414,#415);
#353=AXIS2_PLACEMENT_3D('',#531,#416,#417);
#354=AXIS2_PLACEMENT_3D('',#533,#418,#419);
#355=AXIS2_PLACEMENT_3D('',#535,#421,#422);
#356=AXIS2_PLACEMENT_3D('',#536,#423,#424);
#357=AXIS2_PLACEMENT_3D('',#539,#426,#427);
#358=AXIS2_PLACEMENT_3D('',#540,#428,#429);
#359=AXIS2_PLACEMENT_3D('',#541,#430,#431);
#360=AXIS2_PLACEMENT_3D('',#543,#432,#433);
#361=AXIS2_PLACEMENT_3D('',#546,#435,#436);
#362=AXIS2_PLACEMENT_3D('',#547,#437,#438);
#363=AXIS2_PLACEMENT_3D('',#548,#439,#440);
#364=AXIS2_PLACEMENT_3D('',#549,#441,#442);
#365=AXIS2_PLACEMENT_3D('',#551,#443,#444);
#366=AXIS2_PLACEMENT_3D('',#554,#446,#447);
#367=AXIS2_PLACEMENT_3D('',#555,#448,#449);
#368=AXIS2_PLACEMENT_3D('',#556,#450,#451);
#369=AXIS2_PLACEMENT_3D('',#557,#452,#453);
#370=AXIS2_PLACEMENT_3D('',#559,#454,#455);
#371=AXIS2_PLACEMENT_3D('',#562,#457,#458);
#372=AXIS2_PLACEMENT_3D('',#563,#459,#460);
#373=AXIS2_PLACEMENT_3D('',#564,#461,#462);
#374=AXIS2_PLACEMENT_3D('',#565,#463,#464);
#375=AXIS2_PLACEMENT_3D('',#567,#465,#466);
#376=AXIS2_PLACEMENT_3D('',#570,#468,#469);
#377=AXIS2_PLACEMENT_3D('',#571,#470,#471);
#378=AXIS2_PLACEMENT_3D('',#572,#472,#473);
#379=AXIS2_PLACEMENT_3D('',#573,#474,#475);
#380=AXIS2_PLACEMENT_3D('',#575,#476,#477);
#381=AXIS2_PLACEMENT_3D('',#578,#479,#480);
#382=AXIS2_PLACEMENT_3D('',#579,#481,#482);
#383=AXIS2_PLACEMENT_3D('',#580,#483,#484);
#384=AXIS2_PLACEMENT_3D('',#581,#485,#486);
#385=AXIS2_PLACEMENT_3D('',#583,#487,#488);
#386=AXIS2_PLACEMENT_3D('',#586,#490,#491);
#387=AXIS2_PLACEMENT_3D('',#587,#492,#493);
#388=AXIS2_PLACEMENT_3D('',#588,#494,#495);
#389=AXIS2_PLACEMENT_3D('',#589,#496,#497);
#390=AXIS2_PLACEMENT_3D('',#591,#498,#499);
#391=AXIS2_PLACEMENT_3D('',#594,#501,#502);
#392=AXIS2_PLACEMENT_3D('',#595,#503,#504);
#393=AXIS2_PLACEMENT_3D('',#596,#505,#506);
#394=AXIS2_PLACEMENT_3D('',#597,#507,#508);
#395=AXIS2_PLACEMENT_3D('',#599,#509,#510);
#396=AXIS2_PLACEMENT_3D('',#602,#512,#513);
#397=AXIS2_PLACEMENT_3D('',#603,#514,#515);
#398=AXIS2_PLACEMENT_3D('',#604,#516,#517);
#399=DIRECTION('axis',(0.,0.,1.));
#400=DIRECTION('refdir',(1.,0.,0.));
#401=DIRECTION('center_axis',(0.,0.,1.));
#402=DIRECTION('ref_axis',(1.,0.,0.));
#403=DIRECTION('center_axis',(0.,0.,1.));
#404=DIRECTION('ref_axis',(1.,0.,0.));
#405=DIRECTION('',(0.,0.,-1.));
#406=DIRECTION('center_axis',(0.,0.,-1.));
#407=DIRECTION('ref_axis',(1.,0.,0.));
#408=DIRECTION('center_axis',(0.,0.,1.));
#409=DIRECTION('ref_axis',(1.,0.,0.));
#410=DIRECTION('center_axis',(0.,0.,1.));
#411=DIRECTION('ref_axis',(1.,0.,0.));
#412=DIRECTION('center_axis',(0.,0.,1.));
#413=DIRECTION('ref_axis',(1.,0.,0.));
#414=DIRECTION('center_axis',(0.,0.,1.));
#415=DIRECTION('ref_axis',(1.,0.,0.));
#416=DIRECTION('center_axis',(0.,0.,1.));
#417=DIRECTION('ref_axis',(1.,0.,0.));
#418=DIRECTION('center_axis',(0.,0.,1.));
#419=DIRECTION('ref_axis',(1.,0.,0.));
#420=DIRECTION('',(0.,0.,-1.));
#421=DIRECTION('center_axis',(0.,0.,1.));
#422=DIRECTION('ref_axis',(1.,0.,0.));
#423=DIRECTION('center_axis',(0.,0.,1.));
#424=DIRECTION('ref_axis',(1.,0.,0.));
#425=DIRECTION('',(0.,0.,-1.));
#426=DIRECTION('center_axis',(0.,0.,1.));
#427=DIRECTION('ref_axis',(1.,0.,0.));
#428=DIRECTION('center_axis',(0.,0.,1.));
#429=DIRECTION('ref_axis',(1.,0.,0.));
#430=DIRECTION('center_axis',(0.,0.,-1.));
#431=DIRECTION('ref_axis',(1.,0.,0.));
#432=DIRECTION('center_axis',(0.,0.,-1.));
#433=DIRECTION('ref_axis',(1.,0.,0.));
#434=DIRECTION('',(0.,0.,1.));
#435=DIRECTION('center_axis',(0.,0.,1.));
#436=DIRECTION('ref_axis',(1.,0.,0.));
#437=DIRECTION('center_axis',(0.,0.,1.));
#438=DIRECTION('ref_axis',(1.,0.,0.));
#439=DIRECTION('center_axis',(0.,0.,1.));
#440=DIRECTION('ref_axis',(1.,0.,0.));
#441=DIRECTION('center_axis',(0.,0.,-1.));
#442=DIRECTION('ref_axis',(1.,0.,0.));
#443=DIRECTION('center_axis',(0.,0.,-1.));
#444=DIRECTION('ref_axis',(1.,0.,0.));
#445=DIRECTION('',(0.,0.,1.));
#446=DIRECTION('center_axis',(0.,0.,1.));
#447=DIRECTION('ref_axis',(1.,0.,0.));
#448=DIRECTION('center_axis',(0.,0.,1.));
#449=DIRECTION('ref_axis',(1.,0.,0.));
#450=DIRECTION('center_axis',(0.,0.,1.));
#451=DIRECTION('ref_axis',(1.,0.,0.));
#452=DIRECTION('center_axis',(0.,0.,-1.));
#453=DIRECTION('ref_axis',(1.,0.,0.));
#454=DIRECTION('center_axis',(0.,0.,-1.));
#455=DIRECTION('ref_axis',(1.,0.,0.));
#456=DIRECTION('',(0.,0.,1.));
#457=DIRECTION('center_axis',(0.,0.,1.));
#458=DIRECTION('ref_axis',(1.,0.,0.));
#459=DIRECTION('center_axis',(0.,0.,1.));
#460=DIRECTION('ref_axis',(1.,0.,0.));
#461=DIRECTION('center_axis',(0.,0.,1.));
#462=DIRECTION('ref_axis',(1.,0.,0.));
#463=DIRECTION('center_axis',(0.,0.,-1.));
#464=DIRECTION('ref_axis',(1.,0.,0.));
#465=DIRECTION('center_axis',(0.,0.,-1.));
#466=DIRECTION('ref_axis',(1.,0.,0.));
#467=DIRECTION('',(0.,0.,1.));
#468=DIRECTION('center_axis',(0.,0.,1.));
#469=DIRECTION('ref_axis',(1.,0.,0.));
#470=DIRECTION('center_axis',(0.,0.,1.));
#471=DIRECTION('ref_axis',(1.,0.,0.));
#472=DIRECTION('center_axis',(0.,0.,1.));
#473=DIRECTION('ref_axis',(1.,0.,0.));
#474=DIRECTION('center_axis',(0.,0.,-1.));
#475=DIRECTION('ref_axis',(1.,0.,0.));
#476=DIRECTION('center_axis',(0.,0.,-1.));
#477=DIRECTION('ref_axis',(1.,0.,0.));
#478=DIRECTION('',(0.,0.,1.));
#479=DIRECTION('center_axis',(0.,0.,1.));
#480=DIRECTION('ref_axis',(1.,0.,0.));
#481=DIRECTION('center_axis',(0.,0.,1.));
#482=DIRECTION('ref_axis',(1.,0.,0.));
#483=DIRECTION('center_axis',(0.,0.,1.));
#484=DIRECTION('ref_axis',(1.,0.,0.));
#485=DIRECTION('center_axis',(0.,0.,-1.));
#486=DIRECTION('ref_axis',(1.,0.,0.));
#487=DIRECTION('center_axis',(0.,0.,-1.));
#488=DIRECTION('ref_axis',(1.,0.,0.));
#489=DIRECTION('',(0.,0.,1.));
#490=DIRECTION('center_axis',(0.,0.,1.));
#491=DIRECTION('ref_axis',(1.,0.,0.));
#492=DIRECTION('center_axis',(0.,0.,1.));
#493=DIRECTION('ref_axis',(1.,0.,0.));
#494=DIRECTION('center_axis',(0.,0.,1.));
#495=DIRECTION('ref_axis',(1.,0.,0.));
#496=DIRECTION('center_axis',(0.,0.,-1.));
#497=DIRECTION('ref_axis',(1.,0.,0.));
#498=DIRECTION('center_axis',(0.,0.,-1.));
#499=DIRECTION('ref_axis',(1.,0.,0.));
#500=DIRECTION('',(0.,0.,1.));
#501=DIRECTION('center_axis',(0.,0.,1.));
#502=DIRECTION('ref_axis',(1.,0.,0.));
#503=DIRECTION('center_axis',(0.,0.,1.));
#504=DIRECTION('ref_axis',(1.,0.,0.));
#505=DIRECTION('center_axis',(0.,0.,1.));
#506=DIRECTION('ref_axis',(1.,0.,0.));
#507=DIRECTION('center_axis',(0.,0.,-1.));
#508=DIRECTION('ref_axis',(1.,0.,0.));
#509=DIRECTION('center_axis',(0.,0.,-1.));
#510=DIRECTION('ref_axis',(1.,0.,0.));
#511=DIRECTION('',(0.,0.,1.));
#512=DIRECTION('center_axis',(0.,0.,1.));
#513=DIRECTION('ref_axis',(1.,0.,0.));
#514=DIRECTION('center_axis',(0.,0.,1.));
#515=DIRECTION('ref_axis',(1.,0.,0.));
#516=DIRECTION('center_axis',(0.,0.,1.));
#517=DIRECTION('ref_axis',(1.,0.,0.));
#518=CARTESIAN_POINT('',(0.,0.,0.));
#519=CARTESIAN_POINT('Origin',(0.,0.,15.));
#520=CARTESIAN_POINT('',(-9.,-1.10218211923262E-15,30.));
#521=CARTESIAN_POINT('Origin',(0.,0.,30.));
#522=CARTESIAN_POINT('',(-9.,-1.10218211923262E-15,15.));
#523=CARTESIAN_POINT('',(-9.,-1.10218211923262E-15,15.));
#524=CARTESIAN_POINT('Origin',(0.,0.,15.));
#525=CARTESIAN_POINT('Origin',(0.,0.,30.));
#526=CARTESIAN_POINT('Origin',(0.,0.,12.));
#527=CARTESIAN_POINT('',(-9.5,-1.16341445918999E-15,12.));
#528=CARTESIAN_POINT('Origin',(0.,0.,12.));
#529=CARTESIAN_POINT('',(-8.,-9.79717439317883E-16,12.));
#530=CARTESIAN_POINT('Origin',(0.,0.,12.));
#531=CARTESIAN_POINT('Origin',(0.,0.,12.));
#532=CARTESIAN_POINT('',(-9.5,-1.16341445918999E-15,15.));
#533=CARTESIAN_POINT('Origin',(0.,0.,15.));
#534=CARTESIAN_POINT('',(-9.5,-1.16341445918999E-15,12.));
#535=CARTESIAN_POINT('Origin',(0.,0.,15.));
#536=CARTESIAN_POINT('Origin',(0.,0.,0.));
#537=CARTESIAN_POINT('',(-8.,-9.79717439317883E-16,0.));
#538=CARTESIAN_POINT('',(-8.,-9.79717439317883E-16,0.));
#539=CARTESIAN_POINT('Origin',(0.,0.,0.));
#540=CARTESIAN_POINT('Origin',(0.,0.,0.));
#541=CARTESIAN_POINT('Origin',(-8.26636589424463E-16,-4.5,0.));
#542=CARTESIAN_POINT('',(-0.600000000000001,-4.5,-4.));
#543=CARTESIAN_POINT('Origin',(-8.26636589424463E-16,-4.5,-4.));
#544=CARTESIAN_POINT('',(-0.600000000000001,-4.5,0.));
#545=CARTESIAN_POINT('',(-0.600000000000001,-4.5,0.));
#546=CARTESIAN_POINT('Origin',(-8.26636589424463E-16,-4.5,0.));
#547=CARTESIAN_POINT('Origin',(-8.32667268468867E-16,-4.5,0.));
#548=CARTESIAN_POINT('Origin',(-8.32667268468867E-16,-4.5,-4.));
#549=CARTESIAN_POINT('Origin',(-4.5,5.51091059616309E-16,0.));
#550=CARTESIAN_POINT('',(-5.1,4.77612251667468E-16,-4.));
#551=CARTESIAN_POINT('Origin',(-4.5,5.51091059616309E-16,-4.));
#552=CARTESIAN_POINT('',(-5.1,4.77612251667468E-16,0.));
#553=CARTESIAN_POINT('',(-5.1,6.2456986756515E-16,0.));
#554=CARTESIAN_POINT('Origin',(-4.5,5.51091059616309E-16,0.));
#555=CARTESIAN_POINT('Origin',(-4.5,5.55111512312578E-16,0.));
#556=CARTESIAN_POINT('Origin',(-4.5,5.55111512312578E-16,-4.));
#557=CARTESIAN_POINT('Origin',(-3.18,3.18,0.));
#558=CARTESIAN_POINT('',(-3.78,3.18,-4.));
#559=CARTESIAN_POINT('Origin',(-3.18,3.18,-4.));
#560=CARTESIAN_POINT('',(-3.78,3.18,0.));
#561=CARTESIAN_POINT('',(-3.78,3.18,0.));
#562=CARTESIAN_POINT('Origin',(-3.18,3.18,0.));
#563=CARTESIAN_POINT('Origin',(-3.18,3.18,0.));
#564=CARTESIAN_POINT('Origin',(-3.18,3.18,-4.));
#565=CARTESIAN_POINT('Origin',(3.18,3.18,0.));
#566=CARTESIAN_POINT('',(2.58,3.18,-4.));
#567=CARTESIAN_POINT('Origin',(3.18,3.18,-4.));
#568=CARTESIAN_POINT('',(2.58,3.18,0.));
#569=CARTESIAN_POINT('',(2.58,3.18,0.));
#570=CARTESIAN_POINT('Origin',(3.18,3.18,0.));
#571=CARTESIAN_POINT('Origin',(3.18,3.18,0.));
#572=CARTESIAN_POINT('Origin',(3.18,3.18,-4.));
#573=CARTESIAN_POINT('Origin',(2.75545529808154E-16,4.5,0.));
#574=CARTESIAN_POINT('',(-0.6,4.5,-4.));
#575=CARTESIAN_POINT('Origin',(2.75545529808154E-16,4.5,-4.));
#576=CARTESIAN_POINT('',(-0.6,4.5,0.));
#577=CARTESIAN_POINT('',(-0.6,4.5,0.));
#578=CARTESIAN_POINT('Origin',(2.75545529808154E-16,4.5,0.));
#579=CARTESIAN_POINT('Origin',(2.77555756156289E-16,4.5,0.));
#580=CARTESIAN_POINT('Origin',(2.77555756156289E-16,4.5,-4.));
#581=CARTESIAN_POINT('Origin',(4.5,0.,0.));
#582=CARTESIAN_POINT('',(3.9,-7.34788079488412E-17,-4.));
#583=CARTESIAN_POINT('Origin',(4.5,0.,-4.));
#584=CARTESIAN_POINT('',(3.9,-7.34788079488412E-17,0.));
#585=CARTESIAN_POINT('',(3.9,7.34788079488412E-17,0.));
#586=CARTESIAN_POINT('Origin',(4.5,0.,0.));
#587=CARTESIAN_POINT('Origin',(4.5,0.,0.));
#588=CARTESIAN_POINT('Origin',(4.5,0.,-4.));
#589=CARTESIAN_POINT('Origin',(-3.18,-3.18,0.));
#590=CARTESIAN_POINT('',(-3.78,-3.18,-4.));
#591=CARTESIAN_POINT('Origin',(-3.18,-3.18,-4.));
#592=CARTESIAN_POINT('',(-3.78,-3.18,0.));
#593=CARTESIAN_POINT('',(-3.78,-3.18,0.));
#594=CARTESIAN_POINT('Origin',(-3.18,-3.18,0.));
#595=CARTESIAN_POINT('Origin',(-3.18,-3.18,0.));
#596=CARTESIAN_POINT('Origin',(-3.18,-3.18,-4.));
#597=CARTESIAN_POINT('Origin',(3.18,-3.18,0.));
#598=CARTESIAN_POINT('',(2.58,-3.18,-4.));
#599=CARTESIAN_POINT('Origin',(3.18,-3.18,-4.));
#600=CARTESIAN_POINT('',(2.58,-3.18,0.));
#601=CARTESIAN_POINT('',(2.58,-3.18,0.));
#602=CARTESIAN_POINT('Origin',(3.18,-3.18,0.));
#603=CARTESIAN_POINT('Origin',(3.18,-3.18,0.));
#604=CARTESIAN_POINT('Origin',(3.18,-3.18,-4.));
#605=UNCERTAINTY_MEASURE_WITH_UNIT(LENGTH_MEASURE(0.01),#609,
'DISTANCE_ACCURACY_VALUE',
'Maximum model space distance between geometric entities at asserted c
onnectivities');
#606=UNCERTAINTY_MEASURE_WITH_UNIT(LENGTH_MEASURE(0.01),#609,
'DISTANCE_ACCURACY_VALUE',
'Maximum model space distance between geometric entities at asserted c
onnectivities');
#607=(
GEOMETRIC_REPRESENTATION_CONTEXT(3)
GLOBAL_UNCERTAINTY_ASSIGNED_CONTEXT((#605))
GLOBAL_UNIT_ASSIGNED_CONTEXT((#609,#611,#612))
REPRESENTATION_CONTEXT('','3D')
);
#608=(
GEOMETRIC_REPRESENTATION_CONTEXT(3)
GLOBAL_UNCERTAINTY_ASSIGNED_CONTEXT((#606))
GLOBAL_UNIT_ASSIGNED_CONTEXT((#609,#611,#612))
REPRESENTATION_CONTEXT('','3D')
);
#609=(
LENGTH_UNIT()
NAMED_UNIT(*)
SI_UNIT(.MILLI.,.METRE.)
);
#610=(
LENGTH_UNIT()
NAMED_UNIT(*)
SI_UNIT($,.METRE.)
);
#611=(
NAMED_UNIT(*)
PLANE_ANGLE_UNIT()
SI_UNIT($,.RADIAN.)
);
#612=(
NAMED_UNIT(*)
SI_UNIT($,.STERADIAN.)
SOLID_ANGLE_UNIT()
);
#613=SHAPE_DEFINITION_REPRESENTATION(#614,#615);
#614=PRODUCT_DEFINITION_SHAPE('',$,#617);
#615=SHAPE_REPRESENTATION('',(#345),#607);
#616=PRODUCT_DEFINITION_CONTEXT('part definition',#621,'design');
#617=PRODUCT_DEFINITION('(N\X\E3o salvo)','(N\X\E3o salvo)',#618,#616);
#618=PRODUCT_DEFINITION_FORMATION('',$,#623);
#619=PRODUCT_RELATED_PRODUCT_CATEGORY('(N\X\E3o salvo)','(N\X\E3o salv
o)',(#623));
#620=APPLICATION_PROTOCOL_DEFINITION('international standard',
'automotive_design',2009,#621);
#621=APPLICATION_CONTEXT(
'Core Data for Automotive Mechanical Design Process');
#622=PRODUCT_CONTEXT('part definition',#621,'mechanical');
#623=PRODUCT('(N\X\E3o salvo)','(N\X\E3o salvo)',$,(#622));
#624=PRESENTATION_STYLE_ASSIGNMENT((#627));
#625=PRESENTATION_STYLE_ASSIGNMENT((#628));
#626=PRESENTATION_STYLE_ASSIGNMENT((#629));
#627=SURFACE_STYLE_USAGE(.BOTH.,#630);
#628=SURFACE_STYLE_USAGE(.BOTH.,#631);
#629=SURFACE_STYLE_USAGE(.BOTH.,#632);
#630=SURFACE_SIDE_STYLE('',(#633));
#631=SURFACE_SIDE_STYLE('',(#634));
#632=SURFACE_SIDE_STYLE('',(#635));
#633=SURFACE_STYLE_FILL_AREA(#636);
#634=SURFACE_STYLE_FILL_AREA(#637);
#635=SURFACE_STYLE_FILL_AREA(#638);
#636=FILL_AREA_STYLE('A\X\E7o - Acetinado',(#639));
#637=FILL_AREA_STYLE('Nickel_Satin',(#640));
#638=FILL_AREA_STYLE('Dourada',(#641));
#639=FILL_AREA_STYLE_COLOUR('A\X\E7o - Acetinado',#642);
#640=FILL_AREA_STYLE_COLOUR('Nickel_Satin',#643);
#641=FILL_AREA_STYLE_COLOUR('Dourada',#644);
#642=COLOUR_RGB('A\X\E7o - Acetinado',0.627450980392157,0.627450980392157,
0.627450980392157);
#643=COLOUR_RGB('Nickel_Satin',0.819607843137255,0.8,0.752941176470588);
#644=COLOUR_RGB('Dourada',0.956862745098039,0.898039215686275,0.654901960784314);
ENDSEC;
END-ISO-10303-21;
