%TF.GenerationSoftware,KiCad,Pcbnew,9.0.7*%
%TF.CreationDate,2026-09-01T19:12:29-03:00*%
%TF.ProjectId,amemiya_probe_sensor,616d656d-6979-4615-9f70-726f62655f73,rev?*%
%TF.SameCoordinates,Original*%
%TF.FileFunction,Legend,Top*%
%TF.FilePolarity,Positive*%
%FSLAX46Y46*%
G04 Gerber Fmt 4.6, Leading zero omitted, Abs format (unit mm)*
G04 Created by KiCad (PCBNEW 9.0.7) date 2026-09-01 19:12:29*
%MOMM*%
%LPD*%
G01*
G04 APERTURE LIST*
%ADD10C,0.120000*%
%ADD11C,0.150000*%
%ADD12C,0.100000*%
G04 APERTURE END LIST*
D10*
X4200000Y-18190000D02*
X4200000Y2190000D01*
X6800000Y2190000D02*
X6800000Y-18190000D01*
X6800000Y-26150000D02*
X4200000Y-26150000D01*
X6800000Y-18190000D02*
X4200000Y-18190000D01*
X23300000Y-18800000D02*
X20700000Y-18800000D01*
X19300000Y-13799999D02*
X15700000Y-13799999D01*
X19300000Y-12200000D02*
X19300000Y-13799999D01*
X15200000Y-11260000D02*
X15200000Y-9660000D01*
X14799999Y-16840000D02*
X12200000Y-16840000D01*
X7200000Y-12950000D02*
X7200000Y-11350000D01*
X15700000Y-12200000D02*
X19300000Y-12200000D01*
X12200000Y-16840000D02*
X12200000Y-9160000D01*
X6800000Y-10850000D02*
X6800000Y-26150000D01*
X18800000Y-9660000D02*
X18800000Y-11260000D01*
X20700000Y-18800000D02*
X20700000Y-6200000D01*
X7200000Y1690000D02*
X10800000Y1690000D01*
X23300000Y-6200000D02*
X23300000Y-18800000D01*
X10800000Y-11350000D02*
X10800000Y-12950000D01*
X7200000Y-11350000D02*
X10800000Y-11350000D01*
D11*
X3000000Y890000D02*
X4000000Y890000D01*
D10*
X4200000Y-10850000D02*
X6800000Y-10850000D01*
X15700000Y-13799999D02*
X15700000Y-12200000D01*
X20700000Y-6200000D02*
X23300000Y-6200000D01*
X7200000Y90000D02*
X7200000Y1690000D01*
X15200000Y-9660000D02*
X18800000Y-9660000D01*
D11*
X3000000Y-12150000D02*
X4000000Y-12150000D01*
D10*
X4200000Y2190000D02*
X6800000Y2190000D01*
X10800000Y1690000D02*
X10800000Y90000D01*
X4200000Y-26150000D02*
X4200000Y-10850000D01*
X12200000Y-9160000D02*
X14799999Y-9160000D01*
D11*
X23500000Y-7500000D02*
X24000000Y-7500000D01*
D10*
X14799999Y-9160000D02*
X14799999Y-16840000D01*
X10800000Y90000D02*
X7200000Y90000D01*
X10800000Y-12950000D02*
X7200000Y-12950000D01*
X18800000Y-11260000D02*
X15200000Y-11260000D01*
X4435713Y-15594462D02*
X4435713Y-14944462D01*
X4745237Y-15594462D02*
X4745237Y-14944462D01*
X4745237Y-14944462D02*
X5116666Y-15594462D01*
X5116666Y-15594462D02*
X5116666Y-14944462D01*
X5426189Y-15594462D02*
X5426189Y-14944462D01*
X5426189Y-14944462D02*
X5642856Y-15408748D01*
X5642856Y-15408748D02*
X5859523Y-14944462D01*
X5859523Y-14944462D02*
X5859523Y-15594462D01*
X6169046Y-15594462D02*
X6169046Y-14944462D01*
X6169046Y-14944462D02*
X6416665Y-14944462D01*
X6416665Y-14944462D02*
X6478570Y-14975414D01*
X6478570Y-14975414D02*
X6509523Y-15006367D01*
X6509523Y-15006367D02*
X6540475Y-15068271D01*
X6540475Y-15068271D02*
X6540475Y-15161129D01*
X6540475Y-15161129D02*
X6509523Y-15223033D01*
X6509523Y-15223033D02*
X6478570Y-15253986D01*
X6478570Y-15253986D02*
X6416665Y-15284938D01*
X6416665Y-15284938D02*
X6169046Y-15284938D01*
X7097618Y-15161129D02*
X7097618Y-15594462D01*
X6942856Y-14913510D02*
X6788094Y-15377795D01*
X6788094Y-15377795D02*
X7190475Y-15377795D01*
X7716666Y-15161129D02*
X7716666Y-15594462D01*
X7561904Y-14913510D02*
X7407142Y-15377795D01*
X7407142Y-15377795D02*
X7809523Y-15377795D01*
X8397619Y-15594462D02*
X8026190Y-15594462D01*
X8211904Y-15594462D02*
X8211904Y-14944462D01*
X8211904Y-14944462D02*
X8150000Y-15037319D01*
X8150000Y-15037319D02*
X8088095Y-15099224D01*
X8088095Y-15099224D02*
X8026190Y-15130176D01*
X9171428Y-15594462D02*
X9171428Y-14944462D01*
X9171428Y-14944462D02*
X9388095Y-15408748D01*
X9388095Y-15408748D02*
X9604762Y-14944462D01*
X9604762Y-14944462D02*
X9604762Y-15594462D01*
X9914285Y-15594462D02*
X9914285Y-14944462D01*
X10595238Y-15532557D02*
X10564286Y-15563510D01*
X10564286Y-15563510D02*
X10471428Y-15594462D01*
X10471428Y-15594462D02*
X10409524Y-15594462D01*
X10409524Y-15594462D02*
X10316667Y-15563510D01*
X10316667Y-15563510D02*
X10254762Y-15501605D01*
X10254762Y-15501605D02*
X10223809Y-15439700D01*
X10223809Y-15439700D02*
X10192857Y-15315890D01*
X10192857Y-15315890D02*
X10192857Y-15223033D01*
X10192857Y-15223033D02*
X10223809Y-15099224D01*
X10223809Y-15099224D02*
X10254762Y-15037319D01*
X10254762Y-15037319D02*
X10316667Y-14975414D01*
X10316667Y-14975414D02*
X10409524Y-14944462D01*
X10409524Y-14944462D02*
X10471428Y-14944462D01*
X10471428Y-14944462D02*
X10564286Y-14975414D01*
X10564286Y-14975414D02*
X10595238Y-15006367D01*
X7971427Y-21794462D02*
X7971427Y-21144462D01*
X7971427Y-21144462D02*
X8126189Y-21144462D01*
X8126189Y-21144462D02*
X8219046Y-21175414D01*
X8219046Y-21175414D02*
X8280951Y-21237319D01*
X8280951Y-21237319D02*
X8311904Y-21299224D01*
X8311904Y-21299224D02*
X8342856Y-21423033D01*
X8342856Y-21423033D02*
X8342856Y-21515890D01*
X8342856Y-21515890D02*
X8311904Y-21639700D01*
X8311904Y-21639700D02*
X8280951Y-21701605D01*
X8280951Y-21701605D02*
X8219046Y-21763510D01*
X8219046Y-21763510D02*
X8126189Y-21794462D01*
X8126189Y-21794462D02*
X7971427Y-21794462D01*
X8590475Y-21763510D02*
X8683332Y-21794462D01*
X8683332Y-21794462D02*
X8838094Y-21794462D01*
X8838094Y-21794462D02*
X8899999Y-21763510D01*
X8899999Y-21763510D02*
X8930951Y-21732557D01*
X8930951Y-21732557D02*
X8961904Y-21670652D01*
X8961904Y-21670652D02*
X8961904Y-21608748D01*
X8961904Y-21608748D02*
X8930951Y-21546843D01*
X8930951Y-21546843D02*
X8899999Y-21515890D01*
X8899999Y-21515890D02*
X8838094Y-21484938D01*
X8838094Y-21484938D02*
X8714285Y-21453986D01*
X8714285Y-21453986D02*
X8652380Y-21423033D01*
X8652380Y-21423033D02*
X8621427Y-21392081D01*
X8621427Y-21392081D02*
X8590475Y-21330176D01*
X8590475Y-21330176D02*
X8590475Y-21268271D01*
X8590475Y-21268271D02*
X8621427Y-21206367D01*
X8621427Y-21206367D02*
X8652380Y-21175414D01*
X8652380Y-21175414D02*
X8714285Y-21144462D01*
X8714285Y-21144462D02*
X8869046Y-21144462D01*
X8869046Y-21144462D02*
X8961904Y-21175414D01*
X9580952Y-21794462D02*
X9209523Y-21794462D01*
X9395237Y-21794462D02*
X9395237Y-21144462D01*
X9395237Y-21144462D02*
X9333333Y-21237319D01*
X9333333Y-21237319D02*
X9271428Y-21299224D01*
X9271428Y-21299224D02*
X9209523Y-21330176D01*
X9952381Y-21423033D02*
X9890476Y-21392081D01*
X9890476Y-21392081D02*
X9859523Y-21361129D01*
X9859523Y-21361129D02*
X9828571Y-21299224D01*
X9828571Y-21299224D02*
X9828571Y-21268271D01*
X9828571Y-21268271D02*
X9859523Y-21206367D01*
X9859523Y-21206367D02*
X9890476Y-21175414D01*
X9890476Y-21175414D02*
X9952381Y-21144462D01*
X9952381Y-21144462D02*
X10076190Y-21144462D01*
X10076190Y-21144462D02*
X10138095Y-21175414D01*
X10138095Y-21175414D02*
X10169047Y-21206367D01*
X10169047Y-21206367D02*
X10200000Y-21268271D01*
X10200000Y-21268271D02*
X10200000Y-21299224D01*
X10200000Y-21299224D02*
X10169047Y-21361129D01*
X10169047Y-21361129D02*
X10138095Y-21392081D01*
X10138095Y-21392081D02*
X10076190Y-21423033D01*
X10076190Y-21423033D02*
X9952381Y-21423033D01*
X9952381Y-21423033D02*
X9890476Y-21453986D01*
X9890476Y-21453986D02*
X9859523Y-21484938D01*
X9859523Y-21484938D02*
X9828571Y-21546843D01*
X9828571Y-21546843D02*
X9828571Y-21670652D01*
X9828571Y-21670652D02*
X9859523Y-21732557D01*
X9859523Y-21732557D02*
X9890476Y-21763510D01*
X9890476Y-21763510D02*
X9952381Y-21794462D01*
X9952381Y-21794462D02*
X10076190Y-21794462D01*
X10076190Y-21794462D02*
X10138095Y-21763510D01*
X10138095Y-21763510D02*
X10169047Y-21732557D01*
X10169047Y-21732557D02*
X10200000Y-21670652D01*
X10200000Y-21670652D02*
X10200000Y-21546843D01*
X10200000Y-21546843D02*
X10169047Y-21484938D01*
X10169047Y-21484938D02*
X10138095Y-21453986D01*
X10138095Y-21453986D02*
X10076190Y-21423033D01*
X10695238Y-21453986D02*
X10788095Y-21484938D01*
X10788095Y-21484938D02*
X10819048Y-21515890D01*
X10819048Y-21515890D02*
X10850000Y-21577795D01*
X10850000Y-21577795D02*
X10850000Y-21670652D01*
X10850000Y-21670652D02*
X10819048Y-21732557D01*
X10819048Y-21732557D02*
X10788095Y-21763510D01*
X10788095Y-21763510D02*
X10726190Y-21794462D01*
X10726190Y-21794462D02*
X10478571Y-21794462D01*
X10478571Y-21794462D02*
X10478571Y-21144462D01*
X10478571Y-21144462D02*
X10695238Y-21144462D01*
X10695238Y-21144462D02*
X10757143Y-21175414D01*
X10757143Y-21175414D02*
X10788095Y-21206367D01*
X10788095Y-21206367D02*
X10819048Y-21268271D01*
X10819048Y-21268271D02*
X10819048Y-21330176D01*
X10819048Y-21330176D02*
X10788095Y-21392081D01*
X10788095Y-21392081D02*
X10757143Y-21423033D01*
X10757143Y-21423033D02*
X10695238Y-21453986D01*
X10695238Y-21453986D02*
X10478571Y-21453986D01*
X11097619Y-21206367D02*
X11128571Y-21175414D01*
X11128571Y-21175414D02*
X11190476Y-21144462D01*
X11190476Y-21144462D02*
X11345238Y-21144462D01*
X11345238Y-21144462D02*
X11407143Y-21175414D01*
X11407143Y-21175414D02*
X11438095Y-21206367D01*
X11438095Y-21206367D02*
X11469048Y-21268271D01*
X11469048Y-21268271D02*
X11469048Y-21330176D01*
X11469048Y-21330176D02*
X11438095Y-21423033D01*
X11438095Y-21423033D02*
X11066667Y-21794462D01*
X11066667Y-21794462D02*
X11469048Y-21794462D01*
X11871429Y-21144462D02*
X11933334Y-21144462D01*
X11933334Y-21144462D02*
X11995238Y-21175414D01*
X11995238Y-21175414D02*
X12026191Y-21206367D01*
X12026191Y-21206367D02*
X12057143Y-21268271D01*
X12057143Y-21268271D02*
X12088096Y-21392081D01*
X12088096Y-21392081D02*
X12088096Y-21546843D01*
X12088096Y-21546843D02*
X12057143Y-21670652D01*
X12057143Y-21670652D02*
X12026191Y-21732557D01*
X12026191Y-21732557D02*
X11995238Y-21763510D01*
X11995238Y-21763510D02*
X11933334Y-21794462D01*
X11933334Y-21794462D02*
X11871429Y-21794462D01*
X11871429Y-21794462D02*
X11809524Y-21763510D01*
X11809524Y-21763510D02*
X11778572Y-21732557D01*
X11778572Y-21732557D02*
X11747619Y-21670652D01*
X11747619Y-21670652D02*
X11716667Y-21546843D01*
X11716667Y-21546843D02*
X11716667Y-21392081D01*
X11716667Y-21392081D02*
X11747619Y-21268271D01*
X11747619Y-21268271D02*
X11778572Y-21206367D01*
X11778572Y-21206367D02*
X11809524Y-21175414D01*
X11809524Y-21175414D02*
X11871429Y-21144462D01*
X12769048Y-21144462D02*
X13140477Y-21144462D01*
X12954763Y-21794462D02*
X12954763Y-21144462D01*
X13357143Y-21453986D02*
X13573810Y-21453986D01*
X13666667Y-21794462D02*
X13357143Y-21794462D01*
X13357143Y-21794462D02*
X13357143Y-21144462D01*
X13357143Y-21144462D02*
X13666667Y-21144462D01*
X13945238Y-21794462D02*
X13945238Y-21144462D01*
X13945238Y-21144462D02*
X14161905Y-21608748D01*
X14161905Y-21608748D02*
X14378572Y-21144462D01*
X14378572Y-21144462D02*
X14378572Y-21794462D01*
X14688095Y-21794462D02*
X14688095Y-21144462D01*
X14688095Y-21144462D02*
X14935714Y-21144462D01*
X14935714Y-21144462D02*
X14997619Y-21175414D01*
X14997619Y-21175414D02*
X15028572Y-21206367D01*
X15028572Y-21206367D02*
X15059524Y-21268271D01*
X15059524Y-21268271D02*
X15059524Y-21361129D01*
X15059524Y-21361129D02*
X15028572Y-21423033D01*
X15028572Y-21423033D02*
X14997619Y-21453986D01*
X14997619Y-21453986D02*
X14935714Y-21484938D01*
X14935714Y-21484938D02*
X14688095Y-21484938D01*
X16348809Y-7644462D02*
X16472618Y-7644462D01*
X16472618Y-7644462D02*
X16534523Y-7675414D01*
X16534523Y-7675414D02*
X16596428Y-7737319D01*
X16596428Y-7737319D02*
X16627380Y-7861129D01*
X16627380Y-7861129D02*
X16627380Y-8077795D01*
X16627380Y-8077795D02*
X16596428Y-8201605D01*
X16596428Y-8201605D02*
X16534523Y-8263510D01*
X16534523Y-8263510D02*
X16472618Y-8294462D01*
X16472618Y-8294462D02*
X16348809Y-8294462D01*
X16348809Y-8294462D02*
X16286904Y-8263510D01*
X16286904Y-8263510D02*
X16224999Y-8201605D01*
X16224999Y-8201605D02*
X16194047Y-8077795D01*
X16194047Y-8077795D02*
X16194047Y-7861129D01*
X16194047Y-7861129D02*
X16224999Y-7737319D01*
X16224999Y-7737319D02*
X16286904Y-7675414D01*
X16286904Y-7675414D02*
X16348809Y-7644462D01*
X16905951Y-7644462D02*
X16905951Y-8170652D01*
X16905951Y-8170652D02*
X16936904Y-8232557D01*
X16936904Y-8232557D02*
X16967856Y-8263510D01*
X16967856Y-8263510D02*
X17029761Y-8294462D01*
X17029761Y-8294462D02*
X17153570Y-8294462D01*
X17153570Y-8294462D02*
X17215475Y-8263510D01*
X17215475Y-8263510D02*
X17246428Y-8232557D01*
X17246428Y-8232557D02*
X17277380Y-8170652D01*
X17277380Y-8170652D02*
X17277380Y-7644462D01*
X17494046Y-7644462D02*
X17865475Y-7644462D01*
X17679761Y-8294462D02*
X17679761Y-7644462D01*
X18917856Y-7675414D02*
X18855951Y-7644462D01*
X18855951Y-7644462D02*
X18763094Y-7644462D01*
X18763094Y-7644462D02*
X18670237Y-7675414D01*
X18670237Y-7675414D02*
X18608332Y-7737319D01*
X18608332Y-7737319D02*
X18577379Y-7799224D01*
X18577379Y-7799224D02*
X18546427Y-7923033D01*
X18546427Y-7923033D02*
X18546427Y-8015890D01*
X18546427Y-8015890D02*
X18577379Y-8139700D01*
X18577379Y-8139700D02*
X18608332Y-8201605D01*
X18608332Y-8201605D02*
X18670237Y-8263510D01*
X18670237Y-8263510D02*
X18763094Y-8294462D01*
X18763094Y-8294462D02*
X18824998Y-8294462D01*
X18824998Y-8294462D02*
X18917856Y-8263510D01*
X18917856Y-8263510D02*
X18948808Y-8232557D01*
X18948808Y-8232557D02*
X18948808Y-8015890D01*
X18948808Y-8015890D02*
X18824998Y-8015890D01*
X19165475Y-7644462D02*
X19598808Y-8294462D01*
X19598808Y-7644462D02*
X19165475Y-8294462D01*
X20186904Y-8294462D02*
X19815475Y-8294462D01*
X20001189Y-8294462D02*
X20001189Y-7644462D01*
X20001189Y-7644462D02*
X19939285Y-7737319D01*
X19939285Y-7737319D02*
X19877380Y-7799224D01*
X19877380Y-7799224D02*
X19815475Y-7830176D01*
X20434523Y-7706367D02*
X20465475Y-7675414D01*
X20465475Y-7675414D02*
X20527380Y-7644462D01*
X20527380Y-7644462D02*
X20682142Y-7644462D01*
X20682142Y-7644462D02*
X20744047Y-7675414D01*
X20744047Y-7675414D02*
X20774999Y-7706367D01*
X20774999Y-7706367D02*
X20805952Y-7768271D01*
X20805952Y-7768271D02*
X20805952Y-7830176D01*
X20805952Y-7830176D02*
X20774999Y-7923033D01*
X20774999Y-7923033D02*
X20403571Y-8294462D01*
X20403571Y-8294462D02*
X20805952Y-8294462D01*
X-3399998Y-1117593D02*
X-3066665Y-1117593D01*
X-3466665Y-1317593D02*
X-3233332Y-617593D01*
X-3233332Y-617593D02*
X-2999998Y-1317593D01*
X-2766665Y-1317593D02*
X-2766665Y-617593D01*
X-2766665Y-617593D02*
X-2533332Y-1117593D01*
X-2533332Y-1117593D02*
X-2299998Y-617593D01*
X-2299998Y-617593D02*
X-2299998Y-1317593D01*
X-1966665Y-950926D02*
X-1733332Y-950926D01*
X-1633332Y-1317593D02*
X-1966665Y-1317593D01*
X-1966665Y-1317593D02*
X-1966665Y-617593D01*
X-1966665Y-617593D02*
X-1633332Y-617593D01*
X-1333332Y-1317593D02*
X-1333332Y-617593D01*
X-1333332Y-617593D02*
X-1099999Y-1117593D01*
X-1099999Y-1117593D02*
X-866665Y-617593D01*
X-866665Y-617593D02*
X-866665Y-1317593D01*
X-533332Y-1317593D02*
X-533332Y-617593D01*
X-66666Y-984260D02*
X-66666Y-1317593D01*
X-299999Y-617593D02*
X-66666Y-984260D01*
X-66666Y-984260D02*
X166667Y-617593D01*
X366667Y-1117593D02*
X700000Y-1117593D01*
X300000Y-1317593D02*
X533334Y-617593D01*
X533334Y-617593D02*
X766667Y-1317593D01*
X1500000Y-1284260D02*
X1600000Y-1317593D01*
X1600000Y-1317593D02*
X1766667Y-1317593D01*
X1766667Y-1317593D02*
X1833333Y-1284260D01*
X1833333Y-1284260D02*
X1866667Y-1250926D01*
X1866667Y-1250926D02*
X1900000Y-1184260D01*
X1900000Y-1184260D02*
X1900000Y-1117593D01*
X1900000Y-1117593D02*
X1866667Y-1050926D01*
X1866667Y-1050926D02*
X1833333Y-1017593D01*
X1833333Y-1017593D02*
X1766667Y-984260D01*
X1766667Y-984260D02*
X1633333Y-950926D01*
X1633333Y-950926D02*
X1566667Y-917593D01*
X1566667Y-917593D02*
X1533333Y-884260D01*
X1533333Y-884260D02*
X1500000Y-817593D01*
X1500000Y-817593D02*
X1500000Y-750926D01*
X1500000Y-750926D02*
X1533333Y-684260D01*
X1533333Y-684260D02*
X1566667Y-650926D01*
X1566667Y-650926D02*
X1633333Y-617593D01*
X1633333Y-617593D02*
X1800000Y-617593D01*
X1800000Y-617593D02*
X1900000Y-650926D01*
X2333334Y-617593D02*
X2466667Y-617593D01*
X2466667Y-617593D02*
X2533334Y-650926D01*
X2533334Y-650926D02*
X2600000Y-717593D01*
X2600000Y-717593D02*
X2633334Y-850926D01*
X2633334Y-850926D02*
X2633334Y-1084260D01*
X2633334Y-1084260D02*
X2600000Y-1217593D01*
X2600000Y-1217593D02*
X2533334Y-1284260D01*
X2533334Y-1284260D02*
X2466667Y-1317593D01*
X2466667Y-1317593D02*
X2333334Y-1317593D01*
X2333334Y-1317593D02*
X2266667Y-1284260D01*
X2266667Y-1284260D02*
X2200000Y-1217593D01*
X2200000Y-1217593D02*
X2166667Y-1084260D01*
X2166667Y-1084260D02*
X2166667Y-850926D01*
X2166667Y-850926D02*
X2200000Y-717593D01*
X2200000Y-717593D02*
X2266667Y-650926D01*
X2266667Y-650926D02*
X2333334Y-617593D01*
X2933333Y-1317593D02*
X2933333Y-617593D01*
X2933333Y-617593D02*
X3333333Y-1317593D01*
X3333333Y-1317593D02*
X3333333Y-617593D01*
X3666666Y-1317593D02*
X3666666Y-617593D01*
X3666666Y-617593D02*
X3833333Y-617593D01*
X3833333Y-617593D02*
X3933333Y-650926D01*
X3933333Y-650926D02*
X4000000Y-717593D01*
X4000000Y-717593D02*
X4033333Y-784260D01*
X4033333Y-784260D02*
X4066666Y-917593D01*
X4066666Y-917593D02*
X4066666Y-1017593D01*
X4066666Y-1017593D02*
X4033333Y-1150926D01*
X4033333Y-1150926D02*
X4000000Y-1217593D01*
X4000000Y-1217593D02*
X3933333Y-1284260D01*
X3933333Y-1284260D02*
X3833333Y-1317593D01*
X3833333Y-1317593D02*
X3666666Y-1317593D01*
X4333333Y-1117593D02*
X4666666Y-1117593D01*
X4266666Y-1317593D02*
X4500000Y-617593D01*
X4500000Y-617593D02*
X4733333Y-1317593D01*
X5433333Y-850926D02*
X5599999Y-1317593D01*
X5599999Y-1317593D02*
X5766666Y-850926D01*
X6333332Y-850926D02*
X6333332Y-1317593D01*
X6166666Y-584260D02*
X5999999Y-1084260D01*
X5999999Y-1084260D02*
X6433332Y-1084260D01*
X3244047Y-3294462D02*
X3244047Y-2644462D01*
X3244047Y-2644462D02*
X3460714Y-3108748D01*
X3460714Y-3108748D02*
X3677381Y-2644462D01*
X3677381Y-2644462D02*
X3677381Y-3294462D01*
X3986904Y-3294462D02*
X3986904Y-2644462D01*
X3986904Y-2644462D02*
X4234523Y-2644462D01*
X4234523Y-2644462D02*
X4296428Y-2675414D01*
X4296428Y-2675414D02*
X4327381Y-2706367D01*
X4327381Y-2706367D02*
X4358333Y-2768271D01*
X4358333Y-2768271D02*
X4358333Y-2861129D01*
X4358333Y-2861129D02*
X4327381Y-2923033D01*
X4327381Y-2923033D02*
X4296428Y-2953986D01*
X4296428Y-2953986D02*
X4234523Y-2984938D01*
X4234523Y-2984938D02*
X3986904Y-2984938D01*
X4636904Y-2644462D02*
X4636904Y-3170652D01*
X4636904Y-3170652D02*
X4667857Y-3232557D01*
X4667857Y-3232557D02*
X4698809Y-3263510D01*
X4698809Y-3263510D02*
X4760714Y-3294462D01*
X4760714Y-3294462D02*
X4884523Y-3294462D01*
X4884523Y-3294462D02*
X4946428Y-3263510D01*
X4946428Y-3263510D02*
X4977381Y-3232557D01*
X4977381Y-3232557D02*
X5008333Y-3170652D01*
X5008333Y-3170652D02*
X5008333Y-2644462D01*
X5317856Y-3046843D02*
X5813095Y-3046843D01*
X6401190Y-2644462D02*
X6277380Y-2644462D01*
X6277380Y-2644462D02*
X6215476Y-2675414D01*
X6215476Y-2675414D02*
X6184523Y-2706367D01*
X6184523Y-2706367D02*
X6122618Y-2799224D01*
X6122618Y-2799224D02*
X6091666Y-2923033D01*
X6091666Y-2923033D02*
X6091666Y-3170652D01*
X6091666Y-3170652D02*
X6122618Y-3232557D01*
X6122618Y-3232557D02*
X6153571Y-3263510D01*
X6153571Y-3263510D02*
X6215476Y-3294462D01*
X6215476Y-3294462D02*
X6339285Y-3294462D01*
X6339285Y-3294462D02*
X6401190Y-3263510D01*
X6401190Y-3263510D02*
X6432142Y-3232557D01*
X6432142Y-3232557D02*
X6463095Y-3170652D01*
X6463095Y-3170652D02*
X6463095Y-3015890D01*
X6463095Y-3015890D02*
X6432142Y-2953986D01*
X6432142Y-2953986D02*
X6401190Y-2923033D01*
X6401190Y-2923033D02*
X6339285Y-2892081D01*
X6339285Y-2892081D02*
X6215476Y-2892081D01*
X6215476Y-2892081D02*
X6153571Y-2923033D01*
X6153571Y-2923033D02*
X6122618Y-2953986D01*
X6122618Y-2953986D02*
X6091666Y-3015890D01*
X6865476Y-2644462D02*
X6927381Y-2644462D01*
X6927381Y-2644462D02*
X6989285Y-2675414D01*
X6989285Y-2675414D02*
X7020238Y-2706367D01*
X7020238Y-2706367D02*
X7051190Y-2768271D01*
X7051190Y-2768271D02*
X7082143Y-2892081D01*
X7082143Y-2892081D02*
X7082143Y-3046843D01*
X7082143Y-3046843D02*
X7051190Y-3170652D01*
X7051190Y-3170652D02*
X7020238Y-3232557D01*
X7020238Y-3232557D02*
X6989285Y-3263510D01*
X6989285Y-3263510D02*
X6927381Y-3294462D01*
X6927381Y-3294462D02*
X6865476Y-3294462D01*
X6865476Y-3294462D02*
X6803571Y-3263510D01*
X6803571Y-3263510D02*
X6772619Y-3232557D01*
X6772619Y-3232557D02*
X6741666Y-3170652D01*
X6741666Y-3170652D02*
X6710714Y-3046843D01*
X6710714Y-3046843D02*
X6710714Y-2892081D01*
X6710714Y-2892081D02*
X6741666Y-2768271D01*
X6741666Y-2768271D02*
X6772619Y-2706367D01*
X6772619Y-2706367D02*
X6803571Y-2675414D01*
X6803571Y-2675414D02*
X6865476Y-2644462D01*
X7670238Y-2644462D02*
X7360714Y-2644462D01*
X7360714Y-2644462D02*
X7329762Y-2953986D01*
X7329762Y-2953986D02*
X7360714Y-2923033D01*
X7360714Y-2923033D02*
X7422619Y-2892081D01*
X7422619Y-2892081D02*
X7577381Y-2892081D01*
X7577381Y-2892081D02*
X7639286Y-2923033D01*
X7639286Y-2923033D02*
X7670238Y-2953986D01*
X7670238Y-2953986D02*
X7701191Y-3015890D01*
X7701191Y-3015890D02*
X7701191Y-3170652D01*
X7701191Y-3170652D02*
X7670238Y-3232557D01*
X7670238Y-3232557D02*
X7639286Y-3263510D01*
X7639286Y-3263510D02*
X7577381Y-3294462D01*
X7577381Y-3294462D02*
X7422619Y-3294462D01*
X7422619Y-3294462D02*
X7360714Y-3263510D01*
X7360714Y-3263510D02*
X7329762Y-3232557D01*
X8103572Y-2644462D02*
X8165477Y-2644462D01*
X8165477Y-2644462D02*
X8227381Y-2675414D01*
X8227381Y-2675414D02*
X8258334Y-2706367D01*
X8258334Y-2706367D02*
X8289286Y-2768271D01*
X8289286Y-2768271D02*
X8320239Y-2892081D01*
X8320239Y-2892081D02*
X8320239Y-3046843D01*
X8320239Y-3046843D02*
X8289286Y-3170652D01*
X8289286Y-3170652D02*
X8258334Y-3232557D01*
X8258334Y-3232557D02*
X8227381Y-3263510D01*
X8227381Y-3263510D02*
X8165477Y-3294462D01*
X8165477Y-3294462D02*
X8103572Y-3294462D01*
X8103572Y-3294462D02*
X8041667Y-3263510D01*
X8041667Y-3263510D02*
X8010715Y-3232557D01*
X8010715Y-3232557D02*
X7979762Y-3170652D01*
X7979762Y-3170652D02*
X7948810Y-3046843D01*
X7948810Y-3046843D02*
X7948810Y-2892081D01*
X7948810Y-2892081D02*
X7979762Y-2768271D01*
X7979762Y-2768271D02*
X8010715Y-2706367D01*
X8010715Y-2706367D02*
X8041667Y-2675414D01*
X8041667Y-2675414D02*
X8103572Y-2644462D01*
X9063096Y-3108748D02*
X9372620Y-3108748D01*
X9001191Y-3294462D02*
X9217858Y-2644462D01*
X9217858Y-2644462D02*
X9434525Y-3294462D01*
X10022620Y-3232557D02*
X9991668Y-3263510D01*
X9991668Y-3263510D02*
X9898810Y-3294462D01*
X9898810Y-3294462D02*
X9836906Y-3294462D01*
X9836906Y-3294462D02*
X9744049Y-3263510D01*
X9744049Y-3263510D02*
X9682144Y-3201605D01*
X9682144Y-3201605D02*
X9651191Y-3139700D01*
X9651191Y-3139700D02*
X9620239Y-3015890D01*
X9620239Y-3015890D02*
X9620239Y-2923033D01*
X9620239Y-2923033D02*
X9651191Y-2799224D01*
X9651191Y-2799224D02*
X9682144Y-2737319D01*
X9682144Y-2737319D02*
X9744049Y-2675414D01*
X9744049Y-2675414D02*
X9836906Y-2644462D01*
X9836906Y-2644462D02*
X9898810Y-2644462D01*
X9898810Y-2644462D02*
X9991668Y-2675414D01*
X9991668Y-2675414D02*
X10022620Y-2706367D01*
X10672620Y-3232557D02*
X10641668Y-3263510D01*
X10641668Y-3263510D02*
X10548810Y-3294462D01*
X10548810Y-3294462D02*
X10486906Y-3294462D01*
X10486906Y-3294462D02*
X10394049Y-3263510D01*
X10394049Y-3263510D02*
X10332144Y-3201605D01*
X10332144Y-3201605D02*
X10301191Y-3139700D01*
X10301191Y-3139700D02*
X10270239Y-3015890D01*
X10270239Y-3015890D02*
X10270239Y-2923033D01*
X10270239Y-2923033D02*
X10301191Y-2799224D01*
X10301191Y-2799224D02*
X10332144Y-2737319D01*
X10332144Y-2737319D02*
X10394049Y-2675414D01*
X10394049Y-2675414D02*
X10486906Y-2644462D01*
X10486906Y-2644462D02*
X10548810Y-2644462D01*
X10548810Y-2644462D02*
X10641668Y-2675414D01*
X10641668Y-2675414D02*
X10672620Y-2706367D01*
X10951191Y-2953986D02*
X11167858Y-2953986D01*
X11260715Y-3294462D02*
X10951191Y-3294462D01*
X10951191Y-3294462D02*
X10951191Y-2644462D01*
X10951191Y-2644462D02*
X11260715Y-2644462D01*
X11848810Y-3294462D02*
X11539286Y-3294462D01*
X11539286Y-3294462D02*
X11539286Y-2644462D01*
D11*
X4532380Y-7309726D02*
X4532380Y-8337821D01*
X4532380Y-8337821D02*
X4592857Y-8458773D01*
X4592857Y-8458773D02*
X4653333Y-8519250D01*
X4653333Y-8519250D02*
X4774285Y-8579726D01*
X4774285Y-8579726D02*
X5016190Y-8579726D01*
X5016190Y-8579726D02*
X5137142Y-8519250D01*
X5137142Y-8519250D02*
X5197619Y-8458773D01*
X5197619Y-8458773D02*
X5258095Y-8337821D01*
X5258095Y-8337821D02*
X5258095Y-7309726D01*
X6528095Y-8579726D02*
X5802380Y-8579726D01*
X6165237Y-8579726D02*
X6165237Y-7309726D01*
X6165237Y-7309726D02*
X6044285Y-7491154D01*
X6044285Y-7491154D02*
X5923333Y-7612107D01*
X5923333Y-7612107D02*
X5802380Y-7672583D01*
D10*
X7966666Y-7617593D02*
X7966666Y-8184260D01*
X7966666Y-8184260D02*
X8000000Y-8250926D01*
X8000000Y-8250926D02*
X8033333Y-8284260D01*
X8033333Y-8284260D02*
X8100000Y-8317593D01*
X8100000Y-8317593D02*
X8233333Y-8317593D01*
X8233333Y-8317593D02*
X8300000Y-8284260D01*
X8300000Y-8284260D02*
X8333333Y-8250926D01*
X8333333Y-8250926D02*
X8366666Y-8184260D01*
X8366666Y-8184260D02*
X8366666Y-7617593D01*
X9066666Y-8317593D02*
X8666666Y-8317593D01*
X8866666Y-8317593D02*
X8866666Y-7617593D01*
X8866666Y-7617593D02*
X8799999Y-7717593D01*
X8799999Y-7717593D02*
X8733333Y-7784260D01*
X8733333Y-7784260D02*
X8666666Y-7817593D01*
D11*
X16788333Y-10918773D02*
X16727857Y-10979250D01*
X16727857Y-10979250D02*
X16546428Y-11039726D01*
X16546428Y-11039726D02*
X16425476Y-11039726D01*
X16425476Y-11039726D02*
X16244047Y-10979250D01*
X16244047Y-10979250D02*
X16123095Y-10858297D01*
X16123095Y-10858297D02*
X16062618Y-10737345D01*
X16062618Y-10737345D02*
X16002142Y-10495440D01*
X16002142Y-10495440D02*
X16002142Y-10314011D01*
X16002142Y-10314011D02*
X16062618Y-10072107D01*
X16062618Y-10072107D02*
X16123095Y-9951154D01*
X16123095Y-9951154D02*
X16244047Y-9830202D01*
X16244047Y-9830202D02*
X16425476Y-9769726D01*
X16425476Y-9769726D02*
X16546428Y-9769726D01*
X16546428Y-9769726D02*
X16727857Y-9830202D01*
X16727857Y-9830202D02*
X16788333Y-9890678D01*
X17211666Y-9769726D02*
X17997857Y-9769726D01*
X17997857Y-9769726D02*
X17574523Y-10253535D01*
X17574523Y-10253535D02*
X17755952Y-10253535D01*
X17755952Y-10253535D02*
X17876904Y-10314011D01*
X17876904Y-10314011D02*
X17937380Y-10374488D01*
X17937380Y-10374488D02*
X17997857Y-10495440D01*
X17997857Y-10495440D02*
X17997857Y-10797821D01*
X17997857Y-10797821D02*
X17937380Y-10918773D01*
X17937380Y-10918773D02*
X17876904Y-10979250D01*
X17876904Y-10979250D02*
X17755952Y-11039726D01*
X17755952Y-11039726D02*
X17393095Y-11039726D01*
X17393095Y-11039726D02*
X17272142Y-10979250D01*
X17272142Y-10979250D02*
X17211666Y-10918773D01*
D12*
X16900000Y-9275228D02*
X16871428Y-9303800D01*
X16871428Y-9303800D02*
X16785714Y-9332371D01*
X16785714Y-9332371D02*
X16728571Y-9332371D01*
X16728571Y-9332371D02*
X16642857Y-9303800D01*
X16642857Y-9303800D02*
X16585714Y-9246657D01*
X16585714Y-9246657D02*
X16557143Y-9189514D01*
X16557143Y-9189514D02*
X16528571Y-9075228D01*
X16528571Y-9075228D02*
X16528571Y-8989514D01*
X16528571Y-8989514D02*
X16557143Y-8875228D01*
X16557143Y-8875228D02*
X16585714Y-8818085D01*
X16585714Y-8818085D02*
X16642857Y-8760942D01*
X16642857Y-8760942D02*
X16728571Y-8732371D01*
X16728571Y-8732371D02*
X16785714Y-8732371D01*
X16785714Y-8732371D02*
X16871428Y-8760942D01*
X16871428Y-8760942D02*
X16900000Y-8789514D01*
X17100000Y-8732371D02*
X17471428Y-8732371D01*
X17471428Y-8732371D02*
X17271428Y-8960942D01*
X17271428Y-8960942D02*
X17357143Y-8960942D01*
X17357143Y-8960942D02*
X17414286Y-8989514D01*
X17414286Y-8989514D02*
X17442857Y-9018085D01*
X17442857Y-9018085D02*
X17471428Y-9075228D01*
X17471428Y-9075228D02*
X17471428Y-9218085D01*
X17471428Y-9218085D02*
X17442857Y-9275228D01*
X17442857Y-9275228D02*
X17414286Y-9303800D01*
X17414286Y-9303800D02*
X17357143Y-9332371D01*
X17357143Y-9332371D02*
X17185714Y-9332371D01*
X17185714Y-9332371D02*
X17128571Y-9303800D01*
X17128571Y-9303800D02*
X17100000Y-9275228D01*
D11*
X1411428Y-3079726D02*
X1411428Y-1809726D01*
X1411428Y-1809726D02*
X1834762Y-2716869D01*
X1834762Y-2716869D02*
X2258095Y-1809726D01*
X2258095Y-1809726D02*
X2258095Y-3079726D01*
X2862857Y-3079726D02*
X2862857Y-1809726D01*
X2862857Y-2414488D02*
X3588572Y-2414488D01*
X3588572Y-3079726D02*
X3588572Y-1809726D01*
X21576667Y-11809726D02*
X21576667Y-12716869D01*
X21576667Y-12716869D02*
X21516190Y-12898297D01*
X21516190Y-12898297D02*
X21395238Y-13019250D01*
X21395238Y-13019250D02*
X21213809Y-13079726D01*
X21213809Y-13079726D02*
X21092857Y-13079726D01*
X22846667Y-13079726D02*
X22120952Y-13079726D01*
X22483809Y-13079726D02*
X22483809Y-11809726D01*
X22483809Y-11809726D02*
X22362857Y-11991154D01*
X22362857Y-11991154D02*
X22241905Y-12112107D01*
X22241905Y-12112107D02*
X22120952Y-12172583D01*
D10*
X24766666Y-12117593D02*
X24766666Y-12617593D01*
X24766666Y-12617593D02*
X24733333Y-12717593D01*
X24733333Y-12717593D02*
X24666666Y-12784260D01*
X24666666Y-12784260D02*
X24566666Y-12817593D01*
X24566666Y-12817593D02*
X24500000Y-12817593D01*
X25466666Y-12817593D02*
X25066666Y-12817593D01*
X25266666Y-12817593D02*
X25266666Y-12117593D01*
X25266666Y-12117593D02*
X25199999Y-12217593D01*
X25199999Y-12217593D02*
X25133333Y-12284260D01*
X25133333Y-12284260D02*
X25066666Y-12317593D01*
D11*
X12532380Y-12309726D02*
X12532380Y-13337821D01*
X12532380Y-13337821D02*
X12592857Y-13458773D01*
X12592857Y-13458773D02*
X12653333Y-13519250D01*
X12653333Y-13519250D02*
X12774285Y-13579726D01*
X12774285Y-13579726D02*
X13016190Y-13579726D01*
X13016190Y-13579726D02*
X13137142Y-13519250D01*
X13137142Y-13519250D02*
X13197619Y-13458773D01*
X13197619Y-13458773D02*
X13258095Y-13337821D01*
X13258095Y-13337821D02*
X13258095Y-12309726D01*
X13741904Y-12309726D02*
X14528095Y-12309726D01*
X14528095Y-12309726D02*
X14104761Y-12793535D01*
X14104761Y-12793535D02*
X14286190Y-12793535D01*
X14286190Y-12793535D02*
X14407142Y-12854011D01*
X14407142Y-12854011D02*
X14467618Y-12914488D01*
X14467618Y-12914488D02*
X14528095Y-13035440D01*
X14528095Y-13035440D02*
X14528095Y-13337821D01*
X14528095Y-13337821D02*
X14467618Y-13458773D01*
X14467618Y-13458773D02*
X14407142Y-13519250D01*
X14407142Y-13519250D02*
X14286190Y-13579726D01*
X14286190Y-13579726D02*
X13923333Y-13579726D01*
X13923333Y-13579726D02*
X13802380Y-13519250D01*
X13802380Y-13519250D02*
X13741904Y-13458773D01*
D10*
X15966666Y-12617593D02*
X15966666Y-13184260D01*
X15966666Y-13184260D02*
X16000000Y-13250926D01*
X16000000Y-13250926D02*
X16033333Y-13284260D01*
X16033333Y-13284260D02*
X16100000Y-13317593D01*
X16100000Y-13317593D02*
X16233333Y-13317593D01*
X16233333Y-13317593D02*
X16300000Y-13284260D01*
X16300000Y-13284260D02*
X16333333Y-13250926D01*
X16333333Y-13250926D02*
X16366666Y-13184260D01*
X16366666Y-13184260D02*
X16366666Y-12617593D01*
X16633333Y-12617593D02*
X17066666Y-12617593D01*
X17066666Y-12617593D02*
X16833333Y-12884260D01*
X16833333Y-12884260D02*
X16933333Y-12884260D01*
X16933333Y-12884260D02*
X16999999Y-12917593D01*
X16999999Y-12917593D02*
X17033333Y-12950926D01*
X17033333Y-12950926D02*
X17066666Y-13017593D01*
X17066666Y-13017593D02*
X17066666Y-13184260D01*
X17066666Y-13184260D02*
X17033333Y-13250926D01*
X17033333Y-13250926D02*
X16999999Y-13284260D01*
X16999999Y-13284260D02*
X16933333Y-13317593D01*
X16933333Y-13317593D02*
X16733333Y-13317593D01*
X16733333Y-13317593D02*
X16666666Y-13284260D01*
X16666666Y-13284260D02*
X16633333Y-13250926D01*
D11*
X4532380Y-17809726D02*
X4532380Y-18837821D01*
X4532380Y-18837821D02*
X4592857Y-18958773D01*
X4592857Y-18958773D02*
X4653333Y-19019250D01*
X4653333Y-19019250D02*
X4774285Y-19079726D01*
X4774285Y-19079726D02*
X5016190Y-19079726D01*
X5016190Y-19079726D02*
X5137142Y-19019250D01*
X5137142Y-19019250D02*
X5197619Y-18958773D01*
X5197619Y-18958773D02*
X5258095Y-18837821D01*
X5258095Y-18837821D02*
X5258095Y-17809726D01*
X5802380Y-17930678D02*
X5862856Y-17870202D01*
X5862856Y-17870202D02*
X5983809Y-17809726D01*
X5983809Y-17809726D02*
X6286190Y-17809726D01*
X6286190Y-17809726D02*
X6407142Y-17870202D01*
X6407142Y-17870202D02*
X6467618Y-17930678D01*
X6467618Y-17930678D02*
X6528095Y-18051630D01*
X6528095Y-18051630D02*
X6528095Y-18172583D01*
X6528095Y-18172583D02*
X6467618Y-18354011D01*
X6467618Y-18354011D02*
X5741904Y-19079726D01*
X5741904Y-19079726D02*
X6528095Y-19079726D01*
D10*
X7966666Y-18117593D02*
X7966666Y-18684260D01*
X7966666Y-18684260D02*
X8000000Y-18750926D01*
X8000000Y-18750926D02*
X8033333Y-18784260D01*
X8033333Y-18784260D02*
X8100000Y-18817593D01*
X8100000Y-18817593D02*
X8233333Y-18817593D01*
X8233333Y-18817593D02*
X8300000Y-18784260D01*
X8300000Y-18784260D02*
X8333333Y-18750926D01*
X8333333Y-18750926D02*
X8366666Y-18684260D01*
X8366666Y-18684260D02*
X8366666Y-18117593D01*
X8666666Y-18184260D02*
X8699999Y-18150926D01*
X8699999Y-18150926D02*
X8766666Y-18117593D01*
X8766666Y-18117593D02*
X8933333Y-18117593D01*
X8933333Y-18117593D02*
X8999999Y-18150926D01*
X8999999Y-18150926D02*
X9033333Y-18184260D01*
X9033333Y-18184260D02*
X9066666Y-18250926D01*
X9066666Y-18250926D02*
X9066666Y-18317593D01*
X9066666Y-18317593D02*
X9033333Y-18417593D01*
X9033333Y-18417593D02*
X8633333Y-18817593D01*
X8633333Y-18817593D02*
X9066666Y-18817593D01*
D11*
X8788333Y431226D02*
X8727857Y370750D01*
X8727857Y370750D02*
X8546428Y310273D01*
X8546428Y310273D02*
X8425476Y310273D01*
X8425476Y310273D02*
X8244047Y370750D01*
X8244047Y370750D02*
X8123095Y491702D01*
X8123095Y491702D02*
X8062618Y612654D01*
X8062618Y612654D02*
X8002142Y854559D01*
X8002142Y854559D02*
X8002142Y1035988D01*
X8002142Y1035988D02*
X8062618Y1277892D01*
X8062618Y1277892D02*
X8123095Y1398845D01*
X8123095Y1398845D02*
X8244047Y1519797D01*
X8244047Y1519797D02*
X8425476Y1580273D01*
X8425476Y1580273D02*
X8546428Y1580273D01*
X8546428Y1580273D02*
X8727857Y1519797D01*
X8727857Y1519797D02*
X8788333Y1459321D01*
X9997857Y310273D02*
X9272142Y310273D01*
X9634999Y310273D02*
X9634999Y1580273D01*
X9634999Y1580273D02*
X9514047Y1398845D01*
X9514047Y1398845D02*
X9393095Y1277892D01*
X9393095Y1277892D02*
X9272142Y1217416D01*
D12*
X8900000Y2074771D02*
X8871428Y2046200D01*
X8871428Y2046200D02*
X8785714Y2017628D01*
X8785714Y2017628D02*
X8728571Y2017628D01*
X8728571Y2017628D02*
X8642857Y2046200D01*
X8642857Y2046200D02*
X8585714Y2103342D01*
X8585714Y2103342D02*
X8557143Y2160485D01*
X8557143Y2160485D02*
X8528571Y2274771D01*
X8528571Y2274771D02*
X8528571Y2360485D01*
X8528571Y2360485D02*
X8557143Y2474771D01*
X8557143Y2474771D02*
X8585714Y2531914D01*
X8585714Y2531914D02*
X8642857Y2589057D01*
X8642857Y2589057D02*
X8728571Y2617628D01*
X8728571Y2617628D02*
X8785714Y2617628D01*
X8785714Y2617628D02*
X8871428Y2589057D01*
X8871428Y2589057D02*
X8900000Y2560485D01*
X9471428Y2017628D02*
X9128571Y2017628D01*
X9300000Y2017628D02*
X9300000Y2617628D01*
X9300000Y2617628D02*
X9242857Y2531914D01*
X9242857Y2531914D02*
X9185714Y2474771D01*
X9185714Y2474771D02*
X9128571Y2446200D01*
D11*
X21411428Y-3079726D02*
X21411428Y-1809726D01*
X21411428Y-1809726D02*
X21834762Y-2716869D01*
X21834762Y-2716869D02*
X22258095Y-1809726D01*
X22258095Y-1809726D02*
X22258095Y-3079726D01*
X22862857Y-3079726D02*
X22862857Y-1809726D01*
X22862857Y-2414488D02*
X23588572Y-2414488D01*
X23588572Y-3079726D02*
X23588572Y-1809726D01*
X21411428Y-23079726D02*
X21411428Y-21809726D01*
X21411428Y-21809726D02*
X21834762Y-22716869D01*
X21834762Y-22716869D02*
X22258095Y-21809726D01*
X22258095Y-21809726D02*
X22258095Y-23079726D01*
X22862857Y-23079726D02*
X22862857Y-21809726D01*
X22862857Y-22414488D02*
X23588572Y-22414488D01*
X23588572Y-23079726D02*
X23588572Y-21809726D01*
X1411428Y-23079726D02*
X1411428Y-21809726D01*
X1411428Y-21809726D02*
X1834762Y-22716869D01*
X1834762Y-22716869D02*
X2258095Y-21809726D01*
X2258095Y-21809726D02*
X2258095Y-23079726D01*
X2862857Y-23079726D02*
X2862857Y-21809726D01*
X2862857Y-22414488D02*
X3588572Y-22414488D01*
X3588572Y-23079726D02*
X3588572Y-21809726D01*
X17288333Y-13579726D02*
X16864999Y-12974964D01*
X16562618Y-13579726D02*
X16562618Y-12309726D01*
X16562618Y-12309726D02*
X17046428Y-12309726D01*
X17046428Y-12309726D02*
X17167380Y-12370202D01*
X17167380Y-12370202D02*
X17227857Y-12430678D01*
X17227857Y-12430678D02*
X17288333Y-12551630D01*
X17288333Y-12551630D02*
X17288333Y-12733059D01*
X17288333Y-12733059D02*
X17227857Y-12854011D01*
X17227857Y-12854011D02*
X17167380Y-12914488D01*
X17167380Y-12914488D02*
X17046428Y-12974964D01*
X17046428Y-12974964D02*
X16562618Y-12974964D01*
X18497857Y-13579726D02*
X17772142Y-13579726D01*
X18134999Y-13579726D02*
X18134999Y-12309726D01*
X18134999Y-12309726D02*
X18014047Y-12491154D01*
X18014047Y-12491154D02*
X17893095Y-12612107D01*
X17893095Y-12612107D02*
X17772142Y-12672583D01*
D12*
X17400000Y-11872371D02*
X17200000Y-11586657D01*
X17057143Y-11872371D02*
X17057143Y-11272371D01*
X17057143Y-11272371D02*
X17285714Y-11272371D01*
X17285714Y-11272371D02*
X17342857Y-11300942D01*
X17342857Y-11300942D02*
X17371428Y-11329514D01*
X17371428Y-11329514D02*
X17400000Y-11386657D01*
X17400000Y-11386657D02*
X17400000Y-11472371D01*
X17400000Y-11472371D02*
X17371428Y-11529514D01*
X17371428Y-11529514D02*
X17342857Y-11558085D01*
X17342857Y-11558085D02*
X17285714Y-11586657D01*
X17285714Y-11586657D02*
X17057143Y-11586657D01*
X17971428Y-11872371D02*
X17628571Y-11872371D01*
X17800000Y-11872371D02*
X17800000Y-11272371D01*
X17800000Y-11272371D02*
X17742857Y-11358085D01*
X17742857Y-11358085D02*
X17685714Y-11415228D01*
X17685714Y-11415228D02*
X17628571Y-11443800D01*
D11*
X8788333Y-12608773D02*
X8727857Y-12669250D01*
X8727857Y-12669250D02*
X8546428Y-12729726D01*
X8546428Y-12729726D02*
X8425476Y-12729726D01*
X8425476Y-12729726D02*
X8244047Y-12669250D01*
X8244047Y-12669250D02*
X8123095Y-12548297D01*
X8123095Y-12548297D02*
X8062618Y-12427345D01*
X8062618Y-12427345D02*
X8002142Y-12185440D01*
X8002142Y-12185440D02*
X8002142Y-12004011D01*
X8002142Y-12004011D02*
X8062618Y-11762107D01*
X8062618Y-11762107D02*
X8123095Y-11641154D01*
X8123095Y-11641154D02*
X8244047Y-11520202D01*
X8244047Y-11520202D02*
X8425476Y-11459726D01*
X8425476Y-11459726D02*
X8546428Y-11459726D01*
X8546428Y-11459726D02*
X8727857Y-11520202D01*
X8727857Y-11520202D02*
X8788333Y-11580678D01*
X9272142Y-11580678D02*
X9332618Y-11520202D01*
X9332618Y-11520202D02*
X9453571Y-11459726D01*
X9453571Y-11459726D02*
X9755952Y-11459726D01*
X9755952Y-11459726D02*
X9876904Y-11520202D01*
X9876904Y-11520202D02*
X9937380Y-11580678D01*
X9937380Y-11580678D02*
X9997857Y-11701630D01*
X9997857Y-11701630D02*
X9997857Y-11822583D01*
X9997857Y-11822583D02*
X9937380Y-12004011D01*
X9937380Y-12004011D02*
X9211666Y-12729726D01*
X9211666Y-12729726D02*
X9997857Y-12729726D01*
D12*
X8900000Y-10965228D02*
X8871428Y-10993800D01*
X8871428Y-10993800D02*
X8785714Y-11022371D01*
X8785714Y-11022371D02*
X8728571Y-11022371D01*
X8728571Y-11022371D02*
X8642857Y-10993800D01*
X8642857Y-10993800D02*
X8585714Y-10936657D01*
X8585714Y-10936657D02*
X8557143Y-10879514D01*
X8557143Y-10879514D02*
X8528571Y-10765228D01*
X8528571Y-10765228D02*
X8528571Y-10679514D01*
X8528571Y-10679514D02*
X8557143Y-10565228D01*
X8557143Y-10565228D02*
X8585714Y-10508085D01*
X8585714Y-10508085D02*
X8642857Y-10450942D01*
X8642857Y-10450942D02*
X8728571Y-10422371D01*
X8728571Y-10422371D02*
X8785714Y-10422371D01*
X8785714Y-10422371D02*
X8871428Y-10450942D01*
X8871428Y-10450942D02*
X8900000Y-10479514D01*
X9128571Y-10479514D02*
X9157143Y-10450942D01*
X9157143Y-10450942D02*
X9214286Y-10422371D01*
X9214286Y-10422371D02*
X9357143Y-10422371D01*
X9357143Y-10422371D02*
X9414286Y-10450942D01*
X9414286Y-10450942D02*
X9442857Y-10479514D01*
X9442857Y-10479514D02*
X9471428Y-10536657D01*
X9471428Y-10536657D02*
X9471428Y-10593800D01*
X9471428Y-10593800D02*
X9442857Y-10679514D01*
X9442857Y-10679514D02*
X9100000Y-11022371D01*
X9100000Y-11022371D02*
X9471428Y-11022371D01*
M02*
