%TF.GenerationSoftware,KiCad,Pcbnew,9.0.7*%
%TF.CreationDate,2026-09-28T10:54:30-03:00*%
%TF.ProjectId,amemiya_gateway,616d656d-6979-4615-9f67-617465776179,rev?*%
%TF.SameCoordinates,Original*%
%TF.FileFunction,Legend,Top*%
%TF.FilePolarity,Positive*%
%FSLAX46Y46*%
G04 Gerber Fmt 4.6, Leading zero omitted, Abs format (unit mm)*
G04 Created by KiCad (PCBNEW 9.0.7) date 2026-09-28 10:54:30*
%MOMM*%
%LPD*%
G01*
G04 APERTURE LIST*
G04 Aperture macros list*
%AMRoundRect*
0 Rectangle with rounded corners*
0 $1 Rounding radius*
0 $2 $3 $4 $5 $6 $7 $8 $9 X,Y pos of 4 corners*
0 Add a 4 corners polygon primitive as box body*
4,1,4,$2,$3,$4,$5,$6,$7,$8,$9,$2,$3,0*
0 Add four circle primitives for the rounded corners*
1,1,$1+$1,$2,$3*
1,1,$1+$1,$4,$5*
1,1,$1+$1,$6,$7*
1,1,$1+$1,$8,$9*
0 Add four rect primitives between the rounded corners*
20,1,$1+$1,$2,$3,$4,$5,0*
20,1,$1+$1,$4,$5,$6,$7,0*
20,1,$1+$1,$6,$7,$8,$9,0*
20,1,$1+$1,$8,$9,$2,$3,0*%
G04 Aperture macros list end*
%ADD10C,0.150000*%
%ADD11C,0.120000*%
%ADD12R,1.700000X1.700000*%
%ADD13C,1.700000*%
%ADD14C,1.600000*%
%ADD15RoundRect,0.250000X-1.050000X1.050000X-1.050000X-1.050000X1.050000X-1.050000X1.050000X1.050000X0*%
%ADD16C,2.600000*%
%ADD17RoundRect,0.250000X-0.550000X-0.550000X0.550000X-0.550000X0.550000X0.550000X-0.550000X0.550000X0*%
%ADD18R,1.800000X1.800000*%
%ADD19C,1.800000*%
%ADD20C,6.400000*%
%ADD21R,2.000000X2.000000*%
%ADD22C,2.000000*%
%ADD23RoundRect,0.249999X-0.850001X-0.850001X0.850001X-0.850001X0.850001X0.850001X-0.850001X0.850001X0*%
%ADD24C,2.200000*%
G04 APERTURE END LIST*
D10*
X73629048Y-12613866D02*
X74390953Y-12613866D01*
X74010000Y-12994819D02*
X74010000Y-12232914D01*
X20238095Y-3354819D02*
X20238095Y-2354819D01*
X20809523Y-3354819D02*
X20380952Y-2783390D01*
X20809523Y-2354819D02*
X20238095Y-2926247D01*
X32238095Y-10854819D02*
X32238095Y-9854819D01*
X32809523Y-10854819D02*
X32380952Y-10283390D01*
X32809523Y-9854819D02*
X32238095Y-10426247D01*
D11*
%TO.C,U_ESP_R*%
X12620000Y-46780000D02*
X12620000Y-45400000D01*
X14000000Y-46780000D02*
X12620000Y-46780000D01*
X15270000Y-44020000D02*
X68720000Y-44020000D01*
X15270000Y-46780000D02*
X15270000Y-44020000D01*
X15270000Y-46780000D02*
X68720000Y-46780000D01*
X68720000Y-46780000D02*
X68720000Y-44020000D01*
%TO.C,R_LORA*%
X11540000Y-48630000D02*
X18080000Y-48630000D01*
X11540000Y-48960000D02*
X11540000Y-48630000D01*
X11540000Y-51040000D02*
X11540000Y-51370000D01*
X11540000Y-51370000D02*
X18080000Y-51370000D01*
X18080000Y-48630000D02*
X18080000Y-48960000D01*
X18080000Y-51370000D02*
X18080000Y-51040000D01*
%TO.C,J_PWR_IN*%
X8280000Y-5840000D02*
X18320000Y-5840000D01*
X8280000Y-8200000D02*
X8280000Y-5840000D01*
X8280000Y-16240000D02*
X8280000Y-8800000D01*
X8900000Y-5840000D02*
X8900000Y-16240000D01*
X10400000Y-5840000D02*
X10400000Y-16240000D01*
X15300000Y-5840000D02*
X15300000Y-16240000D01*
X18320000Y-5840000D02*
X18320000Y-16240000D01*
X18320000Y-16240000D02*
X8280000Y-16240000D01*
X8280000Y-8500000D02*
X7670000Y-8940000D01*
X7670000Y-8060000D01*
X8280000Y-8500000D01*
G36*
X8280000Y-8500000D02*
G01*
X7670000Y-8940000D01*
X7670000Y-8060000D01*
X8280000Y-8500000D01*
G37*
%TO.C,R_SDA*%
X41540000Y-53630000D02*
X48080000Y-53630000D01*
X41540000Y-53960000D02*
X41540000Y-53630000D01*
X41540000Y-56040000D02*
X41540000Y-56370000D01*
X41540000Y-56370000D02*
X48080000Y-56370000D01*
X48080000Y-53630000D02*
X48080000Y-53960000D01*
X48080000Y-56370000D02*
X48080000Y-56040000D01*
%TO.C,R_M0*%
X5540000Y-40630000D02*
X12080000Y-40630000D01*
X5540000Y-40960000D02*
X5540000Y-40630000D01*
X5540000Y-43040000D02*
X5540000Y-43370000D01*
X5540000Y-43370000D02*
X12080000Y-43370000D01*
X12080000Y-40630000D02*
X12080000Y-40960000D01*
X12080000Y-43370000D02*
X12080000Y-43040000D01*
%TO.C,J_USB_PWR*%
X3620000Y-13620000D02*
X5000000Y-13620000D01*
X3620000Y-15000000D02*
X3620000Y-13620000D01*
X3620000Y-16270000D02*
X3620000Y-18920000D01*
X3620000Y-16270000D02*
X6380000Y-16270000D01*
X3620000Y-18920000D02*
X6380000Y-18920000D01*
X6380000Y-16270000D02*
X6380000Y-18920000D01*
%TO.C,C1*%
X19749759Y-10661000D02*
X20379759Y-10661000D01*
X20064759Y-10346000D02*
X20064759Y-10976000D01*
X23250000Y-9270000D02*
X23250000Y-15730000D01*
X23290000Y-9270000D02*
X23290000Y-15730000D01*
X23330000Y-9271000D02*
X23330000Y-15729000D01*
X23370000Y-9272000D02*
X23370000Y-15728000D01*
X23410000Y-9274000D02*
X23410000Y-15726000D01*
X23450000Y-9276000D02*
X23450000Y-15724000D01*
X23490000Y-9279000D02*
X23490000Y-11460000D01*
X23490000Y-13540000D02*
X23490000Y-15721000D01*
X23530000Y-9282000D02*
X23530000Y-11460000D01*
X23530000Y-13540000D02*
X23530000Y-15718000D01*
X23570000Y-9286000D02*
X23570000Y-11460000D01*
X23570000Y-13540000D02*
X23570000Y-15714000D01*
X23610000Y-9290000D02*
X23610000Y-11460000D01*
X23610000Y-13540000D02*
X23610000Y-15710000D01*
X23650000Y-9295000D02*
X23650000Y-11460000D01*
X23650000Y-13540000D02*
X23650000Y-15705000D01*
X23690000Y-9300000D02*
X23690000Y-11460000D01*
X23690000Y-13540000D02*
X23690000Y-15700000D01*
X23730000Y-9305000D02*
X23730000Y-11460000D01*
X23730000Y-13540000D02*
X23730000Y-15695000D01*
X23770000Y-9312000D02*
X23770000Y-11460000D01*
X23770000Y-13540000D02*
X23770000Y-15688000D01*
X23810000Y-9318000D02*
X23810000Y-11460000D01*
X23810000Y-13540000D02*
X23810000Y-15682000D01*
X23850000Y-9326000D02*
X23850000Y-11460000D01*
X23850000Y-13540000D02*
X23850000Y-15674000D01*
X23890000Y-9333000D02*
X23890000Y-11460000D01*
X23890000Y-13540000D02*
X23890000Y-15667000D01*
X23930000Y-9341000D02*
X23930000Y-11460000D01*
X23930000Y-13540000D02*
X23930000Y-15659000D01*
X23970000Y-9350000D02*
X23970000Y-11460000D01*
X23970000Y-13540000D02*
X23970000Y-15650000D01*
X24010000Y-9360000D02*
X24010000Y-11460000D01*
X24010000Y-13540000D02*
X24010000Y-15640000D01*
X24050000Y-9369000D02*
X24050000Y-11460000D01*
X24050000Y-13540000D02*
X24050000Y-15631000D01*
X24090000Y-9380000D02*
X24090000Y-11460000D01*
X24090000Y-13540000D02*
X24090000Y-15620000D01*
X24130000Y-9391000D02*
X24130000Y-11460000D01*
X24130000Y-13540000D02*
X24130000Y-15609000D01*
X24170000Y-9402000D02*
X24170000Y-11460000D01*
X24170000Y-13540000D02*
X24170000Y-15598000D01*
X24210000Y-9414000D02*
X24210000Y-11460000D01*
X24210000Y-13540000D02*
X24210000Y-15586000D01*
X24250000Y-9427000D02*
X24250000Y-11460000D01*
X24250000Y-13540000D02*
X24250000Y-15573000D01*
X24290000Y-9440000D02*
X24290000Y-11460000D01*
X24290000Y-13540000D02*
X24290000Y-15560000D01*
X24330000Y-9453000D02*
X24330000Y-11460000D01*
X24330000Y-13540000D02*
X24330000Y-15547000D01*
X24370000Y-9468000D02*
X24370000Y-11460000D01*
X24370000Y-13540000D02*
X24370000Y-15532000D01*
X24410000Y-9483000D02*
X24410000Y-11460000D01*
X24410000Y-13540000D02*
X24410000Y-15517000D01*
X24450000Y-9498000D02*
X24450000Y-11460000D01*
X24450000Y-13540000D02*
X24450000Y-15502000D01*
X24490000Y-9514000D02*
X24490000Y-11460000D01*
X24490000Y-13540000D02*
X24490000Y-15486000D01*
X24530000Y-9531000D02*
X24530000Y-11460000D01*
X24530000Y-13540000D02*
X24530000Y-15469000D01*
X24570000Y-9548000D02*
X24570000Y-11460000D01*
X24570000Y-13540000D02*
X24570000Y-15452000D01*
X24610000Y-9566000D02*
X24610000Y-11460000D01*
X24610000Y-13540000D02*
X24610000Y-15434000D01*
X24650000Y-9585000D02*
X24650000Y-11460000D01*
X24650000Y-13540000D02*
X24650000Y-15415000D01*
X24690000Y-9604000D02*
X24690000Y-11460000D01*
X24690000Y-13540000D02*
X24690000Y-15396000D01*
X24730000Y-9624000D02*
X24730000Y-11460000D01*
X24730000Y-13540000D02*
X24730000Y-15376000D01*
X24770000Y-9645000D02*
X24770000Y-11460000D01*
X24770000Y-13540000D02*
X24770000Y-15355000D01*
X24810000Y-9666000D02*
X24810000Y-11460000D01*
X24810000Y-13540000D02*
X24810000Y-15334000D01*
X24850000Y-9688000D02*
X24850000Y-11460000D01*
X24850000Y-13540000D02*
X24850000Y-15312000D01*
X24890000Y-9711000D02*
X24890000Y-11460000D01*
X24890000Y-13540000D02*
X24890000Y-15289000D01*
X24930000Y-9735000D02*
X24930000Y-11460000D01*
X24930000Y-13540000D02*
X24930000Y-15265000D01*
X24970000Y-9759000D02*
X24970000Y-11460000D01*
X24970000Y-13540000D02*
X24970000Y-15241000D01*
X25010000Y-9784000D02*
X25010000Y-11460000D01*
X25010000Y-13540000D02*
X25010000Y-15216000D01*
X25050000Y-9810000D02*
X25050000Y-11460000D01*
X25050000Y-13540000D02*
X25050000Y-15190000D01*
X25090000Y-9837000D02*
X25090000Y-11460000D01*
X25090000Y-13540000D02*
X25090000Y-15163000D01*
X25130000Y-9864000D02*
X25130000Y-11460000D01*
X25130000Y-13540000D02*
X25130000Y-15136000D01*
X25170000Y-9893000D02*
X25170000Y-11460000D01*
X25170000Y-13540000D02*
X25170000Y-15107000D01*
X25210000Y-9923000D02*
X25210000Y-11460000D01*
X25210000Y-13540000D02*
X25210000Y-15077000D01*
X25250000Y-9953000D02*
X25250000Y-11460000D01*
X25250000Y-13540000D02*
X25250000Y-15047000D01*
X25290000Y-9984000D02*
X25290000Y-11460000D01*
X25290000Y-13540000D02*
X25290000Y-15016000D01*
X25330000Y-10017000D02*
X25330000Y-11460000D01*
X25330000Y-13540000D02*
X25330000Y-14983000D01*
X25370000Y-10050000D02*
X25370000Y-11460000D01*
X25370000Y-13540000D02*
X25370000Y-14950000D01*
X25410000Y-10085000D02*
X25410000Y-11460000D01*
X25410000Y-13540000D02*
X25410000Y-14915000D01*
X25450000Y-10121000D02*
X25450000Y-11460000D01*
X25450000Y-13540000D02*
X25450000Y-14879000D01*
X25490000Y-10158000D02*
X25490000Y-11460000D01*
X25490000Y-13540000D02*
X25490000Y-14842000D01*
X25530000Y-10196000D02*
X25530000Y-11460000D01*
X25530000Y-13540000D02*
X25530000Y-14804000D01*
X25570000Y-10236000D02*
X25570000Y-14764000D01*
X25610000Y-10277000D02*
X25610000Y-14723000D01*
X25650000Y-10319000D02*
X25650000Y-14681000D01*
X25690000Y-10363000D02*
X25690000Y-14637000D01*
X25730000Y-10409000D02*
X25730000Y-14591000D01*
X25770000Y-10456000D02*
X25770000Y-14544000D01*
X25810000Y-10505000D02*
X25810000Y-14495000D01*
X25850000Y-10557000D02*
X25850000Y-14443000D01*
X25890000Y-10610000D02*
X25890000Y-14390000D01*
X25930000Y-10666000D02*
X25930000Y-14334000D01*
X25970000Y-10725000D02*
X25970000Y-14275000D01*
X26010000Y-10786000D02*
X26010000Y-14214000D01*
X26050000Y-10851000D02*
X26050000Y-14149000D01*
X26090000Y-10919000D02*
X26090000Y-14081000D01*
X26130000Y-10991000D02*
X26130000Y-14009000D01*
X26170000Y-11068000D02*
X26170000Y-13932000D01*
X26210000Y-11150000D02*
X26210000Y-13850000D01*
X26250000Y-11239000D02*
X26250000Y-13761000D01*
X26290000Y-11335000D02*
X26290000Y-13665000D01*
X26330000Y-11442000D02*
X26330000Y-13558000D01*
X26370000Y-11561000D02*
X26370000Y-13439000D01*
X26410000Y-11699000D02*
X26410000Y-13301000D01*
X26450000Y-11867000D02*
X26450000Y-13133000D01*
X26490000Y-12098000D02*
X26490000Y-12902000D01*
X26520000Y-12500000D02*
G75*
G02*
X19980000Y-12500000I-3270000J0D01*
G01*
X19980000Y-12500000D02*
G75*
G02*
X26520000Y-12500000I3270000J0D01*
G01*
%TO.C,U_ESP_L*%
X12620000Y-21380000D02*
X12620000Y-20000000D01*
X14000000Y-21380000D02*
X12620000Y-21380000D01*
X15270000Y-18620000D02*
X68720000Y-18620000D01*
X15270000Y-21380000D02*
X15270000Y-18620000D01*
X15270000Y-21380000D02*
X68720000Y-21380000D01*
X68720000Y-21380000D02*
X68720000Y-18620000D01*
%TO.C,U_BUCK*%
X33620000Y-6380000D02*
X33620000Y-5000000D01*
X35000000Y-6380000D02*
X33620000Y-6380000D01*
X36270000Y-3620000D02*
X44000000Y-3620000D01*
X36270000Y-6380000D02*
X36270000Y-3620000D01*
X36270000Y-6380000D02*
X44000000Y-6380000D01*
X44000000Y-6380000D02*
X44000000Y-3620000D01*
%TO.C,C3*%
X21230000Y-23580000D02*
X25270000Y-23580000D01*
X21230000Y-24301000D02*
X21230000Y-23580000D01*
X21230000Y-26420000D02*
X21230000Y-25699000D01*
X25270000Y-23580000D02*
X25270000Y-24301000D01*
X25270000Y-25699000D02*
X25270000Y-26420000D01*
X25270000Y-26420000D02*
X21230000Y-26420000D01*
%TO.C,J_OLED*%
X51620000Y-53880000D02*
X51620000Y-52500000D01*
X53000000Y-53880000D02*
X51620000Y-53880000D01*
X54270000Y-51120000D02*
X62000000Y-51120000D01*
X54270000Y-53880000D02*
X54270000Y-51120000D01*
X54270000Y-53880000D02*
X62000000Y-53880000D01*
X62000000Y-53880000D02*
X62000000Y-51120000D01*
%TO.C,D_PWR*%
X4710000Y-22764000D02*
X4710000Y-22920000D01*
X4710000Y-25080000D02*
X4710000Y-25236000D01*
X4710000Y-22764484D02*
G75*
G02*
X7941437Y-22920000I1560000J-1235516D01*
G01*
X5229039Y-22920000D02*
G75*
G02*
X7310961Y-22920000I1040961J-1080000D01*
G01*
X7310961Y-25080000D02*
G75*
G02*
X5229039Y-25080000I-1040961J1080000D01*
G01*
X7941437Y-25080000D02*
G75*
G02*
X4710000Y-25235516I-1671437J1080000D01*
G01*
%TO.C,R_MQTT*%
X21540000Y-48630000D02*
X28080000Y-48630000D01*
X21540000Y-48960000D02*
X21540000Y-48630000D01*
X21540000Y-51040000D02*
X21540000Y-51370000D01*
X21540000Y-51370000D02*
X28080000Y-51370000D01*
X28080000Y-48630000D02*
X28080000Y-48960000D01*
X28080000Y-51370000D02*
X28080000Y-51040000D01*
%TO.C,R_NET*%
X31540000Y-48630000D02*
X38080000Y-48630000D01*
X31540000Y-48960000D02*
X31540000Y-48630000D01*
X31540000Y-51040000D02*
X31540000Y-51370000D01*
X31540000Y-51370000D02*
X38080000Y-51370000D01*
X38080000Y-48630000D02*
X38080000Y-48960000D01*
X38080000Y-51370000D02*
X38080000Y-51040000D01*
%TO.C,R_SCL*%
X41540000Y-48630000D02*
X48080000Y-48630000D01*
X41540000Y-48960000D02*
X41540000Y-48630000D01*
X41540000Y-51040000D02*
X41540000Y-51370000D01*
X41540000Y-51370000D02*
X48080000Y-51370000D01*
X48080000Y-48630000D02*
X48080000Y-48960000D01*
X48080000Y-51370000D02*
X48080000Y-51040000D01*
%TO.C,BZ1*%
X76300000Y-10000000D02*
G75*
G02*
X64100000Y-10000000I-6100000J0D01*
G01*
X64100000Y-10000000D02*
G75*
G02*
X76300000Y-10000000I6100000J0D01*
G01*
%TO.C,D1*%
X21840000Y-5000000D02*
X22860000Y-5000000D01*
X23640000Y-3530000D02*
X23640000Y-6470000D01*
X23760000Y-3530000D02*
X23760000Y-6470000D01*
X23880000Y-3530000D02*
X23880000Y-6470000D01*
X29320000Y-5000000D02*
X28300000Y-5000000D01*
X22860000Y-3530000D02*
X28300000Y-3530000D01*
X28300000Y-6470000D01*
X22860000Y-6470000D01*
X22860000Y-3530000D01*
%TO.C,D_LORA*%
X10710000Y-53764000D02*
X10710000Y-53920000D01*
X10710000Y-56080000D02*
X10710000Y-56236000D01*
X10710000Y-53764484D02*
G75*
G02*
X13941437Y-53920000I1560000J-1235516D01*
G01*
X11229039Y-53920000D02*
G75*
G02*
X13310961Y-53920000I1040961J-1080000D01*
G01*
X13310961Y-56080000D02*
G75*
G02*
X11229039Y-56080000I-1040961J1080000D01*
G01*
X13941437Y-56080000D02*
G75*
G02*
X10710000Y-56235516I-1671437J1080000D01*
G01*
%TO.C,R_PWR*%
X5540000Y-31630000D02*
X12080000Y-31630000D01*
X5540000Y-31960000D02*
X5540000Y-31630000D01*
X5540000Y-34040000D02*
X5540000Y-34370000D01*
X5540000Y-34370000D02*
X12080000Y-34370000D01*
X12080000Y-31630000D02*
X12080000Y-31960000D01*
X12080000Y-34370000D02*
X12080000Y-34040000D01*
%TO.C,J_ETH*%
X76620000Y-22620000D02*
X78000000Y-22620000D01*
X76620000Y-24000000D02*
X76620000Y-22620000D01*
X76620000Y-25270000D02*
X76620000Y-43160000D01*
X76620000Y-25270000D02*
X79380000Y-25270000D01*
X76620000Y-43160000D02*
X79380000Y-43160000D01*
X79380000Y-25270000D02*
X79380000Y-43160000D01*
%TO.C,D2*%
X33840000Y-12500000D02*
X34860000Y-12500000D01*
X35640000Y-11030000D02*
X35640000Y-13970000D01*
X35760000Y-11030000D02*
X35760000Y-13970000D01*
X35880000Y-11030000D02*
X35880000Y-13970000D01*
X41320000Y-12500000D02*
X40300000Y-12500000D01*
X34860000Y-11030000D02*
X40300000Y-11030000D01*
X40300000Y-13970000D01*
X34860000Y-13970000D01*
X34860000Y-11030000D01*
%TO.C,SW_CFG*%
X65750000Y-53500000D02*
X65750000Y-55000000D01*
X67000000Y-57500000D02*
X71500000Y-57500000D01*
X71500000Y-51000000D02*
X67000000Y-51000000D01*
X72750000Y-55000000D02*
X72750000Y-53500000D01*
%TO.C,D_NET*%
X30710000Y-53764000D02*
X30710000Y-53920000D01*
X30710000Y-56080000D02*
X30710000Y-56236000D01*
X30710000Y-53764484D02*
G75*
G02*
X33941437Y-53920000I1560000J-1235516D01*
G01*
X31229039Y-53920000D02*
G75*
G02*
X33310961Y-53920000I1040961J-1080000D01*
G01*
X33310961Y-56080000D02*
G75*
G02*
X31229039Y-56080000I-1040961J1080000D01*
G01*
X33941437Y-56080000D02*
G75*
G02*
X30710000Y-56235516I-1671437J1080000D01*
G01*
%TO.C,D_MQTT*%
X20710000Y-53764000D02*
X20710000Y-53920000D01*
X20710000Y-56080000D02*
X20710000Y-56236000D01*
X20710000Y-53764484D02*
G75*
G02*
X23941437Y-53920000I1560000J-1235516D01*
G01*
X21229039Y-53920000D02*
G75*
G02*
X23310961Y-53920000I1040961J-1080000D01*
G01*
X23310961Y-56080000D02*
G75*
G02*
X21229039Y-56080000I-1040961J1080000D01*
G01*
X23941437Y-56080000D02*
G75*
G02*
X20710000Y-56235516I-1671437J1080000D01*
G01*
%TO.C,U_LORA*%
X45120000Y-6380000D02*
X45120000Y-5000000D01*
X46500000Y-6380000D02*
X45120000Y-6380000D01*
X47770000Y-3620000D02*
X63120000Y-3620000D01*
X47770000Y-6380000D02*
X47770000Y-3620000D01*
X47770000Y-6380000D02*
X63120000Y-6380000D01*
X63120000Y-6380000D02*
X63120000Y-3620000D01*
%TO.C,C2*%
X45230000Y-11080000D02*
X49270000Y-11080000D01*
X45230000Y-11801000D02*
X45230000Y-11080000D01*
X45230000Y-13920000D02*
X45230000Y-13199000D01*
X49270000Y-11080000D02*
X49270000Y-11801000D01*
X49270000Y-13199000D02*
X49270000Y-13920000D01*
X49270000Y-13920000D02*
X45230000Y-13920000D01*
%TO.C,C4*%
X55230000Y-11080000D02*
X59270000Y-11080000D01*
X55230000Y-11801000D02*
X55230000Y-11080000D01*
X55230000Y-13920000D02*
X55230000Y-13199000D01*
X59270000Y-11080000D02*
X59270000Y-11801000D01*
X59270000Y-13199000D02*
X59270000Y-13920000D01*
X59270000Y-13920000D02*
X55230000Y-13920000D01*
%TD*%
%LPC*%
D12*
%TO.C,U_ESP_R*%
X14000000Y-45400000D03*
D13*
X16540000Y-45400000D03*
X19080000Y-45400000D03*
X21620000Y-45400000D03*
X24160000Y-45400000D03*
X26700000Y-45400000D03*
X29240000Y-45400000D03*
X31780000Y-45400000D03*
X34320000Y-45400000D03*
X36860000Y-45400000D03*
X39400000Y-45400000D03*
X41940000Y-45400000D03*
X44480000Y-45400000D03*
X47020000Y-45400000D03*
X49560000Y-45400000D03*
X52100000Y-45400000D03*
X54640000Y-45400000D03*
X57180000Y-45400000D03*
X59720000Y-45400000D03*
X62260000Y-45400000D03*
X64800000Y-45400000D03*
X67340000Y-45400000D03*
%TD*%
D14*
%TO.C,R_LORA*%
X11000000Y-50000000D03*
X18620000Y-50000000D03*
%TD*%
D15*
%TO.C,J_PWR_IN*%
X13000000Y-8500000D03*
D16*
X13000000Y-13580000D03*
%TD*%
D14*
%TO.C,R_SDA*%
X41000000Y-55000000D03*
X48620000Y-55000000D03*
%TD*%
%TO.C,R_M0*%
X5000000Y-42000000D03*
X12620000Y-42000000D03*
%TD*%
D12*
%TO.C,J_USB_PWR*%
X5000000Y-15000000D03*
D13*
X5000000Y-17540000D03*
%TD*%
D17*
%TO.C,C1*%
X22000000Y-12500000D03*
D14*
X24500000Y-12500000D03*
%TD*%
D12*
%TO.C,U_ESP_L*%
X14000000Y-20000000D03*
D13*
X16540000Y-20000000D03*
X19080000Y-20000000D03*
X21620000Y-20000000D03*
X24160000Y-20000000D03*
X26700000Y-20000000D03*
X29240000Y-20000000D03*
X31780000Y-20000000D03*
X34320000Y-20000000D03*
X36860000Y-20000000D03*
X39400000Y-20000000D03*
X41940000Y-20000000D03*
X44480000Y-20000000D03*
X47020000Y-20000000D03*
X49560000Y-20000000D03*
X52100000Y-20000000D03*
X54640000Y-20000000D03*
X57180000Y-20000000D03*
X59720000Y-20000000D03*
X62260000Y-20000000D03*
X64800000Y-20000000D03*
X67340000Y-20000000D03*
%TD*%
D12*
%TO.C,U_BUCK*%
X35000000Y-5000000D03*
D13*
X37540000Y-5000000D03*
X40080000Y-5000000D03*
X42620000Y-5000000D03*
%TD*%
D14*
%TO.C,C3*%
X22000000Y-25000000D03*
X24500000Y-25000000D03*
%TD*%
D12*
%TO.C,J_OLED*%
X53000000Y-52500000D03*
D13*
X55540000Y-52500000D03*
X58080000Y-52500000D03*
X60620000Y-52500000D03*
%TD*%
D18*
%TO.C,D_PWR*%
X5000000Y-24000000D03*
D19*
X7540000Y-24000000D03*
%TD*%
D20*
%TO.C,H1*%
X4000000Y-4000000D03*
%TD*%
D14*
%TO.C,R_MQTT*%
X21000000Y-50000000D03*
X28620000Y-50000000D03*
%TD*%
%TO.C,R_NET*%
X31000000Y-50000000D03*
X38620000Y-50000000D03*
%TD*%
%TO.C,R_SCL*%
X41000000Y-50000000D03*
X48620000Y-50000000D03*
%TD*%
D21*
%TO.C,BZ1*%
X74000000Y-10000000D03*
D22*
X66400000Y-10000000D03*
%TD*%
D20*
%TO.C,H3*%
X81000000Y-56000000D03*
%TD*%
D23*
%TO.C,D1*%
X20500000Y-5000000D03*
D24*
X30660000Y-5000000D03*
%TD*%
D20*
%TO.C,H4*%
X4000000Y-56000000D03*
%TD*%
D18*
%TO.C,D_LORA*%
X11000000Y-55000000D03*
D19*
X13540000Y-55000000D03*
%TD*%
D14*
%TO.C,R_PWR*%
X5000000Y-33000000D03*
X12620000Y-33000000D03*
%TD*%
D12*
%TO.C,J_ETH*%
X78000000Y-24000000D03*
D13*
X78000000Y-26540000D03*
X78000000Y-29080000D03*
X78000000Y-31620000D03*
X78000000Y-34160000D03*
X78000000Y-36700000D03*
X78000000Y-39240000D03*
X78000000Y-41780000D03*
%TD*%
D23*
%TO.C,D2*%
X32500000Y-12500000D03*
D24*
X42660000Y-12500000D03*
%TD*%
D20*
%TO.C,H2*%
X81000000Y-4000000D03*
%TD*%
D22*
%TO.C,SW_CFG*%
X66000000Y-52000000D03*
X72500000Y-52000000D03*
X66000000Y-56500000D03*
X72500000Y-56500000D03*
%TD*%
D18*
%TO.C,D_NET*%
X31000000Y-55000000D03*
D19*
X33540000Y-55000000D03*
%TD*%
D18*
%TO.C,D_MQTT*%
X21000000Y-55000000D03*
D19*
X23540000Y-55000000D03*
%TD*%
D12*
%TO.C,U_LORA*%
X46500000Y-5000000D03*
D13*
X49040000Y-5000000D03*
X51580000Y-5000000D03*
X54120000Y-5000000D03*
X56660000Y-5000000D03*
X59200000Y-5000000D03*
X61740000Y-5000000D03*
%TD*%
D14*
%TO.C,C2*%
X46000000Y-12500000D03*
X48500000Y-12500000D03*
%TD*%
%TO.C,C4*%
X56000000Y-12500000D03*
X58500000Y-12500000D03*
%TD*%
%LPD*%
M02*
