%TF.GenerationSoftware,KiCad,Pcbnew,9.0.7*%
%TF.CreationDate,2026-09-28T10:54:30-03:00*%
%TF.ProjectId,amemiya_gateway,616d656d-6979-4615-9f67-617465776179,rev?*%
%TF.SameCoordinates,Original*%
%TF.FileFunction,Copper,L2,Bot*%
%TF.FilePolarity,Positive*%
%FSLAX46Y46*%
G04 Gerber Fmt 4.6, Leading zero omitted, Abs format (unit mm)*
G04 Created by KiCad (PCBNEW 9.0.7) date 2026-09-28 10:54:30*
%MOMM*%
%LPD*%
G01*
G04 APERTURE LIST*
G04 Aperture macros list*
%AMRoundRect*
0 Rectangle with rounded corners*
0 $1 Rounding radius*
0 $2 $3 $4 $5 $6 $7 $8 $9 X,Y pos of 4 corners*
0 Add a 4 corners polygon primitive as box body*
4,1,4,$2,$3,$4,$5,$6,$7,$8,$9,$2,$3,0*
0 Add four circle primitives for the rounded corners*
1,1,$1+$1,$2,$3*
1,1,$1+$1,$4,$5*
1,1,$1+$1,$6,$7*
1,1,$1+$1,$8,$9*
0 Add four rect primitives between the rounded corners*
20,1,$1+$1,$2,$3,$4,$5,0*
20,1,$1+$1,$4,$5,$6,$7,0*
20,1,$1+$1,$6,$7,$8,$9,0*
20,1,$1+$1,$8,$9,$2,$3,0*%
G04 Aperture macros list end*
%TA.AperFunction,ComponentPad*%
%ADD10R,1.700000X1.700000*%
%TD*%
%TA.AperFunction,ComponentPad*%
%ADD11C,1.700000*%
%TD*%
%TA.AperFunction,ComponentPad*%
%ADD12C,1.600000*%
%TD*%
%TA.AperFunction,ComponentPad*%
%ADD13RoundRect,0.250000X-1.050000X1.050000X-1.050000X-1.050000X1.050000X-1.050000X1.050000X1.050000X0*%
%TD*%
%TA.AperFunction,ComponentPad*%
%ADD14C,2.600000*%
%TD*%
%TA.AperFunction,ComponentPad*%
%ADD15RoundRect,0.250000X-0.550000X-0.550000X0.550000X-0.550000X0.550000X0.550000X-0.550000X0.550000X0*%
%TD*%
%TA.AperFunction,ComponentPad*%
%ADD16R,1.800000X1.800000*%
%TD*%
%TA.AperFunction,ComponentPad*%
%ADD17C,1.800000*%
%TD*%
%TA.AperFunction,ComponentPad*%
%ADD18C,6.400000*%
%TD*%
%TA.AperFunction,ComponentPad*%
%ADD19R,2.000000X2.000000*%
%TD*%
%TA.AperFunction,ComponentPad*%
%ADD20C,2.000000*%
%TD*%
%TA.AperFunction,ComponentPad*%
%ADD21RoundRect,0.249999X-0.850001X-0.850001X0.850001X-0.850001X0.850001X0.850001X-0.850001X0.850001X0*%
%TD*%
%TA.AperFunction,ComponentPad*%
%ADD22C,2.200000*%
%TD*%
%TA.AperFunction,Conductor*%
%ADD23C,0.500000*%
%TD*%
%TA.AperFunction,Conductor*%
%ADD24C,0.254000*%
%TD*%
G04 APERTURE END LIST*
D10*
%TO.P,U_ESP_R,1*%
%TO.N,GND*%
X14000000Y-45400000D03*
D11*
%TO.P,U_ESP_R,2*%
%TO.N,unconnected-(U_ESP_R-Pin_2-Pad2)*%
X16540000Y-45400000D03*
%TO.P,U_ESP_R,3*%
%TO.N,unconnected-(U_ESP_R-Pin_3-Pad3)*%
X19080000Y-45400000D03*
%TO.P,U_ESP_R,4*%
%TO.N,/BTN_CONFIG*%
X21620000Y-45400000D03*
%TO.P,U_ESP_R,5*%
%TO.N,unconnected-(U_ESP_R-Pin_5-Pad5)*%
X24160000Y-45400000D03*
%TO.P,U_ESP_R,6*%
%TO.N,/I2C_SCL*%
X26700000Y-45400000D03*
%TO.P,U_ESP_R,7*%
%TO.N,/I2C_SDA*%
X29240000Y-45400000D03*
%TO.P,U_ESP_R,8*%
%TO.N,unconnected-(U_ESP_R-Pin_8-Pad8)*%
X31780000Y-45400000D03*
%TO.P,U_ESP_R,9*%
%TO.N,unconnected-(U_ESP_R-Pin_9-Pad9)*%
X34320000Y-45400000D03*
%TO.P,U_ESP_R,10*%
%TO.N,unconnected-(U_ESP_R-Pin_10-Pad10)*%
X36860000Y-45400000D03*
%TO.P,U_ESP_R,11*%
%TO.N,unconnected-(U_ESP_R-Pin_11-Pad11)*%
X39400000Y-45400000D03*
%TO.P,U_ESP_R,12*%
%TO.N,unconnected-(U_ESP_R-Pin_12-Pad12)*%
X41940000Y-45400000D03*
%TO.P,U_ESP_R,13*%
%TO.N,unconnected-(U_ESP_R-Pin_13-Pad13)*%
X44480000Y-45400000D03*
%TO.P,U_ESP_R,14*%
%TO.N,unconnected-(U_ESP_R-Pin_14-Pad14)*%
X47020000Y-45400000D03*
%TO.P,U_ESP_R,15*%
%TO.N,unconnected-(U_ESP_R-Pin_15-Pad15)*%
X49560000Y-45400000D03*
%TO.P,U_ESP_R,16*%
%TO.N,unconnected-(U_ESP_R-Pin_16-Pad16)*%
X52100000Y-45400000D03*
%TO.P,U_ESP_R,17*%
%TO.N,unconnected-(U_ESP_R-Pin_17-Pad17)*%
X54640000Y-45400000D03*
%TO.P,U_ESP_R,18*%
%TO.N,unconnected-(U_ESP_R-Pin_18-Pad18)*%
X57180000Y-45400000D03*
%TO.P,U_ESP_R,19*%
%TO.N,/LORA_M1*%
X59720000Y-45400000D03*
%TO.P,U_ESP_R,20*%
%TO.N,/LORA_M0*%
X62260000Y-45400000D03*
%TO.P,U_ESP_R,21*%
%TO.N,GND*%
X64800000Y-45400000D03*
%TO.P,U_ESP_R,22*%
X67340000Y-45400000D03*
%TD*%
D12*
%TO.P,R_LORA,1*%
%TO.N,Net-(D_LORA-A)*%
X11000000Y-50000000D03*
%TO.P,R_LORA,2*%
%TO.N,GND*%
X18620000Y-50000000D03*
%TD*%
D13*
%TO.P,J_PWR_IN,1*%
%TO.N,Net-(D1-K)*%
X13000000Y-8500000D03*
D14*
%TO.P,J_PWR_IN,2*%
%TO.N,GND*%
X13000000Y-13580000D03*
%TD*%
D12*
%TO.P,R_SDA,1*%
%TO.N,+3V3*%
X41000000Y-55000000D03*
%TO.P,R_SDA,2*%
%TO.N,/I2C_SDA*%
X48620000Y-55000000D03*
%TD*%
%TO.P,R_M0,1*%
%TO.N,/LORA_M0*%
X5000000Y-42000000D03*
%TO.P,R_M0,2*%
%TO.N,GND*%
X12620000Y-42000000D03*
%TD*%
D10*
%TO.P,J_USB_PWR,1*%
%TO.N,Net-(D2-K)*%
X5000000Y-15000000D03*
D11*
%TO.P,J_USB_PWR,2*%
%TO.N,GND*%
X5000000Y-17540000D03*
%TD*%
D15*
%TO.P,C1,1*%
%TO.N,Net-(D1-A)*%
X22000000Y-12500000D03*
D12*
%TO.P,C1,2*%
%TO.N,GND*%
X24500000Y-12500000D03*
%TD*%
D10*
%TO.P,U_ESP_L,1*%
%TO.N,+3V3*%
X14000000Y-20000000D03*
D11*
%TO.P,U_ESP_L,2*%
X16540000Y-20000000D03*
%TO.P,U_ESP_L,3*%
%TO.N,unconnected-(U_ESP_L-Pin_3-Pad3)*%
X19080000Y-20000000D03*
%TO.P,U_ESP_L,4*%
%TO.N,/LED_LORA_RX*%
X21620000Y-20000000D03*
%TO.P,U_ESP_L,5*%
%TO.N,/LED_MQTT_OK*%
X24160000Y-20000000D03*
%TO.P,U_ESP_L,6*%
%TO.N,/LED_NET_ACT*%
X26700000Y-20000000D03*
%TO.P,U_ESP_L,7*%
%TO.N,/BUZZER*%
X29240000Y-20000000D03*
%TO.P,U_ESP_L,8*%
%TO.N,unconnected-(U_ESP_L-Pin_8-Pad8)*%
X31780000Y-20000000D03*
%TO.P,U_ESP_L,9*%
%TO.N,/LORA_RX*%
X34320000Y-20000000D03*
%TO.P,U_ESP_L,10*%
%TO.N,/LORA_TX*%
X36860000Y-20000000D03*
%TO.P,U_ESP_L,11*%
%TO.N,/LORA_AUX*%
X39400000Y-20000000D03*
%TO.P,U_ESP_L,12*%
%TO.N,unconnected-(U_ESP_L-Pin_12-Pad12)*%
X41940000Y-20000000D03*
%TO.P,U_ESP_L,13*%
%TO.N,unconnected-(U_ESP_L-Pin_13-Pad13)*%
X44480000Y-20000000D03*
%TO.P,U_ESP_L,14*%
%TO.N,unconnected-(U_ESP_L-Pin_14-Pad14)*%
X47020000Y-20000000D03*
%TO.P,U_ESP_L,15*%
%TO.N,/ETH_RST*%
X49560000Y-20000000D03*
%TO.P,U_ESP_L,16*%
%TO.N,/ETH_CS*%
X52100000Y-20000000D03*
%TO.P,U_ESP_L,17*%
%TO.N,/ETH_MOSI*%
X54640000Y-20000000D03*
%TO.P,U_ESP_L,18*%
%TO.N,/ETH_SCK*%
X57180000Y-20000000D03*
%TO.P,U_ESP_L,19*%
%TO.N,/ETH_MISO*%
X59720000Y-20000000D03*
%TO.P,U_ESP_L,20*%
%TO.N,/ETH_INT*%
X62260000Y-20000000D03*
%TO.P,U_ESP_L,21*%
%TO.N,+5V*%
X64800000Y-20000000D03*
%TO.P,U_ESP_L,22*%
%TO.N,GND*%
X67340000Y-20000000D03*
%TD*%
D10*
%TO.P,U_BUCK,1*%
%TO.N,Net-(D1-A)*%
X35000000Y-5000000D03*
D11*
%TO.P,U_BUCK,2*%
%TO.N,GND*%
X37540000Y-5000000D03*
%TO.P,U_BUCK,3*%
X40080000Y-5000000D03*
%TO.P,U_BUCK,4*%
%TO.N,+5V*%
X42620000Y-5000000D03*
%TD*%
D12*
%TO.P,C3,1*%
%TO.N,+3V3*%
X22000000Y-25000000D03*
%TO.P,C3,2*%
%TO.N,GND*%
X24500000Y-25000000D03*
%TD*%
D10*
%TO.P,J_OLED,1*%
%TO.N,GND*%
X53000000Y-52500000D03*
D11*
%TO.P,J_OLED,2*%
%TO.N,+3V3*%
X55540000Y-52500000D03*
%TO.P,J_OLED,3*%
%TO.N,/I2C_SCL*%
X58080000Y-52500000D03*
%TO.P,J_OLED,4*%
%TO.N,/I2C_SDA*%
X60620000Y-52500000D03*
%TD*%
D16*
%TO.P,D_PWR,1*%
%TO.N,+3V3*%
X5000000Y-24000000D03*
D17*
%TO.P,D_PWR,2*%
%TO.N,Net-(D_PWR-A)*%
X7540000Y-24000000D03*
%TD*%
D18*
%TO.P,H1,1*%
%TO.N,GND*%
X4000000Y-4000000D03*
%TD*%
D12*
%TO.P,R_MQTT,1*%
%TO.N,Net-(D_MQTT-A)*%
X21000000Y-50000000D03*
%TO.P,R_MQTT,2*%
%TO.N,GND*%
X28620000Y-50000000D03*
%TD*%
%TO.P,R_NET,1*%
%TO.N,Net-(D_NET-A)*%
X31000000Y-50000000D03*
%TO.P,R_NET,2*%
%TO.N,GND*%
X38620000Y-50000000D03*
%TD*%
%TO.P,R_SCL,1*%
%TO.N,+3V3*%
X41000000Y-50000000D03*
%TO.P,R_SCL,2*%
%TO.N,/I2C_SCL*%
X48620000Y-50000000D03*
%TD*%
D19*
%TO.P,BZ1,1*%
%TO.N,/BUZZER*%
X74000000Y-10000000D03*
D20*
%TO.P,BZ1,2*%
%TO.N,GND*%
X66400000Y-10000000D03*
%TD*%
D18*
%TO.P,H3,1*%
%TO.N,GND*%
X81000000Y-56000000D03*
%TD*%
D21*
%TO.P,D1,1*%
%TO.N,Net-(D1-K)*%
X20500000Y-5000000D03*
D22*
%TO.P,D1,2*%
%TO.N,Net-(D1-A)*%
X30660000Y-5000000D03*
%TD*%
D18*
%TO.P,H4,1*%
%TO.N,GND*%
X4000000Y-56000000D03*
%TD*%
D16*
%TO.P,D_LORA,1*%
%TO.N,/LED_LORA_RX*%
X11000000Y-55000000D03*
D17*
%TO.P,D_LORA,2*%
%TO.N,Net-(D_LORA-A)*%
X13540000Y-55000000D03*
%TD*%
D12*
%TO.P,R_PWR,1*%
%TO.N,Net-(D_PWR-A)*%
X5000000Y-33000000D03*
%TO.P,R_PWR,2*%
%TO.N,GND*%
X12620000Y-33000000D03*
%TD*%
D10*
%TO.P,J_ETH,1*%
%TO.N,+3V3*%
X78000000Y-24000000D03*
D11*
%TO.P,J_ETH,2*%
%TO.N,GND*%
X78000000Y-26540000D03*
%TO.P,J_ETH,3*%
%TO.N,/ETH_SCK*%
X78000000Y-29080000D03*
%TO.P,J_ETH,4*%
%TO.N,/ETH_MOSI*%
X78000000Y-31620000D03*
%TO.P,J_ETH,5*%
%TO.N,/ETH_MISO*%
X78000000Y-34160000D03*
%TO.P,J_ETH,6*%
%TO.N,/ETH_CS*%
X78000000Y-36700000D03*
%TO.P,J_ETH,7*%
%TO.N,/ETH_INT*%
X78000000Y-39240000D03*
%TO.P,J_ETH,8*%
%TO.N,/ETH_RST*%
X78000000Y-41780000D03*
%TD*%
D21*
%TO.P,D2,1*%
%TO.N,Net-(D2-K)*%
X32500000Y-12500000D03*
D22*
%TO.P,D2,2*%
%TO.N,+5V*%
X42660000Y-12500000D03*
%TD*%
D18*
%TO.P,H2,1*%
%TO.N,GND*%
X81000000Y-4000000D03*
%TD*%
D20*
%TO.P,SW_CFG,1*%
%TO.N,/BTN_CONFIG*%
X66000000Y-52000000D03*
X72500000Y-52000000D03*
%TO.P,SW_CFG,2*%
%TO.N,GND*%
X66000000Y-56500000D03*
X72500000Y-56500000D03*
%TD*%
D16*
%TO.P,D_NET,1*%
%TO.N,/LED_NET_ACT*%
X31000000Y-55000000D03*
D17*
%TO.P,D_NET,2*%
%TO.N,Net-(D_NET-A)*%
X33540000Y-55000000D03*
%TD*%
D16*
%TO.P,D_MQTT,1*%
%TO.N,/LED_MQTT_OK*%
X21000000Y-55000000D03*
D17*
%TO.P,D_MQTT,2*%
%TO.N,Net-(D_MQTT-A)*%
X23540000Y-55000000D03*
%TD*%
D10*
%TO.P,U_LORA,1*%
%TO.N,/LORA_M0*%
X46500000Y-5000000D03*
D11*
%TO.P,U_LORA,2*%
%TO.N,/LORA_M1*%
X49040000Y-5000000D03*
%TO.P,U_LORA,3*%
%TO.N,/LORA_TX*%
X51580000Y-5000000D03*
%TO.P,U_LORA,4*%
%TO.N,/LORA_RX*%
X54120000Y-5000000D03*
%TO.P,U_LORA,5*%
%TO.N,/LORA_AUX*%
X56660000Y-5000000D03*
%TO.P,U_LORA,6*%
%TO.N,+5V*%
X59200000Y-5000000D03*
%TO.P,U_LORA,7*%
%TO.N,GND*%
X61740000Y-5000000D03*
%TD*%
D12*
%TO.P,C2,1*%
%TO.N,+5V*%
X46000000Y-12500000D03*
%TO.P,C2,2*%
%TO.N,GND*%
X48500000Y-12500000D03*
%TD*%
%TO.P,C4,1*%
%TO.N,+5V*%
X56000000Y-12500000D03*
%TO.P,C4,2*%
%TO.N,GND*%
X58500000Y-12500000D03*
%TD*%
D23*
%TO.N,+3V3*%
X61072600Y-58032600D02*
X66602500Y-58032600D01*
X79374900Y-42957900D02*
X79374900Y-25374900D01*
X70800900Y-53834200D02*
X70800900Y-51531900D01*
X70800900Y-51531900D02*
X79374900Y-42957900D01*
X55540000Y-52500000D02*
X61072600Y-58032600D01*
X66602500Y-58032600D02*
X70800900Y-53834200D01*
X79374900Y-25374900D02*
X78000000Y-24000000D01*
X41000000Y-50000000D02*
X41000000Y-55000000D01*
%TO.N,+5V*%
X60008300Y-15208300D02*
X59298900Y-15208300D01*
X56787500Y-12500000D02*
X56787500Y-10406700D01*
X56787500Y-12696900D02*
X56787500Y-12500000D01*
X59298900Y-15208300D02*
X56787500Y-12696900D01*
X56787500Y-10406700D02*
X59200000Y-7994200D01*
X56787500Y-12500000D02*
X56000000Y-12500000D01*
X59200000Y-7994200D02*
X59200000Y-5000000D01*
X64800000Y-20000000D02*
X60008300Y-15208300D01*
D24*
%TO.N,/ETH_INT*%
X62260000Y-20000000D02*
X62260000Y-23500000D01*
X62260000Y-23500000D02*
X78000000Y-39240000D01*
%TO.N,/ETH_RST*%
X49560000Y-20000000D02*
X71340000Y-41780000D01*
X71340000Y-41780000D02*
X78000000Y-41780000D01*
%TO.N,/LED_LORA_RX*%
X11000000Y-53771300D02*
X9833300Y-52604600D01*
X9833300Y-52604600D02*
X9833300Y-49544900D01*
X9833300Y-49544900D02*
X11271300Y-48106900D01*
X11271300Y-48106900D02*
X15500100Y-48106900D01*
X17718700Y-23901300D02*
X21620000Y-20000000D01*
X11000000Y-55000000D02*
X11000000Y-53771300D01*
X17718700Y-45888300D02*
X17718700Y-23901300D01*
X15500100Y-48106900D02*
X17718700Y-45888300D01*
%TO.N,/LED_MQTT_OK*%
X22817900Y-51953400D02*
X22817900Y-42608400D01*
X21000000Y-55000000D02*
X21000000Y-53771300D01*
X20785000Y-40575500D02*
X20785000Y-23375000D01*
X20785000Y-23375000D02*
X24160000Y-20000000D01*
X21000000Y-53771300D02*
X22817900Y-51953400D01*
X22817900Y-42608400D02*
X20785000Y-40575500D01*
%TO.N,/LED_NET_ACT*%
X27893900Y-48826100D02*
X27423600Y-49296400D01*
X31000000Y-55000000D02*
X31000000Y-53771300D01*
X27423600Y-50502100D02*
X30692800Y-53771300D01*
X27893900Y-21193900D02*
X27893900Y-48826100D01*
X26700000Y-20000000D02*
X27893900Y-21193900D01*
X30692800Y-53771300D02*
X31000000Y-53771300D01*
X27423600Y-49296400D02*
X27423600Y-50502100D01*
%TO.N,/LORA_AUX*%
X47250000Y-13008200D02*
X47250000Y-12026100D01*
X54878800Y-6781200D02*
X56660000Y-5000000D01*
X39400000Y-20000000D02*
X40258200Y-20000000D01*
X52494900Y-6781200D02*
X54878800Y-6781200D01*
X47250000Y-12026100D02*
X52494900Y-6781200D01*
X40258200Y-20000000D02*
X47250000Y-13008200D01*
%TO.N,/LORA_M1*%
X56722600Y-3324200D02*
X50715800Y-3324200D01*
X48377700Y-34057700D02*
X48377700Y-15182300D01*
X57894700Y-4496300D02*
X56722600Y-3324200D01*
X50715800Y-3324200D02*
X49040000Y-5000000D01*
X57894700Y-5665300D02*
X57894700Y-4496300D01*
X48377700Y-15182300D02*
X57894700Y-5665300D01*
X59720000Y-45400000D02*
X48377700Y-34057700D01*
%TO.N,/LORA_RX*%
X34320000Y-20000000D02*
X34320000Y-18691900D01*
X50401300Y-5305700D02*
X50401300Y-4483500D01*
X34320000Y-18691900D02*
X44012300Y-8999600D01*
X50401300Y-4483500D02*
X51103200Y-3781600D01*
X46707400Y-8999600D02*
X50401300Y-5305700D01*
X51103200Y-3781600D02*
X52901600Y-3781600D01*
X44012300Y-8999600D02*
X46707400Y-8999600D01*
X52901600Y-3781600D02*
X54120000Y-5000000D01*
%TO.N,/LORA_TX*%
X44821300Y-11758700D02*
X51580000Y-5000000D01*
X37251300Y-20000000D02*
X44821300Y-12430000D01*
X44821300Y-12430000D02*
X44821300Y-11758700D01*
X36860000Y-20000000D02*
X37251300Y-20000000D01*
D23*
%TO.N,GND*%
X62131000Y-51115300D02*
X62131000Y-48069000D01*
X67340000Y-20000000D02*
X67340000Y-10940000D01*
X67340000Y-10940000D02*
X74280000Y-4000000D01*
X62131000Y-52631000D02*
X62131000Y-51115300D01*
X12620000Y-42000000D02*
X12648300Y-42028300D01*
X4000000Y-54048300D02*
X4000000Y-56000000D01*
X29938600Y-48681400D02*
X37301400Y-48681400D01*
X14000000Y-45400000D02*
X12648300Y-45400000D01*
X67340000Y-10940000D02*
X66400000Y-10000000D01*
X12620000Y-33000000D02*
X12620000Y-42000000D01*
X37540000Y-5000000D02*
X33693800Y-8846200D01*
X37301400Y-48681400D02*
X38620000Y-50000000D01*
X12648300Y-42028300D02*
X12648300Y-45400000D01*
X4000000Y-4000000D02*
X13000000Y-13000000D01*
X12620000Y-17540000D02*
X12620000Y-33000000D01*
X12620000Y-13960000D02*
X12620000Y-17540000D01*
X33693800Y-8846200D02*
X28153800Y-8846200D01*
X28620000Y-50000000D02*
X29938600Y-48681400D01*
X74280000Y-4000000D02*
X81000000Y-4000000D01*
X53000000Y-52500000D02*
X54384700Y-51115300D01*
X28153800Y-8846200D02*
X24500000Y-12500000D01*
X12648300Y-45400000D02*
X4000000Y-54048300D01*
X62131000Y-48069000D02*
X64800000Y-45400000D01*
X13000000Y-13000000D02*
X13000000Y-13580000D01*
X66000000Y-56500000D02*
X62131000Y-52631000D01*
X54384700Y-51115300D02*
X62131000Y-51115300D01*
X12620000Y-17540000D02*
X5000000Y-17540000D01*
X13000000Y-13580000D02*
X12620000Y-13960000D01*
%TO.N,Net-(D1-A)*%
X29500000Y-5000000D02*
X30660000Y-5000000D01*
X22000000Y-12500000D02*
X29500000Y-5000000D01*
D24*
%TO.N,Net-(D_LORA-A)*%
X13540000Y-52540000D02*
X11000000Y-50000000D01*
X13540000Y-55000000D02*
X13540000Y-52540000D01*
%TO.N,Net-(D_NET-A)*%
X33540000Y-52540000D02*
X31000000Y-50000000D01*
X33540000Y-55000000D02*
X33540000Y-52540000D01*
%TO.N,Net-(D_PWR-A)*%
X7540000Y-30460000D02*
X5000000Y-33000000D01*
X7540000Y-24000000D02*
X7540000Y-30460000D01*
%TD*%
%TA.AperFunction,Conductor*%
%TO.N,GND*%
G36*
X84458691Y-519407D02*
G01*
X84494655Y-568907D01*
X84499500Y-599500D01*
X84499500Y-59400500D01*
X84480593Y-59458691D01*
X84431093Y-59494655D01*
X84400500Y-59499500D01*
X599500Y-59499500D01*
X541309Y-59480593D01*
X505345Y-59431093D01*
X500500Y-59400500D01*
X500500Y-49495201D01*
X9455800Y-49495201D01*
X9455800Y-52554901D01*
X9455800Y-52654299D01*
X9478060Y-52737373D01*
X9481527Y-52750312D01*
X9499491Y-52781427D01*
X9531225Y-52836390D01*
X9961003Y-53266168D01*
X10375331Y-53680496D01*
X10403108Y-53735013D01*
X10393537Y-53795445D01*
X10350272Y-53838710D01*
X10305327Y-53849500D01*
X10075326Y-53849500D01*
X10075325Y-53849500D01*
X10075315Y-53849501D01*
X10002263Y-53864033D01*
X10002257Y-53864035D01*
X9919400Y-53919397D01*
X9919397Y-53919400D01*
X9864035Y-54002257D01*
X9864033Y-54002263D01*
X9849501Y-54075315D01*
X9849500Y-54075327D01*
X9849500Y-55924672D01*
X9849501Y-55924684D01*
X9864033Y-55997736D01*
X9864035Y-55997742D01*
X9919397Y-56080599D01*
X9919399Y-56080601D01*
X10002260Y-56135966D01*
X10057808Y-56147015D01*
X10075315Y-56150498D01*
X10075320Y-56150498D01*
X10075326Y-56150500D01*
X10075327Y-56150500D01*
X11924673Y-56150500D01*
X11924674Y-56150500D01*
X11997740Y-56135966D01*
X12080601Y-56080601D01*
X12135966Y-55997740D01*
X12150500Y-55924674D01*
X12150500Y-54075326D01*
X12149253Y-54069059D01*
X12145929Y-54052345D01*
X12135966Y-54002260D01*
X12090216Y-53933789D01*
X12080602Y-53919400D01*
X12080599Y-53919397D01*
X11997742Y-53864035D01*
X11997740Y-53864034D01*
X11997737Y-53864033D01*
X11997736Y-53864033D01*
X11924684Y-53849501D01*
X11924674Y-53849500D01*
X11924673Y-53849500D01*
X11476500Y-53849500D01*
X11418309Y-53830593D01*
X11382345Y-53781093D01*
X11377500Y-53750500D01*
X11377500Y-53721601D01*
X11351774Y-53625591D01*
X11351774Y-53625589D01*
X11302078Y-53539514D01*
X11302077Y-53539513D01*
X11302076Y-53539512D01*
X11302075Y-53539510D01*
X10239796Y-52477231D01*
X10212019Y-52422714D01*
X10210800Y-52407227D01*
X10210800Y-50921315D01*
X10229707Y-50863124D01*
X10279207Y-50827160D01*
X10340393Y-50827160D01*
X10364797Y-50838997D01*
X10502402Y-50930941D01*
X10693580Y-51010130D01*
X10896535Y-51050500D01*
X10896536Y-51050500D01*
X11103464Y-51050500D01*
X11103465Y-51050500D01*
X11306420Y-51010130D01*
X11365403Y-50985697D01*
X11426400Y-50980897D01*
X11473293Y-51007158D01*
X13133504Y-52667369D01*
X13161281Y-52721886D01*
X13162500Y-52737373D01*
X13162500Y-53841071D01*
X13143593Y-53899262D01*
X13101406Y-53932527D01*
X13098370Y-53933785D01*
X13098364Y-53933787D01*
X13098361Y-53933789D01*
X13067527Y-53949500D01*
X12937008Y-54016002D01*
X12863983Y-54069058D01*
X12790499Y-54122447D01*
X12662447Y-54250499D01*
X12609225Y-54323752D01*
X12556002Y-54397008D01*
X12473788Y-54558362D01*
X12417828Y-54730593D01*
X12389500Y-54909450D01*
X12389500Y-55090549D01*
X12417828Y-55269406D01*
X12473788Y-55441637D01*
X12529830Y-55551626D01*
X12556004Y-55602994D01*
X12662447Y-55749501D01*
X12790499Y-55877553D01*
X12937006Y-55983996D01*
X13098361Y-56066211D01*
X13270591Y-56122171D01*
X13342136Y-56133502D01*
X13449451Y-56150500D01*
X13449454Y-56150500D01*
X13630549Y-56150500D01*
X13722323Y-56135964D01*
X13809409Y-56122171D01*
X13981639Y-56066211D01*
X14142994Y-55983996D01*
X14289501Y-55877553D01*
X14417553Y-55749501D01*
X14523996Y-55602994D01*
X14606211Y-55441639D01*
X14662171Y-55269409D01*
X14688454Y-55103465D01*
X14690500Y-55090549D01*
X14690500Y-54909450D01*
X14662171Y-54730593D01*
X14662171Y-54730591D01*
X14606211Y-54558361D01*
X14523996Y-54397006D01*
X14417553Y-54250499D01*
X14289501Y-54122447D01*
X14224646Y-54075327D01*
X19849500Y-54075327D01*
X19849500Y-55924672D01*
X19849501Y-55924684D01*
X19864033Y-55997736D01*
X19864035Y-55997742D01*
X19919397Y-56080599D01*
X19919399Y-56080601D01*
X20002260Y-56135966D01*
X20057808Y-56147015D01*
X20075315Y-56150498D01*
X20075320Y-56150498D01*
X20075326Y-56150500D01*
X20075327Y-56150500D01*
X21924673Y-56150500D01*
X21924674Y-56150500D01*
X21997740Y-56135966D01*
X22080601Y-56080601D01*
X22135966Y-55997740D01*
X22150500Y-55924674D01*
X22150500Y-54909450D01*
X22389500Y-54909450D01*
X22389500Y-55090549D01*
X22417828Y-55269406D01*
X22473788Y-55441637D01*
X22529830Y-55551626D01*
X22556004Y-55602994D01*
X22662447Y-55749501D01*
X22790499Y-55877553D01*
X22937006Y-55983996D01*
X23098361Y-56066211D01*
X23270591Y-56122171D01*
X23342136Y-56133502D01*
X23449451Y-56150500D01*
X23449454Y-56150500D01*
X23630549Y-56150500D01*
X23722323Y-56135964D01*
X23809409Y-56122171D01*
X23981639Y-56066211D01*
X24142994Y-55983996D01*
X24289501Y-55877553D01*
X24417553Y-55749501D01*
X24523996Y-55602994D01*
X24606211Y-55441639D01*
X24662171Y-55269409D01*
X24688454Y-55103465D01*
X24690500Y-55090549D01*
X24690500Y-54909450D01*
X24662171Y-54730593D01*
X24662171Y-54730591D01*
X24606211Y-54558361D01*
X24523996Y-54397006D01*
X24417553Y-54250499D01*
X24289501Y-54122447D01*
X24142994Y-54016004D01*
X24142993Y-54016003D01*
X24142991Y-54016002D01*
X23981637Y-53933788D01*
X23809406Y-53877828D01*
X23630549Y-53849500D01*
X23630546Y-53849500D01*
X23449454Y-53849500D01*
X23449451Y-53849500D01*
X23270593Y-53877828D01*
X23098362Y-53933788D01*
X22937008Y-54016002D01*
X22863983Y-54069058D01*
X22790499Y-54122447D01*
X22662447Y-54250499D01*
X22609225Y-54323752D01*
X22556002Y-54397008D01*
X22473788Y-54558362D01*
X22417828Y-54730593D01*
X22389500Y-54909450D01*
X22150500Y-54909450D01*
X22150500Y-54075326D01*
X22149253Y-54069059D01*
X22145929Y-54052345D01*
X22135966Y-54002260D01*
X22090216Y-53933789D01*
X22080602Y-53919400D01*
X22080599Y-53919397D01*
X21997742Y-53864035D01*
X21997740Y-53864034D01*
X21997737Y-53864033D01*
X21997736Y-53864033D01*
X21924684Y-53849501D01*
X21924674Y-53849500D01*
X21924673Y-53849500D01*
X21694673Y-53849500D01*
X21636482Y-53830593D01*
X21600518Y-53781093D01*
X21600518Y-53719907D01*
X21624669Y-53680496D01*
X21980806Y-53324359D01*
X23119975Y-52185190D01*
X23169674Y-52099110D01*
X23195400Y-52003099D01*
X23195400Y-51903701D01*
X23195400Y-46230749D01*
X23214307Y-46172558D01*
X23263807Y-46136594D01*
X23324993Y-46136594D01*
X23364401Y-46160743D01*
X23443072Y-46239414D01*
X23583212Y-46341232D01*
X23737555Y-46419873D01*
X23737557Y-46419873D01*
X23737558Y-46419874D01*
X23737561Y-46419876D01*
X23902293Y-46473401D01*
X23902297Y-46473402D01*
X24073386Y-46500500D01*
X24073389Y-46500500D01*
X24246614Y-46500500D01*
X24417702Y-46473402D01*
X24417706Y-46473401D01*
X24582438Y-46419876D01*
X24582440Y-46419874D01*
X24582445Y-46419873D01*
X24736788Y-46341232D01*
X24876928Y-46239414D01*
X24999414Y-46116928D01*
X25101232Y-45976788D01*
X25179873Y-45822445D01*
X25179874Y-45822440D01*
X25179876Y-45822438D01*
X25233401Y-45657706D01*
X25233402Y-45657702D01*
X25260500Y-45486614D01*
X25260500Y-45313385D01*
X25233402Y-45142297D01*
X25233401Y-45142293D01*
X25179876Y-44977561D01*
X25179874Y-44977558D01*
X25179873Y-44977557D01*
X25179873Y-44977555D01*
X25101232Y-44823212D01*
X24999414Y-44683072D01*
X24876928Y-44560586D01*
X24736788Y-44458768D01*
X24736787Y-44458767D01*
X24736785Y-44458766D01*
X24582441Y-44380125D01*
X24582438Y-44380123D01*
X24417706Y-44326598D01*
X24417702Y-44326597D01*
X24246614Y-44299500D01*
X24246611Y-44299500D01*
X24073389Y-44299500D01*
X24073386Y-44299500D01*
X23902297Y-44326597D01*
X23902293Y-44326598D01*
X23737561Y-44380123D01*
X23737558Y-44380125D01*
X23583214Y-44458766D01*
X23477436Y-44535619D01*
X23443072Y-44560586D01*
X23364401Y-44639256D01*
X23309887Y-44667032D01*
X23249455Y-44657461D01*
X23206190Y-44614196D01*
X23195400Y-44569251D01*
X23195400Y-42558700D01*
X23195399Y-42558698D01*
X23180115Y-42501658D01*
X23180114Y-42501656D01*
X23179027Y-42497598D01*
X23169674Y-42462690D01*
X23119975Y-42376610D01*
X21191496Y-40448131D01*
X21163719Y-40393614D01*
X21162500Y-40378127D01*
X21162500Y-25887139D01*
X21181407Y-25828948D01*
X21230907Y-25792984D01*
X21292093Y-25792984D01*
X21325917Y-25813711D01*
X21326588Y-25812894D01*
X21330342Y-25815975D01*
X21330345Y-25815977D01*
X21502402Y-25930941D01*
X21693580Y-26010130D01*
X21896535Y-26050500D01*
X21896536Y-26050500D01*
X22103464Y-26050500D01*
X22103465Y-26050500D01*
X22306420Y-26010130D01*
X22497598Y-25930941D01*
X22669655Y-25815977D01*
X22815977Y-25669655D01*
X22930941Y-25497598D01*
X23010130Y-25306420D01*
X23050500Y-25103465D01*
X23050500Y-24901506D01*
X23500000Y-24901506D01*
X23500000Y-25098493D01*
X23538429Y-25291688D01*
X23538429Y-25291690D01*
X23613809Y-25473675D01*
X23694070Y-25593795D01*
X24129532Y-25158332D01*
X24179920Y-25245606D01*
X24254394Y-25320080D01*
X24341665Y-25370465D01*
X23906203Y-25805928D01*
X24026314Y-25886185D01*
X24026326Y-25886191D01*
X24208310Y-25961570D01*
X24401506Y-25999999D01*
X24401510Y-26000000D01*
X24598490Y-26000000D01*
X24598493Y-25999999D01*
X24791688Y-25961570D01*
X24791690Y-25961570D01*
X24973675Y-25886190D01*
X25093795Y-25805928D01*
X24658333Y-25370466D01*
X24745606Y-25320080D01*
X24820080Y-25245606D01*
X24870466Y-25158333D01*
X25305928Y-25593795D01*
X25386190Y-25473675D01*
X25461570Y-25291690D01*
X25461570Y-25291688D01*
X25499999Y-25098493D01*
X25500000Y-25098490D01*
X25500000Y-24901509D01*
X25499999Y-24901506D01*
X25461570Y-24708311D01*
X25461570Y-24708309D01*
X25386191Y-24526326D01*
X25386185Y-24526314D01*
X25305928Y-24406203D01*
X24870465Y-24841665D01*
X24820080Y-24754394D01*
X24745606Y-24679920D01*
X24658332Y-24629532D01*
X25093795Y-24194070D01*
X24973675Y-24113809D01*
X24791689Y-24038429D01*
X24598493Y-24000000D01*
X24401506Y-24000000D01*
X24208311Y-24038429D01*
X24208309Y-24038429D01*
X24026324Y-24113809D01*
X23906203Y-24194070D01*
X24341666Y-24629533D01*
X24254394Y-24679920D01*
X24179920Y-24754394D01*
X24129533Y-24841666D01*
X23694070Y-24406203D01*
X23613809Y-24526324D01*
X23538429Y-24708309D01*
X23538429Y-24708311D01*
X23500000Y-24901506D01*
X23050500Y-24901506D01*
X23050500Y-24896535D01*
X23010130Y-24693580D01*
X22930941Y-24502402D01*
X22815977Y-24330345D01*
X22669655Y-24184023D01*
X22669651Y-24184020D01*
X22497597Y-24069058D01*
X22306418Y-23989869D01*
X22103467Y-23949500D01*
X22103465Y-23949500D01*
X21896535Y-23949500D01*
X21896532Y-23949500D01*
X21693581Y-23989869D01*
X21502402Y-24069058D01*
X21330342Y-24184024D01*
X21326588Y-24187106D01*
X21325585Y-24185884D01*
X21276966Y-24210645D01*
X21216536Y-24201060D01*
X21173281Y-24157786D01*
X21162500Y-24112860D01*
X21162500Y-23572372D01*
X21181407Y-23514181D01*
X21191490Y-23502374D01*
X23646682Y-21047181D01*
X23701197Y-21019406D01*
X23747277Y-21023032D01*
X23902299Y-21073402D01*
X23970735Y-21084241D01*
X24073386Y-21100500D01*
X24073389Y-21100500D01*
X24246614Y-21100500D01*
X24417702Y-21073402D01*
X24417706Y-21073401D01*
X24582438Y-21019876D01*
X24582440Y-21019874D01*
X24582445Y-21019873D01*
X24736788Y-20941232D01*
X24876928Y-20839414D01*
X24999414Y-20716928D01*
X25101232Y-20576788D01*
X25179873Y-20422445D01*
X25179874Y-20422440D01*
X25179876Y-20422438D01*
X25233401Y-20257706D01*
X25233402Y-20257702D01*
X25260500Y-20086614D01*
X25260500Y-19913385D01*
X25599500Y-19913385D01*
X25599500Y-20086614D01*
X25626597Y-20257702D01*
X25626598Y-20257706D01*
X25680123Y-20422438D01*
X25680125Y-20422441D01*
X25726428Y-20513318D01*
X25758768Y-20576788D01*
X25860586Y-20716928D01*
X25983072Y-20839414D01*
X26123212Y-20941232D01*
X26277555Y-21019873D01*
X26277557Y-21019873D01*
X26277558Y-21019874D01*
X26277561Y-21019876D01*
X26442293Y-21073401D01*
X26442297Y-21073402D01*
X26613386Y-21100500D01*
X26613389Y-21100500D01*
X26786614Y-21100500D01*
X26957702Y-21073402D01*
X26990855Y-21062629D01*
X27112722Y-21023031D01*
X27173904Y-21023031D01*
X27213316Y-21047182D01*
X27487403Y-21321268D01*
X27515181Y-21375785D01*
X27516400Y-21391272D01*
X27516400Y-44438558D01*
X27497493Y-44496749D01*
X27447993Y-44532713D01*
X27386807Y-44532713D01*
X27359211Y-44518652D01*
X27276788Y-44458768D01*
X27276787Y-44458767D01*
X27276785Y-44458766D01*
X27122441Y-44380125D01*
X27122438Y-44380123D01*
X26957706Y-44326598D01*
X26957702Y-44326597D01*
X26786614Y-44299500D01*
X26786611Y-44299500D01*
X26613389Y-44299500D01*
X26613386Y-44299500D01*
X26442297Y-44326597D01*
X26442293Y-44326598D01*
X26277561Y-44380123D01*
X26277558Y-44380125D01*
X26123214Y-44458766D01*
X25983073Y-44560585D01*
X25860585Y-44683073D01*
X25758766Y-44823214D01*
X25680125Y-44977558D01*
X25680123Y-44977561D01*
X25626598Y-45142293D01*
X25626597Y-45142297D01*
X25599500Y-45313385D01*
X25599500Y-45486614D01*
X25626597Y-45657702D01*
X25626598Y-45657706D01*
X25680123Y-45822438D01*
X25680125Y-45822441D01*
X25731399Y-45923074D01*
X25758768Y-45976788D01*
X25860586Y-46116928D01*
X25983072Y-46239414D01*
X26123212Y-46341232D01*
X26277555Y-46419873D01*
X26277557Y-46419873D01*
X26277558Y-46419874D01*
X26277561Y-46419876D01*
X26442293Y-46473401D01*
X26442297Y-46473402D01*
X26613386Y-46500500D01*
X26613389Y-46500500D01*
X26786614Y-46500500D01*
X26957702Y-46473402D01*
X26957706Y-46473401D01*
X27122438Y-46419876D01*
X27122440Y-46419874D01*
X27122445Y-46419873D01*
X27276788Y-46341232D01*
X27359210Y-46281348D01*
X27417399Y-46262441D01*
X27475590Y-46281348D01*
X27511554Y-46330847D01*
X27516400Y-46361441D01*
X27516400Y-48628727D01*
X27497493Y-48686918D01*
X27487404Y-48698730D01*
X27121523Y-49064611D01*
X27071826Y-49150689D01*
X27060454Y-49193124D01*
X27060455Y-49193125D01*
X27060455Y-49193126D01*
X27046100Y-49246701D01*
X27046100Y-50452401D01*
X27046100Y-50551799D01*
X27071826Y-50647810D01*
X27121525Y-50733890D01*
X28629928Y-52242293D01*
X30079321Y-53691686D01*
X30107098Y-53746203D01*
X30097527Y-53806635D01*
X30054262Y-53849900D01*
X30028634Y-53858787D01*
X30002262Y-53864033D01*
X30002257Y-53864035D01*
X29919400Y-53919397D01*
X29919397Y-53919400D01*
X29864035Y-54002257D01*
X29864033Y-54002263D01*
X29849501Y-54075315D01*
X29849500Y-54075327D01*
X29849500Y-55924672D01*
X29849501Y-55924684D01*
X29864033Y-55997736D01*
X29864035Y-55997742D01*
X29919397Y-56080599D01*
X29919399Y-56080601D01*
X30002260Y-56135966D01*
X30057808Y-56147015D01*
X30075315Y-56150498D01*
X30075320Y-56150498D01*
X30075326Y-56150500D01*
X30075327Y-56150500D01*
X31924673Y-56150500D01*
X31924674Y-56150500D01*
X31997740Y-56135966D01*
X32080601Y-56080601D01*
X32135966Y-55997740D01*
X32150500Y-55924674D01*
X32150500Y-54075326D01*
X32149253Y-54069059D01*
X32145929Y-54052345D01*
X32135966Y-54002260D01*
X32090216Y-53933789D01*
X32080602Y-53919400D01*
X32080599Y-53919397D01*
X31997742Y-53864035D01*
X31997740Y-53864034D01*
X31997737Y-53864033D01*
X31997736Y-53864033D01*
X31924684Y-53849501D01*
X31924674Y-53849500D01*
X31924673Y-53849500D01*
X31476500Y-53849500D01*
X31418309Y-53830593D01*
X31382345Y-53781093D01*
X31377500Y-53750500D01*
X31377500Y-53721601D01*
X31359890Y-53655881D01*
X31351774Y-53625591D01*
X31351772Y-53625588D01*
X31351772Y-53625586D01*
X31302078Y-53539514D01*
X31302076Y-53539512D01*
X31302075Y-53539510D01*
X31231790Y-53469225D01*
X31231787Y-53469223D01*
X31231785Y-53469221D01*
X31145712Y-53419527D01*
X31145713Y-53419527D01*
X31125420Y-53414089D01*
X31049699Y-53393800D01*
X31049698Y-53393800D01*
X30890173Y-53393800D01*
X30831982Y-53374893D01*
X30820169Y-53364804D01*
X28624369Y-51169004D01*
X28596592Y-51114487D01*
X28606163Y-51054055D01*
X28649428Y-51010790D01*
X28694373Y-51000000D01*
X28718490Y-51000000D01*
X28718493Y-50999999D01*
X28911688Y-50961570D01*
X28911690Y-50961570D01*
X29093675Y-50886190D01*
X29213795Y-50805928D01*
X28778333Y-50370466D01*
X28865606Y-50320080D01*
X28940080Y-50245606D01*
X28990466Y-50158333D01*
X29425928Y-50593795D01*
X29506190Y-50473675D01*
X29581570Y-50291690D01*
X29581570Y-50291688D01*
X29619999Y-50098493D01*
X29620000Y-50098490D01*
X29620000Y-49901508D01*
X29619010Y-49896532D01*
X29949500Y-49896532D01*
X29949500Y-50103467D01*
X29989869Y-50306418D01*
X30069058Y-50497597D01*
X30169428Y-50647812D01*
X30184023Y-50669655D01*
X30330345Y-50815977D01*
X30502402Y-50930941D01*
X30693580Y-51010130D01*
X30896535Y-51050500D01*
X30896536Y-51050500D01*
X31103464Y-51050500D01*
X31103465Y-51050500D01*
X31306420Y-51010130D01*
X31365403Y-50985697D01*
X31426400Y-50980897D01*
X31473293Y-51007158D01*
X33133504Y-52667369D01*
X33161281Y-52721886D01*
X33162500Y-52737373D01*
X33162500Y-53841071D01*
X33143593Y-53899262D01*
X33101406Y-53932527D01*
X33098370Y-53933785D01*
X33098364Y-53933787D01*
X33098361Y-53933789D01*
X33067527Y-53949500D01*
X32937008Y-54016002D01*
X32863983Y-54069058D01*
X32790499Y-54122447D01*
X32662447Y-54250499D01*
X32609225Y-54323752D01*
X32556002Y-54397008D01*
X32473788Y-54558362D01*
X32417828Y-54730593D01*
X32389500Y-54909450D01*
X32389500Y-55090549D01*
X32417828Y-55269406D01*
X32473788Y-55441637D01*
X32529830Y-55551626D01*
X32556004Y-55602994D01*
X32662447Y-55749501D01*
X32790499Y-55877553D01*
X32937006Y-55983996D01*
X33098361Y-56066211D01*
X33270591Y-56122171D01*
X33342136Y-56133502D01*
X33449451Y-56150500D01*
X33449454Y-56150500D01*
X33630549Y-56150500D01*
X33722323Y-56135964D01*
X33809409Y-56122171D01*
X33981639Y-56066211D01*
X34142994Y-55983996D01*
X34289501Y-55877553D01*
X34417553Y-55749501D01*
X34523996Y-55602994D01*
X34606211Y-55441639D01*
X34662171Y-55269409D01*
X34688454Y-55103465D01*
X34690500Y-55090549D01*
X34690500Y-54909450D01*
X34662171Y-54730593D01*
X34662171Y-54730591D01*
X34606211Y-54558361D01*
X34523996Y-54397006D01*
X34417553Y-54250499D01*
X34289501Y-54122447D01*
X34142994Y-54016004D01*
X34142993Y-54016003D01*
X34142991Y-54016002D01*
X34091701Y-53989869D01*
X33981639Y-53933789D01*
X33981633Y-53933787D01*
X33981629Y-53933785D01*
X33978594Y-53932527D01*
X33932077Y-53892779D01*
X33917500Y-53841071D01*
X33917500Y-52490301D01*
X33891774Y-52394291D01*
X33855175Y-52330900D01*
X33842075Y-52308209D01*
X32007157Y-50473292D01*
X31979381Y-50418776D01*
X31985698Y-50365403D01*
X31993845Y-50345735D01*
X32010130Y-50306420D01*
X32050500Y-50103465D01*
X32050500Y-49901506D01*
X37620000Y-49901506D01*
X37620000Y-50098493D01*
X37658429Y-50291688D01*
X37658429Y-50291690D01*
X37733809Y-50473675D01*
X37814070Y-50593795D01*
X38249532Y-50158332D01*
X38299920Y-50245606D01*
X38374394Y-50320080D01*
X38461665Y-50370465D01*
X38026203Y-50805928D01*
X38146314Y-50886185D01*
X38146326Y-50886191D01*
X38328310Y-50961570D01*
X38521506Y-50999999D01*
X38521510Y-51000000D01*
X38718490Y-51000000D01*
X38718493Y-50999999D01*
X38911688Y-50961570D01*
X38911690Y-50961570D01*
X39093675Y-50886190D01*
X39213795Y-50805928D01*
X38778333Y-50370466D01*
X38865606Y-50320080D01*
X38940080Y-50245606D01*
X38990466Y-50158333D01*
X39425928Y-50593795D01*
X39506190Y-50473675D01*
X39581570Y-50291690D01*
X39581570Y-50291688D01*
X39619999Y-50098493D01*
X39620000Y-50098490D01*
X39620000Y-49901508D01*
X39619010Y-49896532D01*
X39949500Y-49896532D01*
X39949500Y-50103467D01*
X39989869Y-50306418D01*
X40069058Y-50497597D01*
X40169428Y-50647812D01*
X40184023Y-50669655D01*
X40330345Y-50815977D01*
X40435429Y-50886191D01*
X40455501Y-50899602D01*
X40493381Y-50947652D01*
X40499500Y-50981918D01*
X40499500Y-54018080D01*
X40480593Y-54076271D01*
X40455502Y-54100395D01*
X40330349Y-54184019D01*
X40184020Y-54330348D01*
X40069058Y-54502402D01*
X39989869Y-54693581D01*
X39949500Y-54896532D01*
X39949500Y-55103467D01*
X39989869Y-55306418D01*
X40069058Y-55497597D01*
X40139480Y-55602991D01*
X40184023Y-55669655D01*
X40330345Y-55815977D01*
X40502402Y-55930941D01*
X40693580Y-56010130D01*
X40896535Y-56050500D01*
X40896536Y-56050500D01*
X41103464Y-56050500D01*
X41103465Y-56050500D01*
X41306420Y-56010130D01*
X41497598Y-55930941D01*
X41669655Y-55815977D01*
X41815977Y-55669655D01*
X41930941Y-55497598D01*
X42010130Y-55306420D01*
X42050500Y-55103465D01*
X42050500Y-54896535D01*
X42050499Y-54896532D01*
X47569500Y-54896532D01*
X47569500Y-55103467D01*
X47609869Y-55306418D01*
X47689058Y-55497597D01*
X47759480Y-55602991D01*
X47804023Y-55669655D01*
X47950345Y-55815977D01*
X48122402Y-55930941D01*
X48313580Y-56010130D01*
X48516535Y-56050500D01*
X48516536Y-56050500D01*
X48723464Y-56050500D01*
X48723465Y-56050500D01*
X48926420Y-56010130D01*
X49117598Y-55930941D01*
X49289655Y-55815977D01*
X49435977Y-55669655D01*
X49550941Y-55497598D01*
X49630130Y-55306420D01*
X49670500Y-55103465D01*
X49670500Y-54896535D01*
X49630130Y-54693580D01*
X49550941Y-54502402D01*
X49435977Y-54330345D01*
X49289655Y-54184023D01*
X49289651Y-54184020D01*
X49117597Y-54069058D01*
X48926418Y-53989869D01*
X48723467Y-53949500D01*
X48723465Y-53949500D01*
X48516535Y-53949500D01*
X48516532Y-53949500D01*
X48313581Y-53989869D01*
X48122402Y-54069058D01*
X47950348Y-54184020D01*
X47804020Y-54330348D01*
X47689058Y-54502402D01*
X47609869Y-54693581D01*
X47569500Y-54896532D01*
X42050499Y-54896532D01*
X42010130Y-54693580D01*
X41930941Y-54502402D01*
X41815977Y-54330345D01*
X41669655Y-54184023D01*
X41669651Y-54184020D01*
X41669650Y-54184019D01*
X41544498Y-54100395D01*
X41506619Y-54052345D01*
X41500500Y-54018080D01*
X41500500Y-51630299D01*
X51950000Y-51630299D01*
X51950000Y-52349999D01*
X51950001Y-52350000D01*
X52522555Y-52350000D01*
X52500000Y-52434174D01*
X52500000Y-52565826D01*
X52522555Y-52650000D01*
X51950001Y-52650000D01*
X51950000Y-52650001D01*
X51950000Y-53369700D01*
X51961603Y-53428036D01*
X52005806Y-53494189D01*
X52005810Y-53494193D01*
X52071963Y-53538396D01*
X52130299Y-53549999D01*
X52130303Y-53550000D01*
X52849999Y-53550000D01*
X52850000Y-53549999D01*
X52850000Y-52977445D01*
X52934174Y-53000000D01*
X53065826Y-53000000D01*
X53150000Y-52977445D01*
X53150000Y-53549999D01*
X53150001Y-53550000D01*
X53869697Y-53550000D01*
X53869700Y-53549999D01*
X53928036Y-53538396D01*
X53994189Y-53494193D01*
X53994193Y-53494189D01*
X54038396Y-53428036D01*
X54049999Y-53369700D01*
X54050000Y-53369697D01*
X54050000Y-52650001D01*
X54049999Y-52650000D01*
X53477445Y-52650000D01*
X53500000Y-52565826D01*
X53500000Y-52434174D01*
X53477445Y-52350000D01*
X54049999Y-52350000D01*
X54050000Y-52349999D01*
X54050000Y-51630302D01*
X54049999Y-51630299D01*
X54038396Y-51571963D01*
X53994193Y-51505810D01*
X53994189Y-51505806D01*
X53928036Y-51461603D01*
X53869700Y-51450000D01*
X53150001Y-51450000D01*
X53150000Y-51450001D01*
X53150000Y-52022554D01*
X53065826Y-52000000D01*
X52934174Y-52000000D01*
X52850000Y-52022554D01*
X52850000Y-51450001D01*
X52849999Y-51450000D01*
X52130299Y-51450000D01*
X52071963Y-51461603D01*
X52005810Y-51505806D01*
X52005806Y-51505810D01*
X51961603Y-51571963D01*
X51950000Y-51630299D01*
X41500500Y-51630299D01*
X41500500Y-50981918D01*
X41519407Y-50923727D01*
X41544499Y-50899602D01*
X41669655Y-50815977D01*
X41815977Y-50669655D01*
X41930941Y-50497598D01*
X42010130Y-50306420D01*
X42050500Y-50103465D01*
X42050500Y-49896535D01*
X42050499Y-49896532D01*
X47569500Y-49896532D01*
X47569500Y-50103467D01*
X47609869Y-50306418D01*
X47689058Y-50497597D01*
X47789428Y-50647812D01*
X47804023Y-50669655D01*
X47950345Y-50815977D01*
X48122402Y-50930941D01*
X48313580Y-51010130D01*
X48516535Y-51050500D01*
X48516536Y-51050500D01*
X48723464Y-51050500D01*
X48723465Y-51050500D01*
X48926420Y-51010130D01*
X49117598Y-50930941D01*
X49289655Y-50815977D01*
X49435977Y-50669655D01*
X49550941Y-50497598D01*
X49630130Y-50306420D01*
X49670500Y-50103465D01*
X49670500Y-49896535D01*
X49630130Y-49693580D01*
X49550941Y-49502402D01*
X49435977Y-49330345D01*
X49289655Y-49184023D01*
X49289651Y-49184020D01*
X49117597Y-49069058D01*
X48926418Y-48989869D01*
X48723467Y-48949500D01*
X48723465Y-48949500D01*
X48516535Y-48949500D01*
X48516532Y-48949500D01*
X48313581Y-48989869D01*
X48122402Y-49069058D01*
X47950348Y-49184020D01*
X47804020Y-49330348D01*
X47689058Y-49502402D01*
X47609869Y-49693581D01*
X47569500Y-49896532D01*
X42050499Y-49896532D01*
X42010130Y-49693580D01*
X41930941Y-49502402D01*
X41815977Y-49330345D01*
X41669655Y-49184023D01*
X41669651Y-49184020D01*
X41497597Y-49069058D01*
X41306418Y-48989869D01*
X41103467Y-48949500D01*
X41103465Y-48949500D01*
X40896535Y-48949500D01*
X40896532Y-48949500D01*
X40693581Y-48989869D01*
X40502402Y-49069058D01*
X40330348Y-49184020D01*
X40184020Y-49330348D01*
X40069058Y-49502402D01*
X39989869Y-49693581D01*
X39949500Y-49896532D01*
X39619010Y-49896532D01*
X39581570Y-49708311D01*
X39581570Y-49708309D01*
X39506191Y-49526326D01*
X39506185Y-49526314D01*
X39425928Y-49406203D01*
X38990465Y-49841665D01*
X38940080Y-49754394D01*
X38865606Y-49679920D01*
X38778332Y-49629532D01*
X39213795Y-49194070D01*
X39093675Y-49113809D01*
X38911689Y-49038429D01*
X38718493Y-49000000D01*
X38521506Y-49000000D01*
X38328311Y-49038429D01*
X38328309Y-49038429D01*
X38146324Y-49113809D01*
X38026203Y-49194070D01*
X38461666Y-49629533D01*
X38374394Y-49679920D01*
X38299920Y-49754394D01*
X38249533Y-49841666D01*
X37814070Y-49406203D01*
X37733809Y-49526324D01*
X37658429Y-49708309D01*
X37658429Y-49708311D01*
X37620000Y-49901506D01*
X32050500Y-49901506D01*
X32050500Y-49896535D01*
X32010130Y-49693580D01*
X31930941Y-49502402D01*
X31815977Y-49330345D01*
X31669655Y-49184023D01*
X31669651Y-49184020D01*
X31497597Y-49069058D01*
X31306418Y-48989869D01*
X31103467Y-48949500D01*
X31103465Y-48949500D01*
X30896535Y-48949500D01*
X30896532Y-48949500D01*
X30693581Y-48989869D01*
X30502402Y-49069058D01*
X30330348Y-49184020D01*
X30184020Y-49330348D01*
X30069058Y-49502402D01*
X29989869Y-49693581D01*
X29949500Y-49896532D01*
X29619010Y-49896532D01*
X29581570Y-49708311D01*
X29581570Y-49708309D01*
X29506191Y-49526326D01*
X29506185Y-49526314D01*
X29425928Y-49406203D01*
X28990465Y-49841665D01*
X28940080Y-49754394D01*
X28865606Y-49679920D01*
X28778333Y-49629533D01*
X29213795Y-49194070D01*
X29093675Y-49113809D01*
X28911689Y-49038429D01*
X28718493Y-49000000D01*
X28521506Y-49000000D01*
X28378311Y-49028483D01*
X28317549Y-49021291D01*
X28272620Y-48979758D01*
X28260683Y-48919748D01*
X28263368Y-48905773D01*
X28271400Y-48875799D01*
X28271400Y-48776401D01*
X28271400Y-46226749D01*
X28290307Y-46168558D01*
X28339807Y-46132594D01*
X28400993Y-46132594D01*
X28440401Y-46156743D01*
X28523072Y-46239414D01*
X28663212Y-46341232D01*
X28817555Y-46419873D01*
X28817557Y-46419873D01*
X28817558Y-46419874D01*
X28817561Y-46419876D01*
X28982293Y-46473401D01*
X28982297Y-46473402D01*
X29153386Y-46500500D01*
X29153389Y-46500500D01*
X29326614Y-46500500D01*
X29497702Y-46473402D01*
X29497706Y-46473401D01*
X29662438Y-46419876D01*
X29662440Y-46419874D01*
X29662445Y-46419873D01*
X29816788Y-46341232D01*
X29956928Y-46239414D01*
X30079414Y-46116928D01*
X30181232Y-45976788D01*
X30259873Y-45822445D01*
X30259874Y-45822440D01*
X30259876Y-45822438D01*
X30313401Y-45657706D01*
X30313402Y-45657702D01*
X30340500Y-45486614D01*
X30340500Y-45313385D01*
X30679500Y-45313385D01*
X30679500Y-45486614D01*
X30706597Y-45657702D01*
X30706598Y-45657706D01*
X30760123Y-45822438D01*
X30760125Y-45822441D01*
X30811399Y-45923074D01*
X30838768Y-45976788D01*
X30940586Y-46116928D01*
X31063072Y-46239414D01*
X31203212Y-46341232D01*
X31357555Y-46419873D01*
X31357557Y-46419873D01*
X31357558Y-46419874D01*
X31357561Y-46419876D01*
X31522293Y-46473401D01*
X31522297Y-46473402D01*
X31693386Y-46500500D01*
X31693389Y-46500500D01*
X31866614Y-46500500D01*
X32037702Y-46473402D01*
X32037706Y-46473401D01*
X32202438Y-46419876D01*
X32202440Y-46419874D01*
X32202445Y-46419873D01*
X32356788Y-46341232D01*
X32496928Y-46239414D01*
X32619414Y-46116928D01*
X32721232Y-45976788D01*
X32799873Y-45822445D01*
X32799874Y-45822440D01*
X32799876Y-45822438D01*
X32853401Y-45657706D01*
X32853402Y-45657702D01*
X32880500Y-45486614D01*
X32880500Y-45313385D01*
X33219500Y-45313385D01*
X33219500Y-45486614D01*
X33246597Y-45657702D01*
X33246598Y-45657706D01*
X33300123Y-45822438D01*
X33300125Y-45822441D01*
X33351399Y-45923074D01*
X33378768Y-45976788D01*
X33480586Y-46116928D01*
X33603072Y-46239414D01*
X33743212Y-46341232D01*
X33897555Y-46419873D01*
X33897557Y-46419873D01*
X33897558Y-46419874D01*
X33897561Y-46419876D01*
X34062293Y-46473401D01*
X34062297Y-46473402D01*
X34233386Y-46500500D01*
X34233389Y-46500500D01*
X34406614Y-46500500D01*
X34577702Y-46473402D01*
X34577706Y-46473401D01*
X34742438Y-46419876D01*
X34742440Y-46419874D01*
X34742445Y-46419873D01*
X34896788Y-46341232D01*
X35036928Y-46239414D01*
X35159414Y-46116928D01*
X35261232Y-45976788D01*
X35339873Y-45822445D01*
X35339874Y-45822440D01*
X35339876Y-45822438D01*
X35393401Y-45657706D01*
X35393402Y-45657702D01*
X35420500Y-45486614D01*
X35420500Y-45313385D01*
X35759500Y-45313385D01*
X35759500Y-45486614D01*
X35786597Y-45657702D01*
X35786598Y-45657706D01*
X35840123Y-45822438D01*
X35840125Y-45822441D01*
X35891399Y-45923074D01*
X35918768Y-45976788D01*
X36020586Y-46116928D01*
X36143072Y-46239414D01*
X36283212Y-46341232D01*
X36437555Y-46419873D01*
X36437557Y-46419873D01*
X36437558Y-46419874D01*
X36437561Y-46419876D01*
X36602293Y-46473401D01*
X36602297Y-46473402D01*
X36773386Y-46500500D01*
X36773389Y-46500500D01*
X36946614Y-46500500D01*
X37117702Y-46473402D01*
X37117706Y-46473401D01*
X37282438Y-46419876D01*
X37282440Y-46419874D01*
X37282445Y-46419873D01*
X37436788Y-46341232D01*
X37576928Y-46239414D01*
X37699414Y-46116928D01*
X37801232Y-45976788D01*
X37879873Y-45822445D01*
X37879874Y-45822440D01*
X37879876Y-45822438D01*
X37933401Y-45657706D01*
X37933402Y-45657702D01*
X37960500Y-45486614D01*
X37960500Y-45313385D01*
X38299500Y-45313385D01*
X38299500Y-45486614D01*
X38326597Y-45657702D01*
X38326598Y-45657706D01*
X38380123Y-45822438D01*
X38380125Y-45822441D01*
X38431399Y-45923074D01*
X38458768Y-45976788D01*
X38560586Y-46116928D01*
X38683072Y-46239414D01*
X38823212Y-46341232D01*
X38977555Y-46419873D01*
X38977557Y-46419873D01*
X38977558Y-46419874D01*
X38977561Y-46419876D01*
X39142293Y-46473401D01*
X39142297Y-46473402D01*
X39313386Y-46500500D01*
X39313389Y-46500500D01*
X39486614Y-46500500D01*
X39657702Y-46473402D01*
X39657706Y-46473401D01*
X39822438Y-46419876D01*
X39822440Y-46419874D01*
X39822445Y-46419873D01*
X39976788Y-46341232D01*
X40116928Y-46239414D01*
X40239414Y-46116928D01*
X40341232Y-45976788D01*
X40419873Y-45822445D01*
X40419874Y-45822440D01*
X40419876Y-45822438D01*
X40473401Y-45657706D01*
X40473402Y-45657702D01*
X40500500Y-45486614D01*
X40500500Y-45313385D01*
X40839500Y-45313385D01*
X40839500Y-45486614D01*
X40866597Y-45657702D01*
X40866598Y-45657706D01*
X40920123Y-45822438D01*
X40920125Y-45822441D01*
X40971399Y-45923074D01*
X40998768Y-45976788D01*
X41100586Y-46116928D01*
X41223072Y-46239414D01*
X41363212Y-46341232D01*
X41517555Y-46419873D01*
X41517557Y-46419873D01*
X41517558Y-46419874D01*
X41517561Y-46419876D01*
X41682293Y-46473401D01*
X41682297Y-46473402D01*
X41853386Y-46500500D01*
X41853389Y-46500500D01*
X42026614Y-46500500D01*
X42197702Y-46473402D01*
X42197706Y-46473401D01*
X42362438Y-46419876D01*
X42362440Y-46419874D01*
X42362445Y-46419873D01*
X42516788Y-46341232D01*
X42656928Y-46239414D01*
X42779414Y-46116928D01*
X42881232Y-45976788D01*
X42959873Y-45822445D01*
X42959874Y-45822440D01*
X42959876Y-45822438D01*
X43013401Y-45657706D01*
X43013402Y-45657702D01*
X43040500Y-45486614D01*
X43040500Y-45313385D01*
X43379500Y-45313385D01*
X43379500Y-45486614D01*
X43406597Y-45657702D01*
X43406598Y-45657706D01*
X43460123Y-45822438D01*
X43460125Y-45822441D01*
X43511399Y-45923074D01*
X43538768Y-45976788D01*
X43640586Y-46116928D01*
X43763072Y-46239414D01*
X43903212Y-46341232D01*
X44057555Y-46419873D01*
X44057557Y-46419873D01*
X44057558Y-46419874D01*
X44057561Y-46419876D01*
X44222293Y-46473401D01*
X44222297Y-46473402D01*
X44393386Y-46500500D01*
X44393389Y-46500500D01*
X44566614Y-46500500D01*
X44737702Y-46473402D01*
X44737706Y-46473401D01*
X44902438Y-46419876D01*
X44902440Y-46419874D01*
X44902445Y-46419873D01*
X45056788Y-46341232D01*
X45196928Y-46239414D01*
X45319414Y-46116928D01*
X45421232Y-45976788D01*
X45499873Y-45822445D01*
X45499874Y-45822440D01*
X45499876Y-45822438D01*
X45553401Y-45657706D01*
X45553402Y-45657702D01*
X45580500Y-45486614D01*
X45580500Y-45313385D01*
X45919500Y-45313385D01*
X45919500Y-45486614D01*
X45946597Y-45657702D01*
X45946598Y-45657706D01*
X46000123Y-45822438D01*
X46000125Y-45822441D01*
X46051399Y-45923074D01*
X46078768Y-45976788D01*
X46180586Y-46116928D01*
X46303072Y-46239414D01*
X46443212Y-46341232D01*
X46597555Y-46419873D01*
X46597557Y-46419873D01*
X46597558Y-46419874D01*
X46597561Y-46419876D01*
X46762293Y-46473401D01*
X46762297Y-46473402D01*
X46933386Y-46500500D01*
X46933389Y-46500500D01*
X47106614Y-46500500D01*
X47277702Y-46473402D01*
X47277706Y-46473401D01*
X47442438Y-46419876D01*
X47442440Y-46419874D01*
X47442445Y-46419873D01*
X47596788Y-46341232D01*
X47736928Y-46239414D01*
X47859414Y-46116928D01*
X47961232Y-45976788D01*
X48039873Y-45822445D01*
X48039874Y-45822440D01*
X48039876Y-45822438D01*
X48093401Y-45657706D01*
X48093402Y-45657702D01*
X48120500Y-45486614D01*
X48120500Y-45313385D01*
X48459500Y-45313385D01*
X48459500Y-45486614D01*
X48486597Y-45657702D01*
X48486598Y-45657706D01*
X48540123Y-45822438D01*
X48540125Y-45822441D01*
X48591399Y-45923074D01*
X48618768Y-45976788D01*
X48720586Y-46116928D01*
X48843072Y-46239414D01*
X48983212Y-46341232D01*
X49137555Y-46419873D01*
X49137557Y-46419873D01*
X49137558Y-46419874D01*
X49137561Y-46419876D01*
X49302293Y-46473401D01*
X49302297Y-46473402D01*
X49473386Y-46500500D01*
X49473389Y-46500500D01*
X49646614Y-46500500D01*
X49817702Y-46473402D01*
X49817706Y-46473401D01*
X49982438Y-46419876D01*
X49982440Y-46419874D01*
X49982445Y-46419873D01*
X50136788Y-46341232D01*
X50276928Y-46239414D01*
X50399414Y-46116928D01*
X50501232Y-45976788D01*
X50579873Y-45822445D01*
X50579874Y-45822440D01*
X50579876Y-45822438D01*
X50633401Y-45657706D01*
X50633402Y-45657702D01*
X50660500Y-45486614D01*
X50660500Y-45313385D01*
X50999500Y-45313385D01*
X50999500Y-45486614D01*
X51026597Y-45657702D01*
X51026598Y-45657706D01*
X51080123Y-45822438D01*
X51080125Y-45822441D01*
X51131399Y-45923074D01*
X51158768Y-45976788D01*
X51260586Y-46116928D01*
X51383072Y-46239414D01*
X51523212Y-46341232D01*
X51677555Y-46419873D01*
X51677557Y-46419873D01*
X51677558Y-46419874D01*
X51677561Y-46419876D01*
X51842293Y-46473401D01*
X51842297Y-46473402D01*
X52013386Y-46500500D01*
X52013389Y-46500500D01*
X52186614Y-46500500D01*
X52357702Y-46473402D01*
X52357706Y-46473401D01*
X52522438Y-46419876D01*
X52522440Y-46419874D01*
X52522445Y-46419873D01*
X52676788Y-46341232D01*
X52816928Y-46239414D01*
X52939414Y-46116928D01*
X53041232Y-45976788D01*
X53119873Y-45822445D01*
X53119874Y-45822440D01*
X53119876Y-45822438D01*
X53173401Y-45657706D01*
X53173402Y-45657702D01*
X53200500Y-45486614D01*
X53200500Y-45313385D01*
X53539500Y-45313385D01*
X53539500Y-45486614D01*
X53566597Y-45657702D01*
X53566598Y-45657706D01*
X53620123Y-45822438D01*
X53620125Y-45822441D01*
X53671399Y-45923074D01*
X53698768Y-45976788D01*
X53800586Y-46116928D01*
X53923072Y-46239414D01*
X54063212Y-46341232D01*
X54217555Y-46419873D01*
X54217557Y-46419873D01*
X54217558Y-46419874D01*
X54217561Y-46419876D01*
X54382293Y-46473401D01*
X54382297Y-46473402D01*
X54553386Y-46500500D01*
X54553389Y-46500500D01*
X54726614Y-46500500D01*
X54897702Y-46473402D01*
X54897706Y-46473401D01*
X55062438Y-46419876D01*
X55062440Y-46419874D01*
X55062445Y-46419873D01*
X55216788Y-46341232D01*
X55356928Y-46239414D01*
X55479414Y-46116928D01*
X55581232Y-45976788D01*
X55659873Y-45822445D01*
X55659874Y-45822440D01*
X55659876Y-45822438D01*
X55713401Y-45657706D01*
X55713402Y-45657702D01*
X55740500Y-45486614D01*
X55740500Y-45313385D01*
X56079500Y-45313385D01*
X56079500Y-45486614D01*
X56106597Y-45657702D01*
X56106598Y-45657706D01*
X56160123Y-45822438D01*
X56160125Y-45822441D01*
X56211399Y-45923074D01*
X56238768Y-45976788D01*
X56340586Y-46116928D01*
X56463072Y-46239414D01*
X56603212Y-46341232D01*
X56757555Y-46419873D01*
X56757557Y-46419873D01*
X56757558Y-46419874D01*
X56757561Y-46419876D01*
X56922293Y-46473401D01*
X56922297Y-46473402D01*
X57093386Y-46500500D01*
X57093389Y-46500500D01*
X57266614Y-46500500D01*
X57437702Y-46473402D01*
X57437706Y-46473401D01*
X57602438Y-46419876D01*
X57602440Y-46419874D01*
X57602445Y-46419873D01*
X57756788Y-46341232D01*
X57896928Y-46239414D01*
X58019414Y-46116928D01*
X58121232Y-45976788D01*
X58199873Y-45822445D01*
X58199874Y-45822440D01*
X58199876Y-45822438D01*
X58253401Y-45657706D01*
X58253402Y-45657702D01*
X58280500Y-45486614D01*
X58280500Y-45313385D01*
X58253402Y-45142297D01*
X58253401Y-45142293D01*
X58199876Y-44977561D01*
X58199874Y-44977558D01*
X58199873Y-44977557D01*
X58199873Y-44977555D01*
X58121232Y-44823212D01*
X58019414Y-44683072D01*
X57896928Y-44560586D01*
X57756788Y-44458768D01*
X57756787Y-44458767D01*
X57756785Y-44458766D01*
X57602441Y-44380125D01*
X57602438Y-44380123D01*
X57437706Y-44326598D01*
X57437702Y-44326597D01*
X57266614Y-44299500D01*
X57266611Y-44299500D01*
X57093389Y-44299500D01*
X57093386Y-44299500D01*
X56922297Y-44326597D01*
X56922293Y-44326598D01*
X56757561Y-44380123D01*
X56757558Y-44380125D01*
X56603214Y-44458766D01*
X56463073Y-44560585D01*
X56340585Y-44683073D01*
X56238766Y-44823214D01*
X56160125Y-44977558D01*
X56160123Y-44977561D01*
X56106598Y-45142293D01*
X56106597Y-45142297D01*
X56079500Y-45313385D01*
X55740500Y-45313385D01*
X55713402Y-45142297D01*
X55713401Y-45142293D01*
X55659876Y-44977561D01*
X55659874Y-44977558D01*
X55659873Y-44977557D01*
X55659873Y-44977555D01*
X55581232Y-44823212D01*
X55479414Y-44683072D01*
X55356928Y-44560586D01*
X55216788Y-44458768D01*
X55216787Y-44458767D01*
X55216785Y-44458766D01*
X55062441Y-44380125D01*
X55062438Y-44380123D01*
X54897706Y-44326598D01*
X54897702Y-44326597D01*
X54726614Y-44299500D01*
X54726611Y-44299500D01*
X54553389Y-44299500D01*
X54553386Y-44299500D01*
X54382297Y-44326597D01*
X54382293Y-44326598D01*
X54217561Y-44380123D01*
X54217558Y-44380125D01*
X54063214Y-44458766D01*
X53923073Y-44560585D01*
X53800585Y-44683073D01*
X53698766Y-44823214D01*
X53620125Y-44977558D01*
X53620123Y-44977561D01*
X53566598Y-45142293D01*
X53566597Y-45142297D01*
X53539500Y-45313385D01*
X53200500Y-45313385D01*
X53173402Y-45142297D01*
X53173401Y-45142293D01*
X53119876Y-44977561D01*
X53119874Y-44977558D01*
X53119873Y-44977557D01*
X53119873Y-44977555D01*
X53041232Y-44823212D01*
X52939414Y-44683072D01*
X52816928Y-44560586D01*
X52676788Y-44458768D01*
X52676787Y-44458767D01*
X52676785Y-44458766D01*
X52522441Y-44380125D01*
X52522438Y-44380123D01*
X52357706Y-44326598D01*
X52357702Y-44326597D01*
X52186614Y-44299500D01*
X52186611Y-44299500D01*
X52013389Y-44299500D01*
X52013386Y-44299500D01*
X51842297Y-44326597D01*
X51842293Y-44326598D01*
X51677561Y-44380123D01*
X51677558Y-44380125D01*
X51523214Y-44458766D01*
X51383073Y-44560585D01*
X51260585Y-44683073D01*
X51158766Y-44823214D01*
X51080125Y-44977558D01*
X51080123Y-44977561D01*
X51026598Y-45142293D01*
X51026597Y-45142297D01*
X50999500Y-45313385D01*
X50660500Y-45313385D01*
X50633402Y-45142297D01*
X50633401Y-45142293D01*
X50579876Y-44977561D01*
X50579874Y-44977558D01*
X50579873Y-44977557D01*
X50579873Y-44977555D01*
X50501232Y-44823212D01*
X50399414Y-44683072D01*
X50276928Y-44560586D01*
X50136788Y-44458768D01*
X50136787Y-44458767D01*
X50136785Y-44458766D01*
X49982441Y-44380125D01*
X49982438Y-44380123D01*
X49817706Y-44326598D01*
X49817702Y-44326597D01*
X49646614Y-44299500D01*
X49646611Y-44299500D01*
X49473389Y-44299500D01*
X49473386Y-44299500D01*
X49302297Y-44326597D01*
X49302293Y-44326598D01*
X49137561Y-44380123D01*
X49137558Y-44380125D01*
X48983214Y-44458766D01*
X48843073Y-44560585D01*
X48720585Y-44683073D01*
X48618766Y-44823214D01*
X48540125Y-44977558D01*
X48540123Y-44977561D01*
X48486598Y-45142293D01*
X48486597Y-45142297D01*
X48459500Y-45313385D01*
X48120500Y-45313385D01*
X48093402Y-45142297D01*
X48093401Y-45142293D01*
X48039876Y-44977561D01*
X48039874Y-44977558D01*
X48039873Y-44977557D01*
X48039873Y-44977555D01*
X47961232Y-44823212D01*
X47859414Y-44683072D01*
X47736928Y-44560586D01*
X47596788Y-44458768D01*
X47596787Y-44458767D01*
X47596785Y-44458766D01*
X47442441Y-44380125D01*
X47442438Y-44380123D01*
X47277706Y-44326598D01*
X47277702Y-44326597D01*
X47106614Y-44299500D01*
X47106611Y-44299500D01*
X46933389Y-44299500D01*
X46933386Y-44299500D01*
X46762297Y-44326597D01*
X46762293Y-44326598D01*
X46597561Y-44380123D01*
X46597558Y-44380125D01*
X46443214Y-44458766D01*
X46303073Y-44560585D01*
X46180585Y-44683073D01*
X46078766Y-44823214D01*
X46000125Y-44977558D01*
X46000123Y-44977561D01*
X45946598Y-45142293D01*
X45946597Y-45142297D01*
X45919500Y-45313385D01*
X45580500Y-45313385D01*
X45553402Y-45142297D01*
X45553401Y-45142293D01*
X45499876Y-44977561D01*
X45499874Y-44977558D01*
X45499873Y-44977557D01*
X45499873Y-44977555D01*
X45421232Y-44823212D01*
X45319414Y-44683072D01*
X45196928Y-44560586D01*
X45056788Y-44458768D01*
X45056787Y-44458767D01*
X45056785Y-44458766D01*
X44902441Y-44380125D01*
X44902438Y-44380123D01*
X44737706Y-44326598D01*
X44737702Y-44326597D01*
X44566614Y-44299500D01*
X44566611Y-44299500D01*
X44393389Y-44299500D01*
X44393386Y-44299500D01*
X44222297Y-44326597D01*
X44222293Y-44326598D01*
X44057561Y-44380123D01*
X44057558Y-44380125D01*
X43903214Y-44458766D01*
X43763073Y-44560585D01*
X43640585Y-44683073D01*
X43538766Y-44823214D01*
X43460125Y-44977558D01*
X43460123Y-44977561D01*
X43406598Y-45142293D01*
X43406597Y-45142297D01*
X43379500Y-45313385D01*
X43040500Y-45313385D01*
X43013402Y-45142297D01*
X43013401Y-45142293D01*
X42959876Y-44977561D01*
X42959874Y-44977558D01*
X42959873Y-44977557D01*
X42959873Y-44977555D01*
X42881232Y-44823212D01*
X42779414Y-44683072D01*
X42656928Y-44560586D01*
X42516788Y-44458768D01*
X42516787Y-44458767D01*
X42516785Y-44458766D01*
X42362441Y-44380125D01*
X42362438Y-44380123D01*
X42197706Y-44326598D01*
X42197702Y-44326597D01*
X42026614Y-44299500D01*
X42026611Y-44299500D01*
X41853389Y-44299500D01*
X41853386Y-44299500D01*
X41682297Y-44326597D01*
X41682293Y-44326598D01*
X41517561Y-44380123D01*
X41517558Y-44380125D01*
X41363214Y-44458766D01*
X41223073Y-44560585D01*
X41100585Y-44683073D01*
X40998766Y-44823214D01*
X40920125Y-44977558D01*
X40920123Y-44977561D01*
X40866598Y-45142293D01*
X40866597Y-45142297D01*
X40839500Y-45313385D01*
X40500500Y-45313385D01*
X40473402Y-45142297D01*
X40473401Y-45142293D01*
X40419876Y-44977561D01*
X40419874Y-44977558D01*
X40419873Y-44977557D01*
X40419873Y-44977555D01*
X40341232Y-44823212D01*
X40239414Y-44683072D01*
X40116928Y-44560586D01*
X39976788Y-44458768D01*
X39976787Y-44458767D01*
X39976785Y-44458766D01*
X39822441Y-44380125D01*
X39822438Y-44380123D01*
X39657706Y-44326598D01*
X39657702Y-44326597D01*
X39486614Y-44299500D01*
X39486611Y-44299500D01*
X39313389Y-44299500D01*
X39313386Y-44299500D01*
X39142297Y-44326597D01*
X39142293Y-44326598D01*
X38977561Y-44380123D01*
X38977558Y-44380125D01*
X38823214Y-44458766D01*
X38683073Y-44560585D01*
X38560585Y-44683073D01*
X38458766Y-44823214D01*
X38380125Y-44977558D01*
X38380123Y-44977561D01*
X38326598Y-45142293D01*
X38326597Y-45142297D01*
X38299500Y-45313385D01*
X37960500Y-45313385D01*
X37933402Y-45142297D01*
X37933401Y-45142293D01*
X37879876Y-44977561D01*
X37879874Y-44977558D01*
X37879873Y-44977557D01*
X37879873Y-44977555D01*
X37801232Y-44823212D01*
X37699414Y-44683072D01*
X37576928Y-44560586D01*
X37436788Y-44458768D01*
X37436787Y-44458767D01*
X37436785Y-44458766D01*
X37282441Y-44380125D01*
X37282438Y-44380123D01*
X37117706Y-44326598D01*
X37117702Y-44326597D01*
X36946614Y-44299500D01*
X36946611Y-44299500D01*
X36773389Y-44299500D01*
X36773386Y-44299500D01*
X36602297Y-44326597D01*
X36602293Y-44326598D01*
X36437561Y-44380123D01*
X36437558Y-44380125D01*
X36283214Y-44458766D01*
X36143073Y-44560585D01*
X36020585Y-44683073D01*
X35918766Y-44823214D01*
X35840125Y-44977558D01*
X35840123Y-44977561D01*
X35786598Y-45142293D01*
X35786597Y-45142297D01*
X35759500Y-45313385D01*
X35420500Y-45313385D01*
X35393402Y-45142297D01*
X35393401Y-45142293D01*
X35339876Y-44977561D01*
X35339874Y-44977558D01*
X35339873Y-44977557D01*
X35339873Y-44977555D01*
X35261232Y-44823212D01*
X35159414Y-44683072D01*
X35036928Y-44560586D01*
X34896788Y-44458768D01*
X34896787Y-44458767D01*
X34896785Y-44458766D01*
X34742441Y-44380125D01*
X34742438Y-44380123D01*
X34577706Y-44326598D01*
X34577702Y-44326597D01*
X34406614Y-44299500D01*
X34406611Y-44299500D01*
X34233389Y-44299500D01*
X34233386Y-44299500D01*
X34062297Y-44326597D01*
X34062293Y-44326598D01*
X33897561Y-44380123D01*
X33897558Y-44380125D01*
X33743214Y-44458766D01*
X33603073Y-44560585D01*
X33480585Y-44683073D01*
X33378766Y-44823214D01*
X33300125Y-44977558D01*
X33300123Y-44977561D01*
X33246598Y-45142293D01*
X33246597Y-45142297D01*
X33219500Y-45313385D01*
X32880500Y-45313385D01*
X32853402Y-45142297D01*
X32853401Y-45142293D01*
X32799876Y-44977561D01*
X32799874Y-44977558D01*
X32799873Y-44977557D01*
X32799873Y-44977555D01*
X32721232Y-44823212D01*
X32619414Y-44683072D01*
X32496928Y-44560586D01*
X32356788Y-44458768D01*
X32356787Y-44458767D01*
X32356785Y-44458766D01*
X32202441Y-44380125D01*
X32202438Y-44380123D01*
X32037706Y-44326598D01*
X32037702Y-44326597D01*
X31866614Y-44299500D01*
X31866611Y-44299500D01*
X31693389Y-44299500D01*
X31693386Y-44299500D01*
X31522297Y-44326597D01*
X31522293Y-44326598D01*
X31357561Y-44380123D01*
X31357558Y-44380125D01*
X31203214Y-44458766D01*
X31063073Y-44560585D01*
X30940585Y-44683073D01*
X30838766Y-44823214D01*
X30760125Y-44977558D01*
X30760123Y-44977561D01*
X30706598Y-45142293D01*
X30706597Y-45142297D01*
X30679500Y-45313385D01*
X30340500Y-45313385D01*
X30313402Y-45142297D01*
X30313401Y-45142293D01*
X30259876Y-44977561D01*
X30259874Y-44977558D01*
X30259873Y-44977557D01*
X30259873Y-44977555D01*
X30181232Y-44823212D01*
X30079414Y-44683072D01*
X29956928Y-44560586D01*
X29816788Y-44458768D01*
X29816787Y-44458767D01*
X29816785Y-44458766D01*
X29662441Y-44380125D01*
X29662438Y-44380123D01*
X29497706Y-44326598D01*
X29497702Y-44326597D01*
X29326614Y-44299500D01*
X29326611Y-44299500D01*
X29153389Y-44299500D01*
X29153386Y-44299500D01*
X28982297Y-44326597D01*
X28982293Y-44326598D01*
X28817561Y-44380123D01*
X28817558Y-44380125D01*
X28663214Y-44458766D01*
X28557436Y-44535619D01*
X28523072Y-44560586D01*
X28440401Y-44643256D01*
X28385887Y-44671032D01*
X28325455Y-44661461D01*
X28282190Y-44618196D01*
X28271400Y-44573251D01*
X28271400Y-21144202D01*
X28271400Y-21144201D01*
X28255796Y-21085966D01*
X28255796Y-21085965D01*
X28255796Y-21085964D01*
X28245675Y-21048193D01*
X28245674Y-21048192D01*
X28245674Y-21048190D01*
X28195976Y-20962110D01*
X27979011Y-20745145D01*
X27747182Y-20513315D01*
X27719405Y-20458799D01*
X27723031Y-20412724D01*
X27764527Y-20285014D01*
X27773402Y-20257702D01*
X27800500Y-20086614D01*
X27800500Y-19913385D01*
X28139500Y-19913385D01*
X28139500Y-20086614D01*
X28166597Y-20257702D01*
X28166598Y-20257706D01*
X28220123Y-20422438D01*
X28220125Y-20422441D01*
X28266428Y-20513318D01*
X28298768Y-20576788D01*
X28400586Y-20716928D01*
X28523072Y-20839414D01*
X28663212Y-20941232D01*
X28817555Y-21019873D01*
X28817557Y-21019873D01*
X28817558Y-21019874D01*
X28817561Y-21019876D01*
X28982293Y-21073401D01*
X28982297Y-21073402D01*
X29153386Y-21100500D01*
X29153389Y-21100500D01*
X29326614Y-21100500D01*
X29497702Y-21073402D01*
X29497706Y-21073401D01*
X29662438Y-21019876D01*
X29662440Y-21019874D01*
X29662445Y-21019873D01*
X29816788Y-20941232D01*
X29956928Y-20839414D01*
X30079414Y-20716928D01*
X30181232Y-20576788D01*
X30259873Y-20422445D01*
X30259874Y-20422440D01*
X30259876Y-20422438D01*
X30313401Y-20257706D01*
X30313402Y-20257702D01*
X30340500Y-20086614D01*
X30340500Y-19913385D01*
X30679500Y-19913385D01*
X30679500Y-20086614D01*
X30706597Y-20257702D01*
X30706598Y-20257706D01*
X30760123Y-20422438D01*
X30760125Y-20422441D01*
X30806428Y-20513318D01*
X30838768Y-20576788D01*
X30940586Y-20716928D01*
X31063072Y-20839414D01*
X31203212Y-20941232D01*
X31357555Y-21019873D01*
X31357557Y-21019873D01*
X31357558Y-21019874D01*
X31357561Y-21019876D01*
X31522293Y-21073401D01*
X31522297Y-21073402D01*
X31693386Y-21100500D01*
X31693389Y-21100500D01*
X31866614Y-21100500D01*
X32037702Y-21073402D01*
X32037706Y-21073401D01*
X32202438Y-21019876D01*
X32202440Y-21019874D01*
X32202445Y-21019873D01*
X32356788Y-20941232D01*
X32496928Y-20839414D01*
X32619414Y-20716928D01*
X32721232Y-20576788D01*
X32799873Y-20422445D01*
X32799874Y-20422440D01*
X32799876Y-20422438D01*
X32853401Y-20257706D01*
X32853402Y-20257702D01*
X32880500Y-20086614D01*
X32880500Y-19913385D01*
X33219500Y-19913385D01*
X33219500Y-20086614D01*
X33246597Y-20257702D01*
X33246598Y-20257706D01*
X33300123Y-20422438D01*
X33300125Y-20422441D01*
X33346428Y-20513318D01*
X33378768Y-20576788D01*
X33480586Y-20716928D01*
X33603072Y-20839414D01*
X33743212Y-20941232D01*
X33897555Y-21019873D01*
X33897557Y-21019873D01*
X33897558Y-21019874D01*
X33897561Y-21019876D01*
X34062293Y-21073401D01*
X34062297Y-21073402D01*
X34233386Y-21100500D01*
X34233389Y-21100500D01*
X34406614Y-21100500D01*
X34577702Y-21073402D01*
X34577706Y-21073401D01*
X34742438Y-21019876D01*
X34742440Y-21019874D01*
X34742445Y-21019873D01*
X34896788Y-20941232D01*
X35036928Y-20839414D01*
X35159414Y-20716928D01*
X35261232Y-20576788D01*
X35339873Y-20422445D01*
X35339874Y-20422440D01*
X35339876Y-20422438D01*
X35393401Y-20257706D01*
X35393402Y-20257702D01*
X35420500Y-20086614D01*
X35420500Y-19913385D01*
X35393402Y-19742297D01*
X35393401Y-19742293D01*
X35339876Y-19577561D01*
X35339874Y-19577558D01*
X35339873Y-19577557D01*
X35339873Y-19577555D01*
X35261232Y-19423212D01*
X35159414Y-19283072D01*
X35036928Y-19160586D01*
X34896788Y-19058768D01*
X34896787Y-19058767D01*
X34896785Y-19058766D01*
X34751555Y-18984768D01*
X34735163Y-18968376D01*
X34716407Y-18954749D01*
X34713938Y-18947151D01*
X34708290Y-18941503D01*
X34697500Y-18896558D01*
X34697500Y-18889272D01*
X34716407Y-18831081D01*
X34726490Y-18819274D01*
X41140496Y-12405267D01*
X41195013Y-12377491D01*
X41255445Y-12387062D01*
X41298710Y-12430327D01*
X41309500Y-12475272D01*
X41309500Y-12606290D01*
X41342752Y-12816238D01*
X41408443Y-13018412D01*
X41504948Y-13207815D01*
X41504950Y-13207819D01*
X41629891Y-13379786D01*
X41629893Y-13379788D01*
X41629896Y-13379792D01*
X41780208Y-13530104D01*
X41780211Y-13530106D01*
X41780213Y-13530108D01*
X41952180Y-13655049D01*
X41952184Y-13655051D01*
X42141588Y-13751557D01*
X42343757Y-13817246D01*
X42343758Y-13817246D01*
X42343761Y-13817247D01*
X42553710Y-13850500D01*
X42627925Y-13850500D01*
X42686116Y-13869407D01*
X42722080Y-13918907D01*
X42722080Y-13980093D01*
X42697929Y-14019504D01*
X37625086Y-19092347D01*
X37570569Y-19120124D01*
X37510137Y-19110553D01*
X37496896Y-19102439D01*
X37436788Y-19058768D01*
X37436787Y-19058767D01*
X37436785Y-19058766D01*
X37282441Y-18980125D01*
X37282438Y-18980123D01*
X37117706Y-18926598D01*
X37117702Y-18926597D01*
X36946614Y-18899500D01*
X36946611Y-18899500D01*
X36773389Y-18899500D01*
X36773386Y-18899500D01*
X36602297Y-18926597D01*
X36602293Y-18926598D01*
X36437561Y-18980123D01*
X36437558Y-18980125D01*
X36283214Y-19058766D01*
X36143073Y-19160585D01*
X36020585Y-19283073D01*
X35918766Y-19423214D01*
X35840125Y-19577558D01*
X35840123Y-19577561D01*
X35786598Y-19742293D01*
X35786597Y-19742297D01*
X35759500Y-19913385D01*
X35759500Y-20086614D01*
X35786597Y-20257702D01*
X35786598Y-20257706D01*
X35840123Y-20422438D01*
X35840125Y-20422441D01*
X35886428Y-20513318D01*
X35918768Y-20576788D01*
X36020586Y-20716928D01*
X36143072Y-20839414D01*
X36283212Y-20941232D01*
X36437555Y-21019873D01*
X36437557Y-21019873D01*
X36437558Y-21019874D01*
X36437561Y-21019876D01*
X36602293Y-21073401D01*
X36602297Y-21073402D01*
X36773386Y-21100500D01*
X36773389Y-21100500D01*
X36946614Y-21100500D01*
X37117702Y-21073402D01*
X37117706Y-21073401D01*
X37282438Y-21019876D01*
X37282440Y-21019874D01*
X37282445Y-21019873D01*
X37436788Y-20941232D01*
X37576928Y-20839414D01*
X37699414Y-20716928D01*
X37801232Y-20576788D01*
X37879873Y-20422445D01*
X37879874Y-20422440D01*
X37879876Y-20422438D01*
X37933401Y-20257706D01*
X37933402Y-20257702D01*
X37960500Y-20086614D01*
X37960500Y-19913386D01*
X37956260Y-19886618D01*
X37965831Y-19826186D01*
X37984034Y-19801129D01*
X38171574Y-19613589D01*
X38226089Y-19585814D01*
X38286521Y-19595385D01*
X38329786Y-19638650D01*
X38339357Y-19699082D01*
X38335731Y-19714186D01*
X38326598Y-19742296D01*
X38326597Y-19742297D01*
X38299500Y-19913385D01*
X38299500Y-20086614D01*
X38326597Y-20257702D01*
X38326598Y-20257706D01*
X38380123Y-20422438D01*
X38380125Y-20422441D01*
X38426428Y-20513318D01*
X38458768Y-20576788D01*
X38560586Y-20716928D01*
X38683072Y-20839414D01*
X38823212Y-20941232D01*
X38977555Y-21019873D01*
X38977557Y-21019873D01*
X38977558Y-21019874D01*
X38977561Y-21019876D01*
X39142293Y-21073401D01*
X39142297Y-21073402D01*
X39313386Y-21100500D01*
X39313389Y-21100500D01*
X39486614Y-21100500D01*
X39657702Y-21073402D01*
X39657706Y-21073401D01*
X39822438Y-21019876D01*
X39822440Y-21019874D01*
X39822445Y-21019873D01*
X39976788Y-20941232D01*
X40116928Y-20839414D01*
X40239414Y-20716928D01*
X40341232Y-20576788D01*
X40419873Y-20422445D01*
X40440080Y-20360251D01*
X40476043Y-20310752D01*
X40484729Y-20305112D01*
X40489990Y-20302075D01*
X40683783Y-20108281D01*
X40738298Y-20080505D01*
X40798730Y-20090076D01*
X40841995Y-20133341D01*
X40851566Y-20162799D01*
X40866597Y-20257701D01*
X40866598Y-20257706D01*
X40920123Y-20422438D01*
X40920125Y-20422441D01*
X40966428Y-20513318D01*
X40998768Y-20576788D01*
X41100586Y-20716928D01*
X41223072Y-20839414D01*
X41363212Y-20941232D01*
X41517555Y-21019873D01*
X41517557Y-21019873D01*
X41517558Y-21019874D01*
X41517561Y-21019876D01*
X41682293Y-21073401D01*
X41682297Y-21073402D01*
X41853386Y-21100500D01*
X41853389Y-21100500D01*
X42026614Y-21100500D01*
X42197702Y-21073402D01*
X42197706Y-21073401D01*
X42362438Y-21019876D01*
X42362440Y-21019874D01*
X42362445Y-21019873D01*
X42516788Y-20941232D01*
X42656928Y-20839414D01*
X42779414Y-20716928D01*
X42881232Y-20576788D01*
X42959873Y-20422445D01*
X42959874Y-20422440D01*
X42959876Y-20422438D01*
X43013401Y-20257706D01*
X43013402Y-20257702D01*
X43040500Y-20086614D01*
X43040500Y-19913385D01*
X43379500Y-19913385D01*
X43379500Y-20086614D01*
X43406597Y-20257702D01*
X43406598Y-20257706D01*
X43460123Y-20422438D01*
X43460125Y-20422441D01*
X43506428Y-20513318D01*
X43538768Y-20576788D01*
X43640586Y-20716928D01*
X43763072Y-20839414D01*
X43903212Y-20941232D01*
X44057555Y-21019873D01*
X44057557Y-21019873D01*
X44057558Y-21019874D01*
X44057561Y-21019876D01*
X44222293Y-21073401D01*
X44222297Y-21073402D01*
X44393386Y-21100500D01*
X44393389Y-21100500D01*
X44566614Y-21100500D01*
X44737702Y-21073402D01*
X44737706Y-21073401D01*
X44902438Y-21019876D01*
X44902440Y-21019874D01*
X44902445Y-21019873D01*
X45056788Y-20941232D01*
X45196928Y-20839414D01*
X45319414Y-20716928D01*
X45421232Y-20576788D01*
X45499873Y-20422445D01*
X45499874Y-20422440D01*
X45499876Y-20422438D01*
X45553401Y-20257706D01*
X45553402Y-20257702D01*
X45580500Y-20086614D01*
X45580500Y-19913385D01*
X45553402Y-19742297D01*
X45553401Y-19742293D01*
X45499876Y-19577561D01*
X45499874Y-19577558D01*
X45499873Y-19577557D01*
X45499873Y-19577555D01*
X45421232Y-19423212D01*
X45319414Y-19283072D01*
X45196928Y-19160586D01*
X45056788Y-19058768D01*
X45056787Y-19058767D01*
X45056785Y-19058766D01*
X44902441Y-18980125D01*
X44902438Y-18980123D01*
X44737706Y-18926598D01*
X44737702Y-18926597D01*
X44566614Y-18899500D01*
X44566611Y-18899500D01*
X44393389Y-18899500D01*
X44393386Y-18899500D01*
X44222297Y-18926597D01*
X44222293Y-18926598D01*
X44057561Y-18980123D01*
X44057558Y-18980125D01*
X43903214Y-19058766D01*
X43763073Y-19160585D01*
X43640585Y-19283073D01*
X43538766Y-19423214D01*
X43460125Y-19577558D01*
X43460123Y-19577561D01*
X43406598Y-19742293D01*
X43406597Y-19742297D01*
X43379500Y-19913385D01*
X43040500Y-19913385D01*
X43013402Y-19742297D01*
X43013401Y-19742293D01*
X42959876Y-19577561D01*
X42959874Y-19577558D01*
X42959873Y-19577557D01*
X42959873Y-19577555D01*
X42881232Y-19423212D01*
X42779414Y-19283072D01*
X42656928Y-19160586D01*
X42516788Y-19058768D01*
X42516787Y-19058767D01*
X42516785Y-19058766D01*
X42362441Y-18980125D01*
X42362438Y-18980123D01*
X42197705Y-18926598D01*
X42102799Y-18911566D01*
X42048283Y-18883788D01*
X42020506Y-18829271D01*
X42030078Y-18768839D01*
X42048280Y-18743784D01*
X47552075Y-13239991D01*
X47563886Y-13219534D01*
X47572468Y-13204670D01*
X47592682Y-13169656D01*
X47592683Y-13169655D01*
X47601774Y-13153909D01*
X47601773Y-13153909D01*
X47605021Y-13148286D01*
X47606461Y-13149117D01*
X47640939Y-13108735D01*
X47691209Y-13096657D01*
X48129533Y-12658333D01*
X48179920Y-12745606D01*
X48254394Y-12820080D01*
X48341665Y-12870465D01*
X47906203Y-13305928D01*
X48026314Y-13386185D01*
X48026326Y-13386191D01*
X48208310Y-13461570D01*
X48401506Y-13499999D01*
X48401510Y-13500000D01*
X48598490Y-13500000D01*
X48598493Y-13499999D01*
X48791688Y-13461570D01*
X48791690Y-13461570D01*
X48973675Y-13386190D01*
X49093795Y-13305928D01*
X48658333Y-12870466D01*
X48745606Y-12820080D01*
X48820080Y-12745606D01*
X48870466Y-12658333D01*
X49305928Y-13093795D01*
X49386190Y-12973675D01*
X49461570Y-12791690D01*
X49461570Y-12791688D01*
X49499999Y-12598493D01*
X49500000Y-12598490D01*
X49500000Y-12401509D01*
X49499999Y-12401506D01*
X49461570Y-12208311D01*
X49461570Y-12208309D01*
X49386191Y-12026326D01*
X49386185Y-12026314D01*
X49305928Y-11906203D01*
X48870465Y-12341665D01*
X48820080Y-12254394D01*
X48745606Y-12179920D01*
X48658333Y-12129533D01*
X49093796Y-11694071D01*
X48973675Y-11613809D01*
X48791689Y-11538429D01*
X48598493Y-11500000D01*
X48548972Y-11500000D01*
X48490781Y-11481093D01*
X48454817Y-11431593D01*
X48454817Y-11370407D01*
X48478966Y-11330999D01*
X52622270Y-7187696D01*
X52676787Y-7159919D01*
X52692274Y-7158700D01*
X54928497Y-7158700D01*
X54928499Y-7158700D01*
X55024510Y-7132974D01*
X55110590Y-7083275D01*
X56146682Y-6047181D01*
X56201197Y-6019406D01*
X56247277Y-6023032D01*
X56402299Y-6073402D01*
X56470735Y-6084241D01*
X56573386Y-6100500D01*
X56686625Y-6100500D01*
X56744816Y-6119407D01*
X56780780Y-6168907D01*
X56780780Y-6230093D01*
X56756629Y-6269504D01*
X48075622Y-14950513D01*
X48075621Y-14950514D01*
X48025925Y-15036589D01*
X48025925Y-15036590D01*
X48025926Y-15036591D01*
X48000200Y-15132601D01*
X48000200Y-19184851D01*
X47981293Y-19243042D01*
X47931793Y-19279006D01*
X47870607Y-19279006D01*
X47831198Y-19254856D01*
X47736928Y-19160586D01*
X47596788Y-19058768D01*
X47596787Y-19058767D01*
X47596785Y-19058766D01*
X47442441Y-18980125D01*
X47442438Y-18980123D01*
X47277706Y-18926598D01*
X47277702Y-18926597D01*
X47106614Y-18899500D01*
X47106611Y-18899500D01*
X46933389Y-18899500D01*
X46933386Y-18899500D01*
X46762297Y-18926597D01*
X46762293Y-18926598D01*
X46597561Y-18980123D01*
X46597558Y-18980125D01*
X46443214Y-19058766D01*
X46303073Y-19160585D01*
X46180585Y-19283073D01*
X46078766Y-19423214D01*
X46000125Y-19577558D01*
X46000123Y-19577561D01*
X45946598Y-19742293D01*
X45946597Y-19742297D01*
X45919500Y-19913385D01*
X45919500Y-20086614D01*
X45946597Y-20257702D01*
X45946598Y-20257706D01*
X46000123Y-20422438D01*
X46000125Y-20422441D01*
X46046428Y-20513318D01*
X46078768Y-20576788D01*
X46180586Y-20716928D01*
X46303072Y-20839414D01*
X46443212Y-20941232D01*
X46597555Y-21019873D01*
X46597557Y-21019873D01*
X46597558Y-21019874D01*
X46597561Y-21019876D01*
X46762293Y-21073401D01*
X46762297Y-21073402D01*
X46933386Y-21100500D01*
X46933389Y-21100500D01*
X47106614Y-21100500D01*
X47277702Y-21073402D01*
X47277706Y-21073401D01*
X47442438Y-21019876D01*
X47442440Y-21019874D01*
X47442445Y-21019873D01*
X47596788Y-20941232D01*
X47736928Y-20839414D01*
X47831198Y-20745143D01*
X47885713Y-20717368D01*
X47946145Y-20726939D01*
X47989410Y-20770204D01*
X48000200Y-20815149D01*
X48000200Y-34008001D01*
X48000200Y-34107399D01*
X48025926Y-34203410D01*
X48075625Y-34289490D01*
X56031740Y-42245606D01*
X58672816Y-44886682D01*
X58700593Y-44941199D01*
X58696967Y-44987279D01*
X58646597Y-45142301D01*
X58619500Y-45313385D01*
X58619500Y-45486614D01*
X58646597Y-45657702D01*
X58646598Y-45657706D01*
X58700123Y-45822438D01*
X58700125Y-45822441D01*
X58751399Y-45923074D01*
X58778768Y-45976788D01*
X58880586Y-46116928D01*
X59003072Y-46239414D01*
X59143212Y-46341232D01*
X59297555Y-46419873D01*
X59297557Y-46419873D01*
X59297558Y-46419874D01*
X59297561Y-46419876D01*
X59462293Y-46473401D01*
X59462297Y-46473402D01*
X59633386Y-46500500D01*
X59633389Y-46500500D01*
X59806614Y-46500500D01*
X59977702Y-46473402D01*
X59977706Y-46473401D01*
X60142438Y-46419876D01*
X60142440Y-46419874D01*
X60142445Y-46419873D01*
X60296788Y-46341232D01*
X60436928Y-46239414D01*
X60559414Y-46116928D01*
X60661232Y-45976788D01*
X60739873Y-45822445D01*
X60739874Y-45822440D01*
X60739876Y-45822438D01*
X60793401Y-45657706D01*
X60793402Y-45657702D01*
X60820500Y-45486614D01*
X60820500Y-45313385D01*
X61159500Y-45313385D01*
X61159500Y-45486614D01*
X61186597Y-45657702D01*
X61186598Y-45657706D01*
X61240123Y-45822438D01*
X61240125Y-45822441D01*
X61291399Y-45923074D01*
X61318768Y-45976788D01*
X61420586Y-46116928D01*
X61543072Y-46239414D01*
X61683212Y-46341232D01*
X61837555Y-46419873D01*
X61837557Y-46419873D01*
X61837558Y-46419874D01*
X61837561Y-46419876D01*
X62002293Y-46473401D01*
X62002297Y-46473402D01*
X62173386Y-46500500D01*
X62173389Y-46500500D01*
X62346614Y-46500500D01*
X62517702Y-46473402D01*
X62517706Y-46473401D01*
X62682438Y-46419876D01*
X62682440Y-46419874D01*
X62682445Y-46419873D01*
X62836788Y-46341232D01*
X62976928Y-46239414D01*
X63099414Y-46116928D01*
X63201232Y-45976788D01*
X63279873Y-45822445D01*
X63279874Y-45822440D01*
X63279876Y-45822438D01*
X63333401Y-45657706D01*
X63333402Y-45657702D01*
X63360500Y-45486614D01*
X63360500Y-45313386D01*
X63359521Y-45307203D01*
X63359521Y-45307202D01*
X63357839Y-45296581D01*
X63750000Y-45296581D01*
X63750000Y-45503418D01*
X63790349Y-45706272D01*
X63869501Y-45897361D01*
X63958022Y-46029843D01*
X64356328Y-45631536D01*
X64399901Y-45707007D01*
X64492993Y-45800099D01*
X64568460Y-45843670D01*
X64170154Y-46241977D01*
X64302625Y-46330491D01*
X64302639Y-46330498D01*
X64493727Y-46409650D01*
X64696581Y-46449999D01*
X64696586Y-46450000D01*
X64903414Y-46450000D01*
X64903418Y-46449999D01*
X65106272Y-46409650D01*
X65297360Y-46330498D01*
X65429843Y-46241976D01*
X65031538Y-45843671D01*
X65107007Y-45800099D01*
X65200099Y-45707007D01*
X65243671Y-45631538D01*
X65641976Y-46029843D01*
X65730498Y-45897360D01*
X65809650Y-45706272D01*
X65849999Y-45503418D01*
X65850000Y-45503413D01*
X65850000Y-45296586D01*
X65849999Y-45296581D01*
X66290000Y-45296581D01*
X66290000Y-45503418D01*
X66330349Y-45706272D01*
X66409501Y-45897361D01*
X66498022Y-46029843D01*
X66896328Y-45631536D01*
X66939901Y-45707007D01*
X67032993Y-45800099D01*
X67108460Y-45843670D01*
X66710154Y-46241977D01*
X66842625Y-46330491D01*
X66842639Y-46330498D01*
X67033727Y-46409650D01*
X67236581Y-46449999D01*
X67236586Y-46450000D01*
X67443414Y-46450000D01*
X67443418Y-46449999D01*
X67646272Y-46409650D01*
X67837360Y-46330498D01*
X67969843Y-46241976D01*
X67571538Y-45843671D01*
X67647007Y-45800099D01*
X67740099Y-45707007D01*
X67783671Y-45631538D01*
X68181976Y-46029843D01*
X68270498Y-45897360D01*
X68349650Y-45706272D01*
X68389999Y-45503418D01*
X68390000Y-45503413D01*
X68390000Y-45296586D01*
X68389999Y-45296581D01*
X68349650Y-45093727D01*
X68270498Y-44902639D01*
X68270491Y-44902625D01*
X68181976Y-44770154D01*
X67783670Y-45168460D01*
X67740099Y-45092993D01*
X67647007Y-44999901D01*
X67571536Y-44956328D01*
X67969843Y-44558022D01*
X67837361Y-44469501D01*
X67646272Y-44390349D01*
X67443418Y-44350000D01*
X67236581Y-44350000D01*
X67033727Y-44390349D01*
X66842638Y-44469501D01*
X66710155Y-44558022D01*
X67108461Y-44956328D01*
X67032993Y-44999901D01*
X66939901Y-45092993D01*
X66896328Y-45168461D01*
X66498022Y-44770155D01*
X66409501Y-44902638D01*
X66330349Y-45093727D01*
X66290000Y-45296581D01*
X65849999Y-45296581D01*
X65809650Y-45093727D01*
X65730498Y-44902639D01*
X65730491Y-44902625D01*
X65641976Y-44770154D01*
X65243670Y-45168460D01*
X65200099Y-45092993D01*
X65107007Y-44999901D01*
X65031536Y-44956328D01*
X65429843Y-44558022D01*
X65297361Y-44469501D01*
X65106272Y-44390349D01*
X64903418Y-44350000D01*
X64696581Y-44350000D01*
X64493727Y-44390349D01*
X64302638Y-44469501D01*
X64170155Y-44558022D01*
X64568461Y-44956328D01*
X64492993Y-44999901D01*
X64399901Y-45092993D01*
X64356328Y-45168461D01*
X63958022Y-44770155D01*
X63869501Y-44902638D01*
X63790349Y-45093727D01*
X63750000Y-45296581D01*
X63357839Y-45296581D01*
X63333402Y-45142298D01*
X63333401Y-45142293D01*
X63279876Y-44977561D01*
X63279874Y-44977558D01*
X63279873Y-44977557D01*
X63279873Y-44977555D01*
X63201232Y-44823212D01*
X63099414Y-44683072D01*
X62976928Y-44560586D01*
X62836788Y-44458768D01*
X62836787Y-44458767D01*
X62836785Y-44458766D01*
X62682441Y-44380125D01*
X62682438Y-44380123D01*
X62517706Y-44326598D01*
X62517702Y-44326597D01*
X62346614Y-44299500D01*
X62346611Y-44299500D01*
X62173389Y-44299500D01*
X62173386Y-44299500D01*
X62002297Y-44326597D01*
X62002293Y-44326598D01*
X61837561Y-44380123D01*
X61837558Y-44380125D01*
X61683214Y-44458766D01*
X61543073Y-44560585D01*
X61420585Y-44683073D01*
X61318766Y-44823214D01*
X61240125Y-44977558D01*
X61240123Y-44977561D01*
X61186598Y-45142293D01*
X61186597Y-45142297D01*
X61159500Y-45313385D01*
X60820500Y-45313385D01*
X60793402Y-45142297D01*
X60793401Y-45142293D01*
X60739876Y-44977561D01*
X60739874Y-44977558D01*
X60739873Y-44977557D01*
X60739873Y-44977555D01*
X60661232Y-44823212D01*
X60559414Y-44683072D01*
X60436928Y-44560586D01*
X60296788Y-44458768D01*
X60296787Y-44458767D01*
X60296785Y-44458766D01*
X60142441Y-44380125D01*
X60142438Y-44380123D01*
X59977706Y-44326598D01*
X59977702Y-44326597D01*
X59806614Y-44299500D01*
X59806611Y-44299500D01*
X59633389Y-44299500D01*
X59633386Y-44299500D01*
X59462301Y-44326597D01*
X59307279Y-44376967D01*
X59246093Y-44376967D01*
X59206682Y-44352816D01*
X48784196Y-33930330D01*
X48756419Y-33875813D01*
X48755200Y-33860326D01*
X48755200Y-20969869D01*
X48774107Y-20911678D01*
X48823607Y-20875714D01*
X48884793Y-20875714D01*
X48912386Y-20889774D01*
X48983212Y-20941232D01*
X49137555Y-21019873D01*
X49137557Y-21019873D01*
X49137558Y-21019874D01*
X49137561Y-21019876D01*
X49302293Y-21073401D01*
X49302297Y-21073402D01*
X49473386Y-21100500D01*
X49473389Y-21100500D01*
X49646614Y-21100500D01*
X49817702Y-21073402D01*
X49817706Y-21073401D01*
X49972721Y-21023033D01*
X50033906Y-21023032D01*
X50073317Y-21047182D01*
X71108209Y-42082075D01*
X71126733Y-42092770D01*
X71145257Y-42103465D01*
X71194289Y-42131773D01*
X71194291Y-42131774D01*
X71290301Y-42157500D01*
X76896559Y-42157500D01*
X76954750Y-42176407D01*
X76984769Y-42211555D01*
X77058766Y-42356786D01*
X77073171Y-42376612D01*
X77160586Y-42496928D01*
X77283072Y-42619414D01*
X77423212Y-42721232D01*
X77577555Y-42799873D01*
X77577557Y-42799873D01*
X77577558Y-42799874D01*
X77577561Y-42799876D01*
X77742293Y-42853401D01*
X77742297Y-42853402D01*
X77913386Y-42880500D01*
X77913389Y-42880500D01*
X78086614Y-42880500D01*
X78257702Y-42853402D01*
X78257706Y-42853401D01*
X78422438Y-42799876D01*
X78422440Y-42799874D01*
X78422445Y-42799873D01*
X78576788Y-42721232D01*
X78716928Y-42619414D01*
X78716927Y-42619414D01*
X78717209Y-42619210D01*
X78732119Y-42614365D01*
X78744807Y-42605147D01*
X78760489Y-42605147D01*
X78775400Y-42600302D01*
X78790311Y-42605147D01*
X78805993Y-42605147D01*
X78818679Y-42614364D01*
X78833590Y-42619209D01*
X78842805Y-42631892D01*
X78855493Y-42641111D01*
X78860338Y-42656025D01*
X78869554Y-42668709D01*
X78874400Y-42699302D01*
X78874400Y-42709578D01*
X78855493Y-42767769D01*
X78845404Y-42779582D01*
X70493586Y-51131400D01*
X70493585Y-51131399D01*
X70400400Y-51224585D01*
X70400396Y-51224590D01*
X70334509Y-51338709D01*
X70318221Y-51399500D01*
X70301581Y-51461603D01*
X70300400Y-51466009D01*
X70300400Y-53585877D01*
X70281493Y-53644068D01*
X70271404Y-53655881D01*
X67369004Y-56558281D01*
X67314487Y-56586058D01*
X67254055Y-56576487D01*
X67210790Y-56533222D01*
X67200000Y-56488277D01*
X67200000Y-56405554D01*
X67170453Y-56219003D01*
X67112085Y-56039364D01*
X67026332Y-55871063D01*
X67026330Y-55871059D01*
X66948372Y-55763759D01*
X66480273Y-56231857D01*
X66440110Y-56162292D01*
X66337708Y-56059890D01*
X66268139Y-56019725D01*
X66736239Y-55551626D01*
X66628935Y-55473667D01*
X66460635Y-55387914D01*
X66280996Y-55329546D01*
X66094445Y-55300000D01*
X65905555Y-55300000D01*
X65719003Y-55329546D01*
X65539364Y-55387914D01*
X65371069Y-55473664D01*
X65263760Y-55551627D01*
X65731859Y-56019726D01*
X65662292Y-56059890D01*
X65559890Y-56162292D01*
X65519726Y-56231859D01*
X65051627Y-55763760D01*
X64973664Y-55871069D01*
X64887914Y-56039364D01*
X64829546Y-56219003D01*
X64800000Y-56405554D01*
X64800000Y-56594445D01*
X64829546Y-56780996D01*
X64887914Y-56960635D01*
X64973667Y-57128935D01*
X65051626Y-57236239D01*
X65519725Y-56768139D01*
X65559890Y-56837708D01*
X65662292Y-56940110D01*
X65731857Y-56980273D01*
X65254094Y-57458037D01*
X65247663Y-57484826D01*
X65201138Y-57524563D01*
X65163251Y-57532100D01*
X61320922Y-57532100D01*
X61262731Y-57513193D01*
X61250918Y-57503104D01*
X57243827Y-53496013D01*
X57216050Y-53441496D01*
X57225621Y-53381064D01*
X57268886Y-53337799D01*
X57329318Y-53328228D01*
X57372020Y-53345915D01*
X57503212Y-53441232D01*
X57657555Y-53519873D01*
X57657557Y-53519873D01*
X57657558Y-53519874D01*
X57657561Y-53519876D01*
X57822293Y-53573401D01*
X57822297Y-53573402D01*
X57993386Y-53600500D01*
X57993389Y-53600500D01*
X58166614Y-53600500D01*
X58337702Y-53573402D01*
X58337706Y-53573401D01*
X58502438Y-53519876D01*
X58502440Y-53519874D01*
X58502445Y-53519873D01*
X58656788Y-53441232D01*
X58796928Y-53339414D01*
X58919414Y-53216928D01*
X59021232Y-53076788D01*
X59099873Y-52922445D01*
X59099874Y-52922440D01*
X59099876Y-52922438D01*
X59153401Y-52757706D01*
X59153402Y-52757702D01*
X59180500Y-52586614D01*
X59180500Y-52413385D01*
X59519500Y-52413385D01*
X59519500Y-52586614D01*
X59546597Y-52757702D01*
X59546598Y-52757706D01*
X59600123Y-52922438D01*
X59600125Y-52922441D01*
X59675066Y-53069524D01*
X59678768Y-53076788D01*
X59780586Y-53216928D01*
X59903072Y-53339414D01*
X60043212Y-53441232D01*
X60197555Y-53519873D01*
X60197557Y-53519873D01*
X60197558Y-53519874D01*
X60197561Y-53519876D01*
X60362293Y-53573401D01*
X60362297Y-53573402D01*
X60533386Y-53600500D01*
X60533389Y-53600500D01*
X60706614Y-53600500D01*
X60877702Y-53573402D01*
X60877706Y-53573401D01*
X61042438Y-53519876D01*
X61042440Y-53519874D01*
X61042445Y-53519873D01*
X61196788Y-53441232D01*
X61336928Y-53339414D01*
X61459414Y-53216928D01*
X61561232Y-53076788D01*
X61639873Y-52922445D01*
X61639874Y-52922440D01*
X61639876Y-52922438D01*
X61693401Y-52757706D01*
X61693402Y-52757702D01*
X61720500Y-52586614D01*
X61720500Y-52413385D01*
X61693402Y-52242297D01*
X61693401Y-52242293D01*
X61639876Y-52077561D01*
X61639874Y-52077558D01*
X61639873Y-52077557D01*
X61639873Y-52077555D01*
X61561232Y-51923212D01*
X61545515Y-51901579D01*
X64749500Y-51901579D01*
X64749500Y-52098420D01*
X64780289Y-52292821D01*
X64841116Y-52480025D01*
X64927722Y-52650001D01*
X64930476Y-52655405D01*
X65046172Y-52814646D01*
X65185354Y-52953828D01*
X65344595Y-53069524D01*
X65519975Y-53158884D01*
X65707174Y-53219709D01*
X65707175Y-53219709D01*
X65707178Y-53219710D01*
X65901580Y-53250500D01*
X65901583Y-53250500D01*
X66098420Y-53250500D01*
X66292821Y-53219710D01*
X66292822Y-53219709D01*
X66292826Y-53219709D01*
X66480025Y-53158884D01*
X66655405Y-53069524D01*
X66814646Y-52953828D01*
X66953828Y-52814646D01*
X67069524Y-52655405D01*
X67158884Y-52480025D01*
X67219709Y-52292826D01*
X67250390Y-52099112D01*
X67250500Y-52098420D01*
X67250500Y-51901579D01*
X67219710Y-51707178D01*
X67219709Y-51707174D01*
X67158884Y-51519975D01*
X67069524Y-51344595D01*
X66953828Y-51185354D01*
X66814646Y-51046172D01*
X66655405Y-50930476D01*
X66655404Y-50930475D01*
X66655402Y-50930474D01*
X66480025Y-50841116D01*
X66292821Y-50780289D01*
X66098420Y-50749500D01*
X66098417Y-50749500D01*
X65901583Y-50749500D01*
X65901580Y-50749500D01*
X65707178Y-50780289D01*
X65519974Y-50841116D01*
X65344597Y-50930474D01*
X65185355Y-51046171D01*
X65046171Y-51185355D01*
X64930474Y-51344597D01*
X64841116Y-51519974D01*
X64780289Y-51707178D01*
X64749500Y-51901579D01*
X61545515Y-51901579D01*
X61459414Y-51783072D01*
X61336928Y-51660586D01*
X61196788Y-51558768D01*
X61196787Y-51558767D01*
X61196785Y-51558766D01*
X61042441Y-51480125D01*
X61042438Y-51480123D01*
X60877706Y-51426598D01*
X60877702Y-51426597D01*
X60706614Y-51399500D01*
X60706611Y-51399500D01*
X60533389Y-51399500D01*
X60533386Y-51399500D01*
X60362297Y-51426597D01*
X60362293Y-51426598D01*
X60197561Y-51480123D01*
X60197558Y-51480125D01*
X60043214Y-51558766D01*
X59903073Y-51660585D01*
X59780585Y-51783073D01*
X59678766Y-51923214D01*
X59600125Y-52077558D01*
X59600123Y-52077561D01*
X59546598Y-52242293D01*
X59546597Y-52242297D01*
X59519500Y-52413385D01*
X59180500Y-52413385D01*
X59153402Y-52242297D01*
X59153401Y-52242293D01*
X59099876Y-52077561D01*
X59099874Y-52077558D01*
X59099873Y-52077557D01*
X59099873Y-52077555D01*
X59021232Y-51923212D01*
X58919414Y-51783072D01*
X58796928Y-51660586D01*
X58656788Y-51558768D01*
X58656787Y-51558767D01*
X58656785Y-51558766D01*
X58502441Y-51480125D01*
X58502438Y-51480123D01*
X58337706Y-51426598D01*
X58337702Y-51426597D01*
X58166614Y-51399500D01*
X58166611Y-51399500D01*
X57993389Y-51399500D01*
X57993386Y-51399500D01*
X57822297Y-51426597D01*
X57822293Y-51426598D01*
X57657561Y-51480123D01*
X57657558Y-51480125D01*
X57503214Y-51558766D01*
X57363073Y-51660585D01*
X57240585Y-51783073D01*
X57138766Y-51923214D01*
X57060125Y-52077558D01*
X57060123Y-52077561D01*
X57006598Y-52242293D01*
X57006597Y-52242297D01*
X56979500Y-52413385D01*
X56979500Y-52586614D01*
X57006597Y-52757702D01*
X57006598Y-52757706D01*
X57060123Y-52922438D01*
X57060125Y-52922441D01*
X57138766Y-53076786D01*
X57234083Y-53207977D01*
X57252990Y-53266168D01*
X57234083Y-53324359D01*
X57184583Y-53360323D01*
X57123397Y-53360323D01*
X57083986Y-53336172D01*
X56629841Y-52882027D01*
X56602064Y-52827510D01*
X56605691Y-52781429D01*
X56613402Y-52757701D01*
X56613403Y-52757697D01*
X56640500Y-52586614D01*
X56640500Y-52413385D01*
X56613402Y-52242297D01*
X56613401Y-52242293D01*
X56559876Y-52077561D01*
X56559874Y-52077558D01*
X56559873Y-52077557D01*
X56559873Y-52077555D01*
X56481232Y-51923212D01*
X56379414Y-51783072D01*
X56256928Y-51660586D01*
X56116788Y-51558768D01*
X56116787Y-51558767D01*
X56116785Y-51558766D01*
X55962441Y-51480125D01*
X55962438Y-51480123D01*
X55797706Y-51426598D01*
X55797702Y-51426597D01*
X55626614Y-51399500D01*
X55626611Y-51399500D01*
X55453389Y-51399500D01*
X55453386Y-51399500D01*
X55282297Y-51426597D01*
X55282293Y-51426598D01*
X55117561Y-51480123D01*
X55117558Y-51480125D01*
X54963214Y-51558766D01*
X54823073Y-51660585D01*
X54700585Y-51783073D01*
X54598766Y-51923214D01*
X54520125Y-52077558D01*
X54520123Y-52077561D01*
X54466598Y-52242293D01*
X54466597Y-52242297D01*
X54439500Y-52413385D01*
X54439500Y-52586614D01*
X54466597Y-52757702D01*
X54466598Y-52757706D01*
X54520123Y-52922438D01*
X54520125Y-52922441D01*
X54595066Y-53069524D01*
X54598768Y-53076788D01*
X54700586Y-53216928D01*
X54823072Y-53339414D01*
X54963212Y-53441232D01*
X55117555Y-53519873D01*
X55117557Y-53519873D01*
X55117558Y-53519874D01*
X55117561Y-53519876D01*
X55282293Y-53573401D01*
X55282297Y-53573402D01*
X55453386Y-53600500D01*
X55453389Y-53600500D01*
X55626614Y-53600500D01*
X55797697Y-53573403D01*
X55797697Y-53573402D01*
X55797701Y-53573402D01*
X55821428Y-53565691D01*
X55882612Y-53565689D01*
X55922027Y-53589841D01*
X60765286Y-58433100D01*
X60765288Y-58433101D01*
X60765289Y-58433102D01*
X60765290Y-58433103D01*
X60879410Y-58498990D01*
X60879408Y-58498990D01*
X60879412Y-58498991D01*
X60879414Y-58498992D01*
X61006708Y-58533100D01*
X61006710Y-58533100D01*
X66668390Y-58533100D01*
X66668392Y-58533100D01*
X66795686Y-58498992D01*
X66795688Y-58498990D01*
X66795690Y-58498990D01*
X66909809Y-58433103D01*
X66909809Y-58433102D01*
X66909814Y-58433100D01*
X68937359Y-56405554D01*
X71300000Y-56405554D01*
X71300000Y-56594445D01*
X71329546Y-56780996D01*
X71387914Y-56960635D01*
X71473667Y-57128935D01*
X71551626Y-57236239D01*
X72019725Y-56768139D01*
X72059890Y-56837708D01*
X72162292Y-56940110D01*
X72231857Y-56980273D01*
X71763759Y-57448372D01*
X71871059Y-57526330D01*
X71871063Y-57526332D01*
X72039364Y-57612085D01*
X72219003Y-57670453D01*
X72405555Y-57700000D01*
X72594445Y-57700000D01*
X72780996Y-57670453D01*
X72960635Y-57612085D01*
X73128934Y-57526333D01*
X73236238Y-57448371D01*
X72768140Y-56980273D01*
X72837708Y-56940110D01*
X72940110Y-56837708D01*
X72980273Y-56768140D01*
X73448371Y-57236238D01*
X73526333Y-57128934D01*
X73612085Y-56960635D01*
X73670453Y-56780996D01*
X73700000Y-56594445D01*
X73700000Y-56405554D01*
X73670453Y-56219003D01*
X73612085Y-56039364D01*
X73526332Y-55871063D01*
X73526330Y-55871059D01*
X73448372Y-55763759D01*
X72980273Y-56231857D01*
X72940110Y-56162292D01*
X72837708Y-56059890D01*
X72768139Y-56019725D01*
X73236239Y-55551626D01*
X73128935Y-55473667D01*
X72960635Y-55387914D01*
X72780996Y-55329546D01*
X72594445Y-55300000D01*
X72405555Y-55300000D01*
X72219003Y-55329546D01*
X72039364Y-55387914D01*
X71871069Y-55473664D01*
X71763760Y-55551627D01*
X72231859Y-56019726D01*
X72162292Y-56059890D01*
X72059890Y-56162292D01*
X72019726Y-56231859D01*
X71551627Y-55763760D01*
X71473664Y-55871069D01*
X71387914Y-56039364D01*
X71329546Y-56219003D01*
X71300000Y-56405554D01*
X68937359Y-56405554D01*
X71108211Y-54234701D01*
X71108214Y-54234700D01*
X71201400Y-54141514D01*
X71212407Y-54122449D01*
X71267290Y-54027390D01*
X71267290Y-54027388D01*
X71267292Y-54027386D01*
X71301400Y-53900092D01*
X71301400Y-52782437D01*
X71320307Y-52724246D01*
X71369807Y-52688282D01*
X71430993Y-52688282D01*
X71480491Y-52724244D01*
X71546172Y-52814646D01*
X71685354Y-52953828D01*
X71844595Y-53069524D01*
X72019975Y-53158884D01*
X72207174Y-53219709D01*
X72207175Y-53219709D01*
X72207178Y-53219710D01*
X72401580Y-53250500D01*
X72401583Y-53250500D01*
X72598420Y-53250500D01*
X72792821Y-53219710D01*
X72792822Y-53219709D01*
X72792826Y-53219709D01*
X72980025Y-53158884D01*
X73155405Y-53069524D01*
X73314646Y-52953828D01*
X73453828Y-52814646D01*
X73569524Y-52655405D01*
X73658884Y-52480025D01*
X73719709Y-52292826D01*
X73750390Y-52099112D01*
X73750500Y-52098420D01*
X73750500Y-51901579D01*
X73719710Y-51707178D01*
X73719709Y-51707174D01*
X73658884Y-51519975D01*
X73569524Y-51344595D01*
X73453828Y-51185354D01*
X73314646Y-51046172D01*
X73155405Y-50930476D01*
X73155404Y-50930475D01*
X73155402Y-50930474D01*
X72980025Y-50841116D01*
X72792821Y-50780289D01*
X72598420Y-50749500D01*
X72598417Y-50749500D01*
X72530121Y-50749500D01*
X72471930Y-50730593D01*
X72435966Y-50681093D01*
X72435966Y-50619907D01*
X72460117Y-50580496D01*
X75340209Y-47700404D01*
X79775400Y-43265214D01*
X79841292Y-43151086D01*
X79875400Y-43023793D01*
X79875400Y-42892008D01*
X79875400Y-25309008D01*
X79841292Y-25181714D01*
X79841290Y-25181711D01*
X79841290Y-25181709D01*
X79775403Y-25067590D01*
X79775401Y-25067588D01*
X79775400Y-25067586D01*
X79682214Y-24974400D01*
X79682211Y-24974398D01*
X79416122Y-24708309D01*
X79129496Y-24421682D01*
X79101719Y-24367165D01*
X79100500Y-24351678D01*
X79100500Y-23125327D01*
X79100498Y-23125315D01*
X79090552Y-23075315D01*
X79085966Y-23052260D01*
X79030601Y-22969399D01*
X79030599Y-22969397D01*
X78947742Y-22914035D01*
X78947740Y-22914034D01*
X78947737Y-22914033D01*
X78947736Y-22914033D01*
X78874684Y-22899501D01*
X78874674Y-22899500D01*
X77125326Y-22899500D01*
X77125325Y-22899500D01*
X77125315Y-22899501D01*
X77052263Y-22914033D01*
X77052257Y-22914035D01*
X76969400Y-22969397D01*
X76969397Y-22969400D01*
X76914035Y-23052257D01*
X76914033Y-23052263D01*
X76899501Y-23125315D01*
X76899500Y-23125327D01*
X76899500Y-24874672D01*
X76899501Y-24874684D01*
X76914033Y-24947736D01*
X76914035Y-24947742D01*
X76969397Y-25030599D01*
X76969400Y-25030602D01*
X77022694Y-25066211D01*
X77052260Y-25085966D01*
X77107808Y-25097015D01*
X77125315Y-25100498D01*
X77125320Y-25100498D01*
X77125326Y-25100500D01*
X78351679Y-25100500D01*
X78409870Y-25119407D01*
X78421683Y-25129496D01*
X78845404Y-25553217D01*
X78873181Y-25607734D01*
X78874400Y-25623221D01*
X78874400Y-25836724D01*
X78855493Y-25894915D01*
X78845404Y-25906728D01*
X78443670Y-26308460D01*
X78400099Y-26232993D01*
X78307007Y-26139901D01*
X78231536Y-26096328D01*
X78629843Y-25698022D01*
X78497361Y-25609501D01*
X78306272Y-25530349D01*
X78103418Y-25490000D01*
X77896581Y-25490000D01*
X77693727Y-25530349D01*
X77502638Y-25609501D01*
X77370155Y-25698022D01*
X77768461Y-26096328D01*
X77692993Y-26139901D01*
X77599901Y-26232993D01*
X77556328Y-26308461D01*
X77158022Y-25910155D01*
X77069501Y-26042638D01*
X76990349Y-26233727D01*
X76950000Y-26436581D01*
X76950000Y-26643418D01*
X76990349Y-26846272D01*
X77069501Y-27037361D01*
X77158022Y-27169843D01*
X77556328Y-26771536D01*
X77599901Y-26847007D01*
X77692993Y-26940099D01*
X77768460Y-26983670D01*
X77370154Y-27381977D01*
X77502625Y-27470491D01*
X77502639Y-27470498D01*
X77693727Y-27549650D01*
X77896581Y-27589999D01*
X77896586Y-27590000D01*
X78103414Y-27590000D01*
X78103418Y-27589999D01*
X78306272Y-27549650D01*
X78497360Y-27470498D01*
X78629843Y-27381976D01*
X78231538Y-26983671D01*
X78307007Y-26940099D01*
X78400099Y-26847007D01*
X78443671Y-26771538D01*
X78845404Y-27173271D01*
X78873181Y-27227788D01*
X78874400Y-27243275D01*
X78874400Y-28160697D01*
X78855493Y-28218888D01*
X78805993Y-28254852D01*
X78744807Y-28254852D01*
X78717209Y-28240790D01*
X78680712Y-28214274D01*
X78576788Y-28138768D01*
X78422445Y-28060127D01*
X78422444Y-28060126D01*
X78422441Y-28060125D01*
X78422438Y-28060123D01*
X78257706Y-28006598D01*
X78257702Y-28006597D01*
X78086614Y-27979500D01*
X78086611Y-27979500D01*
X77913389Y-27979500D01*
X77913386Y-27979500D01*
X77742297Y-28006597D01*
X77742293Y-28006598D01*
X77577561Y-28060123D01*
X77577558Y-28060125D01*
X77423214Y-28138766D01*
X77283073Y-28240585D01*
X77160585Y-28363073D01*
X77058766Y-28503214D01*
X76980125Y-28657558D01*
X76980123Y-28657561D01*
X76926598Y-28822293D01*
X76926597Y-28822297D01*
X76899500Y-28993385D01*
X76899500Y-29166614D01*
X76926597Y-29337702D01*
X76926598Y-29337706D01*
X76980123Y-29502438D01*
X76980125Y-29502441D01*
X76980126Y-29502444D01*
X76980127Y-29502445D01*
X77058768Y-29656788D01*
X77160586Y-29796928D01*
X77283072Y-29919414D01*
X77423212Y-30021232D01*
X77577555Y-30099873D01*
X77577557Y-30099873D01*
X77577558Y-30099874D01*
X77577561Y-30099876D01*
X77742293Y-30153401D01*
X77742297Y-30153402D01*
X77913386Y-30180500D01*
X77913389Y-30180500D01*
X78086614Y-30180500D01*
X78257702Y-30153402D01*
X78257706Y-30153401D01*
X78422438Y-30099876D01*
X78422440Y-30099874D01*
X78422445Y-30099873D01*
X78576788Y-30021232D01*
X78716928Y-29919414D01*
X78716927Y-29919414D01*
X78717209Y-29919210D01*
X78775400Y-29900302D01*
X78833590Y-29919209D01*
X78869554Y-29968709D01*
X78874400Y-29999302D01*
X78874400Y-30700697D01*
X78855493Y-30758888D01*
X78805993Y-30794852D01*
X78744807Y-30794852D01*
X78717209Y-30780790D01*
X78680712Y-30754274D01*
X78576788Y-30678768D01*
X78422445Y-30600127D01*
X78422444Y-30600126D01*
X78422441Y-30600125D01*
X78422438Y-30600123D01*
X78257706Y-30546598D01*
X78257702Y-30546597D01*
X78086614Y-30519500D01*
X78086611Y-30519500D01*
X77913389Y-30519500D01*
X77913386Y-30519500D01*
X77742297Y-30546597D01*
X77742293Y-30546598D01*
X77577561Y-30600123D01*
X77577558Y-30600125D01*
X77423214Y-30678766D01*
X77283073Y-30780585D01*
X77160585Y-30903073D01*
X77058766Y-31043214D01*
X76980125Y-31197558D01*
X76980123Y-31197561D01*
X76926598Y-31362293D01*
X76926597Y-31362297D01*
X76899500Y-31533385D01*
X76899500Y-31706614D01*
X76926597Y-31877702D01*
X76926598Y-31877706D01*
X76980123Y-32042438D01*
X76980125Y-32042441D01*
X76980126Y-32042444D01*
X76980127Y-32042445D01*
X77058768Y-32196788D01*
X77160586Y-32336928D01*
X77283072Y-32459414D01*
X77423212Y-32561232D01*
X77577555Y-32639873D01*
X77577557Y-32639873D01*
X77577558Y-32639874D01*
X77577561Y-32639876D01*
X77742293Y-32693401D01*
X77742297Y-32693402D01*
X77913386Y-32720500D01*
X77913389Y-32720500D01*
X78086614Y-32720500D01*
X78257702Y-32693402D01*
X78257706Y-32693401D01*
X78422438Y-32639876D01*
X78422440Y-32639874D01*
X78422445Y-32639873D01*
X78576788Y-32561232D01*
X78716928Y-32459414D01*
X78716927Y-32459414D01*
X78717209Y-32459210D01*
X78775400Y-32440302D01*
X78833590Y-32459209D01*
X78869554Y-32508709D01*
X78874400Y-32539302D01*
X78874400Y-33240697D01*
X78855493Y-33298888D01*
X78805993Y-33334852D01*
X78744807Y-33334852D01*
X78717209Y-33320790D01*
X78613727Y-33245606D01*
X78576788Y-33218768D01*
X78422445Y-33140127D01*
X78422444Y-33140126D01*
X78422441Y-33140125D01*
X78422438Y-33140123D01*
X78257706Y-33086598D01*
X78257702Y-33086597D01*
X78086614Y-33059500D01*
X78086611Y-33059500D01*
X77913389Y-33059500D01*
X77913386Y-33059500D01*
X77742297Y-33086597D01*
X77742293Y-33086598D01*
X77577561Y-33140123D01*
X77577558Y-33140125D01*
X77423214Y-33218766D01*
X77283073Y-33320585D01*
X77160585Y-33443073D01*
X77058766Y-33583214D01*
X76980125Y-33737558D01*
X76980123Y-33737561D01*
X76926598Y-33902293D01*
X76926597Y-33902297D01*
X76899500Y-34073385D01*
X76899500Y-34246614D01*
X76926597Y-34417702D01*
X76926598Y-34417706D01*
X76980123Y-34582438D01*
X76980125Y-34582441D01*
X76980126Y-34582444D01*
X76980127Y-34582445D01*
X77058768Y-34736788D01*
X77160586Y-34876928D01*
X77283072Y-34999414D01*
X77423212Y-35101232D01*
X77577555Y-35179873D01*
X77577557Y-35179873D01*
X77577558Y-35179874D01*
X77577561Y-35179876D01*
X77742293Y-35233401D01*
X77742297Y-35233402D01*
X77913386Y-35260500D01*
X77913389Y-35260500D01*
X78086614Y-35260500D01*
X78257702Y-35233402D01*
X78257706Y-35233401D01*
X78422438Y-35179876D01*
X78422440Y-35179874D01*
X78422445Y-35179873D01*
X78576788Y-35101232D01*
X78716928Y-34999414D01*
X78716927Y-34999414D01*
X78717209Y-34999210D01*
X78775400Y-34980302D01*
X78833590Y-34999209D01*
X78869554Y-35048709D01*
X78874400Y-35079302D01*
X78874400Y-35780697D01*
X78855493Y-35838888D01*
X78805993Y-35874852D01*
X78744807Y-35874852D01*
X78717209Y-35860790D01*
X78680712Y-35834274D01*
X78576788Y-35758768D01*
X78422445Y-35680127D01*
X78422444Y-35680126D01*
X78422441Y-35680125D01*
X78422438Y-35680123D01*
X78257706Y-35626598D01*
X78257702Y-35626597D01*
X78086614Y-35599500D01*
X78086611Y-35599500D01*
X77913389Y-35599500D01*
X77913386Y-35599500D01*
X77742297Y-35626597D01*
X77742293Y-35626598D01*
X77577561Y-35680123D01*
X77577558Y-35680125D01*
X77423214Y-35758766D01*
X77283073Y-35860585D01*
X77160585Y-35983073D01*
X77058766Y-36123214D01*
X76980125Y-36277558D01*
X76980123Y-36277561D01*
X76926598Y-36442293D01*
X76926597Y-36442297D01*
X76899500Y-36613385D01*
X76899500Y-36786614D01*
X76926597Y-36957702D01*
X76926598Y-36957706D01*
X76980123Y-37122438D01*
X76980125Y-37122441D01*
X76980126Y-37122444D01*
X76980127Y-37122445D01*
X77058768Y-37276788D01*
X77160586Y-37416928D01*
X77283072Y-37539414D01*
X77423212Y-37641232D01*
X77577555Y-37719873D01*
X77577557Y-37719873D01*
X77577558Y-37719874D01*
X77577561Y-37719876D01*
X77742293Y-37773401D01*
X77742297Y-37773402D01*
X77913386Y-37800500D01*
X77913389Y-37800500D01*
X78086614Y-37800500D01*
X78257702Y-37773402D01*
X78257706Y-37773401D01*
X78422438Y-37719876D01*
X78422440Y-37719874D01*
X78422445Y-37719873D01*
X78576788Y-37641232D01*
X78716928Y-37539414D01*
X78716927Y-37539414D01*
X78717209Y-37539210D01*
X78775400Y-37520302D01*
X78833590Y-37539209D01*
X78869554Y-37588709D01*
X78874400Y-37619302D01*
X78874400Y-38320697D01*
X78855493Y-38378888D01*
X78805993Y-38414852D01*
X78744807Y-38414852D01*
X78717209Y-38400790D01*
X78680712Y-38374274D01*
X78576788Y-38298768D01*
X78422445Y-38220127D01*
X78422444Y-38220126D01*
X78422441Y-38220125D01*
X78422438Y-38220123D01*
X78257706Y-38166598D01*
X78257702Y-38166597D01*
X78086614Y-38139500D01*
X78086611Y-38139500D01*
X77913389Y-38139500D01*
X77913386Y-38139500D01*
X77742301Y-38166597D01*
X77587279Y-38216967D01*
X77526093Y-38216967D01*
X77486682Y-38192816D01*
X62666496Y-23372630D01*
X62638719Y-23318113D01*
X62637500Y-23302626D01*
X62637500Y-21103441D01*
X62656407Y-21045250D01*
X62691554Y-21015231D01*
X62836788Y-20941232D01*
X62976928Y-20839414D01*
X63099414Y-20716928D01*
X63201232Y-20576788D01*
X63279873Y-20422445D01*
X63279874Y-20422440D01*
X63279876Y-20422438D01*
X63333401Y-20257706D01*
X63333402Y-20257702D01*
X63360500Y-20086614D01*
X63360500Y-19913385D01*
X63333402Y-19742297D01*
X63333401Y-19742293D01*
X63279876Y-19577561D01*
X63279874Y-19577558D01*
X63279873Y-19577557D01*
X63279873Y-19577555D01*
X63201232Y-19423212D01*
X63105915Y-19292020D01*
X63087009Y-19233831D01*
X63105916Y-19175640D01*
X63155416Y-19139676D01*
X63216601Y-19139676D01*
X63256013Y-19163827D01*
X63710157Y-19617971D01*
X63737934Y-19672488D01*
X63734308Y-19718565D01*
X63726597Y-19742296D01*
X63699500Y-19913385D01*
X63699500Y-20086614D01*
X63726597Y-20257702D01*
X63726598Y-20257706D01*
X63780123Y-20422438D01*
X63780125Y-20422441D01*
X63826428Y-20513318D01*
X63858768Y-20576788D01*
X63960586Y-20716928D01*
X64083072Y-20839414D01*
X64223212Y-20941232D01*
X64377555Y-21019873D01*
X64377557Y-21019873D01*
X64377558Y-21019874D01*
X64377561Y-21019876D01*
X64542293Y-21073401D01*
X64542297Y-21073402D01*
X64713386Y-21100500D01*
X64713389Y-21100500D01*
X64886614Y-21100500D01*
X65057702Y-21073402D01*
X65057706Y-21073401D01*
X65222438Y-21019876D01*
X65222440Y-21019874D01*
X65222445Y-21019873D01*
X65376788Y-20941232D01*
X65516928Y-20839414D01*
X65639414Y-20716928D01*
X65741232Y-20576788D01*
X65819873Y-20422445D01*
X65819874Y-20422440D01*
X65819876Y-20422438D01*
X65873401Y-20257706D01*
X65873402Y-20257702D01*
X65900500Y-20086614D01*
X65900500Y-19913386D01*
X65899521Y-19907203D01*
X65899521Y-19907202D01*
X65897839Y-19896581D01*
X66290000Y-19896581D01*
X66290000Y-20103418D01*
X66330349Y-20306272D01*
X66409501Y-20497361D01*
X66498022Y-20629843D01*
X66896328Y-20231536D01*
X66939901Y-20307007D01*
X67032993Y-20400099D01*
X67108460Y-20443670D01*
X66710154Y-20841977D01*
X66842625Y-20930491D01*
X66842639Y-20930498D01*
X67033727Y-21009650D01*
X67236581Y-21049999D01*
X67236586Y-21050000D01*
X67443414Y-21050000D01*
X67443418Y-21049999D01*
X67646272Y-21009650D01*
X67837360Y-20930498D01*
X67969843Y-20841976D01*
X67571538Y-20443671D01*
X67647007Y-20400099D01*
X67740099Y-20307007D01*
X67783671Y-20231538D01*
X68181976Y-20629843D01*
X68270498Y-20497360D01*
X68349650Y-20306272D01*
X68389999Y-20103418D01*
X68390000Y-20103413D01*
X68390000Y-19896586D01*
X68389999Y-19896581D01*
X68349650Y-19693727D01*
X68270498Y-19502639D01*
X68270491Y-19502625D01*
X68181976Y-19370154D01*
X67783670Y-19768460D01*
X67740099Y-19692993D01*
X67647007Y-19599901D01*
X67571536Y-19556328D01*
X67969843Y-19158022D01*
X67837361Y-19069501D01*
X67646272Y-18990349D01*
X67443418Y-18950000D01*
X67236581Y-18950000D01*
X67033727Y-18990349D01*
X66842638Y-19069501D01*
X66710155Y-19158022D01*
X67108461Y-19556328D01*
X67032993Y-19599901D01*
X66939901Y-19692993D01*
X66896328Y-19768461D01*
X66498022Y-19370155D01*
X66409501Y-19502638D01*
X66330349Y-19693727D01*
X66290000Y-19896581D01*
X65897839Y-19896581D01*
X65873402Y-19742298D01*
X65873401Y-19742293D01*
X65819876Y-19577561D01*
X65819874Y-19577558D01*
X65819873Y-19577557D01*
X65819873Y-19577555D01*
X65741232Y-19423212D01*
X65639414Y-19283072D01*
X65516928Y-19160586D01*
X65376788Y-19058768D01*
X65376787Y-19058767D01*
X65376785Y-19058766D01*
X65222441Y-18980125D01*
X65222438Y-18980123D01*
X65057706Y-18926598D01*
X65057702Y-18926597D01*
X64886614Y-18899500D01*
X64886611Y-18899500D01*
X64713389Y-18899500D01*
X64713386Y-18899500D01*
X64542296Y-18926597D01*
X64518565Y-18934308D01*
X64457380Y-18934307D01*
X64417971Y-18910157D01*
X62417968Y-16910154D01*
X60315614Y-14807800D01*
X60315611Y-14807798D01*
X60315610Y-14807797D01*
X60315609Y-14807796D01*
X60201489Y-14741909D01*
X60201491Y-14741909D01*
X60152099Y-14728675D01*
X60074192Y-14707800D01*
X60074190Y-14707800D01*
X59547222Y-14707800D01*
X59489031Y-14688893D01*
X59477218Y-14678804D01*
X58467418Y-13669004D01*
X58439641Y-13614487D01*
X58449212Y-13554055D01*
X58492477Y-13510790D01*
X58537422Y-13500000D01*
X58598490Y-13500000D01*
X58598493Y-13499999D01*
X58791688Y-13461570D01*
X58791690Y-13461570D01*
X58973675Y-13386190D01*
X59093795Y-13305928D01*
X58658333Y-12870466D01*
X58745606Y-12820080D01*
X58820080Y-12745606D01*
X58870466Y-12658333D01*
X59305928Y-13093795D01*
X59386190Y-12973675D01*
X59461570Y-12791690D01*
X59461570Y-12791688D01*
X59499999Y-12598493D01*
X59500000Y-12598490D01*
X59500000Y-12401509D01*
X59499999Y-12401506D01*
X59461570Y-12208311D01*
X59461570Y-12208309D01*
X59386191Y-12026326D01*
X59386185Y-12026314D01*
X59305928Y-11906203D01*
X58870465Y-12341665D01*
X58820080Y-12254394D01*
X58745606Y-12179920D01*
X58658332Y-12129532D01*
X59093795Y-11694070D01*
X58973675Y-11613809D01*
X58791689Y-11538429D01*
X58598493Y-11500000D01*
X58401506Y-11500000D01*
X58208311Y-11538429D01*
X58208309Y-11538429D01*
X58026324Y-11613809D01*
X57906203Y-11694070D01*
X58341666Y-12129533D01*
X58254394Y-12179920D01*
X58179920Y-12254394D01*
X58129533Y-12341666D01*
X57694070Y-11906203D01*
X57613809Y-12026324D01*
X57538429Y-12208309D01*
X57538429Y-12208311D01*
X57500000Y-12401506D01*
X57500000Y-12462578D01*
X57492836Y-12484625D01*
X57489210Y-12507523D01*
X57483561Y-12513171D01*
X57481093Y-12520769D01*
X57462336Y-12534396D01*
X57445945Y-12550788D01*
X57438055Y-12552037D01*
X57431593Y-12556733D01*
X57408408Y-12556733D01*
X57385513Y-12560359D01*
X57378396Y-12556733D01*
X57370407Y-12556733D01*
X57330996Y-12532582D01*
X57316996Y-12518582D01*
X57289219Y-12464065D01*
X57288000Y-12448578D01*
X57288000Y-10655020D01*
X57306907Y-10596829D01*
X57316990Y-10585022D01*
X57996458Y-9905554D01*
X65200000Y-9905554D01*
X65200000Y-10094445D01*
X65229546Y-10280996D01*
X65287914Y-10460635D01*
X65373667Y-10628935D01*
X65451626Y-10736239D01*
X65956328Y-10231536D01*
X65999901Y-10307007D01*
X66092993Y-10400099D01*
X66168460Y-10443670D01*
X65663759Y-10948372D01*
X65771059Y-11026330D01*
X65771063Y-11026332D01*
X65939364Y-11112085D01*
X66119003Y-11170453D01*
X66305555Y-11200000D01*
X66494445Y-11200000D01*
X66680996Y-11170453D01*
X66860635Y-11112085D01*
X67028934Y-11026333D01*
X67136238Y-10948371D01*
X66631538Y-10443671D01*
X66707007Y-10400099D01*
X66800099Y-10307007D01*
X66843671Y-10231538D01*
X67348371Y-10736238D01*
X67426333Y-10628934D01*
X67512085Y-10460635D01*
X67570453Y-10280996D01*
X67600000Y-10094445D01*
X67600000Y-9905554D01*
X67570453Y-9719003D01*
X67512085Y-9539364D01*
X67426332Y-9371063D01*
X67426330Y-9371059D01*
X67348372Y-9263759D01*
X66843670Y-9768460D01*
X66800099Y-9692993D01*
X66707007Y-9599901D01*
X66631536Y-9556328D01*
X67136239Y-9051626D01*
X67134765Y-9050555D01*
X67031220Y-8975327D01*
X72749500Y-8975327D01*
X72749500Y-11024672D01*
X72749501Y-11024684D01*
X72764033Y-11097736D01*
X72764035Y-11097742D01*
X72819397Y-11180599D01*
X72819399Y-11180601D01*
X72902260Y-11235966D01*
X72957808Y-11247015D01*
X72975315Y-11250498D01*
X72975320Y-11250498D01*
X72975326Y-11250500D01*
X72975327Y-11250500D01*
X75024673Y-11250500D01*
X75024674Y-11250500D01*
X75097740Y-11235966D01*
X75180601Y-11180601D01*
X75235966Y-11097740D01*
X75250500Y-11024674D01*
X75250500Y-8975326D01*
X75250169Y-8973664D01*
X75247015Y-8957808D01*
X75235966Y-8902260D01*
X75235964Y-8902257D01*
X75180602Y-8819400D01*
X75180599Y-8819397D01*
X75097742Y-8764035D01*
X75097740Y-8764034D01*
X75097737Y-8764033D01*
X75097736Y-8764033D01*
X75024684Y-8749501D01*
X75024674Y-8749500D01*
X72975326Y-8749500D01*
X72975325Y-8749500D01*
X72975315Y-8749501D01*
X72902263Y-8764033D01*
X72902257Y-8764035D01*
X72819400Y-8819397D01*
X72819397Y-8819400D01*
X72764035Y-8902257D01*
X72764033Y-8902263D01*
X72749501Y-8975315D01*
X72749500Y-8975327D01*
X67031220Y-8975327D01*
X67028935Y-8973667D01*
X66860635Y-8887914D01*
X66680996Y-8829546D01*
X66494445Y-8800000D01*
X66305555Y-8800000D01*
X66119003Y-8829546D01*
X65939364Y-8887914D01*
X65771069Y-8973664D01*
X65663760Y-9051627D01*
X66168461Y-9556328D01*
X66092993Y-9599901D01*
X65999901Y-9692993D01*
X65956328Y-9768461D01*
X65451627Y-9263760D01*
X65373664Y-9371069D01*
X65287914Y-9539364D01*
X65229546Y-9719003D01*
X65200000Y-9905554D01*
X57996458Y-9905554D01*
X59507311Y-8394701D01*
X59507314Y-8394700D01*
X59600500Y-8301514D01*
X59666392Y-8187386D01*
X59700500Y-8060092D01*
X59700500Y-6040769D01*
X59719407Y-5982578D01*
X59754553Y-5952560D01*
X59776788Y-5941232D01*
X59916928Y-5839414D01*
X60039414Y-5716928D01*
X60141232Y-5576788D01*
X60219873Y-5422445D01*
X60219874Y-5422440D01*
X60219876Y-5422438D01*
X60273401Y-5257706D01*
X60273402Y-5257702D01*
X60300500Y-5086614D01*
X60300500Y-4913386D01*
X60299521Y-4907203D01*
X60299521Y-4907202D01*
X60297839Y-4896581D01*
X60690000Y-4896581D01*
X60690000Y-5103418D01*
X60730349Y-5306272D01*
X60809501Y-5497361D01*
X60898022Y-5629843D01*
X61296328Y-5231536D01*
X61339901Y-5307007D01*
X61432993Y-5400099D01*
X61508460Y-5443670D01*
X61110154Y-5841977D01*
X61242625Y-5930491D01*
X61242639Y-5930498D01*
X61433727Y-6009650D01*
X61636581Y-6049999D01*
X61636586Y-6050000D01*
X61843414Y-6050000D01*
X61843418Y-6049999D01*
X62046272Y-6009650D01*
X62237360Y-5930498D01*
X62369843Y-5841976D01*
X61971538Y-5443671D01*
X62047007Y-5400099D01*
X62140099Y-5307007D01*
X62183671Y-5231538D01*
X62581976Y-5629843D01*
X62670498Y-5497360D01*
X62749650Y-5306272D01*
X62789999Y-5103418D01*
X62790000Y-5103413D01*
X62790000Y-4896586D01*
X62789999Y-4896581D01*
X62749650Y-4693727D01*
X62670498Y-4502639D01*
X62670491Y-4502625D01*
X62581976Y-4370154D01*
X62183670Y-4768460D01*
X62140099Y-4692993D01*
X62047007Y-4599901D01*
X61971536Y-4556328D01*
X62369843Y-4158022D01*
X62237361Y-4069501D01*
X62046272Y-3990349D01*
X61843418Y-3950000D01*
X61636581Y-3950000D01*
X61433727Y-3990349D01*
X61242638Y-4069501D01*
X61110155Y-4158022D01*
X61508461Y-4556328D01*
X61432993Y-4599901D01*
X61339901Y-4692993D01*
X61296328Y-4768461D01*
X60898022Y-4370155D01*
X60809501Y-4502638D01*
X60730349Y-4693727D01*
X60690000Y-4896581D01*
X60297839Y-4896581D01*
X60273402Y-4742298D01*
X60273401Y-4742293D01*
X60219876Y-4577561D01*
X60219874Y-4577558D01*
X60219873Y-4577557D01*
X60219873Y-4577555D01*
X60141232Y-4423212D01*
X60039414Y-4283072D01*
X59916928Y-4160586D01*
X59776788Y-4058768D01*
X59776787Y-4058767D01*
X59776785Y-4058766D01*
X59622441Y-3980125D01*
X59622438Y-3980123D01*
X59457706Y-3926598D01*
X59457702Y-3926597D01*
X59286614Y-3899500D01*
X59286611Y-3899500D01*
X59113389Y-3899500D01*
X59113386Y-3899500D01*
X58942297Y-3926597D01*
X58942293Y-3926598D01*
X58777561Y-3980123D01*
X58777558Y-3980125D01*
X58623214Y-4058766D01*
X58483073Y-4160585D01*
X58360578Y-4283080D01*
X58360209Y-4283513D01*
X58360046Y-4283612D01*
X58357836Y-4285823D01*
X58357305Y-4285292D01*
X58308036Y-4315476D01*
X58247040Y-4310669D01*
X58200519Y-4270927D01*
X58199216Y-4268737D01*
X58196776Y-4264510D01*
X56954390Y-3022125D01*
X56954383Y-3022121D01*
X56868312Y-2972427D01*
X56868311Y-2972426D01*
X56868310Y-2972426D01*
X56772299Y-2946700D01*
X50666101Y-2946700D01*
X50590379Y-2966989D01*
X50584941Y-2968446D01*
X50570089Y-2972425D01*
X50484014Y-3022121D01*
X50484009Y-3022125D01*
X49553316Y-3952816D01*
X49498800Y-3980593D01*
X49452720Y-3976967D01*
X49297698Y-3926597D01*
X49126614Y-3899500D01*
X49126611Y-3899500D01*
X48953389Y-3899500D01*
X48953386Y-3899500D01*
X48782297Y-3926597D01*
X48782293Y-3926598D01*
X48617561Y-3980123D01*
X48617558Y-3980125D01*
X48463214Y-4058766D01*
X48323073Y-4160585D01*
X48200585Y-4283073D01*
X48098766Y-4423214D01*
X48020125Y-4577558D01*
X48020123Y-4577561D01*
X47966598Y-4742293D01*
X47966597Y-4742297D01*
X47939500Y-4913385D01*
X47939500Y-5086614D01*
X47966597Y-5257702D01*
X47966598Y-5257706D01*
X48020123Y-5422438D01*
X48020125Y-5422441D01*
X48066427Y-5513316D01*
X48098768Y-5576788D01*
X48200586Y-5716928D01*
X48323072Y-5839414D01*
X48463212Y-5941232D01*
X48617555Y-6019873D01*
X48617557Y-6019873D01*
X48617558Y-6019874D01*
X48617561Y-6019876D01*
X48782293Y-6073401D01*
X48782299Y-6073402D01*
X48864421Y-6086409D01*
X48918938Y-6114186D01*
X48946716Y-6168702D01*
X48937145Y-6229135D01*
X48918939Y-6254194D01*
X46580031Y-8593104D01*
X46525514Y-8620881D01*
X46510027Y-8622100D01*
X43962601Y-8622100D01*
X43886879Y-8642389D01*
X43881441Y-8643846D01*
X43866589Y-8647825D01*
X43780514Y-8697521D01*
X34017921Y-18460114D01*
X33968225Y-18546189D01*
X33968225Y-18546190D01*
X33968226Y-18546191D01*
X33942500Y-18642201D01*
X33942500Y-18896558D01*
X33923593Y-18954749D01*
X33888445Y-18984768D01*
X33743214Y-19058766D01*
X33603073Y-19160585D01*
X33480585Y-19283073D01*
X33378766Y-19423214D01*
X33300125Y-19577558D01*
X33300123Y-19577561D01*
X33246598Y-19742293D01*
X33246597Y-19742297D01*
X33219500Y-19913385D01*
X32880500Y-19913385D01*
X32853402Y-19742297D01*
X32853401Y-19742293D01*
X32799876Y-19577561D01*
X32799874Y-19577558D01*
X32799873Y-19577557D01*
X32799873Y-19577555D01*
X32721232Y-19423212D01*
X32619414Y-19283072D01*
X32496928Y-19160586D01*
X32356788Y-19058768D01*
X32356787Y-19058767D01*
X32356785Y-19058766D01*
X32202441Y-18980125D01*
X32202438Y-18980123D01*
X32037706Y-18926598D01*
X32037702Y-18926597D01*
X31866614Y-18899500D01*
X31866611Y-18899500D01*
X31693389Y-18899500D01*
X31693386Y-18899500D01*
X31522297Y-18926597D01*
X31522293Y-18926598D01*
X31357561Y-18980123D01*
X31357558Y-18980125D01*
X31203214Y-19058766D01*
X31063073Y-19160585D01*
X30940585Y-19283073D01*
X30838766Y-19423214D01*
X30760125Y-19577558D01*
X30760123Y-19577561D01*
X30706598Y-19742293D01*
X30706597Y-19742297D01*
X30679500Y-19913385D01*
X30340500Y-19913385D01*
X30313402Y-19742297D01*
X30313401Y-19742293D01*
X30259876Y-19577561D01*
X30259874Y-19577558D01*
X30259873Y-19577557D01*
X30259873Y-19577555D01*
X30181232Y-19423212D01*
X30079414Y-19283072D01*
X29956928Y-19160586D01*
X29816788Y-19058768D01*
X29816787Y-19058767D01*
X29816785Y-19058766D01*
X29662441Y-18980125D01*
X29662438Y-18980123D01*
X29497706Y-18926598D01*
X29497702Y-18926597D01*
X29326614Y-18899500D01*
X29326611Y-18899500D01*
X29153389Y-18899500D01*
X29153386Y-18899500D01*
X28982297Y-18926597D01*
X28982293Y-18926598D01*
X28817561Y-18980123D01*
X28817558Y-18980125D01*
X28663214Y-19058766D01*
X28523073Y-19160585D01*
X28400585Y-19283073D01*
X28298766Y-19423214D01*
X28220125Y-19577558D01*
X28220123Y-19577561D01*
X28166598Y-19742293D01*
X28166597Y-19742297D01*
X28139500Y-19913385D01*
X27800500Y-19913385D01*
X27773402Y-19742297D01*
X27773401Y-19742293D01*
X27719876Y-19577561D01*
X27719874Y-19577558D01*
X27719873Y-19577557D01*
X27719873Y-19577555D01*
X27641232Y-19423212D01*
X27539414Y-19283072D01*
X27416928Y-19160586D01*
X27276788Y-19058768D01*
X27276787Y-19058767D01*
X27276785Y-19058766D01*
X27122441Y-18980125D01*
X27122438Y-18980123D01*
X26957706Y-18926598D01*
X26957702Y-18926597D01*
X26786614Y-18899500D01*
X26786611Y-18899500D01*
X26613389Y-18899500D01*
X26613386Y-18899500D01*
X26442297Y-18926597D01*
X26442293Y-18926598D01*
X26277561Y-18980123D01*
X26277558Y-18980125D01*
X26123214Y-19058766D01*
X25983073Y-19160585D01*
X25860585Y-19283073D01*
X25758766Y-19423214D01*
X25680125Y-19577558D01*
X25680123Y-19577561D01*
X25626598Y-19742293D01*
X25626597Y-19742297D01*
X25599500Y-19913385D01*
X25260500Y-19913385D01*
X25233402Y-19742297D01*
X25233401Y-19742293D01*
X25179876Y-19577561D01*
X25179874Y-19577558D01*
X25179873Y-19577557D01*
X25179873Y-19577555D01*
X25101232Y-19423212D01*
X24999414Y-19283072D01*
X24876928Y-19160586D01*
X24736788Y-19058768D01*
X24736787Y-19058767D01*
X24736785Y-19058766D01*
X24582441Y-18980125D01*
X24582438Y-18980123D01*
X24417706Y-18926598D01*
X24417702Y-18926597D01*
X24246614Y-18899500D01*
X24246611Y-18899500D01*
X24073389Y-18899500D01*
X24073386Y-18899500D01*
X23902297Y-18926597D01*
X23902293Y-18926598D01*
X23737561Y-18980123D01*
X23737558Y-18980125D01*
X23583214Y-19058766D01*
X23443073Y-19160585D01*
X23320585Y-19283073D01*
X23218766Y-19423214D01*
X23140125Y-19577558D01*
X23140123Y-19577561D01*
X23086598Y-19742293D01*
X23086597Y-19742297D01*
X23059500Y-19913385D01*
X23059500Y-20086614D01*
X23086597Y-20257698D01*
X23136967Y-20412720D01*
X23136967Y-20473905D01*
X23112816Y-20513317D01*
X20482923Y-23143212D01*
X20433227Y-23229287D01*
X20433226Y-23229289D01*
X20433226Y-23229290D01*
X20420083Y-23278342D01*
X20407500Y-23325301D01*
X20407500Y-40525801D01*
X20407500Y-40625199D01*
X20433226Y-40721210D01*
X20482925Y-40807290D01*
X22411405Y-42735770D01*
X22439181Y-42790285D01*
X22440400Y-42805772D01*
X22440400Y-44441464D01*
X22421493Y-44499655D01*
X22371993Y-44535619D01*
X22310807Y-44535619D01*
X22283209Y-44521557D01*
X22279209Y-44518651D01*
X22249064Y-44496749D01*
X22196786Y-44458766D01*
X22042441Y-44380125D01*
X22042438Y-44380123D01*
X21877706Y-44326598D01*
X21877702Y-44326597D01*
X21706614Y-44299500D01*
X21706611Y-44299500D01*
X21533389Y-44299500D01*
X21533386Y-44299500D01*
X21362297Y-44326597D01*
X21362293Y-44326598D01*
X21197561Y-44380123D01*
X21197558Y-44380125D01*
X21043214Y-44458766D01*
X20903073Y-44560585D01*
X20780585Y-44683073D01*
X20678766Y-44823214D01*
X20600125Y-44977558D01*
X20600123Y-44977561D01*
X20546598Y-45142293D01*
X20546597Y-45142297D01*
X20519500Y-45313385D01*
X20519500Y-45486614D01*
X20546597Y-45657702D01*
X20546598Y-45657706D01*
X20600123Y-45822438D01*
X20600125Y-45822441D01*
X20651399Y-45923074D01*
X20678768Y-45976788D01*
X20780586Y-46116928D01*
X20903072Y-46239414D01*
X21043212Y-46341232D01*
X21197555Y-46419873D01*
X21197557Y-46419873D01*
X21197558Y-46419874D01*
X21197561Y-46419876D01*
X21362293Y-46473401D01*
X21362297Y-46473402D01*
X21533386Y-46500500D01*
X21533389Y-46500500D01*
X21706614Y-46500500D01*
X21877702Y-46473402D01*
X21877706Y-46473401D01*
X22042438Y-46419876D01*
X22042440Y-46419874D01*
X22042445Y-46419873D01*
X22196788Y-46341232D01*
X22283209Y-46278442D01*
X22341399Y-46259535D01*
X22399590Y-46278442D01*
X22435554Y-46327942D01*
X22440400Y-46358535D01*
X22440400Y-51756027D01*
X22421493Y-51814218D01*
X22411404Y-51826031D01*
X20697921Y-53539514D01*
X20648225Y-53625589D01*
X20648225Y-53625590D01*
X20648226Y-53625591D01*
X20622500Y-53721601D01*
X20622500Y-53750500D01*
X20603593Y-53808691D01*
X20554093Y-53844655D01*
X20523500Y-53849500D01*
X20075326Y-53849500D01*
X20075325Y-53849500D01*
X20075315Y-53849501D01*
X20002263Y-53864033D01*
X20002257Y-53864035D01*
X19919400Y-53919397D01*
X19919397Y-53919400D01*
X19864035Y-54002257D01*
X19864033Y-54002263D01*
X19849501Y-54075315D01*
X19849500Y-54075327D01*
X14224646Y-54075327D01*
X14142994Y-54016004D01*
X14142993Y-54016003D01*
X14142991Y-54016002D01*
X14091701Y-53989869D01*
X13981639Y-53933789D01*
X13981633Y-53933787D01*
X13981629Y-53933785D01*
X13978594Y-53932527D01*
X13932077Y-53892779D01*
X13917500Y-53841071D01*
X13917500Y-52490301D01*
X13891774Y-52394291D01*
X13855175Y-52330900D01*
X13842075Y-52308209D01*
X12007157Y-50473292D01*
X11979381Y-50418776D01*
X11985698Y-50365403D01*
X11993845Y-50345735D01*
X12010130Y-50306420D01*
X12050500Y-50103465D01*
X12050500Y-49901506D01*
X17620000Y-49901506D01*
X17620000Y-50098493D01*
X17658429Y-50291688D01*
X17658429Y-50291690D01*
X17733809Y-50473675D01*
X17814070Y-50593795D01*
X18249532Y-50158332D01*
X18299920Y-50245606D01*
X18374394Y-50320080D01*
X18461665Y-50370465D01*
X18026203Y-50805928D01*
X18146314Y-50886185D01*
X18146326Y-50886191D01*
X18328310Y-50961570D01*
X18521506Y-50999999D01*
X18521510Y-51000000D01*
X18718490Y-51000000D01*
X18718493Y-50999999D01*
X18911688Y-50961570D01*
X18911690Y-50961570D01*
X19093675Y-50886190D01*
X19213795Y-50805928D01*
X18778333Y-50370466D01*
X18865606Y-50320080D01*
X18940080Y-50245606D01*
X18990466Y-50158333D01*
X19425928Y-50593795D01*
X19506190Y-50473675D01*
X19581570Y-50291690D01*
X19581570Y-50291688D01*
X19619999Y-50098493D01*
X19620000Y-50098490D01*
X19620000Y-49901508D01*
X19619010Y-49896532D01*
X19949500Y-49896532D01*
X19949500Y-50103467D01*
X19989869Y-50306418D01*
X20069058Y-50497597D01*
X20169428Y-50647812D01*
X20184023Y-50669655D01*
X20330345Y-50815977D01*
X20502402Y-50930941D01*
X20693580Y-51010130D01*
X20896535Y-51050500D01*
X20896536Y-51050500D01*
X21103464Y-51050500D01*
X21103465Y-51050500D01*
X21306420Y-51010130D01*
X21497598Y-50930941D01*
X21669655Y-50815977D01*
X21815977Y-50669655D01*
X21930941Y-50497598D01*
X22010130Y-50306420D01*
X22050500Y-50103465D01*
X22050500Y-49896535D01*
X22010130Y-49693580D01*
X21930941Y-49502402D01*
X21815977Y-49330345D01*
X21669655Y-49184023D01*
X21669651Y-49184020D01*
X21497597Y-49069058D01*
X21306418Y-48989869D01*
X21103467Y-48949500D01*
X21103465Y-48949500D01*
X20896535Y-48949500D01*
X20896532Y-48949500D01*
X20693581Y-48989869D01*
X20502402Y-49069058D01*
X20330348Y-49184020D01*
X20184020Y-49330348D01*
X20069058Y-49502402D01*
X19989869Y-49693581D01*
X19949500Y-49896532D01*
X19619010Y-49896532D01*
X19581570Y-49708311D01*
X19581570Y-49708309D01*
X19506191Y-49526326D01*
X19506185Y-49526314D01*
X19425928Y-49406203D01*
X18990465Y-49841665D01*
X18940080Y-49754394D01*
X18865606Y-49679920D01*
X18778332Y-49629532D01*
X19213795Y-49194070D01*
X19093675Y-49113809D01*
X18911689Y-49038429D01*
X18718493Y-49000000D01*
X18521506Y-49000000D01*
X18328311Y-49038429D01*
X18328309Y-49038429D01*
X18146324Y-49113809D01*
X18026203Y-49194070D01*
X18461666Y-49629533D01*
X18374394Y-49679920D01*
X18299920Y-49754394D01*
X18249533Y-49841666D01*
X17814070Y-49406203D01*
X17733809Y-49526324D01*
X17658429Y-49708309D01*
X17658429Y-49708311D01*
X17620000Y-49901506D01*
X12050500Y-49901506D01*
X12050500Y-49896535D01*
X12010130Y-49693580D01*
X11930941Y-49502402D01*
X11815977Y-49330345D01*
X11669655Y-49184023D01*
X11669651Y-49184020D01*
X11497597Y-49069058D01*
X11306418Y-48989869D01*
X11167599Y-48962257D01*
X11114215Y-48932360D01*
X11088599Y-48876795D01*
X11100536Y-48816786D01*
X11116910Y-48795155D01*
X11398670Y-48513396D01*
X11453186Y-48485619D01*
X11468673Y-48484400D01*
X15549797Y-48484400D01*
X15549799Y-48484400D01*
X15645810Y-48458674D01*
X15731890Y-48408975D01*
X18020775Y-46120090D01*
X18042899Y-46081768D01*
X18088368Y-46040829D01*
X18149218Y-46034433D01*
X18202206Y-46065026D01*
X18208727Y-46073079D01*
X18240581Y-46116922D01*
X18240583Y-46116924D01*
X18240586Y-46116928D01*
X18363072Y-46239414D01*
X18503212Y-46341232D01*
X18657555Y-46419873D01*
X18657557Y-46419873D01*
X18657558Y-46419874D01*
X18657561Y-46419876D01*
X18822293Y-46473401D01*
X18822297Y-46473402D01*
X18993386Y-46500500D01*
X18993389Y-46500500D01*
X19166614Y-46500500D01*
X19337702Y-46473402D01*
X19337706Y-46473401D01*
X19502438Y-46419876D01*
X19502440Y-46419874D01*
X19502445Y-46419873D01*
X19656788Y-46341232D01*
X19796928Y-46239414D01*
X19919414Y-46116928D01*
X20021232Y-45976788D01*
X20099873Y-45822445D01*
X20099874Y-45822440D01*
X20099876Y-45822438D01*
X20153401Y-45657706D01*
X20153402Y-45657702D01*
X20180500Y-45486614D01*
X20180500Y-45313385D01*
X20153402Y-45142297D01*
X20153401Y-45142293D01*
X20099876Y-44977561D01*
X20099874Y-44977558D01*
X20099873Y-44977557D01*
X20099873Y-44977555D01*
X20021232Y-44823212D01*
X19919414Y-44683072D01*
X19796928Y-44560586D01*
X19656788Y-44458768D01*
X19656787Y-44458767D01*
X19656785Y-44458766D01*
X19502441Y-44380125D01*
X19502438Y-44380123D01*
X19337706Y-44326598D01*
X19337702Y-44326597D01*
X19166614Y-44299500D01*
X19166611Y-44299500D01*
X18993389Y-44299500D01*
X18993386Y-44299500D01*
X18822297Y-44326597D01*
X18822293Y-44326598D01*
X18657561Y-44380123D01*
X18657558Y-44380125D01*
X18503214Y-44458766D01*
X18397436Y-44535619D01*
X18363072Y-44560586D01*
X18265201Y-44658456D01*
X18210687Y-44686232D01*
X18150255Y-44676661D01*
X18106990Y-44633396D01*
X18096200Y-44588451D01*
X18096200Y-24098673D01*
X18115107Y-24040482D01*
X18125196Y-24028669D01*
X19304365Y-22849500D01*
X21106683Y-21047181D01*
X21161198Y-21019406D01*
X21207278Y-21023033D01*
X21362293Y-21073401D01*
X21362297Y-21073402D01*
X21533386Y-21100500D01*
X21533389Y-21100500D01*
X21706614Y-21100500D01*
X21877702Y-21073402D01*
X21877706Y-21073401D01*
X22042438Y-21019876D01*
X22042440Y-21019874D01*
X22042445Y-21019873D01*
X22196788Y-20941232D01*
X22336928Y-20839414D01*
X22459414Y-20716928D01*
X22561232Y-20576788D01*
X22639873Y-20422445D01*
X22639874Y-20422440D01*
X22639876Y-20422438D01*
X22693401Y-20257706D01*
X22693402Y-20257702D01*
X22720500Y-20086614D01*
X22720500Y-19913385D01*
X22693402Y-19742297D01*
X22693401Y-19742293D01*
X22639876Y-19577561D01*
X22639874Y-19577558D01*
X22639873Y-19577557D01*
X22639873Y-19577555D01*
X22561232Y-19423212D01*
X22459414Y-19283072D01*
X22336928Y-19160586D01*
X22196788Y-19058768D01*
X22196787Y-19058767D01*
X22196785Y-19058766D01*
X22042441Y-18980125D01*
X22042438Y-18980123D01*
X21877706Y-18926598D01*
X21877702Y-18926597D01*
X21706614Y-18899500D01*
X21706611Y-18899500D01*
X21533389Y-18899500D01*
X21533386Y-18899500D01*
X21362297Y-18926597D01*
X21362293Y-18926598D01*
X21197561Y-18980123D01*
X21197558Y-18980125D01*
X21043214Y-19058766D01*
X20903073Y-19160585D01*
X20780585Y-19283073D01*
X20678766Y-19423214D01*
X20600125Y-19577558D01*
X20600123Y-19577561D01*
X20546598Y-19742293D01*
X20546597Y-19742297D01*
X20519500Y-19913385D01*
X20519500Y-20086614D01*
X20546597Y-20257702D01*
X20546598Y-20257706D01*
X20596966Y-20412719D01*
X20596967Y-20473904D01*
X20572816Y-20513316D01*
X17416623Y-23669512D01*
X17366927Y-23755587D01*
X17353202Y-23806812D01*
X17353201Y-23806815D01*
X17341200Y-23851600D01*
X17341200Y-44427514D01*
X17322293Y-44485705D01*
X17272793Y-44521669D01*
X17211607Y-44521669D01*
X17184010Y-44507607D01*
X17116791Y-44458769D01*
X17116787Y-44458767D01*
X16962441Y-44380125D01*
X16962438Y-44380123D01*
X16797706Y-44326598D01*
X16797702Y-44326597D01*
X16626614Y-44299500D01*
X16626611Y-44299500D01*
X16453389Y-44299500D01*
X16453386Y-44299500D01*
X16282297Y-44326597D01*
X16282293Y-44326598D01*
X16117561Y-44380123D01*
X16117558Y-44380125D01*
X15963214Y-44458766D01*
X15823073Y-44560585D01*
X15700585Y-44683073D01*
X15598766Y-44823214D01*
X15520125Y-44977558D01*
X15520123Y-44977561D01*
X15466598Y-45142293D01*
X15466597Y-45142297D01*
X15439500Y-45313385D01*
X15439500Y-45486614D01*
X15466597Y-45657702D01*
X15466598Y-45657706D01*
X15520123Y-45822438D01*
X15520125Y-45822441D01*
X15571399Y-45923074D01*
X15598768Y-45976788D01*
X15700586Y-46116928D01*
X15823072Y-46239414D01*
X15963212Y-46341232D01*
X16117555Y-46419873D01*
X16117557Y-46419873D01*
X16117558Y-46419874D01*
X16117561Y-46419876D01*
X16282293Y-46473401D01*
X16282299Y-46473402D01*
X16364422Y-46486409D01*
X16418939Y-46514186D01*
X16446717Y-46568702D01*
X16437146Y-46629134D01*
X16418940Y-46654194D01*
X15372731Y-47700404D01*
X15318214Y-47728181D01*
X15302727Y-47729400D01*
X11221601Y-47729400D01*
X11145879Y-47749689D01*
X11140441Y-47751146D01*
X11125589Y-47755125D01*
X11039514Y-47804821D01*
X9531221Y-49313114D01*
X9481525Y-49399189D01*
X9481525Y-49399190D01*
X9481526Y-49399191D01*
X9455800Y-49495201D01*
X500500Y-49495201D01*
X500500Y-44530299D01*
X12950000Y-44530299D01*
X12950000Y-45249999D01*
X12950001Y-45250000D01*
X13522555Y-45250000D01*
X13500000Y-45334174D01*
X13500000Y-45465826D01*
X13522555Y-45550000D01*
X12950001Y-45550000D01*
X12950000Y-45550001D01*
X12950000Y-46269700D01*
X12961603Y-46328036D01*
X13005806Y-46394189D01*
X13005810Y-46394193D01*
X13071963Y-46438396D01*
X13130299Y-46449999D01*
X13130303Y-46450000D01*
X13849999Y-46450000D01*
X13850000Y-46449999D01*
X13850000Y-45877445D01*
X13934174Y-45900000D01*
X14065826Y-45900000D01*
X14150000Y-45877445D01*
X14150000Y-46449999D01*
X14150001Y-46450000D01*
X14869697Y-46450000D01*
X14869700Y-46449999D01*
X14928036Y-46438396D01*
X14994189Y-46394193D01*
X14994193Y-46394189D01*
X15038396Y-46328036D01*
X15049999Y-46269700D01*
X15050000Y-46269697D01*
X15050000Y-45550001D01*
X15049999Y-45550000D01*
X14477445Y-45550000D01*
X14500000Y-45465826D01*
X14500000Y-45334174D01*
X14477445Y-45250000D01*
X15049999Y-45250000D01*
X15050000Y-45249999D01*
X15050000Y-44530302D01*
X15049999Y-44530299D01*
X15038396Y-44471963D01*
X14994193Y-44405810D01*
X14994189Y-44405806D01*
X14928036Y-44361603D01*
X14869700Y-44350000D01*
X14150001Y-44350000D01*
X14150000Y-44350001D01*
X14150000Y-44922554D01*
X14065826Y-44900000D01*
X13934174Y-44900000D01*
X13850000Y-44922554D01*
X13850000Y-44350001D01*
X13849999Y-44350000D01*
X13130299Y-44350000D01*
X13071963Y-44361603D01*
X13005810Y-44405806D01*
X13005806Y-44405810D01*
X12961603Y-44471963D01*
X12950000Y-44530299D01*
X500500Y-44530299D01*
X500500Y-41896532D01*
X3949500Y-41896532D01*
X3949500Y-42103465D01*
X3989869Y-42306418D01*
X4069058Y-42497597D01*
X4183391Y-42668709D01*
X4184023Y-42669655D01*
X4330345Y-42815977D01*
X4502402Y-42930941D01*
X4693580Y-43010130D01*
X4896535Y-43050500D01*
X4896536Y-43050500D01*
X5103464Y-43050500D01*
X5103465Y-43050500D01*
X5306420Y-43010130D01*
X5497598Y-42930941D01*
X5669655Y-42815977D01*
X5815977Y-42669655D01*
X5930941Y-42497598D01*
X6010130Y-42306420D01*
X6050500Y-42103465D01*
X6050500Y-41901506D01*
X11620000Y-41901506D01*
X11620000Y-42098493D01*
X11658429Y-42291688D01*
X11658429Y-42291690D01*
X11733809Y-42473675D01*
X11814070Y-42593795D01*
X12249532Y-42158332D01*
X12299920Y-42245606D01*
X12374394Y-42320080D01*
X12461665Y-42370465D01*
X12026203Y-42805928D01*
X12146314Y-42886185D01*
X12146326Y-42886191D01*
X12328310Y-42961570D01*
X12521506Y-42999999D01*
X12521510Y-43000000D01*
X12718490Y-43000000D01*
X12718493Y-42999999D01*
X12911688Y-42961570D01*
X12911690Y-42961570D01*
X13093675Y-42886190D01*
X13213795Y-42805928D01*
X12778333Y-42370466D01*
X12865606Y-42320080D01*
X12940080Y-42245606D01*
X12990466Y-42158333D01*
X13425928Y-42593795D01*
X13506190Y-42473675D01*
X13581570Y-42291690D01*
X13581570Y-42291688D01*
X13619999Y-42098493D01*
X13620000Y-42098490D01*
X13620000Y-41901509D01*
X13619999Y-41901506D01*
X13581570Y-41708311D01*
X13581570Y-41708309D01*
X13506191Y-41526326D01*
X13506185Y-41526314D01*
X13425928Y-41406203D01*
X12990465Y-41841665D01*
X12940080Y-41754394D01*
X12865606Y-41679920D01*
X12778332Y-41629532D01*
X13213795Y-41194070D01*
X13093675Y-41113809D01*
X12911689Y-41038429D01*
X12718493Y-41000000D01*
X12521506Y-41000000D01*
X12328311Y-41038429D01*
X12328309Y-41038429D01*
X12146324Y-41113809D01*
X12026203Y-41194070D01*
X12461666Y-41629533D01*
X12374394Y-41679920D01*
X12299920Y-41754394D01*
X12249533Y-41841666D01*
X11814070Y-41406203D01*
X11733809Y-41526324D01*
X11658429Y-41708309D01*
X11658429Y-41708311D01*
X11620000Y-41901506D01*
X6050500Y-41901506D01*
X6050500Y-41896535D01*
X6010130Y-41693580D01*
X5930941Y-41502402D01*
X5815977Y-41330345D01*
X5669655Y-41184023D01*
X5564572Y-41113809D01*
X5497597Y-41069058D01*
X5306418Y-40989869D01*
X5103467Y-40949500D01*
X5103465Y-40949500D01*
X4896535Y-40949500D01*
X4896532Y-40949500D01*
X4693581Y-40989869D01*
X4502402Y-41069058D01*
X4330348Y-41184020D01*
X4184020Y-41330348D01*
X4069058Y-41502402D01*
X3989869Y-41693581D01*
X3949500Y-41896532D01*
X500500Y-41896532D01*
X500500Y-32896532D01*
X3949500Y-32896532D01*
X3949500Y-33103467D01*
X3989869Y-33306418D01*
X4069058Y-33497597D01*
X4069059Y-33497598D01*
X4184023Y-33669655D01*
X4330345Y-33815977D01*
X4502402Y-33930941D01*
X4693580Y-34010130D01*
X4896535Y-34050500D01*
X4896536Y-34050500D01*
X5103464Y-34050500D01*
X5103465Y-34050500D01*
X5306420Y-34010130D01*
X5497598Y-33930941D01*
X5669655Y-33815977D01*
X5815977Y-33669655D01*
X5930941Y-33497598D01*
X6010130Y-33306420D01*
X6050500Y-33103465D01*
X6050500Y-32901506D01*
X11620000Y-32901506D01*
X11620000Y-33098493D01*
X11658429Y-33291688D01*
X11658429Y-33291690D01*
X11733809Y-33473675D01*
X11814070Y-33593795D01*
X12249532Y-33158332D01*
X12299920Y-33245606D01*
X12374394Y-33320080D01*
X12461665Y-33370465D01*
X12026203Y-33805928D01*
X12146314Y-33886185D01*
X12146326Y-33886191D01*
X12328310Y-33961570D01*
X12521506Y-33999999D01*
X12521510Y-34000000D01*
X12718490Y-34000000D01*
X12718493Y-33999999D01*
X12911688Y-33961570D01*
X12911690Y-33961570D01*
X13093675Y-33886190D01*
X13213795Y-33805928D01*
X12778333Y-33370466D01*
X12865606Y-33320080D01*
X12940080Y-33245606D01*
X12990466Y-33158333D01*
X13425928Y-33593795D01*
X13506190Y-33473675D01*
X13581570Y-33291690D01*
X13581570Y-33291688D01*
X13619999Y-33098493D01*
X13620000Y-33098490D01*
X13620000Y-32901509D01*
X13619999Y-32901506D01*
X13581570Y-32708311D01*
X13581570Y-32708309D01*
X13506191Y-32526326D01*
X13506185Y-32526314D01*
X13425928Y-32406203D01*
X12990465Y-32841665D01*
X12940080Y-32754394D01*
X12865606Y-32679920D01*
X12778332Y-32629532D01*
X13213795Y-32194070D01*
X13093675Y-32113809D01*
X12911689Y-32038429D01*
X12718493Y-32000000D01*
X12521506Y-32000000D01*
X12328311Y-32038429D01*
X12328309Y-32038429D01*
X12146324Y-32113809D01*
X12026203Y-32194070D01*
X12461666Y-32629533D01*
X12374394Y-32679920D01*
X12299920Y-32754394D01*
X12249533Y-32841666D01*
X11814070Y-32406203D01*
X11733809Y-32526324D01*
X11658429Y-32708309D01*
X11658429Y-32708311D01*
X11620000Y-32901506D01*
X6050500Y-32901506D01*
X6050500Y-32896535D01*
X6010130Y-32693580D01*
X5985696Y-32634593D01*
X5980896Y-32573600D01*
X6007155Y-32526708D01*
X7842075Y-30691791D01*
X7891773Y-30605710D01*
X7891774Y-30605709D01*
X7917500Y-30509699D01*
X7917500Y-25158927D01*
X7936407Y-25100736D01*
X7978629Y-25067457D01*
X7981632Y-25066213D01*
X7981639Y-25066211D01*
X8142994Y-24983996D01*
X8289501Y-24877553D01*
X8417553Y-24749501D01*
X8523996Y-24602994D01*
X8606211Y-24441639D01*
X8662171Y-24269409D01*
X8690500Y-24090546D01*
X8690500Y-23909454D01*
X8690500Y-23909450D01*
X8662171Y-23730593D01*
X8662171Y-23730591D01*
X8606211Y-23558361D01*
X8523996Y-23397006D01*
X8417553Y-23250499D01*
X8289501Y-23122447D01*
X8142994Y-23016004D01*
X8142993Y-23016003D01*
X8142991Y-23016002D01*
X7981637Y-22933788D01*
X7809406Y-22877828D01*
X7630549Y-22849500D01*
X7630546Y-22849500D01*
X7449454Y-22849500D01*
X7449451Y-22849500D01*
X7270593Y-22877828D01*
X7098362Y-22933788D01*
X6937008Y-23016002D01*
X6863752Y-23069225D01*
X6790499Y-23122447D01*
X6662447Y-23250499D01*
X6624575Y-23302626D01*
X6556002Y-23397008D01*
X6473788Y-23558362D01*
X6417828Y-23730593D01*
X6389500Y-23909450D01*
X6389500Y-24090549D01*
X6417828Y-24269406D01*
X6467304Y-24421682D01*
X6473789Y-24441639D01*
X6556004Y-24602994D01*
X6662447Y-24749501D01*
X6790499Y-24877553D01*
X6937006Y-24983996D01*
X6937008Y-24983997D01*
X7098359Y-25066210D01*
X7101371Y-25067457D01*
X7147903Y-25107186D01*
X7162500Y-25158927D01*
X7162500Y-30262626D01*
X7143593Y-30320817D01*
X7133504Y-30332630D01*
X5473292Y-31992841D01*
X5418775Y-32020618D01*
X5365403Y-32014301D01*
X5306420Y-31989870D01*
X5103467Y-31949500D01*
X5103465Y-31949500D01*
X4896535Y-31949500D01*
X4896532Y-31949500D01*
X4693581Y-31989869D01*
X4502402Y-32069058D01*
X4330348Y-32184020D01*
X4184020Y-32330348D01*
X4069058Y-32502402D01*
X3989869Y-32693581D01*
X3949500Y-32896532D01*
X500500Y-32896532D01*
X500500Y-23075327D01*
X3849500Y-23075327D01*
X3849500Y-24924672D01*
X3849501Y-24924684D01*
X3864033Y-24997736D01*
X3864035Y-24997742D01*
X3919397Y-25080599D01*
X3919400Y-25080602D01*
X3953615Y-25103463D01*
X4002260Y-25135966D01*
X4057808Y-25147015D01*
X4075315Y-25150498D01*
X4075320Y-25150498D01*
X4075326Y-25150500D01*
X4075327Y-25150500D01*
X5924673Y-25150500D01*
X5924674Y-25150500D01*
X5997740Y-25135966D01*
X6080601Y-25080601D01*
X6135966Y-24997740D01*
X6150500Y-24924674D01*
X6150500Y-23075326D01*
X6135966Y-23002260D01*
X6090216Y-22933789D01*
X6080602Y-22919400D01*
X6080599Y-22919397D01*
X5997742Y-22864035D01*
X5997740Y-22864034D01*
X5997737Y-22864033D01*
X5997736Y-22864033D01*
X5924684Y-22849501D01*
X5924674Y-22849500D01*
X4075326Y-22849500D01*
X4075325Y-22849500D01*
X4075315Y-22849501D01*
X4002263Y-22864033D01*
X4002257Y-22864035D01*
X3919400Y-22919397D01*
X3919397Y-22919400D01*
X3864035Y-23002257D01*
X3864033Y-23002263D01*
X3849501Y-23075315D01*
X3849500Y-23075327D01*
X500500Y-23075327D01*
X500500Y-19125327D01*
X12899500Y-19125327D01*
X12899500Y-20874672D01*
X12899501Y-20874684D01*
X12914033Y-20947736D01*
X12914035Y-20947742D01*
X12969397Y-21030599D01*
X12969400Y-21030602D01*
X13033455Y-21073401D01*
X13052260Y-21085966D01*
X13107808Y-21097015D01*
X13125315Y-21100498D01*
X13125320Y-21100498D01*
X13125326Y-21100500D01*
X13125327Y-21100500D01*
X14874673Y-21100500D01*
X14874674Y-21100500D01*
X14947740Y-21085966D01*
X15030601Y-21030601D01*
X15085966Y-20947740D01*
X15100500Y-20874674D01*
X15100500Y-19913385D01*
X15439500Y-19913385D01*
X15439500Y-20086614D01*
X15466597Y-20257702D01*
X15466598Y-20257706D01*
X15520123Y-20422438D01*
X15520125Y-20422441D01*
X15566428Y-20513318D01*
X15598768Y-20576788D01*
X15700586Y-20716928D01*
X15823072Y-20839414D01*
X15963212Y-20941232D01*
X16117555Y-21019873D01*
X16117557Y-21019873D01*
X16117558Y-21019874D01*
X16117561Y-21019876D01*
X16282293Y-21073401D01*
X16282297Y-21073402D01*
X16453386Y-21100500D01*
X16453389Y-21100500D01*
X16626614Y-21100500D01*
X16797702Y-21073402D01*
X16797706Y-21073401D01*
X16962438Y-21019876D01*
X16962440Y-21019874D01*
X16962445Y-21019873D01*
X17116788Y-20941232D01*
X17256928Y-20839414D01*
X17379414Y-20716928D01*
X17481232Y-20576788D01*
X17559873Y-20422445D01*
X17559874Y-20422440D01*
X17559876Y-20422438D01*
X17613401Y-20257706D01*
X17613402Y-20257702D01*
X17640500Y-20086614D01*
X17640500Y-19913385D01*
X17979500Y-19913385D01*
X17979500Y-20086614D01*
X18006597Y-20257702D01*
X18006598Y-20257706D01*
X18060123Y-20422438D01*
X18060125Y-20422441D01*
X18106428Y-20513318D01*
X18138768Y-20576788D01*
X18240586Y-20716928D01*
X18363072Y-20839414D01*
X18503212Y-20941232D01*
X18657555Y-21019873D01*
X18657557Y-21019873D01*
X18657558Y-21019874D01*
X18657561Y-21019876D01*
X18822293Y-21073401D01*
X18822297Y-21073402D01*
X18993386Y-21100500D01*
X18993389Y-21100500D01*
X19166614Y-21100500D01*
X19337702Y-21073402D01*
X19337706Y-21073401D01*
X19502438Y-21019876D01*
X19502440Y-21019874D01*
X19502445Y-21019873D01*
X19656788Y-20941232D01*
X19796928Y-20839414D01*
X19919414Y-20716928D01*
X20021232Y-20576788D01*
X20099873Y-20422445D01*
X20099874Y-20422440D01*
X20099876Y-20422438D01*
X20153401Y-20257706D01*
X20153402Y-20257702D01*
X20180500Y-20086614D01*
X20180500Y-19913385D01*
X20153402Y-19742297D01*
X20153401Y-19742293D01*
X20099876Y-19577561D01*
X20099874Y-19577558D01*
X20099873Y-19577557D01*
X20099873Y-19577555D01*
X20021232Y-19423212D01*
X19919414Y-19283072D01*
X19796928Y-19160586D01*
X19656788Y-19058768D01*
X19656787Y-19058767D01*
X19656785Y-19058766D01*
X19502441Y-18980125D01*
X19502438Y-18980123D01*
X19337706Y-18926598D01*
X19337702Y-18926597D01*
X19166614Y-18899500D01*
X19166611Y-18899500D01*
X18993389Y-18899500D01*
X18993386Y-18899500D01*
X18822297Y-18926597D01*
X18822293Y-18926598D01*
X18657561Y-18980123D01*
X18657558Y-18980125D01*
X18503214Y-19058766D01*
X18363073Y-19160585D01*
X18240585Y-19283073D01*
X18138766Y-19423214D01*
X18060125Y-19577558D01*
X18060123Y-19577561D01*
X18006598Y-19742293D01*
X18006597Y-19742297D01*
X17979500Y-19913385D01*
X17640500Y-19913385D01*
X17613402Y-19742297D01*
X17613401Y-19742293D01*
X17559876Y-19577561D01*
X17559874Y-19577558D01*
X17559873Y-19577557D01*
X17559873Y-19577555D01*
X17481232Y-19423212D01*
X17379414Y-19283072D01*
X17256928Y-19160586D01*
X17116788Y-19058768D01*
X17116787Y-19058767D01*
X17116785Y-19058766D01*
X16962441Y-18980125D01*
X16962438Y-18980123D01*
X16797706Y-18926598D01*
X16797702Y-18926597D01*
X16626614Y-18899500D01*
X16626611Y-18899500D01*
X16453389Y-18899500D01*
X16453386Y-18899500D01*
X16282297Y-18926597D01*
X16282293Y-18926598D01*
X16117561Y-18980123D01*
X16117558Y-18980125D01*
X15963214Y-19058766D01*
X15823073Y-19160585D01*
X15700585Y-19283073D01*
X15598766Y-19423214D01*
X15520125Y-19577558D01*
X15520123Y-19577561D01*
X15466598Y-19742293D01*
X15466597Y-19742297D01*
X15439500Y-19913385D01*
X15100500Y-19913385D01*
X15100500Y-19125326D01*
X15085966Y-19052260D01*
X15085964Y-19052257D01*
X15030602Y-18969400D01*
X15030599Y-18969397D01*
X14947742Y-18914035D01*
X14947740Y-18914034D01*
X14947737Y-18914033D01*
X14947736Y-18914033D01*
X14874684Y-18899501D01*
X14874674Y-18899500D01*
X13125326Y-18899500D01*
X13125325Y-18899500D01*
X13125315Y-18899501D01*
X13052263Y-18914033D01*
X13052257Y-18914035D01*
X12969400Y-18969397D01*
X12969397Y-18969400D01*
X12914035Y-19052257D01*
X12914033Y-19052263D01*
X12899501Y-19125315D01*
X12899500Y-19125327D01*
X500500Y-19125327D01*
X500500Y-17436581D01*
X3950000Y-17436581D01*
X3950000Y-17643418D01*
X3990349Y-17846272D01*
X4069501Y-18037361D01*
X4158022Y-18169843D01*
X4556328Y-17771536D01*
X4599901Y-17847007D01*
X4692993Y-17940099D01*
X4768460Y-17983670D01*
X4370154Y-18381977D01*
X4502625Y-18470491D01*
X4502639Y-18470498D01*
X4693727Y-18549650D01*
X4896581Y-18589999D01*
X4896586Y-18590000D01*
X5103414Y-18590000D01*
X5103418Y-18589999D01*
X5306272Y-18549650D01*
X5497360Y-18470498D01*
X5629843Y-18381976D01*
X5231538Y-17983671D01*
X5307007Y-17940099D01*
X5400099Y-17847007D01*
X5443671Y-17771538D01*
X5841976Y-18169843D01*
X5930498Y-18037360D01*
X6009650Y-17846272D01*
X6049999Y-17643418D01*
X6050000Y-17643413D01*
X6050000Y-17436586D01*
X6049999Y-17436581D01*
X6009650Y-17233727D01*
X5930498Y-17042639D01*
X5930491Y-17042625D01*
X5841976Y-16910154D01*
X5443670Y-17308460D01*
X5400099Y-17232993D01*
X5307007Y-17139901D01*
X5231536Y-17096328D01*
X5629843Y-16698022D01*
X5497361Y-16609501D01*
X5306272Y-16530349D01*
X5103418Y-16490000D01*
X4896581Y-16490000D01*
X4693727Y-16530349D01*
X4502638Y-16609501D01*
X4370155Y-16698022D01*
X4768461Y-17096328D01*
X4692993Y-17139901D01*
X4599901Y-17232993D01*
X4556328Y-17308461D01*
X4158022Y-16910155D01*
X4069501Y-17042638D01*
X3990349Y-17233727D01*
X3950000Y-17436581D01*
X500500Y-17436581D01*
X500500Y-14125327D01*
X3899500Y-14125327D01*
X3899500Y-15874672D01*
X3899501Y-15874684D01*
X3914033Y-15947736D01*
X3914035Y-15947742D01*
X3969397Y-16030599D01*
X3969399Y-16030601D01*
X4052260Y-16085966D01*
X4107808Y-16097015D01*
X4125315Y-16100498D01*
X4125320Y-16100498D01*
X4125326Y-16100500D01*
X4125327Y-16100500D01*
X5874673Y-16100500D01*
X5874674Y-16100500D01*
X5947740Y-16085966D01*
X6030601Y-16030601D01*
X6085966Y-15947740D01*
X6100500Y-15874674D01*
X6100500Y-14125326D01*
X6085966Y-14052260D01*
X6047273Y-13994351D01*
X6030602Y-13969400D01*
X6030599Y-13969397D01*
X5947742Y-13914035D01*
X5947740Y-13914034D01*
X5947737Y-13914033D01*
X5947736Y-13914033D01*
X5874684Y-13899501D01*
X5874674Y-13899500D01*
X4125326Y-13899500D01*
X4125325Y-13899500D01*
X4125315Y-13899501D01*
X4052263Y-13914033D01*
X4052257Y-13914035D01*
X3969400Y-13969397D01*
X3969397Y-13969400D01*
X3914035Y-14052257D01*
X3914033Y-14052263D01*
X3899501Y-14125315D01*
X3899500Y-14125327D01*
X500500Y-14125327D01*
X500500Y-13461943D01*
X11500000Y-13461943D01*
X11500000Y-13698056D01*
X11536934Y-13931252D01*
X11536935Y-13931256D01*
X11609892Y-14155793D01*
X11609894Y-14155796D01*
X11717084Y-14366170D01*
X11717086Y-14366174D01*
X11836850Y-14531015D01*
X12446407Y-13921457D01*
X12495112Y-13994351D01*
X12585649Y-14084888D01*
X12658539Y-14133591D01*
X12048983Y-14743148D01*
X12213825Y-14862913D01*
X12213829Y-14862915D01*
X12424203Y-14970105D01*
X12424206Y-14970107D01*
X12648743Y-15043064D01*
X12648747Y-15043065D01*
X12881944Y-15080000D01*
X13118056Y-15080000D01*
X13351252Y-15043065D01*
X13351256Y-15043064D01*
X13575793Y-14970107D01*
X13575796Y-14970105D01*
X13786168Y-14862916D01*
X13951014Y-14743147D01*
X13341459Y-14133592D01*
X13414351Y-14084888D01*
X13504888Y-13994351D01*
X13553592Y-13921459D01*
X14163147Y-14531014D01*
X14282916Y-14366168D01*
X14390105Y-14155796D01*
X14390107Y-14155793D01*
X14463064Y-13931256D01*
X14463065Y-13931252D01*
X14500000Y-13698056D01*
X14500000Y-13461943D01*
X14463065Y-13228747D01*
X14463064Y-13228743D01*
X14390107Y-13004206D01*
X14390105Y-13004203D01*
X14282915Y-12793829D01*
X14282913Y-12793825D01*
X14163148Y-12628983D01*
X13553591Y-13238539D01*
X13504888Y-13165649D01*
X13414351Y-13075112D01*
X13341457Y-13026407D01*
X13951015Y-12416850D01*
X13786174Y-12297086D01*
X13786170Y-12297084D01*
X13575796Y-12189894D01*
X13575793Y-12189892D01*
X13351256Y-12116935D01*
X13351252Y-12116934D01*
X13118056Y-12080000D01*
X12881944Y-12080000D01*
X12648747Y-12116934D01*
X12648743Y-12116935D01*
X12424206Y-12189892D01*
X12424203Y-12189894D01*
X12213830Y-12297084D01*
X12048983Y-12416850D01*
X12658540Y-13026407D01*
X12585649Y-13075112D01*
X12495112Y-13165649D01*
X12446407Y-13238540D01*
X11836850Y-12628983D01*
X11717084Y-12793830D01*
X11609894Y-13004203D01*
X11609892Y-13004206D01*
X11536935Y-13228743D01*
X11536934Y-13228747D01*
X11500000Y-13461943D01*
X500500Y-13461943D01*
X500500Y-11902129D01*
X20949500Y-11902129D01*
X20949500Y-13097866D01*
X20949501Y-13097870D01*
X20955908Y-13157480D01*
X20955909Y-13157485D01*
X21006202Y-13292329D01*
X21092450Y-13407541D01*
X21092454Y-13407546D01*
X21092457Y-13407548D01*
X21092458Y-13407549D01*
X21207670Y-13493797D01*
X21342511Y-13544089D01*
X21342512Y-13544089D01*
X21342517Y-13544091D01*
X21402127Y-13550500D01*
X22597872Y-13550499D01*
X22657483Y-13544091D01*
X22748537Y-13510130D01*
X22792329Y-13493797D01*
X22792329Y-13493796D01*
X22792331Y-13493796D01*
X22907546Y-13407546D01*
X22993796Y-13292331D01*
X23017512Y-13228747D01*
X23044089Y-13157488D01*
X23044090Y-13157485D01*
X23044091Y-13157483D01*
X23050500Y-13097873D01*
X23050499Y-12401506D01*
X23500000Y-12401506D01*
X23500000Y-12598493D01*
X23538429Y-12791688D01*
X23538429Y-12791690D01*
X23613809Y-12973675D01*
X23694070Y-13093795D01*
X24129532Y-12658332D01*
X24179920Y-12745606D01*
X24254394Y-12820080D01*
X24341665Y-12870465D01*
X23906203Y-13305928D01*
X24026314Y-13386185D01*
X24026326Y-13386191D01*
X24208310Y-13461570D01*
X24401506Y-13499999D01*
X24401510Y-13500000D01*
X24598490Y-13500000D01*
X24598493Y-13499999D01*
X24791688Y-13461570D01*
X24791690Y-13461570D01*
X24973675Y-13386190D01*
X25093795Y-13305928D01*
X24658333Y-12870466D01*
X24745606Y-12820080D01*
X24820080Y-12745606D01*
X24870466Y-12658333D01*
X25305928Y-13093795D01*
X25386190Y-12973675D01*
X25461570Y-12791690D01*
X25461570Y-12791688D01*
X25499999Y-12598493D01*
X25500000Y-12598490D01*
X25500000Y-12401509D01*
X25499999Y-12401506D01*
X25461570Y-12208311D01*
X25461570Y-12208309D01*
X25386191Y-12026326D01*
X25386185Y-12026314D01*
X25305928Y-11906203D01*
X24870465Y-12341665D01*
X24820080Y-12254394D01*
X24745606Y-12179920D01*
X24658332Y-12129532D01*
X25093796Y-11694069D01*
X25075420Y-11681791D01*
X25075418Y-11681791D01*
X24973675Y-11613809D01*
X24945469Y-11602126D01*
X31149500Y-11602126D01*
X31149500Y-13397874D01*
X31150540Y-13407546D01*
X31155908Y-13457478D01*
X31155910Y-13457489D01*
X31206202Y-13592329D01*
X31226098Y-13618907D01*
X31292453Y-13707547D01*
X31308426Y-13719504D01*
X31407670Y-13793797D01*
X31542510Y-13844089D01*
X31542511Y-13844089D01*
X31542516Y-13844091D01*
X31602126Y-13850500D01*
X31602129Y-13850500D01*
X33397871Y-13850500D01*
X33397874Y-13850500D01*
X33457484Y-13844091D01*
X33529459Y-13817246D01*
X33592329Y-13793797D01*
X33592329Y-13793796D01*
X33592331Y-13793796D01*
X33707547Y-13707547D01*
X33793796Y-13592331D01*
X33809399Y-13550499D01*
X33844089Y-13457489D01*
X33844088Y-13457489D01*
X33844091Y-13457484D01*
X33850500Y-13397874D01*
X33850500Y-11602126D01*
X33844091Y-11542516D01*
X33838271Y-11526912D01*
X33793797Y-11407670D01*
X33746844Y-11344948D01*
X33707547Y-11292453D01*
X33632086Y-11235964D01*
X33592329Y-11206202D01*
X33457489Y-11155910D01*
X33457484Y-11155909D01*
X33457482Y-11155908D01*
X33457478Y-11155908D01*
X33426250Y-11152550D01*
X33397874Y-11149500D01*
X31602126Y-11149500D01*
X31577635Y-11152133D01*
X31542521Y-11155908D01*
X31542510Y-11155910D01*
X31407670Y-11206202D01*
X31292455Y-11292451D01*
X31292451Y-11292455D01*
X31206202Y-11407670D01*
X31155910Y-11542510D01*
X31155909Y-11542516D01*
X31149500Y-11602126D01*
X24945469Y-11602126D01*
X24791689Y-11538429D01*
X24598493Y-11500000D01*
X24401506Y-11500000D01*
X24208311Y-11538429D01*
X24208309Y-11538429D01*
X24026324Y-11613809D01*
X23906203Y-11694070D01*
X24341666Y-12129533D01*
X24254394Y-12179920D01*
X24179920Y-12254394D01*
X24129533Y-12341666D01*
X23694070Y-11906203D01*
X23613809Y-12026324D01*
X23538429Y-12208309D01*
X23538429Y-12208311D01*
X23500000Y-12401506D01*
X23050499Y-12401506D01*
X23050499Y-12198320D01*
X23069406Y-12140130D01*
X23079489Y-12128323D01*
X29420903Y-5786909D01*
X29475418Y-5759134D01*
X29535850Y-5768705D01*
X29570998Y-5798725D01*
X29629891Y-5879786D01*
X29629893Y-5879788D01*
X29629896Y-5879792D01*
X29780208Y-6030104D01*
X29780211Y-6030106D01*
X29780213Y-6030108D01*
X29952180Y-6155049D01*
X29952184Y-6155051D01*
X30141588Y-6251557D01*
X30343757Y-6317246D01*
X30343758Y-6317246D01*
X30343761Y-6317247D01*
X30553710Y-6350500D01*
X30553713Y-6350500D01*
X30766290Y-6350500D01*
X30976238Y-6317247D01*
X30976239Y-6317246D01*
X30976243Y-6317246D01*
X31178412Y-6251557D01*
X31367816Y-6155051D01*
X31539792Y-6030104D01*
X31690104Y-5879792D01*
X31815051Y-5707816D01*
X31911557Y-5518412D01*
X31977246Y-5316243D01*
X31978825Y-5306272D01*
X32010500Y-5106290D01*
X32010500Y-4893709D01*
X31977247Y-4683761D01*
X31949868Y-4599497D01*
X31911557Y-4481588D01*
X31815051Y-4292184D01*
X31810429Y-4285823D01*
X31758844Y-4214821D01*
X31719439Y-4160585D01*
X31693823Y-4125327D01*
X33899500Y-4125327D01*
X33899500Y-5874672D01*
X33899501Y-5874684D01*
X33914033Y-5947736D01*
X33914035Y-5947742D01*
X33969397Y-6030599D01*
X33969400Y-6030602D01*
X34033455Y-6073401D01*
X34052260Y-6085966D01*
X34107808Y-6097015D01*
X34125315Y-6100498D01*
X34125320Y-6100498D01*
X34125326Y-6100500D01*
X34125327Y-6100500D01*
X35874673Y-6100500D01*
X35874674Y-6100500D01*
X35947740Y-6085966D01*
X36030601Y-6030601D01*
X36085966Y-5947740D01*
X36100500Y-5874674D01*
X36100500Y-4896581D01*
X36490000Y-4896581D01*
X36490000Y-5103418D01*
X36530349Y-5306272D01*
X36609501Y-5497361D01*
X36698022Y-5629843D01*
X37096328Y-5231536D01*
X37139901Y-5307007D01*
X37232993Y-5400099D01*
X37308460Y-5443670D01*
X36910154Y-5841977D01*
X37042625Y-5930491D01*
X37042639Y-5930498D01*
X37233727Y-6009650D01*
X37436581Y-6049999D01*
X37436586Y-6050000D01*
X37643414Y-6050000D01*
X37643418Y-6049999D01*
X37846272Y-6009650D01*
X38037360Y-5930498D01*
X38169843Y-5841976D01*
X37771538Y-5443671D01*
X37847007Y-5400099D01*
X37940099Y-5307007D01*
X37983671Y-5231538D01*
X38381976Y-5629843D01*
X38470498Y-5497360D01*
X38549650Y-5306272D01*
X38589999Y-5103418D01*
X38590000Y-5103413D01*
X38590000Y-4896586D01*
X38589999Y-4896581D01*
X39030000Y-4896581D01*
X39030000Y-5103418D01*
X39070349Y-5306272D01*
X39149501Y-5497361D01*
X39238022Y-5629843D01*
X39636328Y-5231536D01*
X39679901Y-5307007D01*
X39772993Y-5400099D01*
X39848460Y-5443670D01*
X39450154Y-5841977D01*
X39582625Y-5930491D01*
X39582639Y-5930498D01*
X39773727Y-6009650D01*
X39976581Y-6049999D01*
X39976586Y-6050000D01*
X40183414Y-6050000D01*
X40183418Y-6049999D01*
X40386272Y-6009650D01*
X40577360Y-5930498D01*
X40709843Y-5841976D01*
X40311538Y-5443671D01*
X40387007Y-5400099D01*
X40480099Y-5307007D01*
X40523671Y-5231538D01*
X40921976Y-5629843D01*
X41010498Y-5497360D01*
X41089650Y-5306272D01*
X41129999Y-5103418D01*
X41130000Y-5103413D01*
X41130000Y-4913385D01*
X41519500Y-4913385D01*
X41519500Y-5086614D01*
X41546597Y-5257702D01*
X41546598Y-5257706D01*
X41600123Y-5422438D01*
X41600125Y-5422441D01*
X41646427Y-5513316D01*
X41678768Y-5576788D01*
X41780586Y-5716928D01*
X41903072Y-5839414D01*
X42043212Y-5941232D01*
X42197555Y-6019873D01*
X42197557Y-6019873D01*
X42197558Y-6019874D01*
X42197561Y-6019876D01*
X42362293Y-6073401D01*
X42362297Y-6073402D01*
X42533386Y-6100500D01*
X42533389Y-6100500D01*
X42706614Y-6100500D01*
X42877702Y-6073402D01*
X42877706Y-6073401D01*
X43042438Y-6019876D01*
X43042440Y-6019874D01*
X43042445Y-6019873D01*
X43196788Y-5941232D01*
X43336928Y-5839414D01*
X43459414Y-5716928D01*
X43561232Y-5576788D01*
X43639873Y-5422445D01*
X43639874Y-5422440D01*
X43639876Y-5422438D01*
X43693401Y-5257706D01*
X43693402Y-5257702D01*
X43720500Y-5086614D01*
X43720500Y-4913385D01*
X43693402Y-4742297D01*
X43693401Y-4742293D01*
X43639876Y-4577561D01*
X43639874Y-4577558D01*
X43639873Y-4577557D01*
X43639873Y-4577555D01*
X43561232Y-4423212D01*
X43459414Y-4283072D01*
X43336928Y-4160586D01*
X43288398Y-4125327D01*
X45399500Y-4125327D01*
X45399500Y-5874672D01*
X45399501Y-5874684D01*
X45414033Y-5947736D01*
X45414035Y-5947742D01*
X45469397Y-6030599D01*
X45469400Y-6030602D01*
X45533455Y-6073401D01*
X45552260Y-6085966D01*
X45607808Y-6097015D01*
X45625315Y-6100498D01*
X45625320Y-6100498D01*
X45625326Y-6100500D01*
X45625327Y-6100500D01*
X47374673Y-6100500D01*
X47374674Y-6100500D01*
X47447740Y-6085966D01*
X47530601Y-6030601D01*
X47585966Y-5947740D01*
X47600500Y-5874674D01*
X47600500Y-4125326D01*
X47585966Y-4052260D01*
X47544599Y-3990349D01*
X47530602Y-3969400D01*
X47530599Y-3969397D01*
X47447742Y-3914035D01*
X47447740Y-3914034D01*
X47447737Y-3914033D01*
X47447736Y-3914033D01*
X47374684Y-3899501D01*
X47374674Y-3899500D01*
X45625326Y-3899500D01*
X45625325Y-3899500D01*
X45625315Y-3899501D01*
X45552263Y-3914033D01*
X45552257Y-3914035D01*
X45469400Y-3969397D01*
X45469397Y-3969400D01*
X45414035Y-4052257D01*
X45414033Y-4052263D01*
X45399501Y-4125315D01*
X45399500Y-4125327D01*
X43288398Y-4125327D01*
X43196788Y-4058768D01*
X43196787Y-4058767D01*
X43196785Y-4058766D01*
X43042441Y-3980125D01*
X43042438Y-3980123D01*
X42877706Y-3926598D01*
X42877702Y-3926597D01*
X42706614Y-3899500D01*
X42706611Y-3899500D01*
X42533389Y-3899500D01*
X42533386Y-3899500D01*
X42362297Y-3926597D01*
X42362293Y-3926598D01*
X42197561Y-3980123D01*
X42197558Y-3980125D01*
X42043214Y-4058766D01*
X41903073Y-4160585D01*
X41780585Y-4283073D01*
X41678766Y-4423214D01*
X41600125Y-4577558D01*
X41600123Y-4577561D01*
X41546598Y-4742293D01*
X41546597Y-4742297D01*
X41519500Y-4913385D01*
X41130000Y-4913385D01*
X41130000Y-4896586D01*
X41129999Y-4896581D01*
X41089650Y-4693727D01*
X41010498Y-4502639D01*
X41010491Y-4502625D01*
X40921976Y-4370154D01*
X40523670Y-4768460D01*
X40480099Y-4692993D01*
X40387007Y-4599901D01*
X40311536Y-4556328D01*
X40709843Y-4158022D01*
X40577361Y-4069501D01*
X40386272Y-3990349D01*
X40183418Y-3950000D01*
X39976581Y-3950000D01*
X39773727Y-3990349D01*
X39582638Y-4069501D01*
X39450155Y-4158022D01*
X39848461Y-4556328D01*
X39772993Y-4599901D01*
X39679901Y-4692993D01*
X39636328Y-4768461D01*
X39238022Y-4370155D01*
X39149501Y-4502638D01*
X39070349Y-4693727D01*
X39030000Y-4896581D01*
X38589999Y-4896581D01*
X38549650Y-4693727D01*
X38470498Y-4502639D01*
X38470491Y-4502625D01*
X38381976Y-4370154D01*
X37983670Y-4768460D01*
X37940099Y-4692993D01*
X37847007Y-4599901D01*
X37771536Y-4556328D01*
X38169843Y-4158022D01*
X38037361Y-4069501D01*
X37846272Y-3990349D01*
X37643418Y-3950000D01*
X37436581Y-3950000D01*
X37233727Y-3990349D01*
X37042638Y-4069501D01*
X36910155Y-4158022D01*
X37308461Y-4556328D01*
X37232993Y-4599901D01*
X37139901Y-4692993D01*
X37096328Y-4768461D01*
X36698022Y-4370155D01*
X36609501Y-4502638D01*
X36530349Y-4693727D01*
X36490000Y-4896581D01*
X36100500Y-4896581D01*
X36100500Y-4125326D01*
X36085966Y-4052260D01*
X36044599Y-3990349D01*
X36030602Y-3969400D01*
X36030599Y-3969397D01*
X35947742Y-3914035D01*
X35947740Y-3914034D01*
X35947737Y-3914033D01*
X35947736Y-3914033D01*
X35874684Y-3899501D01*
X35874674Y-3899500D01*
X34125326Y-3899500D01*
X34125325Y-3899500D01*
X34125315Y-3899501D01*
X34052263Y-3914033D01*
X34052257Y-3914035D01*
X33969400Y-3969397D01*
X33969397Y-3969400D01*
X33914035Y-4052257D01*
X33914033Y-4052263D01*
X33899501Y-4125315D01*
X33899500Y-4125327D01*
X31693823Y-4125327D01*
X31690108Y-4120213D01*
X31690106Y-4120211D01*
X31690104Y-4120208D01*
X31539792Y-3969896D01*
X31539788Y-3969893D01*
X31539786Y-3969891D01*
X31367819Y-3844950D01*
X31367815Y-3844948D01*
X31178412Y-3748443D01*
X30976238Y-3682752D01*
X30766290Y-3649500D01*
X30766287Y-3649500D01*
X30553713Y-3649500D01*
X30553710Y-3649500D01*
X30343761Y-3682752D01*
X30141587Y-3748443D01*
X29952184Y-3844948D01*
X29952180Y-3844950D01*
X29780213Y-3969891D01*
X29629891Y-4120213D01*
X29504950Y-4292180D01*
X29504948Y-4292184D01*
X29413826Y-4471022D01*
X29370561Y-4514287D01*
X29351241Y-4521703D01*
X29306812Y-4533608D01*
X29306810Y-4533609D01*
X29192690Y-4599496D01*
X29192689Y-4599497D01*
X22371680Y-11420504D01*
X22317163Y-11448281D01*
X22301676Y-11449500D01*
X21402133Y-11449500D01*
X21402129Y-11449500D01*
X21402128Y-11449501D01*
X21394949Y-11450272D01*
X21342519Y-11455908D01*
X21342514Y-11455909D01*
X21207670Y-11506202D01*
X21092458Y-11592450D01*
X21092450Y-11592458D01*
X21006202Y-11707670D01*
X20955910Y-11842511D01*
X20955908Y-11842522D01*
X20949500Y-11902129D01*
X500500Y-11902129D01*
X500500Y-7402129D01*
X11449500Y-7402129D01*
X11449500Y-9597866D01*
X11449501Y-9597870D01*
X11455908Y-9657480D01*
X11455909Y-9657485D01*
X11506202Y-9792329D01*
X11590963Y-9905554D01*
X11592454Y-9907546D01*
X11592457Y-9907548D01*
X11592458Y-9907549D01*
X11707670Y-9993797D01*
X11842511Y-10044089D01*
X11842512Y-10044089D01*
X11842517Y-10044091D01*
X11902127Y-10050500D01*
X14097872Y-10050499D01*
X14157483Y-10044091D01*
X14275700Y-9999999D01*
X14292329Y-9993797D01*
X14292329Y-9993796D01*
X14292331Y-9993796D01*
X14407546Y-9907546D01*
X14493796Y-9792331D01*
X14495462Y-9787866D01*
X14544089Y-9657488D01*
X14544090Y-9657485D01*
X14544091Y-9657483D01*
X14550500Y-9597873D01*
X14550499Y-7402128D01*
X14544091Y-7342517D01*
X14544089Y-7342511D01*
X14493797Y-7207670D01*
X14407549Y-7092458D01*
X14407548Y-7092457D01*
X14407546Y-7092454D01*
X14395286Y-7083276D01*
X14292329Y-7006202D01*
X14157488Y-6955910D01*
X14157483Y-6955909D01*
X14157481Y-6955908D01*
X14157477Y-6955908D01*
X14126249Y-6952550D01*
X14097873Y-6949500D01*
X14097870Y-6949500D01*
X11902133Y-6949500D01*
X11902129Y-6949500D01*
X11902128Y-6949501D01*
X11894949Y-6950272D01*
X11842519Y-6955908D01*
X11842514Y-6955909D01*
X11707670Y-7006202D01*
X11592458Y-7092450D01*
X11592450Y-7092458D01*
X11506202Y-7207670D01*
X11455910Y-7342511D01*
X11455908Y-7342522D01*
X11449500Y-7402129D01*
X500500Y-7402129D01*
X500500Y-4102128D01*
X19149500Y-4102128D01*
X19149500Y-5897871D01*
X19155908Y-5957478D01*
X19155910Y-5957489D01*
X19206202Y-6092329D01*
X19253154Y-6155049D01*
X19292453Y-6207547D01*
X19351243Y-6251556D01*
X19407670Y-6293797D01*
X19542510Y-6344089D01*
X19542511Y-6344089D01*
X19542516Y-6344091D01*
X19602126Y-6350500D01*
X19602129Y-6350500D01*
X21397871Y-6350500D01*
X21397874Y-6350500D01*
X21457484Y-6344091D01*
X21529459Y-6317246D01*
X21592329Y-6293797D01*
X21592329Y-6293796D01*
X21592331Y-6293796D01*
X21707547Y-6207547D01*
X21793796Y-6092331D01*
X21800857Y-6073401D01*
X21826628Y-6004303D01*
X21844091Y-5957484D01*
X21850500Y-5897874D01*
X21850500Y-4102126D01*
X21844091Y-4042516D01*
X21820995Y-3980593D01*
X21793797Y-3907670D01*
X21707548Y-3792455D01*
X21707547Y-3792453D01*
X21648756Y-3748443D01*
X21592329Y-3706202D01*
X21457489Y-3655910D01*
X21457484Y-3655909D01*
X21457482Y-3655908D01*
X21457478Y-3655908D01*
X21426250Y-3652550D01*
X21397874Y-3649500D01*
X19602126Y-3649500D01*
X19577635Y-3652133D01*
X19542521Y-3655908D01*
X19542510Y-3655910D01*
X19407670Y-3706202D01*
X19292455Y-3792451D01*
X19292451Y-3792455D01*
X19206202Y-3907670D01*
X19155910Y-4042510D01*
X19155908Y-4042521D01*
X19149500Y-4102128D01*
X500500Y-4102128D01*
X500500Y-599500D01*
X519407Y-541309D01*
X568907Y-505345D01*
X599500Y-500500D01*
X84400500Y-500500D01*
X84458691Y-519407D01*
G37*
%TD.AperFunction*%
%TD*%
M02*
