M48
; DRILL file {KiCad 9.0.7} date 2026-09-28T10:54:30-0300
; FORMAT={-:-/ absolute / metric / decimal}
; #@! TF.CreationDate,2026-09-28T10:54:30-03:00
; #@! TF.GenerationSoftware,Kicad,Pcbnew,9.0.7
; #@! TF.FileFunction,Plated,1,2,PTH
FMAT,2
METRIC
; #@! TA.AperFunction,Plated,PTH,ComponentDrill
T1C0.800
; #@! TA.AperFunction,Plated,PTH,ComponentDrill
T2C0.900
; #@! TA.AperFunction,Plated,PTH,ComponentDrill
T3C1.000
; #@! TA.AperFunction,Plated,PTH,ComponentDrill
T4C1.100
; #@! TA.AperFunction,Plated,PTH,ComponentDrill
T5C1.300
; #@! TA.AperFunction,Plated,PTH,ComponentDrill
T6C3.200
%
G90
G05
T1
X5.0Y-33.0
X5.0Y-42.0
X11.0Y-50.0
X12.62Y-33.0
X12.62Y-42.0
X18.62Y-50.0
X21.0Y-50.0
X22.0Y-12.5
X22.0Y-25.0
X24.5Y-12.5
X24.5Y-25.0
X28.62Y-50.0
X31.0Y-50.0
X38.62Y-50.0
X41.0Y-50.0
X41.0Y-55.0
X46.0Y-12.5
X48.5Y-12.5
X48.62Y-50.0
X48.62Y-55.0
X56.0Y-12.5
X58.5Y-12.5
T2
X5.0Y-24.0
X7.54Y-24.0
X11.0Y-55.0
X13.54Y-55.0
X21.0Y-55.0
X23.54Y-55.0
X31.0Y-55.0
X33.54Y-55.0
T3
X5.0Y-15.0
X5.0Y-17.54
X14.0Y-20.0
X14.0Y-45.4
X16.54Y-20.0
X16.54Y-45.4
X19.08Y-20.0
X19.08Y-45.4
X21.62Y-20.0
X21.62Y-45.4
X24.16Y-20.0
X24.16Y-45.4
X26.7Y-20.0
X26.7Y-45.4
X29.24Y-20.0
X29.24Y-45.4
X31.78Y-20.0
X31.78Y-45.4
X34.32Y-20.0
X34.32Y-45.4
X35.0Y-5.0
X36.86Y-20.0
X36.86Y-45.4
X37.54Y-5.0
X39.4Y-20.0
X39.4Y-45.4
X40.08Y-5.0
X41.94Y-20.0
X41.94Y-45.4
X42.62Y-5.0
X44.48Y-20.0
X44.48Y-45.4
X46.5Y-5.0
X47.02Y-20.0
X47.02Y-45.4
X49.04Y-5.0
X49.56Y-20.0
X49.56Y-45.4
X51.58Y-5.0
X52.1Y-20.0
X52.1Y-45.4
X53.0Y-52.5
X54.12Y-5.0
X54.64Y-20.0
X54.64Y-45.4
X55.54Y-52.5
X56.66Y-5.0
X57.18Y-20.0
X57.18Y-45.4
X58.08Y-52.5
X59.2Y-5.0
X59.72Y-20.0
X59.72Y-45.4
X60.62Y-52.5
X61.74Y-5.0
X62.26Y-20.0
X62.26Y-45.4
X64.8Y-20.0
X64.8Y-45.4
X66.4Y-10.0
X67.34Y-20.0
X67.34Y-45.4
X74.0Y-10.0
X78.0Y-24.0
X78.0Y-26.54
X78.0Y-29.08
X78.0Y-31.62
X78.0Y-34.16
X78.0Y-36.7
X78.0Y-39.24
X78.0Y-41.78
T4
X20.5Y-5.0
X30.66Y-5.0
X32.5Y-12.5
X42.66Y-12.5
X66.0Y-52.0
X66.0Y-56.5
X72.5Y-52.0
X72.5Y-56.5
T5
X13.0Y-8.5
X13.0Y-13.58
T6
X4.0Y-4.0
X4.0Y-56.0
X81.0Y-4.0
X81.0Y-56.0
M30
