%TF.GenerationSoftware,KiCad,Pcbnew,9.0.7*%
%TF.CreationDate,2026-09-03T11:58:39-03:00*%
%TF.ProjectId,amemiya_main_node,616d656d-6979-4615-9f6d-61696e5f6e6f,v35.0*%
%TF.SameCoordinates,Original*%
%TF.FileFunction,Copper,L2,Bot*%
%TF.FilePolarity,Positive*%
%FSLAX46Y46*%
G04 Gerber Fmt 4.6, Leading zero omitted, Abs format (unit mm)*
G04 Created by KiCad (PCBNEW 9.0.7) date 2026-09-03 11:58:39*
%MOMM*%
%LPD*%
G01*
G04 APERTURE LIST*
%TA.AperFunction,ComponentPad*%
%ADD10R,1.800000X1.800000*%
%TD*%
%TA.AperFunction,ComponentPad*%
%ADD11C,1.800000*%
%TD*%
%TA.AperFunction,Conductor*%
%ADD12C,0.800000*%
%TD*%
G04 APERTURE END LIST*
D10*
%TO.P,U_LORA,1*%
%TO.N,+3V3*%
X78000000Y-24380000D03*
D11*
%TO.P,U_LORA,2*%
%TO.N,GND*%
X78000000Y-26920000D03*
%TO.P,U_LORA,3*%
%TO.N,LORA_TX*%
X78000000Y-29460000D03*
%TO.P,U_LORA,4*%
%TO.N,LORA_RX*%
X78000000Y-32000000D03*
%TO.P,U_LORA,5*%
%TO.N,LORA_CS*%
X78000000Y-34540000D03*
%TO.P,U_LORA,6*%
%TO.N,LORA_RST*%
X78000000Y-37080000D03*
%TO.P,U_LORA,7*%
%TO.N,N/C*%
X78000000Y-39620000D03*
%TO.P,U_LORA,8*%
X78000000Y-42160000D03*
%TD*%
D10*
%TO.P,J_TACHO,1*%
%TO.N,+3V3*%
X12000000Y-30960000D03*
D11*
%TO.P,J_TACHO,2*%
%TO.N,GND*%
X12000000Y-33500000D03*
%TO.P,J_TACHO,3*%
%TO.N,TACHO*%
X12000000Y-36040000D03*
%TD*%
D10*
%TO.P,J_AMP,1*%
%TO.N,AMP_ADC*%
X12000000Y-42730000D03*
D11*
%TO.P,J_AMP,2*%
%TO.N,GND*%
X12000000Y-45269999D03*
%TD*%
D10*
%TO.P,U_ESP_L,1*%
%TO.N,+3V3*%
X36000000Y-9140000D03*
D11*
%TO.P,U_ESP_L,2*%
%TO.N,GND*%
X36000000Y-11680000D03*
%TO.P,U_ESP_L,3*%
%TO.N,1W_DQ*%
X36000000Y-14220000D03*
%TO.P,U_ESP_L,4*%
%TO.N,I2S_SD*%
X36000000Y-16760000D03*
%TO.P,U_ESP_L,5*%
%TO.N,I2S_SCK*%
X36000000Y-19300000D03*
%TO.P,U_ESP_L,6*%
%TO.N,I2S_WS*%
X36000000Y-21840000D03*
%TO.P,U_ESP_L,7*%
%TO.N,I2C_SCL*%
X36000000Y-24380000D03*
%TO.P,U_ESP_L,8*%
%TO.N,I2C_SDA*%
X36000000Y-26920000D03*
%TO.P,U_ESP_L,9*%
%TO.N,TACHO*%
X36000000Y-29460000D03*
%TO.P,U_ESP_L,10*%
%TO.N,AMP_ADC*%
X36000000Y-32000000D03*
%TO.P,U_ESP_L,11*%
%TO.N,N/C*%
X36000000Y-34540000D03*
%TO.P,U_ESP_L,12*%
X36000000Y-37080000D03*
%TO.P,U_ESP_L,13*%
%TO.N,RGB_R*%
X36000000Y-39620000D03*
%TO.P,U_ESP_L,14*%
%TO.N,RGB_G*%
X36000000Y-42160000D03*
%TO.P,U_ESP_L,15*%
%TO.N,RGB_B*%
X36000000Y-44700000D03*
%TO.P,U_ESP_L,16*%
%TO.N,BUZZER*%
X36000000Y-47240000D03*
%TO.P,U_ESP_L,17*%
%TO.N,N/C*%
X36000000Y-49780000D03*
%TO.P,U_ESP_L,18*%
X36000000Y-52320000D03*
%TO.P,U_ESP_L,19*%
X36000000Y-54860000D03*
%TD*%
D10*
%TO.P,J_PROBE,1*%
%TO.N,+3V3*%
X12000000Y-9140000D03*
D11*
%TO.P,J_PROBE,2*%
%TO.N,GND*%
X12000000Y-11680000D03*
%TO.P,J_PROBE,3*%
%TO.N,1W_DQ*%
X12000000Y-14220000D03*
%TO.P,J_PROBE,4*%
%TO.N,I2S_SD*%
X12000000Y-16760000D03*
%TO.P,J_PROBE,5*%
%TO.N,I2S_SCK*%
X12000000Y-19300000D03*
%TO.P,J_PROBE,6*%
%TO.N,I2S_WS*%
X12000000Y-21840000D03*
%TO.P,J_PROBE,7*%
%TO.N,I2C_SCL*%
X12000000Y-24380000D03*
%TO.P,J_PROBE,8*%
%TO.N,I2C_SDA*%
X12000000Y-26920000D03*
%TD*%
D10*
%TO.P,J_BUZ,1*%
%TO.N,BUZZER*%
X46730000Y-54000000D03*
D11*
%TO.P,J_BUZ,2*%
%TO.N,GND*%
X49269999Y-54000000D03*
%TD*%
D10*
%TO.P,R_B,1*%
%TO.N,AMP_ADC*%
X18000000Y-40190000D03*
D11*
%TO.P,R_B,2*%
%TO.N,GND*%
X18000000Y-47810000D03*
%TD*%
D10*
%TO.P,J_RGB,1*%
%TO.N,RGB_R*%
X20190000Y-54000000D03*
D11*
%TO.P,J_RGB,2*%
%TO.N,RGB_G*%
X22730000Y-54000000D03*
%TO.P,J_RGB,3*%
%TO.N,RGB_B*%
X25270000Y-54000000D03*
%TO.P,J_RGB,4*%
%TO.N,GND*%
X27810000Y-54000000D03*
%TD*%
D10*
%TO.P,U_ESP_R,1*%
%TO.N,N/C*%
X61400000Y-9140000D03*
D11*
%TO.P,U_ESP_R,2*%
X61400000Y-11680000D03*
%TO.P,U_ESP_R,3*%
X61400000Y-14220000D03*
%TO.P,U_ESP_R,4*%
X61400000Y-16760000D03*
%TO.P,U_ESP_R,5*%
X61400000Y-19300000D03*
%TO.P,U_ESP_R,6*%
X61400000Y-21840000D03*
%TO.P,U_ESP_R,7*%
X61400000Y-24380000D03*
%TO.P,U_ESP_R,8*%
X61400000Y-26920000D03*
%TO.P,U_ESP_R,9*%
%TO.N,LORA_TX*%
X61400000Y-29460000D03*
%TO.P,U_ESP_R,10*%
%TO.N,LORA_RX*%
X61400000Y-32000000D03*
%TO.P,U_ESP_R,11*%
%TO.N,LORA_CS*%
X61400000Y-34540000D03*
%TO.P,U_ESP_R,12*%
%TO.N,LORA_RST*%
X61400000Y-37080000D03*
%TO.P,U_ESP_R,13*%
%TO.N,N/C*%
X61400000Y-39620000D03*
%TO.P,U_ESP_R,14*%
X61400000Y-42160000D03*
%TO.P,U_ESP_R,15*%
X61400000Y-44700000D03*
%TO.P,U_ESP_R,16*%
X61400000Y-47240000D03*
%TO.P,U_ESP_R,17*%
X61400000Y-49780000D03*
%TO.P,U_ESP_R,18*%
X61400000Y-52320000D03*
%TO.P,U_ESP_R,19*%
X61400000Y-54860000D03*
%TD*%
D10*
%TO.P,J_OLED,1*%
%TO.N,+3V3*%
X78000000Y-10190000D03*
D11*
%TO.P,J_OLED,2*%
%TO.N,GND*%
X78000000Y-12730000D03*
%TO.P,J_OLED,3*%
%TO.N,I2C_SCL*%
X78000000Y-15270000D03*
%TO.P,J_OLED,4*%
%TO.N,I2C_SDA*%
X78000000Y-17810000D03*
%TD*%
D12*
%TO.N,+3V3*%
X78000000Y-10190000D02*
X78000000Y-3500000D01*
X12000000Y-9140000D02*
X12000000Y-3500000D01*
X78000000Y-24380000D02*
X76000000Y-24380000D01*
X8000000Y-3500000D02*
X8000000Y-30960000D01*
X76000000Y-24380000D02*
X76000000Y-3500000D01*
X36000000Y-9140000D02*
X36000000Y-3500000D01*
X8000000Y-30960000D02*
X12000000Y-30960000D01*
X8000000Y-3500000D02*
X78000000Y-3500000D01*
%TO.N,GND*%
X78000000Y-26920000D02*
X82000000Y-26920000D01*
X36000000Y-11680000D02*
X32000000Y-11680000D01*
X49269999Y-54000000D02*
X49269999Y-57000000D01*
X10000000Y-57000000D02*
X82000000Y-57000000D01*
X16000000Y-47810000D02*
X16000000Y-57000000D01*
X10000000Y-33500000D02*
X10000000Y-57000000D01*
X27810000Y-54000000D02*
X27810000Y-57000000D01*
X82000000Y-12730000D02*
X82000000Y-57000000D01*
X18000000Y-47810000D02*
X16000000Y-47810000D01*
X78000000Y-12730000D02*
X82000000Y-12730000D01*
X12000000Y-11680000D02*
X36000000Y-11680000D01*
X12000000Y-33500000D02*
X10000000Y-33500000D01*
X12000000Y-45269999D02*
X10000000Y-45269999D01*
X32000000Y-11680000D02*
X32000000Y-57000000D01*
%TD*%
M02*
