%TF.GenerationSoftware,KiCad,Pcbnew,9.0.7*%
%TF.CreationDate,2026-09-03T11:58:39-03:00*%
%TF.ProjectId,amemiya_main_node,616d656d-6979-4615-9f6d-61696e5f6e6f,v35.0*%
%TF.SameCoordinates,Original*%
%TF.FileFunction,Soldermask,Top*%
%TF.FilePolarity,Negative*%
%FSLAX46Y46*%
G04 Gerber Fmt 4.6, Leading zero omitted, Abs format (unit mm)*
G04 Created by KiCad (PCBNEW 9.0.7) date 2026-09-03 11:58:39*
%MOMM*%
%LPD*%
G01*
G04 APERTURE LIST*
%ADD10R,1.800000X1.800000*%
%ADD11C,1.800000*%
%ADD12C,3.200000*%
G04 APERTURE END LIST*
D10*
%TO.C,U_LORA*%
X78000000Y-24380000D03*
D11*
X78000000Y-26920000D03*
X78000000Y-29460000D03*
X78000000Y-32000000D03*
X78000000Y-34540000D03*
X78000000Y-37080000D03*
X78000000Y-39620000D03*
X78000000Y-42160000D03*
%TD*%
D10*
%TO.C,J_TACHO*%
X12000000Y-30960000D03*
D11*
X12000000Y-33500000D03*
X12000000Y-36040000D03*
%TD*%
D10*
%TO.C,J_AMP*%
X12000000Y-42730000D03*
D11*
X12000000Y-45269999D03*
%TD*%
D10*
%TO.C,U_ESP_L*%
X36000000Y-9140000D03*
D11*
X36000000Y-11680000D03*
X36000000Y-14220000D03*
X36000000Y-16760000D03*
X36000000Y-19300000D03*
X36000000Y-21840000D03*
X36000000Y-24380000D03*
X36000000Y-26920000D03*
X36000000Y-29460000D03*
X36000000Y-32000000D03*
X36000000Y-34540000D03*
X36000000Y-37080000D03*
X36000000Y-39620000D03*
X36000000Y-42160000D03*
X36000000Y-44700000D03*
X36000000Y-47240000D03*
X36000000Y-49780000D03*
X36000000Y-52320000D03*
X36000000Y-54860000D03*
%TD*%
D10*
%TO.C,J_PROBE*%
X12000000Y-9140000D03*
D11*
X12000000Y-11680000D03*
X12000000Y-14220000D03*
X12000000Y-16760000D03*
X12000000Y-19300000D03*
X12000000Y-21840000D03*
X12000000Y-24380000D03*
X12000000Y-26920000D03*
%TD*%
D12*
%TO.C,H*%
X85500000Y-4500000D03*
%TD*%
%TO.C,H*%
X4500000Y-60500000D03*
%TD*%
D10*
%TO.C,J_BUZ*%
X46730000Y-54000000D03*
D11*
X49269999Y-54000000D03*
%TD*%
D10*
%TO.C,R_B*%
X18000000Y-40190000D03*
D11*
X18000000Y-47810000D03*
%TD*%
D12*
%TO.C,H*%
X4500000Y-4500000D03*
%TD*%
%TO.C,H*%
X85500000Y-60500000D03*
%TD*%
D10*
%TO.C,J_RGB*%
X20190000Y-54000000D03*
D11*
X22730000Y-54000000D03*
X25270000Y-54000000D03*
X27810000Y-54000000D03*
%TD*%
D10*
%TO.C,U_ESP_R*%
X61400000Y-9140000D03*
D11*
X61400000Y-11680000D03*
X61400000Y-14220000D03*
X61400000Y-16760000D03*
X61400000Y-19300000D03*
X61400000Y-21840000D03*
X61400000Y-24380000D03*
X61400000Y-26920000D03*
X61400000Y-29460000D03*
X61400000Y-32000000D03*
X61400000Y-34540000D03*
X61400000Y-37080000D03*
X61400000Y-39620000D03*
X61400000Y-42160000D03*
X61400000Y-44700000D03*
X61400000Y-47240000D03*
X61400000Y-49780000D03*
X61400000Y-52320000D03*
X61400000Y-54860000D03*
%TD*%
D10*
%TO.C,J_OLED*%
X78000000Y-10190000D03*
D11*
X78000000Y-12730000D03*
X78000000Y-15270000D03*
X78000000Y-17810000D03*
%TD*%
M02*
