ISO-10303-21;
HEADER;
/* Generated by software containing ST-Developer
 * from STEP Tools, Inc. (www.steptools.com) 
 */

FILE_DESCRIPTION(
/* description */ (''),
/* implementation_level */ '2;1');

FILE_NAME(
/* name */ '03_Placa_Base_Desalinhamento_Motor.step',
/* time_stamp */ '2026-09-24T09:43:59-03:00',
/* author */ (''),
/* organization */ (''),
/* preprocessor_version */ 'ST-DEVELOPER v20.2',
/* originating_system */ 'Autodesk Translation Framework v15.15.0.0',
/* authorisation */ '');

FILE_SCHEMA (('AUTOMOTIVE_DESIGN { 1 0 10303 214 3 1 1 }'));
ENDSEC;

DATA;
#10=MECHANICAL_DESIGN_GEOMETRIC_PRESENTATION_REPRESENTATION('',(#13),#1187);
#11=SHAPE_REPRESENTATION_RELATIONSHIP('SRR','None',#1194,#12);
#12=ADVANCED_BREP_SHAPE_REPRESENTATION('',(#14),#1186);
#13=STYLED_ITEM('',(#1204),#14);
#14=MANIFOLD_SOLID_BREP('Corpo1',#711);
#15=CYLINDRICAL_SURFACE('',#748,4.);
#16=CYLINDRICAL_SURFACE('',#750,4.);
#17=CYLINDRICAL_SURFACE('',#752,4.);
#18=CYLINDRICAL_SURFACE('',#754,4.);
#19=CYLINDRICAL_SURFACE('',#757,5.75);
#20=CYLINDRICAL_SURFACE('',#760,5.74999999999999);
#21=CYLINDRICAL_SURFACE('',#763,5.74999999999999);
#22=CYLINDRICAL_SURFACE('',#766,5.75);
#23=CYLINDRICAL_SURFACE('',#769,5.74999999999999);
#24=CYLINDRICAL_SURFACE('',#772,5.75);
#25=CYLINDRICAL_SURFACE('',#775,5.75);
#26=CYLINDRICAL_SURFACE('',#778,5.74999999999999);
#27=CYLINDRICAL_SURFACE('',#780,4.5);
#28=CYLINDRICAL_SURFACE('',#782,4.5);
#29=CYLINDRICAL_SURFACE('',#784,4.5);
#30=CYLINDRICAL_SURFACE('',#786,4.5);
#31=FACE_BOUND('',#124,.T.);
#32=FACE_BOUND('',#125,.T.);
#33=FACE_BOUND('',#126,.T.);
#34=FACE_BOUND('',#127,.T.);
#35=FACE_BOUND('',#128,.T.);
#36=FACE_BOUND('',#129,.T.);
#37=FACE_BOUND('',#130,.T.);
#38=FACE_BOUND('',#131,.T.);
#39=FACE_BOUND('',#132,.T.);
#40=FACE_BOUND('',#133,.T.);
#41=FACE_BOUND('',#134,.T.);
#42=FACE_BOUND('',#135,.T.);
#43=FACE_BOUND('',#167,.T.);
#44=FACE_BOUND('',#168,.T.);
#45=FACE_BOUND('',#169,.T.);
#46=FACE_BOUND('',#170,.T.);
#47=FACE_BOUND('',#171,.T.);
#48=FACE_BOUND('',#172,.T.);
#49=FACE_BOUND('',#173,.T.);
#50=FACE_BOUND('',#174,.T.);
#51=FACE_BOUND('',#175,.T.);
#52=FACE_BOUND('',#176,.T.);
#53=FACE_BOUND('',#177,.T.);
#54=FACE_BOUND('',#178,.T.);
#55=CIRCLE('',#728,5.74999999999999);
#56=CIRCLE('',#729,5.75);
#57=CIRCLE('',#730,5.75);
#58=CIRCLE('',#731,5.74999999999999);
#59=CIRCLE('',#732,5.75);
#60=CIRCLE('',#733,5.74999999999999);
#61=CIRCLE('',#734,5.74999999999999);
#62=CIRCLE('',#735,5.75);
#63=CIRCLE('',#736,4.5);
#64=CIRCLE('',#737,4.5);
#65=CIRCLE('',#738,4.5);
#66=CIRCLE('',#739,4.5);
#67=CIRCLE('',#740,4.);
#68=CIRCLE('',#741,4.);
#69=CIRCLE('',#742,4.);
#70=CIRCLE('',#743,4.);
#71=CIRCLE('',#749,4.);
#72=CIRCLE('',#751,4.);
#73=CIRCLE('',#753,4.);
#74=CIRCLE('',#755,4.);
#75=CIRCLE('',#758,5.75);
#76=CIRCLE('',#761,5.74999999999999);
#77=CIRCLE('',#764,5.74999999999999);
#78=CIRCLE('',#767,5.75);
#79=CIRCLE('',#770,5.74999999999999);
#80=CIRCLE('',#773,5.75);
#81=CIRCLE('',#776,5.75);
#82=CIRCLE('',#779,5.74999999999999);
#83=CIRCLE('',#781,4.5);
#84=CIRCLE('',#783,4.5);
#85=CIRCLE('',#785,4.5);
#86=CIRCLE('',#787,4.5);
#87=FACE_OUTER_BOUND('',#121,.T.);
#88=FACE_OUTER_BOUND('',#122,.T.);
#89=FACE_OUTER_BOUND('',#123,.T.);
#90=FACE_OUTER_BOUND('',#136,.T.);
#91=FACE_OUTER_BOUND('',#137,.T.);
#92=FACE_OUTER_BOUND('',#138,.T.);
#93=FACE_OUTER_BOUND('',#139,.T.);
#94=FACE_OUTER_BOUND('',#140,.T.);
#95=FACE_OUTER_BOUND('',#141,.T.);
#96=FACE_OUTER_BOUND('',#142,.T.);
#97=FACE_OUTER_BOUND('',#143,.T.);
#98=FACE_OUTER_BOUND('',#144,.T.);
#99=FACE_OUTER_BOUND('',#145,.T.);
#100=FACE_OUTER_BOUND('',#146,.T.);
#101=FACE_OUTER_BOUND('',#147,.T.);
#102=FACE_OUTER_BOUND('',#148,.T.);
#103=FACE_OUTER_BOUND('',#149,.T.);
#104=FACE_OUTER_BOUND('',#150,.T.);
#105=FACE_OUTER_BOUND('',#151,.T.);
#106=FACE_OUTER_BOUND('',#152,.T.);
#107=FACE_OUTER_BOUND('',#153,.T.);
#108=FACE_OUTER_BOUND('',#154,.T.);
#109=FACE_OUTER_BOUND('',#155,.T.);
#110=FACE_OUTER_BOUND('',#156,.T.);
#111=FACE_OUTER_BOUND('',#157,.T.);
#112=FACE_OUTER_BOUND('',#158,.T.);
#113=FACE_OUTER_BOUND('',#159,.T.);
#114=FACE_OUTER_BOUND('',#160,.T.);
#115=FACE_OUTER_BOUND('',#161,.T.);
#116=FACE_OUTER_BOUND('',#162,.T.);
#117=FACE_OUTER_BOUND('',#163,.T.);
#118=FACE_OUTER_BOUND('',#164,.T.);
#119=FACE_OUTER_BOUND('',#165,.T.);
#120=FACE_OUTER_BOUND('',#166,.T.);
#121=EDGE_LOOP('',(#467,#468,#469,#470));
#122=EDGE_LOOP('',(#471,#472,#473,#474));
#123=EDGE_LOOP('',(#475,#476,#477,#478,#479,#480,#481,#482));
#124=EDGE_LOOP('',(#483,#484,#485,#486));
#125=EDGE_LOOP('',(#487,#488,#489,#490));
#126=EDGE_LOOP('',(#491,#492,#493,#494));
#127=EDGE_LOOP('',(#495,#496,#497,#498));
#128=EDGE_LOOP('',(#499));
#129=EDGE_LOOP('',(#500));
#130=EDGE_LOOP('',(#501));
#131=EDGE_LOOP('',(#502));
#132=EDGE_LOOP('',(#503));
#133=EDGE_LOOP('',(#504));
#134=EDGE_LOOP('',(#505));
#135=EDGE_LOOP('',(#506));
#136=EDGE_LOOP('',(#507,#508,#509,#510));
#137=EDGE_LOOP('',(#511,#512,#513,#514));
#138=EDGE_LOOP('',(#515,#516,#517,#518));
#139=EDGE_LOOP('',(#519,#520,#521,#522));
#140=EDGE_LOOP('',(#523,#524,#525,#526));
#141=EDGE_LOOP('',(#527,#528,#529,#530));
#142=EDGE_LOOP('',(#531,#532,#533,#534));
#143=EDGE_LOOP('',(#535,#536,#537,#538));
#144=EDGE_LOOP('',(#539,#540,#541,#542));
#145=EDGE_LOOP('',(#543,#544,#545,#546));
#146=EDGE_LOOP('',(#547,#548,#549,#550));
#147=EDGE_LOOP('',(#551,#552,#553,#554));
#148=EDGE_LOOP('',(#555,#556,#557,#558));
#149=EDGE_LOOP('',(#559,#560,#561,#562));
#150=EDGE_LOOP('',(#563,#564,#565,#566));
#151=EDGE_LOOP('',(#567,#568,#569,#570));
#152=EDGE_LOOP('',(#571,#572,#573,#574));
#153=EDGE_LOOP('',(#575,#576,#577,#578));
#154=EDGE_LOOP('',(#579,#580,#581,#582));
#155=EDGE_LOOP('',(#583,#584,#585,#586));
#156=EDGE_LOOP('',(#587,#588,#589,#590));
#157=EDGE_LOOP('',(#591,#592,#593,#594));
#158=EDGE_LOOP('',(#595,#596,#597,#598));
#159=EDGE_LOOP('',(#599,#600,#601,#602));
#160=EDGE_LOOP('',(#603,#604,#605,#606));
#161=EDGE_LOOP('',(#607,#608,#609,#610));
#162=EDGE_LOOP('',(#611,#612,#613,#614));
#163=EDGE_LOOP('',(#615,#616,#617,#618));
#164=EDGE_LOOP('',(#619,#620,#621,#622));
#165=EDGE_LOOP('',(#623,#624,#625,#626));
#166=EDGE_LOOP('',(#627,#628,#629,#630,#631,#632,#633,#634));
#167=EDGE_LOOP('',(#635,#636,#637,#638));
#168=EDGE_LOOP('',(#639,#640,#641,#642));
#169=EDGE_LOOP('',(#643,#644,#645,#646));
#170=EDGE_LOOP('',(#647,#648,#649,#650));
#171=EDGE_LOOP('',(#651));
#172=EDGE_LOOP('',(#652));
#173=EDGE_LOOP('',(#653));
#174=EDGE_LOOP('',(#654));
#175=EDGE_LOOP('',(#655));
#176=EDGE_LOOP('',(#656));
#177=EDGE_LOOP('',(#657));
#178=EDGE_LOOP('',(#658));
#179=LINE('',#993,#243);
#180=LINE('',#995,#244);
#181=LINE('',#997,#245);
#182=LINE('',#998,#246);
#183=LINE('',#1001,#247);
#184=LINE('',#1003,#248);
#185=LINE('',#1004,#249);
#186=LINE('',#1007,#250);
#187=LINE('',#1009,#251);
#188=LINE('',#1011,#252);
#189=LINE('',#1013,#253);
#190=LINE('',#1015,#254);
#191=LINE('',#1016,#255);
#192=LINE('',#1019,#256);
#193=LINE('',#1023,#257);
#194=LINE('',#1027,#258);
#195=LINE('',#1031,#259);
#196=LINE('',#1035,#260);
#197=LINE('',#1039,#261);
#198=LINE('',#1043,#262);
#199=LINE('',#1047,#263);
#200=LINE('',#1067,#264);
#201=LINE('',#1069,#265);
#202=LINE('',#1070,#266);
#203=LINE('',#1073,#267);
#204=LINE('',#1074,#268);
#205=LINE('',#1077,#269);
#206=LINE('',#1078,#270);
#207=LINE('',#1081,#271);
#208=LINE('',#1082,#272);
#209=LINE('',#1086,#273);
#210=LINE('',#1090,#274);
#211=LINE('',#1094,#275);
#212=LINE('',#1098,#276);
#213=LINE('',#1101,#277);
#214=LINE('',#1103,#278);
#215=LINE('',#1104,#279);
#216=LINE('',#1108,#280);
#217=LINE('',#1111,#281);
#218=LINE('',#1112,#282);
#219=LINE('',#1117,#283);
#220=LINE('',#1119,#284);
#221=LINE('',#1120,#285);
#222=LINE('',#1124,#286);
#223=LINE('',#1127,#287);
#224=LINE('',#1128,#288);
#225=LINE('',#1133,#289);
#226=LINE('',#1135,#290);
#227=LINE('',#1136,#291);
#228=LINE('',#1140,#292);
#229=LINE('',#1143,#293);
#230=LINE('',#1144,#294);
#231=LINE('',#1149,#295);
#232=LINE('',#1151,#296);
#233=LINE('',#1152,#297);
#234=LINE('',#1156,#298);
#235=LINE('',#1159,#299);
#236=LINE('',#1160,#300);
#237=LINE('',#1166,#301);
#238=LINE('',#1170,#302);
#239=LINE('',#1174,#303);
#240=LINE('',#1178,#304);
#241=LINE('',#1180,#305);
#242=LINE('',#1182,#306);
#243=VECTOR('',#795,10.);
#244=VECTOR('',#796,10.);
#245=VECTOR('',#797,10.);
#246=VECTOR('',#798,10.);
#247=VECTOR('',#801,10.);
#248=VECTOR('',#802,10.);
#249=VECTOR('',#803,10.);
#250=VECTOR('',#806,10.);
#251=VECTOR('',#807,10.);
#252=VECTOR('',#808,10.);
#253=VECTOR('',#809,10.);
#254=VECTOR('',#810,10.);
#255=VECTOR('',#811,10.);
#256=VECTOR('',#812,10.);
#257=VECTOR('',#815,10.);
#258=VECTOR('',#818,10.);
#259=VECTOR('',#821,10.);
#260=VECTOR('',#824,10.);
#261=VECTOR('',#827,10.);
#262=VECTOR('',#830,10.);
#263=VECTOR('',#833,10.);
#264=VECTOR('',#854,10.);
#265=VECTOR('',#855,10.);
#266=VECTOR('',#856,10.);
#267=VECTOR('',#859,10.);
#268=VECTOR('',#860,10.);
#269=VECTOR('',#863,10.);
#270=VECTOR('',#864,10.);
#271=VECTOR('',#867,10.);
#272=VECTOR('',#868,10.);
#273=VECTOR('',#873,4.);
#274=VECTOR('',#878,4.);
#275=VECTOR('',#883,4.);
#276=VECTOR('',#888,4.);
#277=VECTOR('',#891,10.);
#278=VECTOR('',#892,10.);
#279=VECTOR('',#893,10.);
#280=VECTOR('',#898,10.);
#281=VECTOR('',#901,10.);
#282=VECTOR('',#902,10.);
#283=VECTOR('',#909,10.);
#284=VECTOR('',#910,10.);
#285=VECTOR('',#911,10.);
#286=VECTOR('',#916,10.);
#287=VECTOR('',#919,10.);
#288=VECTOR('',#920,10.);
#289=VECTOR('',#927,10.);
#290=VECTOR('',#928,10.);
#291=VECTOR('',#929,10.);
#292=VECTOR('',#934,10.);
#293=VECTOR('',#937,10.);
#294=VECTOR('',#938,10.);
#295=VECTOR('',#945,10.);
#296=VECTOR('',#946,10.);
#297=VECTOR('',#947,10.);
#298=VECTOR('',#952,10.);
#299=VECTOR('',#955,10.);
#300=VECTOR('',#956,10.);
#301=VECTOR('',#965,4.5);
#302=VECTOR('',#970,4.5);
#303=VECTOR('',#975,4.5);
#304=VECTOR('',#980,4.5);
#305=VECTOR('',#983,10.);
#306=VECTOR('',#986,10.);
#307=VERTEX_POINT('',#991);
#308=VERTEX_POINT('',#992);
#309=VERTEX_POINT('',#994);
#310=VERTEX_POINT('',#996);
#311=VERTEX_POINT('',#1000);
#312=VERTEX_POINT('',#1002);
#313=VERTEX_POINT('',#1006);
#314=VERTEX_POINT('',#1008);
#315=VERTEX_POINT('',#1010);
#316=VERTEX_POINT('',#1012);
#317=VERTEX_POINT('',#1014);
#318=VERTEX_POINT('',#1017);
#319=VERTEX_POINT('',#1018);
#320=VERTEX_POINT('',#1020);
#321=VERTEX_POINT('',#1022);
#322=VERTEX_POINT('',#1025);
#323=VERTEX_POINT('',#1026);
#324=VERTEX_POINT('',#1028);
#325=VERTEX_POINT('',#1030);
#326=VERTEX_POINT('',#1033);
#327=VERTEX_POINT('',#1034);
#328=VERTEX_POINT('',#1036);
#329=VERTEX_POINT('',#1038);
#330=VERTEX_POINT('',#1041);
#331=VERTEX_POINT('',#1042);
#332=VERTEX_POINT('',#1044);
#333=VERTEX_POINT('',#1046);
#334=VERTEX_POINT('',#1049);
#335=VERTEX_POINT('',#1051);
#336=VERTEX_POINT('',#1053);
#337=VERTEX_POINT('',#1055);
#338=VERTEX_POINT('',#1057);
#339=VERTEX_POINT('',#1059);
#340=VERTEX_POINT('',#1061);
#341=VERTEX_POINT('',#1063);
#342=VERTEX_POINT('',#1066);
#343=VERTEX_POINT('',#1068);
#344=VERTEX_POINT('',#1072);
#345=VERTEX_POINT('',#1076);
#346=VERTEX_POINT('',#1080);
#347=VERTEX_POINT('',#1084);
#348=VERTEX_POINT('',#1088);
#349=VERTEX_POINT('',#1092);
#350=VERTEX_POINT('',#1096);
#351=VERTEX_POINT('',#1100);
#352=VERTEX_POINT('',#1102);
#353=VERTEX_POINT('',#1106);
#354=VERTEX_POINT('',#1110);
#355=VERTEX_POINT('',#1116);
#356=VERTEX_POINT('',#1118);
#357=VERTEX_POINT('',#1122);
#358=VERTEX_POINT('',#1126);
#359=VERTEX_POINT('',#1132);
#360=VERTEX_POINT('',#1134);
#361=VERTEX_POINT('',#1138);
#362=VERTEX_POINT('',#1142);
#363=VERTEX_POINT('',#1148);
#364=VERTEX_POINT('',#1150);
#365=VERTEX_POINT('',#1154);
#366=VERTEX_POINT('',#1158);
#367=VERTEX_POINT('',#1164);
#368=VERTEX_POINT('',#1168);
#369=VERTEX_POINT('',#1172);
#370=VERTEX_POINT('',#1176);
#371=EDGE_CURVE('',#307,#308,#179,.T.);
#372=EDGE_CURVE('',#308,#309,#180,.T.);
#373=EDGE_CURVE('',#309,#310,#181,.T.);
#374=EDGE_CURVE('',#310,#307,#182,.T.);
#375=EDGE_CURVE('',#311,#308,#183,.T.);
#376=EDGE_CURVE('',#312,#311,#184,.T.);
#377=EDGE_CURVE('',#312,#309,#185,.T.);
#378=EDGE_CURVE('',#307,#313,#186,.T.);
#379=EDGE_CURVE('',#314,#313,#187,.T.);
#380=EDGE_CURVE('',#314,#315,#188,.T.);
#381=EDGE_CURVE('',#316,#315,#189,.T.);
#382=EDGE_CURVE('',#316,#317,#190,.T.);
#383=EDGE_CURVE('',#311,#317,#191,.T.);
#384=EDGE_CURVE('',#318,#319,#192,.T.);
#385=EDGE_CURVE('',#319,#320,#55,.T.);
#386=EDGE_CURVE('',#320,#321,#193,.T.);
#387=EDGE_CURVE('',#321,#318,#56,.T.);
#388=EDGE_CURVE('',#322,#323,#194,.T.);
#389=EDGE_CURVE('',#323,#324,#57,.T.);
#390=EDGE_CURVE('',#324,#325,#195,.T.);
#391=EDGE_CURVE('',#325,#322,#58,.T.);
#392=EDGE_CURVE('',#326,#327,#196,.T.);
#393=EDGE_CURVE('',#327,#328,#59,.T.);
#394=EDGE_CURVE('',#328,#329,#197,.T.);
#395=EDGE_CURVE('',#329,#326,#60,.T.);
#396=EDGE_CURVE('',#330,#331,#198,.T.);
#397=EDGE_CURVE('',#331,#332,#61,.T.);
#398=EDGE_CURVE('',#332,#333,#199,.T.);
#399=EDGE_CURVE('',#333,#330,#62,.T.);
#400=EDGE_CURVE('',#334,#334,#63,.T.);
#401=EDGE_CURVE('',#335,#335,#64,.T.);
#402=EDGE_CURVE('',#336,#336,#65,.T.);
#403=EDGE_CURVE('',#337,#337,#66,.T.);
#404=EDGE_CURVE('',#338,#338,#67,.T.);
#405=EDGE_CURVE('',#339,#339,#68,.T.);
#406=EDGE_CURVE('',#340,#340,#69,.T.);
#407=EDGE_CURVE('',#341,#341,#70,.T.);
#408=EDGE_CURVE('',#313,#342,#200,.T.);
#409=EDGE_CURVE('',#342,#343,#201,.T.);
#410=EDGE_CURVE('',#343,#314,#202,.T.);
#411=EDGE_CURVE('',#343,#344,#203,.T.);
#412=EDGE_CURVE('',#315,#344,#204,.T.);
#413=EDGE_CURVE('',#344,#345,#205,.T.);
#414=EDGE_CURVE('',#345,#316,#206,.T.);
#415=EDGE_CURVE('',#317,#346,#207,.T.);
#416=EDGE_CURVE('',#346,#312,#208,.T.);
#417=EDGE_CURVE('',#347,#347,#71,.T.);
#418=EDGE_CURVE('',#347,#341,#209,.T.);
#419=EDGE_CURVE('',#348,#348,#72,.T.);
#420=EDGE_CURVE('',#348,#340,#210,.T.);
#421=EDGE_CURVE('',#349,#349,#73,.T.);
#422=EDGE_CURVE('',#349,#339,#211,.T.);
#423=EDGE_CURVE('',#350,#350,#74,.T.);
#424=EDGE_CURVE('',#350,#338,#212,.T.);
#425=EDGE_CURVE('',#351,#320,#213,.T.);
#426=EDGE_CURVE('',#352,#351,#214,.T.);
#427=EDGE_CURVE('',#352,#321,#215,.T.);
#428=EDGE_CURVE('',#353,#352,#75,.T.);
#429=EDGE_CURVE('',#353,#318,#216,.T.);
#430=EDGE_CURVE('',#354,#353,#217,.T.);
#431=EDGE_CURVE('',#354,#319,#218,.T.);
#432=EDGE_CURVE('',#351,#354,#76,.T.);
#433=EDGE_CURVE('',#355,#324,#219,.T.);
#434=EDGE_CURVE('',#356,#355,#220,.T.);
#435=EDGE_CURVE('',#356,#325,#221,.T.);
#436=EDGE_CURVE('',#357,#356,#77,.T.);
#437=EDGE_CURVE('',#357,#322,#222,.T.);
#438=EDGE_CURVE('',#358,#357,#223,.T.);
#439=EDGE_CURVE('',#358,#323,#224,.T.);
#440=EDGE_CURVE('',#355,#358,#78,.T.);
#441=EDGE_CURVE('',#359,#328,#225,.T.);
#442=EDGE_CURVE('',#360,#359,#226,.T.);
#443=EDGE_CURVE('',#360,#329,#227,.T.);
#444=EDGE_CURVE('',#361,#360,#79,.T.);
#445=EDGE_CURVE('',#361,#326,#228,.T.);
#446=EDGE_CURVE('',#362,#361,#229,.T.);
#447=EDGE_CURVE('',#362,#327,#230,.T.);
#448=EDGE_CURVE('',#359,#362,#80,.T.);
#449=EDGE_CURVE('',#363,#332,#231,.T.);
#450=EDGE_CURVE('',#364,#363,#232,.T.);
#451=EDGE_CURVE('',#364,#333,#233,.T.);
#452=EDGE_CURVE('',#365,#364,#81,.T.);
#453=EDGE_CURVE('',#365,#330,#234,.T.);
#454=EDGE_CURVE('',#366,#365,#235,.T.);
#455=EDGE_CURVE('',#366,#331,#236,.T.);
#456=EDGE_CURVE('',#363,#366,#82,.T.);
#457=EDGE_CURVE('',#367,#367,#83,.T.);
#458=EDGE_CURVE('',#367,#334,#237,.T.);
#459=EDGE_CURVE('',#368,#368,#84,.T.);
#460=EDGE_CURVE('',#368,#335,#238,.T.);
#461=EDGE_CURVE('',#369,#369,#85,.T.);
#462=EDGE_CURVE('',#369,#336,#239,.T.);
#463=EDGE_CURVE('',#370,#370,#86,.T.);
#464=EDGE_CURVE('',#370,#337,#240,.T.);
#465=EDGE_CURVE('',#345,#346,#241,.T.);
#466=EDGE_CURVE('',#310,#342,#242,.T.);
#467=ORIENTED_EDGE('',*,*,#371,.T.);
#468=ORIENTED_EDGE('',*,*,#372,.T.);
#469=ORIENTED_EDGE('',*,*,#373,.T.);
#470=ORIENTED_EDGE('',*,*,#374,.T.);
#471=ORIENTED_EDGE('',*,*,#372,.F.);
#472=ORIENTED_EDGE('',*,*,#375,.F.);
#473=ORIENTED_EDGE('',*,*,#376,.F.);
#474=ORIENTED_EDGE('',*,*,#377,.T.);
#475=ORIENTED_EDGE('',*,*,#371,.F.);
#476=ORIENTED_EDGE('',*,*,#378,.T.);
#477=ORIENTED_EDGE('',*,*,#379,.F.);
#478=ORIENTED_EDGE('',*,*,#380,.T.);
#479=ORIENTED_EDGE('',*,*,#381,.F.);
#480=ORIENTED_EDGE('',*,*,#382,.T.);
#481=ORIENTED_EDGE('',*,*,#383,.F.);
#482=ORIENTED_EDGE('',*,*,#375,.T.);
#483=ORIENTED_EDGE('',*,*,#384,.T.);
#484=ORIENTED_EDGE('',*,*,#385,.T.);
#485=ORIENTED_EDGE('',*,*,#386,.T.);
#486=ORIENTED_EDGE('',*,*,#387,.T.);
#487=ORIENTED_EDGE('',*,*,#388,.T.);
#488=ORIENTED_EDGE('',*,*,#389,.T.);
#489=ORIENTED_EDGE('',*,*,#390,.T.);
#490=ORIENTED_EDGE('',*,*,#391,.T.);
#491=ORIENTED_EDGE('',*,*,#392,.T.);
#492=ORIENTED_EDGE('',*,*,#393,.T.);
#493=ORIENTED_EDGE('',*,*,#394,.T.);
#494=ORIENTED_EDGE('',*,*,#395,.T.);
#495=ORIENTED_EDGE('',*,*,#396,.T.);
#496=ORIENTED_EDGE('',*,*,#397,.T.);
#497=ORIENTED_EDGE('',*,*,#398,.T.);
#498=ORIENTED_EDGE('',*,*,#399,.T.);
#499=ORIENTED_EDGE('',*,*,#400,.T.);
#500=ORIENTED_EDGE('',*,*,#401,.T.);
#501=ORIENTED_EDGE('',*,*,#402,.T.);
#502=ORIENTED_EDGE('',*,*,#403,.T.);
#503=ORIENTED_EDGE('',*,*,#404,.T.);
#504=ORIENTED_EDGE('',*,*,#405,.T.);
#505=ORIENTED_EDGE('',*,*,#406,.T.);
#506=ORIENTED_EDGE('',*,*,#407,.T.);
#507=ORIENTED_EDGE('',*,*,#379,.T.);
#508=ORIENTED_EDGE('',*,*,#408,.T.);
#509=ORIENTED_EDGE('',*,*,#409,.T.);
#510=ORIENTED_EDGE('',*,*,#410,.T.);
#511=ORIENTED_EDGE('',*,*,#410,.F.);
#512=ORIENTED_EDGE('',*,*,#411,.T.);
#513=ORIENTED_EDGE('',*,*,#412,.F.);
#514=ORIENTED_EDGE('',*,*,#380,.F.);
#515=ORIENTED_EDGE('',*,*,#381,.T.);
#516=ORIENTED_EDGE('',*,*,#412,.T.);
#517=ORIENTED_EDGE('',*,*,#413,.T.);
#518=ORIENTED_EDGE('',*,*,#414,.T.);
#519=ORIENTED_EDGE('',*,*,#383,.T.);
#520=ORIENTED_EDGE('',*,*,#415,.T.);
#521=ORIENTED_EDGE('',*,*,#416,.T.);
#522=ORIENTED_EDGE('',*,*,#376,.T.);
#523=ORIENTED_EDGE('',*,*,#417,.F.);
#524=ORIENTED_EDGE('',*,*,#418,.T.);
#525=ORIENTED_EDGE('',*,*,#407,.F.);
#526=ORIENTED_EDGE('',*,*,#418,.F.);
#527=ORIENTED_EDGE('',*,*,#419,.F.);
#528=ORIENTED_EDGE('',*,*,#420,.T.);
#529=ORIENTED_EDGE('',*,*,#406,.F.);
#530=ORIENTED_EDGE('',*,*,#420,.F.);
#531=ORIENTED_EDGE('',*,*,#421,.F.);
#532=ORIENTED_EDGE('',*,*,#422,.T.);
#533=ORIENTED_EDGE('',*,*,#405,.F.);
#534=ORIENTED_EDGE('',*,*,#422,.F.);
#535=ORIENTED_EDGE('',*,*,#423,.F.);
#536=ORIENTED_EDGE('',*,*,#424,.T.);
#537=ORIENTED_EDGE('',*,*,#404,.F.);
#538=ORIENTED_EDGE('',*,*,#424,.F.);
#539=ORIENTED_EDGE('',*,*,#386,.F.);
#540=ORIENTED_EDGE('',*,*,#425,.F.);
#541=ORIENTED_EDGE('',*,*,#426,.F.);
#542=ORIENTED_EDGE('',*,*,#427,.T.);
#543=ORIENTED_EDGE('',*,*,#387,.F.);
#544=ORIENTED_EDGE('',*,*,#427,.F.);
#545=ORIENTED_EDGE('',*,*,#428,.F.);
#546=ORIENTED_EDGE('',*,*,#429,.T.);
#547=ORIENTED_EDGE('',*,*,#384,.F.);
#548=ORIENTED_EDGE('',*,*,#429,.F.);
#549=ORIENTED_EDGE('',*,*,#430,.F.);
#550=ORIENTED_EDGE('',*,*,#431,.T.);
#551=ORIENTED_EDGE('',*,*,#385,.F.);
#552=ORIENTED_EDGE('',*,*,#431,.F.);
#553=ORIENTED_EDGE('',*,*,#432,.F.);
#554=ORIENTED_EDGE('',*,*,#425,.T.);
#555=ORIENTED_EDGE('',*,*,#390,.F.);
#556=ORIENTED_EDGE('',*,*,#433,.F.);
#557=ORIENTED_EDGE('',*,*,#434,.F.);
#558=ORIENTED_EDGE('',*,*,#435,.T.);
#559=ORIENTED_EDGE('',*,*,#391,.F.);
#560=ORIENTED_EDGE('',*,*,#435,.F.);
#561=ORIENTED_EDGE('',*,*,#436,.F.);
#562=ORIENTED_EDGE('',*,*,#437,.T.);
#563=ORIENTED_EDGE('',*,*,#388,.F.);
#564=ORIENTED_EDGE('',*,*,#437,.F.);
#565=ORIENTED_EDGE('',*,*,#438,.F.);
#566=ORIENTED_EDGE('',*,*,#439,.T.);
#567=ORIENTED_EDGE('',*,*,#389,.F.);
#568=ORIENTED_EDGE('',*,*,#439,.F.);
#569=ORIENTED_EDGE('',*,*,#440,.F.);
#570=ORIENTED_EDGE('',*,*,#433,.T.);
#571=ORIENTED_EDGE('',*,*,#394,.F.);
#572=ORIENTED_EDGE('',*,*,#441,.F.);
#573=ORIENTED_EDGE('',*,*,#442,.F.);
#574=ORIENTED_EDGE('',*,*,#443,.T.);
#575=ORIENTED_EDGE('',*,*,#395,.F.);
#576=ORIENTED_EDGE('',*,*,#443,.F.);
#577=ORIENTED_EDGE('',*,*,#444,.F.);
#578=ORIENTED_EDGE('',*,*,#445,.T.);
#579=ORIENTED_EDGE('',*,*,#392,.F.);
#580=ORIENTED_EDGE('',*,*,#445,.F.);
#581=ORIENTED_EDGE('',*,*,#446,.F.);
#582=ORIENTED_EDGE('',*,*,#447,.T.);
#583=ORIENTED_EDGE('',*,*,#393,.F.);
#584=ORIENTED_EDGE('',*,*,#447,.F.);
#585=ORIENTED_EDGE('',*,*,#448,.F.);
#586=ORIENTED_EDGE('',*,*,#441,.T.);
#587=ORIENTED_EDGE('',*,*,#398,.F.);
#588=ORIENTED_EDGE('',*,*,#449,.F.);
#589=ORIENTED_EDGE('',*,*,#450,.F.);
#590=ORIENTED_EDGE('',*,*,#451,.T.);
#591=ORIENTED_EDGE('',*,*,#399,.F.);
#592=ORIENTED_EDGE('',*,*,#451,.F.);
#593=ORIENTED_EDGE('',*,*,#452,.F.);
#594=ORIENTED_EDGE('',*,*,#453,.T.);
#595=ORIENTED_EDGE('',*,*,#396,.F.);
#596=ORIENTED_EDGE('',*,*,#453,.F.);
#597=ORIENTED_EDGE('',*,*,#454,.F.);
#598=ORIENTED_EDGE('',*,*,#455,.T.);
#599=ORIENTED_EDGE('',*,*,#397,.F.);
#600=ORIENTED_EDGE('',*,*,#455,.F.);
#601=ORIENTED_EDGE('',*,*,#456,.F.);
#602=ORIENTED_EDGE('',*,*,#449,.T.);
#603=ORIENTED_EDGE('',*,*,#457,.F.);
#604=ORIENTED_EDGE('',*,*,#458,.T.);
#605=ORIENTED_EDGE('',*,*,#400,.F.);
#606=ORIENTED_EDGE('',*,*,#458,.F.);
#607=ORIENTED_EDGE('',*,*,#459,.F.);
#608=ORIENTED_EDGE('',*,*,#460,.T.);
#609=ORIENTED_EDGE('',*,*,#401,.F.);
#610=ORIENTED_EDGE('',*,*,#460,.F.);
#611=ORIENTED_EDGE('',*,*,#461,.F.);
#612=ORIENTED_EDGE('',*,*,#462,.T.);
#613=ORIENTED_EDGE('',*,*,#402,.F.);
#614=ORIENTED_EDGE('',*,*,#462,.F.);
#615=ORIENTED_EDGE('',*,*,#463,.F.);
#616=ORIENTED_EDGE('',*,*,#464,.T.);
#617=ORIENTED_EDGE('',*,*,#403,.F.);
#618=ORIENTED_EDGE('',*,*,#464,.F.);
#619=ORIENTED_EDGE('',*,*,#414,.F.);
#620=ORIENTED_EDGE('',*,*,#465,.T.);
#621=ORIENTED_EDGE('',*,*,#415,.F.);
#622=ORIENTED_EDGE('',*,*,#382,.F.);
#623=ORIENTED_EDGE('',*,*,#374,.F.);
#624=ORIENTED_EDGE('',*,*,#466,.T.);
#625=ORIENTED_EDGE('',*,*,#408,.F.);
#626=ORIENTED_EDGE('',*,*,#378,.F.);
#627=ORIENTED_EDGE('',*,*,#373,.F.);
#628=ORIENTED_EDGE('',*,*,#377,.F.);
#629=ORIENTED_EDGE('',*,*,#416,.F.);
#630=ORIENTED_EDGE('',*,*,#465,.F.);
#631=ORIENTED_EDGE('',*,*,#413,.F.);
#632=ORIENTED_EDGE('',*,*,#411,.F.);
#633=ORIENTED_EDGE('',*,*,#409,.F.);
#634=ORIENTED_EDGE('',*,*,#466,.F.);
#635=ORIENTED_EDGE('',*,*,#430,.T.);
#636=ORIENTED_EDGE('',*,*,#428,.T.);
#637=ORIENTED_EDGE('',*,*,#426,.T.);
#638=ORIENTED_EDGE('',*,*,#432,.T.);
#639=ORIENTED_EDGE('',*,*,#438,.T.);
#640=ORIENTED_EDGE('',*,*,#436,.T.);
#641=ORIENTED_EDGE('',*,*,#434,.T.);
#642=ORIENTED_EDGE('',*,*,#440,.T.);
#643=ORIENTED_EDGE('',*,*,#446,.T.);
#644=ORIENTED_EDGE('',*,*,#444,.T.);
#645=ORIENTED_EDGE('',*,*,#442,.T.);
#646=ORIENTED_EDGE('',*,*,#448,.T.);
#647=ORIENTED_EDGE('',*,*,#454,.T.);
#648=ORIENTED_EDGE('',*,*,#452,.T.);
#649=ORIENTED_EDGE('',*,*,#450,.T.);
#650=ORIENTED_EDGE('',*,*,#456,.T.);
#651=ORIENTED_EDGE('',*,*,#457,.T.);
#652=ORIENTED_EDGE('',*,*,#459,.T.);
#653=ORIENTED_EDGE('',*,*,#461,.T.);
#654=ORIENTED_EDGE('',*,*,#463,.T.);
#655=ORIENTED_EDGE('',*,*,#423,.T.);
#656=ORIENTED_EDGE('',*,*,#421,.T.);
#657=ORIENTED_EDGE('',*,*,#419,.T.);
#658=ORIENTED_EDGE('',*,*,#417,.T.);
#659=PLANE('',#725);
#660=PLANE('',#726);
#661=PLANE('',#727);
#662=PLANE('',#744);
#663=PLANE('',#745);
#664=PLANE('',#746);
#665=PLANE('',#747);
#666=PLANE('',#756);
#667=PLANE('',#759);
#668=PLANE('',#762);
#669=PLANE('',#765);
#670=PLANE('',#768);
#671=PLANE('',#771);
#672=PLANE('',#774);
#673=PLANE('',#777);
#674=PLANE('',#788);
#675=PLANE('',#789);
#676=PLANE('',#790);
#677=ADVANCED_FACE('',(#87),#659,.T.);
#678=ADVANCED_FACE('',(#88),#660,.T.);
#679=ADVANCED_FACE('',(#89,#31,#32,#33,#34,#35,#36,#37,#38,#39,#40,#41,
#42),#661,.T.);
#680=ADVANCED_FACE('',(#90),#662,.T.);
#681=ADVANCED_FACE('',(#91),#663,.T.);
#682=ADVANCED_FACE('',(#92),#664,.T.);
#683=ADVANCED_FACE('',(#93),#665,.T.);
#684=ADVANCED_FACE('',(#94),#15,.F.);
#685=ADVANCED_FACE('',(#95),#16,.F.);
#686=ADVANCED_FACE('',(#96),#17,.F.);
#687=ADVANCED_FACE('',(#97),#18,.F.);
#688=ADVANCED_FACE('',(#98),#666,.F.);
#689=ADVANCED_FACE('',(#99),#19,.F.);
#690=ADVANCED_FACE('',(#100),#667,.F.);
#691=ADVANCED_FACE('',(#101),#20,.F.);
#692=ADVANCED_FACE('',(#102),#668,.F.);
#693=ADVANCED_FACE('',(#103),#21,.F.);
#694=ADVANCED_FACE('',(#104),#669,.F.);
#695=ADVANCED_FACE('',(#105),#22,.F.);
#696=ADVANCED_FACE('',(#106),#670,.F.);
#697=ADVANCED_FACE('',(#107),#23,.F.);
#698=ADVANCED_FACE('',(#108),#671,.F.);
#699=ADVANCED_FACE('',(#109),#24,.F.);
#700=ADVANCED_FACE('',(#110),#672,.F.);
#701=ADVANCED_FACE('',(#111),#25,.F.);
#702=ADVANCED_FACE('',(#112),#673,.F.);
#703=ADVANCED_FACE('',(#113),#26,.F.);
#704=ADVANCED_FACE('',(#114),#27,.F.);
#705=ADVANCED_FACE('',(#115),#28,.F.);
#706=ADVANCED_FACE('',(#116),#29,.F.);
#707=ADVANCED_FACE('',(#117),#30,.F.);
#708=ADVANCED_FACE('',(#118),#674,.T.);
#709=ADVANCED_FACE('',(#119),#675,.T.);
#710=ADVANCED_FACE('',(#120,#43,#44,#45,#46,#47,#48,#49,#50,#51,#52,#53,
#54),#676,.F.);
#711=CLOSED_SHELL('',(#677,#678,#679,#680,#681,#682,#683,#684,#685,#686,
#687,#688,#689,#690,#691,#692,#693,#694,#695,#696,#697,#698,#699,#700,#701,
#702,#703,#704,#705,#706,#707,#708,#709,#710));
#712=DERIVED_UNIT_ELEMENT(#714,1.);
#713=DERIVED_UNIT_ELEMENT(#1189,-3.);
#714=(
MASS_UNIT()
NAMED_UNIT(*)
SI_UNIT(.KILO.,.GRAM.)
);
#715=DERIVED_UNIT((#712,#713));
#716=MEASURE_REPRESENTATION_ITEM('density measure',
POSITIVE_RATIO_MEASURE(7850.),#715);
#717=PROPERTY_DEFINITION_REPRESENTATION(#722,#719);
#718=PROPERTY_DEFINITION_REPRESENTATION(#723,#720);
#719=REPRESENTATION('material name',(#721),#1186);
#720=REPRESENTATION('density',(#716),#1186);
#721=DESCRIPTIVE_REPRESENTATION_ITEM('A\X\E7o','A\X\E7o');
#722=PROPERTY_DEFINITION('material property','material name',#1196);
#723=PROPERTY_DEFINITION('material property','density of part',#1196);
#724=AXIS2_PLACEMENT_3D('',#989,#791,#792);
#725=AXIS2_PLACEMENT_3D('',#990,#793,#794);
#726=AXIS2_PLACEMENT_3D('',#999,#799,#800);
#727=AXIS2_PLACEMENT_3D('',#1005,#804,#805);
#728=AXIS2_PLACEMENT_3D('',#1021,#813,#814);
#729=AXIS2_PLACEMENT_3D('',#1024,#816,#817);
#730=AXIS2_PLACEMENT_3D('',#1029,#819,#820);
#731=AXIS2_PLACEMENT_3D('',#1032,#822,#823);
#732=AXIS2_PLACEMENT_3D('',#1037,#825,#826);
#733=AXIS2_PLACEMENT_3D('',#1040,#828,#829);
#734=AXIS2_PLACEMENT_3D('',#1045,#831,#832);
#735=AXIS2_PLACEMENT_3D('',#1048,#834,#835);
#736=AXIS2_PLACEMENT_3D('',#1050,#836,#837);
#737=AXIS2_PLACEMENT_3D('',#1052,#838,#839);
#738=AXIS2_PLACEMENT_3D('',#1054,#840,#841);
#739=AXIS2_PLACEMENT_3D('',#1056,#842,#843);
#740=AXIS2_PLACEMENT_3D('',#1058,#844,#845);
#741=AXIS2_PLACEMENT_3D('',#1060,#846,#847);
#742=AXIS2_PLACEMENT_3D('',#1062,#848,#849);
#743=AXIS2_PLACEMENT_3D('',#1064,#850,#851);
#744=AXIS2_PLACEMENT_3D('',#1065,#852,#853);
#745=AXIS2_PLACEMENT_3D('',#1071,#857,#858);
#746=AXIS2_PLACEMENT_3D('',#1075,#861,#862);
#747=AXIS2_PLACEMENT_3D('',#1079,#865,#866);
#748=AXIS2_PLACEMENT_3D('',#1083,#869,#870);
#749=AXIS2_PLACEMENT_3D('',#1085,#871,#872);
#750=AXIS2_PLACEMENT_3D('',#1087,#874,#875);
#751=AXIS2_PLACEMENT_3D('',#1089,#876,#877);
#752=AXIS2_PLACEMENT_3D('',#1091,#879,#880);
#753=AXIS2_PLACEMENT_3D('',#1093,#881,#882);
#754=AXIS2_PLACEMENT_3D('',#1095,#884,#885);
#755=AXIS2_PLACEMENT_3D('',#1097,#886,#887);
#756=AXIS2_PLACEMENT_3D('',#1099,#889,#890);
#757=AXIS2_PLACEMENT_3D('',#1105,#894,#895);
#758=AXIS2_PLACEMENT_3D('',#1107,#896,#897);
#759=AXIS2_PLACEMENT_3D('',#1109,#899,#900);
#760=AXIS2_PLACEMENT_3D('',#1113,#903,#904);
#761=AXIS2_PLACEMENT_3D('',#1114,#905,#906);
#762=AXIS2_PLACEMENT_3D('',#1115,#907,#908);
#763=AXIS2_PLACEMENT_3D('',#1121,#912,#913);
#764=AXIS2_PLACEMENT_3D('',#1123,#914,#915);
#765=AXIS2_PLACEMENT_3D('',#1125,#917,#918);
#766=AXIS2_PLACEMENT_3D('',#1129,#921,#922);
#767=AXIS2_PLACEMENT_3D('',#1130,#923,#924);
#768=AXIS2_PLACEMENT_3D('',#1131,#925,#926);
#769=AXIS2_PLACEMENT_3D('',#1137,#930,#931);
#770=AXIS2_PLACEMENT_3D('',#1139,#932,#933);
#771=AXIS2_PLACEMENT_3D('',#1141,#935,#936);
#772=AXIS2_PLACEMENT_3D('',#1145,#939,#940);
#773=AXIS2_PLACEMENT_3D('',#1146,#941,#942);
#774=AXIS2_PLACEMENT_3D('',#1147,#943,#944);
#775=AXIS2_PLACEMENT_3D('',#1153,#948,#949);
#776=AXIS2_PLACEMENT_3D('',#1155,#950,#951);
#777=AXIS2_PLACEMENT_3D('',#1157,#953,#954);
#778=AXIS2_PLACEMENT_3D('',#1161,#957,#958);
#779=AXIS2_PLACEMENT_3D('',#1162,#959,#960);
#780=AXIS2_PLACEMENT_3D('',#1163,#961,#962);
#781=AXIS2_PLACEMENT_3D('',#1165,#963,#964);
#782=AXIS2_PLACEMENT_3D('',#1167,#966,#967);
#783=AXIS2_PLACEMENT_3D('',#1169,#968,#969);
#784=AXIS2_PLACEMENT_3D('',#1171,#971,#972);
#785=AXIS2_PLACEMENT_3D('',#1173,#973,#974);
#786=AXIS2_PLACEMENT_3D('',#1175,#976,#977);
#787=AXIS2_PLACEMENT_3D('',#1177,#978,#979);
#788=AXIS2_PLACEMENT_3D('',#1179,#981,#982);
#789=AXIS2_PLACEMENT_3D('',#1181,#984,#985);
#790=AXIS2_PLACEMENT_3D('',#1183,#987,#988);
#791=DIRECTION('axis',(0.,0.,1.));
#792=DIRECTION('refdir',(1.,0.,0.));
#793=DIRECTION('center_axis',(-0.707106781186548,-0.707106781186548,0.));
#794=DIRECTION('ref_axis',(0.,0.,1.));
#795=DIRECTION('',(-0.707106781186548,0.707106781186548,0.));
#796=DIRECTION('',(0.,0.,-1.));
#797=DIRECTION('',(0.707106781186548,-0.707106781186548,0.));
#798=DIRECTION('',(0.,0.,1.));
#799=DIRECTION('center_axis',(-1.,0.,0.));
#800=DIRECTION('ref_axis',(0.,-1.,0.));
#801=DIRECTION('',(0.,-1.,0.));
#802=DIRECTION('',(0.,0.,1.));
#803=DIRECTION('',(0.,-1.,0.));
#804=DIRECTION('center_axis',(0.,0.,1.));
#805=DIRECTION('ref_axis',(1.,0.,0.));
#806=DIRECTION('',(1.,0.,0.));
#807=DIRECTION('',(-0.707106781186548,-0.707106781186548,0.));
#808=DIRECTION('',(0.,1.,0.));
#809=DIRECTION('',(0.707106781186548,-0.707106781186548,0.));
#810=DIRECTION('',(-1.,0.,0.));
#811=DIRECTION('',(0.707106781186548,0.707106781186548,0.));
#812=DIRECTION('',(0.,1.,0.));
#813=DIRECTION('center_axis',(0.,0.,-1.));
#814=DIRECTION('ref_axis',(1.,-1.54465812121761E-15,0.));
#815=DIRECTION('',(0.,-1.,0.));
#816=DIRECTION('center_axis',(0.,0.,-1.));
#817=DIRECTION('ref_axis',(-1.,1.54465812121761E-15,0.));
#818=DIRECTION('',(0.,1.,0.));
#819=DIRECTION('center_axis',(0.,0.,-1.));
#820=DIRECTION('ref_axis',(1.,-1.54465812121761E-15,0.));
#821=DIRECTION('',(0.,-1.,0.));
#822=DIRECTION('center_axis',(0.,0.,-1.));
#823=DIRECTION('ref_axis',(-1.,1.54465812121761E-15,0.));
#824=DIRECTION('',(0.,1.,0.));
#825=DIRECTION('center_axis',(0.,0.,-1.));
#826=DIRECTION('ref_axis',(1.,-1.54465812121761E-15,0.));
#827=DIRECTION('',(0.,-1.,0.));
#828=DIRECTION('center_axis',(0.,0.,-1.));
#829=DIRECTION('ref_axis',(-1.,1.54465812121761E-15,0.));
#830=DIRECTION('',(0.,1.,0.));
#831=DIRECTION('center_axis',(0.,0.,-1.));
#832=DIRECTION('ref_axis',(1.,-1.54465812121761E-15,0.));
#833=DIRECTION('',(0.,-1.,0.));
#834=DIRECTION('center_axis',(0.,0.,-1.));
#835=DIRECTION('ref_axis',(-1.,1.54465812121761E-15,0.));
#836=DIRECTION('center_axis',(0.,0.,-1.));
#837=DIRECTION('ref_axis',(1.,0.,0.));
#838=DIRECTION('center_axis',(0.,0.,-1.));
#839=DIRECTION('ref_axis',(1.,0.,0.));
#840=DIRECTION('center_axis',(0.,0.,-1.));
#841=DIRECTION('ref_axis',(1.,0.,0.));
#842=DIRECTION('center_axis',(0.,0.,-1.));
#843=DIRECTION('ref_axis',(1.,0.,0.));
#844=DIRECTION('center_axis',(0.,0.,-1.));
#845=DIRECTION('ref_axis',(1.,0.,0.));
#846=DIRECTION('center_axis',(0.,0.,-1.));
#847=DIRECTION('ref_axis',(1.,0.,0.));
#848=DIRECTION('center_axis',(0.,0.,-1.));
#849=DIRECTION('ref_axis',(1.,0.,0.));
#850=DIRECTION('center_axis',(0.,0.,-1.));
#851=DIRECTION('ref_axis',(1.,0.,0.));
#852=DIRECTION('center_axis',(0.707106781186548,-0.707106781186548,0.));
#853=DIRECTION('ref_axis',(0.,0.,-1.));
#854=DIRECTION('',(0.,0.,-1.));
#855=DIRECTION('',(0.707106781186548,0.707106781186548,0.));
#856=DIRECTION('',(0.,0.,1.));
#857=DIRECTION('center_axis',(1.,0.,0.));
#858=DIRECTION('ref_axis',(0.,1.,0.));
#859=DIRECTION('',(0.,1.,0.));
#860=DIRECTION('',(0.,0.,-1.));
#861=DIRECTION('center_axis',(0.707106781186548,0.707106781186548,0.));
#862=DIRECTION('ref_axis',(0.,0.,-1.));
#863=DIRECTION('',(-0.707106781186548,0.707106781186548,0.));
#864=DIRECTION('',(0.,0.,1.));
#865=DIRECTION('center_axis',(-0.707106781186548,0.707106781186548,0.));
#866=DIRECTION('ref_axis',(0.,0.,1.));
#867=DIRECTION('',(0.,0.,-1.));
#868=DIRECTION('',(-0.707106781186548,-0.707106781186548,0.));
#869=DIRECTION('center_axis',(0.,0.,1.));
#870=DIRECTION('ref_axis',(1.,0.,0.));
#871=DIRECTION('center_axis',(0.,0.,1.));
#872=DIRECTION('ref_axis',(1.,0.,0.));
#873=DIRECTION('',(0.,0.,1.));
#874=DIRECTION('center_axis',(0.,0.,1.));
#875=DIRECTION('ref_axis',(1.,0.,0.));
#876=DIRECTION('center_axis',(0.,0.,1.));
#877=DIRECTION('ref_axis',(1.,0.,0.));
#878=DIRECTION('',(0.,0.,1.));
#879=DIRECTION('center_axis',(0.,0.,1.));
#880=DIRECTION('ref_axis',(1.,0.,0.));
#881=DIRECTION('center_axis',(0.,0.,1.));
#882=DIRECTION('ref_axis',(1.,0.,0.));
#883=DIRECTION('',(0.,0.,1.));
#884=DIRECTION('center_axis',(0.,0.,1.));
#885=DIRECTION('ref_axis',(1.,0.,0.));
#886=DIRECTION('center_axis',(0.,0.,1.));
#887=DIRECTION('ref_axis',(1.,0.,0.));
#888=DIRECTION('',(0.,0.,1.));
#889=DIRECTION('center_axis',(1.,0.,0.));
#890=DIRECTION('ref_axis',(0.,1.,0.));
#891=DIRECTION('',(0.,0.,1.));
#892=DIRECTION('',(0.,1.,0.));
#893=DIRECTION('',(0.,0.,1.));
#894=DIRECTION('center_axis',(0.,0.,1.));
#895=DIRECTION('ref_axis',(-1.,1.54465812121761E-15,0.));
#896=DIRECTION('center_axis',(0.,0.,1.));
#897=DIRECTION('ref_axis',(-1.,1.54465812121761E-15,0.));
#898=DIRECTION('',(0.,0.,1.));
#899=DIRECTION('center_axis',(-1.,0.,0.));
#900=DIRECTION('ref_axis',(0.,-1.,0.));
#901=DIRECTION('',(0.,-1.,0.));
#902=DIRECTION('',(0.,0.,1.));
#903=DIRECTION('center_axis',(0.,0.,1.));
#904=DIRECTION('ref_axis',(1.,-1.54465812121761E-15,0.));
#905=DIRECTION('center_axis',(0.,0.,1.));
#906=DIRECTION('ref_axis',(1.,-1.54465812121761E-15,0.));
#907=DIRECTION('center_axis',(1.,0.,0.));
#908=DIRECTION('ref_axis',(0.,1.,0.));
#909=DIRECTION('',(0.,0.,1.));
#910=DIRECTION('',(0.,1.,0.));
#911=DIRECTION('',(0.,0.,1.));
#912=DIRECTION('center_axis',(0.,0.,1.));
#913=DIRECTION('ref_axis',(-1.,1.54465812121761E-15,0.));
#914=DIRECTION('center_axis',(0.,0.,1.));
#915=DIRECTION('ref_axis',(-1.,1.54465812121761E-15,0.));
#916=DIRECTION('',(0.,0.,1.));
#917=DIRECTION('center_axis',(-1.,0.,0.));
#918=DIRECTION('ref_axis',(0.,-1.,0.));
#919=DIRECTION('',(0.,-1.,0.));
#920=DIRECTION('',(0.,0.,1.));
#921=DIRECTION('center_axis',(0.,0.,1.));
#922=DIRECTION('ref_axis',(1.,-1.54465812121761E-15,0.));
#923=DIRECTION('center_axis',(0.,0.,1.));
#924=DIRECTION('ref_axis',(1.,-1.54465812121761E-15,0.));
#925=DIRECTION('center_axis',(1.,0.,0.));
#926=DIRECTION('ref_axis',(0.,1.,0.));
#927=DIRECTION('',(0.,0.,1.));
#928=DIRECTION('',(0.,1.,0.));
#929=DIRECTION('',(0.,0.,1.));
#930=DIRECTION('center_axis',(0.,0.,1.));
#931=DIRECTION('ref_axis',(-1.,1.54465812121761E-15,0.));
#932=DIRECTION('center_axis',(0.,0.,1.));
#933=DIRECTION('ref_axis',(-1.,1.54465812121761E-15,0.));
#934=DIRECTION('',(0.,0.,1.));
#935=DIRECTION('center_axis',(-1.,0.,0.));
#936=DIRECTION('ref_axis',(0.,-1.,0.));
#937=DIRECTION('',(0.,-1.,0.));
#938=DIRECTION('',(0.,0.,1.));
#939=DIRECTION('center_axis',(0.,0.,1.));
#940=DIRECTION('ref_axis',(1.,-1.54465812121761E-15,0.));
#941=DIRECTION('center_axis',(0.,0.,1.));
#942=DIRECTION('ref_axis',(1.,-1.54465812121761E-15,0.));
#943=DIRECTION('center_axis',(1.,0.,0.));
#944=DIRECTION('ref_axis',(0.,1.,0.));
#945=DIRECTION('',(0.,0.,1.));
#946=DIRECTION('',(0.,1.,0.));
#947=DIRECTION('',(0.,0.,1.));
#948=DIRECTION('center_axis',(0.,0.,1.));
#949=DIRECTION('ref_axis',(-1.,1.54465812121761E-15,0.));
#950=DIRECTION('center_axis',(0.,0.,1.));
#951=DIRECTION('ref_axis',(-1.,1.54465812121761E-15,0.));
#952=DIRECTION('',(0.,0.,1.));
#953=DIRECTION('center_axis',(-1.,0.,0.));
#954=DIRECTION('ref_axis',(0.,-1.,0.));
#955=DIRECTION('',(0.,-1.,0.));
#956=DIRECTION('',(0.,0.,1.));
#957=DIRECTION('center_axis',(0.,0.,1.));
#958=DIRECTION('ref_axis',(1.,-1.54465812121761E-15,0.));
#959=DIRECTION('center_axis',(0.,0.,1.));
#960=DIRECTION('ref_axis',(1.,-1.54465812121761E-15,0.));
#961=DIRECTION('center_axis',(0.,0.,1.));
#962=DIRECTION('ref_axis',(1.,0.,0.));
#963=DIRECTION('center_axis',(0.,0.,1.));
#964=DIRECTION('ref_axis',(1.,0.,0.));
#965=DIRECTION('',(0.,0.,1.));
#966=DIRECTION('center_axis',(0.,0.,1.));
#967=DIRECTION('ref_axis',(1.,0.,0.));
#968=DIRECTION('center_axis',(0.,0.,1.));
#969=DIRECTION('ref_axis',(1.,0.,0.));
#970=DIRECTION('',(0.,0.,1.));
#971=DIRECTION('center_axis',(0.,0.,1.));
#972=DIRECTION('ref_axis',(1.,0.,0.));
#973=DIRECTION('center_axis',(0.,0.,1.));
#974=DIRECTION('ref_axis',(1.,0.,0.));
#975=DIRECTION('',(0.,0.,1.));
#976=DIRECTION('center_axis',(0.,0.,1.));
#977=DIRECTION('ref_axis',(1.,0.,0.));
#978=DIRECTION('center_axis',(0.,0.,1.));
#979=DIRECTION('ref_axis',(1.,0.,0.));
#980=DIRECTION('',(0.,0.,1.));
#981=DIRECTION('center_axis',(0.,1.,0.));
#982=DIRECTION('ref_axis',(-1.,0.,0.));
#983=DIRECTION('',(-1.,0.,0.));
#984=DIRECTION('center_axis',(0.,-1.,0.));
#985=DIRECTION('ref_axis',(1.,0.,0.));
#986=DIRECTION('',(1.,0.,0.));
#987=DIRECTION('center_axis',(0.,0.,1.));
#988=DIRECTION('ref_axis',(1.,0.,0.));
#989=CARTESIAN_POINT('',(0.,0.,0.));
#990=CARTESIAN_POINT('Origin',(-112.5,-77.5,0.));
#991=CARTESIAN_POINT('',(-110.,-80.,15.));
#992=CARTESIAN_POINT('',(-115.,-75.,15.));
#993=CARTESIAN_POINT('',(-103.75,-86.25,15.));
#994=CARTESIAN_POINT('',(-115.,-75.,0.));
#995=CARTESIAN_POINT('',(-115.,-75.,0.));
#996=CARTESIAN_POINT('',(-110.,-80.,0.));
#997=CARTESIAN_POINT('',(-103.75,-86.25,0.));
#998=CARTESIAN_POINT('',(-110.,-80.,0.));
#999=CARTESIAN_POINT('Origin',(-115.,80.,0.));
#1000=CARTESIAN_POINT('',(-115.,75.,15.));
#1001=CARTESIAN_POINT('',(-115.,80.,15.));
#1002=CARTESIAN_POINT('',(-115.,75.,0.));
#1003=CARTESIAN_POINT('',(-115.,75.,0.));
#1004=CARTESIAN_POINT('',(-115.,80.,0.));
#1005=CARTESIAN_POINT('Origin',(0.,0.,15.));
#1006=CARTESIAN_POINT('',(110.,-80.,15.));
#1007=CARTESIAN_POINT('',(-115.,-80.,15.));
#1008=CARTESIAN_POINT('',(115.,-75.,15.));
#1009=CARTESIAN_POINT('',(103.75,-86.25,15.));
#1010=CARTESIAN_POINT('',(115.,75.,15.));
#1011=CARTESIAN_POINT('',(115.,-80.,15.));
#1012=CARTESIAN_POINT('',(110.,80.,15.));
#1013=CARTESIAN_POINT('',(103.75,86.25,15.));
#1014=CARTESIAN_POINT('',(-110.,80.,15.));
#1015=CARTESIAN_POINT('',(115.,80.,15.));
#1016=CARTESIAN_POINT('',(-103.75,86.25,15.));
#1017=CARTESIAN_POINT('',(69.25,-55.5,15.));
#1018=CARTESIAN_POINT('',(69.25,-39.5,15.));
#1019=CARTESIAN_POINT('',(69.25,-19.75,15.));
#1020=CARTESIAN_POINT('',(80.75,-39.5,15.));
#1021=CARTESIAN_POINT('Origin',(75.,-39.5,15.));
#1022=CARTESIAN_POINT('',(80.75,-55.5,15.));
#1023=CARTESIAN_POINT('',(80.75,-27.75,15.));
#1024=CARTESIAN_POINT('Origin',(75.,-55.5,15.));
#1025=CARTESIAN_POINT('',(-80.75,39.5,15.));
#1026=CARTESIAN_POINT('',(-80.75,55.5,15.));
#1027=CARTESIAN_POINT('',(-80.75,27.75,15.));
#1028=CARTESIAN_POINT('',(-69.25,55.5,15.));
#1029=CARTESIAN_POINT('Origin',(-75.,55.5,15.));
#1030=CARTESIAN_POINT('',(-69.25,39.5,15.));
#1031=CARTESIAN_POINT('',(-69.25,19.75,15.));
#1032=CARTESIAN_POINT('Origin',(-75.,39.5,15.));
#1033=CARTESIAN_POINT('',(-80.75,-55.5,15.));
#1034=CARTESIAN_POINT('',(-80.75,-39.5,15.));
#1035=CARTESIAN_POINT('',(-80.75,-19.75,15.));
#1036=CARTESIAN_POINT('',(-69.25,-39.5,15.));
#1037=CARTESIAN_POINT('Origin',(-75.,-39.5,15.));
#1038=CARTESIAN_POINT('',(-69.25,-55.5,15.));
#1039=CARTESIAN_POINT('',(-69.25,-27.75,15.));
#1040=CARTESIAN_POINT('Origin',(-75.,-55.5,15.));
#1041=CARTESIAN_POINT('',(69.25,39.5,15.));
#1042=CARTESIAN_POINT('',(69.25,55.5,15.));
#1043=CARTESIAN_POINT('',(69.25,27.75,15.));
#1044=CARTESIAN_POINT('',(80.75,55.5,15.));
#1045=CARTESIAN_POINT('Origin',(75.,55.5,15.));
#1046=CARTESIAN_POINT('',(80.75,39.5,15.));
#1047=CARTESIAN_POINT('',(80.75,19.75,15.));
#1048=CARTESIAN_POINT('Origin',(75.,39.5,15.));
#1049=CARTESIAN_POINT('',(35.5,-50.,15.));
#1050=CARTESIAN_POINT('Origin',(40.,-50.,15.));
#1051=CARTESIAN_POINT('',(-44.5,50.,15.));
#1052=CARTESIAN_POINT('Origin',(-40.,50.,15.));
#1053=CARTESIAN_POINT('',(-44.5,-50.,15.));
#1054=CARTESIAN_POINT('Origin',(-40.,-50.,15.));
#1055=CARTESIAN_POINT('',(35.5,50.,15.));
#1056=CARTESIAN_POINT('Origin',(40.,50.,15.));
#1057=CARTESIAN_POINT('',(96.,67.5,15.));
#1058=CARTESIAN_POINT('Origin',(100.,67.5,15.));
#1059=CARTESIAN_POINT('',(-104.,-67.5,15.));
#1060=CARTESIAN_POINT('Origin',(-100.,-67.5,15.));
#1061=CARTESIAN_POINT('',(-104.,67.5,15.));
#1062=CARTESIAN_POINT('Origin',(-100.,67.5,15.));
#1063=CARTESIAN_POINT('',(96.,-67.5,15.));
#1064=CARTESIAN_POINT('Origin',(100.,-67.5,15.));
#1065=CARTESIAN_POINT('Origin',(112.5,-77.5,0.));
#1066=CARTESIAN_POINT('',(110.,-80.,0.));
#1067=CARTESIAN_POINT('',(110.,-80.,0.));
#1068=CARTESIAN_POINT('',(115.,-75.,0.));
#1069=CARTESIAN_POINT('',(103.75,-86.25,0.));
#1070=CARTESIAN_POINT('',(115.,-75.,0.));
#1071=CARTESIAN_POINT('Origin',(115.,-80.,0.));
#1072=CARTESIAN_POINT('',(115.,75.,0.));
#1073=CARTESIAN_POINT('',(115.,-80.,0.));
#1074=CARTESIAN_POINT('',(115.,75.,0.));
#1075=CARTESIAN_POINT('Origin',(112.5,77.5,0.));
#1076=CARTESIAN_POINT('',(110.,80.,0.));
#1077=CARTESIAN_POINT('',(103.75,86.25,0.));
#1078=CARTESIAN_POINT('',(110.,80.,0.));
#1079=CARTESIAN_POINT('Origin',(-112.5,77.5,0.));
#1080=CARTESIAN_POINT('',(-110.,80.,0.));
#1081=CARTESIAN_POINT('',(-110.,80.,0.));
#1082=CARTESIAN_POINT('',(-103.75,86.25,0.));
#1083=CARTESIAN_POINT('Origin',(100.,-67.5,0.));
#1084=CARTESIAN_POINT('',(96.,-67.5,0.));
#1085=CARTESIAN_POINT('Origin',(100.,-67.5,0.));
#1086=CARTESIAN_POINT('',(96.,-67.5,0.));
#1087=CARTESIAN_POINT('Origin',(-100.,67.5,0.));
#1088=CARTESIAN_POINT('',(-104.,67.5,0.));
#1089=CARTESIAN_POINT('Origin',(-100.,67.5,0.));
#1090=CARTESIAN_POINT('',(-104.,67.5,0.));
#1091=CARTESIAN_POINT('Origin',(-100.,-67.5,0.));
#1092=CARTESIAN_POINT('',(-104.,-67.5,0.));
#1093=CARTESIAN_POINT('Origin',(-100.,-67.5,0.));
#1094=CARTESIAN_POINT('',(-104.,-67.5,0.));
#1095=CARTESIAN_POINT('Origin',(100.,67.5,0.));
#1096=CARTESIAN_POINT('',(96.,67.5,0.));
#1097=CARTESIAN_POINT('Origin',(100.,67.5,0.));
#1098=CARTESIAN_POINT('',(96.,67.5,0.));
#1099=CARTESIAN_POINT('Origin',(80.75,-55.5,0.));
#1100=CARTESIAN_POINT('',(80.75,-39.5,0.));
#1101=CARTESIAN_POINT('',(80.75,-39.5,0.));
#1102=CARTESIAN_POINT('',(80.75,-55.5,0.));
#1103=CARTESIAN_POINT('',(80.75,-27.75,0.));
#1104=CARTESIAN_POINT('',(80.75,-55.5,0.));
#1105=CARTESIAN_POINT('Origin',(75.,-55.5,0.));
#1106=CARTESIAN_POINT('',(69.25,-55.5,0.));
#1107=CARTESIAN_POINT('Origin',(75.,-55.5,0.));
#1108=CARTESIAN_POINT('',(69.25,-55.5,0.));
#1109=CARTESIAN_POINT('Origin',(69.25,-39.5,0.));
#1110=CARTESIAN_POINT('',(69.25,-39.5,0.));
#1111=CARTESIAN_POINT('',(69.25,-19.75,0.));
#1112=CARTESIAN_POINT('',(69.25,-39.5,0.));
#1113=CARTESIAN_POINT('Origin',(75.,-39.5,0.));
#1114=CARTESIAN_POINT('Origin',(75.,-39.5,0.));
#1115=CARTESIAN_POINT('Origin',(-69.25,39.5,0.));
#1116=CARTESIAN_POINT('',(-69.25,55.5,0.));
#1117=CARTESIAN_POINT('',(-69.25,55.5,0.));
#1118=CARTESIAN_POINT('',(-69.25,39.5,0.));
#1119=CARTESIAN_POINT('',(-69.25,19.75,0.));
#1120=CARTESIAN_POINT('',(-69.25,39.5,0.));
#1121=CARTESIAN_POINT('Origin',(-75.,39.5,0.));
#1122=CARTESIAN_POINT('',(-80.75,39.5,0.));
#1123=CARTESIAN_POINT('Origin',(-75.,39.5,0.));
#1124=CARTESIAN_POINT('',(-80.75,39.5,0.));
#1125=CARTESIAN_POINT('Origin',(-80.75,55.5,0.));
#1126=CARTESIAN_POINT('',(-80.75,55.5,0.));
#1127=CARTESIAN_POINT('',(-80.75,27.75,0.));
#1128=CARTESIAN_POINT('',(-80.75,55.5,0.));
#1129=CARTESIAN_POINT('Origin',(-75.,55.5,0.));
#1130=CARTESIAN_POINT('Origin',(-75.,55.5,0.));
#1131=CARTESIAN_POINT('Origin',(-69.25,-55.5,0.));
#1132=CARTESIAN_POINT('',(-69.25,-39.5,0.));
#1133=CARTESIAN_POINT('',(-69.25,-39.5,0.));
#1134=CARTESIAN_POINT('',(-69.25,-55.5,0.));
#1135=CARTESIAN_POINT('',(-69.25,-27.75,0.));
#1136=CARTESIAN_POINT('',(-69.25,-55.5,0.));
#1137=CARTESIAN_POINT('Origin',(-75.,-55.5,0.));
#1138=CARTESIAN_POINT('',(-80.75,-55.5,0.));
#1139=CARTESIAN_POINT('Origin',(-75.,-55.5,0.));
#1140=CARTESIAN_POINT('',(-80.75,-55.5,0.));
#1141=CARTESIAN_POINT('Origin',(-80.75,-39.5,0.));
#1142=CARTESIAN_POINT('',(-80.75,-39.5,0.));
#1143=CARTESIAN_POINT('',(-80.75,-19.75,0.));
#1144=CARTESIAN_POINT('',(-80.75,-39.5,0.));
#1145=CARTESIAN_POINT('Origin',(-75.,-39.5,0.));
#1146=CARTESIAN_POINT('Origin',(-75.,-39.5,0.));
#1147=CARTESIAN_POINT('Origin',(80.75,39.5,0.));
#1148=CARTESIAN_POINT('',(80.75,55.5,0.));
#1149=CARTESIAN_POINT('',(80.75,55.5,0.));
#1150=CARTESIAN_POINT('',(80.75,39.5,0.));
#1151=CARTESIAN_POINT('',(80.75,19.75,0.));
#1152=CARTESIAN_POINT('',(80.75,39.5,0.));
#1153=CARTESIAN_POINT('Origin',(75.,39.5,0.));
#1154=CARTESIAN_POINT('',(69.25,39.5,0.));
#1155=CARTESIAN_POINT('Origin',(75.,39.5,0.));
#1156=CARTESIAN_POINT('',(69.25,39.5,0.));
#1157=CARTESIAN_POINT('Origin',(69.25,55.5,0.));
#1158=CARTESIAN_POINT('',(69.25,55.5,0.));
#1159=CARTESIAN_POINT('',(69.25,27.75,0.));
#1160=CARTESIAN_POINT('',(69.25,55.5,0.));
#1161=CARTESIAN_POINT('Origin',(75.,55.5,0.));
#1162=CARTESIAN_POINT('Origin',(75.,55.5,0.));
#1163=CARTESIAN_POINT('Origin',(40.,-50.,0.));
#1164=CARTESIAN_POINT('',(35.5,-50.,0.));
#1165=CARTESIAN_POINT('Origin',(40.,-50.,0.));
#1166=CARTESIAN_POINT('',(35.5,-50.,0.));
#1167=CARTESIAN_POINT('Origin',(-40.,50.,0.));
#1168=CARTESIAN_POINT('',(-44.5,50.,0.));
#1169=CARTESIAN_POINT('Origin',(-40.,50.,0.));
#1170=CARTESIAN_POINT('',(-44.5,50.,0.));
#1171=CARTESIAN_POINT('Origin',(-40.,-50.,0.));
#1172=CARTESIAN_POINT('',(-44.5,-50.,0.));
#1173=CARTESIAN_POINT('Origin',(-40.,-50.,0.));
#1174=CARTESIAN_POINT('',(-44.5,-50.,0.));
#1175=CARTESIAN_POINT('Origin',(40.,50.,0.));
#1176=CARTESIAN_POINT('',(35.5,50.,0.));
#1177=CARTESIAN_POINT('Origin',(40.,50.,0.));
#1178=CARTESIAN_POINT('',(35.5,50.,0.));
#1179=CARTESIAN_POINT('Origin',(115.,80.,0.));
#1180=CARTESIAN_POINT('',(115.,80.,0.));
#1181=CARTESIAN_POINT('Origin',(-115.,-80.,0.));
#1182=CARTESIAN_POINT('',(-115.,-80.,0.));
#1183=CARTESIAN_POINT('Origin',(0.,0.,0.));
#1184=UNCERTAINTY_MEASURE_WITH_UNIT(LENGTH_MEASURE(0.01),#1188,
'DISTANCE_ACCURACY_VALUE',
'Maximum model space distance between geometric entities at asserted c
onnectivities');
#1185=UNCERTAINTY_MEASURE_WITH_UNIT(LENGTH_MEASURE(0.01),#1188,
'DISTANCE_ACCURACY_VALUE',
'Maximum model space distance between geometric entities at asserted c
onnectivities');
#1186=(
GEOMETRIC_REPRESENTATION_CONTEXT(3)
GLOBAL_UNCERTAINTY_ASSIGNED_CONTEXT((#1184))
GLOBAL_UNIT_ASSIGNED_CONTEXT((#1188,#1190,#1191))
REPRESENTATION_CONTEXT('','3D')
);
#1187=(
GEOMETRIC_REPRESENTATION_CONTEXT(3)
GLOBAL_UNCERTAINTY_ASSIGNED_CONTEXT((#1185))
GLOBAL_UNIT_ASSIGNED_CONTEXT((#1188,#1190,#1191))
REPRESENTATION_CONTEXT('','3D')
);
#1188=(
LENGTH_UNIT()
NAMED_UNIT(*)
SI_UNIT(.MILLI.,.METRE.)
);
#1189=(
LENGTH_UNIT()
NAMED_UNIT(*)
SI_UNIT($,.METRE.)
);
#1190=(
NAMED_UNIT(*)
PLANE_ANGLE_UNIT()
SI_UNIT($,.RADIAN.)
);
#1191=(
NAMED_UNIT(*)
SI_UNIT($,.STERADIAN.)
SOLID_ANGLE_UNIT()
);
#1192=SHAPE_DEFINITION_REPRESENTATION(#1193,#1194);
#1193=PRODUCT_DEFINITION_SHAPE('',$,#1196);
#1194=SHAPE_REPRESENTATION('',(#724),#1186);
#1195=PRODUCT_DEFINITION_CONTEXT('part definition',#1200,'design');
#1196=PRODUCT_DEFINITION('(N\X\E3o salvo)','(N\X\E3o salvo)',#1197,#1195);
#1197=PRODUCT_DEFINITION_FORMATION('',$,#1202);
#1198=PRODUCT_RELATED_PRODUCT_CATEGORY('(N\X\E3o salvo)','(N\X\E3o sal
vo)',(#1202));
#1199=APPLICATION_PROTOCOL_DEFINITION('international standard',
'automotive_design',2009,#1200);
#1200=APPLICATION_CONTEXT(
'Core Data for Automotive Mechanical Design Process');
#1201=PRODUCT_CONTEXT('part definition',#1200,'mechanical');
#1202=PRODUCT('(N\X\E3o salvo)','(N\X\E3o salvo)',$,(#1201));
#1203=PRESENTATION_STYLE_ASSIGNMENT((#1205));
#1204=PRESENTATION_STYLE_ASSIGNMENT((#1206));
#1205=SURFACE_STYLE_USAGE(.BOTH.,#1207);
#1206=SURFACE_STYLE_USAGE(.BOTH.,#1208);
#1207=SURFACE_SIDE_STYLE('',(#1209));
#1208=SURFACE_SIDE_STYLE('',(#1210));
#1209=SURFACE_STYLE_FILL_AREA(#1211);
#1210=SURFACE_STYLE_FILL_AREA(#1212);
#1211=FILL_AREA_STYLE('A\X\E7o - Acetinado',(#1213));
#1212=FILL_AREA_STYLE('Mat_Alum_Anodizado_Ouro',(#1214));
#1213=FILL_AREA_STYLE_COLOUR('A\X\E7o - Acetinado',#1215);
#1214=FILL_AREA_STYLE_COLOUR('Mat_Alum_Anodizado_Ouro',#1216);
#1215=COLOUR_RGB('A\X\E7o - Acetinado',0.627450980392157,0.627450980392157,
0.627450980392157);
#1216=COLOUR_RGB('Mat_Alum_Anodizado_Ouro',0.882352941176471,0.686274509803922,
0.176470588235294);
ENDSEC;
END-ISO-10303-21;
