ISO-10303-21;
HEADER;
/* Generated by software containing ST-Developer
 * from STEP Tools, Inc. (www.steptools.com) 
 */

FILE_DESCRIPTION(
/* description */ (''),
/* implementation_level */ '2;1');

FILE_NAME(
/* name */ '07_Mancal_Pillow_Block_UCP204.step',
/* time_stamp */ '2026-09-22T22:23:46-03:00',
/* author */ (''),
/* organization */ (''),
/* preprocessor_version */ 'ST-DEVELOPER v20.2',
/* originating_system */ 'Autodesk Translation Framework v15.15.0.0',
/* authorisation */ '');

FILE_SCHEMA (('AUTOMOTIVE_DESIGN { 1 0 10303 214 3 1 1 }'));
ENDSEC;

DATA;
#10=MECHANICAL_DESIGN_GEOMETRIC_PRESENTATION_REPRESENTATION('',(#13,#14),
#556);
#11=SHAPE_REPRESENTATION_RELATIONSHIP('SRR','None',#563,#12);
#12=ADVANCED_BREP_SHAPE_REPRESENTATION('',(#15,#16),#555);
#13=STYLED_ITEM('',(#573),#15);
#14=STYLED_ITEM('',(#573),#16);
#15=MANIFOLD_SOLID_BREP('Corpo1',#326);
#16=MANIFOLD_SOLID_BREP('Corpo1',#327);
#17=FACE_BOUND('',#51,.T.);
#18=FACE_BOUND('',#53,.T.);
#19=FACE_BOUND('',#56,.T.);
#20=FACE_BOUND('',#60,.T.);
#21=FACE_BOUND('',#63,.T.);
#22=CYLINDRICAL_SURFACE('',#345,34.);
#23=CYLINDRICAL_SURFACE('',#348,10.);
#24=CYLINDRICAL_SURFACE('',#351,34.);
#25=CYLINDRICAL_SURFACE('',#359,6.5);
#26=CYLINDRICAL_SURFACE('',#368,3.);
#27=FACE_OUTER_BOUND('',#45,.T.);
#28=FACE_OUTER_BOUND('',#46,.T.);
#29=FACE_OUTER_BOUND('',#47,.T.);
#30=FACE_OUTER_BOUND('',#48,.T.);
#31=FACE_OUTER_BOUND('',#49,.T.);
#32=FACE_OUTER_BOUND('',#50,.T.);
#33=FACE_OUTER_BOUND('',#52,.T.);
#34=FACE_OUTER_BOUND('',#54,.T.);
#35=FACE_OUTER_BOUND('',#55,.T.);
#36=FACE_OUTER_BOUND('',#57,.T.);
#37=FACE_OUTER_BOUND('',#58,.T.);
#38=FACE_OUTER_BOUND('',#59,.T.);
#39=FACE_OUTER_BOUND('',#61,.T.);
#40=FACE_OUTER_BOUND('',#62,.T.);
#41=FACE_OUTER_BOUND('',#64,.T.);
#42=FACE_OUTER_BOUND('',#65,.T.);
#43=FACE_OUTER_BOUND('',#66,.T.);
#44=FACE_OUTER_BOUND('',#67,.T.);
#45=EDGE_LOOP('',(#211,#212,#213));
#46=EDGE_LOOP('',(#214,#215,#216,#217));
#47=EDGE_LOOP('',(#218,#219,#220,#221,#222,#223));
#48=EDGE_LOOP('',(#224,#225,#226,#227,#228,#229));
#49=EDGE_LOOP('',(#230,#231,#232,#233));
#50=EDGE_LOOP('',(#234,#235,#236,#237));
#51=EDGE_LOOP('',(#238,#239));
#52=EDGE_LOOP('',(#240,#241,#242,#243));
#53=EDGE_LOOP('',(#244));
#54=EDGE_LOOP('',(#245,#246,#247,#248));
#55=EDGE_LOOP('',(#249,#250,#251,#252));
#56=EDGE_LOOP('',(#253));
#57=EDGE_LOOP('',(#254,#255,#256,#257));
#58=EDGE_LOOP('',(#258,#259,#260,#261));
#59=EDGE_LOOP('',(#262,#263,#264,#265,#266,#267,#268,#269));
#60=EDGE_LOOP('',(#270));
#61=EDGE_LOOP('',(#271,#272,#273,#274));
#62=EDGE_LOOP('',(#275,#276,#277,#278,#279,#280,#281,#282,#283));
#63=EDGE_LOOP('',(#284));
#64=EDGE_LOOP('',(#285,#286));
#65=EDGE_LOOP('',(#287));
#66=EDGE_LOOP('',(#288,#289,#290,#291,#292));
#67=EDGE_LOOP('',(#293,#294));
#68=LINE('',#469,#98);
#69=LINE('',#470,#99);
#70=LINE('',#474,#100);
#71=LINE('',#475,#101);
#72=LINE('',#476,#102);
#73=LINE('',#479,#103);
#74=LINE('',#481,#104);
#75=LINE('',#483,#105);
#76=LINE('',#484,#106);
#77=LINE('',#489,#107);
#78=LINE('',#495,#108);
#79=LINE('',#500,#109);
#80=LINE('',#504,#110);
#81=LINE('',#508,#111);
#82=LINE('',#511,#112);
#83=LINE('',#513,#113);
#84=LINE('',#514,#114);
#85=LINE('',#519,#115);
#86=LINE('',#521,#116);
#87=LINE('',#522,#117);
#88=LINE('',#525,#118);
#89=LINE('',#527,#119);
#90=LINE('',#528,#120);
#91=LINE('',#532,#121);
#92=LINE('',#534,#122);
#93=LINE('',#535,#123);
#94=LINE('',#537,#124);
#95=LINE('',#539,#125);
#96=LINE('',#544,#126);
#97=LINE('',#550,#127);
#98=VECTOR('',#377,10.);
#99=VECTOR('',#378,10.);
#100=VECTOR('',#381,10.);
#101=VECTOR('',#382,10.);
#102=VECTOR('',#383,10.);
#103=VECTOR('',#386,10.);
#104=VECTOR('',#387,10.);
#105=VECTOR('',#388,10.);
#106=VECTOR('',#389,10.);
#107=VECTOR('',#394,10.);
#108=VECTOR('',#401,10.);
#109=VECTOR('',#406,10.);
#110=VECTOR('',#409,10.);
#111=VECTOR('',#412,10.);
#112=VECTOR('',#415,10.);
#113=VECTOR('',#416,10.);
#114=VECTOR('',#417,10.);
#115=VECTOR('',#422,10.);
#116=VECTOR('',#423,10.);
#117=VECTOR('',#424,10.);
#118=VECTOR('',#427,10.);
#119=VECTOR('',#428,10.);
#120=VECTOR('',#429,10.);
#121=VECTOR('',#434,6.5);
#122=VECTOR('',#437,10.);
#123=VECTOR('',#438,10.);
#124=VECTOR('',#441,10.);
#125=VECTOR('',#444,10.);
#126=VECTOR('',#449,10.);
#127=VECTOR('',#458,3.);
#128=CIRCLE('',#342,34.);
#129=CIRCLE('',#346,34.);
#130=CIRCLE('',#347,34.);
#131=CIRCLE('',#349,10.);
#132=CIRCLE('',#350,10.);
#133=CIRCLE('',#352,34.);
#134=CIRCLE('',#353,34.);
#135=CIRCLE('',#355,6.5);
#136=CIRCLE('',#358,6.5);
#137=CIRCLE('',#365,3.);
#138=CIRCLE('',#367,3.);
#139=CIRCLE('',#369,3.);
#140=VERTEX_POINT('',#465);
#141=VERTEX_POINT('',#466);
#142=VERTEX_POINT('',#468);
#143=VERTEX_POINT('',#472);
#144=VERTEX_POINT('',#473);
#145=VERTEX_POINT('',#478);
#146=VERTEX_POINT('',#480);
#147=VERTEX_POINT('',#482);
#148=VERTEX_POINT('',#486);
#149=VERTEX_POINT('',#488);
#150=VERTEX_POINT('',#492);
#151=VERTEX_POINT('',#494);
#152=VERTEX_POINT('',#498);
#153=VERTEX_POINT('',#499);
#154=VERTEX_POINT('',#501);
#155=VERTEX_POINT('',#503);
#156=VERTEX_POINT('',#506);
#157=VERTEX_POINT('',#507);
#158=VERTEX_POINT('',#510);
#159=VERTEX_POINT('',#512);
#160=VERTEX_POINT('',#515);
#161=VERTEX_POINT('',#518);
#162=VERTEX_POINT('',#520);
#163=VERTEX_POINT('',#524);
#164=VERTEX_POINT('',#526);
#165=VERTEX_POINT('',#529);
#166=VERTEX_POINT('',#542);
#167=VERTEX_POINT('',#543);
#168=VERTEX_POINT('',#547);
#169=EDGE_CURVE('',#140,#141,#128,.T.);
#170=EDGE_CURVE('',#140,#142,#68,.T.);
#171=EDGE_CURVE('',#142,#141,#69,.T.);
#172=EDGE_CURVE('',#143,#144,#70,.T.);
#173=EDGE_CURVE('',#141,#143,#71,.T.);
#174=EDGE_CURVE('',#142,#144,#72,.T.);
#175=EDGE_CURVE('',#140,#145,#73,.T.);
#176=EDGE_CURVE('',#146,#145,#74,.T.);
#177=EDGE_CURVE('',#147,#146,#75,.T.);
#178=EDGE_CURVE('',#144,#147,#76,.T.);
#179=EDGE_CURVE('',#143,#148,#129,.T.);
#180=EDGE_CURVE('',#149,#148,#77,.T.);
#181=EDGE_CURVE('',#145,#149,#130,.T.);
#182=EDGE_CURVE('',#150,#150,#131,.T.);
#183=EDGE_CURVE('',#150,#151,#78,.T.);
#184=EDGE_CURVE('',#151,#151,#132,.T.);
#185=EDGE_CURVE('',#152,#153,#79,.T.);
#186=EDGE_CURVE('',#154,#152,#133,.T.);
#187=EDGE_CURVE('',#155,#154,#80,.T.);
#188=EDGE_CURVE('',#155,#153,#134,.T.);
#189=EDGE_CURVE('',#156,#157,#81,.T.);
#190=EDGE_CURVE('',#154,#158,#82,.T.);
#191=EDGE_CURVE('',#158,#159,#83,.T.);
#192=EDGE_CURVE('',#159,#155,#84,.T.);
#193=EDGE_CURVE('',#160,#160,#135,.T.);
#194=EDGE_CURVE('',#153,#161,#85,.T.);
#195=EDGE_CURVE('',#161,#162,#86,.T.);
#196=EDGE_CURVE('',#162,#152,#87,.T.);
#197=EDGE_CURVE('',#163,#148,#88,.T.);
#198=EDGE_CURVE('',#164,#163,#89,.T.);
#199=EDGE_CURVE('',#149,#164,#90,.T.);
#200=EDGE_CURVE('',#165,#165,#136,.T.);
#201=EDGE_CURVE('',#165,#160,#91,.T.);
#202=EDGE_CURVE('',#163,#159,#92,.T.);
#203=EDGE_CURVE('',#164,#158,#93,.T.);
#204=EDGE_CURVE('',#146,#162,#94,.T.);
#205=EDGE_CURVE('',#147,#161,#95,.T.);
#206=EDGE_CURVE('',#166,#167,#96,.T.);
#207=EDGE_CURVE('',#166,#167,#137,.T.);
#208=EDGE_CURVE('',#168,#168,#138,.T.);
#209=EDGE_CURVE('',#168,#166,#97,.T.);
#210=EDGE_CURVE('',#167,#166,#139,.T.);
#211=ORIENTED_EDGE('',*,*,#169,.F.);
#212=ORIENTED_EDGE('',*,*,#170,.T.);
#213=ORIENTED_EDGE('',*,*,#171,.T.);
#214=ORIENTED_EDGE('',*,*,#172,.F.);
#215=ORIENTED_EDGE('',*,*,#173,.F.);
#216=ORIENTED_EDGE('',*,*,#171,.F.);
#217=ORIENTED_EDGE('',*,*,#174,.T.);
#218=ORIENTED_EDGE('',*,*,#175,.T.);
#219=ORIENTED_EDGE('',*,*,#176,.F.);
#220=ORIENTED_EDGE('',*,*,#177,.F.);
#221=ORIENTED_EDGE('',*,*,#178,.F.);
#222=ORIENTED_EDGE('',*,*,#174,.F.);
#223=ORIENTED_EDGE('',*,*,#170,.F.);
#224=ORIENTED_EDGE('',*,*,#173,.T.);
#225=ORIENTED_EDGE('',*,*,#179,.T.);
#226=ORIENTED_EDGE('',*,*,#180,.F.);
#227=ORIENTED_EDGE('',*,*,#181,.F.);
#228=ORIENTED_EDGE('',*,*,#175,.F.);
#229=ORIENTED_EDGE('',*,*,#169,.T.);
#230=ORIENTED_EDGE('',*,*,#182,.F.);
#231=ORIENTED_EDGE('',*,*,#183,.T.);
#232=ORIENTED_EDGE('',*,*,#184,.T.);
#233=ORIENTED_EDGE('',*,*,#183,.F.);
#234=ORIENTED_EDGE('',*,*,#185,.F.);
#235=ORIENTED_EDGE('',*,*,#186,.F.);
#236=ORIENTED_EDGE('',*,*,#187,.F.);
#237=ORIENTED_EDGE('',*,*,#188,.T.);
#238=ORIENTED_EDGE('',*,*,#189,.T.);
#239=ORIENTED_EDGE('',*,*,#189,.F.);
#240=ORIENTED_EDGE('',*,*,#187,.T.);
#241=ORIENTED_EDGE('',*,*,#190,.T.);
#242=ORIENTED_EDGE('',*,*,#191,.T.);
#243=ORIENTED_EDGE('',*,*,#192,.T.);
#244=ORIENTED_EDGE('',*,*,#193,.T.);
#245=ORIENTED_EDGE('',*,*,#185,.T.);
#246=ORIENTED_EDGE('',*,*,#194,.T.);
#247=ORIENTED_EDGE('',*,*,#195,.T.);
#248=ORIENTED_EDGE('',*,*,#196,.T.);
#249=ORIENTED_EDGE('',*,*,#180,.T.);
#250=ORIENTED_EDGE('',*,*,#197,.F.);
#251=ORIENTED_EDGE('',*,*,#198,.F.);
#252=ORIENTED_EDGE('',*,*,#199,.F.);
#253=ORIENTED_EDGE('',*,*,#200,.T.);
#254=ORIENTED_EDGE('',*,*,#200,.F.);
#255=ORIENTED_EDGE('',*,*,#201,.T.);
#256=ORIENTED_EDGE('',*,*,#193,.F.);
#257=ORIENTED_EDGE('',*,*,#201,.F.);
#258=ORIENTED_EDGE('',*,*,#198,.T.);
#259=ORIENTED_EDGE('',*,*,#202,.T.);
#260=ORIENTED_EDGE('',*,*,#191,.F.);
#261=ORIENTED_EDGE('',*,*,#203,.F.);
#262=ORIENTED_EDGE('',*,*,#196,.F.);
#263=ORIENTED_EDGE('',*,*,#204,.F.);
#264=ORIENTED_EDGE('',*,*,#176,.T.);
#265=ORIENTED_EDGE('',*,*,#181,.T.);
#266=ORIENTED_EDGE('',*,*,#199,.T.);
#267=ORIENTED_EDGE('',*,*,#203,.T.);
#268=ORIENTED_EDGE('',*,*,#190,.F.);
#269=ORIENTED_EDGE('',*,*,#186,.T.);
#270=ORIENTED_EDGE('',*,*,#182,.T.);
#271=ORIENTED_EDGE('',*,*,#177,.T.);
#272=ORIENTED_EDGE('',*,*,#204,.T.);
#273=ORIENTED_EDGE('',*,*,#195,.F.);
#274=ORIENTED_EDGE('',*,*,#205,.F.);
#275=ORIENTED_EDGE('',*,*,#178,.T.);
#276=ORIENTED_EDGE('',*,*,#205,.T.);
#277=ORIENTED_EDGE('',*,*,#194,.F.);
#278=ORIENTED_EDGE('',*,*,#188,.F.);
#279=ORIENTED_EDGE('',*,*,#192,.F.);
#280=ORIENTED_EDGE('',*,*,#202,.F.);
#281=ORIENTED_EDGE('',*,*,#197,.T.);
#282=ORIENTED_EDGE('',*,*,#179,.F.);
#283=ORIENTED_EDGE('',*,*,#172,.T.);
#284=ORIENTED_EDGE('',*,*,#184,.F.);
#285=ORIENTED_EDGE('',*,*,#206,.T.);
#286=ORIENTED_EDGE('',*,*,#207,.F.);
#287=ORIENTED_EDGE('',*,*,#208,.T.);
#288=ORIENTED_EDGE('',*,*,#208,.F.);
#289=ORIENTED_EDGE('',*,*,#209,.T.);
#290=ORIENTED_EDGE('',*,*,#207,.T.);
#291=ORIENTED_EDGE('',*,*,#210,.T.);
#292=ORIENTED_EDGE('',*,*,#209,.F.);
#293=ORIENTED_EDGE('',*,*,#206,.F.);
#294=ORIENTED_EDGE('',*,*,#210,.F.);
#295=PLANE('',#341);
#296=PLANE('',#343);
#297=PLANE('',#344);
#298=PLANE('',#354);
#299=PLANE('',#356);
#300=PLANE('',#357);
#301=PLANE('',#360);
#302=PLANE('',#361);
#303=PLANE('',#362);
#304=PLANE('',#363);
#305=PLANE('',#364);
#306=PLANE('',#366);
#307=PLANE('',#370);
#308=ADVANCED_FACE('',(#27),#295,.F.);
#309=ADVANCED_FACE('',(#28),#296,.F.);
#310=ADVANCED_FACE('',(#29),#297,.F.);
#311=ADVANCED_FACE('',(#30),#22,.T.);
#312=ADVANCED_FACE('',(#31),#23,.F.);
#313=ADVANCED_FACE('',(#32,#17),#24,.T.);
#314=ADVANCED_FACE('',(#33,#18),#298,.T.);
#315=ADVANCED_FACE('',(#34),#299,.T.);
#316=ADVANCED_FACE('',(#35,#19),#300,.F.);
#317=ADVANCED_FACE('',(#36),#25,.F.);
#318=ADVANCED_FACE('',(#37),#301,.T.);
#319=ADVANCED_FACE('',(#38,#20),#302,.T.);
#320=ADVANCED_FACE('',(#39),#303,.T.);
#321=ADVANCED_FACE('',(#40,#21),#304,.T.);
#322=ADVANCED_FACE('',(#41),#305,.F.);
#323=ADVANCED_FACE('',(#42),#306,.T.);
#324=ADVANCED_FACE('',(#43),#26,.T.);
#325=ADVANCED_FACE('',(#44),#307,.F.);
#326=CLOSED_SHELL('',(#308,#309,#310,#311,#312,#313,#314,#315,#316,#317,
#318,#319,#320,#321));
#327=CLOSED_SHELL('',(#322,#323,#324,#325));
#328=DERIVED_UNIT_ELEMENT(#330,1.);
#329=DERIVED_UNIT_ELEMENT(#558,-3.);
#330=(
MASS_UNIT()
NAMED_UNIT(*)
SI_UNIT(.KILO.,.GRAM.)
);
#331=DERIVED_UNIT((#328,#329));
#332=MEASURE_REPRESENTATION_ITEM('density measure',
POSITIVE_RATIO_MEASURE(7850.),#331);
#333=PROPERTY_DEFINITION_REPRESENTATION(#338,#335);
#334=PROPERTY_DEFINITION_REPRESENTATION(#339,#336);
#335=REPRESENTATION('material name',(#337),#555);
#336=REPRESENTATION('density',(#332),#555);
#337=DESCRIPTIVE_REPRESENTATION_ITEM('A\X\E7o','A\X\E7o');
#338=PROPERTY_DEFINITION('material property','material name',#565);
#339=PROPERTY_DEFINITION('material property','density of part',#565);
#340=AXIS2_PLACEMENT_3D('',#463,#371,#372);
#341=AXIS2_PLACEMENT_3D('',#464,#373,#374);
#342=AXIS2_PLACEMENT_3D('',#467,#375,#376);
#343=AXIS2_PLACEMENT_3D('',#471,#379,#380);
#344=AXIS2_PLACEMENT_3D('',#477,#384,#385);
#345=AXIS2_PLACEMENT_3D('',#485,#390,#391);
#346=AXIS2_PLACEMENT_3D('',#487,#392,#393);
#347=AXIS2_PLACEMENT_3D('',#490,#395,#396);
#348=AXIS2_PLACEMENT_3D('',#491,#397,#398);
#349=AXIS2_PLACEMENT_3D('',#493,#399,#400);
#350=AXIS2_PLACEMENT_3D('',#496,#402,#403);
#351=AXIS2_PLACEMENT_3D('',#497,#404,#405);
#352=AXIS2_PLACEMENT_3D('',#502,#407,#408);
#353=AXIS2_PLACEMENT_3D('',#505,#410,#411);
#354=AXIS2_PLACEMENT_3D('',#509,#413,#414);
#355=AXIS2_PLACEMENT_3D('',#516,#418,#419);
#356=AXIS2_PLACEMENT_3D('',#517,#420,#421);
#357=AXIS2_PLACEMENT_3D('',#523,#425,#426);
#358=AXIS2_PLACEMENT_3D('',#530,#430,#431);
#359=AXIS2_PLACEMENT_3D('',#531,#432,#433);
#360=AXIS2_PLACEMENT_3D('',#533,#435,#436);
#361=AXIS2_PLACEMENT_3D('',#536,#439,#440);
#362=AXIS2_PLACEMENT_3D('',#538,#442,#443);
#363=AXIS2_PLACEMENT_3D('',#540,#445,#446);
#364=AXIS2_PLACEMENT_3D('',#541,#447,#448);
#365=AXIS2_PLACEMENT_3D('',#545,#450,#451);
#366=AXIS2_PLACEMENT_3D('',#546,#452,#453);
#367=AXIS2_PLACEMENT_3D('',#548,#454,#455);
#368=AXIS2_PLACEMENT_3D('',#549,#456,#457);
#369=AXIS2_PLACEMENT_3D('',#551,#459,#460);
#370=AXIS2_PLACEMENT_3D('',#552,#461,#462);
#371=DIRECTION('axis',(0.,0.,1.));
#372=DIRECTION('refdir',(1.,0.,0.));
#373=DIRECTION('center_axis',(1.,0.,0.));
#374=DIRECTION('ref_axis',(0.,-1.,0.));
#375=DIRECTION('center_axis',(1.,0.,0.));
#376=DIRECTION('ref_axis',(0.,0.,-1.));
#377=DIRECTION('',(0.,1.,0.));
#378=DIRECTION('',(0.,0.,-1.));
#379=DIRECTION('center_axis',(0.,1.,0.));
#380=DIRECTION('ref_axis',(1.,0.,0.));
#381=DIRECTION('',(0.,0.,1.));
#382=DIRECTION('',(-1.,0.,0.));
#383=DIRECTION('',(-1.,0.,0.));
#384=DIRECTION('center_axis',(0.,0.,1.));
#385=DIRECTION('ref_axis',(1.,0.,0.));
#386=DIRECTION('',(1.,0.,0.));
#387=DIRECTION('',(0.,1.,0.));
#388=DIRECTION('',(1.,0.,0.));
#389=DIRECTION('',(0.,-1.,0.));
#390=DIRECTION('center_axis',(1.,0.,0.));
#391=DIRECTION('ref_axis',(0.,0.,-1.));
#392=DIRECTION('center_axis',(1.,0.,0.));
#393=DIRECTION('ref_axis',(0.,0.,-1.));
#394=DIRECTION('',(-1.,0.,0.));
#395=DIRECTION('center_axis',(1.,0.,0.));
#396=DIRECTION('ref_axis',(0.,0.,-1.));
#397=DIRECTION('center_axis',(1.,0.,0.));
#398=DIRECTION('ref_axis',(0.,0.,-1.));
#399=DIRECTION('center_axis',(-1.,0.,0.));
#400=DIRECTION('ref_axis',(0.,0.,-1.));
#401=DIRECTION('',(-1.,0.,0.));
#402=DIRECTION('center_axis',(-1.,0.,0.));
#403=DIRECTION('ref_axis',(0.,0.,-1.));
#404=DIRECTION('center_axis',(1.,0.,0.));
#405=DIRECTION('ref_axis',(0.,-1.22464679914735E-16,1.));
#406=DIRECTION('',(-1.,0.,0.));
#407=DIRECTION('center_axis',(1.,0.,0.));
#408=DIRECTION('ref_axis',(0.,0.,-1.));
#409=DIRECTION('',(1.,0.,0.));
#410=DIRECTION('center_axis',(1.,0.,0.));
#411=DIRECTION('ref_axis',(0.,0.,-1.));
#412=DIRECTION('',(1.,0.,0.));
#413=DIRECTION('center_axis',(0.,0.,1.));
#414=DIRECTION('ref_axis',(1.,0.,0.));
#415=DIRECTION('',(0.,1.,0.));
#416=DIRECTION('',(-1.,0.,0.));
#417=DIRECTION('',(0.,-1.,0.));
#418=DIRECTION('center_axis',(0.,0.,-1.));
#419=DIRECTION('ref_axis',(1.,0.,0.));
#420=DIRECTION('center_axis',(0.,0.,1.));
#421=DIRECTION('ref_axis',(1.,0.,0.));
#422=DIRECTION('',(0.,-1.,0.));
#423=DIRECTION('',(1.,0.,0.));
#424=DIRECTION('',(0.,1.,0.));
#425=DIRECTION('center_axis',(0.,0.,1.));
#426=DIRECTION('ref_axis',(1.,0.,0.));
#427=DIRECTION('',(0.,-1.,0.));
#428=DIRECTION('',(-1.,0.,0.));
#429=DIRECTION('',(0.,1.,0.));
#430=DIRECTION('center_axis',(0.,0.,1.));
#431=DIRECTION('ref_axis',(1.,0.,0.));
#432=DIRECTION('center_axis',(0.,0.,1.));
#433=DIRECTION('ref_axis',(1.,0.,0.));
#434=DIRECTION('',(0.,0.,1.));
#435=DIRECTION('center_axis',(0.,1.,0.));
#436=DIRECTION('ref_axis',(-1.,0.,0.));
#437=DIRECTION('',(0.,0.,1.));
#438=DIRECTION('',(0.,0.,1.));
#439=DIRECTION('center_axis',(1.,0.,0.));
#440=DIRECTION('ref_axis',(0.,1.,0.));
#441=DIRECTION('',(0.,0.,1.));
#442=DIRECTION('center_axis',(0.,-1.,0.));
#443=DIRECTION('ref_axis',(1.,0.,0.));
#444=DIRECTION('',(0.,0.,1.));
#445=DIRECTION('center_axis',(-1.,0.,0.));
#446=DIRECTION('ref_axis',(0.,-1.,0.));
#447=DIRECTION('center_axis',(0.,0.,1.));
#448=DIRECTION('ref_axis',(1.,0.,0.));
#449=DIRECTION('',(1.,0.,0.));
#450=DIRECTION('center_axis',(0.,0.,1.));
#451=DIRECTION('ref_axis',(1.,0.,0.));
#452=DIRECTION('center_axis',(0.,0.,1.));
#453=DIRECTION('ref_axis',(1.,0.,0.));
#454=DIRECTION('center_axis',(0.,0.,1.));
#455=DIRECTION('ref_axis',(1.,0.,0.));
#456=DIRECTION('center_axis',(0.,0.,1.));
#457=DIRECTION('ref_axis',(1.,0.,0.));
#458=DIRECTION('',(0.,0.,-1.));
#459=DIRECTION('center_axis',(0.,0.,1.));
#460=DIRECTION('ref_axis',(1.,0.,0.));
#461=DIRECTION('center_axis',(0.,0.,1.));
#462=DIRECTION('ref_axis',(1.,0.,0.));
#463=CARTESIAN_POINT('',(0.,0.,0.));
#464=CARTESIAN_POINT('Origin',(4.99999999999999,4.99999999999998,0.));
#465=CARTESIAN_POINT('',(4.99999999999999,-6.86367248635887,0.));
#466=CARTESIAN_POINT('',(4.99999999999999,4.99999999999998,-0.330343441600474));
#467=CARTESIAN_POINT('Origin',(4.99999999999999,0.,33.3));
#468=CARTESIAN_POINT('',(4.99999999999999,4.99999999999998,0.));
#469=CARTESIAN_POINT('',(4.99999999999999,-132.,0.));
#470=CARTESIAN_POINT('',(4.99999999999999,4.99999999999998,0.));
#471=CARTESIAN_POINT('Origin',(-43.,4.99999999999998,0.));
#472=CARTESIAN_POINT('',(-19.,4.99999999999998,-0.330343441600474));
#473=CARTESIAN_POINT('',(-19.,4.99999999999998,0.));
#474=CARTESIAN_POINT('',(-19.,4.99999999999998,0.));
#475=CARTESIAN_POINT('',(-19.,4.99999999999998,-0.330343441600474));
#476=CARTESIAN_POINT('',(4.99999999999999,4.99999999999998,0.));
#477=CARTESIAN_POINT('Origin',(0.,0.,0.));
#478=CARTESIAN_POINT('',(19.,-6.86367248635887,0.));
#479=CARTESIAN_POINT('',(-19.,-6.86367248635887,0.));
#480=CARTESIAN_POINT('',(19.,-63.5,0.));
#481=CARTESIAN_POINT('',(19.,-63.5,0.));
#482=CARTESIAN_POINT('',(-19.,-63.5,0.));
#483=CARTESIAN_POINT('',(-19.,-63.5,0.));
#484=CARTESIAN_POINT('',(-19.,63.5,0.));
#485=CARTESIAN_POINT('Origin',(-19.,0.,33.3));
#486=CARTESIAN_POINT('',(-19.,6.86367248635887,0.));
#487=CARTESIAN_POINT('Origin',(-19.,0.,33.3));
#488=CARTESIAN_POINT('',(19.,6.86367248635887,0.));
#489=CARTESIAN_POINT('',(-19.,6.86367248635887,0.));
#490=CARTESIAN_POINT('Origin',(19.,0.,33.3));
#491=CARTESIAN_POINT('Origin',(-19.,0.,33.3));
#492=CARTESIAN_POINT('',(19.,-1.22464679914735E-15,43.3));
#493=CARTESIAN_POINT('Origin',(19.,0.,33.3));
#494=CARTESIAN_POINT('',(-19.,-1.22464679914735E-15,43.3));
#495=CARTESIAN_POINT('',(-19.,-1.22464679914735E-15,43.3));
#496=CARTESIAN_POINT('Origin',(-19.,0.,33.3));
#497=CARTESIAN_POINT('Origin',(-19.,0.,33.3));
#498=CARTESIAN_POINT('',(19.,-28.6550170127327,15.));
#499=CARTESIAN_POINT('',(-19.,-28.6550170127327,15.));
#500=CARTESIAN_POINT('',(-19.,-28.6550170127327,15.));
#501=CARTESIAN_POINT('',(19.,28.6550170127327,15.));
#502=CARTESIAN_POINT('Origin',(19.,0.,33.3));
#503=CARTESIAN_POINT('',(-19.,28.6550170127327,15.));
#504=CARTESIAN_POINT('',(-19.,28.6550170127327,15.));
#505=CARTESIAN_POINT('Origin',(-19.,0.,33.3));
#506=CARTESIAN_POINT('',(-3.,-3.67394039744206E-16,67.3));
#507=CARTESIAN_POINT('',(3.,0.,67.3));
#508=CARTESIAN_POINT('',(-19.,0.,67.3));
#509=CARTESIAN_POINT('Origin',(0.,0.,15.));
#510=CARTESIAN_POINT('',(19.,63.5,15.));
#511=CARTESIAN_POINT('',(19.,-63.5,15.));
#512=CARTESIAN_POINT('',(-19.,63.5,15.));
#513=CARTESIAN_POINT('',(19.,63.5,15.));
#514=CARTESIAN_POINT('',(-19.,63.5,15.));
#515=CARTESIAN_POINT('',(-6.5,47.5,15.));
#516=CARTESIAN_POINT('Origin',(0.,47.5,15.));
#517=CARTESIAN_POINT('Origin',(0.,0.,15.));
#518=CARTESIAN_POINT('',(-19.,-63.5,15.));
#519=CARTESIAN_POINT('',(-19.,63.5,15.));
#520=CARTESIAN_POINT('',(19.,-63.5,15.));
#521=CARTESIAN_POINT('',(-19.,-63.5,15.));
#522=CARTESIAN_POINT('',(19.,-63.5,15.));
#523=CARTESIAN_POINT('Origin',(0.,0.,0.));
#524=CARTESIAN_POINT('',(-19.,63.5,0.));
#525=CARTESIAN_POINT('',(-19.,63.5,0.));
#526=CARTESIAN_POINT('',(19.,63.5,0.));
#527=CARTESIAN_POINT('',(19.,63.5,0.));
#528=CARTESIAN_POINT('',(19.,-63.5,0.));
#529=CARTESIAN_POINT('',(-6.5,47.5,0.));
#530=CARTESIAN_POINT('Origin',(0.,47.5,0.));
#531=CARTESIAN_POINT('Origin',(0.,47.5,0.));
#532=CARTESIAN_POINT('',(-6.5,47.5,0.));
#533=CARTESIAN_POINT('Origin',(19.,63.5,0.));
#534=CARTESIAN_POINT('',(-19.,63.5,0.));
#535=CARTESIAN_POINT('',(19.,63.5,0.));
#536=CARTESIAN_POINT('Origin',(19.,-63.5,0.));
#537=CARTESIAN_POINT('',(19.,-63.5,0.));
#538=CARTESIAN_POINT('Origin',(-19.,-63.5,0.));
#539=CARTESIAN_POINT('',(-19.,-63.5,0.));
#540=CARTESIAN_POINT('Origin',(-19.,63.5,0.));
#541=CARTESIAN_POINT('Origin',(0.,0.,67.3));
#542=CARTESIAN_POINT('',(-3.,-3.67394039744206E-16,67.3));
#543=CARTESIAN_POINT('',(3.,0.,67.3));
#544=CARTESIAN_POINT('',(-19.,0.,67.3));
#545=CARTESIAN_POINT('Origin',(0.,0.,67.3));
#546=CARTESIAN_POINT('Origin',(0.,0.,73.3));
#547=CARTESIAN_POINT('',(-3.,-3.67394039744206E-16,73.3));
#548=CARTESIAN_POINT('Origin',(0.,0.,73.3));
#549=CARTESIAN_POINT('Origin',(0.,0.,67.3));
#550=CARTESIAN_POINT('',(-3.,-3.67394039744206E-16,67.3));
#551=CARTESIAN_POINT('Origin',(0.,0.,67.3));
#552=CARTESIAN_POINT('Origin',(0.,0.,67.3));
#553=UNCERTAINTY_MEASURE_WITH_UNIT(LENGTH_MEASURE(0.01),#557,
'DISTANCE_ACCURACY_VALUE',
'Maximum model space distance between geometric entities at asserted c
onnectivities');
#554=UNCERTAINTY_MEASURE_WITH_UNIT(LENGTH_MEASURE(0.01),#557,
'DISTANCE_ACCURACY_VALUE',
'Maximum model space distance between geometric entities at asserted c
onnectivities');
#555=(
GEOMETRIC_REPRESENTATION_CONTEXT(3)
GLOBAL_UNCERTAINTY_ASSIGNED_CONTEXT((#553))
GLOBAL_UNIT_ASSIGNED_CONTEXT((#557,#559,#560))
REPRESENTATION_CONTEXT('','3D')
);
#556=(
GEOMETRIC_REPRESENTATION_CONTEXT(3)
GLOBAL_UNCERTAINTY_ASSIGNED_CONTEXT((#554))
GLOBAL_UNIT_ASSIGNED_CONTEXT((#557,#559,#560))
REPRESENTATION_CONTEXT('','3D')
);
#557=(
LENGTH_UNIT()
NAMED_UNIT(*)
SI_UNIT(.MILLI.,.METRE.)
);
#558=(
LENGTH_UNIT()
NAMED_UNIT(*)
SI_UNIT($,.METRE.)
);
#559=(
NAMED_UNIT(*)
PLANE_ANGLE_UNIT()
SI_UNIT($,.RADIAN.)
);
#560=(
NAMED_UNIT(*)
SI_UNIT($,.STERADIAN.)
SOLID_ANGLE_UNIT()
);
#561=SHAPE_DEFINITION_REPRESENTATION(#562,#563);
#562=PRODUCT_DEFINITION_SHAPE('',$,#565);
#563=SHAPE_REPRESENTATION('',(#340),#555);
#564=PRODUCT_DEFINITION_CONTEXT('part definition',#569,'design');
#565=PRODUCT_DEFINITION('(N\X\E3o salvo)','(N\X\E3o salvo)',#566,#564);
#566=PRODUCT_DEFINITION_FORMATION('',$,#571);
#567=PRODUCT_RELATED_PRODUCT_CATEGORY('(N\X\E3o salvo)','(N\X\E3o salv
o)',(#571));
#568=APPLICATION_PROTOCOL_DEFINITION('international standard',
'automotive_design',2009,#569);
#569=APPLICATION_CONTEXT(
'Core Data for Automotive Mechanical Design Process');
#570=PRODUCT_CONTEXT('part definition',#569,'mechanical');
#571=PRODUCT('(N\X\E3o salvo)','(N\X\E3o salvo)',$,(#570));
#572=PRESENTATION_STYLE_ASSIGNMENT((#574));
#573=PRESENTATION_STYLE_ASSIGNMENT((#575));
#574=SURFACE_STYLE_USAGE(.BOTH.,#576);
#575=SURFACE_STYLE_USAGE(.BOTH.,#577);
#576=SURFACE_SIDE_STYLE('',(#578));
#577=SURFACE_SIDE_STYLE('',(#579));
#578=SURFACE_STYLE_FILL_AREA(#580);
#579=SURFACE_STYLE_FILL_AREA(#581);
#580=FILL_AREA_STYLE('A\X\E7o - Acetinado',(#582));
#581=FILL_AREA_STYLE('Verde_Ferro_Fundido_Mancal',(#583));
#582=FILL_AREA_STYLE_COLOUR('A\X\E7o - Acetinado',#584);
#583=FILL_AREA_STYLE_COLOUR('Verde_Ferro_Fundido_Mancal',#585);
#584=COLOUR_RGB('A\X\E7o - Acetinado',0.627450980392157,0.627450980392157,
0.627450980392157);
#585=COLOUR_RGB('Verde_Ferro_Fundido_Mancal',0.964705882352941,0.964705882352941,
0.952941176470588);
ENDSEC;
END-ISO-10303-21;
