ISO-10303-21;
HEADER;
/* Generated by software containing ST-Developer
 * from STEP Tools, Inc. (www.steptools.com) 
 */

FILE_DESCRIPTION(
/* description */ (''),
/* implementation_level */ '2;1');

FILE_NAME(
/* name */ '17_Passa_Cabo_Borracha_Grommet.step',
/* time_stamp */ '2026-09-24T14:38:25-03:00',
/* author */ (''),
/* organization */ (''),
/* preprocessor_version */ 'ST-DEVELOPER v20.2',
/* originating_system */ 'Autodesk Translation Framework v15.15.0.0',
/* authorisation */ '');

FILE_SCHEMA (('AUTOMOTIVE_DESIGN { 1 0 10303 214 3 1 1 }'));
ENDSEC;

DATA;
#10=MECHANICAL_DESIGN_GEOMETRIC_PRESENTATION_REPRESENTATION('',(#13),#355);
#11=SHAPE_REPRESENTATION_RELATIONSHIP('SRR','None',#362,#12);
#12=ADVANCED_BREP_SHAPE_REPRESENTATION('',(#14),#354);
#13=STYLED_ITEM('',(#372),#14);
#14=MANIFOLD_SOLID_BREP('Corpo1',#191);
#15=FACE_BOUND('',#42,.T.);
#16=FACE_BOUND('',#45,.T.);
#17=FACE_BOUND('',#49,.T.);
#18=FACE_BOUND('',#52,.T.);
#19=PLANE('',#212);
#20=PLANE('',#216);
#21=PLANE('',#225);
#22=PLANE('',#229);
#23=CYLINDRICAL_SURFACE('',#209,12.);
#24=CYLINDRICAL_SURFACE('',#222,12.);
#25=CYLINDRICAL_SURFACE('',#231,9.);
#26=CYLINDRICAL_SURFACE('',#232,3.5);
#27=FACE_OUTER_BOUND('',#39,.T.);
#28=FACE_OUTER_BOUND('',#40,.T.);
#29=FACE_OUTER_BOUND('',#41,.T.);
#30=FACE_OUTER_BOUND('',#43,.T.);
#31=FACE_OUTER_BOUND('',#44,.T.);
#32=FACE_OUTER_BOUND('',#46,.T.);
#33=FACE_OUTER_BOUND('',#47,.T.);
#34=FACE_OUTER_BOUND('',#48,.T.);
#35=FACE_OUTER_BOUND('',#50,.T.);
#36=FACE_OUTER_BOUND('',#51,.T.);
#37=FACE_OUTER_BOUND('',#53,.T.);
#38=FACE_OUTER_BOUND('',#54,.T.);
#39=EDGE_LOOP('',(#127,#128,#129,#130,#131));
#40=EDGE_LOOP('',(#132,#133,#134,#135,#136,#137));
#41=EDGE_LOOP('',(#138));
#42=EDGE_LOOP('',(#139));
#43=EDGE_LOOP('',(#140,#141,#142,#143,#144));
#44=EDGE_LOOP('',(#145));
#45=EDGE_LOOP('',(#146));
#46=EDGE_LOOP('',(#147,#148,#149,#150,#151));
#47=EDGE_LOOP('',(#152,#153,#154,#155,#156,#157));
#48=EDGE_LOOP('',(#158));
#49=EDGE_LOOP('',(#159));
#50=EDGE_LOOP('',(#160,#161,#162,#163,#164));
#51=EDGE_LOOP('',(#165));
#52=EDGE_LOOP('',(#166));
#53=EDGE_LOOP('',(#167,#168,#169,#170));
#54=EDGE_LOOP('',(#171,#172,#173,#174));
#55=LINE('',#304,#63);
#56=LINE('',#310,#64);
#57=LINE('',#319,#65);
#58=LINE('',#328,#66);
#59=LINE('',#334,#67);
#60=LINE('',#343,#68);
#61=LINE('',#349,#69);
#62=LINE('',#351,#70);
#63=VECTOR('',#239,11.6);
#64=VECTOR('',#246,12.);
#65=VECTOR('',#257,11.6);
#66=VECTOR('',#268,11.6);
#67=VECTOR('',#275,12.);
#68=VECTOR('',#286,11.6);
#69=VECTOR('',#295,9.);
#70=VECTOR('',#298,3.5);
#71=CIRCLE('',#206,11.2);
#72=CIRCLE('',#207,12.);
#73=CIRCLE('',#208,12.);
#74=CIRCLE('',#210,12.);
#75=CIRCLE('',#211,12.);
#76=CIRCLE('',#213,3.5);
#77=CIRCLE('',#215,11.2);
#78=CIRCLE('',#217,9.);
#79=CIRCLE('',#219,11.2);
#80=CIRCLE('',#220,12.);
#81=CIRCLE('',#221,12.);
#82=CIRCLE('',#223,12.);
#83=CIRCLE('',#224,12.);
#84=CIRCLE('',#226,9.);
#85=CIRCLE('',#228,11.2);
#86=CIRCLE('',#230,3.5);
#87=VERTEX_POINT('',#301);
#88=VERTEX_POINT('',#303);
#89=VERTEX_POINT('',#305);
#90=VERTEX_POINT('',#309);
#91=VERTEX_POINT('',#311);
#92=VERTEX_POINT('',#315);
#93=VERTEX_POINT('',#318);
#94=VERTEX_POINT('',#322);
#95=VERTEX_POINT('',#325);
#96=VERTEX_POINT('',#327);
#97=VERTEX_POINT('',#329);
#98=VERTEX_POINT('',#333);
#99=VERTEX_POINT('',#335);
#100=VERTEX_POINT('',#339);
#101=VERTEX_POINT('',#342);
#102=VERTEX_POINT('',#346);
#103=EDGE_CURVE('',#87,#87,#71,.T.);
#104=EDGE_CURVE('',#87,#88,#55,.T.);
#105=EDGE_CURVE('',#88,#89,#72,.T.);
#106=EDGE_CURVE('',#89,#88,#73,.T.);
#107=EDGE_CURVE('',#89,#90,#56,.T.);
#108=EDGE_CURVE('',#91,#90,#74,.T.);
#109=EDGE_CURVE('',#90,#91,#75,.T.);
#110=EDGE_CURVE('',#92,#92,#76,.T.);
#111=EDGE_CURVE('',#91,#93,#57,.T.);
#112=EDGE_CURVE('',#93,#93,#77,.T.);
#113=EDGE_CURVE('',#94,#94,#78,.T.);
#114=EDGE_CURVE('',#95,#95,#79,.T.);
#115=EDGE_CURVE('',#95,#96,#58,.T.);
#116=EDGE_CURVE('',#96,#97,#80,.T.);
#117=EDGE_CURVE('',#97,#96,#81,.T.);
#118=EDGE_CURVE('',#97,#98,#59,.T.);
#119=EDGE_CURVE('',#99,#98,#82,.T.);
#120=EDGE_CURVE('',#98,#99,#83,.T.);
#121=EDGE_CURVE('',#100,#100,#84,.T.);
#122=EDGE_CURVE('',#99,#101,#60,.T.);
#123=EDGE_CURVE('',#101,#101,#85,.T.);
#124=EDGE_CURVE('',#102,#102,#86,.T.);
#125=EDGE_CURVE('',#94,#100,#61,.T.);
#126=EDGE_CURVE('',#92,#102,#62,.T.);
#127=ORIENTED_EDGE('',*,*,#103,.T.);
#128=ORIENTED_EDGE('',*,*,#104,.T.);
#129=ORIENTED_EDGE('',*,*,#105,.T.);
#130=ORIENTED_EDGE('',*,*,#106,.T.);
#131=ORIENTED_EDGE('',*,*,#104,.F.);
#132=ORIENTED_EDGE('',*,*,#105,.F.);
#133=ORIENTED_EDGE('',*,*,#106,.F.);
#134=ORIENTED_EDGE('',*,*,#107,.T.);
#135=ORIENTED_EDGE('',*,*,#108,.F.);
#136=ORIENTED_EDGE('',*,*,#109,.F.);
#137=ORIENTED_EDGE('',*,*,#107,.F.);
#138=ORIENTED_EDGE('',*,*,#103,.F.);
#139=ORIENTED_EDGE('',*,*,#110,.F.);
#140=ORIENTED_EDGE('',*,*,#108,.T.);
#141=ORIENTED_EDGE('',*,*,#109,.T.);
#142=ORIENTED_EDGE('',*,*,#111,.T.);
#143=ORIENTED_EDGE('',*,*,#112,.T.);
#144=ORIENTED_EDGE('',*,*,#111,.F.);
#145=ORIENTED_EDGE('',*,*,#112,.F.);
#146=ORIENTED_EDGE('',*,*,#113,.T.);
#147=ORIENTED_EDGE('',*,*,#114,.T.);
#148=ORIENTED_EDGE('',*,*,#115,.T.);
#149=ORIENTED_EDGE('',*,*,#116,.T.);
#150=ORIENTED_EDGE('',*,*,#117,.T.);
#151=ORIENTED_EDGE('',*,*,#115,.F.);
#152=ORIENTED_EDGE('',*,*,#116,.F.);
#153=ORIENTED_EDGE('',*,*,#117,.F.);
#154=ORIENTED_EDGE('',*,*,#118,.T.);
#155=ORIENTED_EDGE('',*,*,#119,.F.);
#156=ORIENTED_EDGE('',*,*,#120,.F.);
#157=ORIENTED_EDGE('',*,*,#118,.F.);
#158=ORIENTED_EDGE('',*,*,#114,.F.);
#159=ORIENTED_EDGE('',*,*,#121,.F.);
#160=ORIENTED_EDGE('',*,*,#119,.T.);
#161=ORIENTED_EDGE('',*,*,#120,.T.);
#162=ORIENTED_EDGE('',*,*,#122,.T.);
#163=ORIENTED_EDGE('',*,*,#123,.T.);
#164=ORIENTED_EDGE('',*,*,#122,.F.);
#165=ORIENTED_EDGE('',*,*,#123,.F.);
#166=ORIENTED_EDGE('',*,*,#124,.T.);
#167=ORIENTED_EDGE('',*,*,#113,.F.);
#168=ORIENTED_EDGE('',*,*,#125,.T.);
#169=ORIENTED_EDGE('',*,*,#121,.T.);
#170=ORIENTED_EDGE('',*,*,#125,.F.);
#171=ORIENTED_EDGE('',*,*,#110,.T.);
#172=ORIENTED_EDGE('',*,*,#126,.T.);
#173=ORIENTED_EDGE('',*,*,#124,.F.);
#174=ORIENTED_EDGE('',*,*,#126,.F.);
#175=CONICAL_SURFACE('',#205,11.6,0.785398163397449);
#176=CONICAL_SURFACE('',#214,11.6,0.785398163397449);
#177=CONICAL_SURFACE('',#218,11.6,0.785398163397449);
#178=CONICAL_SURFACE('',#227,11.6,0.785398163397449);
#179=ADVANCED_FACE('',(#27),#175,.T.);
#180=ADVANCED_FACE('',(#28),#23,.T.);
#181=ADVANCED_FACE('',(#29,#15),#19,.T.);
#182=ADVANCED_FACE('',(#30),#176,.T.);
#183=ADVANCED_FACE('',(#31,#16),#20,.T.);
#184=ADVANCED_FACE('',(#32),#177,.T.);
#185=ADVANCED_FACE('',(#33),#24,.T.);
#186=ADVANCED_FACE('',(#34,#17),#21,.T.);
#187=ADVANCED_FACE('',(#35),#178,.T.);
#188=ADVANCED_FACE('',(#36,#18),#22,.T.);
#189=ADVANCED_FACE('',(#37),#25,.T.);
#190=ADVANCED_FACE('',(#38),#26,.F.);
#191=CLOSED_SHELL('',(#179,#180,#181,#182,#183,#184,#185,#186,#187,#188,
#189,#190));
#192=DERIVED_UNIT_ELEMENT(#194,1.);
#193=DERIVED_UNIT_ELEMENT(#357,-3.);
#194=(
MASS_UNIT()
NAMED_UNIT(*)
SI_UNIT(.KILO.,.GRAM.)
);
#195=DERIVED_UNIT((#192,#193));
#196=MEASURE_REPRESENTATION_ITEM('density measure',
POSITIVE_RATIO_MEASURE(7850.),#195);
#197=PROPERTY_DEFINITION_REPRESENTATION(#202,#199);
#198=PROPERTY_DEFINITION_REPRESENTATION(#203,#200);
#199=REPRESENTATION('material name',(#201),#354);
#200=REPRESENTATION('density',(#196),#354);
#201=DESCRIPTIVE_REPRESENTATION_ITEM('A\X\E7o','A\X\E7o');
#202=PROPERTY_DEFINITION('material property','material name',#364);
#203=PROPERTY_DEFINITION('material property','density of part',#364);
#204=AXIS2_PLACEMENT_3D('',#299,#233,#234);
#205=AXIS2_PLACEMENT_3D('',#300,#235,#236);
#206=AXIS2_PLACEMENT_3D('',#302,#237,#238);
#207=AXIS2_PLACEMENT_3D('',#306,#240,#241);
#208=AXIS2_PLACEMENT_3D('',#307,#242,#243);
#209=AXIS2_PLACEMENT_3D('',#308,#244,#245);
#210=AXIS2_PLACEMENT_3D('',#312,#247,#248);
#211=AXIS2_PLACEMENT_3D('',#313,#249,#250);
#212=AXIS2_PLACEMENT_3D('',#314,#251,#252);
#213=AXIS2_PLACEMENT_3D('',#316,#253,#254);
#214=AXIS2_PLACEMENT_3D('',#317,#255,#256);
#215=AXIS2_PLACEMENT_3D('',#320,#258,#259);
#216=AXIS2_PLACEMENT_3D('',#321,#260,#261);
#217=AXIS2_PLACEMENT_3D('',#323,#262,#263);
#218=AXIS2_PLACEMENT_3D('',#324,#264,#265);
#219=AXIS2_PLACEMENT_3D('',#326,#266,#267);
#220=AXIS2_PLACEMENT_3D('',#330,#269,#270);
#221=AXIS2_PLACEMENT_3D('',#331,#271,#272);
#222=AXIS2_PLACEMENT_3D('',#332,#273,#274);
#223=AXIS2_PLACEMENT_3D('',#336,#276,#277);
#224=AXIS2_PLACEMENT_3D('',#337,#278,#279);
#225=AXIS2_PLACEMENT_3D('',#338,#280,#281);
#226=AXIS2_PLACEMENT_3D('',#340,#282,#283);
#227=AXIS2_PLACEMENT_3D('',#341,#284,#285);
#228=AXIS2_PLACEMENT_3D('',#344,#287,#288);
#229=AXIS2_PLACEMENT_3D('',#345,#289,#290);
#230=AXIS2_PLACEMENT_3D('',#347,#291,#292);
#231=AXIS2_PLACEMENT_3D('',#348,#293,#294);
#232=AXIS2_PLACEMENT_3D('',#350,#296,#297);
#233=DIRECTION('axis',(0.,0.,1.));
#234=DIRECTION('refdir',(1.,0.,0.));
#235=DIRECTION('center_axis',(0.,0.,-1.));
#236=DIRECTION('ref_axis',(-1.,0.,0.));
#237=DIRECTION('center_axis',(0.,0.,-1.));
#238=DIRECTION('ref_axis',(-1.,0.,0.));
#239=DIRECTION('',(0.707106781186548,8.65956056235494E-17,-0.707106781186547));
#240=DIRECTION('center_axis',(0.,0.,1.));
#241=DIRECTION('ref_axis',(-1.,0.,0.));
#242=DIRECTION('center_axis',(0.,0.,1.));
#243=DIRECTION('ref_axis',(-1.,0.,0.));
#244=DIRECTION('center_axis',(0.,0.,1.));
#245=DIRECTION('ref_axis',(1.,0.,0.));
#246=DIRECTION('',(0.,0.,-1.));
#247=DIRECTION('center_axis',(0.,0.,-1.));
#248=DIRECTION('ref_axis',(-1.,0.,0.));
#249=DIRECTION('center_axis',(0.,0.,-1.));
#250=DIRECTION('ref_axis',(-1.,0.,0.));
#251=DIRECTION('center_axis',(0.,0.,1.));
#252=DIRECTION('ref_axis',(1.,0.,0.));
#253=DIRECTION('center_axis',(0.,0.,1.));
#254=DIRECTION('ref_axis',(1.,0.,0.));
#255=DIRECTION('center_axis',(0.,0.,1.));
#256=DIRECTION('ref_axis',(-1.,0.,0.));
#257=DIRECTION('',(-0.707106781186548,-8.65956056235494E-17,-0.707106781186547));
#258=DIRECTION('center_axis',(0.,0.,1.));
#259=DIRECTION('ref_axis',(-1.,0.,0.));
#260=DIRECTION('center_axis',(0.,0.,-1.));
#261=DIRECTION('ref_axis',(-1.,0.,0.));
#262=DIRECTION('center_axis',(0.,0.,1.));
#263=DIRECTION('ref_axis',(1.,0.,0.));
#264=DIRECTION('center_axis',(0.,0.,-1.));
#265=DIRECTION('ref_axis',(-1.,0.,0.));
#266=DIRECTION('center_axis',(0.,0.,-1.));
#267=DIRECTION('ref_axis',(-1.,0.,0.));
#268=DIRECTION('',(0.707106781186548,8.65956056235494E-17,-0.707106781186547));
#269=DIRECTION('center_axis',(0.,0.,1.));
#270=DIRECTION('ref_axis',(-1.,0.,0.));
#271=DIRECTION('center_axis',(0.,0.,1.));
#272=DIRECTION('ref_axis',(-1.,0.,0.));
#273=DIRECTION('center_axis',(0.,0.,1.));
#274=DIRECTION('ref_axis',(1.,0.,0.));
#275=DIRECTION('',(0.,0.,-1.));
#276=DIRECTION('center_axis',(0.,0.,-1.));
#277=DIRECTION('ref_axis',(-1.,0.,0.));
#278=DIRECTION('center_axis',(0.,0.,-1.));
#279=DIRECTION('ref_axis',(-1.,0.,0.));
#280=DIRECTION('center_axis',(0.,0.,1.));
#281=DIRECTION('ref_axis',(1.,0.,0.));
#282=DIRECTION('center_axis',(0.,0.,1.));
#283=DIRECTION('ref_axis',(1.,0.,0.));
#284=DIRECTION('center_axis',(0.,0.,1.));
#285=DIRECTION('ref_axis',(-1.,0.,0.));
#286=DIRECTION('',(-0.707106781186548,-8.65956056235494E-17,-0.707106781186547));
#287=DIRECTION('center_axis',(0.,0.,1.));
#288=DIRECTION('ref_axis',(-1.,0.,0.));
#289=DIRECTION('center_axis',(0.,0.,-1.));
#290=DIRECTION('ref_axis',(-1.,0.,0.));
#291=DIRECTION('center_axis',(0.,0.,1.));
#292=DIRECTION('ref_axis',(1.,0.,0.));
#293=DIRECTION('center_axis',(0.,0.,1.));
#294=DIRECTION('ref_axis',(1.,0.,0.));
#295=DIRECTION('',(0.,0.,-1.));
#296=DIRECTION('center_axis',(0.,0.,1.));
#297=DIRECTION('ref_axis',(1.,0.,0.));
#298=DIRECTION('',(0.,0.,-1.));
#299=CARTESIAN_POINT('',(0.,0.,0.));
#300=CARTESIAN_POINT('Origin',(0.,0.,3.6));
#301=CARTESIAN_POINT('',(11.2,-1.37160441504504E-15,4.));
#302=CARTESIAN_POINT('Origin',(0.,0.,4.));
#303=CARTESIAN_POINT('',(12.,1.46957615897682E-15,3.2));
#304=CARTESIAN_POINT('',(11.6,1.42059028701093E-15,3.6));
#305=CARTESIAN_POINT('',(-12.,-1.46957615897682E-15,3.2));
#306=CARTESIAN_POINT('Origin',(0.,0.,3.2));
#307=CARTESIAN_POINT('Origin',(0.,0.,3.2));
#308=CARTESIAN_POINT('Origin',(0.,0.,3.));
#309=CARTESIAN_POINT('',(-12.,-1.46957615897682E-15,2.8));
#310=CARTESIAN_POINT('',(-12.,-1.46957615897682E-15,3.));
#311=CARTESIAN_POINT('',(12.,-1.46957615897682E-15,2.8));
#312=CARTESIAN_POINT('Origin',(0.,0.,2.8));
#313=CARTESIAN_POINT('Origin',(0.,0.,2.8));
#314=CARTESIAN_POINT('Origin',(3.5,0.,4.));
#315=CARTESIAN_POINT('',(-3.5,-4.28626379701574E-16,4.));
#316=CARTESIAN_POINT('Origin',(0.,0.,4.));
#317=CARTESIAN_POINT('Origin',(0.,0.,2.4));
#318=CARTESIAN_POINT('',(11.2,1.37160441504504E-15,2.));
#319=CARTESIAN_POINT('',(11.6,1.42059028701093E-15,2.4));
#320=CARTESIAN_POINT('Origin',(0.,0.,2.));
#321=CARTESIAN_POINT('Origin',(12.,0.,2.));
#322=CARTESIAN_POINT('',(-9.,-1.10218211923262E-15,2.));
#323=CARTESIAN_POINT('Origin',(0.,0.,2.));
#324=CARTESIAN_POINT('Origin',(0.,0.,-2.4));
#325=CARTESIAN_POINT('',(11.2,-1.37160441504504E-15,-2.));
#326=CARTESIAN_POINT('Origin',(0.,0.,-2.));
#327=CARTESIAN_POINT('',(12.,1.46957615897682E-15,-2.8));
#328=CARTESIAN_POINT('',(11.6,1.42059028701093E-15,-2.4));
#329=CARTESIAN_POINT('',(-12.,-1.46957615897682E-15,-2.8));
#330=CARTESIAN_POINT('Origin',(0.,0.,-2.8));
#331=CARTESIAN_POINT('Origin',(0.,0.,-2.8));
#332=CARTESIAN_POINT('Origin',(0.,0.,-3.));
#333=CARTESIAN_POINT('',(-12.,-1.46957615897682E-15,-3.2));
#334=CARTESIAN_POINT('',(-12.,-1.46957615897682E-15,-3.));
#335=CARTESIAN_POINT('',(12.,-1.46957615897682E-15,-3.2));
#336=CARTESIAN_POINT('Origin',(0.,0.,-3.2));
#337=CARTESIAN_POINT('Origin',(0.,0.,-3.2));
#338=CARTESIAN_POINT('Origin',(9.,0.,-2.));
#339=CARTESIAN_POINT('',(-9.,-1.10218211923262E-15,-2.));
#340=CARTESIAN_POINT('Origin',(0.,0.,-2.));
#341=CARTESIAN_POINT('Origin',(0.,0.,-3.6));
#342=CARTESIAN_POINT('',(11.2,1.37160441504504E-15,-4.));
#343=CARTESIAN_POINT('',(11.6,1.42059028701093E-15,-3.6));
#344=CARTESIAN_POINT('Origin',(0.,0.,-4.));
#345=CARTESIAN_POINT('Origin',(12.,0.,-4.));
#346=CARTESIAN_POINT('',(-3.5,-4.28626379701574E-16,-4.));
#347=CARTESIAN_POINT('Origin',(0.,0.,-4.));
#348=CARTESIAN_POINT('Origin',(0.,0.,0.));
#349=CARTESIAN_POINT('',(-9.,-1.10218211923262E-15,0.));
#350=CARTESIAN_POINT('Origin',(0.,0.,0.));
#351=CARTESIAN_POINT('',(-3.5,-4.28626379701574E-16,0.));
#352=UNCERTAINTY_MEASURE_WITH_UNIT(LENGTH_MEASURE(0.01),#356,
'DISTANCE_ACCURACY_VALUE',
'Maximum model space distance between geometric entities at asserted c
onnectivities');
#353=UNCERTAINTY_MEASURE_WITH_UNIT(LENGTH_MEASURE(0.01),#356,
'DISTANCE_ACCURACY_VALUE',
'Maximum model space distance between geometric entities at asserted c
onnectivities');
#354=(
GEOMETRIC_REPRESENTATION_CONTEXT(3)
GLOBAL_UNCERTAINTY_ASSIGNED_CONTEXT((#352))
GLOBAL_UNIT_ASSIGNED_CONTEXT((#356,#358,#359))
REPRESENTATION_CONTEXT('','3D')
);
#355=(
GEOMETRIC_REPRESENTATION_CONTEXT(3)
GLOBAL_UNCERTAINTY_ASSIGNED_CONTEXT((#353))
GLOBAL_UNIT_ASSIGNED_CONTEXT((#356,#358,#359))
REPRESENTATION_CONTEXT('','3D')
);
#356=(
LENGTH_UNIT()
NAMED_UNIT(*)
SI_UNIT(.MILLI.,.METRE.)
);
#357=(
LENGTH_UNIT()
NAMED_UNIT(*)
SI_UNIT($,.METRE.)
);
#358=(
NAMED_UNIT(*)
PLANE_ANGLE_UNIT()
SI_UNIT($,.RADIAN.)
);
#359=(
NAMED_UNIT(*)
SI_UNIT($,.STERADIAN.)
SOLID_ANGLE_UNIT()
);
#360=SHAPE_DEFINITION_REPRESENTATION(#361,#362);
#361=PRODUCT_DEFINITION_SHAPE('',$,#364);
#362=SHAPE_REPRESENTATION('',(#204),#354);
#363=PRODUCT_DEFINITION_CONTEXT('part definition',#368,'design');
#364=PRODUCT_DEFINITION('(N\X\E3o salvo)','(N\X\E3o salvo)',#365,#363);
#365=PRODUCT_DEFINITION_FORMATION('',$,#370);
#366=PRODUCT_RELATED_PRODUCT_CATEGORY('(N\X\E3o salvo)','(N\X\E3o salv
o)',(#370));
#367=APPLICATION_PROTOCOL_DEFINITION('international standard',
'automotive_design',2009,#368);
#368=APPLICATION_CONTEXT(
'Core Data for Automotive Mechanical Design Process');
#369=PRODUCT_CONTEXT('part definition',#368,'mechanical');
#370=PRODUCT('(N\X\E3o salvo)','(N\X\E3o salvo)',$,(#369));
#371=PRESENTATION_STYLE_ASSIGNMENT((#373));
#372=PRESENTATION_STYLE_ASSIGNMENT((#374));
#373=SURFACE_STYLE_USAGE(.BOTH.,#375);
#374=SURFACE_STYLE_USAGE(.BOTH.,#376);
#375=SURFACE_SIDE_STYLE('',(#377));
#376=SURFACE_SIDE_STYLE('',(#378));
#377=SURFACE_STYLE_FILL_AREA(#379);
#378=SURFACE_STYLE_FILL_AREA(#380);
#379=FILL_AREA_STYLE('A\X\E7o - Acetinado',(#381));
#380=FILL_AREA_STYLE('Mat_Borracha_Preta_Real',(#382));
#381=FILL_AREA_STYLE_COLOUR('A\X\E7o - Acetinado',#383);
#382=FILL_AREA_STYLE_COLOUR('Mat_Borracha_Preta_Real',#384);
#383=COLOUR_RGB('A\X\E7o - Acetinado',0.627450980392157,0.627450980392157,
0.627450980392157);
#384=COLOUR_RGB('Mat_Borracha_Preta_Real',0.117647058823529,0.117647058823529,
0.117647058823529);
ENDSEC;
END-ISO-10303-21;
