ISO-10303-21;
HEADER;
/* Generated by software containing ST-Developer
 * from STEP Tools, Inc. (www.steptools.com) 
 */

FILE_DESCRIPTION(
/* description */ (''),
/* implementation_level */ '2;1');

FILE_NAME(
/* name */ '18_Dobradica_Articulada_Mesa.step',
/* time_stamp */ '2026-09-24T14:38:33-03:00',
/* author */ (''),
/* organization */ (''),
/* preprocessor_version */ 'ST-DEVELOPER v20.2',
/* originating_system */ 'Autodesk Translation Framework v15.15.0.0',
/* authorisation */ '');

FILE_SCHEMA (('AUTOMOTIVE_DESIGN { 1 0 10303 214 3 1 1 }'));
ENDSEC;

DATA;
#10=MECHANICAL_DESIGN_GEOMETRIC_PRESENTATION_REPRESENTATION('',(#13),#487);
#11=SHAPE_REPRESENTATION_RELATIONSHIP('SRR','None',#494,#12);
#12=ADVANCED_BREP_SHAPE_REPRESENTATION('',(#14),#486);
#13=STYLED_ITEM('',(#504),#14);
#14=MANIFOLD_SOLID_BREP('Corpo1',#283);
#15=FACE_BOUND('',#53,.T.);
#16=FACE_BOUND('',#54,.T.);
#17=FACE_BOUND('',#59,.T.);
#18=FACE_BOUND('',#60,.T.);
#19=FACE_BOUND('',#61,.T.);
#20=FACE_BOUND('',#62,.T.);
#21=PLANE('',#300);
#22=PLANE('',#309);
#23=PLANE('',#318);
#24=PLANE('',#319);
#25=PLANE('',#320);
#26=PLANE('',#321);
#27=PLANE('',#322);
#28=PLANE('',#323);
#29=PLANE('',#324);
#30=FACE_OUTER_BOUND('',#44,.T.);
#31=FACE_OUTER_BOUND('',#45,.T.);
#32=FACE_OUTER_BOUND('',#46,.T.);
#33=FACE_OUTER_BOUND('',#47,.T.);
#34=FACE_OUTER_BOUND('',#48,.T.);
#35=FACE_OUTER_BOUND('',#49,.T.);
#36=FACE_OUTER_BOUND('',#50,.T.);
#37=FACE_OUTER_BOUND('',#51,.T.);
#38=FACE_OUTER_BOUND('',#52,.T.);
#39=FACE_OUTER_BOUND('',#55,.T.);
#40=FACE_OUTER_BOUND('',#56,.T.);
#41=FACE_OUTER_BOUND('',#57,.T.);
#42=FACE_OUTER_BOUND('',#58,.T.);
#43=FACE_OUTER_BOUND('',#63,.T.);
#44=EDGE_LOOP('',(#188,#189,#190,#191));
#45=EDGE_LOOP('',(#192,#193));
#46=EDGE_LOOP('',(#194,#195,#196,#197,#198,#199));
#47=EDGE_LOOP('',(#200,#201,#202,#203));
#48=EDGE_LOOP('',(#204,#205));
#49=EDGE_LOOP('',(#206,#207,#208,#209,#210,#211));
#50=EDGE_LOOP('',(#212,#213,#214,#215,#216,#217,#218,#219));
#51=EDGE_LOOP('',(#220,#221,#222,#223,#224,#225));
#52=EDGE_LOOP('',(#226,#227,#228,#229));
#53=EDGE_LOOP('',(#230));
#54=EDGE_LOOP('',(#231));
#55=EDGE_LOOP('',(#232,#233,#234,#235));
#56=EDGE_LOOP('',(#236,#237,#238,#239,#240,#241));
#57=EDGE_LOOP('',(#242,#243,#244,#245));
#58=EDGE_LOOP('',(#246,#247,#248,#249));
#59=EDGE_LOOP('',(#250));
#60=EDGE_LOOP('',(#251));
#61=EDGE_LOOP('',(#252));
#62=EDGE_LOOP('',(#253));
#63=EDGE_LOOP('',(#254,#255,#256,#257,#258,#259,#260,#261,#262,#263));
#64=LINE('',#412,#88);
#65=LINE('',#417,#89);
#66=LINE('',#424,#90);
#67=LINE('',#430,#91);
#68=LINE('',#435,#92);
#69=LINE('',#442,#93);
#70=LINE('',#446,#94);
#71=LINE('',#450,#95);
#72=LINE('',#453,#96);
#73=LINE('',#454,#97);
#74=LINE('',#457,#98);
#75=LINE('',#459,#99);
#76=LINE('',#461,#100);
#77=LINE('',#463,#101);
#78=LINE('',#464,#102);
#79=LINE('',#467,#103);
#80=LINE('',#468,#104);
#81=LINE('',#471,#105);
#82=LINE('',#473,#106);
#83=LINE('',#474,#107);
#84=LINE('',#476,#108);
#85=LINE('',#478,#109);
#86=LINE('',#479,#110);
#87=LINE('',#481,#111);
#88=VECTOR('',#331,2.7);
#89=VECTOR('',#336,10.);
#90=VECTOR('',#345,2.7);
#91=VECTOR('',#352,2.7);
#92=VECTOR('',#357,10.);
#93=VECTOR('',#366,2.7);
#94=VECTOR('',#371,10.);
#95=VECTOR('',#374,10.);
#96=VECTOR('',#377,10.);
#97=VECTOR('',#378,10.);
#98=VECTOR('',#381,10.);
#99=VECTOR('',#382,10.);
#100=VECTOR('',#383,10.);
#101=VECTOR('',#384,10.);
#102=VECTOR('',#385,10.);
#103=VECTOR('',#388,10.);
#104=VECTOR('',#389,10.);
#105=VECTOR('',#392,10.);
#106=VECTOR('',#393,10.);
#107=VECTOR('',#394,10.);
#108=VECTOR('',#397,10.);
#109=VECTOR('',#398,10.);
#110=VECTOR('',#399,10.);
#111=VECTOR('',#402,10.);
#112=CIRCLE('',#298,2.7);
#113=CIRCLE('',#299,2.7);
#114=CIRCLE('',#301,2.7);
#115=CIRCLE('',#303,2.7);
#116=CIRCLE('',#304,2.7);
#117=CIRCLE('',#305,2.7);
#118=CIRCLE('',#307,2.7);
#119=CIRCLE('',#308,2.7);
#120=CIRCLE('',#310,2.7);
#121=CIRCLE('',#312,2.7);
#122=CIRCLE('',#313,2.7);
#123=CIRCLE('',#314,2.7);
#124=CIRCLE('',#316,4.);
#125=CIRCLE('',#317,4.);
#126=VERTEX_POINT('',#409);
#127=VERTEX_POINT('',#411);
#128=VERTEX_POINT('',#415);
#129=VERTEX_POINT('',#416);
#130=VERTEX_POINT('',#420);
#131=VERTEX_POINT('',#423);
#132=VERTEX_POINT('',#427);
#133=VERTEX_POINT('',#429);
#134=VERTEX_POINT('',#433);
#135=VERTEX_POINT('',#434);
#136=VERTEX_POINT('',#438);
#137=VERTEX_POINT('',#441);
#138=VERTEX_POINT('',#445);
#139=VERTEX_POINT('',#447);
#140=VERTEX_POINT('',#449);
#141=VERTEX_POINT('',#451);
#142=VERTEX_POINT('',#456);
#143=VERTEX_POINT('',#458);
#144=VERTEX_POINT('',#460);
#145=VERTEX_POINT('',#462);
#146=VERTEX_POINT('',#466);
#147=VERTEX_POINT('',#470);
#148=VERTEX_POINT('',#472);
#149=VERTEX_POINT('',#477);
#150=EDGE_CURVE('',#126,#126,#112,.T.);
#151=EDGE_CURVE('',#126,#127,#64,.T.);
#152=EDGE_CURVE('',#127,#127,#113,.T.);
#153=EDGE_CURVE('',#128,#129,#65,.T.);
#154=EDGE_CURVE('',#129,#128,#114,.T.);
#155=EDGE_CURVE('',#128,#130,#115,.T.);
#156=EDGE_CURVE('',#130,#129,#116,.T.);
#157=EDGE_CURVE('',#130,#131,#66,.T.);
#158=EDGE_CURVE('',#131,#131,#117,.T.);
#159=EDGE_CURVE('',#132,#132,#118,.T.);
#160=EDGE_CURVE('',#132,#133,#67,.T.);
#161=EDGE_CURVE('',#133,#133,#119,.T.);
#162=EDGE_CURVE('',#134,#135,#68,.T.);
#163=EDGE_CURVE('',#135,#134,#120,.T.);
#164=EDGE_CURVE('',#134,#136,#121,.T.);
#165=EDGE_CURVE('',#136,#135,#122,.T.);
#166=EDGE_CURVE('',#136,#137,#69,.T.);
#167=EDGE_CURVE('',#137,#137,#123,.T.);
#168=EDGE_CURVE('',#138,#134,#70,.T.);
#169=EDGE_CURVE('',#139,#138,#124,.T.);
#170=EDGE_CURVE('',#140,#139,#71,.T.);
#171=EDGE_CURVE('',#141,#140,#125,.T.);
#172=EDGE_CURVE('',#129,#141,#72,.T.);
#173=EDGE_CURVE('',#135,#128,#73,.T.);
#174=EDGE_CURVE('',#140,#142,#74,.T.);
#175=EDGE_CURVE('',#142,#143,#75,.T.);
#176=EDGE_CURVE('',#144,#143,#76,.T.);
#177=EDGE_CURVE('',#145,#144,#77,.T.);
#178=EDGE_CURVE('',#145,#141,#78,.T.);
#179=EDGE_CURVE('',#146,#139,#79,.T.);
#180=EDGE_CURVE('',#142,#146,#80,.T.);
#181=EDGE_CURVE('',#147,#145,#81,.T.);
#182=EDGE_CURVE('',#148,#144,#82,.T.);
#183=EDGE_CURVE('',#147,#148,#83,.T.);
#184=EDGE_CURVE('',#138,#147,#84,.T.);
#185=EDGE_CURVE('',#149,#148,#85,.T.);
#186=EDGE_CURVE('',#146,#149,#86,.T.);
#187=EDGE_CURVE('',#143,#149,#87,.T.);
#188=ORIENTED_EDGE('',*,*,#150,.F.);
#189=ORIENTED_EDGE('',*,*,#151,.T.);
#190=ORIENTED_EDGE('',*,*,#152,.F.);
#191=ORIENTED_EDGE('',*,*,#151,.F.);
#192=ORIENTED_EDGE('',*,*,#153,.T.);
#193=ORIENTED_EDGE('',*,*,#154,.T.);
#194=ORIENTED_EDGE('',*,*,#155,.F.);
#195=ORIENTED_EDGE('',*,*,#154,.F.);
#196=ORIENTED_EDGE('',*,*,#156,.F.);
#197=ORIENTED_EDGE('',*,*,#157,.T.);
#198=ORIENTED_EDGE('',*,*,#158,.F.);
#199=ORIENTED_EDGE('',*,*,#157,.F.);
#200=ORIENTED_EDGE('',*,*,#159,.F.);
#201=ORIENTED_EDGE('',*,*,#160,.T.);
#202=ORIENTED_EDGE('',*,*,#161,.F.);
#203=ORIENTED_EDGE('',*,*,#160,.F.);
#204=ORIENTED_EDGE('',*,*,#162,.T.);
#205=ORIENTED_EDGE('',*,*,#163,.T.);
#206=ORIENTED_EDGE('',*,*,#164,.F.);
#207=ORIENTED_EDGE('',*,*,#163,.F.);
#208=ORIENTED_EDGE('',*,*,#165,.F.);
#209=ORIENTED_EDGE('',*,*,#166,.T.);
#210=ORIENTED_EDGE('',*,*,#167,.F.);
#211=ORIENTED_EDGE('',*,*,#166,.F.);
#212=ORIENTED_EDGE('',*,*,#168,.F.);
#213=ORIENTED_EDGE('',*,*,#169,.F.);
#214=ORIENTED_EDGE('',*,*,#170,.F.);
#215=ORIENTED_EDGE('',*,*,#171,.F.);
#216=ORIENTED_EDGE('',*,*,#172,.F.);
#217=ORIENTED_EDGE('',*,*,#153,.F.);
#218=ORIENTED_EDGE('',*,*,#173,.F.);
#219=ORIENTED_EDGE('',*,*,#162,.F.);
#220=ORIENTED_EDGE('',*,*,#174,.T.);
#221=ORIENTED_EDGE('',*,*,#175,.T.);
#222=ORIENTED_EDGE('',*,*,#176,.F.);
#223=ORIENTED_EDGE('',*,*,#177,.F.);
#224=ORIENTED_EDGE('',*,*,#178,.T.);
#225=ORIENTED_EDGE('',*,*,#171,.T.);
#226=ORIENTED_EDGE('',*,*,#170,.T.);
#227=ORIENTED_EDGE('',*,*,#179,.F.);
#228=ORIENTED_EDGE('',*,*,#180,.F.);
#229=ORIENTED_EDGE('',*,*,#174,.F.);
#230=ORIENTED_EDGE('',*,*,#150,.T.);
#231=ORIENTED_EDGE('',*,*,#159,.T.);
#232=ORIENTED_EDGE('',*,*,#181,.T.);
#233=ORIENTED_EDGE('',*,*,#177,.T.);
#234=ORIENTED_EDGE('',*,*,#182,.F.);
#235=ORIENTED_EDGE('',*,*,#183,.F.);
#236=ORIENTED_EDGE('',*,*,#184,.T.);
#237=ORIENTED_EDGE('',*,*,#183,.T.);
#238=ORIENTED_EDGE('',*,*,#185,.F.);
#239=ORIENTED_EDGE('',*,*,#186,.F.);
#240=ORIENTED_EDGE('',*,*,#179,.T.);
#241=ORIENTED_EDGE('',*,*,#169,.T.);
#242=ORIENTED_EDGE('',*,*,#180,.T.);
#243=ORIENTED_EDGE('',*,*,#186,.T.);
#244=ORIENTED_EDGE('',*,*,#187,.F.);
#245=ORIENTED_EDGE('',*,*,#175,.F.);
#246=ORIENTED_EDGE('',*,*,#176,.T.);
#247=ORIENTED_EDGE('',*,*,#187,.T.);
#248=ORIENTED_EDGE('',*,*,#185,.T.);
#249=ORIENTED_EDGE('',*,*,#182,.T.);
#250=ORIENTED_EDGE('',*,*,#152,.T.);
#251=ORIENTED_EDGE('',*,*,#158,.T.);
#252=ORIENTED_EDGE('',*,*,#161,.T.);
#253=ORIENTED_EDGE('',*,*,#167,.T.);
#254=ORIENTED_EDGE('',*,*,#155,.T.);
#255=ORIENTED_EDGE('',*,*,#156,.T.);
#256=ORIENTED_EDGE('',*,*,#172,.T.);
#257=ORIENTED_EDGE('',*,*,#178,.F.);
#258=ORIENTED_EDGE('',*,*,#181,.F.);
#259=ORIENTED_EDGE('',*,*,#184,.F.);
#260=ORIENTED_EDGE('',*,*,#168,.T.);
#261=ORIENTED_EDGE('',*,*,#164,.T.);
#262=ORIENTED_EDGE('',*,*,#165,.T.);
#263=ORIENTED_EDGE('',*,*,#173,.T.);
#264=CYLINDRICAL_SURFACE('',#297,2.7);
#265=CYLINDRICAL_SURFACE('',#302,2.7);
#266=CYLINDRICAL_SURFACE('',#306,2.7);
#267=CYLINDRICAL_SURFACE('',#311,2.7);
#268=CYLINDRICAL_SURFACE('',#315,4.);
#269=ADVANCED_FACE('',(#30),#264,.F.);
#270=ADVANCED_FACE('',(#31),#21,.T.);
#271=ADVANCED_FACE('',(#32),#265,.F.);
#272=ADVANCED_FACE('',(#33),#266,.F.);
#273=ADVANCED_FACE('',(#34),#22,.T.);
#274=ADVANCED_FACE('',(#35),#267,.F.);
#275=ADVANCED_FACE('',(#36),#268,.T.);
#276=ADVANCED_FACE('',(#37),#23,.T.);
#277=ADVANCED_FACE('',(#38,#15,#16),#24,.F.);
#278=ADVANCED_FACE('',(#39),#25,.T.);
#279=ADVANCED_FACE('',(#40),#26,.T.);
#280=ADVANCED_FACE('',(#41),#27,.T.);
#281=ADVANCED_FACE('',(#42,#17,#18,#19,#20),#28,.T.);
#282=ADVANCED_FACE('',(#43),#29,.F.);
#283=CLOSED_SHELL('',(#269,#270,#271,#272,#273,#274,#275,#276,#277,#278,
#279,#280,#281,#282));
#284=DERIVED_UNIT_ELEMENT(#286,1.);
#285=DERIVED_UNIT_ELEMENT(#489,-3.);
#286=(
MASS_UNIT()
NAMED_UNIT(*)
SI_UNIT(.KILO.,.GRAM.)
);
#287=DERIVED_UNIT((#284,#285));
#288=MEASURE_REPRESENTATION_ITEM('density measure',
POSITIVE_RATIO_MEASURE(7850.),#287);
#289=PROPERTY_DEFINITION_REPRESENTATION(#294,#291);
#290=PROPERTY_DEFINITION_REPRESENTATION(#295,#292);
#291=REPRESENTATION('material name',(#293),#486);
#292=REPRESENTATION('density',(#288),#486);
#293=DESCRIPTIVE_REPRESENTATION_ITEM('A\X\E7o','A\X\E7o');
#294=PROPERTY_DEFINITION('material property','material name',#496);
#295=PROPERTY_DEFINITION('material property','density of part',#496);
#296=AXIS2_PLACEMENT_3D('',#407,#325,#326);
#297=AXIS2_PLACEMENT_3D('',#408,#327,#328);
#298=AXIS2_PLACEMENT_3D('',#410,#329,#330);
#299=AXIS2_PLACEMENT_3D('',#413,#332,#333);
#300=AXIS2_PLACEMENT_3D('',#414,#334,#335);
#301=AXIS2_PLACEMENT_3D('',#418,#337,#338);
#302=AXIS2_PLACEMENT_3D('',#419,#339,#340);
#303=AXIS2_PLACEMENT_3D('',#421,#341,#342);
#304=AXIS2_PLACEMENT_3D('',#422,#343,#344);
#305=AXIS2_PLACEMENT_3D('',#425,#346,#347);
#306=AXIS2_PLACEMENT_3D('',#426,#348,#349);
#307=AXIS2_PLACEMENT_3D('',#428,#350,#351);
#308=AXIS2_PLACEMENT_3D('',#431,#353,#354);
#309=AXIS2_PLACEMENT_3D('',#432,#355,#356);
#310=AXIS2_PLACEMENT_3D('',#436,#358,#359);
#311=AXIS2_PLACEMENT_3D('',#437,#360,#361);
#312=AXIS2_PLACEMENT_3D('',#439,#362,#363);
#313=AXIS2_PLACEMENT_3D('',#440,#364,#365);
#314=AXIS2_PLACEMENT_3D('',#443,#367,#368);
#315=AXIS2_PLACEMENT_3D('',#444,#369,#370);
#316=AXIS2_PLACEMENT_3D('',#448,#372,#373);
#317=AXIS2_PLACEMENT_3D('',#452,#375,#376);
#318=AXIS2_PLACEMENT_3D('',#455,#379,#380);
#319=AXIS2_PLACEMENT_3D('',#465,#386,#387);
#320=AXIS2_PLACEMENT_3D('',#469,#390,#391);
#321=AXIS2_PLACEMENT_3D('',#475,#395,#396);
#322=AXIS2_PLACEMENT_3D('',#480,#400,#401);
#323=AXIS2_PLACEMENT_3D('',#482,#403,#404);
#324=AXIS2_PLACEMENT_3D('',#483,#405,#406);
#325=DIRECTION('axis',(0.,0.,1.));
#326=DIRECTION('refdir',(1.,0.,0.));
#327=DIRECTION('center_axis',(0.,0.,1.));
#328=DIRECTION('ref_axis',(1.,0.,0.));
#329=DIRECTION('center_axis',(0.,0.,1.));
#330=DIRECTION('ref_axis',(1.,0.,0.));
#331=DIRECTION('',(0.,0.,1.));
#332=DIRECTION('center_axis',(0.,0.,-1.));
#333=DIRECTION('ref_axis',(1.,0.,0.));
#334=DIRECTION('center_axis',(0.,0.,1.));
#335=DIRECTION('ref_axis',(1.,0.,0.));
#336=DIRECTION('',(-1.,0.,0.));
#337=DIRECTION('center_axis',(0.,0.,1.));
#338=DIRECTION('ref_axis',(1.,0.,0.));
#339=DIRECTION('center_axis',(0.,0.,1.));
#340=DIRECTION('ref_axis',(1.,0.,0.));
#341=DIRECTION('center_axis',(0.,0.,1.));
#342=DIRECTION('ref_axis',(1.,0.,0.));
#343=DIRECTION('center_axis',(0.,0.,1.));
#344=DIRECTION('ref_axis',(1.,0.,0.));
#345=DIRECTION('',(0.,0.,1.));
#346=DIRECTION('center_axis',(0.,0.,-1.));
#347=DIRECTION('ref_axis',(1.,0.,0.));
#348=DIRECTION('center_axis',(0.,0.,1.));
#349=DIRECTION('ref_axis',(1.,0.,0.));
#350=DIRECTION('center_axis',(0.,0.,1.));
#351=DIRECTION('ref_axis',(1.,0.,0.));
#352=DIRECTION('',(0.,0.,1.));
#353=DIRECTION('center_axis',(0.,0.,-1.));
#354=DIRECTION('ref_axis',(1.,0.,0.));
#355=DIRECTION('center_axis',(0.,0.,1.));
#356=DIRECTION('ref_axis',(1.,0.,0.));
#357=DIRECTION('',(-1.,0.,0.));
#358=DIRECTION('center_axis',(0.,0.,1.));
#359=DIRECTION('ref_axis',(1.,0.,0.));
#360=DIRECTION('center_axis',(0.,0.,1.));
#361=DIRECTION('ref_axis',(1.,0.,0.));
#362=DIRECTION('center_axis',(0.,0.,1.));
#363=DIRECTION('ref_axis',(1.,0.,0.));
#364=DIRECTION('center_axis',(0.,0.,1.));
#365=DIRECTION('ref_axis',(1.,0.,0.));
#366=DIRECTION('',(0.,0.,1.));
#367=DIRECTION('center_axis',(0.,0.,-1.));
#368=DIRECTION('ref_axis',(1.,0.,0.));
#369=DIRECTION('center_axis',(1.,0.,0.));
#370=DIRECTION('ref_axis',(0.,0.,-1.));
#371=DIRECTION('',(-1.,0.,0.));
#372=DIRECTION('center_axis',(1.,0.,0.));
#373=DIRECTION('ref_axis',(0.,0.,-1.));
#374=DIRECTION('',(1.,0.,0.));
#375=DIRECTION('center_axis',(-1.,0.,0.));
#376=DIRECTION('ref_axis',(0.,0.,-1.));
#377=DIRECTION('',(-1.,0.,0.));
#378=DIRECTION('',(-1.,0.,0.));
#379=DIRECTION('center_axis',(-1.,0.,0.));
#380=DIRECTION('ref_axis',(0.,-1.,0.));
#381=DIRECTION('',(0.,-1.,0.));
#382=DIRECTION('',(0.,0.,1.));
#383=DIRECTION('',(0.,-1.,0.));
#384=DIRECTION('',(0.,0.,1.));
#385=DIRECTION('',(0.,-1.,0.));
#386=DIRECTION('center_axis',(0.,0.,1.));
#387=DIRECTION('ref_axis',(1.,0.,0.));
#388=DIRECTION('',(0.,1.,0.));
#389=DIRECTION('',(1.,0.,0.));
#390=DIRECTION('center_axis',(0.,1.,0.));
#391=DIRECTION('ref_axis',(-1.,0.,0.));
#392=DIRECTION('',(-1.,0.,0.));
#393=DIRECTION('',(-1.,0.,0.));
#394=DIRECTION('',(0.,0.,1.));
#395=DIRECTION('center_axis',(1.,0.,0.));
#396=DIRECTION('ref_axis',(0.,1.,0.));
#397=DIRECTION('',(0.,1.,0.));
#398=DIRECTION('',(0.,1.,0.));
#399=DIRECTION('',(0.,0.,1.));
#400=DIRECTION('center_axis',(0.,-1.,0.));
#401=DIRECTION('ref_axis',(1.,0.,0.));
#402=DIRECTION('',(1.,0.,0.));
#403=DIRECTION('center_axis',(0.,0.,1.));
#404=DIRECTION('ref_axis',(1.,0.,0.));
#405=DIRECTION('center_axis',(0.,0.,1.));
#406=DIRECTION('ref_axis',(1.,0.,0.));
#407=CARTESIAN_POINT('',(0.,0.,0.));
#408=CARTESIAN_POINT('Origin',(10.,-10.,0.));
#409=CARTESIAN_POINT('',(7.3,-10.,0.));
#410=CARTESIAN_POINT('Origin',(10.,-10.,0.));
#411=CARTESIAN_POINT('',(7.3,-10.,5.));
#412=CARTESIAN_POINT('',(7.3,-10.,0.));
#413=CARTESIAN_POINT('Origin',(10.,-10.,5.));
#414=CARTESIAN_POINT('Origin',(-10.,10.,0.));
#415=CARTESIAN_POINT('',(-7.49201275920311,9.,0.));
#416=CARTESIAN_POINT('',(-12.5079872407969,9.,0.));
#417=CARTESIAN_POINT('',(0.,9.,0.));
#418=CARTESIAN_POINT('Origin',(-10.,10.,0.));
#419=CARTESIAN_POINT('Origin',(-10.,10.,0.));
#420=CARTESIAN_POINT('',(-12.7,10.,0.));
#421=CARTESIAN_POINT('Origin',(-10.,10.,0.));
#422=CARTESIAN_POINT('Origin',(-10.,10.,0.));
#423=CARTESIAN_POINT('',(-12.7,10.,5.));
#424=CARTESIAN_POINT('',(-12.7,10.,0.));
#425=CARTESIAN_POINT('Origin',(-10.,10.,5.));
#426=CARTESIAN_POINT('Origin',(-10.,-10.,0.));
#427=CARTESIAN_POINT('',(-12.7,-10.,0.));
#428=CARTESIAN_POINT('Origin',(-10.,-10.,0.));
#429=CARTESIAN_POINT('',(-12.7,-10.,5.));
#430=CARTESIAN_POINT('',(-12.7,-10.,0.));
#431=CARTESIAN_POINT('Origin',(-10.,-10.,5.));
#432=CARTESIAN_POINT('Origin',(10.,10.,0.));
#433=CARTESIAN_POINT('',(12.5079872407969,9.,0.));
#434=CARTESIAN_POINT('',(7.49201275920311,9.,0.));
#435=CARTESIAN_POINT('',(0.,9.,0.));
#436=CARTESIAN_POINT('Origin',(10.,10.,0.));
#437=CARTESIAN_POINT('Origin',(10.,10.,0.));
#438=CARTESIAN_POINT('',(7.3,10.,0.));
#439=CARTESIAN_POINT('Origin',(10.,10.,0.));
#440=CARTESIAN_POINT('Origin',(10.,10.,0.));
#441=CARTESIAN_POINT('',(7.3,10.,5.));
#442=CARTESIAN_POINT('',(7.3,10.,0.));
#443=CARTESIAN_POINT('Origin',(10.,10.,5.));
#444=CARTESIAN_POINT('Origin',(0.,5.,0.));
#445=CARTESIAN_POINT('',(20.,9.,0.));
#446=CARTESIAN_POINT('',(0.,9.,0.));
#447=CARTESIAN_POINT('',(20.,1.,0.));
#448=CARTESIAN_POINT('Origin',(20.,5.,0.));
#449=CARTESIAN_POINT('',(-20.,1.,0.));
#450=CARTESIAN_POINT('',(0.,1.,0.));
#451=CARTESIAN_POINT('',(-20.,9.,0.));
#452=CARTESIAN_POINT('Origin',(-20.,5.,0.));
#453=CARTESIAN_POINT('',(0.,9.,0.));
#454=CARTESIAN_POINT('',(0.,9.,0.));
#455=CARTESIAN_POINT('Origin',(-20.,20.,0.));
#456=CARTESIAN_POINT('',(-20.,-20.,0.));
#457=CARTESIAN_POINT('',(-20.,20.,0.));
#458=CARTESIAN_POINT('',(-20.,-20.,5.));
#459=CARTESIAN_POINT('',(-20.,-20.,0.));
#460=CARTESIAN_POINT('',(-20.,20.,5.));
#461=CARTESIAN_POINT('',(-20.,20.,5.));
#462=CARTESIAN_POINT('',(-20.,20.,0.));
#463=CARTESIAN_POINT('',(-20.,20.,0.));
#464=CARTESIAN_POINT('',(-20.,20.,0.));
#465=CARTESIAN_POINT('Origin',(0.,0.,0.));
#466=CARTESIAN_POINT('',(20.,-20.,0.));
#467=CARTESIAN_POINT('',(20.,-20.,0.));
#468=CARTESIAN_POINT('',(-20.,-20.,0.));
#469=CARTESIAN_POINT('Origin',(20.,20.,0.));
#470=CARTESIAN_POINT('',(20.,20.,0.));
#471=CARTESIAN_POINT('',(20.,20.,0.));
#472=CARTESIAN_POINT('',(20.,20.,5.));
#473=CARTESIAN_POINT('',(20.,20.,5.));
#474=CARTESIAN_POINT('',(20.,20.,0.));
#475=CARTESIAN_POINT('Origin',(20.,-20.,0.));
#476=CARTESIAN_POINT('',(20.,-20.,0.));
#477=CARTESIAN_POINT('',(20.,-20.,5.));
#478=CARTESIAN_POINT('',(20.,-20.,5.));
#479=CARTESIAN_POINT('',(20.,-20.,0.));
#480=CARTESIAN_POINT('Origin',(-20.,-20.,0.));
#481=CARTESIAN_POINT('',(-20.,-20.,5.));
#482=CARTESIAN_POINT('Origin',(0.,0.,5.));
#483=CARTESIAN_POINT('Origin',(0.,0.,0.));
#484=UNCERTAINTY_MEASURE_WITH_UNIT(LENGTH_MEASURE(0.01),#488,
'DISTANCE_ACCURACY_VALUE',
'Maximum model space distance between geometric entities at asserted c
onnectivities');
#485=UNCERTAINTY_MEASURE_WITH_UNIT(LENGTH_MEASURE(0.01),#488,
'DISTANCE_ACCURACY_VALUE',
'Maximum model space distance between geometric entities at asserted c
onnectivities');
#486=(
GEOMETRIC_REPRESENTATION_CONTEXT(3)
GLOBAL_UNCERTAINTY_ASSIGNED_CONTEXT((#484))
GLOBAL_UNIT_ASSIGNED_CONTEXT((#488,#490,#491))
REPRESENTATION_CONTEXT('','3D')
);
#487=(
GEOMETRIC_REPRESENTATION_CONTEXT(3)
GLOBAL_UNCERTAINTY_ASSIGNED_CONTEXT((#485))
GLOBAL_UNIT_ASSIGNED_CONTEXT((#488,#490,#491))
REPRESENTATION_CONTEXT('','3D')
);
#488=(
LENGTH_UNIT()
NAMED_UNIT(*)
SI_UNIT(.MILLI.,.METRE.)
);
#489=(
LENGTH_UNIT()
NAMED_UNIT(*)
SI_UNIT($,.METRE.)
);
#490=(
NAMED_UNIT(*)
PLANE_ANGLE_UNIT()
SI_UNIT($,.RADIAN.)
);
#491=(
NAMED_UNIT(*)
SI_UNIT($,.STERADIAN.)
SOLID_ANGLE_UNIT()
);
#492=SHAPE_DEFINITION_REPRESENTATION(#493,#494);
#493=PRODUCT_DEFINITION_SHAPE('',$,#496);
#494=SHAPE_REPRESENTATION('',(#296),#486);
#495=PRODUCT_DEFINITION_CONTEXT('part definition',#500,'design');
#496=PRODUCT_DEFINITION('(N\X\E3o salvo)','(N\X\E3o salvo)',#497,#495);
#497=PRODUCT_DEFINITION_FORMATION('',$,#502);
#498=PRODUCT_RELATED_PRODUCT_CATEGORY('(N\X\E3o salvo)','(N\X\E3o salv
o)',(#502));
#499=APPLICATION_PROTOCOL_DEFINITION('international standard',
'automotive_design',2009,#500);
#500=APPLICATION_CONTEXT(
'Core Data for Automotive Mechanical Design Process');
#501=PRODUCT_CONTEXT('part definition',#500,'mechanical');
#502=PRODUCT('(N\X\E3o salvo)','(N\X\E3o salvo)',$,(#501));
#503=PRESENTATION_STYLE_ASSIGNMENT((#505));
#504=PRESENTATION_STYLE_ASSIGNMENT((#506));
#505=SURFACE_STYLE_USAGE(.BOTH.,#507);
#506=SURFACE_STYLE_USAGE(.BOTH.,#508);
#507=SURFACE_SIDE_STYLE('',(#509));
#508=SURFACE_SIDE_STYLE('',(#510));
#509=SURFACE_STYLE_FILL_AREA(#511);
#510=SURFACE_STYLE_FILL_AREA(#512);
#511=FILL_AREA_STYLE('A\X\E7o - Acetinado',(#513));
#512=FILL_AREA_STYLE('Mat_Poliamida_Preta_Real',(#514));
#513=FILL_AREA_STYLE_COLOUR('A\X\E7o - Acetinado',#515);
#514=FILL_AREA_STYLE_COLOUR('Mat_Poliamida_Preta_Real',#516);
#515=COLOUR_RGB('A\X\E7o - Acetinado',0.627450980392157,0.627450980392157,
0.627450980392157);
#516=COLOUR_RGB('Mat_Poliamida_Preta_Real',0.0980392156862745,0.0980392156862745,
0.109803921568627);
ENDSEC;
END-ISO-10303-21;
