ISO-10303-21;
HEADER;
/* Generated by software containing ST-Developer
 * from STEP Tools, Inc. (www.steptools.com) 
 */

FILE_DESCRIPTION(
/* description */ (''),
/* implementation_level */ '2;1');

FILE_NAME(
/* name */ '01_Berco_Adaptador_Mancal_Probe_3D.step',
/* time_stamp */ '2026-09-24T23:49:00-03:00',
/* author */ (''),
/* organization */ (''),
/* preprocessor_version */ 'ST-DEVELOPER v20.2',
/* originating_system */ 'Autodesk Translation Framework v15.15.0.0',
/* authorisation */ '');

FILE_SCHEMA (('AUTOMOTIVE_DESIGN { 1 0 10303 214 3 1 1 }'));
ENDSEC;

DATA;
#10=MECHANICAL_DESIGN_GEOMETRIC_PRESENTATION_REPRESENTATION('',(#13),#1013);
#11=SHAPE_REPRESENTATION_RELATIONSHIP('SRR','None',#1020,#12);
#12=ADVANCED_BREP_SHAPE_REPRESENTATION('',(#14),#1012);
#13=STYLED_ITEM('',(#1030),#14);
#14=MANIFOLD_SOLID_BREP('Berco_Adaptador_Mancal_3D',#569);
#15=FACE_BOUND('',#146,.T.);
#16=FACE_BOUND('',#147,.T.);
#17=PLANE('',#638);
#18=PLANE('',#639);
#19=PLANE('',#640);
#20=PLANE('',#641);
#21=PLANE('',#642);
#22=PLANE('',#643);
#23=PLANE('',#644);
#24=PLANE('',#648);
#25=PLANE('',#652);
#26=PLANE('',#653);
#27=PLANE('',#654);
#28=PLANE('',#655);
#29=PLANE('',#656);
#30=TOROIDAL_SURFACE('',#590,3.,1.5);
#31=TOROIDAL_SURFACE('',#595,3.,1.5);
#32=TOROIDAL_SURFACE('',#610,3.,1.5);
#33=TOROIDAL_SURFACE('',#615,3.,1.5);
#34=CIRCLE('',#587,1.5);
#35=CIRCLE('',#588,1.5);
#36=CIRCLE('',#589,1.5);
#37=CIRCLE('',#591,1.5);
#38=CIRCLE('',#592,1.5);
#39=CIRCLE('',#593,1.5);
#40=CIRCLE('',#594,3.);
#41=CIRCLE('',#596,1.5);
#42=CIRCLE('',#597,1.5);
#43=CIRCLE('',#598,3.);
#44=CIRCLE('',#599,1.5);
#45=CIRCLE('',#601,1.5);
#46=CIRCLE('',#602,1.5);
#47=CIRCLE('',#603,1.5);
#48=CIRCLE('',#605,1.5);
#49=CIRCLE('',#606,1.5);
#50=CIRCLE('',#607,1.5);
#51=CIRCLE('',#611,1.5);
#52=CIRCLE('',#612,1.5);
#53=CIRCLE('',#613,1.5);
#54=CIRCLE('',#614,3.);
#55=CIRCLE('',#616,3.);
#56=CIRCLE('',#617,1.5);
#57=CIRCLE('',#618,1.5);
#58=CIRCLE('',#619,1.5);
#59=CIRCLE('',#622,1.5);
#60=CIRCLE('',#623,1.5);
#61=CIRCLE('',#624,1.5);
#62=CIRCLE('',#646,5.1);
#63=CIRCLE('',#647,5.1);
#64=CIRCLE('',#650,5.1);
#65=CIRCLE('',#651,5.1);
#66=SPHERICAL_SURFACE('',#586,1.5);
#67=SPHERICAL_SURFACE('',#600,1.5);
#68=SPHERICAL_SURFACE('',#604,1.5);
#69=SPHERICAL_SURFACE('',#621,1.5);
#70=FACE_OUTER_BOUND('',#108,.T.);
#71=FACE_OUTER_BOUND('',#109,.T.);
#72=FACE_OUTER_BOUND('',#110,.T.);
#73=FACE_OUTER_BOUND('',#111,.T.);
#74=FACE_OUTER_BOUND('',#112,.T.);
#75=FACE_OUTER_BOUND('',#113,.T.);
#76=FACE_OUTER_BOUND('',#114,.T.);
#77=FACE_OUTER_BOUND('',#115,.T.);
#78=FACE_OUTER_BOUND('',#116,.T.);
#79=FACE_OUTER_BOUND('',#117,.T.);
#80=FACE_OUTER_BOUND('',#118,.T.);
#81=FACE_OUTER_BOUND('',#119,.T.);
#82=FACE_OUTER_BOUND('',#120,.T.);
#83=FACE_OUTER_BOUND('',#121,.T.);
#84=FACE_OUTER_BOUND('',#122,.T.);
#85=FACE_OUTER_BOUND('',#123,.T.);
#86=FACE_OUTER_BOUND('',#124,.T.);
#87=FACE_OUTER_BOUND('',#125,.T.);
#88=FACE_OUTER_BOUND('',#126,.T.);
#89=FACE_OUTER_BOUND('',#127,.T.);
#90=FACE_OUTER_BOUND('',#128,.T.);
#91=FACE_OUTER_BOUND('',#129,.T.);
#92=FACE_OUTER_BOUND('',#130,.T.);
#93=FACE_OUTER_BOUND('',#131,.T.);
#94=FACE_OUTER_BOUND('',#132,.T.);
#95=FACE_OUTER_BOUND('',#133,.T.);
#96=FACE_OUTER_BOUND('',#134,.T.);
#97=FACE_OUTER_BOUND('',#135,.T.);
#98=FACE_OUTER_BOUND('',#136,.T.);
#99=FACE_OUTER_BOUND('',#137,.T.);
#100=FACE_OUTER_BOUND('',#138,.T.);
#101=FACE_OUTER_BOUND('',#139,.T.);
#102=FACE_OUTER_BOUND('',#140,.T.);
#103=FACE_OUTER_BOUND('',#141,.T.);
#104=FACE_OUTER_BOUND('',#142,.T.);
#105=FACE_OUTER_BOUND('',#143,.T.);
#106=FACE_OUTER_BOUND('',#144,.T.);
#107=FACE_OUTER_BOUND('',#145,.T.);
#108=EDGE_LOOP('',(#358,#359,#360,#361));
#109=EDGE_LOOP('',(#362,#363,#364));
#110=EDGE_LOOP('',(#365,#366,#367,#368));
#111=EDGE_LOOP('',(#369,#370,#371,#372));
#112=EDGE_LOOP('',(#373,#374,#375));
#113=EDGE_LOOP('',(#376,#377,#378));
#114=EDGE_LOOP('',(#379,#380,#381,#382));
#115=EDGE_LOOP('',(#383,#384,#385,#386));
#116=EDGE_LOOP('',(#387,#388,#389,#390));
#117=EDGE_LOOP('',(#391,#392,#393,#394));
#118=EDGE_LOOP('',(#395,#396,#397,#398));
#119=EDGE_LOOP('',(#399,#400,#401));
#120=EDGE_LOOP('',(#402,#403,#404,#405));
#121=EDGE_LOOP('',(#406,#407,#408,#409));
#122=EDGE_LOOP('',(#410,#411,#412,#413));
#123=EDGE_LOOP('',(#414,#415,#416,#417));
#124=EDGE_LOOP('',(#418,#419,#420,#421));
#125=EDGE_LOOP('',(#422,#423,#424,#425));
#126=EDGE_LOOP('',(#426,#427,#428,#429));
#127=EDGE_LOOP('',(#430,#431,#432,#433));
#128=EDGE_LOOP('',(#434,#435,#436,#437));
#129=EDGE_LOOP('',(#438,#439,#440,#441));
#130=EDGE_LOOP('',(#442,#443,#444,#445,#446,#447,#448,#449));
#131=EDGE_LOOP('',(#450,#451,#452,#453,#454,#455,#456,#457,#458,#459));
#132=EDGE_LOOP('',(#460,#461,#462,#463));
#133=EDGE_LOOP('',(#464,#465,#466,#467));
#134=EDGE_LOOP('',(#468,#469,#470,#471));
#135=EDGE_LOOP('',(#472,#473,#474,#475,#476));
#136=EDGE_LOOP('',(#477,#478,#479,#480,#481));
#137=EDGE_LOOP('',(#482,#483,#484,#485));
#138=EDGE_LOOP('',(#486,#487,#488,#489));
#139=EDGE_LOOP('',(#490));
#140=EDGE_LOOP('',(#491,#492,#493,#494));
#141=EDGE_LOOP('',(#495));
#142=EDGE_LOOP('',(#496,#497,#498,#499));
#143=EDGE_LOOP('',(#500,#501,#502,#503));
#144=EDGE_LOOP('',(#504,#505,#506,#507));
#145=EDGE_LOOP('',(#508,#509,#510,#511));
#146=EDGE_LOOP('',(#512));
#147=EDGE_LOOP('',(#513));
#148=ELLIPSE('',#584,2.12132034355964,1.5);
#149=ELLIPSE('',#585,2.12132034355964,1.5);
#150=ELLIPSE('',#631,2.12132034355964,1.5);
#151=ELLIPSE('',#635,2.12132034355964,1.5);
#152=LINE('',#853,#194);
#153=LINE('',#857,#195);
#154=LINE('',#899,#196);
#155=LINE('',#900,#197);
#156=LINE('',#902,#198);
#157=LINE('',#903,#199);
#158=LINE('',#923,#200);
#159=LINE('',#924,#201);
#160=LINE('',#933,#202);
#161=LINE('',#934,#203);
#162=LINE('',#936,#204);
#163=LINE('',#937,#205);
#164=LINE('',#939,#206);
#165=LINE('',#940,#207);
#166=LINE('',#942,#208);
#167=LINE('',#943,#209);
#168=LINE('',#945,#210);
#169=LINE('',#946,#211);
#170=LINE('',#949,#212);
#171=LINE('',#951,#213);
#172=LINE('',#954,#214);
#173=LINE('',#955,#215);
#174=LINE('',#957,#216);
#175=LINE('',#958,#217);
#176=LINE('',#961,#218);
#177=LINE('',#963,#219);
#178=LINE('',#966,#220);
#179=LINE('',#967,#221);
#180=LINE('',#969,#222);
#181=LINE('',#970,#223);
#182=LINE('',#971,#224);
#183=LINE('',#972,#225);
#184=LINE('',#975,#226);
#185=LINE('',#977,#227);
#186=LINE('',#978,#228);
#187=LINE('',#989,#229);
#188=LINE('',#996,#230);
#189=LINE('',#1001,#231);
#190=LINE('',#1002,#232);
#191=LINE('',#1005,#233);
#192=LINE('',#1006,#234);
#193=LINE('',#1008,#235);
#194=VECTOR('',#661,10.);
#195=VECTOR('',#664,10.);
#196=VECTOR('',#713,10.);
#197=VECTOR('',#714,10.);
#198=VECTOR('',#717,10.);
#199=VECTOR('',#718,10.);
#200=VECTOR('',#741,10.);
#201=VECTOR('',#742,10.);
#202=VECTOR('',#753,10.);
#203=VECTOR('',#754,10.);
#204=VECTOR('',#757,10.);
#205=VECTOR('',#758,10.);
#206=VECTOR('',#761,10.);
#207=VECTOR('',#762,10.);
#208=VECTOR('',#765,10.);
#209=VECTOR('',#766,10.);
#210=VECTOR('',#769,10.);
#211=VECTOR('',#770,10.);
#212=VECTOR('',#773,10.);
#213=VECTOR('',#774,10.);
#214=VECTOR('',#779,10.);
#215=VECTOR('',#780,10.);
#216=VECTOR('',#783,10.);
#217=VECTOR('',#784,10.);
#218=VECTOR('',#787,10.);
#219=VECTOR('',#788,10.);
#220=VECTOR('',#793,10.);
#221=VECTOR('',#794,10.);
#222=VECTOR('',#797,10.);
#223=VECTOR('',#798,10.);
#224=VECTOR('',#799,10.);
#225=VECTOR('',#800,10.);
#226=VECTOR('',#803,10.);
#227=VECTOR('',#804,10.);
#228=VECTOR('',#805,10.);
#229=VECTOR('',#822,5.1);
#230=VECTOR('',#831,5.1);
#231=VECTOR('',#838,10.);
#232=VECTOR('',#839,10.);
#233=VECTOR('',#842,10.);
#234=VECTOR('',#843,10.);
#235=VECTOR('',#846,10.);
#236=VERTEX_POINT('',#851);
#237=VERTEX_POINT('',#852);
#238=VERTEX_POINT('',#854);
#239=VERTEX_POINT('',#856);
#240=VERTEX_POINT('',#860);
#241=VERTEX_POINT('',#861);
#242=VERTEX_POINT('',#863);
#243=VERTEX_POINT('',#867);
#244=VERTEX_POINT('',#868);
#245=VERTEX_POINT('',#870);
#246=VERTEX_POINT('',#872);
#247=VERTEX_POINT('',#876);
#248=VERTEX_POINT('',#877);
#249=VERTEX_POINT('',#879);
#250=VERTEX_POINT('',#881);
#251=VERTEX_POINT('',#885);
#252=VERTEX_POINT('',#886);
#253=VERTEX_POINT('',#888);
#254=VERTEX_POINT('',#892);
#255=VERTEX_POINT('',#893);
#256=VERTEX_POINT('',#895);
#257=VERTEX_POINT('',#905);
#258=VERTEX_POINT('',#906);
#259=VERTEX_POINT('',#908);
#260=VERTEX_POINT('',#910);
#261=VERTEX_POINT('',#914);
#262=VERTEX_POINT('',#915);
#263=VERTEX_POINT('',#917);
#264=VERTEX_POINT('',#919);
#265=VERTEX_POINT('',#926);
#266=VERTEX_POINT('',#927);
#267=VERTEX_POINT('',#929);
#268=VERTEX_POINT('',#948);
#269=VERTEX_POINT('',#950);
#270=VERTEX_POINT('',#960);
#271=VERTEX_POINT('',#962);
#272=VERTEX_POINT('',#974);
#273=VERTEX_POINT('',#976);
#274=VERTEX_POINT('',#986);
#275=VERTEX_POINT('',#988);
#276=VERTEX_POINT('',#993);
#277=VERTEX_POINT('',#995);
#278=VERTEX_POINT('',#1000);
#279=VERTEX_POINT('',#1004);
#280=EDGE_CURVE('',#236,#237,#152,.T.);
#281=EDGE_CURVE('',#237,#238,#148,.T.);
#282=EDGE_CURVE('',#238,#239,#153,.T.);
#283=EDGE_CURVE('',#236,#239,#149,.T.);
#284=EDGE_CURVE('',#240,#241,#34,.F.);
#285=EDGE_CURVE('',#242,#240,#35,.F.);
#286=EDGE_CURVE('',#241,#242,#36,.F.);
#287=EDGE_CURVE('',#243,#244,#37,.T.);
#288=EDGE_CURVE('',#245,#243,#38,.F.);
#289=EDGE_CURVE('',#246,#245,#39,.T.);
#290=EDGE_CURVE('',#246,#244,#40,.T.);
#291=EDGE_CURVE('',#247,#248,#41,.F.);
#292=EDGE_CURVE('',#249,#247,#42,.T.);
#293=EDGE_CURVE('',#249,#250,#43,.T.);
#294=EDGE_CURVE('',#248,#250,#44,.T.);
#295=EDGE_CURVE('',#251,#252,#45,.F.);
#296=EDGE_CURVE('',#253,#251,#46,.F.);
#297=EDGE_CURVE('',#252,#253,#47,.F.);
#298=EDGE_CURVE('',#254,#255,#48,.F.);
#299=EDGE_CURVE('',#256,#254,#49,.F.);
#300=EDGE_CURVE('',#255,#256,#50,.F.);
#301=EDGE_CURVE('',#254,#247,#154,.T.);
#302=EDGE_CURVE('',#248,#256,#155,.T.);
#303=EDGE_CURVE('',#243,#255,#156,.T.);
#304=EDGE_CURVE('',#256,#245,#157,.T.);
#305=EDGE_CURVE('',#257,#258,#51,.T.);
#306=EDGE_CURVE('',#259,#257,#52,.F.);
#307=EDGE_CURVE('',#260,#259,#53,.T.);
#308=EDGE_CURVE('',#260,#258,#54,.T.);
#309=EDGE_CURVE('',#261,#262,#55,.T.);
#310=EDGE_CURVE('',#263,#262,#56,.T.);
#311=EDGE_CURVE('',#264,#263,#57,.F.);
#312=EDGE_CURVE('',#261,#264,#58,.T.);
#313=EDGE_CURVE('',#247,#263,#158,.T.);
#314=EDGE_CURVE('',#262,#249,#159,.T.);
#315=EDGE_CURVE('',#265,#266,#59,.F.);
#316=EDGE_CURVE('',#267,#265,#60,.F.);
#317=EDGE_CURVE('',#266,#267,#61,.F.);
#318=EDGE_CURVE('',#263,#267,#160,.T.);
#319=EDGE_CURVE('',#265,#264,#161,.T.);
#320=EDGE_CURVE('',#267,#254,#162,.T.);
#321=EDGE_CURVE('',#255,#266,#163,.T.);
#322=EDGE_CURVE('',#257,#265,#164,.T.);
#323=EDGE_CURVE('',#266,#259,#165,.T.);
#324=EDGE_CURVE('',#251,#261,#166,.T.);
#325=EDGE_CURVE('',#264,#253,#167,.T.);
#326=EDGE_CURVE('',#258,#252,#168,.T.);
#327=EDGE_CURVE('',#253,#257,#169,.T.);
#328=EDGE_CURVE('',#268,#251,#170,.T.);
#329=EDGE_CURVE('',#252,#269,#171,.T.);
#330=EDGE_CURVE('',#269,#268,#150,.T.);
#331=EDGE_CURVE('',#240,#248,#172,.T.);
#332=EDGE_CURVE('',#250,#242,#173,.T.);
#333=EDGE_CURVE('',#241,#246,#174,.T.);
#334=EDGE_CURVE('',#245,#240,#175,.T.);
#335=EDGE_CURVE('',#270,#268,#176,.T.);
#336=EDGE_CURVE('',#269,#271,#177,.T.);
#337=EDGE_CURVE('',#271,#270,#151,.T.);
#338=EDGE_CURVE('',#237,#241,#178,.T.);
#339=EDGE_CURVE('',#242,#238,#179,.T.);
#340=EDGE_CURVE('',#239,#270,#180,.T.);
#341=EDGE_CURVE('',#271,#260,#181,.T.);
#342=EDGE_CURVE('',#259,#243,#182,.T.);
#343=EDGE_CURVE('',#244,#236,#183,.T.);
#344=EDGE_CURVE('',#272,#268,#184,.T.);
#345=EDGE_CURVE('',#272,#273,#185,.T.);
#346=EDGE_CURVE('',#273,#238,#186,.T.);
#347=EDGE_CURVE('',#274,#274,#62,.T.);
#348=EDGE_CURVE('',#274,#275,#187,.T.);
#349=EDGE_CURVE('',#275,#275,#63,.T.);
#350=EDGE_CURVE('',#276,#276,#64,.T.);
#351=EDGE_CURVE('',#276,#277,#188,.T.);
#352=EDGE_CURVE('',#277,#277,#65,.T.);
#353=EDGE_CURVE('',#278,#270,#189,.T.);
#354=EDGE_CURVE('',#278,#272,#190,.T.);
#355=EDGE_CURVE('',#279,#239,#191,.T.);
#356=EDGE_CURVE('',#279,#278,#192,.T.);
#357=EDGE_CURVE('',#273,#279,#193,.T.);
#358=ORIENTED_EDGE('',*,*,#280,.T.);
#359=ORIENTED_EDGE('',*,*,#281,.T.);
#360=ORIENTED_EDGE('',*,*,#282,.T.);
#361=ORIENTED_EDGE('',*,*,#283,.F.);
#362=ORIENTED_EDGE('',*,*,#284,.F.);
#363=ORIENTED_EDGE('',*,*,#285,.F.);
#364=ORIENTED_EDGE('',*,*,#286,.F.);
#365=ORIENTED_EDGE('',*,*,#287,.F.);
#366=ORIENTED_EDGE('',*,*,#288,.F.);
#367=ORIENTED_EDGE('',*,*,#289,.F.);
#368=ORIENTED_EDGE('',*,*,#290,.T.);
#369=ORIENTED_EDGE('',*,*,#291,.F.);
#370=ORIENTED_EDGE('',*,*,#292,.F.);
#371=ORIENTED_EDGE('',*,*,#293,.T.);
#372=ORIENTED_EDGE('',*,*,#294,.F.);
#373=ORIENTED_EDGE('',*,*,#295,.F.);
#374=ORIENTED_EDGE('',*,*,#296,.F.);
#375=ORIENTED_EDGE('',*,*,#297,.F.);
#376=ORIENTED_EDGE('',*,*,#298,.F.);
#377=ORIENTED_EDGE('',*,*,#299,.F.);
#378=ORIENTED_EDGE('',*,*,#300,.F.);
#379=ORIENTED_EDGE('',*,*,#299,.T.);
#380=ORIENTED_EDGE('',*,*,#301,.T.);
#381=ORIENTED_EDGE('',*,*,#291,.T.);
#382=ORIENTED_EDGE('',*,*,#302,.T.);
#383=ORIENTED_EDGE('',*,*,#288,.T.);
#384=ORIENTED_EDGE('',*,*,#303,.T.);
#385=ORIENTED_EDGE('',*,*,#300,.T.);
#386=ORIENTED_EDGE('',*,*,#304,.T.);
#387=ORIENTED_EDGE('',*,*,#305,.F.);
#388=ORIENTED_EDGE('',*,*,#306,.F.);
#389=ORIENTED_EDGE('',*,*,#307,.F.);
#390=ORIENTED_EDGE('',*,*,#308,.T.);
#391=ORIENTED_EDGE('',*,*,#309,.T.);
#392=ORIENTED_EDGE('',*,*,#310,.F.);
#393=ORIENTED_EDGE('',*,*,#311,.F.);
#394=ORIENTED_EDGE('',*,*,#312,.F.);
#395=ORIENTED_EDGE('',*,*,#292,.T.);
#396=ORIENTED_EDGE('',*,*,#313,.T.);
#397=ORIENTED_EDGE('',*,*,#310,.T.);
#398=ORIENTED_EDGE('',*,*,#314,.T.);
#399=ORIENTED_EDGE('',*,*,#315,.F.);
#400=ORIENTED_EDGE('',*,*,#316,.F.);
#401=ORIENTED_EDGE('',*,*,#317,.F.);
#402=ORIENTED_EDGE('',*,*,#311,.T.);
#403=ORIENTED_EDGE('',*,*,#318,.T.);
#404=ORIENTED_EDGE('',*,*,#316,.T.);
#405=ORIENTED_EDGE('',*,*,#319,.T.);
#406=ORIENTED_EDGE('',*,*,#317,.T.);
#407=ORIENTED_EDGE('',*,*,#320,.T.);
#408=ORIENTED_EDGE('',*,*,#298,.T.);
#409=ORIENTED_EDGE('',*,*,#321,.T.);
#410=ORIENTED_EDGE('',*,*,#306,.T.);
#411=ORIENTED_EDGE('',*,*,#322,.T.);
#412=ORIENTED_EDGE('',*,*,#315,.T.);
#413=ORIENTED_EDGE('',*,*,#323,.T.);
#414=ORIENTED_EDGE('',*,*,#296,.T.);
#415=ORIENTED_EDGE('',*,*,#324,.T.);
#416=ORIENTED_EDGE('',*,*,#312,.T.);
#417=ORIENTED_EDGE('',*,*,#325,.T.);
#418=ORIENTED_EDGE('',*,*,#305,.T.);
#419=ORIENTED_EDGE('',*,*,#326,.T.);
#420=ORIENTED_EDGE('',*,*,#297,.T.);
#421=ORIENTED_EDGE('',*,*,#327,.T.);
#422=ORIENTED_EDGE('',*,*,#328,.T.);
#423=ORIENTED_EDGE('',*,*,#295,.T.);
#424=ORIENTED_EDGE('',*,*,#329,.T.);
#425=ORIENTED_EDGE('',*,*,#330,.T.);
#426=ORIENTED_EDGE('',*,*,#285,.T.);
#427=ORIENTED_EDGE('',*,*,#331,.T.);
#428=ORIENTED_EDGE('',*,*,#294,.T.);
#429=ORIENTED_EDGE('',*,*,#332,.T.);
#430=ORIENTED_EDGE('',*,*,#284,.T.);
#431=ORIENTED_EDGE('',*,*,#333,.T.);
#432=ORIENTED_EDGE('',*,*,#289,.T.);
#433=ORIENTED_EDGE('',*,*,#334,.T.);
#434=ORIENTED_EDGE('',*,*,#335,.T.);
#435=ORIENTED_EDGE('',*,*,#330,.F.);
#436=ORIENTED_EDGE('',*,*,#336,.T.);
#437=ORIENTED_EDGE('',*,*,#337,.T.);
#438=ORIENTED_EDGE('',*,*,#338,.T.);
#439=ORIENTED_EDGE('',*,*,#286,.T.);
#440=ORIENTED_EDGE('',*,*,#339,.T.);
#441=ORIENTED_EDGE('',*,*,#281,.F.);
#442=ORIENTED_EDGE('',*,*,#340,.T.);
#443=ORIENTED_EDGE('',*,*,#337,.F.);
#444=ORIENTED_EDGE('',*,*,#341,.T.);
#445=ORIENTED_EDGE('',*,*,#307,.T.);
#446=ORIENTED_EDGE('',*,*,#342,.T.);
#447=ORIENTED_EDGE('',*,*,#287,.T.);
#448=ORIENTED_EDGE('',*,*,#343,.T.);
#449=ORIENTED_EDGE('',*,*,#283,.T.);
#450=ORIENTED_EDGE('',*,*,#339,.F.);
#451=ORIENTED_EDGE('',*,*,#332,.F.);
#452=ORIENTED_EDGE('',*,*,#293,.F.);
#453=ORIENTED_EDGE('',*,*,#314,.F.);
#454=ORIENTED_EDGE('',*,*,#309,.F.);
#455=ORIENTED_EDGE('',*,*,#324,.F.);
#456=ORIENTED_EDGE('',*,*,#328,.F.);
#457=ORIENTED_EDGE('',*,*,#344,.F.);
#458=ORIENTED_EDGE('',*,*,#345,.T.);
#459=ORIENTED_EDGE('',*,*,#346,.T.);
#460=ORIENTED_EDGE('',*,*,#302,.F.);
#461=ORIENTED_EDGE('',*,*,#331,.F.);
#462=ORIENTED_EDGE('',*,*,#334,.F.);
#463=ORIENTED_EDGE('',*,*,#304,.F.);
#464=ORIENTED_EDGE('',*,*,#301,.F.);
#465=ORIENTED_EDGE('',*,*,#320,.F.);
#466=ORIENTED_EDGE('',*,*,#318,.F.);
#467=ORIENTED_EDGE('',*,*,#313,.F.);
#468=ORIENTED_EDGE('',*,*,#303,.F.);
#469=ORIENTED_EDGE('',*,*,#342,.F.);
#470=ORIENTED_EDGE('',*,*,#323,.F.);
#471=ORIENTED_EDGE('',*,*,#321,.F.);
#472=ORIENTED_EDGE('',*,*,#308,.F.);
#473=ORIENTED_EDGE('',*,*,#341,.F.);
#474=ORIENTED_EDGE('',*,*,#336,.F.);
#475=ORIENTED_EDGE('',*,*,#329,.F.);
#476=ORIENTED_EDGE('',*,*,#326,.F.);
#477=ORIENTED_EDGE('',*,*,#290,.F.);
#478=ORIENTED_EDGE('',*,*,#333,.F.);
#479=ORIENTED_EDGE('',*,*,#338,.F.);
#480=ORIENTED_EDGE('',*,*,#280,.F.);
#481=ORIENTED_EDGE('',*,*,#343,.F.);
#482=ORIENTED_EDGE('',*,*,#319,.F.);
#483=ORIENTED_EDGE('',*,*,#322,.F.);
#484=ORIENTED_EDGE('',*,*,#327,.F.);
#485=ORIENTED_EDGE('',*,*,#325,.F.);
#486=ORIENTED_EDGE('',*,*,#347,.F.);
#487=ORIENTED_EDGE('',*,*,#348,.T.);
#488=ORIENTED_EDGE('',*,*,#349,.T.);
#489=ORIENTED_EDGE('',*,*,#348,.F.);
#490=ORIENTED_EDGE('',*,*,#349,.F.);
#491=ORIENTED_EDGE('',*,*,#350,.F.);
#492=ORIENTED_EDGE('',*,*,#351,.T.);
#493=ORIENTED_EDGE('',*,*,#352,.T.);
#494=ORIENTED_EDGE('',*,*,#351,.F.);
#495=ORIENTED_EDGE('',*,*,#352,.F.);
#496=ORIENTED_EDGE('',*,*,#335,.F.);
#497=ORIENTED_EDGE('',*,*,#353,.F.);
#498=ORIENTED_EDGE('',*,*,#354,.T.);
#499=ORIENTED_EDGE('',*,*,#344,.T.);
#500=ORIENTED_EDGE('',*,*,#340,.F.);
#501=ORIENTED_EDGE('',*,*,#355,.F.);
#502=ORIENTED_EDGE('',*,*,#356,.T.);
#503=ORIENTED_EDGE('',*,*,#353,.T.);
#504=ORIENTED_EDGE('',*,*,#282,.F.);
#505=ORIENTED_EDGE('',*,*,#346,.F.);
#506=ORIENTED_EDGE('',*,*,#357,.T.);
#507=ORIENTED_EDGE('',*,*,#355,.T.);
#508=ORIENTED_EDGE('',*,*,#357,.F.);
#509=ORIENTED_EDGE('',*,*,#345,.F.);
#510=ORIENTED_EDGE('',*,*,#354,.F.);
#511=ORIENTED_EDGE('',*,*,#356,.F.);
#512=ORIENTED_EDGE('',*,*,#347,.T.);
#513=ORIENTED_EDGE('',*,*,#350,.T.);
#514=CYLINDRICAL_SURFACE('',#583,1.5);
#515=CYLINDRICAL_SURFACE('',#608,1.5);
#516=CYLINDRICAL_SURFACE('',#609,1.5);
#517=CYLINDRICAL_SURFACE('',#620,1.5);
#518=CYLINDRICAL_SURFACE('',#625,1.5);
#519=CYLINDRICAL_SURFACE('',#626,1.5);
#520=CYLINDRICAL_SURFACE('',#627,1.5);
#521=CYLINDRICAL_SURFACE('',#628,1.5);
#522=CYLINDRICAL_SURFACE('',#629,1.5);
#523=CYLINDRICAL_SURFACE('',#630,1.5);
#524=CYLINDRICAL_SURFACE('',#632,1.5);
#525=CYLINDRICAL_SURFACE('',#633,1.5);
#526=CYLINDRICAL_SURFACE('',#634,1.5);
#527=CYLINDRICAL_SURFACE('',#636,1.5);
#528=CYLINDRICAL_SURFACE('',#637,1.5);
#529=CYLINDRICAL_SURFACE('',#645,5.1);
#530=CYLINDRICAL_SURFACE('',#649,5.1);
#531=ADVANCED_FACE('',(#70),#514,.T.);
#532=ADVANCED_FACE('',(#71),#66,.T.);
#533=ADVANCED_FACE('',(#72),#30,.T.);
#534=ADVANCED_FACE('',(#73),#31,.T.);
#535=ADVANCED_FACE('',(#74),#67,.T.);
#536=ADVANCED_FACE('',(#75),#68,.F.);
#537=ADVANCED_FACE('',(#76),#515,.F.);
#538=ADVANCED_FACE('',(#77),#516,.F.);
#539=ADVANCED_FACE('',(#78),#32,.T.);
#540=ADVANCED_FACE('',(#79),#33,.T.);
#541=ADVANCED_FACE('',(#80),#517,.T.);
#542=ADVANCED_FACE('',(#81),#69,.F.);
#543=ADVANCED_FACE('',(#82),#518,.F.);
#544=ADVANCED_FACE('',(#83),#519,.F.);
#545=ADVANCED_FACE('',(#84),#520,.F.);
#546=ADVANCED_FACE('',(#85),#521,.T.);
#547=ADVANCED_FACE('',(#86),#522,.T.);
#548=ADVANCED_FACE('',(#87),#523,.T.);
#549=ADVANCED_FACE('',(#88),#524,.T.);
#550=ADVANCED_FACE('',(#89),#525,.T.);
#551=ADVANCED_FACE('',(#90),#526,.T.);
#552=ADVANCED_FACE('',(#91),#527,.T.);
#553=ADVANCED_FACE('',(#92),#528,.T.);
#554=ADVANCED_FACE('',(#93),#17,.T.);
#555=ADVANCED_FACE('',(#94),#18,.T.);
#556=ADVANCED_FACE('',(#95),#19,.T.);
#557=ADVANCED_FACE('',(#96),#20,.T.);
#558=ADVANCED_FACE('',(#97),#21,.T.);
#559=ADVANCED_FACE('',(#98),#22,.T.);
#560=ADVANCED_FACE('',(#99),#23,.T.);
#561=ADVANCED_FACE('',(#100),#529,.F.);
#562=ADVANCED_FACE('',(#101),#24,.F.);
#563=ADVANCED_FACE('',(#102),#530,.F.);
#564=ADVANCED_FACE('',(#103),#25,.F.);
#565=ADVANCED_FACE('',(#104),#26,.T.);
#566=ADVANCED_FACE('',(#105),#27,.T.);
#567=ADVANCED_FACE('',(#106),#28,.T.);
#568=ADVANCED_FACE('',(#107,#15,#16),#29,.F.);
#569=CLOSED_SHELL('',(#531,#532,#533,#534,#535,#536,#537,#538,#539,#540,
#541,#542,#543,#544,#545,#546,#547,#548,#549,#550,#551,#552,#553,#554,#555,
#556,#557,#558,#559,#560,#561,#562,#563,#564,#565,#566,#567,#568));
#570=DERIVED_UNIT_ELEMENT(#572,1.);
#571=DERIVED_UNIT_ELEMENT(#1015,-3.);
#572=(
MASS_UNIT()
NAMED_UNIT(*)
SI_UNIT(.KILO.,.GRAM.)
);
#573=DERIVED_UNIT((#570,#571));
#574=MEASURE_REPRESENTATION_ITEM('density measure',
POSITIVE_RATIO_MEASURE(7850.),#573);
#575=PROPERTY_DEFINITION_REPRESENTATION(#580,#577);
#576=PROPERTY_DEFINITION_REPRESENTATION(#581,#578);
#577=REPRESENTATION('material name',(#579),#1012);
#578=REPRESENTATION('density',(#574),#1012);
#579=DESCRIPTIVE_REPRESENTATION_ITEM('A\X\E7o','A\X\E7o');
#580=PROPERTY_DEFINITION('material property','material name',#1022);
#581=PROPERTY_DEFINITION('material property','density of part',#1022);
#582=AXIS2_PLACEMENT_3D('',#849,#657,#658);
#583=AXIS2_PLACEMENT_3D('',#850,#659,#660);
#584=AXIS2_PLACEMENT_3D('',#855,#662,#663);
#585=AXIS2_PLACEMENT_3D('',#858,#665,#666);
#586=AXIS2_PLACEMENT_3D('',#859,#667,#668);
#587=AXIS2_PLACEMENT_3D('',#862,#669,#670);
#588=AXIS2_PLACEMENT_3D('',#864,#671,#672);
#589=AXIS2_PLACEMENT_3D('',#865,#673,#674);
#590=AXIS2_PLACEMENT_3D('',#866,#675,#676);
#591=AXIS2_PLACEMENT_3D('',#869,#677,#678);
#592=AXIS2_PLACEMENT_3D('',#871,#679,#680);
#593=AXIS2_PLACEMENT_3D('',#873,#681,#682);
#594=AXIS2_PLACEMENT_3D('',#874,#683,#684);
#595=AXIS2_PLACEMENT_3D('',#875,#685,#686);
#596=AXIS2_PLACEMENT_3D('',#878,#687,#688);
#597=AXIS2_PLACEMENT_3D('',#880,#689,#690);
#598=AXIS2_PLACEMENT_3D('',#882,#691,#692);
#599=AXIS2_PLACEMENT_3D('',#883,#693,#694);
#600=AXIS2_PLACEMENT_3D('',#884,#695,#696);
#601=AXIS2_PLACEMENT_3D('',#887,#697,#698);
#602=AXIS2_PLACEMENT_3D('',#889,#699,#700);
#603=AXIS2_PLACEMENT_3D('',#890,#701,#702);
#604=AXIS2_PLACEMENT_3D('',#891,#703,#704);
#605=AXIS2_PLACEMENT_3D('',#894,#705,#706);
#606=AXIS2_PLACEMENT_3D('',#896,#707,#708);
#607=AXIS2_PLACEMENT_3D('',#897,#709,#710);
#608=AXIS2_PLACEMENT_3D('',#898,#711,#712);
#609=AXIS2_PLACEMENT_3D('',#901,#715,#716);
#610=AXIS2_PLACEMENT_3D('',#904,#719,#720);
#611=AXIS2_PLACEMENT_3D('',#907,#721,#722);
#612=AXIS2_PLACEMENT_3D('',#909,#723,#724);
#613=AXIS2_PLACEMENT_3D('',#911,#725,#726);
#614=AXIS2_PLACEMENT_3D('',#912,#727,#728);
#615=AXIS2_PLACEMENT_3D('',#913,#729,#730);
#616=AXIS2_PLACEMENT_3D('',#916,#731,#732);
#617=AXIS2_PLACEMENT_3D('',#918,#733,#734);
#618=AXIS2_PLACEMENT_3D('',#920,#735,#736);
#619=AXIS2_PLACEMENT_3D('',#921,#737,#738);
#620=AXIS2_PLACEMENT_3D('',#922,#739,#740);
#621=AXIS2_PLACEMENT_3D('',#925,#743,#744);
#622=AXIS2_PLACEMENT_3D('',#928,#745,#746);
#623=AXIS2_PLACEMENT_3D('',#930,#747,#748);
#624=AXIS2_PLACEMENT_3D('',#931,#749,#750);
#625=AXIS2_PLACEMENT_3D('',#932,#751,#752);
#626=AXIS2_PLACEMENT_3D('',#935,#755,#756);
#627=AXIS2_PLACEMENT_3D('',#938,#759,#760);
#628=AXIS2_PLACEMENT_3D('',#941,#763,#764);
#629=AXIS2_PLACEMENT_3D('',#944,#767,#768);
#630=AXIS2_PLACEMENT_3D('',#947,#771,#772);
#631=AXIS2_PLACEMENT_3D('',#952,#775,#776);
#632=AXIS2_PLACEMENT_3D('',#953,#777,#778);
#633=AXIS2_PLACEMENT_3D('',#956,#781,#782);
#634=AXIS2_PLACEMENT_3D('',#959,#785,#786);
#635=AXIS2_PLACEMENT_3D('',#964,#789,#790);
#636=AXIS2_PLACEMENT_3D('',#965,#791,#792);
#637=AXIS2_PLACEMENT_3D('',#968,#795,#796);
#638=AXIS2_PLACEMENT_3D('',#973,#801,#802);
#639=AXIS2_PLACEMENT_3D('',#979,#806,#807);
#640=AXIS2_PLACEMENT_3D('',#980,#808,#809);
#641=AXIS2_PLACEMENT_3D('',#981,#810,#811);
#642=AXIS2_PLACEMENT_3D('',#982,#812,#813);
#643=AXIS2_PLACEMENT_3D('',#983,#814,#815);
#644=AXIS2_PLACEMENT_3D('',#984,#816,#817);
#645=AXIS2_PLACEMENT_3D('',#985,#818,#819);
#646=AXIS2_PLACEMENT_3D('',#987,#820,#821);
#647=AXIS2_PLACEMENT_3D('',#990,#823,#824);
#648=AXIS2_PLACEMENT_3D('',#991,#825,#826);
#649=AXIS2_PLACEMENT_3D('',#992,#827,#828);
#650=AXIS2_PLACEMENT_3D('',#994,#829,#830);
#651=AXIS2_PLACEMENT_3D('',#997,#832,#833);
#652=AXIS2_PLACEMENT_3D('',#998,#834,#835);
#653=AXIS2_PLACEMENT_3D('',#999,#836,#837);
#654=AXIS2_PLACEMENT_3D('',#1003,#840,#841);
#655=AXIS2_PLACEMENT_3D('',#1007,#844,#845);
#656=AXIS2_PLACEMENT_3D('',#1009,#847,#848);
#657=DIRECTION('axis',(0.,0.,1.));
#658=DIRECTION('refdir',(1.,0.,0.));
#659=DIRECTION('center_axis',(0.,-1.,0.));
#660=DIRECTION('ref_axis',(-0.707106781186545,0.,0.70710678118655));
#661=DIRECTION('',(0.,1.,0.));
#662=DIRECTION('center_axis',(-0.707106781186548,-0.707106781186548,0.));
#663=DIRECTION('ref_axis',(-0.707106781186548,0.707106781186548,0.));
#664=DIRECTION('',(0.,-1.,0.));
#665=DIRECTION('center_axis',(0.707106781186548,-0.707106781186548,-1.04672830578918E-15));
#666=DIRECTION('ref_axis',(-0.707106781186547,-0.707106781186547,-1.04672830578918E-15));
#667=DIRECTION('center_axis',(0.408248290463862,-0.816496580927727,0.408248290463862));
#668=DIRECTION('ref_axis',(0.577350269189625,0.577350269189625,0.577350269189627));
#669=DIRECTION('center_axis',(0.,1.,0.));
#670=DIRECTION('ref_axis',(1.,0.,0.));
#671=DIRECTION('center_axis',(0.,0.,1.));
#672=DIRECTION('ref_axis',(0.,1.,0.));
#673=DIRECTION('center_axis',(1.,0.,0.));
#674=DIRECTION('ref_axis',(0.,0.,1.));
#675=DIRECTION('center_axis',(0.,0.,-1.));
#676=DIRECTION('ref_axis',(-1.,0.,0.));
#677=DIRECTION('center_axis',(1.,0.,0.));
#678=DIRECTION('ref_axis',(0.,1.,0.));
#679=DIRECTION('center_axis',(0.,0.,-1.));
#680=DIRECTION('ref_axis',(-1.,0.,0.));
#681=DIRECTION('center_axis',(0.,1.,0.));
#682=DIRECTION('ref_axis',(0.,0.,1.));
#683=DIRECTION('center_axis',(0.,0.,1.));
#684=DIRECTION('ref_axis',(-0.707106781186548,-0.707106781186547,0.));
#685=DIRECTION('center_axis',(0.,-1.,0.));
#686=DIRECTION('ref_axis',(0.,0.,-1.));
#687=DIRECTION('center_axis',(0.,-1.,0.));
#688=DIRECTION('ref_axis',(0.,0.,-1.));
#689=DIRECTION('center_axis',(1.,0.,0.));
#690=DIRECTION('ref_axis',(0.,1.,0.));
#691=DIRECTION('center_axis',(0.,1.,0.));
#692=DIRECTION('ref_axis',(-0.707106781186548,0.,-0.707106781186547));
#693=DIRECTION('center_axis',(0.,0.,1.));
#694=DIRECTION('ref_axis',(1.,0.,0.));
#695=DIRECTION('center_axis',(-0.408248290463862,-0.816496580927726,0.408248290463863));
#696=DIRECTION('ref_axis',(-0.577350269189627,0.577350269189625,0.577350269189626));
#697=DIRECTION('center_axis',(-1.,0.,0.));
#698=DIRECTION('ref_axis',(0.,1.,0.));
#699=DIRECTION('center_axis',(0.,0.,1.));
#700=DIRECTION('ref_axis',(-1.,0.,0.));
#701=DIRECTION('center_axis',(0.,1.,0.));
#702=DIRECTION('ref_axis',(0.,0.,1.));
#703=DIRECTION('center_axis',(0.408248290463863,0.408248290463863,-0.816496580927726));
#704=DIRECTION('ref_axis',(-0.577350269189627,-0.577350269189625,-0.577350269189625));
#705=DIRECTION('center_axis',(1.,0.,0.));
#706=DIRECTION('ref_axis',(0.,0.,-1.));
#707=DIRECTION('center_axis',(0.,1.,0.));
#708=DIRECTION('ref_axis',(-1.,0.,0.));
#709=DIRECTION('center_axis',(0.,0.,1.));
#710=DIRECTION('ref_axis',(0.,-1.,0.));
#711=DIRECTION('center_axis',(0.,-1.,0.));
#712=DIRECTION('ref_axis',(-0.707106781186549,0.,-0.707106781186546));
#713=DIRECTION('',(0.,1.,0.));
#714=DIRECTION('',(0.,-1.,0.));
#715=DIRECTION('center_axis',(0.,0.,1.));
#716=DIRECTION('ref_axis',(-0.707106781186549,-0.707106781186546,0.));
#717=DIRECTION('',(0.,0.,-1.));
#718=DIRECTION('',(0.,0.,1.));
#719=DIRECTION('center_axis',(0.,0.,-1.));
#720=DIRECTION('ref_axis',(-1.,0.,0.));
#721=DIRECTION('center_axis',(0.,1.,0.));
#722=DIRECTION('ref_axis',(-1.,0.,0.));
#723=DIRECTION('center_axis',(0.,0.,-1.));
#724=DIRECTION('ref_axis',(0.,-1.,0.));
#725=DIRECTION('center_axis',(-1.,0.,0.));
#726=DIRECTION('ref_axis',(0.,0.,1.));
#727=DIRECTION('center_axis',(0.,0.,1.));
#728=DIRECTION('ref_axis',(0.707106781186548,-0.707106781186547,0.));
#729=DIRECTION('center_axis',(0.,1.,0.));
#730=DIRECTION('ref_axis',(0.,0.,1.));
#731=DIRECTION('center_axis',(0.,1.,0.));
#732=DIRECTION('ref_axis',(0.707106781186548,0.,-0.707106781186547));
#733=DIRECTION('center_axis',(-1.,0.,0.));
#734=DIRECTION('ref_axis',(0.,0.,1.));
#735=DIRECTION('center_axis',(0.,-1.,0.));
#736=DIRECTION('ref_axis',(1.,0.,0.));
#737=DIRECTION('center_axis',(0.,0.,1.));
#738=DIRECTION('ref_axis',(0.,1.,0.));
#739=DIRECTION('center_axis',(-1.,0.,0.));
#740=DIRECTION('ref_axis',(0.,0.707106781186547,0.707106781186548));
#741=DIRECTION('',(1.,0.,0.));
#742=DIRECTION('',(-1.,0.,0.));
#743=DIRECTION('center_axis',(-0.408248290463865,0.408248290463862,-0.816496580927726));
#744=DIRECTION('ref_axis',(0.577350269189627,-0.577350269189624,-0.577350269189626));
#745=DIRECTION('center_axis',(0.,0.,1.));
#746=DIRECTION('ref_axis',(1.,0.,0.));
#747=DIRECTION('center_axis',(0.,1.,0.));
#748=DIRECTION('ref_axis',(0.,0.,-1.));
#749=DIRECTION('center_axis',(-1.,0.,0.));
#750=DIRECTION('ref_axis',(0.,-1.,0.));
#751=DIRECTION('center_axis',(0.,1.,0.));
#752=DIRECTION('ref_axis',(0.707106781186549,0.,-0.707106781186546));
#753=DIRECTION('',(0.,-1.,0.));
#754=DIRECTION('',(0.,1.,0.));
#755=DIRECTION('center_axis',(1.,0.,0.));
#756=DIRECTION('ref_axis',(0.,-0.707106781186547,-0.707106781186547));
#757=DIRECTION('',(-1.,0.,0.));
#758=DIRECTION('',(1.,0.,0.));
#759=DIRECTION('center_axis',(0.,0.,1.));
#760=DIRECTION('ref_axis',(0.707106781186549,-0.707106781186546,0.));
#761=DIRECTION('',(0.,0.,-1.));
#762=DIRECTION('',(0.,0.,1.));
#763=DIRECTION('center_axis',(0.,0.,1.));
#764=DIRECTION('ref_axis',(-0.707106781186549,0.707106781186546,0.));
#765=DIRECTION('',(0.,0.,-1.));
#766=DIRECTION('',(0.,0.,1.));
#767=DIRECTION('center_axis',(0.,-1.,0.));
#768=DIRECTION('ref_axis',(-0.707106781186548,0.,0.707106781186548));
#769=DIRECTION('',(0.,1.,0.));
#770=DIRECTION('',(0.,-1.,0.));
#771=DIRECTION('center_axis',(-1.,0.,0.));
#772=DIRECTION('ref_axis',(0.,0.707106781186546,0.707106781186549));
#773=DIRECTION('',(-1.,0.,0.));
#774=DIRECTION('',(1.,0.,0.));
#775=DIRECTION('center_axis',(-0.707106781186548,0.707106781186548,-1.04672830578918E-15));
#776=DIRECTION('ref_axis',(0.707106781186547,0.707106781186547,-1.04672830578918E-15));
#777=DIRECTION('center_axis',(0.,0.,1.));
#778=DIRECTION('ref_axis',(0.707106781186549,0.707106781186546,0.));
#779=DIRECTION('',(0.,0.,-1.));
#780=DIRECTION('',(0.,0.,1.));
#781=DIRECTION('center_axis',(0.,1.,0.));
#782=DIRECTION('ref_axis',(0.707106781186548,0.,0.707106781186548));
#783=DIRECTION('',(0.,-1.,0.));
#784=DIRECTION('',(0.,1.,0.));
#785=DIRECTION('center_axis',(0.,1.,0.));
#786=DIRECTION('ref_axis',(0.707106781186545,0.,0.70710678118655));
#787=DIRECTION('',(0.,1.,0.));
#788=DIRECTION('',(0.,-1.,0.));
#789=DIRECTION('center_axis',(0.707106781186548,0.707106781186548,0.));
#790=DIRECTION('ref_axis',(0.707106781186548,-0.707106781186548,0.));
#791=DIRECTION('center_axis',(-1.,0.,0.));
#792=DIRECTION('ref_axis',(0.,0.707106781186546,0.707106781186549));
#793=DIRECTION('',(1.,0.,0.));
#794=DIRECTION('',(-1.,0.,0.));
#795=DIRECTION('center_axis',(1.,0.,0.));
#796=DIRECTION('ref_axis',(0.,-0.707106781186546,0.707106781186549));
#797=DIRECTION('',(1.,0.,0.));
#798=DIRECTION('',(-1.,0.,0.));
#799=DIRECTION('',(-1.,0.,0.));
#800=DIRECTION('',(-1.,0.,0.));
#801=DIRECTION('center_axis',(0.,1.,0.));
#802=DIRECTION('ref_axis',(-1.,0.,0.));
#803=DIRECTION('',(0.,0.,1.));
#804=DIRECTION('',(-1.,0.,0.));
#805=DIRECTION('',(0.,0.,1.));
#806=DIRECTION('center_axis',(1.,0.,0.));
#807=DIRECTION('ref_axis',(0.,1.,0.));
#808=DIRECTION('center_axis',(0.,0.,1.));
#809=DIRECTION('ref_axis',(1.,0.,0.));
#810=DIRECTION('center_axis',(0.,1.,0.));
#811=DIRECTION('ref_axis',(-1.,0.,0.));
#812=DIRECTION('center_axis',(0.,0.,1.));
#813=DIRECTION('ref_axis',(1.,0.,0.));
#814=DIRECTION('center_axis',(0.,0.,1.));
#815=DIRECTION('ref_axis',(1.,0.,0.));
#816=DIRECTION('center_axis',(-1.,0.,0.));
#817=DIRECTION('ref_axis',(0.,-1.,0.));
#818=DIRECTION('center_axis',(0.,0.,1.));
#819=DIRECTION('ref_axis',(1.,0.,0.));
#820=DIRECTION('center_axis',(0.,0.,1.));
#821=DIRECTION('ref_axis',(1.,0.,0.));
#822=DIRECTION('',(0.,0.,1.));
#823=DIRECTION('center_axis',(0.,0.,1.));
#824=DIRECTION('ref_axis',(1.,0.,0.));
#825=DIRECTION('center_axis',(0.,0.,1.));
#826=DIRECTION('ref_axis',(1.,0.,0.));
#827=DIRECTION('center_axis',(0.,0.,1.));
#828=DIRECTION('ref_axis',(1.,0.,0.));
#829=DIRECTION('center_axis',(0.,0.,1.));
#830=DIRECTION('ref_axis',(1.,0.,0.));
#831=DIRECTION('',(0.,0.,1.));
#832=DIRECTION('center_axis',(0.,0.,1.));
#833=DIRECTION('ref_axis',(1.,0.,0.));
#834=DIRECTION('center_axis',(0.,0.,1.));
#835=DIRECTION('ref_axis',(1.,0.,0.));
#836=DIRECTION('center_axis',(1.,0.,0.));
#837=DIRECTION('ref_axis',(0.,1.,0.));
#838=DIRECTION('',(0.,0.,1.));
#839=DIRECTION('',(0.,1.,0.));
#840=DIRECTION('center_axis',(0.,-1.,0.));
#841=DIRECTION('ref_axis',(1.,0.,0.));
#842=DIRECTION('',(0.,0.,1.));
#843=DIRECTION('',(1.,0.,0.));
#844=DIRECTION('center_axis',(-1.,0.,0.));
#845=DIRECTION('ref_axis',(0.,-1.,0.));
#846=DIRECTION('',(0.,-1.,0.));
#847=DIRECTION('center_axis',(0.,0.,1.));
#848=DIRECTION('ref_axis',(1.,0.,0.));
#849=CARTESIAN_POINT('',(0.,0.,0.));
#850=CARTESIAN_POINT('Origin',(-20.5,9.5,12.5));
#851=CARTESIAN_POINT('',(-20.5,-17.5,14.));
#852=CARTESIAN_POINT('',(-20.5,17.5,14.));
#853=CARTESIAN_POINT('',(-20.5,9.5,14.));
#854=CARTESIAN_POINT('',(-22.,19.,12.5));
#855=CARTESIAN_POINT('Origin',(-20.5,17.5,12.5));
#856=CARTESIAN_POINT('',(-22.,-19.,12.5));
#857=CARTESIAN_POINT('',(-22.,9.5,12.5));
#858=CARTESIAN_POINT('Origin',(-20.5,-17.5,12.5));
#859=CARTESIAN_POINT('Origin',(-17.,17.5,12.5));
#860=CARTESIAN_POINT('',(-15.5,17.5,12.5));
#861=CARTESIAN_POINT('',(-17.,17.5,14.));
#862=CARTESIAN_POINT('Origin',(-17.,17.5,12.5));
#863=CARTESIAN_POINT('',(-17.,19.,12.5));
#864=CARTESIAN_POINT('Origin',(-17.,17.5,12.5));
#865=CARTESIAN_POINT('Origin',(-17.,17.5,12.5));
#866=CARTESIAN_POINT('Origin',(-14.,-14.5,12.5));
#867=CARTESIAN_POINT('',(-14.,-16.,12.5));
#868=CARTESIAN_POINT('',(-14.,-17.5,14.));
#869=CARTESIAN_POINT('Origin',(-14.,-17.5,12.5));
#870=CARTESIAN_POINT('',(-15.5,-14.5,12.5));
#871=CARTESIAN_POINT('Origin',(-14.,-14.5,12.5));
#872=CARTESIAN_POINT('',(-17.,-14.5,14.));
#873=CARTESIAN_POINT('Origin',(-17.,-14.5,12.5));
#874=CARTESIAN_POINT('Origin',(-14.,-14.5,14.));
#875=CARTESIAN_POINT('Origin',(-14.,17.5,7.5));
#876=CARTESIAN_POINT('',(-14.,17.5,6.));
#877=CARTESIAN_POINT('',(-15.5,17.5,7.5));
#878=CARTESIAN_POINT('Origin',(-14.,17.5,7.5));
#879=CARTESIAN_POINT('',(-14.,19.,4.5));
#880=CARTESIAN_POINT('Origin',(-14.,17.5,4.5));
#881=CARTESIAN_POINT('',(-17.,19.,7.5));
#882=CARTESIAN_POINT('Origin',(-14.,19.,7.5));
#883=CARTESIAN_POINT('Origin',(-17.,17.5,7.5));
#884=CARTESIAN_POINT('Origin',(17.,17.5,12.5));
#885=CARTESIAN_POINT('',(17.,19.,12.5));
#886=CARTESIAN_POINT('',(17.,17.5,14.));
#887=CARTESIAN_POINT('Origin',(17.,17.5,12.5));
#888=CARTESIAN_POINT('',(15.5,17.5,12.5));
#889=CARTESIAN_POINT('Origin',(17.,17.5,12.5));
#890=CARTESIAN_POINT('Origin',(17.,17.5,12.5));
#891=CARTESIAN_POINT('Origin',(-14.,-14.5,7.5));
#892=CARTESIAN_POINT('',(-14.,-14.5,6.));
#893=CARTESIAN_POINT('',(-14.,-16.,7.5));
#894=CARTESIAN_POINT('Origin',(-14.,-14.5,7.5));
#895=CARTESIAN_POINT('',(-15.5,-14.5,7.5));
#896=CARTESIAN_POINT('Origin',(-14.,-14.5,7.5));
#897=CARTESIAN_POINT('Origin',(-14.,-14.5,7.5));
#898=CARTESIAN_POINT('Origin',(-14.,-8.,7.5));
#899=CARTESIAN_POINT('',(-14.,-8.,6.));
#900=CARTESIAN_POINT('',(-15.5,-8.,7.5));
#901=CARTESIAN_POINT('Origin',(-14.,-14.5,6.));
#902=CARTESIAN_POINT('',(-14.,-16.,6.));
#903=CARTESIAN_POINT('',(-15.5,-14.5,6.));
#904=CARTESIAN_POINT('Origin',(14.,-14.5,12.5));
#905=CARTESIAN_POINT('',(15.5,-14.5,12.5));
#906=CARTESIAN_POINT('',(17.,-14.5,14.));
#907=CARTESIAN_POINT('Origin',(17.,-14.5,12.5));
#908=CARTESIAN_POINT('',(14.,-16.,12.5));
#909=CARTESIAN_POINT('Origin',(14.,-14.5,12.5));
#910=CARTESIAN_POINT('',(14.,-17.5,14.));
#911=CARTESIAN_POINT('Origin',(14.,-17.5,12.5));
#912=CARTESIAN_POINT('Origin',(14.,-14.5,14.));
#913=CARTESIAN_POINT('Origin',(14.,17.5,7.5));
#914=CARTESIAN_POINT('',(17.,19.,7.5));
#915=CARTESIAN_POINT('',(14.,19.,4.5));
#916=CARTESIAN_POINT('Origin',(14.,19.,7.5));
#917=CARTESIAN_POINT('',(14.,17.5,6.));
#918=CARTESIAN_POINT('Origin',(14.,17.5,4.5));
#919=CARTESIAN_POINT('',(15.5,17.5,7.5));
#920=CARTESIAN_POINT('Origin',(14.,17.5,7.5));
#921=CARTESIAN_POINT('Origin',(17.,17.5,7.5));
#922=CARTESIAN_POINT('Origin',(11.,17.5,4.5));
#923=CARTESIAN_POINT('',(11.,17.5,6.));
#924=CARTESIAN_POINT('',(11.,19.,4.5));
#925=CARTESIAN_POINT('Origin',(14.,-14.5,7.5));
#926=CARTESIAN_POINT('',(15.5,-14.5,7.5));
#927=CARTESIAN_POINT('',(14.,-16.,7.5));
#928=CARTESIAN_POINT('Origin',(14.,-14.5,7.5));
#929=CARTESIAN_POINT('',(14.,-14.5,6.));
#930=CARTESIAN_POINT('Origin',(14.,-14.5,7.5));
#931=CARTESIAN_POINT('Origin',(14.,-14.5,7.5));
#932=CARTESIAN_POINT('Origin',(14.,9.5,7.5));
#933=CARTESIAN_POINT('',(14.,9.5,6.));
#934=CARTESIAN_POINT('',(15.5,9.5,7.5));
#935=CARTESIAN_POINT('Origin',(7.75,-14.5,7.5));
#936=CARTESIAN_POINT('',(7.75,-14.5,6.));
#937=CARTESIAN_POINT('',(7.75,-16.,7.5));
#938=CARTESIAN_POINT('Origin',(14.,-14.5,6.));
#939=CARTESIAN_POINT('',(15.5,-14.5,6.));
#940=CARTESIAN_POINT('',(14.,-16.,6.));
#941=CARTESIAN_POINT('Origin',(17.,17.5,3.));
#942=CARTESIAN_POINT('',(17.,19.,3.));
#943=CARTESIAN_POINT('',(15.5,17.5,3.));
#944=CARTESIAN_POINT('Origin',(17.,9.5,12.5));
#945=CARTESIAN_POINT('',(17.,9.5,14.));
#946=CARTESIAN_POINT('',(15.5,9.5,12.5));
#947=CARTESIAN_POINT('Origin',(11.,17.5,12.5));
#948=CARTESIAN_POINT('',(22.,19.,12.5));
#949=CARTESIAN_POINT('',(11.,19.,12.5));
#950=CARTESIAN_POINT('',(20.5,17.5,14.));
#951=CARTESIAN_POINT('',(11.,17.5,14.));
#952=CARTESIAN_POINT('Origin',(20.5,17.5,12.5));
#953=CARTESIAN_POINT('Origin',(-17.,17.5,3.));
#954=CARTESIAN_POINT('',(-15.5,17.5,3.));
#955=CARTESIAN_POINT('',(-17.,19.,3.));
#956=CARTESIAN_POINT('Origin',(-17.,-8.,12.5));
#957=CARTESIAN_POINT('',(-17.,-8.,14.));
#958=CARTESIAN_POINT('',(-15.5,-8.,12.5));
#959=CARTESIAN_POINT('Origin',(20.5,-9.5,12.5));
#960=CARTESIAN_POINT('',(22.,-19.,12.5));
#961=CARTESIAN_POINT('',(22.,-9.5,12.5));
#962=CARTESIAN_POINT('',(20.5,-17.5,14.));
#963=CARTESIAN_POINT('',(20.5,-9.5,14.));
#964=CARTESIAN_POINT('Origin',(20.5,-17.5,12.5));
#965=CARTESIAN_POINT('Origin',(11.,17.5,12.5));
#966=CARTESIAN_POINT('',(11.,17.5,14.));
#967=CARTESIAN_POINT('',(11.,19.,12.5));
#968=CARTESIAN_POINT('Origin',(-11.,-17.5,12.5));
#969=CARTESIAN_POINT('',(-11.,-19.,12.5));
#970=CARTESIAN_POINT('',(-11.,-17.5,14.));
#971=CARTESIAN_POINT('',(7.75,-16.,12.5));
#972=CARTESIAN_POINT('',(-11.,-17.5,14.));
#973=CARTESIAN_POINT('Origin',(22.,19.,0.));
#974=CARTESIAN_POINT('',(22.,19.,0.));
#975=CARTESIAN_POINT('',(22.,19.,0.));
#976=CARTESIAN_POINT('',(-22.,19.,0.));
#977=CARTESIAN_POINT('',(22.,19.,0.));
#978=CARTESIAN_POINT('',(-22.,19.,0.));
#979=CARTESIAN_POINT('Origin',(-15.5,-16.,6.));
#980=CARTESIAN_POINT('Origin',(0.,0.,6.));
#981=CARTESIAN_POINT('Origin',(15.5,-16.,6.));
#982=CARTESIAN_POINT('Origin',(0.,0.,14.));
#983=CARTESIAN_POINT('Origin',(0.,0.,14.));
#984=CARTESIAN_POINT('Origin',(15.5,19.,6.));
#985=CARTESIAN_POINT('Origin',(-11.,0.,0.));
#986=CARTESIAN_POINT('',(-16.1,-6.2456986756515E-16,0.));
#987=CARTESIAN_POINT('Origin',(-11.,0.,0.));
#988=CARTESIAN_POINT('',(-16.1,-6.2456986756515E-16,2.2));
#989=CARTESIAN_POINT('',(-16.1,-6.2456986756515E-16,0.));
#990=CARTESIAN_POINT('Origin',(-11.,0.,2.2));
#991=CARTESIAN_POINT('Origin',(-11.,0.,2.2));
#992=CARTESIAN_POINT('Origin',(11.,0.,0.));
#993=CARTESIAN_POINT('',(5.9,-6.2456986756515E-16,0.));
#994=CARTESIAN_POINT('Origin',(11.,0.,0.));
#995=CARTESIAN_POINT('',(5.9,-6.2456986756515E-16,2.2));
#996=CARTESIAN_POINT('',(5.9,-6.2456986756515E-16,0.));
#997=CARTESIAN_POINT('Origin',(11.,0.,2.2));
#998=CARTESIAN_POINT('Origin',(11.,0.,2.2));
#999=CARTESIAN_POINT('Origin',(22.,-19.,0.));
#1000=CARTESIAN_POINT('',(22.,-19.,0.));
#1001=CARTESIAN_POINT('',(22.,-19.,0.));
#1002=CARTESIAN_POINT('',(22.,-19.,0.));
#1003=CARTESIAN_POINT('Origin',(-22.,-19.,0.));
#1004=CARTESIAN_POINT('',(-22.,-19.,0.));
#1005=CARTESIAN_POINT('',(-22.,-19.,0.));
#1006=CARTESIAN_POINT('',(-22.,-19.,0.));
#1007=CARTESIAN_POINT('Origin',(-22.,19.,0.));
#1008=CARTESIAN_POINT('',(-22.,19.,0.));
#1009=CARTESIAN_POINT('Origin',(0.,0.,0.));
#1010=UNCERTAINTY_MEASURE_WITH_UNIT(LENGTH_MEASURE(0.01),#1014,
'DISTANCE_ACCURACY_VALUE',
'Maximum model space distance between geometric entities at asserted c
onnectivities');
#1011=UNCERTAINTY_MEASURE_WITH_UNIT(LENGTH_MEASURE(0.01),#1014,
'DISTANCE_ACCURACY_VALUE',
'Maximum model space distance between geometric entities at asserted c
onnectivities');
#1012=(
GEOMETRIC_REPRESENTATION_CONTEXT(3)
GLOBAL_UNCERTAINTY_ASSIGNED_CONTEXT((#1010))
GLOBAL_UNIT_ASSIGNED_CONTEXT((#1014,#1016,#1017))
REPRESENTATION_CONTEXT('','3D')
);
#1013=(
GEOMETRIC_REPRESENTATION_CONTEXT(3)
GLOBAL_UNCERTAINTY_ASSIGNED_CONTEXT((#1011))
GLOBAL_UNIT_ASSIGNED_CONTEXT((#1014,#1016,#1017))
REPRESENTATION_CONTEXT('','3D')
);
#1014=(
LENGTH_UNIT()
NAMED_UNIT(*)
SI_UNIT(.MILLI.,.METRE.)
);
#1015=(
LENGTH_UNIT()
NAMED_UNIT(*)
SI_UNIT($,.METRE.)
);
#1016=(
NAMED_UNIT(*)
PLANE_ANGLE_UNIT()
SI_UNIT($,.RADIAN.)
);
#1017=(
NAMED_UNIT(*)
SI_UNIT($,.STERADIAN.)
SOLID_ANGLE_UNIT()
);
#1018=SHAPE_DEFINITION_REPRESENTATION(#1019,#1020);
#1019=PRODUCT_DEFINITION_SHAPE('',$,#1022);
#1020=SHAPE_REPRESENTATION('',(#582),#1012);
#1021=PRODUCT_DEFINITION_CONTEXT('part definition',#1026,'design');
#1022=PRODUCT_DEFINITION('(N\X\E3o salvo)','(N\X\E3o salvo)',#1023,#1021);
#1023=PRODUCT_DEFINITION_FORMATION('',$,#1028);
#1024=PRODUCT_RELATED_PRODUCT_CATEGORY('(N\X\E3o salvo)','(N\X\E3o sal
vo)',(#1028));
#1025=APPLICATION_PROTOCOL_DEFINITION('international standard',
'automotive_design',2009,#1026);
#1026=APPLICATION_CONTEXT(
'Core Data for Automotive Mechanical Design Process');
#1027=PRODUCT_CONTEXT('part definition',#1026,'mechanical');
#1028=PRODUCT('(N\X\E3o salvo)','(N\X\E3o salvo)',$,(#1027));
#1029=PRESENTATION_STYLE_ASSIGNMENT((#1031));
#1030=PRESENTATION_STYLE_ASSIGNMENT((#1032));
#1031=SURFACE_STYLE_USAGE(.BOTH.,#1033);
#1032=SURFACE_STYLE_USAGE(.BOTH.,#1034);
#1033=SURFACE_SIDE_STYLE('',(#1035));
#1034=SURFACE_SIDE_STYLE('',(#1036));
#1035=SURFACE_STYLE_FILL_AREA(#1037);
#1036=SURFACE_STYLE_FILL_AREA(#1038);
#1037=FILL_AREA_STYLE('A\X\E7o - Acetinado',(#1039));
#1038=FILL_AREA_STYLE('Mat_PETG_Preto_Berco',(#1040));
#1039=FILL_AREA_STYLE_COLOUR('A\X\E7o - Acetinado',#1041);
#1040=FILL_AREA_STYLE_COLOUR('Mat_PETG_Preto_Berco',#1042);
#1041=COLOUR_RGB('A\X\E7o - Acetinado',0.627450980392157,0.627450980392157,
0.627450980392157);
#1042=COLOUR_RGB('Mat_PETG_Preto_Berco',0.117647058823529,0.117647058823529,
0.125490196078431);
ENDSEC;
END-ISO-10303-21;
