ISO-10303-21;
HEADER;
/* Generated by software containing ST-Developer
 * from STEP Tools, Inc. (www.steptools.com) 
 */

FILE_DESCRIPTION(
/* description */ (''),
/* implementation_level */ '2;1');

FILE_NAME(
/* name */ '01_Suporte_Tacometro_Ajustavel_3D.step',
/* time_stamp */ '2026-09-24T23:44:25-03:00',
/* author */ (''),
/* organization */ (''),
/* preprocessor_version */ 'ST-DEVELOPER v20.2',
/* originating_system */ 'Autodesk Translation Framework v15.15.0.0',
/* authorisation */ '');

FILE_SCHEMA (('AUTOMOTIVE_DESIGN { 1 0 10303 214 3 1 1 }'));
ENDSEC;

DATA;
#10=MECHANICAL_DESIGN_GEOMETRIC_PRESENTATION_REPRESENTATION('',(#13,#14),
#892);
#11=SHAPE_REPRESENTATION_RELATIONSHIP('SRR','None',#899,#12);
#12=ADVANCED_BREP_SHAPE_REPRESENTATION('',(#15,#16),#891);
#13=STYLED_ITEM('',(#909),#15);
#14=STYLED_ITEM('',(#908),#16);
#15=MANIFOLD_SOLID_BREP('Corpo_Suporte_Tacometro',#547);
#16=MANIFOLD_SOLID_BREP('Corpo2',#548);
#17=FACE_BOUND('',#68,.T.);
#18=FACE_BOUND('',#74,.T.);
#19=FACE_BOUND('',#87,.T.);
#20=FACE_BOUND('',#88,.T.);
#21=CIRCLE('',#564,1.75);
#22=CIRCLE('',#565,1.75);
#23=CIRCLE('',#568,1.75);
#24=CIRCLE('',#569,1.75);
#25=CIRCLE('',#580,3.3);
#26=CIRCLE('',#581,3.3);
#27=CYLINDRICAL_SURFACE('',#563,1.75);
#28=CYLINDRICAL_SURFACE('',#567,1.75);
#29=CYLINDRICAL_SURFACE('',#579,3.3);
#30=FACE_OUTER_BOUND('',#60,.T.);
#31=FACE_OUTER_BOUND('',#61,.T.);
#32=FACE_OUTER_BOUND('',#62,.T.);
#33=FACE_OUTER_BOUND('',#63,.T.);
#34=FACE_OUTER_BOUND('',#64,.T.);
#35=FACE_OUTER_BOUND('',#65,.T.);
#36=FACE_OUTER_BOUND('',#66,.T.);
#37=FACE_OUTER_BOUND('',#67,.T.);
#38=FACE_OUTER_BOUND('',#69,.T.);
#39=FACE_OUTER_BOUND('',#70,.T.);
#40=FACE_OUTER_BOUND('',#71,.T.);
#41=FACE_OUTER_BOUND('',#72,.T.);
#42=FACE_OUTER_BOUND('',#73,.T.);
#43=FACE_OUTER_BOUND('',#75,.T.);
#44=FACE_OUTER_BOUND('',#76,.T.);
#45=FACE_OUTER_BOUND('',#77,.T.);
#46=FACE_OUTER_BOUND('',#78,.T.);
#47=FACE_OUTER_BOUND('',#79,.T.);
#48=FACE_OUTER_BOUND('',#80,.T.);
#49=FACE_OUTER_BOUND('',#81,.T.);
#50=FACE_OUTER_BOUND('',#82,.T.);
#51=FACE_OUTER_BOUND('',#83,.T.);
#52=FACE_OUTER_BOUND('',#84,.T.);
#53=FACE_OUTER_BOUND('',#85,.T.);
#54=FACE_OUTER_BOUND('',#86,.T.);
#55=FACE_OUTER_BOUND('',#89,.T.);
#56=FACE_OUTER_BOUND('',#90,.T.);
#57=FACE_OUTER_BOUND('',#91,.T.);
#58=FACE_OUTER_BOUND('',#92,.T.);
#59=FACE_OUTER_BOUND('',#93,.T.);
#60=EDGE_LOOP('',(#346,#347,#348,#349));
#61=EDGE_LOOP('',(#350,#351,#352,#353));
#62=EDGE_LOOP('',(#354,#355,#356,#357));
#63=EDGE_LOOP('',(#358,#359,#360,#361));
#64=EDGE_LOOP('',(#362,#363,#364,#365));
#65=EDGE_LOOP('',(#366,#367,#368,#369));
#66=EDGE_LOOP('',(#370,#371,#372,#373));
#67=EDGE_LOOP('',(#374,#375,#376,#377,#378,#379,#380,#381));
#68=EDGE_LOOP('',(#382,#383,#384,#385));
#69=EDGE_LOOP('',(#386,#387,#388,#389));
#70=EDGE_LOOP('',(#390,#391,#392,#393));
#71=EDGE_LOOP('',(#394,#395,#396,#397));
#72=EDGE_LOOP('',(#398,#399,#400,#401,#402,#403,#404,#405));
#73=EDGE_LOOP('',(#406,#407,#408,#409));
#74=EDGE_LOOP('',(#410,#411,#412,#413));
#75=EDGE_LOOP('',(#414,#415,#416,#417));
#76=EDGE_LOOP('',(#418));
#77=EDGE_LOOP('',(#419,#420,#421,#422));
#78=EDGE_LOOP('',(#423,#424,#425,#426));
#79=EDGE_LOOP('',(#427,#428,#429,#430));
#80=EDGE_LOOP('',(#431,#432,#433,#434));
#81=EDGE_LOOP('',(#435,#436,#437,#438));
#82=EDGE_LOOP('',(#439,#440,#441,#442));
#83=EDGE_LOOP('',(#443,#444,#445,#446,#447,#448,#449,#450));
#84=EDGE_LOOP('',(#451,#452,#453,#454));
#85=EDGE_LOOP('',(#455,#456,#457,#458,#459,#460,#461,#462));
#86=EDGE_LOOP('',(#463,#464,#465,#466));
#87=EDGE_LOOP('',(#467,#468,#469,#470));
#88=EDGE_LOOP('',(#471));
#89=EDGE_LOOP('',(#472,#473,#474));
#90=EDGE_LOOP('',(#475,#476,#477,#478));
#91=EDGE_LOOP('',(#479,#480,#481,#482));
#92=EDGE_LOOP('',(#483,#484,#485,#486));
#93=EDGE_LOOP('',(#487,#488,#489));
#94=LINE('',#742,#160);
#95=LINE('',#744,#161);
#96=LINE('',#746,#162);
#97=LINE('',#747,#163);
#98=LINE('',#753,#164);
#99=LINE('',#756,#165);
#100=LINE('',#758,#166);
#101=LINE('',#759,#167);
#102=LINE('',#766,#168);
#103=LINE('',#768,#169);
#104=LINE('',#770,#170);
#105=LINE('',#771,#171);
#106=LINE('',#775,#172);
#107=LINE('',#777,#173);
#108=LINE('',#779,#174);
#109=LINE('',#780,#175);
#110=LINE('',#782,#176);
#111=LINE('',#783,#177);
#112=LINE('',#787,#178);
#113=LINE('',#788,#179);
#114=LINE('',#790,#180);
#115=LINE('',#792,#181);
#116=LINE('',#793,#182);
#117=LINE('',#796,#183);
#118=LINE('',#798,#184);
#119=LINE('',#799,#185);
#120=LINE('',#802,#186);
#121=LINE('',#803,#187);
#122=LINE('',#806,#188);
#123=LINE('',#807,#189);
#124=LINE('',#809,#190);
#125=LINE('',#810,#191);
#126=LINE('',#816,#192);
#127=LINE('',#822,#193);
#128=LINE('',#824,#194);
#129=LINE('',#826,#195);
#130=LINE('',#827,#196);
#131=LINE('',#831,#197);
#132=LINE('',#833,#198);
#133=LINE('',#835,#199);
#134=LINE('',#836,#200);
#135=LINE('',#838,#201);
#136=LINE('',#839,#202);
#137=LINE('',#842,#203);
#138=LINE('',#844,#204);
#139=LINE('',#845,#205);
#140=LINE('',#848,#206);
#141=LINE('',#850,#207);
#142=LINE('',#851,#208);
#143=LINE('',#854,#209);
#144=LINE('',#856,#210);
#145=LINE('',#857,#211);
#146=LINE('',#860,#212);
#147=LINE('',#861,#213);
#148=LINE('',#864,#214);
#149=LINE('',#865,#215);
#150=LINE('',#867,#216);
#151=LINE('',#872,#217);
#152=LINE('',#874,#218);
#153=LINE('',#875,#219);
#154=LINE('',#878,#220);
#155=LINE('',#880,#221);
#156=LINE('',#881,#222);
#157=LINE('',#884,#223);
#158=LINE('',#885,#224);
#159=LINE('',#887,#225);
#160=VECTOR('',#602,10.);
#161=VECTOR('',#603,10.);
#162=VECTOR('',#604,10.);
#163=VECTOR('',#605,10.);
#164=VECTOR('',#612,10.);
#165=VECTOR('',#615,10.);
#166=VECTOR('',#616,10.);
#167=VECTOR('',#617,10.);
#168=VECTOR('',#626,10.);
#169=VECTOR('',#627,10.);
#170=VECTOR('',#628,10.);
#171=VECTOR('',#629,10.);
#172=VECTOR('',#632,10.);
#173=VECTOR('',#633,10.);
#174=VECTOR('',#634,10.);
#175=VECTOR('',#635,10.);
#176=VECTOR('',#638,10.);
#177=VECTOR('',#639,10.);
#178=VECTOR('',#642,10.);
#179=VECTOR('',#643,10.);
#180=VECTOR('',#644,10.);
#181=VECTOR('',#645,10.);
#182=VECTOR('',#646,10.);
#183=VECTOR('',#649,10.);
#184=VECTOR('',#650,10.);
#185=VECTOR('',#651,10.);
#186=VECTOR('',#654,10.);
#187=VECTOR('',#655,10.);
#188=VECTOR('',#658,10.);
#189=VECTOR('',#659,10.);
#190=VECTOR('',#662,10.);
#191=VECTOR('',#663,10.);
#192=VECTOR('',#670,3.3);
#193=VECTOR('',#677,10.);
#194=VECTOR('',#678,10.);
#195=VECTOR('',#679,10.);
#196=VECTOR('',#680,10.);
#197=VECTOR('',#683,10.);
#198=VECTOR('',#684,10.);
#199=VECTOR('',#685,10.);
#200=VECTOR('',#686,10.);
#201=VECTOR('',#689,10.);
#202=VECTOR('',#690,10.);
#203=VECTOR('',#693,10.);
#204=VECTOR('',#694,10.);
#205=VECTOR('',#695,10.);
#206=VECTOR('',#698,10.);
#207=VECTOR('',#699,10.);
#208=VECTOR('',#700,10.);
#209=VECTOR('',#703,10.);
#210=VECTOR('',#704,10.);
#211=VECTOR('',#705,10.);
#212=VECTOR('',#708,10.);
#213=VECTOR('',#709,10.);
#214=VECTOR('',#712,10.);
#215=VECTOR('',#713,10.);
#216=VECTOR('',#716,10.);
#217=VECTOR('',#721,10.);
#218=VECTOR('',#722,10.);
#219=VECTOR('',#723,10.);
#220=VECTOR('',#726,10.);
#221=VECTOR('',#727,10.);
#222=VECTOR('',#728,10.);
#223=VECTOR('',#731,10.);
#224=VECTOR('',#732,10.);
#225=VECTOR('',#735,10.);
#226=VERTEX_POINT('',#740);
#227=VERTEX_POINT('',#741);
#228=VERTEX_POINT('',#743);
#229=VERTEX_POINT('',#745);
#230=VERTEX_POINT('',#749);
#231=VERTEX_POINT('',#751);
#232=VERTEX_POINT('',#755);
#233=VERTEX_POINT('',#757);
#234=VERTEX_POINT('',#764);
#235=VERTEX_POINT('',#765);
#236=VERTEX_POINT('',#767);
#237=VERTEX_POINT('',#769);
#238=VERTEX_POINT('',#773);
#239=VERTEX_POINT('',#774);
#240=VERTEX_POINT('',#776);
#241=VERTEX_POINT('',#778);
#242=VERTEX_POINT('',#785);
#243=VERTEX_POINT('',#786);
#244=VERTEX_POINT('',#789);
#245=VERTEX_POINT('',#791);
#246=VERTEX_POINT('',#795);
#247=VERTEX_POINT('',#797);
#248=VERTEX_POINT('',#801);
#249=VERTEX_POINT('',#805);
#250=VERTEX_POINT('',#813);
#251=VERTEX_POINT('',#815);
#252=VERTEX_POINT('',#820);
#253=VERTEX_POINT('',#821);
#254=VERTEX_POINT('',#823);
#255=VERTEX_POINT('',#825);
#256=VERTEX_POINT('',#829);
#257=VERTEX_POINT('',#830);
#258=VERTEX_POINT('',#832);
#259=VERTEX_POINT('',#834);
#260=VERTEX_POINT('',#841);
#261=VERTEX_POINT('',#843);
#262=VERTEX_POINT('',#847);
#263=VERTEX_POINT('',#849);
#264=VERTEX_POINT('',#853);
#265=VERTEX_POINT('',#855);
#266=VERTEX_POINT('',#859);
#267=VERTEX_POINT('',#863);
#268=VERTEX_POINT('',#870);
#269=VERTEX_POINT('',#871);
#270=VERTEX_POINT('',#873);
#271=VERTEX_POINT('',#877);
#272=VERTEX_POINT('',#879);
#273=VERTEX_POINT('',#883);
#274=EDGE_CURVE('',#226,#227,#94,.T.);
#275=EDGE_CURVE('',#226,#228,#95,.T.);
#276=EDGE_CURVE('',#229,#228,#96,.T.);
#277=EDGE_CURVE('',#227,#229,#97,.T.);
#278=EDGE_CURVE('',#227,#230,#21,.T.);
#279=EDGE_CURVE('',#231,#229,#22,.T.);
#280=EDGE_CURVE('',#230,#231,#98,.T.);
#281=EDGE_CURVE('',#230,#232,#99,.T.);
#282=EDGE_CURVE('',#233,#231,#100,.T.);
#283=EDGE_CURVE('',#232,#233,#101,.T.);
#284=EDGE_CURVE('',#232,#226,#23,.T.);
#285=EDGE_CURVE('',#228,#233,#24,.T.);
#286=EDGE_CURVE('',#234,#235,#102,.T.);
#287=EDGE_CURVE('',#235,#236,#103,.T.);
#288=EDGE_CURVE('',#237,#236,#104,.T.);
#289=EDGE_CURVE('',#234,#237,#105,.T.);
#290=EDGE_CURVE('',#238,#239,#106,.T.);
#291=EDGE_CURVE('',#239,#240,#107,.T.);
#292=EDGE_CURVE('',#241,#240,#108,.T.);
#293=EDGE_CURVE('',#238,#241,#109,.T.);
#294=EDGE_CURVE('',#235,#238,#110,.T.);
#295=EDGE_CURVE('',#236,#241,#111,.T.);
#296=EDGE_CURVE('',#242,#243,#112,.T.);
#297=EDGE_CURVE('',#242,#237,#113,.T.);
#298=EDGE_CURVE('',#240,#244,#114,.T.);
#299=EDGE_CURVE('',#245,#244,#115,.T.);
#300=EDGE_CURVE('',#243,#245,#116,.T.);
#301=EDGE_CURVE('',#246,#245,#117,.T.);
#302=EDGE_CURVE('',#247,#246,#118,.T.);
#303=EDGE_CURVE('',#247,#243,#119,.T.);
#304=EDGE_CURVE('',#248,#244,#120,.T.);
#305=EDGE_CURVE('',#246,#248,#121,.T.);
#306=EDGE_CURVE('',#249,#247,#122,.T.);
#307=EDGE_CURVE('',#249,#242,#123,.T.);
#308=EDGE_CURVE('',#248,#249,#124,.T.);
#309=EDGE_CURVE('',#239,#234,#125,.T.);
#310=EDGE_CURVE('',#250,#250,#25,.T.);
#311=EDGE_CURVE('',#250,#251,#126,.T.);
#312=EDGE_CURVE('',#251,#251,#26,.T.);
#313=EDGE_CURVE('',#252,#253,#127,.T.);
#314=EDGE_CURVE('',#252,#254,#128,.T.);
#315=EDGE_CURVE('',#255,#254,#129,.T.);
#316=EDGE_CURVE('',#253,#255,#130,.T.);
#317=EDGE_CURVE('',#256,#257,#131,.T.);
#318=EDGE_CURVE('',#256,#258,#132,.T.);
#319=EDGE_CURVE('',#259,#258,#133,.T.);
#320=EDGE_CURVE('',#257,#259,#134,.T.);
#321=EDGE_CURVE('',#254,#259,#135,.T.);
#322=EDGE_CURVE('',#258,#255,#136,.T.);
#323=EDGE_CURVE('',#260,#253,#137,.T.);
#324=EDGE_CURVE('',#261,#260,#138,.T.);
#325=EDGE_CURVE('',#252,#261,#139,.T.);
#326=EDGE_CURVE('',#262,#257,#140,.T.);
#327=EDGE_CURVE('',#263,#262,#141,.T.);
#328=EDGE_CURVE('',#256,#263,#142,.T.);
#329=EDGE_CURVE('',#262,#264,#143,.T.);
#330=EDGE_CURVE('',#265,#264,#144,.T.);
#331=EDGE_CURVE('',#263,#265,#145,.T.);
#332=EDGE_CURVE('',#266,#265,#146,.T.);
#333=EDGE_CURVE('',#260,#266,#147,.T.);
#334=EDGE_CURVE('',#267,#266,#148,.T.);
#335=EDGE_CURVE('',#261,#267,#149,.T.);
#336=EDGE_CURVE('',#264,#267,#150,.T.);
#337=EDGE_CURVE('',#268,#269,#151,.T.);
#338=EDGE_CURVE('',#269,#270,#152,.T.);
#339=EDGE_CURVE('',#270,#268,#153,.T.);
#340=EDGE_CURVE('',#271,#269,#154,.T.);
#341=EDGE_CURVE('',#272,#271,#155,.T.);
#342=EDGE_CURVE('',#270,#272,#156,.T.);
#343=EDGE_CURVE('',#273,#272,#157,.T.);
#344=EDGE_CURVE('',#268,#273,#158,.T.);
#345=EDGE_CURVE('',#271,#273,#159,.T.);
#346=ORIENTED_EDGE('',*,*,#274,.F.);
#347=ORIENTED_EDGE('',*,*,#275,.T.);
#348=ORIENTED_EDGE('',*,*,#276,.F.);
#349=ORIENTED_EDGE('',*,*,#277,.F.);
#350=ORIENTED_EDGE('',*,*,#278,.F.);
#351=ORIENTED_EDGE('',*,*,#277,.T.);
#352=ORIENTED_EDGE('',*,*,#279,.F.);
#353=ORIENTED_EDGE('',*,*,#280,.F.);
#354=ORIENTED_EDGE('',*,*,#281,.F.);
#355=ORIENTED_EDGE('',*,*,#280,.T.);
#356=ORIENTED_EDGE('',*,*,#282,.F.);
#357=ORIENTED_EDGE('',*,*,#283,.F.);
#358=ORIENTED_EDGE('',*,*,#284,.F.);
#359=ORIENTED_EDGE('',*,*,#283,.T.);
#360=ORIENTED_EDGE('',*,*,#285,.F.);
#361=ORIENTED_EDGE('',*,*,#275,.F.);
#362=ORIENTED_EDGE('',*,*,#286,.T.);
#363=ORIENTED_EDGE('',*,*,#287,.T.);
#364=ORIENTED_EDGE('',*,*,#288,.F.);
#365=ORIENTED_EDGE('',*,*,#289,.F.);
#366=ORIENTED_EDGE('',*,*,#290,.T.);
#367=ORIENTED_EDGE('',*,*,#291,.T.);
#368=ORIENTED_EDGE('',*,*,#292,.F.);
#369=ORIENTED_EDGE('',*,*,#293,.F.);
#370=ORIENTED_EDGE('',*,*,#294,.T.);
#371=ORIENTED_EDGE('',*,*,#293,.T.);
#372=ORIENTED_EDGE('',*,*,#295,.F.);
#373=ORIENTED_EDGE('',*,*,#287,.F.);
#374=ORIENTED_EDGE('',*,*,#296,.F.);
#375=ORIENTED_EDGE('',*,*,#297,.T.);
#376=ORIENTED_EDGE('',*,*,#288,.T.);
#377=ORIENTED_EDGE('',*,*,#295,.T.);
#378=ORIENTED_EDGE('',*,*,#292,.T.);
#379=ORIENTED_EDGE('',*,*,#298,.T.);
#380=ORIENTED_EDGE('',*,*,#299,.F.);
#381=ORIENTED_EDGE('',*,*,#300,.F.);
#382=ORIENTED_EDGE('',*,*,#285,.T.);
#383=ORIENTED_EDGE('',*,*,#282,.T.);
#384=ORIENTED_EDGE('',*,*,#279,.T.);
#385=ORIENTED_EDGE('',*,*,#276,.T.);
#386=ORIENTED_EDGE('',*,*,#300,.T.);
#387=ORIENTED_EDGE('',*,*,#301,.F.);
#388=ORIENTED_EDGE('',*,*,#302,.F.);
#389=ORIENTED_EDGE('',*,*,#303,.T.);
#390=ORIENTED_EDGE('',*,*,#299,.T.);
#391=ORIENTED_EDGE('',*,*,#304,.F.);
#392=ORIENTED_EDGE('',*,*,#305,.F.);
#393=ORIENTED_EDGE('',*,*,#301,.T.);
#394=ORIENTED_EDGE('',*,*,#296,.T.);
#395=ORIENTED_EDGE('',*,*,#303,.F.);
#396=ORIENTED_EDGE('',*,*,#306,.F.);
#397=ORIENTED_EDGE('',*,*,#307,.T.);
#398=ORIENTED_EDGE('',*,*,#307,.F.);
#399=ORIENTED_EDGE('',*,*,#308,.F.);
#400=ORIENTED_EDGE('',*,*,#304,.T.);
#401=ORIENTED_EDGE('',*,*,#298,.F.);
#402=ORIENTED_EDGE('',*,*,#291,.F.);
#403=ORIENTED_EDGE('',*,*,#309,.T.);
#404=ORIENTED_EDGE('',*,*,#289,.T.);
#405=ORIENTED_EDGE('',*,*,#297,.F.);
#406=ORIENTED_EDGE('',*,*,#309,.F.);
#407=ORIENTED_EDGE('',*,*,#290,.F.);
#408=ORIENTED_EDGE('',*,*,#294,.F.);
#409=ORIENTED_EDGE('',*,*,#286,.F.);
#410=ORIENTED_EDGE('',*,*,#284,.T.);
#411=ORIENTED_EDGE('',*,*,#274,.T.);
#412=ORIENTED_EDGE('',*,*,#278,.T.);
#413=ORIENTED_EDGE('',*,*,#281,.T.);
#414=ORIENTED_EDGE('',*,*,#310,.F.);
#415=ORIENTED_EDGE('',*,*,#311,.T.);
#416=ORIENTED_EDGE('',*,*,#312,.F.);
#417=ORIENTED_EDGE('',*,*,#311,.F.);
#418=ORIENTED_EDGE('',*,*,#310,.T.);
#419=ORIENTED_EDGE('',*,*,#313,.F.);
#420=ORIENTED_EDGE('',*,*,#314,.T.);
#421=ORIENTED_EDGE('',*,*,#315,.F.);
#422=ORIENTED_EDGE('',*,*,#316,.F.);
#423=ORIENTED_EDGE('',*,*,#317,.F.);
#424=ORIENTED_EDGE('',*,*,#318,.T.);
#425=ORIENTED_EDGE('',*,*,#319,.F.);
#426=ORIENTED_EDGE('',*,*,#320,.F.);
#427=ORIENTED_EDGE('',*,*,#321,.T.);
#428=ORIENTED_EDGE('',*,*,#319,.T.);
#429=ORIENTED_EDGE('',*,*,#322,.T.);
#430=ORIENTED_EDGE('',*,*,#315,.T.);
#431=ORIENTED_EDGE('',*,*,#313,.T.);
#432=ORIENTED_EDGE('',*,*,#323,.F.);
#433=ORIENTED_EDGE('',*,*,#324,.F.);
#434=ORIENTED_EDGE('',*,*,#325,.F.);
#435=ORIENTED_EDGE('',*,*,#317,.T.);
#436=ORIENTED_EDGE('',*,*,#326,.F.);
#437=ORIENTED_EDGE('',*,*,#327,.F.);
#438=ORIENTED_EDGE('',*,*,#328,.F.);
#439=ORIENTED_EDGE('',*,*,#327,.T.);
#440=ORIENTED_EDGE('',*,*,#329,.T.);
#441=ORIENTED_EDGE('',*,*,#330,.F.);
#442=ORIENTED_EDGE('',*,*,#331,.F.);
#443=ORIENTED_EDGE('',*,*,#323,.T.);
#444=ORIENTED_EDGE('',*,*,#316,.T.);
#445=ORIENTED_EDGE('',*,*,#322,.F.);
#446=ORIENTED_EDGE('',*,*,#318,.F.);
#447=ORIENTED_EDGE('',*,*,#328,.T.);
#448=ORIENTED_EDGE('',*,*,#331,.T.);
#449=ORIENTED_EDGE('',*,*,#332,.F.);
#450=ORIENTED_EDGE('',*,*,#333,.F.);
#451=ORIENTED_EDGE('',*,*,#324,.T.);
#452=ORIENTED_EDGE('',*,*,#333,.T.);
#453=ORIENTED_EDGE('',*,*,#334,.F.);
#454=ORIENTED_EDGE('',*,*,#335,.F.);
#455=ORIENTED_EDGE('',*,*,#326,.T.);
#456=ORIENTED_EDGE('',*,*,#320,.T.);
#457=ORIENTED_EDGE('',*,*,#321,.F.);
#458=ORIENTED_EDGE('',*,*,#314,.F.);
#459=ORIENTED_EDGE('',*,*,#325,.T.);
#460=ORIENTED_EDGE('',*,*,#335,.T.);
#461=ORIENTED_EDGE('',*,*,#336,.F.);
#462=ORIENTED_EDGE('',*,*,#329,.F.);
#463=ORIENTED_EDGE('',*,*,#336,.T.);
#464=ORIENTED_EDGE('',*,*,#334,.T.);
#465=ORIENTED_EDGE('',*,*,#332,.T.);
#466=ORIENTED_EDGE('',*,*,#330,.T.);
#467=ORIENTED_EDGE('',*,*,#308,.T.);
#468=ORIENTED_EDGE('',*,*,#306,.T.);
#469=ORIENTED_EDGE('',*,*,#302,.T.);
#470=ORIENTED_EDGE('',*,*,#305,.T.);
#471=ORIENTED_EDGE('',*,*,#312,.T.);
#472=ORIENTED_EDGE('',*,*,#337,.T.);
#473=ORIENTED_EDGE('',*,*,#338,.T.);
#474=ORIENTED_EDGE('',*,*,#339,.T.);
#475=ORIENTED_EDGE('',*,*,#340,.F.);
#476=ORIENTED_EDGE('',*,*,#341,.F.);
#477=ORIENTED_EDGE('',*,*,#342,.F.);
#478=ORIENTED_EDGE('',*,*,#338,.F.);
#479=ORIENTED_EDGE('',*,*,#342,.T.);
#480=ORIENTED_EDGE('',*,*,#343,.F.);
#481=ORIENTED_EDGE('',*,*,#344,.F.);
#482=ORIENTED_EDGE('',*,*,#339,.F.);
#483=ORIENTED_EDGE('',*,*,#344,.T.);
#484=ORIENTED_EDGE('',*,*,#345,.F.);
#485=ORIENTED_EDGE('',*,*,#340,.T.);
#486=ORIENTED_EDGE('',*,*,#337,.F.);
#487=ORIENTED_EDGE('',*,*,#345,.T.);
#488=ORIENTED_EDGE('',*,*,#343,.T.);
#489=ORIENTED_EDGE('',*,*,#341,.T.);
#490=PLANE('',#562);
#491=PLANE('',#566);
#492=PLANE('',#570);
#493=PLANE('',#571);
#494=PLANE('',#572);
#495=PLANE('',#573);
#496=PLANE('',#574);
#497=PLANE('',#575);
#498=PLANE('',#576);
#499=PLANE('',#577);
#500=PLANE('',#578);
#501=PLANE('',#582);
#502=PLANE('',#583);
#503=PLANE('',#584);
#504=PLANE('',#585);
#505=PLANE('',#586);
#506=PLANE('',#587);
#507=PLANE('',#588);
#508=PLANE('',#589);
#509=PLANE('',#590);
#510=PLANE('',#591);
#511=PLANE('',#592);
#512=PLANE('',#593);
#513=PLANE('',#594);
#514=PLANE('',#595);
#515=PLANE('',#596);
#516=PLANE('',#597);
#517=ADVANCED_FACE('',(#30),#490,.T.);
#518=ADVANCED_FACE('',(#31),#27,.F.);
#519=ADVANCED_FACE('',(#32),#491,.T.);
#520=ADVANCED_FACE('',(#33),#28,.F.);
#521=ADVANCED_FACE('',(#34),#492,.T.);
#522=ADVANCED_FACE('',(#35),#493,.T.);
#523=ADVANCED_FACE('',(#36),#494,.T.);
#524=ADVANCED_FACE('',(#37,#17),#495,.F.);
#525=ADVANCED_FACE('',(#38),#496,.T.);
#526=ADVANCED_FACE('',(#39),#497,.T.);
#527=ADVANCED_FACE('',(#40),#498,.T.);
#528=ADVANCED_FACE('',(#41),#499,.T.);
#529=ADVANCED_FACE('',(#42,#18),#500,.T.);
#530=ADVANCED_FACE('',(#43),#29,.F.);
#531=ADVANCED_FACE('',(#44),#501,.T.);
#532=ADVANCED_FACE('',(#45),#502,.T.);
#533=ADVANCED_FACE('',(#46),#503,.T.);
#534=ADVANCED_FACE('',(#47),#504,.T.);
#535=ADVANCED_FACE('',(#48),#505,.F.);
#536=ADVANCED_FACE('',(#49),#506,.F.);
#537=ADVANCED_FACE('',(#50),#507,.T.);
#538=ADVANCED_FACE('',(#51),#508,.T.);
#539=ADVANCED_FACE('',(#52),#509,.T.);
#540=ADVANCED_FACE('',(#53),#510,.T.);
#541=ADVANCED_FACE('',(#54,#19,#20),#511,.T.);
#542=ADVANCED_FACE('',(#55),#512,.T.);
#543=ADVANCED_FACE('',(#56),#513,.T.);
#544=ADVANCED_FACE('',(#57),#514,.T.);
#545=ADVANCED_FACE('',(#58),#515,.T.);
#546=ADVANCED_FACE('',(#59),#516,.T.);
#547=CLOSED_SHELL('',(#517,#518,#519,#520,#521,#522,#523,#524,#525,#526,
#527,#528,#529,#530,#531,#532,#533,#534,#535,#536,#537,#538,#539,#540,#541));
#548=CLOSED_SHELL('',(#542,#543,#544,#545,#546));
#549=DERIVED_UNIT_ELEMENT(#551,1.);
#550=DERIVED_UNIT_ELEMENT(#894,-3.);
#551=(
MASS_UNIT()
NAMED_UNIT(*)
SI_UNIT(.KILO.,.GRAM.)
);
#552=DERIVED_UNIT((#549,#550));
#553=MEASURE_REPRESENTATION_ITEM('density measure',
POSITIVE_RATIO_MEASURE(7850.),#552);
#554=PROPERTY_DEFINITION_REPRESENTATION(#559,#556);
#555=PROPERTY_DEFINITION_REPRESENTATION(#560,#557);
#556=REPRESENTATION('material name',(#558),#891);
#557=REPRESENTATION('density',(#553),#891);
#558=DESCRIPTIVE_REPRESENTATION_ITEM('A\X\E7o','A\X\E7o');
#559=PROPERTY_DEFINITION('material property','material name',#901);
#560=PROPERTY_DEFINITION('material property','density of part',#901);
#561=AXIS2_PLACEMENT_3D('',#738,#598,#599);
#562=AXIS2_PLACEMENT_3D('',#739,#600,#601);
#563=AXIS2_PLACEMENT_3D('',#748,#606,#607);
#564=AXIS2_PLACEMENT_3D('',#750,#608,#609);
#565=AXIS2_PLACEMENT_3D('',#752,#610,#611);
#566=AXIS2_PLACEMENT_3D('',#754,#613,#614);
#567=AXIS2_PLACEMENT_3D('',#760,#618,#619);
#568=AXIS2_PLACEMENT_3D('',#761,#620,#621);
#569=AXIS2_PLACEMENT_3D('',#762,#622,#623);
#570=AXIS2_PLACEMENT_3D('',#763,#624,#625);
#571=AXIS2_PLACEMENT_3D('',#772,#630,#631);
#572=AXIS2_PLACEMENT_3D('',#781,#636,#637);
#573=AXIS2_PLACEMENT_3D('',#784,#640,#641);
#574=AXIS2_PLACEMENT_3D('',#794,#647,#648);
#575=AXIS2_PLACEMENT_3D('',#800,#652,#653);
#576=AXIS2_PLACEMENT_3D('',#804,#656,#657);
#577=AXIS2_PLACEMENT_3D('',#808,#660,#661);
#578=AXIS2_PLACEMENT_3D('',#811,#664,#665);
#579=AXIS2_PLACEMENT_3D('',#812,#666,#667);
#580=AXIS2_PLACEMENT_3D('',#814,#668,#669);
#581=AXIS2_PLACEMENT_3D('',#817,#671,#672);
#582=AXIS2_PLACEMENT_3D('',#818,#673,#674);
#583=AXIS2_PLACEMENT_3D('',#819,#675,#676);
#584=AXIS2_PLACEMENT_3D('',#828,#681,#682);
#585=AXIS2_PLACEMENT_3D('',#837,#687,#688);
#586=AXIS2_PLACEMENT_3D('',#840,#691,#692);
#587=AXIS2_PLACEMENT_3D('',#846,#696,#697);
#588=AXIS2_PLACEMENT_3D('',#852,#701,#702);
#589=AXIS2_PLACEMENT_3D('',#858,#706,#707);
#590=AXIS2_PLACEMENT_3D('',#862,#710,#711);
#591=AXIS2_PLACEMENT_3D('',#866,#714,#715);
#592=AXIS2_PLACEMENT_3D('',#868,#717,#718);
#593=AXIS2_PLACEMENT_3D('',#869,#719,#720);
#594=AXIS2_PLACEMENT_3D('',#876,#724,#725);
#595=AXIS2_PLACEMENT_3D('',#882,#729,#730);
#596=AXIS2_PLACEMENT_3D('',#886,#733,#734);
#597=AXIS2_PLACEMENT_3D('',#888,#736,#737);
#598=DIRECTION('axis',(0.,0.,1.));
#599=DIRECTION('refdir',(1.,0.,0.));
#600=DIRECTION('center_axis',(-1.,0.,0.));
#601=DIRECTION('ref_axis',(0.,1.,0.));
#602=DIRECTION('',(0.,-1.,0.));
#603=DIRECTION('',(0.,0.,-1.));
#604=DIRECTION('',(0.,1.,0.));
#605=DIRECTION('',(0.,0.,-1.));
#606=DIRECTION('center_axis',(0.,0.,-1.));
#607=DIRECTION('ref_axis',(1.,0.,0.));
#608=DIRECTION('center_axis',(0.,0.,-1.));
#609=DIRECTION('ref_axis',(1.,0.,0.));
#610=DIRECTION('center_axis',(0.,0.,1.));
#611=DIRECTION('ref_axis',(1.,0.,0.));
#612=DIRECTION('',(0.,0.,-1.));
#613=DIRECTION('center_axis',(1.,0.,0.));
#614=DIRECTION('ref_axis',(0.,-1.,0.));
#615=DIRECTION('',(0.,1.,0.));
#616=DIRECTION('',(0.,-1.,0.));
#617=DIRECTION('',(0.,0.,-1.));
#618=DIRECTION('center_axis',(0.,0.,-1.));
#619=DIRECTION('ref_axis',(1.,0.,0.));
#620=DIRECTION('center_axis',(0.,0.,-1.));
#621=DIRECTION('ref_axis',(1.,0.,0.));
#622=DIRECTION('center_axis',(0.,0.,1.));
#623=DIRECTION('ref_axis',(1.,0.,0.));
#624=DIRECTION('center_axis',(1.,0.,0.));
#625=DIRECTION('ref_axis',(0.,-1.,0.));
#626=DIRECTION('',(0.,-1.,0.));
#627=DIRECTION('',(0.,0.,-1.));
#628=DIRECTION('',(0.,-1.,0.));
#629=DIRECTION('',(0.,0.,-1.));
#630=DIRECTION('center_axis',(-1.,0.,0.));
#631=DIRECTION('ref_axis',(0.,1.,0.));
#632=DIRECTION('',(0.,1.,0.));
#633=DIRECTION('',(0.,0.,-1.));
#634=DIRECTION('',(0.,1.,0.));
#635=DIRECTION('',(0.,0.,-1.));
#636=DIRECTION('center_axis',(0.,-1.,0.));
#637=DIRECTION('ref_axis',(-1.,0.,0.));
#638=DIRECTION('',(-1.,0.,0.));
#639=DIRECTION('',(-1.,0.,0.));
#640=DIRECTION('center_axis',(0.,0.,1.));
#641=DIRECTION('ref_axis',(1.,0.,0.));
#642=DIRECTION('',(0.,-1.,0.));
#643=DIRECTION('',(1.,0.,0.));
#644=DIRECTION('',(1.,0.,0.));
#645=DIRECTION('',(0.,1.,0.));
#646=DIRECTION('',(-1.,0.,0.));
#647=DIRECTION('center_axis',(0.,-1.,0.));
#648=DIRECTION('ref_axis',(1.,0.,0.));
#649=DIRECTION('',(0.,0.,1.));
#650=DIRECTION('',(-1.,0.,0.));
#651=DIRECTION('',(0.,0.,1.));
#652=DIRECTION('center_axis',(-1.,0.,0.));
#653=DIRECTION('ref_axis',(0.,-1.,0.));
#654=DIRECTION('',(0.,0.,1.));
#655=DIRECTION('',(0.,1.,0.));
#656=DIRECTION('center_axis',(1.,0.,0.));
#657=DIRECTION('ref_axis',(0.,1.,0.));
#658=DIRECTION('',(0.,-1.,0.));
#659=DIRECTION('',(0.,0.,1.));
#660=DIRECTION('center_axis',(0.,1.,0.));
#661=DIRECTION('ref_axis',(-1.,0.,0.));
#662=DIRECTION('',(1.,0.,0.));
#663=DIRECTION('',(1.,0.,0.));
#664=DIRECTION('center_axis',(0.,0.,1.));
#665=DIRECTION('ref_axis',(1.,0.,0.));
#666=DIRECTION('center_axis',(0.,0.,1.));
#667=DIRECTION('ref_axis',(1.,0.,0.));
#668=DIRECTION('center_axis',(0.,0.,1.));
#669=DIRECTION('ref_axis',(1.,0.,0.));
#670=DIRECTION('',(0.,0.,1.));
#671=DIRECTION('center_axis',(0.,0.,-1.));
#672=DIRECTION('ref_axis',(1.,0.,0.));
#673=DIRECTION('center_axis',(0.,0.,1.));
#674=DIRECTION('ref_axis',(1.,0.,0.));
#675=DIRECTION('center_axis',(0.,-1.,0.));
#676=DIRECTION('ref_axis',(-1.,0.,0.));
#677=DIRECTION('',(1.,0.,0.));
#678=DIRECTION('',(0.,0.,-1.));
#679=DIRECTION('',(-1.,0.,0.));
#680=DIRECTION('',(0.,0.,-1.));
#681=DIRECTION('center_axis',(0.,1.,0.));
#682=DIRECTION('ref_axis',(1.,0.,0.));
#683=DIRECTION('',(-1.,0.,0.));
#684=DIRECTION('',(0.,0.,-1.));
#685=DIRECTION('',(1.,0.,0.));
#686=DIRECTION('',(0.,0.,-1.));
#687=DIRECTION('center_axis',(0.,0.,-1.));
#688=DIRECTION('ref_axis',(-1.,0.,0.));
#689=DIRECTION('',(0.,1.,0.));
#690=DIRECTION('',(0.,-1.,0.));
#691=DIRECTION('center_axis',(0.,0.,1.));
#692=DIRECTION('ref_axis',(1.,0.,0.));
#693=DIRECTION('',(0.,1.,0.));
#694=DIRECTION('',(1.,0.,0.));
#695=DIRECTION('',(0.,-1.,0.));
#696=DIRECTION('center_axis',(0.,0.,1.));
#697=DIRECTION('ref_axis',(1.,0.,0.));
#698=DIRECTION('',(0.,-1.,0.));
#699=DIRECTION('',(-1.,0.,0.));
#700=DIRECTION('',(0.,1.,0.));
#701=DIRECTION('center_axis',(0.,1.,0.));
#702=DIRECTION('ref_axis',(-1.,0.,0.));
#703=DIRECTION('',(0.,0.,1.));
#704=DIRECTION('',(-1.,0.,0.));
#705=DIRECTION('',(0.,0.,1.));
#706=DIRECTION('center_axis',(1.,0.,0.));
#707=DIRECTION('ref_axis',(0.,1.,0.));
#708=DIRECTION('',(0.,1.,0.));
#709=DIRECTION('',(0.,0.,1.));
#710=DIRECTION('center_axis',(0.,-1.,0.));
#711=DIRECTION('ref_axis',(1.,0.,0.));
#712=DIRECTION('',(1.,0.,0.));
#713=DIRECTION('',(0.,0.,1.));
#714=DIRECTION('center_axis',(-1.,0.,0.));
#715=DIRECTION('ref_axis',(0.,-1.,0.));
#716=DIRECTION('',(0.,-1.,0.));
#717=DIRECTION('center_axis',(0.,0.,1.));
#718=DIRECTION('ref_axis',(1.,0.,0.));
#719=DIRECTION('center_axis',(0.,0.,-1.));
#720=DIRECTION('ref_axis',(-1.,0.,0.));
#721=DIRECTION('',(0.,-1.,0.));
#722=DIRECTION('',(-0.787505001007586,0.616308261658111,0.));
#723=DIRECTION('',(1.,0.,0.));
#724=DIRECTION('center_axis',(-0.616308261658111,-0.787505001007586,0.));
#725=DIRECTION('ref_axis',(0.787505001007586,-0.616308261658111,0.));
#726=DIRECTION('',(0.,0.,-1.));
#727=DIRECTION('',(0.787505001007586,-0.616308261658111,0.));
#728=DIRECTION('',(0.,0.,1.));
#729=DIRECTION('center_axis',(0.,1.,0.));
#730=DIRECTION('ref_axis',(-1.,0.,0.));
#731=DIRECTION('',(-1.,0.,0.));
#732=DIRECTION('',(0.,0.,1.));
#733=DIRECTION('center_axis',(1.,0.,0.));
#734=DIRECTION('ref_axis',(0.,1.,0.));
#735=DIRECTION('',(0.,1.,0.));
#736=DIRECTION('center_axis',(0.,0.,1.));
#737=DIRECTION('ref_axis',(1.,0.,0.));
#738=CARTESIAN_POINT('',(0.,0.,0.));
#739=CARTESIAN_POINT('Origin',(1.75,-16.,65.));
#740=CARTESIAN_POINT('',(1.75,-4.,65.));
#741=CARTESIAN_POINT('',(1.75,-16.,65.));
#742=CARTESIAN_POINT('',(1.75,-4.,65.));
#743=CARTESIAN_POINT('',(1.75,-4.,58.));
#744=CARTESIAN_POINT('',(1.75,-4.,65.));
#745=CARTESIAN_POINT('',(1.75,-16.,58.));
#746=CARTESIAN_POINT('',(1.75,-4.,58.));
#747=CARTESIAN_POINT('',(1.75,-16.,65.));
#748=CARTESIAN_POINT('Origin',(0.,-16.,65.));
#749=CARTESIAN_POINT('',(-1.75,-16.,65.));
#750=CARTESIAN_POINT('Origin',(0.,-16.,65.));
#751=CARTESIAN_POINT('',(-1.75,-16.,58.));
#752=CARTESIAN_POINT('Origin',(0.,-16.,58.));
#753=CARTESIAN_POINT('',(-1.75,-16.,65.));
#754=CARTESIAN_POINT('Origin',(-1.75,-4.,65.));
#755=CARTESIAN_POINT('',(-1.75,-4.,65.));
#756=CARTESIAN_POINT('',(-1.75,-16.,65.));
#757=CARTESIAN_POINT('',(-1.75,-4.,58.));
#758=CARTESIAN_POINT('',(-1.75,-16.,58.));
#759=CARTESIAN_POINT('',(-1.75,-4.,65.));
#760=CARTESIAN_POINT('Origin',(0.,-4.,65.));
#761=CARTESIAN_POINT('Origin',(0.,-4.,65.));
#762=CARTESIAN_POINT('Origin',(0.,-4.,58.));
#763=CARTESIAN_POINT('Origin',(13.,14.,65.));
#764=CARTESIAN_POINT('',(13.,14.,65.));
#765=CARTESIAN_POINT('',(13.,-18.,65.));
#766=CARTESIAN_POINT('',(13.,14.,65.));
#767=CARTESIAN_POINT('',(13.,-18.,58.));
#768=CARTESIAN_POINT('',(13.,-18.,65.));
#769=CARTESIAN_POINT('',(13.,14.,58.));
#770=CARTESIAN_POINT('',(13.,14.,58.));
#771=CARTESIAN_POINT('',(13.,14.,65.));
#772=CARTESIAN_POINT('Origin',(-13.,-18.,65.));
#773=CARTESIAN_POINT('',(-13.,-18.,65.));
#774=CARTESIAN_POINT('',(-13.,14.,65.));
#775=CARTESIAN_POINT('',(-13.,-18.,65.));
#776=CARTESIAN_POINT('',(-13.,14.,58.));
#777=CARTESIAN_POINT('',(-13.,14.,65.));
#778=CARTESIAN_POINT('',(-13.,-18.,58.));
#779=CARTESIAN_POINT('',(-13.,-18.,58.));
#780=CARTESIAN_POINT('',(-13.,-18.,65.));
#781=CARTESIAN_POINT('Origin',(13.,-18.,65.));
#782=CARTESIAN_POINT('',(13.,-18.,65.));
#783=CARTESIAN_POINT('',(13.,-18.,58.));
#784=CARTESIAN_POINT('Origin',(0.,-2.,58.));
#785=CARTESIAN_POINT('',(11.,14.,58.));
#786=CARTESIAN_POINT('',(11.,6.,58.));
#787=CARTESIAN_POINT('',(11.,2.,58.));
#788=CARTESIAN_POINT('',(-13.,14.,58.));
#789=CARTESIAN_POINT('',(-11.,14.,58.));
#790=CARTESIAN_POINT('',(-13.,14.,58.));
#791=CARTESIAN_POINT('',(-11.,6.,58.));
#792=CARTESIAN_POINT('',(-11.,6.,58.));
#793=CARTESIAN_POINT('',(-5.5,6.,58.));
#794=CARTESIAN_POINT('Origin',(-11.,6.,0.));
#795=CARTESIAN_POINT('',(-11.,6.,7.));
#796=CARTESIAN_POINT('',(-11.,6.,0.));
#797=CARTESIAN_POINT('',(11.,6.,7.));
#798=CARTESIAN_POINT('',(-5.5,6.,7.));
#799=CARTESIAN_POINT('',(11.,6.,0.));
#800=CARTESIAN_POINT('Origin',(-11.,14.,0.));
#801=CARTESIAN_POINT('',(-11.,14.,7.));
#802=CARTESIAN_POINT('',(-11.,14.,0.));
#803=CARTESIAN_POINT('',(-11.,7.,7.));
#804=CARTESIAN_POINT('Origin',(11.,6.,0.));
#805=CARTESIAN_POINT('',(11.,14.,7.));
#806=CARTESIAN_POINT('',(11.,3.,7.));
#807=CARTESIAN_POINT('',(11.,14.,0.));
#808=CARTESIAN_POINT('Origin',(11.,14.,0.));
#809=CARTESIAN_POINT('',(5.5,14.,7.));
#810=CARTESIAN_POINT('',(-13.,14.,65.));
#811=CARTESIAN_POINT('Origin',(0.,10.,65.));
#812=CARTESIAN_POINT('Origin',(0.,0.,0.));
#813=CARTESIAN_POINT('',(-3.3,-4.04133443718627E-16,0.));
#814=CARTESIAN_POINT('Origin',(0.,0.,0.));
#815=CARTESIAN_POINT('',(-3.3,4.04133443718627E-16,7.));
#816=CARTESIAN_POINT('',(-3.3,-4.04133443718627E-16,0.));
#817=CARTESIAN_POINT('Origin',(0.,0.,7.));
#818=CARTESIAN_POINT('Origin',(0.,0.,0.));
#819=CARTESIAN_POINT('Origin',(20.,-3.9,0.));
#820=CARTESIAN_POINT('',(-20.,-3.9,0.));
#821=CARTESIAN_POINT('',(20.,-3.9,0.));
#822=CARTESIAN_POINT('',(10.,-3.9,0.));
#823=CARTESIAN_POINT('',(-20.,-3.9,-2.5));
#824=CARTESIAN_POINT('',(-20.,-3.9,0.));
#825=CARTESIAN_POINT('',(20.,-3.9,-2.5));
#826=CARTESIAN_POINT('',(-20.,-3.9,-2.5));
#827=CARTESIAN_POINT('',(20.,-3.9,0.));
#828=CARTESIAN_POINT('Origin',(-20.,3.9,0.));
#829=CARTESIAN_POINT('',(20.,3.9,0.));
#830=CARTESIAN_POINT('',(-20.,3.9,0.));
#831=CARTESIAN_POINT('',(-10.,3.9,0.));
#832=CARTESIAN_POINT('',(20.,3.9,-2.5));
#833=CARTESIAN_POINT('',(20.,3.9,0.));
#834=CARTESIAN_POINT('',(-20.,3.9,-2.5));
#835=CARTESIAN_POINT('',(20.,3.9,-2.5));
#836=CARTESIAN_POINT('',(-20.,3.9,0.));
#837=CARTESIAN_POINT('Origin',(0.,0.,-2.5));
#838=CARTESIAN_POINT('',(-20.,3.9,-2.5));
#839=CARTESIAN_POINT('',(20.,-3.9,-2.5));
#840=CARTESIAN_POINT('Origin',(0.,0.,0.));
#841=CARTESIAN_POINT('',(20.,-16.,0.));
#842=CARTESIAN_POINT('',(20.,-16.,0.));
#843=CARTESIAN_POINT('',(-20.,-16.,0.));
#844=CARTESIAN_POINT('',(-20.,-16.,0.));
#845=CARTESIAN_POINT('',(-20.,16.,0.));
#846=CARTESIAN_POINT('Origin',(0.,0.,0.));
#847=CARTESIAN_POINT('',(-20.,16.,0.));
#848=CARTESIAN_POINT('',(-20.,16.,0.));
#849=CARTESIAN_POINT('',(20.,16.,0.));
#850=CARTESIAN_POINT('',(20.,16.,0.));
#851=CARTESIAN_POINT('',(20.,-16.,0.));
#852=CARTESIAN_POINT('Origin',(20.,16.,0.));
#853=CARTESIAN_POINT('',(-20.,16.,7.));
#854=CARTESIAN_POINT('',(-20.,16.,0.));
#855=CARTESIAN_POINT('',(20.,16.,7.));
#856=CARTESIAN_POINT('',(20.,16.,7.));
#857=CARTESIAN_POINT('',(20.,16.,0.));
#858=CARTESIAN_POINT('Origin',(20.,-16.,0.));
#859=CARTESIAN_POINT('',(20.,-16.,7.));
#860=CARTESIAN_POINT('',(20.,-16.,7.));
#861=CARTESIAN_POINT('',(20.,-16.,0.));
#862=CARTESIAN_POINT('Origin',(-20.,-16.,0.));
#863=CARTESIAN_POINT('',(-20.,-16.,7.));
#864=CARTESIAN_POINT('',(-20.,-16.,7.));
#865=CARTESIAN_POINT('',(-20.,-16.,0.));
#866=CARTESIAN_POINT('Origin',(-20.,16.,0.));
#867=CARTESIAN_POINT('',(-20.,16.,7.));
#868=CARTESIAN_POINT('Origin',(0.,0.,7.));
#869=CARTESIAN_POINT('Origin',(46.5,-3.,-3.5));
#870=CARTESIAN_POINT('',(58.,6.,-3.5));
#871=CARTESIAN_POINT('',(58.,-12.,-3.5));
#872=CARTESIAN_POINT('',(58.,6.,-3.5));
#873=CARTESIAN_POINT('',(35.,6.,-3.5));
#874=CARTESIAN_POINT('',(58.,-12.,-3.5));
#875=CARTESIAN_POINT('',(35.,6.,-3.5));
#876=CARTESIAN_POINT('Origin',(35.,6.,0.));
#877=CARTESIAN_POINT('',(58.,-12.,3.5));
#878=CARTESIAN_POINT('',(58.,-12.,0.));
#879=CARTESIAN_POINT('',(35.,6.,3.5));
#880=CARTESIAN_POINT('',(58.,-12.,3.5));
#881=CARTESIAN_POINT('',(35.,6.,0.));
#882=CARTESIAN_POINT('Origin',(58.,6.,0.));
#883=CARTESIAN_POINT('',(58.,6.,3.5));
#884=CARTESIAN_POINT('',(35.,6.,3.5));
#885=CARTESIAN_POINT('',(58.,6.,0.));
#886=CARTESIAN_POINT('Origin',(58.,-12.,0.));
#887=CARTESIAN_POINT('',(58.,6.,3.5));
#888=CARTESIAN_POINT('Origin',(46.5,-3.,3.5));
#889=UNCERTAINTY_MEASURE_WITH_UNIT(LENGTH_MEASURE(0.01),#893,
'DISTANCE_ACCURACY_VALUE',
'Maximum model space distance between geometric entities at asserted c
onnectivities');
#890=UNCERTAINTY_MEASURE_WITH_UNIT(LENGTH_MEASURE(0.01),#893,
'DISTANCE_ACCURACY_VALUE',
'Maximum model space distance between geometric entities at asserted c
onnectivities');
#891=(
GEOMETRIC_REPRESENTATION_CONTEXT(3)
GLOBAL_UNCERTAINTY_ASSIGNED_CONTEXT((#889))
GLOBAL_UNIT_ASSIGNED_CONTEXT((#893,#895,#896))
REPRESENTATION_CONTEXT('','3D')
);
#892=(
GEOMETRIC_REPRESENTATION_CONTEXT(3)
GLOBAL_UNCERTAINTY_ASSIGNED_CONTEXT((#890))
GLOBAL_UNIT_ASSIGNED_CONTEXT((#893,#895,#896))
REPRESENTATION_CONTEXT('','3D')
);
#893=(
LENGTH_UNIT()
NAMED_UNIT(*)
SI_UNIT(.MILLI.,.METRE.)
);
#894=(
LENGTH_UNIT()
NAMED_UNIT(*)
SI_UNIT($,.METRE.)
);
#895=(
NAMED_UNIT(*)
PLANE_ANGLE_UNIT()
SI_UNIT($,.RADIAN.)
);
#896=(
NAMED_UNIT(*)
SI_UNIT($,.STERADIAN.)
SOLID_ANGLE_UNIT()
);
#897=SHAPE_DEFINITION_REPRESENTATION(#898,#899);
#898=PRODUCT_DEFINITION_SHAPE('',$,#901);
#899=SHAPE_REPRESENTATION('',(#561),#891);
#900=PRODUCT_DEFINITION_CONTEXT('part definition',#905,'design');
#901=PRODUCT_DEFINITION('01_Suporte_Tacometro_Ajustavel_3D',
'01_Suporte_Tacometro_Ajustavel_3D v1',#902,#900);
#902=PRODUCT_DEFINITION_FORMATION('',$,#907);
#903=PRODUCT_RELATED_PRODUCT_CATEGORY(
'01_Suporte_Tacometro_Ajustavel_3D v1',
'01_Suporte_Tacometro_Ajustavel_3D v1',(#907));
#904=APPLICATION_PROTOCOL_DEFINITION('international standard',
'automotive_design',2009,#905);
#905=APPLICATION_CONTEXT(
'Core Data for Automotive Mechanical Design Process');
#906=PRODUCT_CONTEXT('part definition',#905,'mechanical');
#907=PRODUCT('01_Suporte_Tacometro_Ajustavel_3D',
'01_Suporte_Tacometro_Ajustavel_3D v1',$,(#906));
#908=PRESENTATION_STYLE_ASSIGNMENT((#910));
#909=PRESENTATION_STYLE_ASSIGNMENT((#911));
#910=SURFACE_STYLE_USAGE(.BOTH.,#912);
#911=SURFACE_STYLE_USAGE(.BOTH.,#913);
#912=SURFACE_SIDE_STYLE('',(#914));
#913=SURFACE_SIDE_STYLE('',(#915));
#914=SURFACE_STYLE_FILL_AREA(#916);
#915=SURFACE_STYLE_FILL_AREA(#917);
#916=FILL_AREA_STYLE('A\X\E7o - Acetinado',(#918));
#917=FILL_AREA_STYLE('Mat_PETG_Preto_3D',(#919));
#918=FILL_AREA_STYLE_COLOUR('A\X\E7o - Acetinado',#920);
#919=FILL_AREA_STYLE_COLOUR('Mat_PETG_Preto_3D',#921);
#920=COLOUR_RGB('A\X\E7o - Acetinado',0.627450980392157,0.627450980392157,
0.627450980392157);
#921=COLOUR_RGB('Mat_PETG_Preto_3D',0.117647058823529,0.117647058823529,
0.125490196078431);
ENDSEC;
END-ISO-10303-21;
