ISO-10303-21;
HEADER;
/* Generated by software containing ST-Developer
 * from STEP Tools, Inc. (www.steptools.com) 
 */

FILE_DESCRIPTION(
/* description */ (''),
/* implementation_level */ '2;1');

FILE_NAME(
/* name */ '02_Colar_Bipartido_Eixo_Ima_3D.step',
/* time_stamp */ '2026-09-24T23:46:45-03:00',
/* author */ (''),
/* organization */ (''),
/* preprocessor_version */ 'ST-DEVELOPER v20.2',
/* originating_system */ 'Autodesk Translation Framework v15.15.0.0',
/* authorisation */ '');

FILE_SCHEMA (('AUTOMOTIVE_DESIGN { 1 0 10303 214 3 1 1 }'));
ENDSEC;

DATA;
#10=MECHANICAL_DESIGN_GEOMETRIC_PRESENTATION_REPRESENTATION('',(#13,#14),
#535);
#11=SHAPE_REPRESENTATION_RELATIONSHIP('SRR','None',#542,#12);
#12=ADVANCED_BREP_SHAPE_REPRESENTATION('',(#15,#16),#534);
#13=STYLED_ITEM('',(#552),#15);
#14=STYLED_ITEM('',(#552),#16);
#15=MANIFOLD_SOLID_BREP('Colar_Metade_Superior',#219);
#16=MANIFOLD_SOLID_BREP('Colar_Metade_Inferior',#220);
#17=FACE_BOUND('',#53,.T.);
#18=FACE_BOUND('',#54,.T.);
#19=FACE_BOUND('',#60,.T.);
#20=FACE_BOUND('',#61,.T.);
#21=B_SPLINE_CURVE_WITH_KNOTS('',3,(#311,#312,#313,#314,#315,#316,#317,
#318,#319,#320,#321,#322,#323,#324,#325,#326,#327,#328,#329),
 .UNSPECIFIED.,.F.,.F.,(4,2,2,2,3,2,2,2,4),(-0.353139445596321,-0.294313273932164,
-0.196210082813111,-0.0981050414065552,0.,0.0981050414065552,0.19621008281311,
0.294313273932164,0.353139445596321),.UNSPECIFIED.);
#22=B_SPLINE_CURVE_WITH_KNOTS('',3,(#344,#345,#346,#347,#348,#349,#350,
#351,#352,#353,#354,#355,#356,#357,#358,#359,#360,#361,#362,#363,#364,#365,
#366,#367,#368,#369,#370,#371),.UNSPECIFIED.,.F.,.F.,(4,2,2,2,2,2,2,2,2,
2,2,2,2,4),(0.,0.0336436595389063,0.0672873190778126,0.134574638155625,
0.255719444244386,0.376864250333148,0.477661274968704,0.57845829960426,
0.640681604685776,0.702904909767292,0.765128214848808,0.827351519930323,
0.92814854456588,1.02894556920144),.UNSPECIFIED.);
#23=B_SPLINE_CURVE_WITH_KNOTS('',3,(#372,#373,#374,#375,#376,#377,#378,
#379,#380,#381,#382,#383),.UNSPECIFIED.,.F.,.F.,(4,2,2,2,2,4),(1.02894556920144,
1.1500903752902,1.27123518137896,1.33852250045677,1.37216615999568,1.40580981953458),
 .UNSPECIFIED.);
#24=B_SPLINE_CURVE_WITH_KNOTS('',3,(#387,#388,#389,#390,#391,#392,#393,
#394,#395,#396,#397,#398),.UNSPECIFIED.,.F.,.F.,(4,2,2,2,2,4),(0.,0.0336436595389064,
0.0672873190778129,0.134574638155626,0.255719444244387,0.376864250333148),
 .UNSPECIFIED.);
#25=B_SPLINE_CURVE_WITH_KNOTS('',3,(#399,#400,#401,#402,#403,#404,#405,
#406,#407,#408,#409,#410,#411,#412,#413,#414,#415,#416,#417,#418,#419,#420,
#421,#422,#423,#424,#425,#426),.UNSPECIFIED.,.F.,.F.,(4,2,2,2,2,2,2,2,2,
2,2,2,2,4),(0.376864250333148,0.477661274968704,0.57845829960426,0.640681604685776,
0.702904909767292,0.765128214848808,0.827351519930323,0.92814854456588,
1.02894556920144,1.1500903752902,1.27123518137896,1.33852250045677,1.37216615999568,
1.40580981953458),.UNSPECIFIED.);
#26=B_SPLINE_CURVE_WITH_KNOTS('',3,(#435,#436,#437,#438,#439,#440,#441,
#442,#443,#444,#445,#446,#447,#448,#449,#450,#451,#452,#453,#454,#455,#456,
#457,#458,#459,#460,#461,#462,#463,#464),.UNSPECIFIED.,.F.,.F.,(4,2,2,2,
2,2,2,2,2,2,2,2,2,2,4),(0.,0.0622233050815159,0.124446610163032,0.225243634798588,
0.326040659434144,0.447185465522905,0.568330271611666,0.635617590689479,
0.669261250228385,0.702904909767292,0.736548569306198,0.770192228845104,
0.837479547922917,0.958624354011678,1.07976916010044),.UNSPECIFIED.);
#27=B_SPLINE_CURVE_WITH_KNOTS('',3,(#465,#466,#467,#468,#469,#470,#471,
#472,#473,#474),.UNSPECIFIED.,.F.,.F.,(4,2,2,2,4),(1.07976916010044,1.180566184736,
1.28136320937155,1.34358651445307,1.40580981953458),.UNSPECIFIED.);
#28=B_SPLINE_CURVE_WITH_KNOTS('',3,(#478,#479,#480,#481,#482,#483,#484,
#485,#486,#487),.UNSPECIFIED.,.F.,.F.,(4,2,2,2,4),(0.,0.0622233050815159,
0.124446610163032,0.225243634798588,0.326040659434144),.UNSPECIFIED.);
#29=B_SPLINE_CURVE_WITH_KNOTS('',3,(#488,#489,#490,#491,#492,#493,#494,
#495,#496,#497,#498,#499,#500,#501,#502,#503,#504,#505,#506,#507,#508,#509,
#510,#511,#512,#513,#514,#515,#516,#517),.UNSPECIFIED.,.F.,.F.,(4,2,2,2,
2,2,2,2,2,2,2,2,2,2,4),(0.326040659434144,0.447185465522905,0.568330271611667,
0.635617590689479,0.669261250228385,0.702904909767292,0.736548569306198,
0.770192228845104,0.837479547922917,0.958624354011678,1.07976916010044,
1.180566184736,1.28136320937155,1.34358651445307,1.40580981953458),
 .UNSPECIFIED.);
#30=CYLINDRICAL_SURFACE('',#236,2.6);
#31=CYLINDRICAL_SURFACE('',#238,1.7);
#32=CYLINDRICAL_SURFACE('',#241,17.);
#33=CYLINDRICAL_SURFACE('',#244,1.7);
#34=CYLINDRICAL_SURFACE('',#248,17.);
#35=FACE_OUTER_BOUND('',#47,.T.);
#36=FACE_OUTER_BOUND('',#48,.T.);
#37=FACE_OUTER_BOUND('',#49,.T.);
#38=FACE_OUTER_BOUND('',#50,.T.);
#39=FACE_OUTER_BOUND('',#51,.T.);
#40=FACE_OUTER_BOUND('',#52,.T.);
#41=FACE_OUTER_BOUND('',#55,.T.);
#42=FACE_OUTER_BOUND('',#56,.T.);
#43=FACE_OUTER_BOUND('',#57,.T.);
#44=FACE_OUTER_BOUND('',#58,.T.);
#45=FACE_OUTER_BOUND('',#59,.T.);
#46=FACE_OUTER_BOUND('',#62,.T.);
#47=EDGE_LOOP('',(#144,#145));
#48=EDGE_LOOP('',(#146,#147,#148,#149));
#49=EDGE_LOOP('',(#150,#151,#152,#153,#154,#155,#156,#157));
#50=EDGE_LOOP('',(#158,#159,#160,#161,#162,#163));
#51=EDGE_LOOP('',(#164,#165));
#52=EDGE_LOOP('',(#166,#167,#168,#169,#170,#171));
#53=EDGE_LOOP('',(#172,#173));
#54=EDGE_LOOP('',(#174,#175));
#55=EDGE_LOOP('',(#176,#177));
#56=EDGE_LOOP('',(#178,#179,#180,#181,#182,#183));
#57=EDGE_LOOP('',(#184,#185));
#58=EDGE_LOOP('',(#186,#187,#188,#189));
#59=EDGE_LOOP('',(#190,#191,#192,#193));
#60=EDGE_LOOP('',(#194,#195));
#61=EDGE_LOOP('',(#196,#197));
#62=EDGE_LOOP('',(#198,#199));
#63=CIRCLE('',#235,2.6);
#64=CIRCLE('',#240,17.);
#65=CIRCLE('',#242,17.);
#66=CIRCLE('',#246,17.);
#67=CIRCLE('',#249,17.);
#68=LINE('',#305,#82);
#69=LINE('',#309,#83);
#70=LINE('',#330,#84);
#71=LINE('',#333,#85);
#72=LINE('',#335,#86);
#73=LINE('',#337,#87);
#74=LINE('',#339,#88);
#75=LINE('',#340,#89);
#76=LINE('',#385,#90);
#77=LINE('',#476,#91);
#78=LINE('',#522,#92);
#79=LINE('',#525,#93);
#80=LINE('',#527,#94);
#81=LINE('',#528,#95);
#82=VECTOR('',#255,10.);
#83=VECTOR('',#260,10.);
#84=VECTOR('',#261,10.);
#85=VECTOR('',#264,10.);
#86=VECTOR('',#265,10.);
#87=VECTOR('',#266,10.);
#88=VECTOR('',#267,10.);
#89=VECTOR('',#268,10.);
#90=VECTOR('',#271,1.7);
#91=VECTOR('',#284,1.7);
#92=VECTOR('',#289,10.);
#93=VECTOR('',#292,10.);
#94=VECTOR('',#293,10.);
#95=VECTOR('',#294,10.);
#96=VERTEX_POINT('',#303);
#97=VERTEX_POINT('',#304);
#98=VERTEX_POINT('',#308);
#99=VERTEX_POINT('',#310);
#100=VERTEX_POINT('',#332);
#101=VERTEX_POINT('',#334);
#102=VERTEX_POINT('',#336);
#103=VERTEX_POINT('',#338);
#104=VERTEX_POINT('',#342);
#105=VERTEX_POINT('',#343);
#106=VERTEX_POINT('',#384);
#107=VERTEX_POINT('',#386);
#108=VERTEX_POINT('',#433);
#109=VERTEX_POINT('',#434);
#110=VERTEX_POINT('',#475);
#111=VERTEX_POINT('',#477);
#112=VERTEX_POINT('',#519);
#113=VERTEX_POINT('',#520);
#114=VERTEX_POINT('',#524);
#115=VERTEX_POINT('',#526);
#116=EDGE_CURVE('',#96,#97,#68,.T.);
#117=EDGE_CURVE('',#97,#96,#63,.T.);
#118=EDGE_CURVE('',#98,#96,#69,.T.);
#119=EDGE_CURVE('',#99,#98,#21,.T.);
#120=EDGE_CURVE('',#97,#99,#70,.T.);
#121=EDGE_CURVE('',#100,#99,#71,.T.);
#122=EDGE_CURVE('',#101,#100,#72,.T.);
#123=EDGE_CURVE('',#102,#101,#73,.T.);
#124=EDGE_CURVE('',#103,#102,#74,.T.);
#125=EDGE_CURVE('',#98,#103,#75,.T.);
#126=EDGE_CURVE('',#104,#105,#22,.T.);
#127=EDGE_CURVE('',#105,#104,#23,.T.);
#128=EDGE_CURVE('',#105,#106,#76,.T.);
#129=EDGE_CURVE('',#107,#106,#24,.T.);
#130=EDGE_CURVE('',#106,#107,#25,.T.);
#131=EDGE_CURVE('',#100,#101,#64,.T.);
#132=EDGE_CURVE('',#102,#103,#65,.T.);
#133=EDGE_CURVE('',#108,#109,#26,.T.);
#134=EDGE_CURVE('',#109,#108,#27,.T.);
#135=EDGE_CURVE('',#109,#110,#77,.T.);
#136=EDGE_CURVE('',#111,#110,#28,.T.);
#137=EDGE_CURVE('',#110,#111,#29,.T.);
#138=EDGE_CURVE('',#112,#113,#66,.T.);
#139=EDGE_CURVE('',#113,#112,#78,.T.);
#140=EDGE_CURVE('',#114,#113,#79,.T.);
#141=EDGE_CURVE('',#115,#114,#80,.T.);
#142=EDGE_CURVE('',#112,#115,#81,.T.);
#143=EDGE_CURVE('',#114,#115,#67,.T.);
#144=ORIENTED_EDGE('',*,*,#116,.F.);
#145=ORIENTED_EDGE('',*,*,#117,.F.);
#146=ORIENTED_EDGE('',*,*,#118,.F.);
#147=ORIENTED_EDGE('',*,*,#119,.F.);
#148=ORIENTED_EDGE('',*,*,#120,.F.);
#149=ORIENTED_EDGE('',*,*,#117,.T.);
#150=ORIENTED_EDGE('',*,*,#118,.T.);
#151=ORIENTED_EDGE('',*,*,#116,.T.);
#152=ORIENTED_EDGE('',*,*,#120,.T.);
#153=ORIENTED_EDGE('',*,*,#121,.F.);
#154=ORIENTED_EDGE('',*,*,#122,.F.);
#155=ORIENTED_EDGE('',*,*,#123,.F.);
#156=ORIENTED_EDGE('',*,*,#124,.F.);
#157=ORIENTED_EDGE('',*,*,#125,.F.);
#158=ORIENTED_EDGE('',*,*,#126,.F.);
#159=ORIENTED_EDGE('',*,*,#127,.F.);
#160=ORIENTED_EDGE('',*,*,#128,.T.);
#161=ORIENTED_EDGE('',*,*,#129,.F.);
#162=ORIENTED_EDGE('',*,*,#130,.F.);
#163=ORIENTED_EDGE('',*,*,#128,.F.);
#164=ORIENTED_EDGE('',*,*,#131,.T.);
#165=ORIENTED_EDGE('',*,*,#122,.T.);
#166=ORIENTED_EDGE('',*,*,#119,.T.);
#167=ORIENTED_EDGE('',*,*,#125,.T.);
#168=ORIENTED_EDGE('',*,*,#132,.F.);
#169=ORIENTED_EDGE('',*,*,#123,.T.);
#170=ORIENTED_EDGE('',*,*,#131,.F.);
#171=ORIENTED_EDGE('',*,*,#121,.T.);
#172=ORIENTED_EDGE('',*,*,#129,.T.);
#173=ORIENTED_EDGE('',*,*,#130,.T.);
#174=ORIENTED_EDGE('',*,*,#126,.T.);
#175=ORIENTED_EDGE('',*,*,#127,.T.);
#176=ORIENTED_EDGE('',*,*,#132,.T.);
#177=ORIENTED_EDGE('',*,*,#124,.T.);
#178=ORIENTED_EDGE('',*,*,#133,.F.);
#179=ORIENTED_EDGE('',*,*,#134,.F.);
#180=ORIENTED_EDGE('',*,*,#135,.T.);
#181=ORIENTED_EDGE('',*,*,#136,.F.);
#182=ORIENTED_EDGE('',*,*,#137,.F.);
#183=ORIENTED_EDGE('',*,*,#135,.F.);
#184=ORIENTED_EDGE('',*,*,#138,.T.);
#185=ORIENTED_EDGE('',*,*,#139,.T.);
#186=ORIENTED_EDGE('',*,*,#140,.F.);
#187=ORIENTED_EDGE('',*,*,#141,.F.);
#188=ORIENTED_EDGE('',*,*,#142,.F.);
#189=ORIENTED_EDGE('',*,*,#139,.F.);
#190=ORIENTED_EDGE('',*,*,#142,.T.);
#191=ORIENTED_EDGE('',*,*,#143,.F.);
#192=ORIENTED_EDGE('',*,*,#140,.T.);
#193=ORIENTED_EDGE('',*,*,#138,.F.);
#194=ORIENTED_EDGE('',*,*,#136,.T.);
#195=ORIENTED_EDGE('',*,*,#137,.T.);
#196=ORIENTED_EDGE('',*,*,#133,.T.);
#197=ORIENTED_EDGE('',*,*,#134,.T.);
#198=ORIENTED_EDGE('',*,*,#143,.T.);
#199=ORIENTED_EDGE('',*,*,#141,.T.);
#200=PLANE('',#234);
#201=PLANE('',#237);
#202=PLANE('',#239);
#203=PLANE('',#243);
#204=PLANE('',#245);
#205=PLANE('',#247);
#206=PLANE('',#250);
#207=ADVANCED_FACE('',(#35),#200,.T.);
#208=ADVANCED_FACE('',(#36),#30,.F.);
#209=ADVANCED_FACE('',(#37),#201,.T.);
#210=ADVANCED_FACE('',(#38),#31,.F.);
#211=ADVANCED_FACE('',(#39),#202,.F.);
#212=ADVANCED_FACE('',(#40,#17,#18),#32,.T.);
#213=ADVANCED_FACE('',(#41),#203,.T.);
#214=ADVANCED_FACE('',(#42),#33,.F.);
#215=ADVANCED_FACE('',(#43),#204,.F.);
#216=ADVANCED_FACE('',(#44),#205,.T.);
#217=ADVANCED_FACE('',(#45,#19,#20),#34,.T.);
#218=ADVANCED_FACE('',(#46),#206,.T.);
#219=CLOSED_SHELL('',(#207,#208,#209,#210,#211,#212,#213));
#220=CLOSED_SHELL('',(#214,#215,#216,#217,#218));
#221=DERIVED_UNIT_ELEMENT(#223,1.);
#222=DERIVED_UNIT_ELEMENT(#537,-3.);
#223=(
MASS_UNIT()
NAMED_UNIT(*)
SI_UNIT(.KILO.,.GRAM.)
);
#224=DERIVED_UNIT((#221,#222));
#225=MEASURE_REPRESENTATION_ITEM('density measure',
POSITIVE_RATIO_MEASURE(7850.),#224);
#226=PROPERTY_DEFINITION_REPRESENTATION(#231,#228);
#227=PROPERTY_DEFINITION_REPRESENTATION(#232,#229);
#228=REPRESENTATION('material name',(#230),#534);
#229=REPRESENTATION('density',(#225),#534);
#230=DESCRIPTIVE_REPRESENTATION_ITEM('A\X\E7o','A\X\E7o');
#231=PROPERTY_DEFINITION('material property','material name',#544);
#232=PROPERTY_DEFINITION('material property','density of part',#544);
#233=AXIS2_PLACEMENT_3D('',#301,#251,#252);
#234=AXIS2_PLACEMENT_3D('',#302,#253,#254);
#235=AXIS2_PLACEMENT_3D('',#306,#256,#257);
#236=AXIS2_PLACEMENT_3D('',#307,#258,#259);
#237=AXIS2_PLACEMENT_3D('',#331,#262,#263);
#238=AXIS2_PLACEMENT_3D('',#341,#269,#270);
#239=AXIS2_PLACEMENT_3D('',#427,#272,#273);
#240=AXIS2_PLACEMENT_3D('',#428,#274,#275);
#241=AXIS2_PLACEMENT_3D('',#429,#276,#277);
#242=AXIS2_PLACEMENT_3D('',#430,#278,#279);
#243=AXIS2_PLACEMENT_3D('',#431,#280,#281);
#244=AXIS2_PLACEMENT_3D('',#432,#282,#283);
#245=AXIS2_PLACEMENT_3D('',#518,#285,#286);
#246=AXIS2_PLACEMENT_3D('',#521,#287,#288);
#247=AXIS2_PLACEMENT_3D('',#523,#290,#291);
#248=AXIS2_PLACEMENT_3D('',#529,#295,#296);
#249=AXIS2_PLACEMENT_3D('',#530,#297,#298);
#250=AXIS2_PLACEMENT_3D('',#531,#299,#300);
#251=DIRECTION('axis',(0.,0.,1.));
#252=DIRECTION('refdir',(1.,0.,0.));
#253=DIRECTION('center_axis',(0.,0.,1.));
#254=DIRECTION('ref_axis',(1.,0.,0.));
#255=DIRECTION('',(-1.,0.,0.));
#256=DIRECTION('center_axis',(0.,0.,-1.));
#257=DIRECTION('ref_axis',(1.,0.,0.));
#258=DIRECTION('center_axis',(0.,0.,-1.));
#259=DIRECTION('ref_axis',(1.,0.,0.));
#260=DIRECTION('',(0.,0.,-1.));
#261=DIRECTION('',(0.,0.,1.));
#262=DIRECTION('center_axis',(0.,-1.,0.));
#263=DIRECTION('ref_axis',(0.,0.,-1.));
#264=DIRECTION('',(1.,0.,0.));
#265=DIRECTION('',(0.,0.,1.));
#266=DIRECTION('',(-1.,0.,0.));
#267=DIRECTION('',(0.,0.,-1.));
#268=DIRECTION('',(1.,0.,0.));
#269=DIRECTION('center_axis',(0.,0.,-1.));
#270=DIRECTION('ref_axis',(1.,0.,0.));
#271=DIRECTION('',(0.,0.,-1.));
#272=DIRECTION('center_axis',(1.,0.,0.));
#273=DIRECTION('ref_axis',(0.,0.,-1.));
#274=DIRECTION('center_axis',(-1.,0.,0.));
#275=DIRECTION('ref_axis',(0.,0.,-1.));
#276=DIRECTION('center_axis',(1.,0.,0.));
#277=DIRECTION('ref_axis',(0.,0.,-1.));
#278=DIRECTION('center_axis',(1.,0.,0.));
#279=DIRECTION('ref_axis',(0.,0.,-1.));
#280=DIRECTION('center_axis',(1.,0.,0.));
#281=DIRECTION('ref_axis',(0.,0.,-1.));
#282=DIRECTION('center_axis',(0.,0.,-1.));
#283=DIRECTION('ref_axis',(1.,0.,0.));
#284=DIRECTION('',(0.,0.,-1.));
#285=DIRECTION('center_axis',(1.,0.,0.));
#286=DIRECTION('ref_axis',(0.,0.,-1.));
#287=DIRECTION('center_axis',(-1.,0.,0.));
#288=DIRECTION('ref_axis',(0.,0.,-1.));
#289=DIRECTION('',(0.,0.,-1.));
#290=DIRECTION('center_axis',(0.,1.,0.));
#291=DIRECTION('ref_axis',(0.,0.,1.));
#292=DIRECTION('',(-1.,0.,0.));
#293=DIRECTION('',(0.,0.,1.));
#294=DIRECTION('',(1.,0.,0.));
#295=DIRECTION('center_axis',(1.,0.,0.));
#296=DIRECTION('ref_axis',(0.,0.,-1.));
#297=DIRECTION('center_axis',(1.,0.,0.));
#298=DIRECTION('ref_axis',(0.,0.,-1.));
#299=DIRECTION('center_axis',(1.,0.,0.));
#300=DIRECTION('ref_axis',(0.,0.,-1.));
#301=CARTESIAN_POINT('',(0.,0.,0.));
#302=CARTESIAN_POINT('Origin',(0.,0.,14.8));
#303=CARTESIAN_POINT('',(2.56904651573303,0.4,14.8));
#304=CARTESIAN_POINT('',(-2.56904651573303,0.4,14.8));
#305=CARTESIAN_POINT('',(0.,0.4,14.8));
#306=CARTESIAN_POINT('Origin',(0.,0.,14.8));
#307=CARTESIAN_POINT('Origin',(0.,0.,17.));
#308=CARTESIAN_POINT('',(2.56904651573303,0.4,16.9952934661335));
#309=CARTESIAN_POINT('',(2.56904651573303,0.4,17.));
#310=CARTESIAN_POINT('',(-2.56904651573303,0.4,16.9952934661335));
#311=CARTESIAN_POINT('Ctrl Pts',(-2.56904651573303,0.4,16.9952934661335));
#312=CARTESIAN_POINT('Ctrl Pts',(-2.53765061592258,0.601643817540818,16.990547591802));
#313=CARTESIAN_POINT('Ctrl Pts',(-2.48139351964389,0.803674181225756,16.9820818593267));
#314=CARTESIAN_POINT('Ctrl Pts',(-2.26904180933065,1.31590719502913,16.9520288208924));
#315=CARTESIAN_POINT('Ctrl Pts',(-2.0690279982577,1.60792726391235,16.9253759898833));
#316=CARTESIAN_POINT('Ctrl Pts',(-1.60792291558832,2.06903234658172,16.8752152478868));
#317=CARTESIAN_POINT('Ctrl Pts',(-1.3159047213074,2.2690427466791,16.8484250326858));
#318=CARTESIAN_POINT('Ctrl Pts',(-0.675474028271274,2.53454036134835,16.810534982803));
#319=CARTESIAN_POINT('Ctrl Pts',(-0.327016804688517,2.6,16.8));
#320=CARTESIAN_POINT('Ctrl Pts',(0.,2.6,16.8));
#321=CARTESIAN_POINT('Ctrl Pts',(0.327016804688517,2.6,16.8));
#322=CARTESIAN_POINT('Ctrl Pts',(0.675474028271275,2.53454036134835,16.810534982803));
#323=CARTESIAN_POINT('Ctrl Pts',(1.3159047213074,2.2690427466791,16.8484250326858));
#324=CARTESIAN_POINT('Ctrl Pts',(1.60792291558832,2.06903234658172,16.8752152478868));
#325=CARTESIAN_POINT('Ctrl Pts',(2.0690279982577,1.60792726391235,16.9253759898833));
#326=CARTESIAN_POINT('Ctrl Pts',(2.26904180933065,1.31590719502913,16.9520288208924));
#327=CARTESIAN_POINT('Ctrl Pts',(2.48139351964389,0.803674181225757,16.9820818593267));
#328=CARTESIAN_POINT('Ctrl Pts',(2.53765061592258,0.601643817540818,16.990547591802));
#329=CARTESIAN_POINT('Ctrl Pts',(2.56904651573303,0.4,16.9952934661335));
#330=CARTESIAN_POINT('',(-2.56904651573303,0.4,17.));
#331=CARTESIAN_POINT('Origin',(0.,0.4,16.9952934661335));
#332=CARTESIAN_POINT('',(-7.,0.4,16.9952934661335));
#333=CARTESIAN_POINT('',(0.,0.4,16.9952934661335));
#334=CARTESIAN_POINT('',(-7.,0.4,-16.9952934661335));
#335=CARTESIAN_POINT('',(-7.,0.4,-20.));
#336=CARTESIAN_POINT('',(7.,0.4,-16.9952934661335));
#337=CARTESIAN_POINT('',(0.,0.4,-16.9952934661335));
#338=CARTESIAN_POINT('',(7.,0.4,16.9952934661335));
#339=CARTESIAN_POINT('',(7.,0.4,-20.));
#340=CARTESIAN_POINT('',(0.,0.4,16.9952934661335));
#341=CARTESIAN_POINT('Origin',(0.,13.5,17.));
#342=CARTESIAN_POINT('',(6.93889390390723E-17,15.2,7.61314652426971));
#343=CARTESIAN_POINT('',(-1.7,13.5,10.3319891598859));
#344=CARTESIAN_POINT('Ctrl Pts',(6.93889390390723E-17,15.2,7.61314652426971));
#345=CARTESIAN_POINT('Ctrl Pts',(0.112145531796354,15.2,7.61314652426971));
#346=CARTESIAN_POINT('Ctrl Pts',(0.219100772613678,15.1889611437788,7.63526681794239));
#347=CARTESIAN_POINT('Ctrl Pts',(0.421260863320741,15.1501909904579,7.71191037481279));
#348=CARTESIAN_POINT('Ctrl Pts',(0.516450682582223,15.1224205502365,7.76645347621334));
#349=CARTESIAN_POINT('Ctrl Pts',(0.782037484109921,15.0212890884168,7.96129358096977));
#350=CARTESIAN_POINT('Ctrl Pts',(0.932149059012187,14.9295995779601,8.13285666479679));
#351=CARTESIAN_POINT('Ctrl Pts',(1.26356192829635,14.6691248238106,8.59851417988123));
#352=CARTESIAN_POINT('Ctrl Pts',(1.42574171228533,14.4605018103321,8.94828679636044));
#353=CARTESIAN_POINT('Ctrl Pts',(1.64511751462132,13.9988897096253,9.65448273706596));
#354=CARTESIAN_POINT('Ctrl Pts',(1.7,13.7454248673109,10.0113117320039));
#355=CARTESIAN_POINT('Ctrl Pts',(1.7,13.2957973008072,10.598804813333));
#356=CARTESIAN_POINT('Ctrl Pts',(1.66165340626585,13.0646844728668,10.8827221470108));
#357=CARTESIAN_POINT('Ctrl Pts',(1.46993207350831,12.6112413664954,11.4050958774522));
#358=CARTESIAN_POINT('Ctrl Pts',(1.3167389906705,12.38910915881,11.6437908177899));
#359=CARTESIAN_POINT('Ctrl Pts',(0.973659008086138,12.0958396505685,11.9464025749012));
#360=CARTESIAN_POINT('Ctrl Pts',(0.805155504959556,11.9887463698451,12.0532468360077));
#361=CARTESIAN_POINT('Ctrl Pts',(0.422171419037455,11.8405015708422,12.1989065236689));
#362=CARTESIAN_POINT('Ctrl Pts',(0.207411016938386,11.8,12.2376468326227));
#363=CARTESIAN_POINT('Ctrl Pts',(-0.207411016938386,11.8,12.2376468326227));
#364=CARTESIAN_POINT('Ctrl Pts',(-0.422171419037455,11.8405015708422,12.1989065236689));
#365=CARTESIAN_POINT('Ctrl Pts',(-0.805155504959556,11.9887463698451,12.0532468360077));
#366=CARTESIAN_POINT('Ctrl Pts',(-0.973659008086138,12.0958396505685,11.9464025749012));
#367=CARTESIAN_POINT('Ctrl Pts',(-1.3167389906705,12.38910915881,11.6437908177899));
#368=CARTESIAN_POINT('Ctrl Pts',(-1.46993207350831,12.6112413664954,11.4050958774522));
#369=CARTESIAN_POINT('Ctrl Pts',(-1.66165340626585,13.0646844728668,10.8827221470108));
#370=CARTESIAN_POINT('Ctrl Pts',(-1.7,13.2957973008072,10.598804813333));
#371=CARTESIAN_POINT('Ctrl Pts',(-1.7,13.5,10.3319891598859));
#372=CARTESIAN_POINT('Ctrl Pts',(-1.7,13.5,10.3319891598859));
#373=CARTESIAN_POINT('Ctrl Pts',(-1.7,13.7454248673109,10.0113117320039));
#374=CARTESIAN_POINT('Ctrl Pts',(-1.64511751462132,13.9988897096253,9.65448273706596));
#375=CARTESIAN_POINT('Ctrl Pts',(-1.42574171228533,14.4605018103321,8.94828679636045));
#376=CARTESIAN_POINT('Ctrl Pts',(-1.26356192829635,14.6691248238106,8.59851417988124));
#377=CARTESIAN_POINT('Ctrl Pts',(-0.932149059012188,14.9295995779601,8.13285666479679));
#378=CARTESIAN_POINT('Ctrl Pts',(-0.782037484109922,15.0212890884168,7.96129358096977));
#379=CARTESIAN_POINT('Ctrl Pts',(-0.516450682582224,15.1224205502365,7.76645347621335));
#380=CARTESIAN_POINT('Ctrl Pts',(-0.421260863320742,15.1501909904579,7.71191037481279));
#381=CARTESIAN_POINT('Ctrl Pts',(-0.219100772613678,15.1889611437788,7.63526681794239));
#382=CARTESIAN_POINT('Ctrl Pts',(-0.112145531796355,15.2,7.61314652426971));
#383=CARTESIAN_POINT('Ctrl Pts',(-1.04083408558608E-16,15.2,7.61314652426971));
#384=CARTESIAN_POINT('',(-1.7,13.5,-10.3319891598859));
#385=CARTESIAN_POINT('',(-1.7,13.5,17.));
#386=CARTESIAN_POINT('',(3.46944695195361E-17,15.2,-7.61314652426971));
#387=CARTESIAN_POINT('Ctrl Pts',(3.46944695195361E-17,15.2,-7.61314652426971));
#388=CARTESIAN_POINT('Ctrl Pts',(-0.112145531796355,15.2,-7.61314652426971));
#389=CARTESIAN_POINT('Ctrl Pts',(-0.219100772613679,15.1889611437788,-7.63526681794239));
#390=CARTESIAN_POINT('Ctrl Pts',(-0.421260863320743,15.1501909904579,-7.71191037481279));
#391=CARTESIAN_POINT('Ctrl Pts',(-0.516450682582226,15.1224205502365,-7.76645347621334));
#392=CARTESIAN_POINT('Ctrl Pts',(-0.782037484109925,15.0212890884168,-7.96129358096977));
#393=CARTESIAN_POINT('Ctrl Pts',(-0.932149059012188,14.9295995779601,-8.13285666479679));
#394=CARTESIAN_POINT('Ctrl Pts',(-1.26356192829635,14.6691248238106,-8.59851417988124));
#395=CARTESIAN_POINT('Ctrl Pts',(-1.42574171228533,14.4605018103321,-8.94828679636045));
#396=CARTESIAN_POINT('Ctrl Pts',(-1.64511751462132,13.9988897096253,-9.65448273706596));
#397=CARTESIAN_POINT('Ctrl Pts',(-1.7,13.7454248673109,-10.0113117320039));
#398=CARTESIAN_POINT('Ctrl Pts',(-1.7,13.5,-10.3319891598859));
#399=CARTESIAN_POINT('Ctrl Pts',(-1.7,13.5,-10.3319891598859));
#400=CARTESIAN_POINT('Ctrl Pts',(-1.7,13.2957973008072,-10.598804813333));
#401=CARTESIAN_POINT('Ctrl Pts',(-1.66165340626585,13.0646844728668,-10.8827221470108));
#402=CARTESIAN_POINT('Ctrl Pts',(-1.46993207350831,12.6112413664954,-11.4050958774522));
#403=CARTESIAN_POINT('Ctrl Pts',(-1.3167389906705,12.38910915881,-11.6437908177899));
#404=CARTESIAN_POINT('Ctrl Pts',(-0.973659008086138,12.0958396505685,-11.9464025749012));
#405=CARTESIAN_POINT('Ctrl Pts',(-0.805155504959556,11.9887463698451,-12.0532468360077));
#406=CARTESIAN_POINT('Ctrl Pts',(-0.422171419037454,11.8405015708422,-12.1989065236689));
#407=CARTESIAN_POINT('Ctrl Pts',(-0.207411016938386,11.8,-12.2376468326227));
#408=CARTESIAN_POINT('Ctrl Pts',(0.207411016938386,11.8,-12.2376468326227));
#409=CARTESIAN_POINT('Ctrl Pts',(0.422171419037454,11.8405015708422,-12.1989065236689));
#410=CARTESIAN_POINT('Ctrl Pts',(0.805155504959556,11.9887463698451,-12.0532468360077));
#411=CARTESIAN_POINT('Ctrl Pts',(0.973659008086138,12.0958396505685,-11.9464025749012));
#412=CARTESIAN_POINT('Ctrl Pts',(1.3167389906705,12.38910915881,-11.6437908177899));
#413=CARTESIAN_POINT('Ctrl Pts',(1.46993207350831,12.6112413664954,-11.4050958774522));
#414=CARTESIAN_POINT('Ctrl Pts',(1.66165340626585,13.0646844728668,-10.8827221470108));
#415=CARTESIAN_POINT('Ctrl Pts',(1.7,13.2957973008072,-10.598804813333));
#416=CARTESIAN_POINT('Ctrl Pts',(1.7,13.7454248673109,-10.0113117320039));
#417=CARTESIAN_POINT('Ctrl Pts',(1.64511751462132,13.9988897096253,-9.65448273706596));
#418=CARTESIAN_POINT('Ctrl Pts',(1.42574171228533,14.4605018103321,-8.94828679636044));
#419=CARTESIAN_POINT('Ctrl Pts',(1.26356192829635,14.6691248238106,-8.59851417988123));
#420=CARTESIAN_POINT('Ctrl Pts',(0.932149059012187,14.9295995779601,-8.13285666479679));
#421=CARTESIAN_POINT('Ctrl Pts',(0.782037484109918,15.0212890884168,-7.96129358096977));
#422=CARTESIAN_POINT('Ctrl Pts',(0.51645068258222,15.1224205502365,-7.76645347621335));
#423=CARTESIAN_POINT('Ctrl Pts',(0.421260863320738,15.1501909904579,-7.71191037481279));
#424=CARTESIAN_POINT('Ctrl Pts',(0.219100772613675,15.1889611437788,-7.63526681794239));
#425=CARTESIAN_POINT('Ctrl Pts',(0.112145531796354,15.2,-7.61314652426971));
#426=CARTESIAN_POINT('Ctrl Pts',(3.46944695195361E-16,15.2,-7.61314652426971));
#427=CARTESIAN_POINT('Origin',(-7.,8.7,0.));
#428=CARTESIAN_POINT('Origin',(-7.,0.,0.));
#429=CARTESIAN_POINT('Origin',(0.,0.,0.));
#430=CARTESIAN_POINT('Origin',(7.,0.,0.));
#431=CARTESIAN_POINT('Origin',(7.,8.7,0.));
#432=CARTESIAN_POINT('Origin',(0.,-13.5,17.));
#433=CARTESIAN_POINT('',(3.46944695195361E-17,-11.8,12.2376468326227));
#434=CARTESIAN_POINT('',(-1.7,-13.5,10.3319891598859));
#435=CARTESIAN_POINT('Ctrl Pts',(3.46944695195361E-17,-11.8,12.2376468326227));
#436=CARTESIAN_POINT('Ctrl Pts',(0.207411016938386,-11.8,12.2376468326227));
#437=CARTESIAN_POINT('Ctrl Pts',(0.422171419037455,-11.8405015708422,12.1989065236689));
#438=CARTESIAN_POINT('Ctrl Pts',(0.805155504959556,-11.9887463698451,12.0532468360077));
#439=CARTESIAN_POINT('Ctrl Pts',(0.973659008086138,-12.0958396505685,11.9464025749012));
#440=CARTESIAN_POINT('Ctrl Pts',(1.3167389906705,-12.38910915881,11.6437908177899));
#441=CARTESIAN_POINT('Ctrl Pts',(1.46993207350831,-12.6112413664954,11.4050958774522));
#442=CARTESIAN_POINT('Ctrl Pts',(1.66165340626585,-13.0646844728668,10.8827221470108));
#443=CARTESIAN_POINT('Ctrl Pts',(1.7,-13.2957973008072,10.598804813333));
#444=CARTESIAN_POINT('Ctrl Pts',(1.7,-13.7454248673109,10.0113117320039));
#445=CARTESIAN_POINT('Ctrl Pts',(1.64511751462132,-13.9988897096253,9.65448273706596));
#446=CARTESIAN_POINT('Ctrl Pts',(1.42574171228533,-14.4605018103321,8.94828679636044));
#447=CARTESIAN_POINT('Ctrl Pts',(1.26356192829635,-14.6691248238106,8.59851417988123));
#448=CARTESIAN_POINT('Ctrl Pts',(0.932149059012187,-14.9295995779601,8.13285666479679));
#449=CARTESIAN_POINT('Ctrl Pts',(0.782037484109921,-15.0212890884168,7.96129358096977));
#450=CARTESIAN_POINT('Ctrl Pts',(0.516450682582223,-15.1224205502365,7.76645347621334));
#451=CARTESIAN_POINT('Ctrl Pts',(0.421260863320741,-15.1501909904579,7.71191037481279));
#452=CARTESIAN_POINT('Ctrl Pts',(0.219100772613677,-15.1889611437788,7.63526681794239));
#453=CARTESIAN_POINT('Ctrl Pts',(0.112145531796354,-15.2,7.61314652426971));
#454=CARTESIAN_POINT('Ctrl Pts',(-0.112145531796354,-15.2,7.61314652426971));
#455=CARTESIAN_POINT('Ctrl Pts',(-0.219100772613677,-15.1889611437788,7.63526681794239));
#456=CARTESIAN_POINT('Ctrl Pts',(-0.421260863320741,-15.1501909904579,7.71191037481279));
#457=CARTESIAN_POINT('Ctrl Pts',(-0.516450682582223,-15.1224205502365,7.76645347621334));
#458=CARTESIAN_POINT('Ctrl Pts',(-0.78203748410992,-15.0212890884168,7.96129358096977));
#459=CARTESIAN_POINT('Ctrl Pts',(-0.932149059012187,-14.9295995779601,8.13285666479679));
#460=CARTESIAN_POINT('Ctrl Pts',(-1.26356192829635,-14.6691248238106,8.59851417988123));
#461=CARTESIAN_POINT('Ctrl Pts',(-1.42574171228533,-14.4605018103321,8.94828679636044));
#462=CARTESIAN_POINT('Ctrl Pts',(-1.64511751462132,-13.9988897096253,9.65448273706596));
#463=CARTESIAN_POINT('Ctrl Pts',(-1.7,-13.7454248673109,10.0113117320039));
#464=CARTESIAN_POINT('Ctrl Pts',(-1.7,-13.5,10.3319891598859));
#465=CARTESIAN_POINT('Ctrl Pts',(-1.7,-13.5,10.3319891598859));
#466=CARTESIAN_POINT('Ctrl Pts',(-1.7,-13.2957973008072,10.598804813333));
#467=CARTESIAN_POINT('Ctrl Pts',(-1.66165340626585,-13.0646844728668,10.8827221470108));
#468=CARTESIAN_POINT('Ctrl Pts',(-1.46993207350831,-12.6112413664954,11.4050958774522));
#469=CARTESIAN_POINT('Ctrl Pts',(-1.3167389906705,-12.38910915881,11.6437908177899));
#470=CARTESIAN_POINT('Ctrl Pts',(-0.973659008086139,-12.0958396505685,11.9464025749012));
#471=CARTESIAN_POINT('Ctrl Pts',(-0.805155504959556,-11.9887463698451,12.0532468360077));
#472=CARTESIAN_POINT('Ctrl Pts',(-0.422171419037454,-11.8405015708422,12.1989065236689));
#473=CARTESIAN_POINT('Ctrl Pts',(-0.207411016938387,-11.8,12.2376468326227));
#474=CARTESIAN_POINT('Ctrl Pts',(-2.42861286636753E-16,-11.8,12.2376468326227));
#475=CARTESIAN_POINT('',(-1.7,-13.5,-10.3319891598859));
#476=CARTESIAN_POINT('',(-1.7,-13.5,17.));
#477=CARTESIAN_POINT('',(0.,-11.8,-12.2376468326227));
#478=CARTESIAN_POINT('Ctrl Pts',(0.,-11.8,-12.2376468326227));
#479=CARTESIAN_POINT('Ctrl Pts',(-0.207411016938386,-11.8,-12.2376468326227));
#480=CARTESIAN_POINT('Ctrl Pts',(-0.422171419037454,-11.8405015708422,-12.1989065236689));
#481=CARTESIAN_POINT('Ctrl Pts',(-0.805155504959556,-11.9887463698451,-12.0532468360077));
#482=CARTESIAN_POINT('Ctrl Pts',(-0.973659008086139,-12.0958396505685,-11.9464025749012));
#483=CARTESIAN_POINT('Ctrl Pts',(-1.3167389906705,-12.38910915881,-11.6437908177899));
#484=CARTESIAN_POINT('Ctrl Pts',(-1.46993207350831,-12.6112413664954,-11.4050958774522));
#485=CARTESIAN_POINT('Ctrl Pts',(-1.66165340626585,-13.0646844728668,-10.8827221470108));
#486=CARTESIAN_POINT('Ctrl Pts',(-1.7,-13.2957973008072,-10.598804813333));
#487=CARTESIAN_POINT('Ctrl Pts',(-1.7,-13.5,-10.3319891598859));
#488=CARTESIAN_POINT('Ctrl Pts',(-1.7,-13.5,-10.3319891598859));
#489=CARTESIAN_POINT('Ctrl Pts',(-1.7,-13.7454248673109,-10.0113117320039));
#490=CARTESIAN_POINT('Ctrl Pts',(-1.64511751462132,-13.9988897096253,-9.65448273706596));
#491=CARTESIAN_POINT('Ctrl Pts',(-1.42574171228533,-14.4605018103321,-8.94828679636044));
#492=CARTESIAN_POINT('Ctrl Pts',(-1.26356192829635,-14.6691248238106,-8.59851417988123));
#493=CARTESIAN_POINT('Ctrl Pts',(-0.932149059012187,-14.9295995779601,-8.13285666479679));
#494=CARTESIAN_POINT('Ctrl Pts',(-0.782037484109918,-15.0212890884168,-7.96129358096977));
#495=CARTESIAN_POINT('Ctrl Pts',(-0.51645068258222,-15.1224205502365,-7.76645347621335));
#496=CARTESIAN_POINT('Ctrl Pts',(-0.421260863320739,-15.1501909904579,-7.71191037481279));
#497=CARTESIAN_POINT('Ctrl Pts',(-0.219100772613676,-15.1889611437788,-7.63526681794239));
#498=CARTESIAN_POINT('Ctrl Pts',(-0.112145531796354,-15.2,-7.61314652426971));
#499=CARTESIAN_POINT('Ctrl Pts',(0.112145531796354,-15.2,-7.61314652426971));
#500=CARTESIAN_POINT('Ctrl Pts',(0.219100772613677,-15.1889611437788,-7.63526681794239));
#501=CARTESIAN_POINT('Ctrl Pts',(0.421260863320741,-15.1501909904579,-7.71191037481279));
#502=CARTESIAN_POINT('Ctrl Pts',(0.516450682582223,-15.1224205502365,-7.76645347621334));
#503=CARTESIAN_POINT('Ctrl Pts',(0.782037484109921,-15.0212890884168,-7.96129358096977));
#504=CARTESIAN_POINT('Ctrl Pts',(0.932149059012187,-14.9295995779601,-8.13285666479679));
#505=CARTESIAN_POINT('Ctrl Pts',(1.26356192829635,-14.6691248238106,-8.59851417988123));
#506=CARTESIAN_POINT('Ctrl Pts',(1.42574171228533,-14.4605018103321,-8.94828679636044));
#507=CARTESIAN_POINT('Ctrl Pts',(1.64511751462132,-13.9988897096253,-9.65448273706596));
#508=CARTESIAN_POINT('Ctrl Pts',(1.7,-13.7454248673109,-10.0113117320039));
#509=CARTESIAN_POINT('Ctrl Pts',(1.7,-13.2957973008072,-10.598804813333));
#510=CARTESIAN_POINT('Ctrl Pts',(1.66165340626585,-13.0646844728668,-10.8827221470108));
#511=CARTESIAN_POINT('Ctrl Pts',(1.46993207350831,-12.6112413664954,-11.4050958774522));
#512=CARTESIAN_POINT('Ctrl Pts',(1.3167389906705,-12.38910915881,-11.6437908177899));
#513=CARTESIAN_POINT('Ctrl Pts',(0.973659008086138,-12.0958396505685,-11.9464025749012));
#514=CARTESIAN_POINT('Ctrl Pts',(0.805155504959555,-11.9887463698451,-12.0532468360077));
#515=CARTESIAN_POINT('Ctrl Pts',(0.422171419037455,-11.8405015708422,-12.1989065236689));
#516=CARTESIAN_POINT('Ctrl Pts',(0.207411016938387,-11.8,-12.2376468326227));
#517=CARTESIAN_POINT('Ctrl Pts',(-6.93889390390723E-17,-11.8,-12.2376468326227));
#518=CARTESIAN_POINT('Origin',(-7.,-8.7,0.));
#519=CARTESIAN_POINT('',(-7.,-0.4,-16.9952934661335));
#520=CARTESIAN_POINT('',(-7.,-0.4,16.9952934661335));
#521=CARTESIAN_POINT('Origin',(-7.,0.,0.));
#522=CARTESIAN_POINT('',(-7.,-0.4,20.));
#523=CARTESIAN_POINT('Origin',(0.,-0.4,-16.9952934661335));
#524=CARTESIAN_POINT('',(7.,-0.4,16.9952934661335));
#525=CARTESIAN_POINT('',(0.,-0.4,16.9952934661335));
#526=CARTESIAN_POINT('',(7.,-0.4,-16.9952934661335));
#527=CARTESIAN_POINT('',(7.,-0.4,20.));
#528=CARTESIAN_POINT('',(0.,-0.4,-16.9952934661335));
#529=CARTESIAN_POINT('Origin',(0.,0.,0.));
#530=CARTESIAN_POINT('Origin',(7.,0.,0.));
#531=CARTESIAN_POINT('Origin',(7.,-8.7,0.));
#532=UNCERTAINTY_MEASURE_WITH_UNIT(LENGTH_MEASURE(0.01),#536,
'DISTANCE_ACCURACY_VALUE',
'Maximum model space distance between geometric entities at asserted c
onnectivities');
#533=UNCERTAINTY_MEASURE_WITH_UNIT(LENGTH_MEASURE(0.01),#536,
'DISTANCE_ACCURACY_VALUE',
'Maximum model space distance between geometric entities at asserted c
onnectivities');
#534=(
GEOMETRIC_REPRESENTATION_CONTEXT(3)
GLOBAL_UNCERTAINTY_ASSIGNED_CONTEXT((#532))
GLOBAL_UNIT_ASSIGNED_CONTEXT((#536,#538,#539))
REPRESENTATION_CONTEXT('','3D')
);
#535=(
GEOMETRIC_REPRESENTATION_CONTEXT(3)
GLOBAL_UNCERTAINTY_ASSIGNED_CONTEXT((#533))
GLOBAL_UNIT_ASSIGNED_CONTEXT((#536,#538,#539))
REPRESENTATION_CONTEXT('','3D')
);
#536=(
LENGTH_UNIT()
NAMED_UNIT(*)
SI_UNIT(.MILLI.,.METRE.)
);
#537=(
LENGTH_UNIT()
NAMED_UNIT(*)
SI_UNIT($,.METRE.)
);
#538=(
NAMED_UNIT(*)
PLANE_ANGLE_UNIT()
SI_UNIT($,.RADIAN.)
);
#539=(
NAMED_UNIT(*)
SI_UNIT($,.STERADIAN.)
SOLID_ANGLE_UNIT()
);
#540=SHAPE_DEFINITION_REPRESENTATION(#541,#542);
#541=PRODUCT_DEFINITION_SHAPE('',$,#544);
#542=SHAPE_REPRESENTATION('',(#233),#534);
#543=PRODUCT_DEFINITION_CONTEXT('part definition',#548,'design');
#544=PRODUCT_DEFINITION('02_Colar_Bipartido_Eixo_Ima_3D',
'02_Colar_Bipartido_Eixo_Ima_3D v1',#545,#543);
#545=PRODUCT_DEFINITION_FORMATION('',$,#550);
#546=PRODUCT_RELATED_PRODUCT_CATEGORY(
'02_Colar_Bipartido_Eixo_Ima_3D v1','02_Colar_Bipartido_Eixo_Ima_3D v1',
(#550));
#547=APPLICATION_PROTOCOL_DEFINITION('international standard',
'automotive_design',2009,#548);
#548=APPLICATION_CONTEXT(
'Core Data for Automotive Mechanical Design Process');
#549=PRODUCT_CONTEXT('part definition',#548,'mechanical');
#550=PRODUCT('02_Colar_Bipartido_Eixo_Ima_3D',
'02_Colar_Bipartido_Eixo_Ima_3D v1',$,(#549));
#551=PRESENTATION_STYLE_ASSIGNMENT((#553));
#552=PRESENTATION_STYLE_ASSIGNMENT((#554));
#553=SURFACE_STYLE_USAGE(.BOTH.,#555);
#554=SURFACE_STYLE_USAGE(.BOTH.,#556);
#555=SURFACE_SIDE_STYLE('',(#557));
#556=SURFACE_SIDE_STYLE('',(#558));
#557=SURFACE_STYLE_FILL_AREA(#559);
#558=SURFACE_STYLE_FILL_AREA(#560);
#559=FILL_AREA_STYLE('A\X\E7o - Acetinado',(#561));
#560=FILL_AREA_STYLE('Mat_PETG_Laranja_3D',(#562));
#561=FILL_AREA_STYLE_COLOUR('A\X\E7o - Acetinado',#563);
#562=FILL_AREA_STYLE_COLOUR('Mat_PETG_Laranja_3D',#564);
#563=COLOUR_RGB('A\X\E7o - Acetinado',0.627450980392157,0.627450980392157,
0.627450980392157);
#564=COLOUR_RGB('Mat_PETG_Laranja_3D',0.941176470588235,0.450980392156863,
0.0980392156862745);
ENDSEC;
END-ISO-10303-21;
