%TF.GenerationSoftware,KiCad,Pcbnew,9.0.7*%
%TF.CreationDate,2026-09-03T11:58:32-03:00*%
%TF.ProjectId,amemiya_probe_sensor,616d656d-6979-4615-9f70-726f62655f73,v35.0*%
%TF.SameCoordinates,Original*%
%TF.FileFunction,Copper,L1,Top*%
%TF.FilePolarity,Positive*%
%FSLAX46Y46*%
G04 Gerber Fmt 4.6, Leading zero omitted, Abs format (unit mm)*
G04 Created by KiCad (PCBNEW 9.0.7) date 2026-09-03 11:58:32*
%MOMM*%
%LPD*%
G01*
G04 APERTURE LIST*
%TA.AperFunction,ComponentPad*%
%ADD10R,1.800000X1.800000*%
%TD*%
%TA.AperFunction,ComponentPad*%
%ADD11C,1.800000*%
%TD*%
%TA.AperFunction,Conductor*%
%ADD12C,0.400000*%
%TD*%
%TA.AperFunction,Conductor*%
%ADD13C,0.350000*%
%TD*%
G04 APERTURE END LIST*
D10*
%TO.P,J_MIC,1*%
%TO.N,GND*%
X15190000Y-17460000D03*
D11*
%TO.P,J_MIC,2*%
%TO.N,I2S_WS*%
X15190000Y-20000000D03*
%TO.P,J_MIC,3*%
%TO.N,I2S_SCK*%
X15190000Y-22540000D03*
%TO.P,J_MIC,4*%
%TO.N,GND*%
X22810000Y-17460000D03*
%TO.P,J_MIC,5*%
%TO.N,+3V3*%
X22810000Y-20000000D03*
%TO.P,J_MIC,6*%
%TO.N,I2S_SD*%
X22810000Y-22540000D03*
%TD*%
D10*
%TO.P,R1,1*%
%TO.N,+3V3*%
X26190000Y-6500000D03*
D11*
%TO.P,R1,2*%
%TO.N,1W_DQ*%
X33810000Y-6500000D03*
%TD*%
D10*
%TO.P,J_CABLE,1*%
%TO.N,+3V3*%
X39000000Y-10110000D03*
D11*
%TO.P,J_CABLE,2*%
%TO.N,GND*%
X39000000Y-12649999D03*
%TO.P,J_CABLE,3*%
%TO.N,1W_DQ*%
X39000000Y-15190000D03*
%TO.P,J_CABLE,4*%
%TO.N,I2S_SD*%
X39000000Y-17730000D03*
%TO.P,J_CABLE,5*%
%TO.N,I2S_SCK*%
X39000000Y-20270000D03*
%TO.P,J_CABLE,6*%
%TO.N,I2S_WS*%
X39000000Y-22810000D03*
%TO.P,J_CABLE,7*%
%TO.N,I2C_SCL*%
X39000000Y-25350000D03*
%TO.P,J_CABLE,8*%
%TO.N,I2C_SDA*%
X39000000Y-27890000D03*
%TD*%
D10*
%TO.P,C1,1*%
%TO.N,+3V3*%
X17730000Y-6500000D03*
D11*
%TO.P,C1,2*%
%TO.N,GND*%
X20270000Y-6500000D03*
%TD*%
D10*
%TO.P,J_TEMP,1*%
%TO.N,+3V3*%
X30000000Y-10460000D03*
D11*
%TO.P,J_TEMP,2*%
%TO.N,GND*%
X30000000Y-13000000D03*
%TO.P,J_TEMP,3*%
%TO.N,1W_DQ*%
X30000000Y-15540000D03*
%TD*%
D10*
%TO.P,J_ADXL,1*%
%TO.N,GND*%
X9000000Y-10110000D03*
D11*
%TO.P,J_ADXL,2*%
%TO.N,+3V3*%
X9000000Y-12649999D03*
%TO.P,J_ADXL,3*%
X9000000Y-15190000D03*
%TO.P,J_ADXL,4*%
%TO.N,N/C*%
X9000000Y-17730000D03*
%TO.P,J_ADXL,5*%
X9000000Y-20270000D03*
%TO.P,J_ADXL,6*%
%TO.N,GND*%
X9000000Y-22810000D03*
%TO.P,J_ADXL,7*%
%TO.N,I2C_SDA*%
X9000000Y-25350000D03*
%TO.P,J_ADXL,8*%
%TO.N,I2C_SCL*%
X9000000Y-27890000D03*
%TD*%
D12*
%TO.N,+3V3*%
X9000000Y-12649999D02*
X9000000Y-15190000D01*
D13*
%TO.N,1W_DQ*%
X30000000Y-15540000D02*
X33810000Y-15540000D01*
X33810000Y-15190000D02*
X39000000Y-15190000D01*
X33810000Y-15540000D02*
X33810000Y-6500000D01*
X33810000Y-15540000D02*
X33810000Y-15190000D01*
%TO.N,I2S_SD*%
X26000000Y-17730000D02*
X39000000Y-17730000D01*
X22810000Y-22540000D02*
X26000000Y-22540000D01*
X26000000Y-22540000D02*
X26000000Y-17730000D01*
%TO.N,I2S_SCK*%
X13000000Y-25500000D02*
X34000000Y-25500000D01*
X34000000Y-25500000D02*
X34000000Y-20270000D01*
X15190000Y-22540000D02*
X13000000Y-22540000D01*
X34000000Y-20270000D02*
X39000000Y-20270000D01*
X13000000Y-22540000D02*
X13000000Y-25500000D01*
%TO.N,I2S_WS*%
X35500000Y-27500000D02*
X35500000Y-22810000D01*
X35500000Y-22810000D02*
X39000000Y-22810000D01*
X15190000Y-20000000D02*
X11500000Y-20000000D01*
X11500000Y-20000000D02*
X11500000Y-27500000D01*
X11500000Y-27500000D02*
X35500000Y-27500000D01*
%TO.N,I2C_SCL*%
X9000000Y-29500000D02*
X37000000Y-29500000D01*
X37000000Y-29500000D02*
X37000000Y-25350000D01*
X37000000Y-25350000D02*
X39000000Y-25350000D01*
X9000000Y-27890000D02*
X9000000Y-29500000D01*
%TO.N,I2C_SDA*%
X9000000Y-25350000D02*
X7500000Y-25350000D01*
X7500000Y-25350000D02*
X7500000Y-31500000D01*
X39000000Y-31500000D02*
X39000000Y-27890000D01*
X7500000Y-31500000D02*
X39000000Y-31500000D01*
%TD*%
M02*
