%TF.GenerationSoftware,KiCad,Pcbnew,9.0.7*%
%TF.CreationDate,2026-09-02T18:41:25-03:00*%
%TF.ProjectId,amemiya_probe_sensor,616d656d-6979-4615-9f70-726f62655f73,v29.0*%
%TF.SameCoordinates,Original*%
%TF.FileFunction,Legend,Top*%
%TF.FilePolarity,Positive*%
%FSLAX46Y46*%
G04 Gerber Fmt 4.6, Leading zero omitted, Abs format (unit mm)*
G04 Created by KiCad (PCBNEW 9.0.7) date 2026-09-02 18:41:25*
%MOMM*%
%LPD*%
G01*
G04 APERTURE LIST*
%ADD10C,0.150000*%
G04 APERTURE END LIST*
D10*
X19500000Y-27850000D02*
X16500000Y-27850000D01*
X10500000Y-9610000D02*
X10500000Y-30390000D01*
X19500000Y-5500000D02*
X24500000Y-5500000D01*
X24500000Y-8500000D02*
X19500000Y-8500000D01*
X34500000Y-11150000D02*
X37500000Y-11150000D01*
X25500000Y-18040000D02*
X25500000Y-9960000D01*
X25800000Y-22500000D02*
X28200000Y-22500000D01*
X25800000Y-27500000D02*
X25800000Y-22500000D01*
X28200000Y-22500000D02*
X28200000Y-27500000D01*
X7500000Y-30390000D02*
X7500000Y-9610000D01*
X37500000Y-11150000D02*
X37500000Y-26850000D01*
X28200000Y-27500000D02*
X25800000Y-27500000D01*
X19500000Y-8500000D02*
X19500000Y-5500000D01*
X34500000Y-26850000D02*
X34500000Y-11150000D01*
X7500000Y-9610000D02*
X10500000Y-9610000D01*
X37500000Y-26850000D02*
X34500000Y-26850000D01*
X24500000Y-5500000D02*
X24500000Y-8500000D01*
X19500000Y-12150000D02*
X19500000Y-27850000D01*
X28500000Y-9960000D02*
X28500000Y-18040000D01*
X28500000Y-18040000D02*
X25500000Y-18040000D01*
X16500000Y-12150000D02*
X19500000Y-12150000D01*
X25500000Y-9960000D02*
X28500000Y-9960000D01*
X10500000Y-30390000D02*
X7500000Y-30390000D01*
X16500000Y-27850000D02*
X16500000Y-12150000D01*
X20985714Y-19402295D02*
X20985714Y-18602295D01*
X20985714Y-18602295D02*
X21176190Y-18602295D01*
X21176190Y-18602295D02*
X21290476Y-18640390D01*
X21290476Y-18640390D02*
X21366666Y-18716580D01*
X21366666Y-18716580D02*
X21404761Y-18792771D01*
X21404761Y-18792771D02*
X21442857Y-18945152D01*
X21442857Y-18945152D02*
X21442857Y-19059438D01*
X21442857Y-19059438D02*
X21404761Y-19211819D01*
X21404761Y-19211819D02*
X21366666Y-19288009D01*
X21366666Y-19288009D02*
X21290476Y-19364200D01*
X21290476Y-19364200D02*
X21176190Y-19402295D01*
X21176190Y-19402295D02*
X20985714Y-19402295D01*
X21747618Y-19364200D02*
X21861904Y-19402295D01*
X21861904Y-19402295D02*
X22052380Y-19402295D01*
X22052380Y-19402295D02*
X22128571Y-19364200D01*
X22128571Y-19364200D02*
X22166666Y-19326104D01*
X22166666Y-19326104D02*
X22204761Y-19249914D01*
X22204761Y-19249914D02*
X22204761Y-19173723D01*
X22204761Y-19173723D02*
X22166666Y-19097533D01*
X22166666Y-19097533D02*
X22128571Y-19059438D01*
X22128571Y-19059438D02*
X22052380Y-19021342D01*
X22052380Y-19021342D02*
X21899999Y-18983247D01*
X21899999Y-18983247D02*
X21823809Y-18945152D01*
X21823809Y-18945152D02*
X21785714Y-18907057D01*
X21785714Y-18907057D02*
X21747618Y-18830866D01*
X21747618Y-18830866D02*
X21747618Y-18754676D01*
X21747618Y-18754676D02*
X21785714Y-18678485D01*
X21785714Y-18678485D02*
X21823809Y-18640390D01*
X21823809Y-18640390D02*
X21899999Y-18602295D01*
X21899999Y-18602295D02*
X22090476Y-18602295D01*
X22090476Y-18602295D02*
X22204761Y-18640390D01*
X22966666Y-19402295D02*
X22509523Y-19402295D01*
X22738095Y-19402295D02*
X22738095Y-18602295D01*
X22738095Y-18602295D02*
X22661904Y-18716580D01*
X22661904Y-18716580D02*
X22585714Y-18792771D01*
X22585714Y-18792771D02*
X22509523Y-18830866D01*
X23423809Y-18945152D02*
X23347619Y-18907057D01*
X23347619Y-18907057D02*
X23309524Y-18868961D01*
X23309524Y-18868961D02*
X23271428Y-18792771D01*
X23271428Y-18792771D02*
X23271428Y-18754676D01*
X23271428Y-18754676D02*
X23309524Y-18678485D01*
X23309524Y-18678485D02*
X23347619Y-18640390D01*
X23347619Y-18640390D02*
X23423809Y-18602295D01*
X23423809Y-18602295D02*
X23576190Y-18602295D01*
X23576190Y-18602295D02*
X23652381Y-18640390D01*
X23652381Y-18640390D02*
X23690476Y-18678485D01*
X23690476Y-18678485D02*
X23728571Y-18754676D01*
X23728571Y-18754676D02*
X23728571Y-18792771D01*
X23728571Y-18792771D02*
X23690476Y-18868961D01*
X23690476Y-18868961D02*
X23652381Y-18907057D01*
X23652381Y-18907057D02*
X23576190Y-18945152D01*
X23576190Y-18945152D02*
X23423809Y-18945152D01*
X23423809Y-18945152D02*
X23347619Y-18983247D01*
X23347619Y-18983247D02*
X23309524Y-19021342D01*
X23309524Y-19021342D02*
X23271428Y-19097533D01*
X23271428Y-19097533D02*
X23271428Y-19249914D01*
X23271428Y-19249914D02*
X23309524Y-19326104D01*
X23309524Y-19326104D02*
X23347619Y-19364200D01*
X23347619Y-19364200D02*
X23423809Y-19402295D01*
X23423809Y-19402295D02*
X23576190Y-19402295D01*
X23576190Y-19402295D02*
X23652381Y-19364200D01*
X23652381Y-19364200D02*
X23690476Y-19326104D01*
X23690476Y-19326104D02*
X23728571Y-19249914D01*
X23728571Y-19249914D02*
X23728571Y-19097533D01*
X23728571Y-19097533D02*
X23690476Y-19021342D01*
X23690476Y-19021342D02*
X23652381Y-18983247D01*
X23652381Y-18983247D02*
X23576190Y-18945152D01*
X24338095Y-18983247D02*
X24452381Y-19021342D01*
X24452381Y-19021342D02*
X24490476Y-19059438D01*
X24490476Y-19059438D02*
X24528572Y-19135628D01*
X24528572Y-19135628D02*
X24528572Y-19249914D01*
X24528572Y-19249914D02*
X24490476Y-19326104D01*
X24490476Y-19326104D02*
X24452381Y-19364200D01*
X24452381Y-19364200D02*
X24376191Y-19402295D01*
X24376191Y-19402295D02*
X24071429Y-19402295D01*
X24071429Y-19402295D02*
X24071429Y-18602295D01*
X24071429Y-18602295D02*
X24338095Y-18602295D01*
X24338095Y-18602295D02*
X24414286Y-18640390D01*
X24414286Y-18640390D02*
X24452381Y-18678485D01*
X24452381Y-18678485D02*
X24490476Y-18754676D01*
X24490476Y-18754676D02*
X24490476Y-18830866D01*
X24490476Y-18830866D02*
X24452381Y-18907057D01*
X24452381Y-18907057D02*
X24414286Y-18945152D01*
X24414286Y-18945152D02*
X24338095Y-18983247D01*
X24338095Y-18983247D02*
X24071429Y-18983247D01*
X24833333Y-18678485D02*
X24871429Y-18640390D01*
X24871429Y-18640390D02*
X24947619Y-18602295D01*
X24947619Y-18602295D02*
X25138095Y-18602295D01*
X25138095Y-18602295D02*
X25214286Y-18640390D01*
X25214286Y-18640390D02*
X25252381Y-18678485D01*
X25252381Y-18678485D02*
X25290476Y-18754676D01*
X25290476Y-18754676D02*
X25290476Y-18830866D01*
X25290476Y-18830866D02*
X25252381Y-18945152D01*
X25252381Y-18945152D02*
X24795238Y-19402295D01*
X24795238Y-19402295D02*
X25290476Y-19402295D01*
X25785715Y-18602295D02*
X25861905Y-18602295D01*
X25861905Y-18602295D02*
X25938096Y-18640390D01*
X25938096Y-18640390D02*
X25976191Y-18678485D01*
X25976191Y-18678485D02*
X26014286Y-18754676D01*
X26014286Y-18754676D02*
X26052381Y-18907057D01*
X26052381Y-18907057D02*
X26052381Y-19097533D01*
X26052381Y-19097533D02*
X26014286Y-19249914D01*
X26014286Y-19249914D02*
X25976191Y-19326104D01*
X25976191Y-19326104D02*
X25938096Y-19364200D01*
X25938096Y-19364200D02*
X25861905Y-19402295D01*
X25861905Y-19402295D02*
X25785715Y-19402295D01*
X25785715Y-19402295D02*
X25709524Y-19364200D01*
X25709524Y-19364200D02*
X25671429Y-19326104D01*
X25671429Y-19326104D02*
X25633334Y-19249914D01*
X25633334Y-19249914D02*
X25595238Y-19097533D01*
X25595238Y-19097533D02*
X25595238Y-18907057D01*
X25595238Y-18907057D02*
X25633334Y-18754676D01*
X25633334Y-18754676D02*
X25671429Y-18678485D01*
X25671429Y-18678485D02*
X25709524Y-18640390D01*
X25709524Y-18640390D02*
X25785715Y-18602295D01*
X20866667Y-9786104D02*
X20828571Y-9824200D01*
X20828571Y-9824200D02*
X20714286Y-9862295D01*
X20714286Y-9862295D02*
X20638095Y-9862295D01*
X20638095Y-9862295D02*
X20523809Y-9824200D01*
X20523809Y-9824200D02*
X20447619Y-9748009D01*
X20447619Y-9748009D02*
X20409524Y-9671819D01*
X20409524Y-9671819D02*
X20371428Y-9519438D01*
X20371428Y-9519438D02*
X20371428Y-9405152D01*
X20371428Y-9405152D02*
X20409524Y-9252771D01*
X20409524Y-9252771D02*
X20447619Y-9176580D01*
X20447619Y-9176580D02*
X20523809Y-9100390D01*
X20523809Y-9100390D02*
X20638095Y-9062295D01*
X20638095Y-9062295D02*
X20714286Y-9062295D01*
X20714286Y-9062295D02*
X20828571Y-9100390D01*
X20828571Y-9100390D02*
X20866667Y-9138485D01*
X21628571Y-9862295D02*
X21171428Y-9862295D01*
X21400000Y-9862295D02*
X21400000Y-9062295D01*
X21400000Y-9062295D02*
X21323809Y-9176580D01*
X21323809Y-9176580D02*
X21247619Y-9252771D01*
X21247619Y-9252771D02*
X21171428Y-9290866D01*
X31619047Y-9450390D02*
X31542857Y-9412295D01*
X31542857Y-9412295D02*
X31428571Y-9412295D01*
X31428571Y-9412295D02*
X31314285Y-9450390D01*
X31314285Y-9450390D02*
X31238095Y-9526580D01*
X31238095Y-9526580D02*
X31200000Y-9602771D01*
X31200000Y-9602771D02*
X31161904Y-9755152D01*
X31161904Y-9755152D02*
X31161904Y-9869438D01*
X31161904Y-9869438D02*
X31200000Y-10021819D01*
X31200000Y-10021819D02*
X31238095Y-10098009D01*
X31238095Y-10098009D02*
X31314285Y-10174200D01*
X31314285Y-10174200D02*
X31428571Y-10212295D01*
X31428571Y-10212295D02*
X31504762Y-10212295D01*
X31504762Y-10212295D02*
X31619047Y-10174200D01*
X31619047Y-10174200D02*
X31657143Y-10136104D01*
X31657143Y-10136104D02*
X31657143Y-9869438D01*
X31657143Y-9869438D02*
X31504762Y-9869438D01*
X31923809Y-9412295D02*
X32457143Y-10212295D01*
X32457143Y-9412295D02*
X31923809Y-10212295D01*
X33180952Y-10212295D02*
X32723809Y-10212295D01*
X32952381Y-10212295D02*
X32952381Y-9412295D01*
X32952381Y-9412295D02*
X32876190Y-9526580D01*
X32876190Y-9526580D02*
X32800000Y-9602771D01*
X32800000Y-9602771D02*
X32723809Y-9640866D01*
X33485714Y-9488485D02*
X33523810Y-9450390D01*
X33523810Y-9450390D02*
X33600000Y-9412295D01*
X33600000Y-9412295D02*
X33790476Y-9412295D01*
X33790476Y-9412295D02*
X33866667Y-9450390D01*
X33866667Y-9450390D02*
X33904762Y-9488485D01*
X33904762Y-9488485D02*
X33942857Y-9564676D01*
X33942857Y-9564676D02*
X33942857Y-9640866D01*
X33942857Y-9640866D02*
X33904762Y-9755152D01*
X33904762Y-9755152D02*
X33447619Y-10212295D01*
X33447619Y-10212295D02*
X33942857Y-10212295D01*
X35047620Y-9412295D02*
X35200001Y-9412295D01*
X35200001Y-9412295D02*
X35276191Y-9450390D01*
X35276191Y-9450390D02*
X35352382Y-9526580D01*
X35352382Y-9526580D02*
X35390477Y-9678961D01*
X35390477Y-9678961D02*
X35390477Y-9945628D01*
X35390477Y-9945628D02*
X35352382Y-10098009D01*
X35352382Y-10098009D02*
X35276191Y-10174200D01*
X35276191Y-10174200D02*
X35200001Y-10212295D01*
X35200001Y-10212295D02*
X35047620Y-10212295D01*
X35047620Y-10212295D02*
X34971429Y-10174200D01*
X34971429Y-10174200D02*
X34895239Y-10098009D01*
X34895239Y-10098009D02*
X34857143Y-9945628D01*
X34857143Y-9945628D02*
X34857143Y-9678961D01*
X34857143Y-9678961D02*
X34895239Y-9526580D01*
X34895239Y-9526580D02*
X34971429Y-9450390D01*
X34971429Y-9450390D02*
X35047620Y-9412295D01*
X35733334Y-9412295D02*
X35733334Y-10059914D01*
X35733334Y-10059914D02*
X35771429Y-10136104D01*
X35771429Y-10136104D02*
X35809524Y-10174200D01*
X35809524Y-10174200D02*
X35885715Y-10212295D01*
X35885715Y-10212295D02*
X36038096Y-10212295D01*
X36038096Y-10212295D02*
X36114286Y-10174200D01*
X36114286Y-10174200D02*
X36152381Y-10136104D01*
X36152381Y-10136104D02*
X36190477Y-10059914D01*
X36190477Y-10059914D02*
X36190477Y-9412295D01*
X36457143Y-9412295D02*
X36914286Y-9412295D01*
X36685714Y-10212295D02*
X36685714Y-9412295D01*
X3895238Y-8672294D02*
X3895238Y-7872294D01*
X3895238Y-7872294D02*
X4161904Y-8443722D01*
X4161904Y-8443722D02*
X4428571Y-7872294D01*
X4428571Y-7872294D02*
X4428571Y-8672294D01*
X4809524Y-8672294D02*
X4809524Y-7872294D01*
X4809524Y-7872294D02*
X5114286Y-7872294D01*
X5114286Y-7872294D02*
X5190476Y-7910389D01*
X5190476Y-7910389D02*
X5228571Y-7948484D01*
X5228571Y-7948484D02*
X5266667Y-8024675D01*
X5266667Y-8024675D02*
X5266667Y-8138960D01*
X5266667Y-8138960D02*
X5228571Y-8215151D01*
X5228571Y-8215151D02*
X5190476Y-8253246D01*
X5190476Y-8253246D02*
X5114286Y-8291341D01*
X5114286Y-8291341D02*
X4809524Y-8291341D01*
X5609524Y-7872294D02*
X5609524Y-8519913D01*
X5609524Y-8519913D02*
X5647619Y-8596103D01*
X5647619Y-8596103D02*
X5685714Y-8634199D01*
X5685714Y-8634199D02*
X5761905Y-8672294D01*
X5761905Y-8672294D02*
X5914286Y-8672294D01*
X5914286Y-8672294D02*
X5990476Y-8634199D01*
X5990476Y-8634199D02*
X6028571Y-8596103D01*
X6028571Y-8596103D02*
X6066667Y-8519913D01*
X6066667Y-8519913D02*
X6066667Y-7872294D01*
X6447619Y-8367532D02*
X7057143Y-8367532D01*
X7780952Y-7872294D02*
X7628571Y-7872294D01*
X7628571Y-7872294D02*
X7552380Y-7910389D01*
X7552380Y-7910389D02*
X7514285Y-7948484D01*
X7514285Y-7948484D02*
X7438095Y-8062770D01*
X7438095Y-8062770D02*
X7399999Y-8215151D01*
X7399999Y-8215151D02*
X7399999Y-8519913D01*
X7399999Y-8519913D02*
X7438095Y-8596103D01*
X7438095Y-8596103D02*
X7476190Y-8634199D01*
X7476190Y-8634199D02*
X7552380Y-8672294D01*
X7552380Y-8672294D02*
X7704761Y-8672294D01*
X7704761Y-8672294D02*
X7780952Y-8634199D01*
X7780952Y-8634199D02*
X7819047Y-8596103D01*
X7819047Y-8596103D02*
X7857142Y-8519913D01*
X7857142Y-8519913D02*
X7857142Y-8329437D01*
X7857142Y-8329437D02*
X7819047Y-8253246D01*
X7819047Y-8253246D02*
X7780952Y-8215151D01*
X7780952Y-8215151D02*
X7704761Y-8177056D01*
X7704761Y-8177056D02*
X7552380Y-8177056D01*
X7552380Y-8177056D02*
X7476190Y-8215151D01*
X7476190Y-8215151D02*
X7438095Y-8253246D01*
X7438095Y-8253246D02*
X7399999Y-8329437D01*
X8352381Y-7872294D02*
X8428571Y-7872294D01*
X8428571Y-7872294D02*
X8504762Y-7910389D01*
X8504762Y-7910389D02*
X8542857Y-7948484D01*
X8542857Y-7948484D02*
X8580952Y-8024675D01*
X8580952Y-8024675D02*
X8619047Y-8177056D01*
X8619047Y-8177056D02*
X8619047Y-8367532D01*
X8619047Y-8367532D02*
X8580952Y-8519913D01*
X8580952Y-8519913D02*
X8542857Y-8596103D01*
X8542857Y-8596103D02*
X8504762Y-8634199D01*
X8504762Y-8634199D02*
X8428571Y-8672294D01*
X8428571Y-8672294D02*
X8352381Y-8672294D01*
X8352381Y-8672294D02*
X8276190Y-8634199D01*
X8276190Y-8634199D02*
X8238095Y-8596103D01*
X8238095Y-8596103D02*
X8200000Y-8519913D01*
X8200000Y-8519913D02*
X8161904Y-8367532D01*
X8161904Y-8367532D02*
X8161904Y-8177056D01*
X8161904Y-8177056D02*
X8200000Y-8024675D01*
X8200000Y-8024675D02*
X8238095Y-7948484D01*
X8238095Y-7948484D02*
X8276190Y-7910389D01*
X8276190Y-7910389D02*
X8352381Y-7872294D01*
X9342857Y-7872294D02*
X8961905Y-7872294D01*
X8961905Y-7872294D02*
X8923809Y-8253246D01*
X8923809Y-8253246D02*
X8961905Y-8215151D01*
X8961905Y-8215151D02*
X9038095Y-8177056D01*
X9038095Y-8177056D02*
X9228571Y-8177056D01*
X9228571Y-8177056D02*
X9304762Y-8215151D01*
X9304762Y-8215151D02*
X9342857Y-8253246D01*
X9342857Y-8253246D02*
X9380952Y-8329437D01*
X9380952Y-8329437D02*
X9380952Y-8519913D01*
X9380952Y-8519913D02*
X9342857Y-8596103D01*
X9342857Y-8596103D02*
X9304762Y-8634199D01*
X9304762Y-8634199D02*
X9228571Y-8672294D01*
X9228571Y-8672294D02*
X9038095Y-8672294D01*
X9038095Y-8672294D02*
X8961905Y-8634199D01*
X8961905Y-8634199D02*
X8923809Y-8596103D01*
X9876191Y-7872294D02*
X9952381Y-7872294D01*
X9952381Y-7872294D02*
X10028572Y-7910389D01*
X10028572Y-7910389D02*
X10066667Y-7948484D01*
X10066667Y-7948484D02*
X10104762Y-8024675D01*
X10104762Y-8024675D02*
X10142857Y-8177056D01*
X10142857Y-8177056D02*
X10142857Y-8367532D01*
X10142857Y-8367532D02*
X10104762Y-8519913D01*
X10104762Y-8519913D02*
X10066667Y-8596103D01*
X10066667Y-8596103D02*
X10028572Y-8634199D01*
X10028572Y-8634199D02*
X9952381Y-8672294D01*
X9952381Y-8672294D02*
X9876191Y-8672294D01*
X9876191Y-8672294D02*
X9800000Y-8634199D01*
X9800000Y-8634199D02*
X9761905Y-8596103D01*
X9761905Y-8596103D02*
X9723810Y-8519913D01*
X9723810Y-8519913D02*
X9685714Y-8367532D01*
X9685714Y-8367532D02*
X9685714Y-8177056D01*
X9685714Y-8177056D02*
X9723810Y-8024675D01*
X9723810Y-8024675D02*
X9761905Y-7948484D01*
X9761905Y-7948484D02*
X9800000Y-7910389D01*
X9800000Y-7910389D02*
X9876191Y-7872294D01*
X27276190Y-24962295D02*
X27009523Y-24581342D01*
X26819047Y-24962295D02*
X26819047Y-24162295D01*
X26819047Y-24162295D02*
X27123809Y-24162295D01*
X27123809Y-24162295D02*
X27199999Y-24200390D01*
X27199999Y-24200390D02*
X27238094Y-24238485D01*
X27238094Y-24238485D02*
X27276190Y-24314676D01*
X27276190Y-24314676D02*
X27276190Y-24428961D01*
X27276190Y-24428961D02*
X27238094Y-24505152D01*
X27238094Y-24505152D02*
X27199999Y-24543247D01*
X27199999Y-24543247D02*
X27123809Y-24581342D01*
X27123809Y-24581342D02*
X26819047Y-24581342D01*
X28038094Y-24962295D02*
X27580951Y-24962295D01*
X27809523Y-24962295D02*
X27809523Y-24162295D01*
X27809523Y-24162295D02*
X27733332Y-24276580D01*
X27733332Y-24276580D02*
X27657142Y-24352771D01*
X27657142Y-24352771D02*
X27580951Y-24390866D01*
X29333333Y-24428961D02*
X29333333Y-24962295D01*
X29142857Y-24124200D02*
X28952380Y-24695628D01*
X28952380Y-24695628D02*
X29447619Y-24695628D01*
X29752381Y-24962295D02*
X29752381Y-24162295D01*
X29828571Y-24657533D02*
X30057143Y-24962295D01*
X30057143Y-24428961D02*
X29752381Y-24733723D01*
X30323809Y-24162295D02*
X30857143Y-24162295D01*
X30857143Y-24162295D02*
X30514285Y-24962295D01*
X14080952Y-11212295D02*
X14080952Y-10412295D01*
X14461904Y-11212295D02*
X14461904Y-10412295D01*
X14461904Y-10412295D02*
X14919047Y-11212295D01*
X14919047Y-11212295D02*
X14919047Y-10412295D01*
X15299999Y-11212295D02*
X15299999Y-10412295D01*
X15299999Y-10412295D02*
X15566665Y-10983723D01*
X15566665Y-10983723D02*
X15833332Y-10412295D01*
X15833332Y-10412295D02*
X15833332Y-11212295D01*
X16214285Y-11212295D02*
X16214285Y-10412295D01*
X16214285Y-10412295D02*
X16519047Y-10412295D01*
X16519047Y-10412295D02*
X16595237Y-10450390D01*
X16595237Y-10450390D02*
X16633332Y-10488485D01*
X16633332Y-10488485D02*
X16671428Y-10564676D01*
X16671428Y-10564676D02*
X16671428Y-10678961D01*
X16671428Y-10678961D02*
X16633332Y-10755152D01*
X16633332Y-10755152D02*
X16595237Y-10793247D01*
X16595237Y-10793247D02*
X16519047Y-10831342D01*
X16519047Y-10831342D02*
X16214285Y-10831342D01*
X17357142Y-10678961D02*
X17357142Y-11212295D01*
X17166666Y-10374200D02*
X16976189Y-10945628D01*
X16976189Y-10945628D02*
X17471428Y-10945628D01*
X18119047Y-10678961D02*
X18119047Y-11212295D01*
X17928571Y-10374200D02*
X17738094Y-10945628D01*
X17738094Y-10945628D02*
X18233333Y-10945628D01*
X18957142Y-11212295D02*
X18499999Y-11212295D01*
X18728571Y-11212295D02*
X18728571Y-10412295D01*
X18728571Y-10412295D02*
X18652380Y-10526580D01*
X18652380Y-10526580D02*
X18576190Y-10602771D01*
X18576190Y-10602771D02*
X18499999Y-10640866D01*
M02*
