M48
; DRILL file {KiCad 9.0.7} date 2026-09-02T18:41:26-0300
; FORMAT={-:-/ absolute / metric / decimal}
; #@! TF.CreationDate,2026-09-02T18:41:26-03:00
; #@! TF.GenerationSoftware,Kicad,Pcbnew,9.0.7
; #@! TF.FileFunction,Plated,1,2,PTH
FMAT,2
METRIC
; #@! TA.AperFunction,Plated,PTH,ComponentDrill
T1C0.850
; #@! TA.AperFunction,Plated,PTH,ComponentDrill
T2C1.000
%
G90
G05
T1
X20.73Y-7.0
X23.27Y-7.0
X27.0Y-21.19
X27.0Y-28.81
T2
X9.0Y-11.11
X9.0Y-13.65
X9.0Y-16.19
X9.0Y-18.73
X9.0Y-21.27
X9.0Y-23.81
X9.0Y-26.35
X9.0Y-28.89
X18.0Y-13.65
X18.0Y-16.19
X18.0Y-18.73
X18.0Y-21.27
X18.0Y-23.81
X18.0Y-26.35
X27.0Y-11.46
X27.0Y-14.0
X27.0Y-16.54
X36.0Y-12.65
X36.0Y-15.19
X36.0Y-17.73
X36.0Y-20.27
X36.0Y-22.81
X36.0Y-25.35
M30
