%TF.GenerationSoftware,KiCad,Pcbnew,9.0.7*%
%TF.CreationDate,2026-09-14T22:59:26-03:00*%
%TF.ProjectId,amemiya_main_node,616d656d-6979-4615-9f6d-61696e5f6e6f,v36.0*%
%TF.SameCoordinates,Original*%
%TF.FileFunction,Legend,Top*%
%TF.FilePolarity,Positive*%
%FSLAX46Y46*%
G04 Gerber Fmt 4.6, Leading zero omitted, Abs format (unit mm)*
G04 Created by KiCad (PCBNEW 9.0.7) date 2026-09-14 22:59:26*
%MOMM*%
%LPD*%
G01*
G04 APERTURE LIST*
%ADD10C,0.150000*%
%ADD11C,0.200000*%
G04 APERTURE END LIST*
D10*
X35309522Y-63454819D02*
X34738094Y-63454819D01*
X35023808Y-63454819D02*
X35023808Y-62454819D01*
X35023808Y-62454819D02*
X34928570Y-62597676D01*
X34928570Y-62597676D02*
X34833332Y-62692914D01*
X34833332Y-62692914D02*
X34738094Y-62740533D01*
X35928570Y-62454819D02*
X36023808Y-62454819D01*
X36023808Y-62454819D02*
X36119046Y-62502438D01*
X36119046Y-62502438D02*
X36166665Y-62550057D01*
X36166665Y-62550057D02*
X36214284Y-62645295D01*
X36214284Y-62645295D02*
X36261903Y-62835771D01*
X36261903Y-62835771D02*
X36261903Y-63073866D01*
X36261903Y-63073866D02*
X36214284Y-63264342D01*
X36214284Y-63264342D02*
X36166665Y-63359580D01*
X36166665Y-63359580D02*
X36119046Y-63407200D01*
X36119046Y-63407200D02*
X36023808Y-63454819D01*
X36023808Y-63454819D02*
X35928570Y-63454819D01*
X35928570Y-63454819D02*
X35833332Y-63407200D01*
X35833332Y-63407200D02*
X35785713Y-63359580D01*
X35785713Y-63359580D02*
X35738094Y-63264342D01*
X35738094Y-63264342D02*
X35690475Y-63073866D01*
X35690475Y-63073866D02*
X35690475Y-62835771D01*
X35690475Y-62835771D02*
X35738094Y-62645295D01*
X35738094Y-62645295D02*
X35785713Y-62550057D01*
X35785713Y-62550057D02*
X35833332Y-62502438D01*
X35833332Y-62502438D02*
X35928570Y-62454819D01*
X36880951Y-62454819D02*
X36976189Y-62454819D01*
X36976189Y-62454819D02*
X37071427Y-62502438D01*
X37071427Y-62502438D02*
X37119046Y-62550057D01*
X37119046Y-62550057D02*
X37166665Y-62645295D01*
X37166665Y-62645295D02*
X37214284Y-62835771D01*
X37214284Y-62835771D02*
X37214284Y-63073866D01*
X37214284Y-63073866D02*
X37166665Y-63264342D01*
X37166665Y-63264342D02*
X37119046Y-63359580D01*
X37119046Y-63359580D02*
X37071427Y-63407200D01*
X37071427Y-63407200D02*
X36976189Y-63454819D01*
X36976189Y-63454819D02*
X36880951Y-63454819D01*
X36880951Y-63454819D02*
X36785713Y-63407200D01*
X36785713Y-63407200D02*
X36738094Y-63359580D01*
X36738094Y-63359580D02*
X36690475Y-63264342D01*
X36690475Y-63264342D02*
X36642856Y-63073866D01*
X36642856Y-63073866D02*
X36642856Y-62835771D01*
X36642856Y-62835771D02*
X36690475Y-62645295D01*
X36690475Y-62645295D02*
X36738094Y-62550057D01*
X36738094Y-62550057D02*
X36785713Y-62502438D01*
X36785713Y-62502438D02*
X36880951Y-62454819D01*
X37595237Y-63454819D02*
X38357141Y-62454819D01*
X37738094Y-62454819D02*
X37833332Y-62502438D01*
X37833332Y-62502438D02*
X37880951Y-62597676D01*
X37880951Y-62597676D02*
X37833332Y-62692914D01*
X37833332Y-62692914D02*
X37738094Y-62740533D01*
X37738094Y-62740533D02*
X37642856Y-62692914D01*
X37642856Y-62692914D02*
X37595237Y-62597676D01*
X37595237Y-62597676D02*
X37642856Y-62502438D01*
X37642856Y-62502438D02*
X37738094Y-62454819D01*
X38309522Y-63407200D02*
X38357141Y-63311961D01*
X38357141Y-63311961D02*
X38309522Y-63216723D01*
X38309522Y-63216723D02*
X38214284Y-63169104D01*
X38214284Y-63169104D02*
X38119046Y-63216723D01*
X38119046Y-63216723D02*
X38071427Y-63311961D01*
X38071427Y-63311961D02*
X38119046Y-63407200D01*
X38119046Y-63407200D02*
X38214284Y-63454819D01*
X38214284Y-63454819D02*
X38309522Y-63407200D01*
X40119046Y-63454819D02*
X39785713Y-62978628D01*
X39547618Y-63454819D02*
X39547618Y-62454819D01*
X39547618Y-62454819D02*
X39928570Y-62454819D01*
X39928570Y-62454819D02*
X40023808Y-62502438D01*
X40023808Y-62502438D02*
X40071427Y-62550057D01*
X40071427Y-62550057D02*
X40119046Y-62645295D01*
X40119046Y-62645295D02*
X40119046Y-62788152D01*
X40119046Y-62788152D02*
X40071427Y-62883390D01*
X40071427Y-62883390D02*
X40023808Y-62931009D01*
X40023808Y-62931009D02*
X39928570Y-62978628D01*
X39928570Y-62978628D02*
X39547618Y-62978628D01*
X40928570Y-63407200D02*
X40833332Y-63454819D01*
X40833332Y-63454819D02*
X40642856Y-63454819D01*
X40642856Y-63454819D02*
X40547618Y-63407200D01*
X40547618Y-63407200D02*
X40499999Y-63311961D01*
X40499999Y-63311961D02*
X40499999Y-62931009D01*
X40499999Y-62931009D02*
X40547618Y-62835771D01*
X40547618Y-62835771D02*
X40642856Y-62788152D01*
X40642856Y-62788152D02*
X40833332Y-62788152D01*
X40833332Y-62788152D02*
X40928570Y-62835771D01*
X40928570Y-62835771D02*
X40976189Y-62931009D01*
X40976189Y-62931009D02*
X40976189Y-63026247D01*
X40976189Y-63026247D02*
X40499999Y-63121485D01*
X41261904Y-62788152D02*
X41642856Y-62788152D01*
X41404761Y-62454819D02*
X41404761Y-63311961D01*
X41404761Y-63311961D02*
X41452380Y-63407200D01*
X41452380Y-63407200D02*
X41547618Y-63454819D01*
X41547618Y-63454819D02*
X41642856Y-63454819D01*
X42404761Y-63454819D02*
X42404761Y-62931009D01*
X42404761Y-62931009D02*
X42357142Y-62835771D01*
X42357142Y-62835771D02*
X42261904Y-62788152D01*
X42261904Y-62788152D02*
X42071428Y-62788152D01*
X42071428Y-62788152D02*
X41976190Y-62835771D01*
X42404761Y-63407200D02*
X42309523Y-63454819D01*
X42309523Y-63454819D02*
X42071428Y-63454819D01*
X42071428Y-63454819D02*
X41976190Y-63407200D01*
X41976190Y-63407200D02*
X41928571Y-63311961D01*
X41928571Y-63311961D02*
X41928571Y-63216723D01*
X41928571Y-63216723D02*
X41976190Y-63121485D01*
X41976190Y-63121485D02*
X42071428Y-63073866D01*
X42071428Y-63073866D02*
X42309523Y-63073866D01*
X42309523Y-63073866D02*
X42404761Y-63026247D01*
X42880952Y-62788152D02*
X42880952Y-63454819D01*
X42880952Y-62883390D02*
X42928571Y-62835771D01*
X42928571Y-62835771D02*
X43023809Y-62788152D01*
X43023809Y-62788152D02*
X43166666Y-62788152D01*
X43166666Y-62788152D02*
X43261904Y-62835771D01*
X43261904Y-62835771D02*
X43309523Y-62931009D01*
X43309523Y-62931009D02*
X43309523Y-63454819D01*
X44214285Y-62788152D02*
X44214285Y-63597676D01*
X44214285Y-63597676D02*
X44166666Y-63692914D01*
X44166666Y-63692914D02*
X44119047Y-63740533D01*
X44119047Y-63740533D02*
X44023809Y-63788152D01*
X44023809Y-63788152D02*
X43880952Y-63788152D01*
X43880952Y-63788152D02*
X43785714Y-63740533D01*
X44214285Y-63407200D02*
X44119047Y-63454819D01*
X44119047Y-63454819D02*
X43928571Y-63454819D01*
X43928571Y-63454819D02*
X43833333Y-63407200D01*
X43833333Y-63407200D02*
X43785714Y-63359580D01*
X43785714Y-63359580D02*
X43738095Y-63264342D01*
X43738095Y-63264342D02*
X43738095Y-62978628D01*
X43738095Y-62978628D02*
X43785714Y-62883390D01*
X43785714Y-62883390D02*
X43833333Y-62835771D01*
X43833333Y-62835771D02*
X43928571Y-62788152D01*
X43928571Y-62788152D02*
X44119047Y-62788152D01*
X44119047Y-62788152D02*
X44214285Y-62835771D01*
X45119047Y-62788152D02*
X45119047Y-63454819D01*
X44690476Y-62788152D02*
X44690476Y-63311961D01*
X44690476Y-63311961D02*
X44738095Y-63407200D01*
X44738095Y-63407200D02*
X44833333Y-63454819D01*
X44833333Y-63454819D02*
X44976190Y-63454819D01*
X44976190Y-63454819D02*
X45071428Y-63407200D01*
X45071428Y-63407200D02*
X45119047Y-63359580D01*
X45738095Y-63454819D02*
X45642857Y-63407200D01*
X45642857Y-63407200D02*
X45595238Y-63311961D01*
X45595238Y-63311961D02*
X45595238Y-62454819D01*
X46547619Y-63454819D02*
X46547619Y-62931009D01*
X46547619Y-62931009D02*
X46500000Y-62835771D01*
X46500000Y-62835771D02*
X46404762Y-62788152D01*
X46404762Y-62788152D02*
X46214286Y-62788152D01*
X46214286Y-62788152D02*
X46119048Y-62835771D01*
X46547619Y-63407200D02*
X46452381Y-63454819D01*
X46452381Y-63454819D02*
X46214286Y-63454819D01*
X46214286Y-63454819D02*
X46119048Y-63407200D01*
X46119048Y-63407200D02*
X46071429Y-63311961D01*
X46071429Y-63311961D02*
X46071429Y-63216723D01*
X46071429Y-63216723D02*
X46119048Y-63121485D01*
X46119048Y-63121485D02*
X46214286Y-63073866D01*
X46214286Y-63073866D02*
X46452381Y-63073866D01*
X46452381Y-63073866D02*
X46547619Y-63026247D01*
X47023810Y-63454819D02*
X47023810Y-62788152D01*
X47023810Y-62978628D02*
X47071429Y-62883390D01*
X47071429Y-62883390D02*
X47119048Y-62835771D01*
X47119048Y-62835771D02*
X47214286Y-62788152D01*
X47214286Y-62788152D02*
X47309524Y-62788152D01*
X48452382Y-63454819D02*
X48642858Y-63454819D01*
X48642858Y-63454819D02*
X48738096Y-63407200D01*
X48738096Y-63407200D02*
X48785715Y-63359580D01*
X48785715Y-63359580D02*
X48880953Y-63216723D01*
X48880953Y-63216723D02*
X48928572Y-63026247D01*
X48928572Y-63026247D02*
X48928572Y-62645295D01*
X48928572Y-62645295D02*
X48880953Y-62550057D01*
X48880953Y-62550057D02*
X48833334Y-62502438D01*
X48833334Y-62502438D02*
X48738096Y-62454819D01*
X48738096Y-62454819D02*
X48547620Y-62454819D01*
X48547620Y-62454819D02*
X48452382Y-62502438D01*
X48452382Y-62502438D02*
X48404763Y-62550057D01*
X48404763Y-62550057D02*
X48357144Y-62645295D01*
X48357144Y-62645295D02*
X48357144Y-62883390D01*
X48357144Y-62883390D02*
X48404763Y-62978628D01*
X48404763Y-62978628D02*
X48452382Y-63026247D01*
X48452382Y-63026247D02*
X48547620Y-63073866D01*
X48547620Y-63073866D02*
X48738096Y-63073866D01*
X48738096Y-63073866D02*
X48833334Y-63026247D01*
X48833334Y-63026247D02*
X48880953Y-62978628D01*
X48880953Y-62978628D02*
X48928572Y-62883390D01*
X49547620Y-62454819D02*
X49642858Y-62454819D01*
X49642858Y-62454819D02*
X49738096Y-62502438D01*
X49738096Y-62502438D02*
X49785715Y-62550057D01*
X49785715Y-62550057D02*
X49833334Y-62645295D01*
X49833334Y-62645295D02*
X49880953Y-62835771D01*
X49880953Y-62835771D02*
X49880953Y-63073866D01*
X49880953Y-63073866D02*
X49833334Y-63264342D01*
X49833334Y-63264342D02*
X49785715Y-63359580D01*
X49785715Y-63359580D02*
X49738096Y-63407200D01*
X49738096Y-63407200D02*
X49642858Y-63454819D01*
X49642858Y-63454819D02*
X49547620Y-63454819D01*
X49547620Y-63454819D02*
X49452382Y-63407200D01*
X49452382Y-63407200D02*
X49404763Y-63359580D01*
X49404763Y-63359580D02*
X49357144Y-63264342D01*
X49357144Y-63264342D02*
X49309525Y-63073866D01*
X49309525Y-63073866D02*
X49309525Y-62835771D01*
X49309525Y-62835771D02*
X49357144Y-62645295D01*
X49357144Y-62645295D02*
X49404763Y-62550057D01*
X49404763Y-62550057D02*
X49452382Y-62502438D01*
X49452382Y-62502438D02*
X49547620Y-62454819D01*
X50214287Y-63454819D02*
X50738096Y-62788152D01*
X50214287Y-62788152D02*
X50738096Y-63454819D01*
X51547620Y-62454819D02*
X51357144Y-62454819D01*
X51357144Y-62454819D02*
X51261906Y-62502438D01*
X51261906Y-62502438D02*
X51214287Y-62550057D01*
X51214287Y-62550057D02*
X51119049Y-62692914D01*
X51119049Y-62692914D02*
X51071430Y-62883390D01*
X51071430Y-62883390D02*
X51071430Y-63264342D01*
X51071430Y-63264342D02*
X51119049Y-63359580D01*
X51119049Y-63359580D02*
X51166668Y-63407200D01*
X51166668Y-63407200D02*
X51261906Y-63454819D01*
X51261906Y-63454819D02*
X51452382Y-63454819D01*
X51452382Y-63454819D02*
X51547620Y-63407200D01*
X51547620Y-63407200D02*
X51595239Y-63359580D01*
X51595239Y-63359580D02*
X51642858Y-63264342D01*
X51642858Y-63264342D02*
X51642858Y-63026247D01*
X51642858Y-63026247D02*
X51595239Y-62931009D01*
X51595239Y-62931009D02*
X51547620Y-62883390D01*
X51547620Y-62883390D02*
X51452382Y-62835771D01*
X51452382Y-62835771D02*
X51261906Y-62835771D01*
X51261906Y-62835771D02*
X51166668Y-62883390D01*
X51166668Y-62883390D02*
X51119049Y-62931009D01*
X51119049Y-62931009D02*
X51071430Y-63026247D01*
X52547620Y-62454819D02*
X52071430Y-62454819D01*
X52071430Y-62454819D02*
X52023811Y-62931009D01*
X52023811Y-62931009D02*
X52071430Y-62883390D01*
X52071430Y-62883390D02*
X52166668Y-62835771D01*
X52166668Y-62835771D02*
X52404763Y-62835771D01*
X52404763Y-62835771D02*
X52500001Y-62883390D01*
X52500001Y-62883390D02*
X52547620Y-62931009D01*
X52547620Y-62931009D02*
X52595239Y-63026247D01*
X52595239Y-63026247D02*
X52595239Y-63264342D01*
X52595239Y-63264342D02*
X52547620Y-63359580D01*
X52547620Y-63359580D02*
X52500001Y-63407200D01*
X52500001Y-63407200D02*
X52404763Y-63454819D01*
X52404763Y-63454819D02*
X52166668Y-63454819D01*
X52166668Y-63454819D02*
X52071430Y-63407200D01*
X52071430Y-63407200D02*
X52023811Y-63359580D01*
X53023811Y-63454819D02*
X53023811Y-62788152D01*
X53023811Y-62883390D02*
X53071430Y-62835771D01*
X53071430Y-62835771D02*
X53166668Y-62788152D01*
X53166668Y-62788152D02*
X53309525Y-62788152D01*
X53309525Y-62788152D02*
X53404763Y-62835771D01*
X53404763Y-62835771D02*
X53452382Y-62931009D01*
X53452382Y-62931009D02*
X53452382Y-63454819D01*
X53452382Y-62931009D02*
X53500001Y-62835771D01*
X53500001Y-62835771D02*
X53595239Y-62788152D01*
X53595239Y-62788152D02*
X53738096Y-62788152D01*
X53738096Y-62788152D02*
X53833335Y-62835771D01*
X53833335Y-62835771D02*
X53880954Y-62931009D01*
X53880954Y-62931009D02*
X53880954Y-63454819D01*
X54357144Y-63454819D02*
X54357144Y-62788152D01*
X54357144Y-62883390D02*
X54404763Y-62835771D01*
X54404763Y-62835771D02*
X54500001Y-62788152D01*
X54500001Y-62788152D02*
X54642858Y-62788152D01*
X54642858Y-62788152D02*
X54738096Y-62835771D01*
X54738096Y-62835771D02*
X54785715Y-62931009D01*
X54785715Y-62931009D02*
X54785715Y-63454819D01*
X54785715Y-62931009D02*
X54833334Y-62835771D01*
X54833334Y-62835771D02*
X54928572Y-62788152D01*
X54928572Y-62788152D02*
X55071429Y-62788152D01*
X55071429Y-62788152D02*
X55166668Y-62835771D01*
X55166668Y-62835771D02*
X55214287Y-62931009D01*
X55214287Y-62931009D02*
X55214287Y-63454819D01*
D11*
X29542857Y-2201885D02*
X30114286Y-2201885D01*
X29428571Y-2544742D02*
X29828571Y-1344742D01*
X29828571Y-1344742D02*
X30228571Y-2544742D01*
X30628571Y-2544742D02*
X30628571Y-1344742D01*
X30628571Y-1344742D02*
X31028571Y-2201885D01*
X31028571Y-2201885D02*
X31428571Y-1344742D01*
X31428571Y-1344742D02*
X31428571Y-2544742D01*
X32000000Y-1916171D02*
X32400000Y-1916171D01*
X32571428Y-2544742D02*
X32000000Y-2544742D01*
X32000000Y-2544742D02*
X32000000Y-1344742D01*
X32000000Y-1344742D02*
X32571428Y-1344742D01*
X33085714Y-2544742D02*
X33085714Y-1344742D01*
X33085714Y-1344742D02*
X33485714Y-2201885D01*
X33485714Y-2201885D02*
X33885714Y-1344742D01*
X33885714Y-1344742D02*
X33885714Y-2544742D01*
X34457143Y-2544742D02*
X34457143Y-1344742D01*
X35257143Y-1973314D02*
X35257143Y-2544742D01*
X34857143Y-1344742D02*
X35257143Y-1973314D01*
X35257143Y-1973314D02*
X35657143Y-1344742D01*
X36000000Y-2201885D02*
X36571429Y-2201885D01*
X35885714Y-2544742D02*
X36285714Y-1344742D01*
X36285714Y-1344742D02*
X36685714Y-2544742D01*
X38000000Y-2544742D02*
X38000000Y-1344742D01*
X38742857Y-2544742D02*
X38628572Y-2487600D01*
X38628572Y-2487600D02*
X38571429Y-2430457D01*
X38571429Y-2430457D02*
X38514286Y-2316171D01*
X38514286Y-2316171D02*
X38514286Y-1973314D01*
X38514286Y-1973314D02*
X38571429Y-1859028D01*
X38571429Y-1859028D02*
X38628572Y-1801885D01*
X38628572Y-1801885D02*
X38742857Y-1744742D01*
X38742857Y-1744742D02*
X38914286Y-1744742D01*
X38914286Y-1744742D02*
X39028572Y-1801885D01*
X39028572Y-1801885D02*
X39085715Y-1859028D01*
X39085715Y-1859028D02*
X39142857Y-1973314D01*
X39142857Y-1973314D02*
X39142857Y-2316171D01*
X39142857Y-2316171D02*
X39085715Y-2430457D01*
X39085715Y-2430457D02*
X39028572Y-2487600D01*
X39028572Y-2487600D02*
X38914286Y-2544742D01*
X38914286Y-2544742D02*
X38742857Y-2544742D01*
X39485714Y-1344742D02*
X40171429Y-1344742D01*
X39828571Y-2544742D02*
X39828571Y-1344742D01*
X41485715Y-2087600D02*
X42400001Y-2087600D01*
X43885715Y-2544742D02*
X43885715Y-1344742D01*
X43885715Y-1344742D02*
X44571429Y-2544742D01*
X44571429Y-2544742D02*
X44571429Y-1344742D01*
X45314286Y-2544742D02*
X45200001Y-2487600D01*
X45200001Y-2487600D02*
X45142858Y-2430457D01*
X45142858Y-2430457D02*
X45085715Y-2316171D01*
X45085715Y-2316171D02*
X45085715Y-1973314D01*
X45085715Y-1973314D02*
X45142858Y-1859028D01*
X45142858Y-1859028D02*
X45200001Y-1801885D01*
X45200001Y-1801885D02*
X45314286Y-1744742D01*
X45314286Y-1744742D02*
X45485715Y-1744742D01*
X45485715Y-1744742D02*
X45600001Y-1801885D01*
X45600001Y-1801885D02*
X45657144Y-1859028D01*
X45657144Y-1859028D02*
X45714286Y-1973314D01*
X45714286Y-1973314D02*
X45714286Y-2316171D01*
X45714286Y-2316171D02*
X45657144Y-2430457D01*
X45657144Y-2430457D02*
X45600001Y-2487600D01*
X45600001Y-2487600D02*
X45485715Y-2544742D01*
X45485715Y-2544742D02*
X45314286Y-2544742D01*
X47142858Y-2544742D02*
X47142858Y-1344742D01*
X47142858Y-1344742D02*
X47600001Y-1344742D01*
X47600001Y-1344742D02*
X47714286Y-1401885D01*
X47714286Y-1401885D02*
X47771429Y-1459028D01*
X47771429Y-1459028D02*
X47828572Y-1573314D01*
X47828572Y-1573314D02*
X47828572Y-1744742D01*
X47828572Y-1744742D02*
X47771429Y-1859028D01*
X47771429Y-1859028D02*
X47714286Y-1916171D01*
X47714286Y-1916171D02*
X47600001Y-1973314D01*
X47600001Y-1973314D02*
X47142858Y-1973314D01*
X48342858Y-2544742D02*
X48342858Y-1744742D01*
X48342858Y-1973314D02*
X48400001Y-1859028D01*
X48400001Y-1859028D02*
X48457144Y-1801885D01*
X48457144Y-1801885D02*
X48571429Y-1744742D01*
X48571429Y-1744742D02*
X48685715Y-1744742D01*
X49085715Y-2544742D02*
X49085715Y-1744742D01*
X49085715Y-1344742D02*
X49028572Y-1401885D01*
X49028572Y-1401885D02*
X49085715Y-1459028D01*
X49085715Y-1459028D02*
X49142858Y-1401885D01*
X49142858Y-1401885D02*
X49085715Y-1344742D01*
X49085715Y-1344742D02*
X49085715Y-1459028D01*
X49657144Y-1744742D02*
X49657144Y-2544742D01*
X49657144Y-1859028D02*
X49714287Y-1801885D01*
X49714287Y-1801885D02*
X49828572Y-1744742D01*
X49828572Y-1744742D02*
X50000001Y-1744742D01*
X50000001Y-1744742D02*
X50114287Y-1801885D01*
X50114287Y-1801885D02*
X50171430Y-1916171D01*
X50171430Y-1916171D02*
X50171430Y-2544742D01*
X51257144Y-2487600D02*
X51142858Y-2544742D01*
X51142858Y-2544742D02*
X50914286Y-2544742D01*
X50914286Y-2544742D02*
X50800001Y-2487600D01*
X50800001Y-2487600D02*
X50742858Y-2430457D01*
X50742858Y-2430457D02*
X50685715Y-2316171D01*
X50685715Y-2316171D02*
X50685715Y-1973314D01*
X50685715Y-1973314D02*
X50742858Y-1859028D01*
X50742858Y-1859028D02*
X50800001Y-1801885D01*
X50800001Y-1801885D02*
X50914286Y-1744742D01*
X50914286Y-1744742D02*
X51142858Y-1744742D01*
X51142858Y-1744742D02*
X51257144Y-1801885D01*
X51771429Y-2544742D02*
X51771429Y-1744742D01*
X51771429Y-1344742D02*
X51714286Y-1401885D01*
X51714286Y-1401885D02*
X51771429Y-1459028D01*
X51771429Y-1459028D02*
X51828572Y-1401885D01*
X51828572Y-1401885D02*
X51771429Y-1344742D01*
X51771429Y-1344742D02*
X51771429Y-1459028D01*
X52342858Y-1744742D02*
X52342858Y-2944742D01*
X52342858Y-1801885D02*
X52457144Y-1744742D01*
X52457144Y-1744742D02*
X52685715Y-1744742D01*
X52685715Y-1744742D02*
X52800001Y-1801885D01*
X52800001Y-1801885D02*
X52857144Y-1859028D01*
X52857144Y-1859028D02*
X52914286Y-1973314D01*
X52914286Y-1973314D02*
X52914286Y-2316171D01*
X52914286Y-2316171D02*
X52857144Y-2430457D01*
X52857144Y-2430457D02*
X52800001Y-2487600D01*
X52800001Y-2487600D02*
X52685715Y-2544742D01*
X52685715Y-2544742D02*
X52457144Y-2544742D01*
X52457144Y-2544742D02*
X52342858Y-2487600D01*
X53942858Y-2544742D02*
X53942858Y-1916171D01*
X53942858Y-1916171D02*
X53885715Y-1801885D01*
X53885715Y-1801885D02*
X53771429Y-1744742D01*
X53771429Y-1744742D02*
X53542858Y-1744742D01*
X53542858Y-1744742D02*
X53428572Y-1801885D01*
X53942858Y-2487600D02*
X53828572Y-2544742D01*
X53828572Y-2544742D02*
X53542858Y-2544742D01*
X53542858Y-2544742D02*
X53428572Y-2487600D01*
X53428572Y-2487600D02*
X53371429Y-2373314D01*
X53371429Y-2373314D02*
X53371429Y-2259028D01*
X53371429Y-2259028D02*
X53428572Y-2144742D01*
X53428572Y-2144742D02*
X53542858Y-2087600D01*
X53542858Y-2087600D02*
X53828572Y-2087600D01*
X53828572Y-2087600D02*
X53942858Y-2030457D01*
X54685714Y-2544742D02*
X54571429Y-2487600D01*
X54571429Y-2487600D02*
X54514286Y-2373314D01*
X54514286Y-2373314D02*
X54514286Y-1344742D01*
X55942857Y-1744742D02*
X56228571Y-2544742D01*
X56228571Y-2544742D02*
X56514286Y-1744742D01*
X56857143Y-1344742D02*
X57600000Y-1344742D01*
X57600000Y-1344742D02*
X57200000Y-1801885D01*
X57200000Y-1801885D02*
X57371429Y-1801885D01*
X57371429Y-1801885D02*
X57485715Y-1859028D01*
X57485715Y-1859028D02*
X57542857Y-1916171D01*
X57542857Y-1916171D02*
X57600000Y-2030457D01*
X57600000Y-2030457D02*
X57600000Y-2316171D01*
X57600000Y-2316171D02*
X57542857Y-2430457D01*
X57542857Y-2430457D02*
X57485715Y-2487600D01*
X57485715Y-2487600D02*
X57371429Y-2544742D01*
X57371429Y-2544742D02*
X57028572Y-2544742D01*
X57028572Y-2544742D02*
X56914286Y-2487600D01*
X56914286Y-2487600D02*
X56857143Y-2430457D01*
X58628572Y-1344742D02*
X58400000Y-1344742D01*
X58400000Y-1344742D02*
X58285714Y-1401885D01*
X58285714Y-1401885D02*
X58228572Y-1459028D01*
X58228572Y-1459028D02*
X58114286Y-1630457D01*
X58114286Y-1630457D02*
X58057143Y-1859028D01*
X58057143Y-1859028D02*
X58057143Y-2316171D01*
X58057143Y-2316171D02*
X58114286Y-2430457D01*
X58114286Y-2430457D02*
X58171429Y-2487600D01*
X58171429Y-2487600D02*
X58285714Y-2544742D01*
X58285714Y-2544742D02*
X58514286Y-2544742D01*
X58514286Y-2544742D02*
X58628572Y-2487600D01*
X58628572Y-2487600D02*
X58685714Y-2430457D01*
X58685714Y-2430457D02*
X58742857Y-2316171D01*
X58742857Y-2316171D02*
X58742857Y-2030457D01*
X58742857Y-2030457D02*
X58685714Y-1916171D01*
X58685714Y-1916171D02*
X58628572Y-1859028D01*
X58628572Y-1859028D02*
X58514286Y-1801885D01*
X58514286Y-1801885D02*
X58285714Y-1801885D01*
X58285714Y-1801885D02*
X58171429Y-1859028D01*
X58171429Y-1859028D02*
X58114286Y-1916171D01*
X58114286Y-1916171D02*
X58057143Y-2030457D01*
X59257143Y-2430457D02*
X59314286Y-2487600D01*
X59314286Y-2487600D02*
X59257143Y-2544742D01*
X59257143Y-2544742D02*
X59200000Y-2487600D01*
X59200000Y-2487600D02*
X59257143Y-2430457D01*
X59257143Y-2430457D02*
X59257143Y-2544742D01*
X60057143Y-1344742D02*
X60171429Y-1344742D01*
X60171429Y-1344742D02*
X60285715Y-1401885D01*
X60285715Y-1401885D02*
X60342858Y-1459028D01*
X60342858Y-1459028D02*
X60400000Y-1573314D01*
X60400000Y-1573314D02*
X60457143Y-1801885D01*
X60457143Y-1801885D02*
X60457143Y-2087600D01*
X60457143Y-2087600D02*
X60400000Y-2316171D01*
X60400000Y-2316171D02*
X60342858Y-2430457D01*
X60342858Y-2430457D02*
X60285715Y-2487600D01*
X60285715Y-2487600D02*
X60171429Y-2544742D01*
X60171429Y-2544742D02*
X60057143Y-2544742D01*
X60057143Y-2544742D02*
X59942858Y-2487600D01*
X59942858Y-2487600D02*
X59885715Y-2430457D01*
X59885715Y-2430457D02*
X59828572Y-2316171D01*
X59828572Y-2316171D02*
X59771429Y-2087600D01*
X59771429Y-2087600D02*
X59771429Y-1801885D01*
X59771429Y-1801885D02*
X59828572Y-1573314D01*
X59828572Y-1573314D02*
X59885715Y-1459028D01*
X59885715Y-1459028D02*
X59942858Y-1401885D01*
X59942858Y-1401885D02*
X60057143Y-1344742D01*
D10*
X71954819Y-52238095D02*
X72669104Y-52238095D01*
X72669104Y-52238095D02*
X72811961Y-52285714D01*
X72811961Y-52285714D02*
X72907200Y-52380952D01*
X72907200Y-52380952D02*
X72954819Y-52523809D01*
X72954819Y-52523809D02*
X72954819Y-52619047D01*
X73050057Y-52000000D02*
X73050057Y-51238095D01*
X72431009Y-50666666D02*
X72478628Y-50523809D01*
X72478628Y-50523809D02*
X72526247Y-50476190D01*
X72526247Y-50476190D02*
X72621485Y-50428571D01*
X72621485Y-50428571D02*
X72764342Y-50428571D01*
X72764342Y-50428571D02*
X72859580Y-50476190D01*
X72859580Y-50476190D02*
X72907200Y-50523809D01*
X72907200Y-50523809D02*
X72954819Y-50619047D01*
X72954819Y-50619047D02*
X72954819Y-50999999D01*
X72954819Y-50999999D02*
X71954819Y-50999999D01*
X71954819Y-50999999D02*
X71954819Y-50666666D01*
X71954819Y-50666666D02*
X72002438Y-50571428D01*
X72002438Y-50571428D02*
X72050057Y-50523809D01*
X72050057Y-50523809D02*
X72145295Y-50476190D01*
X72145295Y-50476190D02*
X72240533Y-50476190D01*
X72240533Y-50476190D02*
X72335771Y-50523809D01*
X72335771Y-50523809D02*
X72383390Y-50571428D01*
X72383390Y-50571428D02*
X72431009Y-50666666D01*
X72431009Y-50666666D02*
X72431009Y-50999999D01*
X71954819Y-49999999D02*
X72764342Y-49999999D01*
X72764342Y-49999999D02*
X72859580Y-49952380D01*
X72859580Y-49952380D02*
X72907200Y-49904761D01*
X72907200Y-49904761D02*
X72954819Y-49809523D01*
X72954819Y-49809523D02*
X72954819Y-49619047D01*
X72954819Y-49619047D02*
X72907200Y-49523809D01*
X72907200Y-49523809D02*
X72859580Y-49476190D01*
X72859580Y-49476190D02*
X72764342Y-49428571D01*
X72764342Y-49428571D02*
X71954819Y-49428571D01*
X71954819Y-49047618D02*
X71954819Y-48380952D01*
X71954819Y-48380952D02*
X72954819Y-49047618D01*
X72954819Y-49047618D02*
X72954819Y-48380952D01*
X76585714Y-41908557D02*
X76285714Y-41479985D01*
X76071428Y-41908557D02*
X76071428Y-41008557D01*
X76071428Y-41008557D02*
X76414285Y-41008557D01*
X76414285Y-41008557D02*
X76500000Y-41051414D01*
X76500000Y-41051414D02*
X76542857Y-41094271D01*
X76542857Y-41094271D02*
X76585714Y-41179985D01*
X76585714Y-41179985D02*
X76585714Y-41308557D01*
X76585714Y-41308557D02*
X76542857Y-41394271D01*
X76542857Y-41394271D02*
X76500000Y-41437128D01*
X76500000Y-41437128D02*
X76414285Y-41479985D01*
X76414285Y-41479985D02*
X76071428Y-41479985D01*
X76757143Y-41994271D02*
X77442857Y-41994271D01*
X77957142Y-41437128D02*
X78085714Y-41479985D01*
X78085714Y-41479985D02*
X78128571Y-41522842D01*
X78128571Y-41522842D02*
X78171428Y-41608557D01*
X78171428Y-41608557D02*
X78171428Y-41737128D01*
X78171428Y-41737128D02*
X78128571Y-41822842D01*
X78128571Y-41822842D02*
X78085714Y-41865700D01*
X78085714Y-41865700D02*
X77999999Y-41908557D01*
X77999999Y-41908557D02*
X77657142Y-41908557D01*
X77657142Y-41908557D02*
X77657142Y-41008557D01*
X77657142Y-41008557D02*
X77957142Y-41008557D01*
X77957142Y-41008557D02*
X78042857Y-41051414D01*
X78042857Y-41051414D02*
X78085714Y-41094271D01*
X78085714Y-41094271D02*
X78128571Y-41179985D01*
X78128571Y-41179985D02*
X78128571Y-41265700D01*
X78128571Y-41265700D02*
X78085714Y-41351414D01*
X78085714Y-41351414D02*
X78042857Y-41394271D01*
X78042857Y-41394271D02*
X77957142Y-41437128D01*
X77957142Y-41437128D02*
X77657142Y-41437128D01*
X78557142Y-41008557D02*
X78557142Y-41737128D01*
X78557142Y-41737128D02*
X78599999Y-41822842D01*
X78599999Y-41822842D02*
X78642857Y-41865700D01*
X78642857Y-41865700D02*
X78728571Y-41908557D01*
X78728571Y-41908557D02*
X78899999Y-41908557D01*
X78899999Y-41908557D02*
X78985714Y-41865700D01*
X78985714Y-41865700D02*
X79028571Y-41822842D01*
X79028571Y-41822842D02*
X79071428Y-41737128D01*
X79071428Y-41737128D02*
X79071428Y-41008557D01*
X79414285Y-41008557D02*
X80014285Y-41008557D01*
X80014285Y-41008557D02*
X79414285Y-41908557D01*
X79414285Y-41908557D02*
X80014285Y-41908557D01*
X65285714Y-39408557D02*
X64985714Y-38979985D01*
X64771428Y-39408557D02*
X64771428Y-38508557D01*
X64771428Y-38508557D02*
X65114285Y-38508557D01*
X65114285Y-38508557D02*
X65200000Y-38551414D01*
X65200000Y-38551414D02*
X65242857Y-38594271D01*
X65242857Y-38594271D02*
X65285714Y-38679985D01*
X65285714Y-38679985D02*
X65285714Y-38808557D01*
X65285714Y-38808557D02*
X65242857Y-38894271D01*
X65242857Y-38894271D02*
X65200000Y-38937128D01*
X65200000Y-38937128D02*
X65114285Y-38979985D01*
X65114285Y-38979985D02*
X64771428Y-38979985D01*
X65457143Y-39494271D02*
X66142857Y-39494271D01*
X66785714Y-39408557D02*
X66357142Y-39408557D01*
X66357142Y-39408557D02*
X66357142Y-38508557D01*
X67085713Y-38937128D02*
X67385713Y-38937128D01*
X67514285Y-39408557D02*
X67085713Y-39408557D01*
X67085713Y-39408557D02*
X67085713Y-38508557D01*
X67085713Y-38508557D02*
X67514285Y-38508557D01*
X67899999Y-39408557D02*
X67899999Y-38508557D01*
X67899999Y-38508557D02*
X68114285Y-38508557D01*
X68114285Y-38508557D02*
X68242856Y-38551414D01*
X68242856Y-38551414D02*
X68328571Y-38637128D01*
X68328571Y-38637128D02*
X68371428Y-38722842D01*
X68371428Y-38722842D02*
X68414285Y-38894271D01*
X68414285Y-38894271D02*
X68414285Y-39022842D01*
X68414285Y-39022842D02*
X68371428Y-39194271D01*
X68371428Y-39194271D02*
X68328571Y-39279985D01*
X68328571Y-39279985D02*
X68242856Y-39365700D01*
X68242856Y-39365700D02*
X68114285Y-39408557D01*
X68114285Y-39408557D02*
X67899999Y-39408557D01*
X68757142Y-38594271D02*
X68799999Y-38551414D01*
X68799999Y-38551414D02*
X68885714Y-38508557D01*
X68885714Y-38508557D02*
X69099999Y-38508557D01*
X69099999Y-38508557D02*
X69185714Y-38551414D01*
X69185714Y-38551414D02*
X69228571Y-38594271D01*
X69228571Y-38594271D02*
X69271428Y-38679985D01*
X69271428Y-38679985D02*
X69271428Y-38765700D01*
X69271428Y-38765700D02*
X69228571Y-38894271D01*
X69228571Y-38894271D02*
X68714285Y-39408557D01*
X68714285Y-39408557D02*
X69271428Y-39408557D01*
X56976190Y-9904819D02*
X56976190Y-10714342D01*
X56976190Y-10714342D02*
X57023809Y-10809580D01*
X57023809Y-10809580D02*
X57071428Y-10857200D01*
X57071428Y-10857200D02*
X57166666Y-10904819D01*
X57166666Y-10904819D02*
X57357142Y-10904819D01*
X57357142Y-10904819D02*
X57452380Y-10857200D01*
X57452380Y-10857200D02*
X57499999Y-10809580D01*
X57499999Y-10809580D02*
X57547618Y-10714342D01*
X57547618Y-10714342D02*
X57547618Y-9904819D01*
X57785714Y-11000057D02*
X58547618Y-11000057D01*
X59261904Y-10904819D02*
X58785714Y-10904819D01*
X58785714Y-10904819D02*
X58785714Y-9904819D01*
X59785714Y-9904819D02*
X59976190Y-9904819D01*
X59976190Y-9904819D02*
X60071428Y-9952438D01*
X60071428Y-9952438D02*
X60166666Y-10047676D01*
X60166666Y-10047676D02*
X60214285Y-10238152D01*
X60214285Y-10238152D02*
X60214285Y-10571485D01*
X60214285Y-10571485D02*
X60166666Y-10761961D01*
X60166666Y-10761961D02*
X60071428Y-10857200D01*
X60071428Y-10857200D02*
X59976190Y-10904819D01*
X59976190Y-10904819D02*
X59785714Y-10904819D01*
X59785714Y-10904819D02*
X59690476Y-10857200D01*
X59690476Y-10857200D02*
X59595238Y-10761961D01*
X59595238Y-10761961D02*
X59547619Y-10571485D01*
X59547619Y-10571485D02*
X59547619Y-10238152D01*
X59547619Y-10238152D02*
X59595238Y-10047676D01*
X59595238Y-10047676D02*
X59690476Y-9952438D01*
X59690476Y-9952438D02*
X59785714Y-9904819D01*
X61214285Y-10904819D02*
X60880952Y-10428628D01*
X60642857Y-10904819D02*
X60642857Y-9904819D01*
X60642857Y-9904819D02*
X61023809Y-9904819D01*
X61023809Y-9904819D02*
X61119047Y-9952438D01*
X61119047Y-9952438D02*
X61166666Y-10000057D01*
X61166666Y-10000057D02*
X61214285Y-10095295D01*
X61214285Y-10095295D02*
X61214285Y-10238152D01*
X61214285Y-10238152D02*
X61166666Y-10333390D01*
X61166666Y-10333390D02*
X61119047Y-10381009D01*
X61119047Y-10381009D02*
X61023809Y-10428628D01*
X61023809Y-10428628D02*
X60642857Y-10428628D01*
X61595238Y-10619104D02*
X62071428Y-10619104D01*
X61500000Y-10904819D02*
X61833333Y-9904819D01*
X61833333Y-9904819D02*
X62166666Y-10904819D01*
X9454819Y-27238095D02*
X10169104Y-27238095D01*
X10169104Y-27238095D02*
X10311961Y-27285714D01*
X10311961Y-27285714D02*
X10407200Y-27380952D01*
X10407200Y-27380952D02*
X10454819Y-27523809D01*
X10454819Y-27523809D02*
X10454819Y-27619047D01*
X10550057Y-27000000D02*
X10550057Y-26238095D01*
X10169104Y-26047618D02*
X10169104Y-25571428D01*
X10454819Y-26142856D02*
X9454819Y-25809523D01*
X9454819Y-25809523D02*
X10454819Y-25476190D01*
X10454819Y-25142856D02*
X9454819Y-25142856D01*
X9454819Y-25142856D02*
X10169104Y-24809523D01*
X10169104Y-24809523D02*
X9454819Y-24476190D01*
X9454819Y-24476190D02*
X10454819Y-24476190D01*
X10454819Y-23999999D02*
X9454819Y-23999999D01*
X9454819Y-23999999D02*
X9454819Y-23619047D01*
X9454819Y-23619047D02*
X9502438Y-23523809D01*
X9502438Y-23523809D02*
X9550057Y-23476190D01*
X9550057Y-23476190D02*
X9645295Y-23428571D01*
X9645295Y-23428571D02*
X9788152Y-23428571D01*
X9788152Y-23428571D02*
X9883390Y-23476190D01*
X9883390Y-23476190D02*
X9931009Y-23523809D01*
X9931009Y-23523809D02*
X9978628Y-23619047D01*
X9978628Y-23619047D02*
X9978628Y-23999999D01*
X65285714Y-42908557D02*
X64985714Y-42479985D01*
X64771428Y-42908557D02*
X64771428Y-42008557D01*
X64771428Y-42008557D02*
X65114285Y-42008557D01*
X65114285Y-42008557D02*
X65200000Y-42051414D01*
X65200000Y-42051414D02*
X65242857Y-42094271D01*
X65242857Y-42094271D02*
X65285714Y-42179985D01*
X65285714Y-42179985D02*
X65285714Y-42308557D01*
X65285714Y-42308557D02*
X65242857Y-42394271D01*
X65242857Y-42394271D02*
X65200000Y-42437128D01*
X65200000Y-42437128D02*
X65114285Y-42479985D01*
X65114285Y-42479985D02*
X64771428Y-42479985D01*
X65457143Y-42994271D02*
X66142857Y-42994271D01*
X66785714Y-42908557D02*
X66357142Y-42908557D01*
X66357142Y-42908557D02*
X66357142Y-42008557D01*
X67085713Y-42437128D02*
X67385713Y-42437128D01*
X67514285Y-42908557D02*
X67085713Y-42908557D01*
X67085713Y-42908557D02*
X67085713Y-42008557D01*
X67085713Y-42008557D02*
X67514285Y-42008557D01*
X67899999Y-42908557D02*
X67899999Y-42008557D01*
X67899999Y-42008557D02*
X68114285Y-42008557D01*
X68114285Y-42008557D02*
X68242856Y-42051414D01*
X68242856Y-42051414D02*
X68328571Y-42137128D01*
X68328571Y-42137128D02*
X68371428Y-42222842D01*
X68371428Y-42222842D02*
X68414285Y-42394271D01*
X68414285Y-42394271D02*
X68414285Y-42522842D01*
X68414285Y-42522842D02*
X68371428Y-42694271D01*
X68371428Y-42694271D02*
X68328571Y-42779985D01*
X68328571Y-42779985D02*
X68242856Y-42865700D01*
X68242856Y-42865700D02*
X68114285Y-42908557D01*
X68114285Y-42908557D02*
X67899999Y-42908557D01*
X69271428Y-42908557D02*
X68757142Y-42908557D01*
X69014285Y-42908557D02*
X69014285Y-42008557D01*
X69014285Y-42008557D02*
X68928571Y-42137128D01*
X68928571Y-42137128D02*
X68842856Y-42222842D01*
X68842856Y-42222842D02*
X68757142Y-42265700D01*
X9454819Y-18095238D02*
X10169104Y-18095238D01*
X10169104Y-18095238D02*
X10311961Y-18142857D01*
X10311961Y-18142857D02*
X10407200Y-18238095D01*
X10407200Y-18238095D02*
X10454819Y-18380952D01*
X10454819Y-18380952D02*
X10454819Y-18476190D01*
X10550057Y-17857143D02*
X10550057Y-17095238D01*
X9454819Y-16999999D02*
X9454819Y-16428571D01*
X10454819Y-16714285D02*
X9454819Y-16714285D01*
X10169104Y-16142856D02*
X10169104Y-15666666D01*
X10454819Y-16238094D02*
X9454819Y-15904761D01*
X9454819Y-15904761D02*
X10454819Y-15571428D01*
X10359580Y-14666666D02*
X10407200Y-14714285D01*
X10407200Y-14714285D02*
X10454819Y-14857142D01*
X10454819Y-14857142D02*
X10454819Y-14952380D01*
X10454819Y-14952380D02*
X10407200Y-15095237D01*
X10407200Y-15095237D02*
X10311961Y-15190475D01*
X10311961Y-15190475D02*
X10216723Y-15238094D01*
X10216723Y-15238094D02*
X10026247Y-15285713D01*
X10026247Y-15285713D02*
X9883390Y-15285713D01*
X9883390Y-15285713D02*
X9692914Y-15238094D01*
X9692914Y-15238094D02*
X9597676Y-15190475D01*
X9597676Y-15190475D02*
X9502438Y-15095237D01*
X9502438Y-15095237D02*
X9454819Y-14952380D01*
X9454819Y-14952380D02*
X9454819Y-14857142D01*
X9454819Y-14857142D02*
X9502438Y-14714285D01*
X9502438Y-14714285D02*
X9550057Y-14666666D01*
X10454819Y-14238094D02*
X9454819Y-14238094D01*
X9931009Y-14238094D02*
X9931009Y-13666666D01*
X10454819Y-13666666D02*
X9454819Y-13666666D01*
X9454819Y-12999999D02*
X9454819Y-12809523D01*
X9454819Y-12809523D02*
X9502438Y-12714285D01*
X9502438Y-12714285D02*
X9597676Y-12619047D01*
X9597676Y-12619047D02*
X9788152Y-12571428D01*
X9788152Y-12571428D02*
X10121485Y-12571428D01*
X10121485Y-12571428D02*
X10311961Y-12619047D01*
X10311961Y-12619047D02*
X10407200Y-12714285D01*
X10407200Y-12714285D02*
X10454819Y-12809523D01*
X10454819Y-12809523D02*
X10454819Y-12999999D01*
X10454819Y-12999999D02*
X10407200Y-13095237D01*
X10407200Y-13095237D02*
X10311961Y-13190475D01*
X10311961Y-13190475D02*
X10121485Y-13238094D01*
X10121485Y-13238094D02*
X9788152Y-13238094D01*
X9788152Y-13238094D02*
X9597676Y-13190475D01*
X9597676Y-13190475D02*
X9502438Y-13095237D01*
X9502438Y-13095237D02*
X9454819Y-12999999D01*
X15408557Y-26014285D02*
X14979985Y-26314285D01*
X15408557Y-26528571D02*
X14508557Y-26528571D01*
X14508557Y-26528571D02*
X14508557Y-26185714D01*
X14508557Y-26185714D02*
X14551414Y-26099999D01*
X14551414Y-26099999D02*
X14594271Y-26057142D01*
X14594271Y-26057142D02*
X14679985Y-26014285D01*
X14679985Y-26014285D02*
X14808557Y-26014285D01*
X14808557Y-26014285D02*
X14894271Y-26057142D01*
X14894271Y-26057142D02*
X14937128Y-26099999D01*
X14937128Y-26099999D02*
X14979985Y-26185714D01*
X14979985Y-26185714D02*
X14979985Y-26528571D01*
X15494271Y-25842857D02*
X15494271Y-25157142D01*
X14937128Y-24642857D02*
X14979985Y-24514285D01*
X14979985Y-24514285D02*
X15022842Y-24471428D01*
X15022842Y-24471428D02*
X15108557Y-24428571D01*
X15108557Y-24428571D02*
X15237128Y-24428571D01*
X15237128Y-24428571D02*
X15322842Y-24471428D01*
X15322842Y-24471428D02*
X15365700Y-24514285D01*
X15365700Y-24514285D02*
X15408557Y-24600000D01*
X15408557Y-24600000D02*
X15408557Y-24942857D01*
X15408557Y-24942857D02*
X14508557Y-24942857D01*
X14508557Y-24942857D02*
X14508557Y-24642857D01*
X14508557Y-24642857D02*
X14551414Y-24557143D01*
X14551414Y-24557143D02*
X14594271Y-24514285D01*
X14594271Y-24514285D02*
X14679985Y-24471428D01*
X14679985Y-24471428D02*
X14765700Y-24471428D01*
X14765700Y-24471428D02*
X14851414Y-24514285D01*
X14851414Y-24514285D02*
X14894271Y-24557143D01*
X14894271Y-24557143D02*
X14937128Y-24642857D01*
X14937128Y-24642857D02*
X14937128Y-24942857D01*
X50954819Y-54047619D02*
X51669104Y-54047619D01*
X51669104Y-54047619D02*
X51811961Y-54095238D01*
X51811961Y-54095238D02*
X51907200Y-54190476D01*
X51907200Y-54190476D02*
X51954819Y-54333333D01*
X51954819Y-54333333D02*
X51954819Y-54428571D01*
X52050057Y-53809524D02*
X52050057Y-53047619D01*
X51431009Y-52476190D02*
X51478628Y-52333333D01*
X51478628Y-52333333D02*
X51526247Y-52285714D01*
X51526247Y-52285714D02*
X51621485Y-52238095D01*
X51621485Y-52238095D02*
X51764342Y-52238095D01*
X51764342Y-52238095D02*
X51859580Y-52285714D01*
X51859580Y-52285714D02*
X51907200Y-52333333D01*
X51907200Y-52333333D02*
X51954819Y-52428571D01*
X51954819Y-52428571D02*
X51954819Y-52809523D01*
X51954819Y-52809523D02*
X50954819Y-52809523D01*
X50954819Y-52809523D02*
X50954819Y-52476190D01*
X50954819Y-52476190D02*
X51002438Y-52380952D01*
X51002438Y-52380952D02*
X51050057Y-52333333D01*
X51050057Y-52333333D02*
X51145295Y-52285714D01*
X51145295Y-52285714D02*
X51240533Y-52285714D01*
X51240533Y-52285714D02*
X51335771Y-52333333D01*
X51335771Y-52333333D02*
X51383390Y-52380952D01*
X51383390Y-52380952D02*
X51431009Y-52476190D01*
X51431009Y-52476190D02*
X51431009Y-52809523D01*
X51669104Y-51857142D02*
X51669104Y-51380952D01*
X51954819Y-51952380D02*
X50954819Y-51619047D01*
X50954819Y-51619047D02*
X51954819Y-51285714D01*
X50954819Y-51095237D02*
X50954819Y-50523809D01*
X51954819Y-50809523D02*
X50954819Y-50809523D01*
X9454819Y-43714285D02*
X10169104Y-43714285D01*
X10169104Y-43714285D02*
X10311961Y-43761904D01*
X10311961Y-43761904D02*
X10407200Y-43857142D01*
X10407200Y-43857142D02*
X10454819Y-43999999D01*
X10454819Y-43999999D02*
X10454819Y-44095237D01*
X10550057Y-43476190D02*
X10550057Y-42714285D01*
X10454819Y-42476189D02*
X9454819Y-42476189D01*
X9454819Y-42476189D02*
X9454819Y-42095237D01*
X9454819Y-42095237D02*
X9502438Y-41999999D01*
X9502438Y-41999999D02*
X9550057Y-41952380D01*
X9550057Y-41952380D02*
X9645295Y-41904761D01*
X9645295Y-41904761D02*
X9788152Y-41904761D01*
X9788152Y-41904761D02*
X9883390Y-41952380D01*
X9883390Y-41952380D02*
X9931009Y-41999999D01*
X9931009Y-41999999D02*
X9978628Y-42095237D01*
X9978628Y-42095237D02*
X9978628Y-42476189D01*
X10454819Y-40904761D02*
X9978628Y-41238094D01*
X10454819Y-41476189D02*
X9454819Y-41476189D01*
X9454819Y-41476189D02*
X9454819Y-41095237D01*
X9454819Y-41095237D02*
X9502438Y-40999999D01*
X9502438Y-40999999D02*
X9550057Y-40952380D01*
X9550057Y-40952380D02*
X9645295Y-40904761D01*
X9645295Y-40904761D02*
X9788152Y-40904761D01*
X9788152Y-40904761D02*
X9883390Y-40952380D01*
X9883390Y-40952380D02*
X9931009Y-40999999D01*
X9931009Y-40999999D02*
X9978628Y-41095237D01*
X9978628Y-41095237D02*
X9978628Y-41476189D01*
X9454819Y-40285713D02*
X9454819Y-40095237D01*
X9454819Y-40095237D02*
X9502438Y-39999999D01*
X9502438Y-39999999D02*
X9597676Y-39904761D01*
X9597676Y-39904761D02*
X9788152Y-39857142D01*
X9788152Y-39857142D02*
X10121485Y-39857142D01*
X10121485Y-39857142D02*
X10311961Y-39904761D01*
X10311961Y-39904761D02*
X10407200Y-39999999D01*
X10407200Y-39999999D02*
X10454819Y-40095237D01*
X10454819Y-40095237D02*
X10454819Y-40285713D01*
X10454819Y-40285713D02*
X10407200Y-40380951D01*
X10407200Y-40380951D02*
X10311961Y-40476189D01*
X10311961Y-40476189D02*
X10121485Y-40523808D01*
X10121485Y-40523808D02*
X9788152Y-40523808D01*
X9788152Y-40523808D02*
X9597676Y-40476189D01*
X9597676Y-40476189D02*
X9502438Y-40380951D01*
X9502438Y-40380951D02*
X9454819Y-40285713D01*
X9931009Y-39095237D02*
X9978628Y-38952380D01*
X9978628Y-38952380D02*
X10026247Y-38904761D01*
X10026247Y-38904761D02*
X10121485Y-38857142D01*
X10121485Y-38857142D02*
X10264342Y-38857142D01*
X10264342Y-38857142D02*
X10359580Y-38904761D01*
X10359580Y-38904761D02*
X10407200Y-38952380D01*
X10407200Y-38952380D02*
X10454819Y-39047618D01*
X10454819Y-39047618D02*
X10454819Y-39428570D01*
X10454819Y-39428570D02*
X9454819Y-39428570D01*
X9454819Y-39428570D02*
X9454819Y-39095237D01*
X9454819Y-39095237D02*
X9502438Y-38999999D01*
X9502438Y-38999999D02*
X9550057Y-38952380D01*
X9550057Y-38952380D02*
X9645295Y-38904761D01*
X9645295Y-38904761D02*
X9740533Y-38904761D01*
X9740533Y-38904761D02*
X9835771Y-38952380D01*
X9835771Y-38952380D02*
X9883390Y-38999999D01*
X9883390Y-38999999D02*
X9931009Y-39095237D01*
X9931009Y-39095237D02*
X9931009Y-39428570D01*
X9931009Y-38428570D02*
X9931009Y-38095237D01*
X10454819Y-37952380D02*
X10454819Y-38428570D01*
X10454819Y-38428570D02*
X9454819Y-38428570D01*
X9454819Y-38428570D02*
X9454819Y-37952380D01*
X20419047Y-2954819D02*
X20419047Y-3764342D01*
X20419047Y-3764342D02*
X20466666Y-3859580D01*
X20466666Y-3859580D02*
X20514285Y-3907200D01*
X20514285Y-3907200D02*
X20609523Y-3954819D01*
X20609523Y-3954819D02*
X20799999Y-3954819D01*
X20799999Y-3954819D02*
X20895237Y-3907200D01*
X20895237Y-3907200D02*
X20942856Y-3859580D01*
X20942856Y-3859580D02*
X20990475Y-3764342D01*
X20990475Y-3764342D02*
X20990475Y-2954819D01*
X21228571Y-4050057D02*
X21990475Y-4050057D01*
X22228571Y-3431009D02*
X22561904Y-3431009D01*
X22704761Y-3954819D02*
X22228571Y-3954819D01*
X22228571Y-3954819D02*
X22228571Y-2954819D01*
X22228571Y-2954819D02*
X22704761Y-2954819D01*
X23085714Y-3907200D02*
X23228571Y-3954819D01*
X23228571Y-3954819D02*
X23466666Y-3954819D01*
X23466666Y-3954819D02*
X23561904Y-3907200D01*
X23561904Y-3907200D02*
X23609523Y-3859580D01*
X23609523Y-3859580D02*
X23657142Y-3764342D01*
X23657142Y-3764342D02*
X23657142Y-3669104D01*
X23657142Y-3669104D02*
X23609523Y-3573866D01*
X23609523Y-3573866D02*
X23561904Y-3526247D01*
X23561904Y-3526247D02*
X23466666Y-3478628D01*
X23466666Y-3478628D02*
X23276190Y-3431009D01*
X23276190Y-3431009D02*
X23180952Y-3383390D01*
X23180952Y-3383390D02*
X23133333Y-3335771D01*
X23133333Y-3335771D02*
X23085714Y-3240533D01*
X23085714Y-3240533D02*
X23085714Y-3145295D01*
X23085714Y-3145295D02*
X23133333Y-3050057D01*
X23133333Y-3050057D02*
X23180952Y-3002438D01*
X23180952Y-3002438D02*
X23276190Y-2954819D01*
X23276190Y-2954819D02*
X23514285Y-2954819D01*
X23514285Y-2954819D02*
X23657142Y-3002438D01*
X24085714Y-3954819D02*
X24085714Y-2954819D01*
X24085714Y-2954819D02*
X24466666Y-2954819D01*
X24466666Y-2954819D02*
X24561904Y-3002438D01*
X24561904Y-3002438D02*
X24609523Y-3050057D01*
X24609523Y-3050057D02*
X24657142Y-3145295D01*
X24657142Y-3145295D02*
X24657142Y-3288152D01*
X24657142Y-3288152D02*
X24609523Y-3383390D01*
X24609523Y-3383390D02*
X24561904Y-3431009D01*
X24561904Y-3431009D02*
X24466666Y-3478628D01*
X24466666Y-3478628D02*
X24085714Y-3478628D01*
X24847619Y-4050057D02*
X25609523Y-4050057D01*
X26323809Y-3954819D02*
X25847619Y-3954819D01*
X25847619Y-3954819D02*
X25847619Y-2954819D01*
X57954819Y-55619047D02*
X58669104Y-55619047D01*
X58669104Y-55619047D02*
X58811961Y-55666666D01*
X58811961Y-55666666D02*
X58907200Y-55761904D01*
X58907200Y-55761904D02*
X58954819Y-55904761D01*
X58954819Y-55904761D02*
X58954819Y-55999999D01*
X59050057Y-55380952D02*
X59050057Y-54619047D01*
X57954819Y-54190475D02*
X57954819Y-53999999D01*
X57954819Y-53999999D02*
X58002438Y-53904761D01*
X58002438Y-53904761D02*
X58097676Y-53809523D01*
X58097676Y-53809523D02*
X58288152Y-53761904D01*
X58288152Y-53761904D02*
X58621485Y-53761904D01*
X58621485Y-53761904D02*
X58811961Y-53809523D01*
X58811961Y-53809523D02*
X58907200Y-53904761D01*
X58907200Y-53904761D02*
X58954819Y-53999999D01*
X58954819Y-53999999D02*
X58954819Y-54190475D01*
X58954819Y-54190475D02*
X58907200Y-54285713D01*
X58907200Y-54285713D02*
X58811961Y-54380951D01*
X58811961Y-54380951D02*
X58621485Y-54428570D01*
X58621485Y-54428570D02*
X58288152Y-54428570D01*
X58288152Y-54428570D02*
X58097676Y-54380951D01*
X58097676Y-54380951D02*
X58002438Y-54285713D01*
X58002438Y-54285713D02*
X57954819Y-54190475D01*
X58954819Y-52857142D02*
X58954819Y-53333332D01*
X58954819Y-53333332D02*
X57954819Y-53333332D01*
X58431009Y-52523808D02*
X58431009Y-52190475D01*
X58954819Y-52047618D02*
X58954819Y-52523808D01*
X58954819Y-52523808D02*
X57954819Y-52523808D01*
X57954819Y-52523808D02*
X57954819Y-52047618D01*
X58954819Y-51619046D02*
X57954819Y-51619046D01*
X57954819Y-51619046D02*
X57954819Y-51380951D01*
X57954819Y-51380951D02*
X58002438Y-51238094D01*
X58002438Y-51238094D02*
X58097676Y-51142856D01*
X58097676Y-51142856D02*
X58192914Y-51095237D01*
X58192914Y-51095237D02*
X58383390Y-51047618D01*
X58383390Y-51047618D02*
X58526247Y-51047618D01*
X58526247Y-51047618D02*
X58716723Y-51095237D01*
X58716723Y-51095237D02*
X58811961Y-51142856D01*
X58811961Y-51142856D02*
X58907200Y-51238094D01*
X58907200Y-51238094D02*
X58954819Y-51380951D01*
X58954819Y-51380951D02*
X58954819Y-51619046D01*
X45723809Y-2954819D02*
X45723809Y-3764342D01*
X45723809Y-3764342D02*
X45771428Y-3859580D01*
X45771428Y-3859580D02*
X45819047Y-3907200D01*
X45819047Y-3907200D02*
X45914285Y-3954819D01*
X45914285Y-3954819D02*
X46104761Y-3954819D01*
X46104761Y-3954819D02*
X46199999Y-3907200D01*
X46199999Y-3907200D02*
X46247618Y-3859580D01*
X46247618Y-3859580D02*
X46295237Y-3764342D01*
X46295237Y-3764342D02*
X46295237Y-2954819D01*
X46533333Y-4050057D02*
X47295237Y-4050057D01*
X47533333Y-3431009D02*
X47866666Y-3431009D01*
X48009523Y-3954819D02*
X47533333Y-3954819D01*
X47533333Y-3954819D02*
X47533333Y-2954819D01*
X47533333Y-2954819D02*
X48009523Y-2954819D01*
X48390476Y-3907200D02*
X48533333Y-3954819D01*
X48533333Y-3954819D02*
X48771428Y-3954819D01*
X48771428Y-3954819D02*
X48866666Y-3907200D01*
X48866666Y-3907200D02*
X48914285Y-3859580D01*
X48914285Y-3859580D02*
X48961904Y-3764342D01*
X48961904Y-3764342D02*
X48961904Y-3669104D01*
X48961904Y-3669104D02*
X48914285Y-3573866D01*
X48914285Y-3573866D02*
X48866666Y-3526247D01*
X48866666Y-3526247D02*
X48771428Y-3478628D01*
X48771428Y-3478628D02*
X48580952Y-3431009D01*
X48580952Y-3431009D02*
X48485714Y-3383390D01*
X48485714Y-3383390D02*
X48438095Y-3335771D01*
X48438095Y-3335771D02*
X48390476Y-3240533D01*
X48390476Y-3240533D02*
X48390476Y-3145295D01*
X48390476Y-3145295D02*
X48438095Y-3050057D01*
X48438095Y-3050057D02*
X48485714Y-3002438D01*
X48485714Y-3002438D02*
X48580952Y-2954819D01*
X48580952Y-2954819D02*
X48819047Y-2954819D01*
X48819047Y-2954819D02*
X48961904Y-3002438D01*
X49390476Y-3954819D02*
X49390476Y-2954819D01*
X49390476Y-2954819D02*
X49771428Y-2954819D01*
X49771428Y-2954819D02*
X49866666Y-3002438D01*
X49866666Y-3002438D02*
X49914285Y-3050057D01*
X49914285Y-3050057D02*
X49961904Y-3145295D01*
X49961904Y-3145295D02*
X49961904Y-3288152D01*
X49961904Y-3288152D02*
X49914285Y-3383390D01*
X49914285Y-3383390D02*
X49866666Y-3431009D01*
X49866666Y-3431009D02*
X49771428Y-3478628D01*
X49771428Y-3478628D02*
X49390476Y-3478628D01*
X50152381Y-4050057D02*
X50914285Y-4050057D01*
X51723809Y-3954819D02*
X51390476Y-3478628D01*
X51152381Y-3954819D02*
X51152381Y-2954819D01*
X51152381Y-2954819D02*
X51533333Y-2954819D01*
X51533333Y-2954819D02*
X51628571Y-3002438D01*
X51628571Y-3002438D02*
X51676190Y-3050057D01*
X51676190Y-3050057D02*
X51723809Y-3145295D01*
X51723809Y-3145295D02*
X51723809Y-3288152D01*
X51723809Y-3288152D02*
X51676190Y-3383390D01*
X51676190Y-3383390D02*
X51628571Y-3431009D01*
X51628571Y-3431009D02*
X51533333Y-3478628D01*
X51533333Y-3478628D02*
X51152381Y-3478628D01*
X64954819Y-55571428D02*
X65669104Y-55571428D01*
X65669104Y-55571428D02*
X65811961Y-55619047D01*
X65811961Y-55619047D02*
X65907200Y-55714285D01*
X65907200Y-55714285D02*
X65954819Y-55857142D01*
X65954819Y-55857142D02*
X65954819Y-55952380D01*
X66050057Y-55333333D02*
X66050057Y-54571428D01*
X65954819Y-53857142D02*
X65954819Y-54333332D01*
X65954819Y-54333332D02*
X64954819Y-54333332D01*
X65431009Y-53523808D02*
X65431009Y-53190475D01*
X65954819Y-53047618D02*
X65954819Y-53523808D01*
X65954819Y-53523808D02*
X64954819Y-53523808D01*
X64954819Y-53523808D02*
X64954819Y-53047618D01*
X65954819Y-52619046D02*
X64954819Y-52619046D01*
X64954819Y-52619046D02*
X64954819Y-52380951D01*
X64954819Y-52380951D02*
X65002438Y-52238094D01*
X65002438Y-52238094D02*
X65097676Y-52142856D01*
X65097676Y-52142856D02*
X65192914Y-52095237D01*
X65192914Y-52095237D02*
X65383390Y-52047618D01*
X65383390Y-52047618D02*
X65526247Y-52047618D01*
X65526247Y-52047618D02*
X65716723Y-52095237D01*
X65716723Y-52095237D02*
X65811961Y-52142856D01*
X65811961Y-52142856D02*
X65907200Y-52238094D01*
X65907200Y-52238094D02*
X65954819Y-52380951D01*
X65954819Y-52380951D02*
X65954819Y-52619046D01*
X65907200Y-51666665D02*
X65954819Y-51523808D01*
X65954819Y-51523808D02*
X65954819Y-51285713D01*
X65954819Y-51285713D02*
X65907200Y-51190475D01*
X65907200Y-51190475D02*
X65859580Y-51142856D01*
X65859580Y-51142856D02*
X65764342Y-51095237D01*
X65764342Y-51095237D02*
X65669104Y-51095237D01*
X65669104Y-51095237D02*
X65573866Y-51142856D01*
X65573866Y-51142856D02*
X65526247Y-51190475D01*
X65526247Y-51190475D02*
X65478628Y-51285713D01*
X65478628Y-51285713D02*
X65431009Y-51476189D01*
X65431009Y-51476189D02*
X65383390Y-51571427D01*
X65383390Y-51571427D02*
X65335771Y-51619046D01*
X65335771Y-51619046D02*
X65240533Y-51666665D01*
X65240533Y-51666665D02*
X65145295Y-51666665D01*
X65145295Y-51666665D02*
X65050057Y-51619046D01*
X65050057Y-51619046D02*
X65002438Y-51571427D01*
X65002438Y-51571427D02*
X64954819Y-51476189D01*
X64954819Y-51476189D02*
X64954819Y-51238094D01*
X64954819Y-51238094D02*
X65002438Y-51095237D01*
X65285714Y-35908557D02*
X64985714Y-35479985D01*
X64771428Y-35908557D02*
X64771428Y-35008557D01*
X64771428Y-35008557D02*
X65114285Y-35008557D01*
X65114285Y-35008557D02*
X65200000Y-35051414D01*
X65200000Y-35051414D02*
X65242857Y-35094271D01*
X65242857Y-35094271D02*
X65285714Y-35179985D01*
X65285714Y-35179985D02*
X65285714Y-35308557D01*
X65285714Y-35308557D02*
X65242857Y-35394271D01*
X65242857Y-35394271D02*
X65200000Y-35437128D01*
X65200000Y-35437128D02*
X65114285Y-35479985D01*
X65114285Y-35479985D02*
X64771428Y-35479985D01*
X65457143Y-35994271D02*
X66142857Y-35994271D01*
X66785714Y-35908557D02*
X66357142Y-35908557D01*
X66357142Y-35908557D02*
X66357142Y-35008557D01*
X67085713Y-35437128D02*
X67385713Y-35437128D01*
X67514285Y-35908557D02*
X67085713Y-35908557D01*
X67085713Y-35908557D02*
X67085713Y-35008557D01*
X67085713Y-35008557D02*
X67514285Y-35008557D01*
X67899999Y-35908557D02*
X67899999Y-35008557D01*
X67899999Y-35008557D02*
X68114285Y-35008557D01*
X68114285Y-35008557D02*
X68242856Y-35051414D01*
X68242856Y-35051414D02*
X68328571Y-35137128D01*
X68328571Y-35137128D02*
X68371428Y-35222842D01*
X68371428Y-35222842D02*
X68414285Y-35394271D01*
X68414285Y-35394271D02*
X68414285Y-35522842D01*
X68414285Y-35522842D02*
X68371428Y-35694271D01*
X68371428Y-35694271D02*
X68328571Y-35779985D01*
X68328571Y-35779985D02*
X68242856Y-35865700D01*
X68242856Y-35865700D02*
X68114285Y-35908557D01*
X68114285Y-35908557D02*
X67899999Y-35908557D01*
X68714285Y-35008557D02*
X69271428Y-35008557D01*
X69271428Y-35008557D02*
X68971428Y-35351414D01*
X68971428Y-35351414D02*
X69099999Y-35351414D01*
X69099999Y-35351414D02*
X69185714Y-35394271D01*
X69185714Y-35394271D02*
X69228571Y-35437128D01*
X69228571Y-35437128D02*
X69271428Y-35522842D01*
X69271428Y-35522842D02*
X69271428Y-35737128D01*
X69271428Y-35737128D02*
X69228571Y-35822842D01*
X69228571Y-35822842D02*
X69185714Y-35865700D01*
X69185714Y-35865700D02*
X69099999Y-35908557D01*
X69099999Y-35908557D02*
X68842856Y-35908557D01*
X68842856Y-35908557D02*
X68757142Y-35865700D01*
X68757142Y-35865700D02*
X68714285Y-35822842D01*
%TO.C,J_BUZ*%
X72750000Y-46980000D02*
X77250000Y-46980000D01*
X72750000Y-54020000D02*
X72750000Y-46980000D01*
X77250000Y-46980000D02*
X77250000Y-54020000D01*
X77250000Y-54020000D02*
X72750000Y-54020000D01*
%TO.C,R_BUZ*%
X74850000Y-42250000D02*
X81150000Y-42250000D01*
X74850000Y-44750000D02*
X74850000Y-42250000D01*
X81150000Y-42250000D02*
X81150000Y-44750000D01*
X81150000Y-44750000D02*
X74850000Y-44750000D01*
%TO.C,R_LED2*%
X63850000Y-39750000D02*
X70150000Y-39750000D01*
X63850000Y-42250000D02*
X63850000Y-39750000D01*
X70150000Y-39750000D02*
X70150000Y-42250000D01*
X70150000Y-42250000D02*
X63850000Y-42250000D01*
%TO.C,U_LORA*%
X58000000Y-31950000D02*
X58000000Y-10950000D01*
%TO.C,J_AMP*%
X10250000Y-21980000D02*
X14750000Y-21980000D01*
X10250000Y-29020000D02*
X10250000Y-21980000D01*
X14750000Y-21980000D02*
X14750000Y-29020000D01*
X14750000Y-29020000D02*
X10250000Y-29020000D01*
%TO.C,R_LED1*%
X63850000Y-43250000D02*
X70150000Y-43250000D01*
X63850000Y-45750000D02*
X63850000Y-43250000D01*
X70150000Y-43250000D02*
X70150000Y-45750000D01*
X70150000Y-45750000D02*
X63850000Y-45750000D01*
%TO.C,J_TACHO*%
X10250000Y-10710000D02*
X14750000Y-10710000D01*
X10250000Y-20290000D02*
X10250000Y-10710000D01*
X14750000Y-10710000D02*
X14750000Y-20290000D01*
X14750000Y-20290000D02*
X10250000Y-20290000D01*
%TO.C,R_B*%
X15750000Y-22350000D02*
X18250000Y-22350000D01*
X15750000Y-28650000D02*
X15750000Y-22350000D01*
X18250000Y-22350000D02*
X18250000Y-28650000D01*
X18250000Y-28650000D02*
X15750000Y-28650000D01*
%TO.C,J_BAT*%
X51750000Y-48980000D02*
X56250000Y-48980000D01*
X51750000Y-56020000D02*
X51750000Y-48980000D01*
X56250000Y-48980000D02*
X56250000Y-56020000D01*
X56250000Y-56020000D02*
X51750000Y-56020000D01*
%TO.C,J_PROBE*%
X10250000Y-29860000D02*
X14750000Y-29860000D01*
X10250000Y-52140000D02*
X10250000Y-29860000D01*
X14750000Y-29860000D02*
X14750000Y-52140000D01*
X14750000Y-52140000D02*
X10250000Y-52140000D01*
%TO.C,J_OLED*%
X58750000Y-47440000D02*
X63250000Y-47440000D01*
X58750000Y-59560000D02*
X58750000Y-47440000D01*
X63250000Y-47440000D02*
X63250000Y-59560000D01*
X63250000Y-59560000D02*
X58750000Y-59560000D01*
%TO.C,J_LEDS*%
X65750000Y-47440000D02*
X70250000Y-47440000D01*
X65750000Y-59560000D02*
X65750000Y-47440000D01*
X70250000Y-47440000D02*
X70250000Y-59560000D01*
X70250000Y-59560000D02*
X65750000Y-59560000D01*
%TO.C,R_LED3*%
X63850000Y-36250000D02*
X70150000Y-36250000D01*
X63850000Y-38750000D02*
X63850000Y-36250000D01*
X70150000Y-36250000D02*
X70150000Y-38750000D01*
X70150000Y-38750000D02*
X63850000Y-38750000D01*
%TD*%
M02*
