M48
; DRILL file {KiCad 9.0.7} date 2026-09-14T22:59:30-0300
; FORMAT={-:-/ absolute / metric / decimal}
; #@! TF.CreationDate,2026-09-14T22:59:30-03:00
; #@! TF.GenerationSoftware,Kicad,Pcbnew,9.0.7
; #@! TF.FileFunction,MixedPlating,1,2
FMAT,2
METRIC
; #@! TA.AperFunction,Plated,PTH,ViaDrill
T1C0.400
; #@! TA.AperFunction,Plated,PTH,ComponentDrill
T2C0.800
; #@! TA.AperFunction,Plated,PTH,ComponentDrill
T3C1.000
; #@! TA.AperFunction,NonPlated,NPTH,ComponentDrill
T4C3.200
%
G90
G05
T1
X7.8Y-62.0
X14.5Y-26.77
X14.5Y-29.31
X15.5Y-29.31
X15.5Y-41.39
X16.5Y-32.11
X16.5Y-36.31
X18.5Y-13.45
X18.5Y-44.81
X19.5Y-15.99
X19.5Y-42.27
X20.5Y-18.53
X20.5Y-39.73
X21.5Y-21.07
X21.5Y-37.19
X25.0Y-38.85
X25.0Y-62.0
X26.2Y-1.95
X26.2Y-43.93
X27.4Y-2.8
X27.4Y-46.47
X28.6Y-3.65
X28.6Y-49.01
X29.5Y-33.77
X29.5Y-60.5
X31.0Y-36.31
X31.0Y-61.38
X32.5Y-51.55
X32.5Y-62.26
X34.0Y-54.09
X34.0Y-63.14
X35.5Y-56.63
X35.5Y-64.02
X45.0Y-4.5
X45.0Y-8.37
X50.4Y-44.5
X50.4Y-62.26
X51.3Y-41.0
X51.3Y-63.14
X52.2Y-37.5
X52.2Y-64.02
X53.5Y-3.65
X53.5Y-23.99
X54.0Y-59.17
X55.0Y-2.8
X55.0Y-21.45
X56.0Y-0.95
X56.0Y-26.53
X56.0Y-57.31
X57.0Y-1.95
X57.0Y-18.91
X58.0Y-52.23
X58.0Y-60.5
X59.5Y-49.69
X59.5Y-61.38
X64.8Y-44.5
X65.8Y-41.0
X66.8Y-37.5
X74.19Y-4.5
X83.5Y-43.5
X83.5Y-51.77
T2
X17.0Y-21.69
X17.0Y-29.31
X63.19Y-37.5
X63.19Y-41.0
X63.19Y-44.5
X70.81Y-37.5
X70.81Y-41.0
X70.81Y-44.5
X74.19Y-43.5
X81.81Y-43.5
T3
X12.5Y-12.96
X12.5Y-15.5
X12.5Y-18.04
X12.5Y-24.23
X12.5Y-26.77
X12.5Y-32.11
X12.5Y-34.65
X12.5Y-37.19
X12.5Y-39.73
X12.5Y-42.27
X12.5Y-44.81
X12.5Y-47.35
X12.5Y-49.89
X23.3Y-5.83
X23.3Y-8.37
X23.3Y-10.91
X23.3Y-13.45
X23.3Y-15.99
X23.3Y-18.53
X23.3Y-21.07
X23.3Y-23.61
X23.3Y-26.15
X23.3Y-28.69
X23.3Y-31.23
X23.3Y-33.77
X23.3Y-36.31
X23.3Y-38.85
X23.3Y-41.39
X23.3Y-43.93
X23.3Y-46.47
X23.3Y-49.01
X23.3Y-51.55
X23.3Y-54.09
X23.3Y-56.63
X23.3Y-59.17
X48.7Y-5.83
X48.7Y-8.37
X48.7Y-10.91
X48.7Y-13.45
X48.7Y-15.99
X48.7Y-18.53
X48.7Y-21.07
X48.7Y-23.61
X48.7Y-26.15
X48.7Y-28.69
X48.7Y-31.23
X48.7Y-33.77
X48.7Y-36.31
X48.7Y-38.85
X48.7Y-41.39
X48.7Y-43.93
X48.7Y-46.47
X48.7Y-49.01
X48.7Y-51.55
X48.7Y-54.09
X48.7Y-56.63
X48.7Y-59.17
X54.0Y-51.23
X54.0Y-53.77
X59.5Y-13.83
X59.5Y-16.37
X59.5Y-18.91
X59.5Y-21.45
X59.5Y-23.99
X59.5Y-26.53
X59.5Y-29.07
X61.0Y-49.69
X61.0Y-52.23
X61.0Y-54.77
X61.0Y-57.31
X68.0Y-49.69
X68.0Y-52.23
X68.0Y-54.77
X68.0Y-57.31
X75.0Y-49.23
X75.0Y-51.77
T4
X5.0Y-5.0
X5.0Y-60.0
X85.0Y-5.0
X85.0Y-60.0
M30
