%TF.GenerationSoftware,KiCad,Pcbnew,9.0.7*%
%TF.CreationDate,2026-09-01T13:41:58-03:00*%
%TF.ProjectId,amemiya_probe_sensor,616d656d-6979-4615-9f70-726f62655f73,v2.0*%
%TF.SameCoordinates,Original*%
%TF.FileFunction,Legend,Top*%
%TF.FilePolarity,Positive*%
%FSLAX46Y46*%
G04 Gerber Fmt 4.6, Leading zero omitted, Abs format (unit mm)*
G04 Created by KiCad (PCBNEW 9.0.7) date 2026-09-01 13:41:58*
%MOMM*%
%LPD*%
G01*
G04 APERTURE LIST*
%ADD10C,0.150000*%
G04 APERTURE END LIST*
D10*
X4761905Y-2169104D02*
X5238095Y-2169104D01*
X4666667Y-2454819D02*
X5000000Y-1454819D01*
X5000000Y-1454819D02*
X5333333Y-2454819D01*
X5666667Y-2454819D02*
X5666667Y-1454819D01*
X5666667Y-1454819D02*
X6000000Y-2169104D01*
X6000000Y-2169104D02*
X6333333Y-1454819D01*
X6333333Y-1454819D02*
X6333333Y-2454819D01*
X6809524Y-1931009D02*
X7142857Y-1931009D01*
X7285714Y-2454819D02*
X6809524Y-2454819D01*
X6809524Y-2454819D02*
X6809524Y-1454819D01*
X6809524Y-1454819D02*
X7285714Y-1454819D01*
X7714286Y-2454819D02*
X7714286Y-1454819D01*
X7714286Y-1454819D02*
X8047619Y-2169104D01*
X8047619Y-2169104D02*
X8380952Y-1454819D01*
X8380952Y-1454819D02*
X8380952Y-2454819D01*
X8857143Y-2454819D02*
X8857143Y-1454819D01*
X9523809Y-1978628D02*
X9523809Y-2454819D01*
X9190476Y-1454819D02*
X9523809Y-1978628D01*
X9523809Y-1978628D02*
X9857142Y-1454819D01*
X10142857Y-2169104D02*
X10619047Y-2169104D01*
X10047619Y-2454819D02*
X10380952Y-1454819D01*
X10380952Y-1454819D02*
X10714285Y-2454819D01*
X11809524Y-2454819D02*
X11809524Y-1454819D01*
X11809524Y-1454819D02*
X12190476Y-1454819D01*
X12190476Y-1454819D02*
X12285714Y-1502438D01*
X12285714Y-1502438D02*
X12333333Y-1550057D01*
X12333333Y-1550057D02*
X12380952Y-1645295D01*
X12380952Y-1645295D02*
X12380952Y-1788152D01*
X12380952Y-1788152D02*
X12333333Y-1883390D01*
X12333333Y-1883390D02*
X12285714Y-1931009D01*
X12285714Y-1931009D02*
X12190476Y-1978628D01*
X12190476Y-1978628D02*
X11809524Y-1978628D01*
X13380952Y-2454819D02*
X13047619Y-1978628D01*
X12809524Y-2454819D02*
X12809524Y-1454819D01*
X12809524Y-1454819D02*
X13190476Y-1454819D01*
X13190476Y-1454819D02*
X13285714Y-1502438D01*
X13285714Y-1502438D02*
X13333333Y-1550057D01*
X13333333Y-1550057D02*
X13380952Y-1645295D01*
X13380952Y-1645295D02*
X13380952Y-1788152D01*
X13380952Y-1788152D02*
X13333333Y-1883390D01*
X13333333Y-1883390D02*
X13285714Y-1931009D01*
X13285714Y-1931009D02*
X13190476Y-1978628D01*
X13190476Y-1978628D02*
X12809524Y-1978628D01*
X14000000Y-1454819D02*
X14190476Y-1454819D01*
X14190476Y-1454819D02*
X14285714Y-1502438D01*
X14285714Y-1502438D02*
X14380952Y-1597676D01*
X14380952Y-1597676D02*
X14428571Y-1788152D01*
X14428571Y-1788152D02*
X14428571Y-2121485D01*
X14428571Y-2121485D02*
X14380952Y-2311961D01*
X14380952Y-2311961D02*
X14285714Y-2407200D01*
X14285714Y-2407200D02*
X14190476Y-2454819D01*
X14190476Y-2454819D02*
X14000000Y-2454819D01*
X14000000Y-2454819D02*
X13904762Y-2407200D01*
X13904762Y-2407200D02*
X13809524Y-2311961D01*
X13809524Y-2311961D02*
X13761905Y-2121485D01*
X13761905Y-2121485D02*
X13761905Y-1788152D01*
X13761905Y-1788152D02*
X13809524Y-1597676D01*
X13809524Y-1597676D02*
X13904762Y-1502438D01*
X13904762Y-1502438D02*
X14000000Y-1454819D01*
X15190476Y-1931009D02*
X15333333Y-1978628D01*
X15333333Y-1978628D02*
X15380952Y-2026247D01*
X15380952Y-2026247D02*
X15428571Y-2121485D01*
X15428571Y-2121485D02*
X15428571Y-2264342D01*
X15428571Y-2264342D02*
X15380952Y-2359580D01*
X15380952Y-2359580D02*
X15333333Y-2407200D01*
X15333333Y-2407200D02*
X15238095Y-2454819D01*
X15238095Y-2454819D02*
X14857143Y-2454819D01*
X14857143Y-2454819D02*
X14857143Y-1454819D01*
X14857143Y-1454819D02*
X15190476Y-1454819D01*
X15190476Y-1454819D02*
X15285714Y-1502438D01*
X15285714Y-1502438D02*
X15333333Y-1550057D01*
X15333333Y-1550057D02*
X15380952Y-1645295D01*
X15380952Y-1645295D02*
X15380952Y-1740533D01*
X15380952Y-1740533D02*
X15333333Y-1835771D01*
X15333333Y-1835771D02*
X15285714Y-1883390D01*
X15285714Y-1883390D02*
X15190476Y-1931009D01*
X15190476Y-1931009D02*
X14857143Y-1931009D01*
X15857143Y-1931009D02*
X16190476Y-1931009D01*
X16333333Y-2454819D02*
X15857143Y-2454819D01*
X15857143Y-2454819D02*
X15857143Y-1454819D01*
X15857143Y-1454819D02*
X16333333Y-1454819D01*
X17428572Y-1788152D02*
X17666667Y-2454819D01*
X17666667Y-2454819D02*
X17904762Y-1788152D01*
X18238096Y-1550057D02*
X18285715Y-1502438D01*
X18285715Y-1502438D02*
X18380953Y-1454819D01*
X18380953Y-1454819D02*
X18619048Y-1454819D01*
X18619048Y-1454819D02*
X18714286Y-1502438D01*
X18714286Y-1502438D02*
X18761905Y-1550057D01*
X18761905Y-1550057D02*
X18809524Y-1645295D01*
X18809524Y-1645295D02*
X18809524Y-1740533D01*
X18809524Y-1740533D02*
X18761905Y-1883390D01*
X18761905Y-1883390D02*
X18190477Y-2454819D01*
X18190477Y-2454819D02*
X18809524Y-2454819D01*
X19238096Y-2359580D02*
X19285715Y-2407200D01*
X19285715Y-2407200D02*
X19238096Y-2454819D01*
X19238096Y-2454819D02*
X19190477Y-2407200D01*
X19190477Y-2407200D02*
X19238096Y-2359580D01*
X19238096Y-2359580D02*
X19238096Y-2454819D01*
X19904762Y-1454819D02*
X20000000Y-1454819D01*
X20000000Y-1454819D02*
X20095238Y-1502438D01*
X20095238Y-1502438D02*
X20142857Y-1550057D01*
X20142857Y-1550057D02*
X20190476Y-1645295D01*
X20190476Y-1645295D02*
X20238095Y-1835771D01*
X20238095Y-1835771D02*
X20238095Y-2073866D01*
X20238095Y-2073866D02*
X20190476Y-2264342D01*
X20190476Y-2264342D02*
X20142857Y-2359580D01*
X20142857Y-2359580D02*
X20095238Y-2407200D01*
X20095238Y-2407200D02*
X20000000Y-2454819D01*
X20000000Y-2454819D02*
X19904762Y-2454819D01*
X19904762Y-2454819D02*
X19809524Y-2407200D01*
X19809524Y-2407200D02*
X19761905Y-2359580D01*
X19761905Y-2359580D02*
X19714286Y-2264342D01*
X19714286Y-2264342D02*
X19666667Y-2073866D01*
X19666667Y-2073866D02*
X19666667Y-1835771D01*
X19666667Y-1835771D02*
X19714286Y-1645295D01*
X19714286Y-1645295D02*
X19761905Y-1550057D01*
X19761905Y-1550057D02*
X19809524Y-1502438D01*
X19809524Y-1502438D02*
X19904762Y-1454819D01*
X19248333Y-11809726D02*
X19248333Y-12716869D01*
X19248333Y-12716869D02*
X19187856Y-12898297D01*
X19187856Y-12898297D02*
X19066904Y-13019250D01*
X19066904Y-13019250D02*
X18885475Y-13079726D01*
X18885475Y-13079726D02*
X18764523Y-13079726D01*
X19550714Y-13200678D02*
X20518333Y-13200678D01*
X21485952Y-11870202D02*
X21364999Y-11809726D01*
X21364999Y-11809726D02*
X21183571Y-11809726D01*
X21183571Y-11809726D02*
X21002142Y-11870202D01*
X21002142Y-11870202D02*
X20881190Y-11991154D01*
X20881190Y-11991154D02*
X20820713Y-12112107D01*
X20820713Y-12112107D02*
X20760237Y-12354011D01*
X20760237Y-12354011D02*
X20760237Y-12535440D01*
X20760237Y-12535440D02*
X20820713Y-12777345D01*
X20820713Y-12777345D02*
X20881190Y-12898297D01*
X20881190Y-12898297D02*
X21002142Y-13019250D01*
X21002142Y-13019250D02*
X21183571Y-13079726D01*
X21183571Y-13079726D02*
X21304523Y-13079726D01*
X21304523Y-13079726D02*
X21485952Y-13019250D01*
X21485952Y-13019250D02*
X21546428Y-12958773D01*
X21546428Y-12958773D02*
X21546428Y-12535440D01*
X21546428Y-12535440D02*
X21304523Y-12535440D01*
X21969761Y-11809726D02*
X22816428Y-13079726D01*
X22816428Y-11809726D02*
X21969761Y-13079726D01*
X23965476Y-13079726D02*
X23239761Y-13079726D01*
X23602618Y-13079726D02*
X23602618Y-11809726D01*
X23602618Y-11809726D02*
X23481666Y-11991154D01*
X23481666Y-11991154D02*
X23360714Y-12112107D01*
X23360714Y-12112107D02*
X23239761Y-12172583D01*
X24449285Y-11930678D02*
X24509761Y-11870202D01*
X24509761Y-11870202D02*
X24630714Y-11809726D01*
X24630714Y-11809726D02*
X24933095Y-11809726D01*
X24933095Y-11809726D02*
X25054047Y-11870202D01*
X25054047Y-11870202D02*
X25114523Y-11930678D01*
X25114523Y-11930678D02*
X25175000Y-12051630D01*
X25175000Y-12051630D02*
X25175000Y-12172583D01*
X25175000Y-12172583D02*
X25114523Y-12354011D01*
X25114523Y-12354011D02*
X24388809Y-13079726D01*
X24388809Y-13079726D02*
X25175000Y-13079726D01*
X15278571Y-7309726D02*
X15278571Y-8216869D01*
X15278571Y-8216869D02*
X15218094Y-8398297D01*
X15218094Y-8398297D02*
X15097142Y-8519250D01*
X15097142Y-8519250D02*
X14915713Y-8579726D01*
X14915713Y-8579726D02*
X14794761Y-8579726D01*
X15580952Y-8700678D02*
X16548571Y-8700678D01*
X16669523Y-7309726D02*
X17395237Y-7309726D01*
X17032380Y-8579726D02*
X17032380Y-7309726D01*
X17818570Y-7914488D02*
X18241904Y-7914488D01*
X18423332Y-8579726D02*
X17818570Y-8579726D01*
X17818570Y-8579726D02*
X17818570Y-7309726D01*
X17818570Y-7309726D02*
X18423332Y-7309726D01*
X18967618Y-8579726D02*
X18967618Y-7309726D01*
X18967618Y-7309726D02*
X19390952Y-8216869D01*
X19390952Y-8216869D02*
X19814285Y-7309726D01*
X19814285Y-7309726D02*
X19814285Y-8579726D01*
X20419047Y-8579726D02*
X20419047Y-7309726D01*
X20419047Y-7309726D02*
X20902857Y-7309726D01*
X20902857Y-7309726D02*
X21023809Y-7370202D01*
X21023809Y-7370202D02*
X21084286Y-7430678D01*
X21084286Y-7430678D02*
X21144762Y-7551630D01*
X21144762Y-7551630D02*
X21144762Y-7733059D01*
X21144762Y-7733059D02*
X21084286Y-7854011D01*
X21084286Y-7854011D02*
X21023809Y-7914488D01*
X21023809Y-7914488D02*
X20902857Y-7974964D01*
X20902857Y-7974964D02*
X20419047Y-7974964D01*
X10034524Y-11809726D02*
X10034524Y-12716869D01*
X10034524Y-12716869D02*
X9974047Y-12898297D01*
X9974047Y-12898297D02*
X9853095Y-13019250D01*
X9853095Y-13019250D02*
X9671666Y-13079726D01*
X9671666Y-13079726D02*
X9550714Y-13079726D01*
X10336905Y-13200678D02*
X11304524Y-13200678D01*
X11606904Y-13079726D02*
X11606904Y-11809726D01*
X11606904Y-11809726D02*
X12030238Y-12716869D01*
X12030238Y-12716869D02*
X12453571Y-11809726D01*
X12453571Y-11809726D02*
X12453571Y-13079726D01*
X13058333Y-13079726D02*
X13058333Y-11809726D01*
X14388810Y-12958773D02*
X14328334Y-13019250D01*
X14328334Y-13019250D02*
X14146905Y-13079726D01*
X14146905Y-13079726D02*
X14025953Y-13079726D01*
X14025953Y-13079726D02*
X13844524Y-13019250D01*
X13844524Y-13019250D02*
X13723572Y-12898297D01*
X13723572Y-12898297D02*
X13663095Y-12777345D01*
X13663095Y-12777345D02*
X13602619Y-12535440D01*
X13602619Y-12535440D02*
X13602619Y-12354011D01*
X13602619Y-12354011D02*
X13663095Y-12112107D01*
X13663095Y-12112107D02*
X13723572Y-11991154D01*
X13723572Y-11991154D02*
X13844524Y-11870202D01*
X13844524Y-11870202D02*
X14025953Y-11809726D01*
X14025953Y-11809726D02*
X14146905Y-11809726D01*
X14146905Y-11809726D02*
X14328334Y-11870202D01*
X14328334Y-11870202D02*
X14388810Y-11930678D01*
X1794762Y-11809726D02*
X1794762Y-12716869D01*
X1794762Y-12716869D02*
X1734285Y-12898297D01*
X1734285Y-12898297D02*
X1613333Y-13019250D01*
X1613333Y-13019250D02*
X1431904Y-13079726D01*
X1431904Y-13079726D02*
X1310952Y-13079726D01*
X2097143Y-13200678D02*
X3064762Y-13200678D01*
X3306666Y-12716869D02*
X3911428Y-12716869D01*
X3185714Y-13079726D02*
X3609047Y-11809726D01*
X3609047Y-11809726D02*
X4032381Y-13079726D01*
X5181428Y-12958773D02*
X5120952Y-13019250D01*
X5120952Y-13019250D02*
X4939523Y-13079726D01*
X4939523Y-13079726D02*
X4818571Y-13079726D01*
X4818571Y-13079726D02*
X4637142Y-13019250D01*
X4637142Y-13019250D02*
X4516190Y-12898297D01*
X4516190Y-12898297D02*
X4455713Y-12777345D01*
X4455713Y-12777345D02*
X4395237Y-12535440D01*
X4395237Y-12535440D02*
X4395237Y-12354011D01*
X4395237Y-12354011D02*
X4455713Y-12112107D01*
X4455713Y-12112107D02*
X4516190Y-11991154D01*
X4516190Y-11991154D02*
X4637142Y-11870202D01*
X4637142Y-11870202D02*
X4818571Y-11809726D01*
X4818571Y-11809726D02*
X4939523Y-11809726D01*
X4939523Y-11809726D02*
X5120952Y-11870202D01*
X5120952Y-11870202D02*
X5181428Y-11930678D01*
X6451428Y-12958773D02*
X6390952Y-13019250D01*
X6390952Y-13019250D02*
X6209523Y-13079726D01*
X6209523Y-13079726D02*
X6088571Y-13079726D01*
X6088571Y-13079726D02*
X5907142Y-13019250D01*
X5907142Y-13019250D02*
X5786190Y-12898297D01*
X5786190Y-12898297D02*
X5725713Y-12777345D01*
X5725713Y-12777345D02*
X5665237Y-12535440D01*
X5665237Y-12535440D02*
X5665237Y-12354011D01*
X5665237Y-12354011D02*
X5725713Y-12112107D01*
X5725713Y-12112107D02*
X5786190Y-11991154D01*
X5786190Y-11991154D02*
X5907142Y-11870202D01*
X5907142Y-11870202D02*
X6088571Y-11809726D01*
X6088571Y-11809726D02*
X6209523Y-11809726D01*
X6209523Y-11809726D02*
X6390952Y-11870202D01*
X6390952Y-11870202D02*
X6451428Y-11930678D01*
X6995713Y-12414488D02*
X7419047Y-12414488D01*
X7600475Y-13079726D02*
X6995713Y-13079726D01*
X6995713Y-13079726D02*
X6995713Y-11809726D01*
X6995713Y-11809726D02*
X7600475Y-11809726D01*
X8749523Y-13079726D02*
X8144761Y-13079726D01*
X8144761Y-13079726D02*
X8144761Y-11809726D01*
M02*
