ISO-10303-21;
HEADER;
/* Generated by software containing ST-Developer
 * from STEP Tools, Inc. (www.steptools.com) 
 */

FILE_DESCRIPTION(
/* description */ (''),
/* implementation_level */ '2;1');

FILE_NAME(
/* name */ '03_Tampa_Superior_IHM.step',
/* time_stamp */ '2026-09-22T19:44:20-03:00',
/* author */ (''),
/* organization */ (''),
/* preprocessor_version */ 'ST-DEVELOPER v20.2',
/* originating_system */ 'Autodesk Translation Framework v15.15.0.0',
/* authorisation */ '');

FILE_SCHEMA (('AUTOMOTIVE_DESIGN { 1 0 10303 214 3 1 1 }'));
ENDSEC;

DATA;
#10=MECHANICAL_DESIGN_GEOMETRIC_PRESENTATION_REPRESENTATION('',(#13),#1609);
#11=SHAPE_REPRESENTATION_RELATIONSHIP('SRR','None',#1616,#12);
#12=ADVANCED_BREP_SHAPE_REPRESENTATION('',(#14),#1608);
#13=STYLED_ITEM('',(#1626),#14);
#14=MANIFOLD_SOLID_BREP('Tampa_Superior',#1001);
#15=FACE_BOUND('',#176,.T.);
#16=FACE_BOUND('',#177,.T.);
#17=FACE_BOUND('',#178,.T.);
#18=FACE_BOUND('',#179,.T.);
#19=FACE_BOUND('',#180,.T.);
#20=FACE_BOUND('',#181,.T.);
#21=FACE_BOUND('',#182,.T.);
#22=FACE_BOUND('',#183,.T.);
#23=FACE_BOUND('',#184,.T.);
#24=FACE_BOUND('',#185,.T.);
#25=FACE_BOUND('',#186,.T.);
#26=FACE_BOUND('',#187,.T.);
#27=FACE_BOUND('',#188,.T.);
#28=FACE_BOUND('',#189,.T.);
#29=FACE_BOUND('',#190,.T.);
#30=FACE_BOUND('',#191,.T.);
#31=FACE_BOUND('',#192,.T.);
#32=FACE_BOUND('',#193,.T.);
#33=FACE_BOUND('',#199,.T.);
#34=FACE_BOUND('',#200,.T.);
#35=FACE_BOUND('',#201,.T.);
#36=FACE_BOUND('',#202,.T.);
#37=FACE_BOUND('',#203,.T.);
#38=FACE_BOUND('',#204,.T.);
#39=FACE_BOUND('',#205,.T.);
#40=FACE_BOUND('',#206,.T.);
#41=FACE_BOUND('',#207,.T.);
#42=FACE_BOUND('',#208,.T.);
#43=FACE_BOUND('',#209,.T.);
#44=FACE_BOUND('',#210,.T.);
#45=FACE_BOUND('',#211,.T.);
#46=FACE_BOUND('',#212,.T.);
#47=FACE_BOUND('',#213,.T.);
#48=FACE_BOUND('',#214,.T.);
#49=FACE_BOUND('',#215,.T.);
#50=FACE_BOUND('',#216,.T.);
#51=FACE_BOUND('',#218,.T.);
#52=CIRCLE('',#1036,0.899999999999999);
#53=CIRCLE('',#1037,0.899999999999999);
#54=CIRCLE('',#1039,0.899999999999999);
#55=CIRCLE('',#1040,0.899999999999999);
#56=CIRCLE('',#1042,1.6);
#57=CIRCLE('',#1043,1.6);
#58=CIRCLE('',#1045,1.6);
#59=CIRCLE('',#1046,1.6);
#60=CIRCLE('',#1052,1.65);
#61=CIRCLE('',#1053,1.65);
#62=CIRCLE('',#1055,1.65);
#63=CIRCLE('',#1056,1.65);
#64=CIRCLE('',#1058,1.65);
#65=CIRCLE('',#1059,1.65);
#66=CIRCLE('',#1061,1.6);
#67=CIRCLE('',#1062,1.6);
#68=CIRCLE('',#1064,1.65);
#69=CIRCLE('',#1065,1.65);
#70=CIRCLE('',#1067,0.899999999999999);
#71=CIRCLE('',#1068,0.899999999999999);
#72=CIRCLE('',#1070,0.899999999999999);
#73=CIRCLE('',#1071,0.899999999999999);
#74=CIRCLE('',#1073,0.899999999999999);
#75=CIRCLE('',#1074,0.899999999999999);
#76=CYLINDRICAL_SURFACE('',#1035,0.899999999999999);
#77=CYLINDRICAL_SURFACE('',#1038,0.899999999999999);
#78=CYLINDRICAL_SURFACE('',#1041,1.6);
#79=CYLINDRICAL_SURFACE('',#1044,1.6);
#80=CYLINDRICAL_SURFACE('',#1051,1.65);
#81=CYLINDRICAL_SURFACE('',#1054,1.65);
#82=CYLINDRICAL_SURFACE('',#1057,1.65);
#83=CYLINDRICAL_SURFACE('',#1060,1.6);
#84=CYLINDRICAL_SURFACE('',#1063,1.65);
#85=CYLINDRICAL_SURFACE('',#1066,0.899999999999999);
#86=CYLINDRICAL_SURFACE('',#1069,0.899999999999999);
#87=CYLINDRICAL_SURFACE('',#1072,0.899999999999999);
#88=FACE_OUTER_BOUND('',#135,.T.);
#89=FACE_OUTER_BOUND('',#136,.T.);
#90=FACE_OUTER_BOUND('',#137,.T.);
#91=FACE_OUTER_BOUND('',#138,.T.);
#92=FACE_OUTER_BOUND('',#139,.T.);
#93=FACE_OUTER_BOUND('',#140,.T.);
#94=FACE_OUTER_BOUND('',#141,.T.);
#95=FACE_OUTER_BOUND('',#142,.T.);
#96=FACE_OUTER_BOUND('',#143,.T.);
#97=FACE_OUTER_BOUND('',#144,.T.);
#98=FACE_OUTER_BOUND('',#145,.T.);
#99=FACE_OUTER_BOUND('',#146,.T.);
#100=FACE_OUTER_BOUND('',#147,.T.);
#101=FACE_OUTER_BOUND('',#148,.T.);
#102=FACE_OUTER_BOUND('',#149,.T.);
#103=FACE_OUTER_BOUND('',#150,.T.);
#104=FACE_OUTER_BOUND('',#151,.T.);
#105=FACE_OUTER_BOUND('',#152,.T.);
#106=FACE_OUTER_BOUND('',#153,.T.);
#107=FACE_OUTER_BOUND('',#154,.T.);
#108=FACE_OUTER_BOUND('',#155,.T.);
#109=FACE_OUTER_BOUND('',#156,.T.);
#110=FACE_OUTER_BOUND('',#157,.T.);
#111=FACE_OUTER_BOUND('',#158,.T.);
#112=FACE_OUTER_BOUND('',#159,.T.);
#113=FACE_OUTER_BOUND('',#160,.T.);
#114=FACE_OUTER_BOUND('',#161,.T.);
#115=FACE_OUTER_BOUND('',#162,.T.);
#116=FACE_OUTER_BOUND('',#163,.T.);
#117=FACE_OUTER_BOUND('',#164,.T.);
#118=FACE_OUTER_BOUND('',#165,.T.);
#119=FACE_OUTER_BOUND('',#166,.T.);
#120=FACE_OUTER_BOUND('',#167,.T.);
#121=FACE_OUTER_BOUND('',#168,.T.);
#122=FACE_OUTER_BOUND('',#169,.T.);
#123=FACE_OUTER_BOUND('',#170,.T.);
#124=FACE_OUTER_BOUND('',#171,.T.);
#125=FACE_OUTER_BOUND('',#172,.T.);
#126=FACE_OUTER_BOUND('',#173,.T.);
#127=FACE_OUTER_BOUND('',#174,.T.);
#128=FACE_OUTER_BOUND('',#175,.T.);
#129=FACE_OUTER_BOUND('',#194,.T.);
#130=FACE_OUTER_BOUND('',#195,.T.);
#131=FACE_OUTER_BOUND('',#196,.T.);
#132=FACE_OUTER_BOUND('',#197,.T.);
#133=FACE_OUTER_BOUND('',#198,.T.);
#134=FACE_OUTER_BOUND('',#217,.T.);
#135=EDGE_LOOP('',(#655,#656,#657,#658));
#136=EDGE_LOOP('',(#659,#660,#661,#662));
#137=EDGE_LOOP('',(#663,#664,#665,#666));
#138=EDGE_LOOP('',(#667,#668,#669,#670));
#139=EDGE_LOOP('',(#671,#672,#673,#674));
#140=EDGE_LOOP('',(#675,#676,#677,#678));
#141=EDGE_LOOP('',(#679,#680,#681,#682));
#142=EDGE_LOOP('',(#683,#684,#685,#686));
#143=EDGE_LOOP('',(#687,#688,#689,#690));
#144=EDGE_LOOP('',(#691,#692,#693,#694));
#145=EDGE_LOOP('',(#695,#696,#697,#698));
#146=EDGE_LOOP('',(#699,#700,#701,#702));
#147=EDGE_LOOP('',(#703,#704,#705,#706));
#148=EDGE_LOOP('',(#707,#708,#709,#710));
#149=EDGE_LOOP('',(#711,#712,#713,#714));
#150=EDGE_LOOP('',(#715,#716,#717,#718));
#151=EDGE_LOOP('',(#719,#720,#721,#722));
#152=EDGE_LOOP('',(#723,#724,#725,#726));
#153=EDGE_LOOP('',(#727,#728,#729,#730));
#154=EDGE_LOOP('',(#731,#732,#733,#734));
#155=EDGE_LOOP('',(#735,#736,#737,#738));
#156=EDGE_LOOP('',(#739,#740,#741,#742));
#157=EDGE_LOOP('',(#743,#744,#745,#746));
#158=EDGE_LOOP('',(#747,#748,#749,#750));
#159=EDGE_LOOP('',(#751,#752,#753,#754));
#160=EDGE_LOOP('',(#755,#756,#757,#758));
#161=EDGE_LOOP('',(#759,#760,#761,#762));
#162=EDGE_LOOP('',(#763,#764,#765,#766));
#163=EDGE_LOOP('',(#767,#768,#769,#770));
#164=EDGE_LOOP('',(#771,#772,#773,#774));
#165=EDGE_LOOP('',(#775,#776,#777,#778));
#166=EDGE_LOOP('',(#779,#780,#781,#782));
#167=EDGE_LOOP('',(#783,#784,#785,#786));
#168=EDGE_LOOP('',(#787,#788,#789,#790));
#169=EDGE_LOOP('',(#791,#792,#793,#794));
#170=EDGE_LOOP('',(#795,#796,#797,#798));
#171=EDGE_LOOP('',(#799,#800,#801,#802));
#172=EDGE_LOOP('',(#803,#804,#805,#806));
#173=EDGE_LOOP('',(#807,#808,#809,#810));
#174=EDGE_LOOP('',(#811,#812,#813,#814));
#175=EDGE_LOOP('',(#815,#816,#817,#818));
#176=EDGE_LOOP('',(#819,#820,#821,#822));
#177=EDGE_LOOP('',(#823,#824,#825,#826));
#178=EDGE_LOOP('',(#827));
#179=EDGE_LOOP('',(#828));
#180=EDGE_LOOP('',(#829));
#181=EDGE_LOOP('',(#830));
#182=EDGE_LOOP('',(#831,#832,#833,#834));
#183=EDGE_LOOP('',(#835));
#184=EDGE_LOOP('',(#836));
#185=EDGE_LOOP('',(#837));
#186=EDGE_LOOP('',(#838));
#187=EDGE_LOOP('',(#839));
#188=EDGE_LOOP('',(#840));
#189=EDGE_LOOP('',(#841));
#190=EDGE_LOOP('',(#842));
#191=EDGE_LOOP('',(#843,#844,#845,#846));
#192=EDGE_LOOP('',(#847,#848,#849,#850));
#193=EDGE_LOOP('',(#851,#852,#853,#854));
#194=EDGE_LOOP('',(#855,#856,#857,#858));
#195=EDGE_LOOP('',(#859,#860,#861,#862));
#196=EDGE_LOOP('',(#863,#864,#865,#866));
#197=EDGE_LOOP('',(#867,#868,#869,#870));
#198=EDGE_LOOP('',(#871,#872,#873,#874));
#199=EDGE_LOOP('',(#875,#876,#877,#878));
#200=EDGE_LOOP('',(#879,#880,#881,#882));
#201=EDGE_LOOP('',(#883));
#202=EDGE_LOOP('',(#884));
#203=EDGE_LOOP('',(#885));
#204=EDGE_LOOP('',(#886));
#205=EDGE_LOOP('',(#887,#888,#889,#890));
#206=EDGE_LOOP('',(#891));
#207=EDGE_LOOP('',(#892));
#208=EDGE_LOOP('',(#893));
#209=EDGE_LOOP('',(#894));
#210=EDGE_LOOP('',(#895));
#211=EDGE_LOOP('',(#896));
#212=EDGE_LOOP('',(#897));
#213=EDGE_LOOP('',(#898));
#214=EDGE_LOOP('',(#899,#900,#901,#902));
#215=EDGE_LOOP('',(#903,#904,#905,#906));
#216=EDGE_LOOP('',(#907,#908,#909,#910));
#217=EDGE_LOOP('',(#911,#912,#913,#914));
#218=EDGE_LOOP('',(#915,#916,#917,#918));
#219=LINE('',#1342,#327);
#220=LINE('',#1344,#328);
#221=LINE('',#1346,#329);
#222=LINE('',#1347,#330);
#223=LINE('',#1350,#331);
#224=LINE('',#1352,#332);
#225=LINE('',#1353,#333);
#226=LINE('',#1356,#334);
#227=LINE('',#1358,#335);
#228=LINE('',#1359,#336);
#229=LINE('',#1361,#337);
#230=LINE('',#1362,#338);
#231=LINE('',#1366,#339);
#232=LINE('',#1368,#340);
#233=LINE('',#1370,#341);
#234=LINE('',#1371,#342);
#235=LINE('',#1374,#343);
#236=LINE('',#1376,#344);
#237=LINE('',#1377,#345);
#238=LINE('',#1380,#346);
#239=LINE('',#1382,#347);
#240=LINE('',#1383,#348);
#241=LINE('',#1385,#349);
#242=LINE('',#1386,#350);
#243=LINE('',#1390,#351);
#244=LINE('',#1392,#352);
#245=LINE('',#1394,#353);
#246=LINE('',#1395,#354);
#247=LINE('',#1398,#355);
#248=LINE('',#1400,#356);
#249=LINE('',#1401,#357);
#250=LINE('',#1404,#358);
#251=LINE('',#1406,#359);
#252=LINE('',#1407,#360);
#253=LINE('',#1409,#361);
#254=LINE('',#1410,#362);
#255=LINE('',#1414,#363);
#256=LINE('',#1416,#364);
#257=LINE('',#1418,#365);
#258=LINE('',#1419,#366);
#259=LINE('',#1422,#367);
#260=LINE('',#1424,#368);
#261=LINE('',#1425,#369);
#262=LINE('',#1428,#370);
#263=LINE('',#1430,#371);
#264=LINE('',#1431,#372);
#265=LINE('',#1433,#373);
#266=LINE('',#1434,#374);
#267=LINE('',#1438,#375);
#268=LINE('',#1440,#376);
#269=LINE('',#1442,#377);
#270=LINE('',#1443,#378);
#271=LINE('',#1446,#379);
#272=LINE('',#1448,#380);
#273=LINE('',#1449,#381);
#274=LINE('',#1452,#382);
#275=LINE('',#1454,#383);
#276=LINE('',#1455,#384);
#277=LINE('',#1457,#385);
#278=LINE('',#1458,#386);
#279=LINE('',#1463,#387);
#280=LINE('',#1469,#388);
#281=LINE('',#1475,#389);
#282=LINE('',#1481,#390);
#283=LINE('',#1486,#391);
#284=LINE('',#1488,#392);
#285=LINE('',#1490,#393);
#286=LINE('',#1491,#394);
#287=LINE('',#1494,#395);
#288=LINE('',#1496,#396);
#289=LINE('',#1497,#397);
#290=LINE('',#1500,#398);
#291=LINE('',#1502,#399);
#292=LINE('',#1503,#400);
#293=LINE('',#1505,#401);
#294=LINE('',#1506,#402);
#295=LINE('',#1511,#403);
#296=LINE('',#1517,#404);
#297=LINE('',#1523,#405);
#298=LINE('',#1529,#406);
#299=LINE('',#1535,#407);
#300=LINE('',#1541,#408);
#301=LINE('',#1547,#409);
#302=LINE('',#1553,#410);
#303=LINE('',#1558,#411);
#304=LINE('',#1560,#412);
#305=LINE('',#1562,#413);
#306=LINE('',#1563,#414);
#307=LINE('',#1566,#415);
#308=LINE('',#1568,#416);
#309=LINE('',#1569,#417);
#310=LINE('',#1572,#418);
#311=LINE('',#1574,#419);
#312=LINE('',#1575,#420);
#313=LINE('',#1577,#421);
#314=LINE('',#1578,#422);
#315=LINE('',#1583,#423);
#316=LINE('',#1585,#424);
#317=LINE('',#1587,#425);
#318=LINE('',#1588,#426);
#319=LINE('',#1591,#427);
#320=LINE('',#1593,#428);
#321=LINE('',#1594,#429);
#322=LINE('',#1597,#430);
#323=LINE('',#1599,#431);
#324=LINE('',#1600,#432);
#325=LINE('',#1602,#433);
#326=LINE('',#1603,#434);
#327=VECTOR('',#1090,10.);
#328=VECTOR('',#1091,10.);
#329=VECTOR('',#1092,10.);
#330=VECTOR('',#1093,10.);
#331=VECTOR('',#1096,10.);
#332=VECTOR('',#1097,10.);
#333=VECTOR('',#1098,10.);
#334=VECTOR('',#1101,10.);
#335=VECTOR('',#1102,10.);
#336=VECTOR('',#1103,10.);
#337=VECTOR('',#1106,10.);
#338=VECTOR('',#1107,10.);
#339=VECTOR('',#1110,10.);
#340=VECTOR('',#1111,10.);
#341=VECTOR('',#1112,10.);
#342=VECTOR('',#1113,10.);
#343=VECTOR('',#1116,10.);
#344=VECTOR('',#1117,10.);
#345=VECTOR('',#1118,10.);
#346=VECTOR('',#1121,10.);
#347=VECTOR('',#1122,10.);
#348=VECTOR('',#1123,10.);
#349=VECTOR('',#1126,10.);
#350=VECTOR('',#1127,10.);
#351=VECTOR('',#1130,10.);
#352=VECTOR('',#1131,10.);
#353=VECTOR('',#1132,10.);
#354=VECTOR('',#1133,10.);
#355=VECTOR('',#1136,10.);
#356=VECTOR('',#1137,10.);
#357=VECTOR('',#1138,10.);
#358=VECTOR('',#1141,10.);
#359=VECTOR('',#1142,10.);
#360=VECTOR('',#1143,10.);
#361=VECTOR('',#1146,10.);
#362=VECTOR('',#1147,10.);
#363=VECTOR('',#1150,10.);
#364=VECTOR('',#1151,10.);
#365=VECTOR('',#1152,10.);
#366=VECTOR('',#1153,10.);
#367=VECTOR('',#1156,10.);
#368=VECTOR('',#1157,10.);
#369=VECTOR('',#1158,10.);
#370=VECTOR('',#1161,10.);
#371=VECTOR('',#1162,10.);
#372=VECTOR('',#1163,10.);
#373=VECTOR('',#1166,10.);
#374=VECTOR('',#1167,10.);
#375=VECTOR('',#1170,10.);
#376=VECTOR('',#1171,10.);
#377=VECTOR('',#1172,10.);
#378=VECTOR('',#1173,10.);
#379=VECTOR('',#1176,10.);
#380=VECTOR('',#1177,10.);
#381=VECTOR('',#1178,10.);
#382=VECTOR('',#1181,10.);
#383=VECTOR('',#1182,10.);
#384=VECTOR('',#1183,10.);
#385=VECTOR('',#1186,10.);
#386=VECTOR('',#1187,10.);
#387=VECTOR('',#1192,0.899999999999999);
#388=VECTOR('',#1199,0.899999999999999);
#389=VECTOR('',#1206,1.6);
#390=VECTOR('',#1213,1.6);
#391=VECTOR('',#1218,10.);
#392=VECTOR('',#1219,10.);
#393=VECTOR('',#1220,10.);
#394=VECTOR('',#1221,10.);
#395=VECTOR('',#1224,10.);
#396=VECTOR('',#1225,10.);
#397=VECTOR('',#1226,10.);
#398=VECTOR('',#1229,10.);
#399=VECTOR('',#1230,10.);
#400=VECTOR('',#1231,10.);
#401=VECTOR('',#1234,10.);
#402=VECTOR('',#1235,10.);
#403=VECTOR('',#1240,1.65);
#404=VECTOR('',#1247,1.65);
#405=VECTOR('',#1254,1.65);
#406=VECTOR('',#1261,1.6);
#407=VECTOR('',#1268,1.65);
#408=VECTOR('',#1275,0.899999999999999);
#409=VECTOR('',#1282,0.899999999999999);
#410=VECTOR('',#1289,0.899999999999999);
#411=VECTOR('',#1294,10.);
#412=VECTOR('',#1295,10.);
#413=VECTOR('',#1296,10.);
#414=VECTOR('',#1297,10.);
#415=VECTOR('',#1300,10.);
#416=VECTOR('',#1301,10.);
#417=VECTOR('',#1302,10.);
#418=VECTOR('',#1305,10.);
#419=VECTOR('',#1306,10.);
#420=VECTOR('',#1307,10.);
#421=VECTOR('',#1310,10.);
#422=VECTOR('',#1311,10.);
#423=VECTOR('',#1316,10.);
#424=VECTOR('',#1317,10.);
#425=VECTOR('',#1318,10.);
#426=VECTOR('',#1319,10.);
#427=VECTOR('',#1322,10.);
#428=VECTOR('',#1323,10.);
#429=VECTOR('',#1324,10.);
#430=VECTOR('',#1327,10.);
#431=VECTOR('',#1328,10.);
#432=VECTOR('',#1329,10.);
#433=VECTOR('',#1332,10.);
#434=VECTOR('',#1333,10.);
#435=VERTEX_POINT('',#1340);
#436=VERTEX_POINT('',#1341);
#437=VERTEX_POINT('',#1343);
#438=VERTEX_POINT('',#1345);
#439=VERTEX_POINT('',#1349);
#440=VERTEX_POINT('',#1351);
#441=VERTEX_POINT('',#1355);
#442=VERTEX_POINT('',#1357);
#443=VERTEX_POINT('',#1364);
#444=VERTEX_POINT('',#1365);
#445=VERTEX_POINT('',#1367);
#446=VERTEX_POINT('',#1369);
#447=VERTEX_POINT('',#1373);
#448=VERTEX_POINT('',#1375);
#449=VERTEX_POINT('',#1379);
#450=VERTEX_POINT('',#1381);
#451=VERTEX_POINT('',#1388);
#452=VERTEX_POINT('',#1389);
#453=VERTEX_POINT('',#1391);
#454=VERTEX_POINT('',#1393);
#455=VERTEX_POINT('',#1397);
#456=VERTEX_POINT('',#1399);
#457=VERTEX_POINT('',#1403);
#458=VERTEX_POINT('',#1405);
#459=VERTEX_POINT('',#1412);
#460=VERTEX_POINT('',#1413);
#461=VERTEX_POINT('',#1415);
#462=VERTEX_POINT('',#1417);
#463=VERTEX_POINT('',#1421);
#464=VERTEX_POINT('',#1423);
#465=VERTEX_POINT('',#1427);
#466=VERTEX_POINT('',#1429);
#467=VERTEX_POINT('',#1436);
#468=VERTEX_POINT('',#1437);
#469=VERTEX_POINT('',#1439);
#470=VERTEX_POINT('',#1441);
#471=VERTEX_POINT('',#1445);
#472=VERTEX_POINT('',#1447);
#473=VERTEX_POINT('',#1451);
#474=VERTEX_POINT('',#1453);
#475=VERTEX_POINT('',#1460);
#476=VERTEX_POINT('',#1462);
#477=VERTEX_POINT('',#1466);
#478=VERTEX_POINT('',#1468);
#479=VERTEX_POINT('',#1472);
#480=VERTEX_POINT('',#1474);
#481=VERTEX_POINT('',#1478);
#482=VERTEX_POINT('',#1480);
#483=VERTEX_POINT('',#1484);
#484=VERTEX_POINT('',#1485);
#485=VERTEX_POINT('',#1487);
#486=VERTEX_POINT('',#1489);
#487=VERTEX_POINT('',#1493);
#488=VERTEX_POINT('',#1495);
#489=VERTEX_POINT('',#1499);
#490=VERTEX_POINT('',#1501);
#491=VERTEX_POINT('',#1508);
#492=VERTEX_POINT('',#1510);
#493=VERTEX_POINT('',#1514);
#494=VERTEX_POINT('',#1516);
#495=VERTEX_POINT('',#1520);
#496=VERTEX_POINT('',#1522);
#497=VERTEX_POINT('',#1526);
#498=VERTEX_POINT('',#1528);
#499=VERTEX_POINT('',#1532);
#500=VERTEX_POINT('',#1534);
#501=VERTEX_POINT('',#1538);
#502=VERTEX_POINT('',#1540);
#503=VERTEX_POINT('',#1544);
#504=VERTEX_POINT('',#1546);
#505=VERTEX_POINT('',#1550);
#506=VERTEX_POINT('',#1552);
#507=VERTEX_POINT('',#1556);
#508=VERTEX_POINT('',#1557);
#509=VERTEX_POINT('',#1559);
#510=VERTEX_POINT('',#1561);
#511=VERTEX_POINT('',#1565);
#512=VERTEX_POINT('',#1567);
#513=VERTEX_POINT('',#1571);
#514=VERTEX_POINT('',#1573);
#515=VERTEX_POINT('',#1581);
#516=VERTEX_POINT('',#1582);
#517=VERTEX_POINT('',#1584);
#518=VERTEX_POINT('',#1586);
#519=VERTEX_POINT('',#1590);
#520=VERTEX_POINT('',#1592);
#521=VERTEX_POINT('',#1596);
#522=VERTEX_POINT('',#1598);
#523=EDGE_CURVE('',#435,#436,#219,.T.);
#524=EDGE_CURVE('',#437,#435,#220,.T.);
#525=EDGE_CURVE('',#438,#437,#221,.T.);
#526=EDGE_CURVE('',#438,#436,#222,.T.);
#527=EDGE_CURVE('',#436,#439,#223,.T.);
#528=EDGE_CURVE('',#440,#438,#224,.T.);
#529=EDGE_CURVE('',#440,#439,#225,.T.);
#530=EDGE_CURVE('',#439,#441,#226,.T.);
#531=EDGE_CURVE('',#442,#440,#227,.T.);
#532=EDGE_CURVE('',#442,#441,#228,.T.);
#533=EDGE_CURVE('',#441,#435,#229,.T.);
#534=EDGE_CURVE('',#437,#442,#230,.T.);
#535=EDGE_CURVE('',#443,#444,#231,.T.);
#536=EDGE_CURVE('',#445,#443,#232,.T.);
#537=EDGE_CURVE('',#446,#445,#233,.T.);
#538=EDGE_CURVE('',#446,#444,#234,.T.);
#539=EDGE_CURVE('',#444,#447,#235,.T.);
#540=EDGE_CURVE('',#448,#446,#236,.T.);
#541=EDGE_CURVE('',#448,#447,#237,.T.);
#542=EDGE_CURVE('',#447,#449,#238,.T.);
#543=EDGE_CURVE('',#450,#448,#239,.T.);
#544=EDGE_CURVE('',#450,#449,#240,.T.);
#545=EDGE_CURVE('',#449,#443,#241,.T.);
#546=EDGE_CURVE('',#445,#450,#242,.T.);
#547=EDGE_CURVE('',#451,#452,#243,.T.);
#548=EDGE_CURVE('',#453,#451,#244,.T.);
#549=EDGE_CURVE('',#454,#453,#245,.T.);
#550=EDGE_CURVE('',#454,#452,#246,.T.);
#551=EDGE_CURVE('',#452,#455,#247,.T.);
#552=EDGE_CURVE('',#456,#454,#248,.T.);
#553=EDGE_CURVE('',#456,#455,#249,.T.);
#554=EDGE_CURVE('',#455,#457,#250,.T.);
#555=EDGE_CURVE('',#458,#456,#251,.T.);
#556=EDGE_CURVE('',#458,#457,#252,.T.);
#557=EDGE_CURVE('',#457,#451,#253,.T.);
#558=EDGE_CURVE('',#453,#458,#254,.T.);
#559=EDGE_CURVE('',#459,#460,#255,.T.);
#560=EDGE_CURVE('',#461,#459,#256,.T.);
#561=EDGE_CURVE('',#462,#461,#257,.T.);
#562=EDGE_CURVE('',#462,#460,#258,.T.);
#563=EDGE_CURVE('',#460,#463,#259,.T.);
#564=EDGE_CURVE('',#464,#462,#260,.T.);
#565=EDGE_CURVE('',#464,#463,#261,.T.);
#566=EDGE_CURVE('',#463,#465,#262,.T.);
#567=EDGE_CURVE('',#466,#464,#263,.T.);
#568=EDGE_CURVE('',#466,#465,#264,.T.);
#569=EDGE_CURVE('',#465,#459,#265,.T.);
#570=EDGE_CURVE('',#461,#466,#266,.T.);
#571=EDGE_CURVE('',#467,#468,#267,.T.);
#572=EDGE_CURVE('',#469,#467,#268,.T.);
#573=EDGE_CURVE('',#470,#469,#269,.T.);
#574=EDGE_CURVE('',#470,#468,#270,.T.);
#575=EDGE_CURVE('',#468,#471,#271,.T.);
#576=EDGE_CURVE('',#472,#470,#272,.T.);
#577=EDGE_CURVE('',#472,#471,#273,.T.);
#578=EDGE_CURVE('',#471,#473,#274,.T.);
#579=EDGE_CURVE('',#474,#472,#275,.T.);
#580=EDGE_CURVE('',#474,#473,#276,.T.);
#581=EDGE_CURVE('',#473,#467,#277,.T.);
#582=EDGE_CURVE('',#469,#474,#278,.T.);
#583=EDGE_CURVE('',#475,#475,#52,.T.);
#584=EDGE_CURVE('',#475,#476,#279,.T.);
#585=EDGE_CURVE('',#476,#476,#53,.T.);
#586=EDGE_CURVE('',#477,#477,#54,.T.);
#587=EDGE_CURVE('',#477,#478,#280,.T.);
#588=EDGE_CURVE('',#478,#478,#55,.T.);
#589=EDGE_CURVE('',#479,#479,#56,.T.);
#590=EDGE_CURVE('',#479,#480,#281,.T.);
#591=EDGE_CURVE('',#480,#480,#57,.T.);
#592=EDGE_CURVE('',#481,#481,#58,.T.);
#593=EDGE_CURVE('',#481,#482,#282,.T.);
#594=EDGE_CURVE('',#482,#482,#59,.T.);
#595=EDGE_CURVE('',#483,#484,#283,.T.);
#596=EDGE_CURVE('',#485,#483,#284,.T.);
#597=EDGE_CURVE('',#486,#485,#285,.T.);
#598=EDGE_CURVE('',#486,#484,#286,.T.);
#599=EDGE_CURVE('',#484,#487,#287,.T.);
#600=EDGE_CURVE('',#488,#486,#288,.T.);
#601=EDGE_CURVE('',#488,#487,#289,.T.);
#602=EDGE_CURVE('',#487,#489,#290,.T.);
#603=EDGE_CURVE('',#490,#488,#291,.T.);
#604=EDGE_CURVE('',#490,#489,#292,.T.);
#605=EDGE_CURVE('',#489,#483,#293,.T.);
#606=EDGE_CURVE('',#485,#490,#294,.T.);
#607=EDGE_CURVE('',#491,#491,#60,.T.);
#608=EDGE_CURVE('',#491,#492,#295,.T.);
#609=EDGE_CURVE('',#492,#492,#61,.T.);
#610=EDGE_CURVE('',#493,#493,#62,.T.);
#611=EDGE_CURVE('',#493,#494,#296,.T.);
#612=EDGE_CURVE('',#494,#494,#63,.T.);
#613=EDGE_CURVE('',#495,#495,#64,.T.);
#614=EDGE_CURVE('',#495,#496,#297,.T.);
#615=EDGE_CURVE('',#496,#496,#65,.T.);
#616=EDGE_CURVE('',#497,#497,#66,.T.);
#617=EDGE_CURVE('',#497,#498,#298,.T.);
#618=EDGE_CURVE('',#498,#498,#67,.T.);
#619=EDGE_CURVE('',#499,#499,#68,.T.);
#620=EDGE_CURVE('',#499,#500,#299,.T.);
#621=EDGE_CURVE('',#500,#500,#69,.T.);
#622=EDGE_CURVE('',#501,#501,#70,.T.);
#623=EDGE_CURVE('',#501,#502,#300,.T.);
#624=EDGE_CURVE('',#502,#502,#71,.T.);
#625=EDGE_CURVE('',#503,#503,#72,.T.);
#626=EDGE_CURVE('',#503,#504,#301,.T.);
#627=EDGE_CURVE('',#504,#504,#73,.T.);
#628=EDGE_CURVE('',#505,#505,#74,.T.);
#629=EDGE_CURVE('',#505,#506,#302,.T.);
#630=EDGE_CURVE('',#506,#506,#75,.T.);
#631=EDGE_CURVE('',#507,#508,#303,.T.);
#632=EDGE_CURVE('',#507,#509,#304,.T.);
#633=EDGE_CURVE('',#509,#510,#305,.T.);
#634=EDGE_CURVE('',#508,#510,#306,.T.);
#635=EDGE_CURVE('',#511,#507,#307,.T.);
#636=EDGE_CURVE('',#511,#512,#308,.T.);
#637=EDGE_CURVE('',#512,#509,#309,.T.);
#638=EDGE_CURVE('',#513,#511,#310,.T.);
#639=EDGE_CURVE('',#513,#514,#311,.T.);
#640=EDGE_CURVE('',#514,#512,#312,.T.);
#641=EDGE_CURVE('',#508,#513,#313,.T.);
#642=EDGE_CURVE('',#510,#514,#314,.T.);
#643=EDGE_CURVE('',#515,#516,#315,.T.);
#644=EDGE_CURVE('',#516,#517,#316,.T.);
#645=EDGE_CURVE('',#518,#517,#317,.T.);
#646=EDGE_CURVE('',#515,#518,#318,.T.);
#647=EDGE_CURVE('',#519,#515,#319,.T.);
#648=EDGE_CURVE('',#520,#518,#320,.T.);
#649=EDGE_CURVE('',#519,#520,#321,.T.);
#650=EDGE_CURVE('',#521,#519,#322,.T.);
#651=EDGE_CURVE('',#522,#520,#323,.T.);
#652=EDGE_CURVE('',#521,#522,#324,.T.);
#653=EDGE_CURVE('',#516,#521,#325,.T.);
#654=EDGE_CURVE('',#517,#522,#326,.T.);
#655=ORIENTED_EDGE('',*,*,#523,.F.);
#656=ORIENTED_EDGE('',*,*,#524,.F.);
#657=ORIENTED_EDGE('',*,*,#525,.F.);
#658=ORIENTED_EDGE('',*,*,#526,.T.);
#659=ORIENTED_EDGE('',*,*,#527,.F.);
#660=ORIENTED_EDGE('',*,*,#526,.F.);
#661=ORIENTED_EDGE('',*,*,#528,.F.);
#662=ORIENTED_EDGE('',*,*,#529,.T.);
#663=ORIENTED_EDGE('',*,*,#530,.F.);
#664=ORIENTED_EDGE('',*,*,#529,.F.);
#665=ORIENTED_EDGE('',*,*,#531,.F.);
#666=ORIENTED_EDGE('',*,*,#532,.T.);
#667=ORIENTED_EDGE('',*,*,#533,.F.);
#668=ORIENTED_EDGE('',*,*,#532,.F.);
#669=ORIENTED_EDGE('',*,*,#534,.F.);
#670=ORIENTED_EDGE('',*,*,#524,.T.);
#671=ORIENTED_EDGE('',*,*,#535,.F.);
#672=ORIENTED_EDGE('',*,*,#536,.F.);
#673=ORIENTED_EDGE('',*,*,#537,.F.);
#674=ORIENTED_EDGE('',*,*,#538,.T.);
#675=ORIENTED_EDGE('',*,*,#539,.F.);
#676=ORIENTED_EDGE('',*,*,#538,.F.);
#677=ORIENTED_EDGE('',*,*,#540,.F.);
#678=ORIENTED_EDGE('',*,*,#541,.T.);
#679=ORIENTED_EDGE('',*,*,#542,.F.);
#680=ORIENTED_EDGE('',*,*,#541,.F.);
#681=ORIENTED_EDGE('',*,*,#543,.F.);
#682=ORIENTED_EDGE('',*,*,#544,.T.);
#683=ORIENTED_EDGE('',*,*,#545,.F.);
#684=ORIENTED_EDGE('',*,*,#544,.F.);
#685=ORIENTED_EDGE('',*,*,#546,.F.);
#686=ORIENTED_EDGE('',*,*,#536,.T.);
#687=ORIENTED_EDGE('',*,*,#547,.F.);
#688=ORIENTED_EDGE('',*,*,#548,.F.);
#689=ORIENTED_EDGE('',*,*,#549,.F.);
#690=ORIENTED_EDGE('',*,*,#550,.T.);
#691=ORIENTED_EDGE('',*,*,#551,.F.);
#692=ORIENTED_EDGE('',*,*,#550,.F.);
#693=ORIENTED_EDGE('',*,*,#552,.F.);
#694=ORIENTED_EDGE('',*,*,#553,.T.);
#695=ORIENTED_EDGE('',*,*,#554,.F.);
#696=ORIENTED_EDGE('',*,*,#553,.F.);
#697=ORIENTED_EDGE('',*,*,#555,.F.);
#698=ORIENTED_EDGE('',*,*,#556,.T.);
#699=ORIENTED_EDGE('',*,*,#557,.F.);
#700=ORIENTED_EDGE('',*,*,#556,.F.);
#701=ORIENTED_EDGE('',*,*,#558,.F.);
#702=ORIENTED_EDGE('',*,*,#548,.T.);
#703=ORIENTED_EDGE('',*,*,#559,.F.);
#704=ORIENTED_EDGE('',*,*,#560,.F.);
#705=ORIENTED_EDGE('',*,*,#561,.F.);
#706=ORIENTED_EDGE('',*,*,#562,.T.);
#707=ORIENTED_EDGE('',*,*,#563,.F.);
#708=ORIENTED_EDGE('',*,*,#562,.F.);
#709=ORIENTED_EDGE('',*,*,#564,.F.);
#710=ORIENTED_EDGE('',*,*,#565,.T.);
#711=ORIENTED_EDGE('',*,*,#566,.F.);
#712=ORIENTED_EDGE('',*,*,#565,.F.);
#713=ORIENTED_EDGE('',*,*,#567,.F.);
#714=ORIENTED_EDGE('',*,*,#568,.T.);
#715=ORIENTED_EDGE('',*,*,#569,.F.);
#716=ORIENTED_EDGE('',*,*,#568,.F.);
#717=ORIENTED_EDGE('',*,*,#570,.F.);
#718=ORIENTED_EDGE('',*,*,#560,.T.);
#719=ORIENTED_EDGE('',*,*,#571,.F.);
#720=ORIENTED_EDGE('',*,*,#572,.F.);
#721=ORIENTED_EDGE('',*,*,#573,.F.);
#722=ORIENTED_EDGE('',*,*,#574,.T.);
#723=ORIENTED_EDGE('',*,*,#575,.F.);
#724=ORIENTED_EDGE('',*,*,#574,.F.);
#725=ORIENTED_EDGE('',*,*,#576,.F.);
#726=ORIENTED_EDGE('',*,*,#577,.T.);
#727=ORIENTED_EDGE('',*,*,#578,.F.);
#728=ORIENTED_EDGE('',*,*,#577,.F.);
#729=ORIENTED_EDGE('',*,*,#579,.F.);
#730=ORIENTED_EDGE('',*,*,#580,.T.);
#731=ORIENTED_EDGE('',*,*,#581,.F.);
#732=ORIENTED_EDGE('',*,*,#580,.F.);
#733=ORIENTED_EDGE('',*,*,#582,.F.);
#734=ORIENTED_EDGE('',*,*,#572,.T.);
#735=ORIENTED_EDGE('',*,*,#583,.F.);
#736=ORIENTED_EDGE('',*,*,#584,.T.);
#737=ORIENTED_EDGE('',*,*,#585,.F.);
#738=ORIENTED_EDGE('',*,*,#584,.F.);
#739=ORIENTED_EDGE('',*,*,#586,.F.);
#740=ORIENTED_EDGE('',*,*,#587,.T.);
#741=ORIENTED_EDGE('',*,*,#588,.F.);
#742=ORIENTED_EDGE('',*,*,#587,.F.);
#743=ORIENTED_EDGE('',*,*,#589,.F.);
#744=ORIENTED_EDGE('',*,*,#590,.T.);
#745=ORIENTED_EDGE('',*,*,#591,.F.);
#746=ORIENTED_EDGE('',*,*,#590,.F.);
#747=ORIENTED_EDGE('',*,*,#592,.F.);
#748=ORIENTED_EDGE('',*,*,#593,.T.);
#749=ORIENTED_EDGE('',*,*,#594,.F.);
#750=ORIENTED_EDGE('',*,*,#593,.F.);
#751=ORIENTED_EDGE('',*,*,#595,.F.);
#752=ORIENTED_EDGE('',*,*,#596,.F.);
#753=ORIENTED_EDGE('',*,*,#597,.F.);
#754=ORIENTED_EDGE('',*,*,#598,.T.);
#755=ORIENTED_EDGE('',*,*,#599,.F.);
#756=ORIENTED_EDGE('',*,*,#598,.F.);
#757=ORIENTED_EDGE('',*,*,#600,.F.);
#758=ORIENTED_EDGE('',*,*,#601,.T.);
#759=ORIENTED_EDGE('',*,*,#602,.F.);
#760=ORIENTED_EDGE('',*,*,#601,.F.);
#761=ORIENTED_EDGE('',*,*,#603,.F.);
#762=ORIENTED_EDGE('',*,*,#604,.T.);
#763=ORIENTED_EDGE('',*,*,#605,.F.);
#764=ORIENTED_EDGE('',*,*,#604,.F.);
#765=ORIENTED_EDGE('',*,*,#606,.F.);
#766=ORIENTED_EDGE('',*,*,#596,.T.);
#767=ORIENTED_EDGE('',*,*,#607,.F.);
#768=ORIENTED_EDGE('',*,*,#608,.T.);
#769=ORIENTED_EDGE('',*,*,#609,.F.);
#770=ORIENTED_EDGE('',*,*,#608,.F.);
#771=ORIENTED_EDGE('',*,*,#610,.F.);
#772=ORIENTED_EDGE('',*,*,#611,.T.);
#773=ORIENTED_EDGE('',*,*,#612,.F.);
#774=ORIENTED_EDGE('',*,*,#611,.F.);
#775=ORIENTED_EDGE('',*,*,#613,.F.);
#776=ORIENTED_EDGE('',*,*,#614,.T.);
#777=ORIENTED_EDGE('',*,*,#615,.F.);
#778=ORIENTED_EDGE('',*,*,#614,.F.);
#779=ORIENTED_EDGE('',*,*,#616,.F.);
#780=ORIENTED_EDGE('',*,*,#617,.T.);
#781=ORIENTED_EDGE('',*,*,#618,.F.);
#782=ORIENTED_EDGE('',*,*,#617,.F.);
#783=ORIENTED_EDGE('',*,*,#619,.F.);
#784=ORIENTED_EDGE('',*,*,#620,.T.);
#785=ORIENTED_EDGE('',*,*,#621,.F.);
#786=ORIENTED_EDGE('',*,*,#620,.F.);
#787=ORIENTED_EDGE('',*,*,#622,.F.);
#788=ORIENTED_EDGE('',*,*,#623,.T.);
#789=ORIENTED_EDGE('',*,*,#624,.F.);
#790=ORIENTED_EDGE('',*,*,#623,.F.);
#791=ORIENTED_EDGE('',*,*,#625,.F.);
#792=ORIENTED_EDGE('',*,*,#626,.T.);
#793=ORIENTED_EDGE('',*,*,#627,.F.);
#794=ORIENTED_EDGE('',*,*,#626,.F.);
#795=ORIENTED_EDGE('',*,*,#628,.F.);
#796=ORIENTED_EDGE('',*,*,#629,.T.);
#797=ORIENTED_EDGE('',*,*,#630,.F.);
#798=ORIENTED_EDGE('',*,*,#629,.F.);
#799=ORIENTED_EDGE('',*,*,#631,.F.);
#800=ORIENTED_EDGE('',*,*,#632,.T.);
#801=ORIENTED_EDGE('',*,*,#633,.T.);
#802=ORIENTED_EDGE('',*,*,#634,.F.);
#803=ORIENTED_EDGE('',*,*,#635,.F.);
#804=ORIENTED_EDGE('',*,*,#636,.T.);
#805=ORIENTED_EDGE('',*,*,#637,.T.);
#806=ORIENTED_EDGE('',*,*,#632,.F.);
#807=ORIENTED_EDGE('',*,*,#638,.F.);
#808=ORIENTED_EDGE('',*,*,#639,.T.);
#809=ORIENTED_EDGE('',*,*,#640,.T.);
#810=ORIENTED_EDGE('',*,*,#636,.F.);
#811=ORIENTED_EDGE('',*,*,#641,.F.);
#812=ORIENTED_EDGE('',*,*,#634,.T.);
#813=ORIENTED_EDGE('',*,*,#642,.T.);
#814=ORIENTED_EDGE('',*,*,#639,.F.);
#815=ORIENTED_EDGE('',*,*,#642,.F.);
#816=ORIENTED_EDGE('',*,*,#633,.F.);
#817=ORIENTED_EDGE('',*,*,#637,.F.);
#818=ORIENTED_EDGE('',*,*,#640,.F.);
#819=ORIENTED_EDGE('',*,*,#542,.T.);
#820=ORIENTED_EDGE('',*,*,#545,.T.);
#821=ORIENTED_EDGE('',*,*,#535,.T.);
#822=ORIENTED_EDGE('',*,*,#539,.T.);
#823=ORIENTED_EDGE('',*,*,#566,.T.);
#824=ORIENTED_EDGE('',*,*,#569,.T.);
#825=ORIENTED_EDGE('',*,*,#559,.T.);
#826=ORIENTED_EDGE('',*,*,#563,.T.);
#827=ORIENTED_EDGE('',*,*,#585,.T.);
#828=ORIENTED_EDGE('',*,*,#588,.T.);
#829=ORIENTED_EDGE('',*,*,#591,.T.);
#830=ORIENTED_EDGE('',*,*,#594,.T.);
#831=ORIENTED_EDGE('',*,*,#602,.T.);
#832=ORIENTED_EDGE('',*,*,#605,.T.);
#833=ORIENTED_EDGE('',*,*,#595,.T.);
#834=ORIENTED_EDGE('',*,*,#599,.T.);
#835=ORIENTED_EDGE('',*,*,#609,.T.);
#836=ORIENTED_EDGE('',*,*,#612,.T.);
#837=ORIENTED_EDGE('',*,*,#615,.T.);
#838=ORIENTED_EDGE('',*,*,#618,.T.);
#839=ORIENTED_EDGE('',*,*,#621,.T.);
#840=ORIENTED_EDGE('',*,*,#624,.T.);
#841=ORIENTED_EDGE('',*,*,#627,.T.);
#842=ORIENTED_EDGE('',*,*,#630,.T.);
#843=ORIENTED_EDGE('',*,*,#578,.T.);
#844=ORIENTED_EDGE('',*,*,#581,.T.);
#845=ORIENTED_EDGE('',*,*,#571,.T.);
#846=ORIENTED_EDGE('',*,*,#575,.T.);
#847=ORIENTED_EDGE('',*,*,#554,.T.);
#848=ORIENTED_EDGE('',*,*,#557,.T.);
#849=ORIENTED_EDGE('',*,*,#547,.T.);
#850=ORIENTED_EDGE('',*,*,#551,.T.);
#851=ORIENTED_EDGE('',*,*,#530,.T.);
#852=ORIENTED_EDGE('',*,*,#533,.T.);
#853=ORIENTED_EDGE('',*,*,#523,.T.);
#854=ORIENTED_EDGE('',*,*,#527,.T.);
#855=ORIENTED_EDGE('',*,*,#643,.T.);
#856=ORIENTED_EDGE('',*,*,#644,.T.);
#857=ORIENTED_EDGE('',*,*,#645,.F.);
#858=ORIENTED_EDGE('',*,*,#646,.F.);
#859=ORIENTED_EDGE('',*,*,#647,.T.);
#860=ORIENTED_EDGE('',*,*,#646,.T.);
#861=ORIENTED_EDGE('',*,*,#648,.F.);
#862=ORIENTED_EDGE('',*,*,#649,.F.);
#863=ORIENTED_EDGE('',*,*,#650,.T.);
#864=ORIENTED_EDGE('',*,*,#649,.T.);
#865=ORIENTED_EDGE('',*,*,#651,.F.);
#866=ORIENTED_EDGE('',*,*,#652,.F.);
#867=ORIENTED_EDGE('',*,*,#653,.T.);
#868=ORIENTED_EDGE('',*,*,#652,.T.);
#869=ORIENTED_EDGE('',*,*,#654,.F.);
#870=ORIENTED_EDGE('',*,*,#644,.F.);
#871=ORIENTED_EDGE('',*,*,#654,.T.);
#872=ORIENTED_EDGE('',*,*,#651,.T.);
#873=ORIENTED_EDGE('',*,*,#648,.T.);
#874=ORIENTED_EDGE('',*,*,#645,.T.);
#875=ORIENTED_EDGE('',*,*,#543,.T.);
#876=ORIENTED_EDGE('',*,*,#540,.T.);
#877=ORIENTED_EDGE('',*,*,#537,.T.);
#878=ORIENTED_EDGE('',*,*,#546,.T.);
#879=ORIENTED_EDGE('',*,*,#567,.T.);
#880=ORIENTED_EDGE('',*,*,#564,.T.);
#881=ORIENTED_EDGE('',*,*,#561,.T.);
#882=ORIENTED_EDGE('',*,*,#570,.T.);
#883=ORIENTED_EDGE('',*,*,#583,.T.);
#884=ORIENTED_EDGE('',*,*,#586,.T.);
#885=ORIENTED_EDGE('',*,*,#589,.T.);
#886=ORIENTED_EDGE('',*,*,#592,.T.);
#887=ORIENTED_EDGE('',*,*,#603,.T.);
#888=ORIENTED_EDGE('',*,*,#600,.T.);
#889=ORIENTED_EDGE('',*,*,#597,.T.);
#890=ORIENTED_EDGE('',*,*,#606,.T.);
#891=ORIENTED_EDGE('',*,*,#607,.T.);
#892=ORIENTED_EDGE('',*,*,#610,.T.);
#893=ORIENTED_EDGE('',*,*,#613,.T.);
#894=ORIENTED_EDGE('',*,*,#616,.T.);
#895=ORIENTED_EDGE('',*,*,#619,.T.);
#896=ORIENTED_EDGE('',*,*,#622,.T.);
#897=ORIENTED_EDGE('',*,*,#625,.T.);
#898=ORIENTED_EDGE('',*,*,#628,.T.);
#899=ORIENTED_EDGE('',*,*,#579,.T.);
#900=ORIENTED_EDGE('',*,*,#576,.T.);
#901=ORIENTED_EDGE('',*,*,#573,.T.);
#902=ORIENTED_EDGE('',*,*,#582,.T.);
#903=ORIENTED_EDGE('',*,*,#555,.T.);
#904=ORIENTED_EDGE('',*,*,#552,.T.);
#905=ORIENTED_EDGE('',*,*,#549,.T.);
#906=ORIENTED_EDGE('',*,*,#558,.T.);
#907=ORIENTED_EDGE('',*,*,#531,.T.);
#908=ORIENTED_EDGE('',*,*,#528,.T.);
#909=ORIENTED_EDGE('',*,*,#525,.T.);
#910=ORIENTED_EDGE('',*,*,#534,.T.);
#911=ORIENTED_EDGE('',*,*,#653,.F.);
#912=ORIENTED_EDGE('',*,*,#643,.F.);
#913=ORIENTED_EDGE('',*,*,#647,.F.);
#914=ORIENTED_EDGE('',*,*,#650,.F.);
#915=ORIENTED_EDGE('',*,*,#631,.T.);
#916=ORIENTED_EDGE('',*,*,#641,.T.);
#917=ORIENTED_EDGE('',*,*,#638,.T.);
#918=ORIENTED_EDGE('',*,*,#635,.T.);
#919=PLANE('',#1015);
#920=PLANE('',#1016);
#921=PLANE('',#1017);
#922=PLANE('',#1018);
#923=PLANE('',#1019);
#924=PLANE('',#1020);
#925=PLANE('',#1021);
#926=PLANE('',#1022);
#927=PLANE('',#1023);
#928=PLANE('',#1024);
#929=PLANE('',#1025);
#930=PLANE('',#1026);
#931=PLANE('',#1027);
#932=PLANE('',#1028);
#933=PLANE('',#1029);
#934=PLANE('',#1030);
#935=PLANE('',#1031);
#936=PLANE('',#1032);
#937=PLANE('',#1033);
#938=PLANE('',#1034);
#939=PLANE('',#1047);
#940=PLANE('',#1048);
#941=PLANE('',#1049);
#942=PLANE('',#1050);
#943=PLANE('',#1075);
#944=PLANE('',#1076);
#945=PLANE('',#1077);
#946=PLANE('',#1078);
#947=PLANE('',#1079);
#948=PLANE('',#1080);
#949=PLANE('',#1081);
#950=PLANE('',#1082);
#951=PLANE('',#1083);
#952=PLANE('',#1084);
#953=PLANE('',#1085);
#954=ADVANCED_FACE('',(#88),#919,.F.);
#955=ADVANCED_FACE('',(#89),#920,.F.);
#956=ADVANCED_FACE('',(#90),#921,.F.);
#957=ADVANCED_FACE('',(#91),#922,.F.);
#958=ADVANCED_FACE('',(#92),#923,.F.);
#959=ADVANCED_FACE('',(#93),#924,.F.);
#960=ADVANCED_FACE('',(#94),#925,.F.);
#961=ADVANCED_FACE('',(#95),#926,.F.);
#962=ADVANCED_FACE('',(#96),#927,.F.);
#963=ADVANCED_FACE('',(#97),#928,.F.);
#964=ADVANCED_FACE('',(#98),#929,.F.);
#965=ADVANCED_FACE('',(#99),#930,.F.);
#966=ADVANCED_FACE('',(#100),#931,.F.);
#967=ADVANCED_FACE('',(#101),#932,.F.);
#968=ADVANCED_FACE('',(#102),#933,.F.);
#969=ADVANCED_FACE('',(#103),#934,.F.);
#970=ADVANCED_FACE('',(#104),#935,.F.);
#971=ADVANCED_FACE('',(#105),#936,.F.);
#972=ADVANCED_FACE('',(#106),#937,.F.);
#973=ADVANCED_FACE('',(#107),#938,.F.);
#974=ADVANCED_FACE('',(#108),#76,.F.);
#975=ADVANCED_FACE('',(#109),#77,.F.);
#976=ADVANCED_FACE('',(#110),#78,.F.);
#977=ADVANCED_FACE('',(#111),#79,.F.);
#978=ADVANCED_FACE('',(#112),#939,.F.);
#979=ADVANCED_FACE('',(#113),#940,.F.);
#980=ADVANCED_FACE('',(#114),#941,.F.);
#981=ADVANCED_FACE('',(#115),#942,.F.);
#982=ADVANCED_FACE('',(#116),#80,.F.);
#983=ADVANCED_FACE('',(#117),#81,.F.);
#984=ADVANCED_FACE('',(#118),#82,.F.);
#985=ADVANCED_FACE('',(#119),#83,.F.);
#986=ADVANCED_FACE('',(#120),#84,.F.);
#987=ADVANCED_FACE('',(#121),#85,.F.);
#988=ADVANCED_FACE('',(#122),#86,.F.);
#989=ADVANCED_FACE('',(#123),#87,.F.);
#990=ADVANCED_FACE('',(#124),#943,.F.);
#991=ADVANCED_FACE('',(#125),#944,.F.);
#992=ADVANCED_FACE('',(#126),#945,.F.);
#993=ADVANCED_FACE('',(#127),#946,.F.);
#994=ADVANCED_FACE('',(#128,#15,#16,#17,#18,#19,#20,#21,#22,#23,#24,#25,
#26,#27,#28,#29,#30,#31,#32),#947,.F.);
#995=ADVANCED_FACE('',(#129),#948,.T.);
#996=ADVANCED_FACE('',(#130),#949,.T.);
#997=ADVANCED_FACE('',(#131),#950,.T.);
#998=ADVANCED_FACE('',(#132),#951,.T.);
#999=ADVANCED_FACE('',(#133,#33,#34,#35,#36,#37,#38,#39,#40,#41,#42,#43,
#44,#45,#46,#47,#48,#49,#50),#952,.T.);
#1000=ADVANCED_FACE('',(#134,#51),#953,.F.);
#1001=CLOSED_SHELL('',(#954,#955,#956,#957,#958,#959,#960,#961,#962,#963,
#964,#965,#966,#967,#968,#969,#970,#971,#972,#973,#974,#975,#976,#977,#978,
#979,#980,#981,#982,#983,#984,#985,#986,#987,#988,#989,#990,#991,#992,#993,
#994,#995,#996,#997,#998,#999,#1000));
#1002=DERIVED_UNIT_ELEMENT(#1004,1.);
#1003=DERIVED_UNIT_ELEMENT(#1611,-3.);
#1004=(
MASS_UNIT()
NAMED_UNIT(*)
SI_UNIT(.KILO.,.GRAM.)
);
#1005=DERIVED_UNIT((#1002,#1003));
#1006=MEASURE_REPRESENTATION_ITEM('density measure',
POSITIVE_RATIO_MEASURE(7850.),#1005);
#1007=PROPERTY_DEFINITION_REPRESENTATION(#1012,#1009);
#1008=PROPERTY_DEFINITION_REPRESENTATION(#1013,#1010);
#1009=REPRESENTATION('material name',(#1011),#1608);
#1010=REPRESENTATION('density',(#1006),#1608);
#1011=DESCRIPTIVE_REPRESENTATION_ITEM('A\X\E7o','A\X\E7o');
#1012=PROPERTY_DEFINITION('material property','material name',#1618);
#1013=PROPERTY_DEFINITION('material property','density of part',#1618);
#1014=AXIS2_PLACEMENT_3D('',#1338,#1086,#1087);
#1015=AXIS2_PLACEMENT_3D('',#1339,#1088,#1089);
#1016=AXIS2_PLACEMENT_3D('',#1348,#1094,#1095);
#1017=AXIS2_PLACEMENT_3D('',#1354,#1099,#1100);
#1018=AXIS2_PLACEMENT_3D('',#1360,#1104,#1105);
#1019=AXIS2_PLACEMENT_3D('',#1363,#1108,#1109);
#1020=AXIS2_PLACEMENT_3D('',#1372,#1114,#1115);
#1021=AXIS2_PLACEMENT_3D('',#1378,#1119,#1120);
#1022=AXIS2_PLACEMENT_3D('',#1384,#1124,#1125);
#1023=AXIS2_PLACEMENT_3D('',#1387,#1128,#1129);
#1024=AXIS2_PLACEMENT_3D('',#1396,#1134,#1135);
#1025=AXIS2_PLACEMENT_3D('',#1402,#1139,#1140);
#1026=AXIS2_PLACEMENT_3D('',#1408,#1144,#1145);
#1027=AXIS2_PLACEMENT_3D('',#1411,#1148,#1149);
#1028=AXIS2_PLACEMENT_3D('',#1420,#1154,#1155);
#1029=AXIS2_PLACEMENT_3D('',#1426,#1159,#1160);
#1030=AXIS2_PLACEMENT_3D('',#1432,#1164,#1165);
#1031=AXIS2_PLACEMENT_3D('',#1435,#1168,#1169);
#1032=AXIS2_PLACEMENT_3D('',#1444,#1174,#1175);
#1033=AXIS2_PLACEMENT_3D('',#1450,#1179,#1180);
#1034=AXIS2_PLACEMENT_3D('',#1456,#1184,#1185);
#1035=AXIS2_PLACEMENT_3D('',#1459,#1188,#1189);
#1036=AXIS2_PLACEMENT_3D('',#1461,#1190,#1191);
#1037=AXIS2_PLACEMENT_3D('',#1464,#1193,#1194);
#1038=AXIS2_PLACEMENT_3D('',#1465,#1195,#1196);
#1039=AXIS2_PLACEMENT_3D('',#1467,#1197,#1198);
#1040=AXIS2_PLACEMENT_3D('',#1470,#1200,#1201);
#1041=AXIS2_PLACEMENT_3D('',#1471,#1202,#1203);
#1042=AXIS2_PLACEMENT_3D('',#1473,#1204,#1205);
#1043=AXIS2_PLACEMENT_3D('',#1476,#1207,#1208);
#1044=AXIS2_PLACEMENT_3D('',#1477,#1209,#1210);
#1045=AXIS2_PLACEMENT_3D('',#1479,#1211,#1212);
#1046=AXIS2_PLACEMENT_3D('',#1482,#1214,#1215);
#1047=AXIS2_PLACEMENT_3D('',#1483,#1216,#1217);
#1048=AXIS2_PLACEMENT_3D('',#1492,#1222,#1223);
#1049=AXIS2_PLACEMENT_3D('',#1498,#1227,#1228);
#1050=AXIS2_PLACEMENT_3D('',#1504,#1232,#1233);
#1051=AXIS2_PLACEMENT_3D('',#1507,#1236,#1237);
#1052=AXIS2_PLACEMENT_3D('',#1509,#1238,#1239);
#1053=AXIS2_PLACEMENT_3D('',#1512,#1241,#1242);
#1054=AXIS2_PLACEMENT_3D('',#1513,#1243,#1244);
#1055=AXIS2_PLACEMENT_3D('',#1515,#1245,#1246);
#1056=AXIS2_PLACEMENT_3D('',#1518,#1248,#1249);
#1057=AXIS2_PLACEMENT_3D('',#1519,#1250,#1251);
#1058=AXIS2_PLACEMENT_3D('',#1521,#1252,#1253);
#1059=AXIS2_PLACEMENT_3D('',#1524,#1255,#1256);
#1060=AXIS2_PLACEMENT_3D('',#1525,#1257,#1258);
#1061=AXIS2_PLACEMENT_3D('',#1527,#1259,#1260);
#1062=AXIS2_PLACEMENT_3D('',#1530,#1262,#1263);
#1063=AXIS2_PLACEMENT_3D('',#1531,#1264,#1265);
#1064=AXIS2_PLACEMENT_3D('',#1533,#1266,#1267);
#1065=AXIS2_PLACEMENT_3D('',#1536,#1269,#1270);
#1066=AXIS2_PLACEMENT_3D('',#1537,#1271,#1272);
#1067=AXIS2_PLACEMENT_3D('',#1539,#1273,#1274);
#1068=AXIS2_PLACEMENT_3D('',#1542,#1276,#1277);
#1069=AXIS2_PLACEMENT_3D('',#1543,#1278,#1279);
#1070=AXIS2_PLACEMENT_3D('',#1545,#1280,#1281);
#1071=AXIS2_PLACEMENT_3D('',#1548,#1283,#1284);
#1072=AXIS2_PLACEMENT_3D('',#1549,#1285,#1286);
#1073=AXIS2_PLACEMENT_3D('',#1551,#1287,#1288);
#1074=AXIS2_PLACEMENT_3D('',#1554,#1290,#1291);
#1075=AXIS2_PLACEMENT_3D('',#1555,#1292,#1293);
#1076=AXIS2_PLACEMENT_3D('',#1564,#1298,#1299);
#1077=AXIS2_PLACEMENT_3D('',#1570,#1303,#1304);
#1078=AXIS2_PLACEMENT_3D('',#1576,#1308,#1309);
#1079=AXIS2_PLACEMENT_3D('',#1579,#1312,#1313);
#1080=AXIS2_PLACEMENT_3D('',#1580,#1314,#1315);
#1081=AXIS2_PLACEMENT_3D('',#1589,#1320,#1321);
#1082=AXIS2_PLACEMENT_3D('',#1595,#1325,#1326);
#1083=AXIS2_PLACEMENT_3D('',#1601,#1330,#1331);
#1084=AXIS2_PLACEMENT_3D('',#1604,#1334,#1335);
#1085=AXIS2_PLACEMENT_3D('',#1605,#1336,#1337);
#1086=DIRECTION('axis',(0.,0.,1.));
#1087=DIRECTION('refdir',(1.,0.,0.));
#1088=DIRECTION('center_axis',(0.,1.,0.));
#1089=DIRECTION('ref_axis',(1.,0.,0.));
#1090=DIRECTION('',(-1.,0.,0.));
#1091=DIRECTION('',(0.,0.,-1.));
#1092=DIRECTION('',(1.,0.,0.));
#1093=DIRECTION('',(0.,0.,-1.));
#1094=DIRECTION('center_axis',(-1.,0.,0.));
#1095=DIRECTION('ref_axis',(0.,1.,0.));
#1096=DIRECTION('',(0.,-1.,0.));
#1097=DIRECTION('',(0.,1.,0.));
#1098=DIRECTION('',(0.,0.,-1.));
#1099=DIRECTION('center_axis',(0.,-1.,0.));
#1100=DIRECTION('ref_axis',(-1.,0.,0.));
#1101=DIRECTION('',(1.,0.,0.));
#1102=DIRECTION('',(-1.,0.,0.));
#1103=DIRECTION('',(0.,0.,-1.));
#1104=DIRECTION('center_axis',(1.,0.,0.));
#1105=DIRECTION('ref_axis',(0.,-1.,0.));
#1106=DIRECTION('',(0.,1.,0.));
#1107=DIRECTION('',(0.,-1.,0.));
#1108=DIRECTION('center_axis',(0.,1.,0.));
#1109=DIRECTION('ref_axis',(1.,0.,0.));
#1110=DIRECTION('',(-1.,0.,0.));
#1111=DIRECTION('',(0.,0.,-1.));
#1112=DIRECTION('',(1.,0.,0.));
#1113=DIRECTION('',(0.,0.,-1.));
#1114=DIRECTION('center_axis',(-1.,0.,0.));
#1115=DIRECTION('ref_axis',(0.,1.,0.));
#1116=DIRECTION('',(0.,-1.,0.));
#1117=DIRECTION('',(0.,1.,0.));
#1118=DIRECTION('',(0.,0.,-1.));
#1119=DIRECTION('center_axis',(0.,-1.,0.));
#1120=DIRECTION('ref_axis',(-1.,0.,0.));
#1121=DIRECTION('',(1.,0.,0.));
#1122=DIRECTION('',(-1.,0.,0.));
#1123=DIRECTION('',(0.,0.,-1.));
#1124=DIRECTION('center_axis',(1.,0.,0.));
#1125=DIRECTION('ref_axis',(0.,-1.,0.));
#1126=DIRECTION('',(0.,1.,0.));
#1127=DIRECTION('',(0.,-1.,0.));
#1128=DIRECTION('center_axis',(0.,1.,0.));
#1129=DIRECTION('ref_axis',(1.,0.,0.));
#1130=DIRECTION('',(-1.,0.,0.));
#1131=DIRECTION('',(0.,0.,-1.));
#1132=DIRECTION('',(1.,0.,0.));
#1133=DIRECTION('',(0.,0.,-1.));
#1134=DIRECTION('center_axis',(-1.,0.,0.));
#1135=DIRECTION('ref_axis',(0.,1.,0.));
#1136=DIRECTION('',(0.,-1.,0.));
#1137=DIRECTION('',(0.,1.,0.));
#1138=DIRECTION('',(0.,0.,-1.));
#1139=DIRECTION('center_axis',(0.,-1.,0.));
#1140=DIRECTION('ref_axis',(-1.,0.,0.));
#1141=DIRECTION('',(1.,0.,0.));
#1142=DIRECTION('',(-1.,0.,0.));
#1143=DIRECTION('',(0.,0.,-1.));
#1144=DIRECTION('center_axis',(1.,0.,0.));
#1145=DIRECTION('ref_axis',(0.,-1.,0.));
#1146=DIRECTION('',(0.,1.,0.));
#1147=DIRECTION('',(0.,-1.,0.));
#1148=DIRECTION('center_axis',(0.,1.,0.));
#1149=DIRECTION('ref_axis',(1.,0.,0.));
#1150=DIRECTION('',(-1.,0.,0.));
#1151=DIRECTION('',(0.,0.,-1.));
#1152=DIRECTION('',(1.,0.,0.));
#1153=DIRECTION('',(0.,0.,-1.));
#1154=DIRECTION('center_axis',(-1.,0.,0.));
#1155=DIRECTION('ref_axis',(0.,1.,0.));
#1156=DIRECTION('',(0.,-1.,0.));
#1157=DIRECTION('',(0.,1.,0.));
#1158=DIRECTION('',(0.,0.,-1.));
#1159=DIRECTION('center_axis',(0.,-1.,0.));
#1160=DIRECTION('ref_axis',(-1.,0.,0.));
#1161=DIRECTION('',(1.,0.,0.));
#1162=DIRECTION('',(-1.,0.,0.));
#1163=DIRECTION('',(0.,0.,-1.));
#1164=DIRECTION('center_axis',(1.,0.,0.));
#1165=DIRECTION('ref_axis',(0.,-1.,0.));
#1166=DIRECTION('',(0.,1.,0.));
#1167=DIRECTION('',(0.,-1.,0.));
#1168=DIRECTION('center_axis',(0.,1.,0.));
#1169=DIRECTION('ref_axis',(1.,0.,0.));
#1170=DIRECTION('',(-1.,0.,0.));
#1171=DIRECTION('',(0.,0.,-1.));
#1172=DIRECTION('',(1.,0.,0.));
#1173=DIRECTION('',(0.,0.,-1.));
#1174=DIRECTION('center_axis',(-1.,0.,0.));
#1175=DIRECTION('ref_axis',(0.,1.,0.));
#1176=DIRECTION('',(0.,-1.,0.));
#1177=DIRECTION('',(0.,1.,0.));
#1178=DIRECTION('',(0.,0.,-1.));
#1179=DIRECTION('center_axis',(0.,-1.,0.));
#1180=DIRECTION('ref_axis',(-1.,0.,0.));
#1181=DIRECTION('',(1.,0.,0.));
#1182=DIRECTION('',(-1.,0.,0.));
#1183=DIRECTION('',(0.,0.,-1.));
#1184=DIRECTION('center_axis',(1.,0.,0.));
#1185=DIRECTION('ref_axis',(0.,-1.,0.));
#1186=DIRECTION('',(0.,1.,0.));
#1187=DIRECTION('',(0.,-1.,0.));
#1188=DIRECTION('center_axis',(0.,0.,-1.));
#1189=DIRECTION('ref_axis',(1.,0.,0.));
#1190=DIRECTION('center_axis',(0.,0.,-1.));
#1191=DIRECTION('ref_axis',(1.,0.,0.));
#1192=DIRECTION('',(0.,0.,-1.));
#1193=DIRECTION('center_axis',(0.,0.,1.));
#1194=DIRECTION('ref_axis',(1.,0.,0.));
#1195=DIRECTION('center_axis',(0.,0.,-1.));
#1196=DIRECTION('ref_axis',(1.,0.,0.));
#1197=DIRECTION('center_axis',(0.,0.,-1.));
#1198=DIRECTION('ref_axis',(1.,0.,0.));
#1199=DIRECTION('',(0.,0.,-1.));
#1200=DIRECTION('center_axis',(0.,0.,1.));
#1201=DIRECTION('ref_axis',(1.,0.,0.));
#1202=DIRECTION('center_axis',(0.,0.,-1.));
#1203=DIRECTION('ref_axis',(1.,0.,0.));
#1204=DIRECTION('center_axis',(0.,0.,-1.));
#1205=DIRECTION('ref_axis',(1.,0.,0.));
#1206=DIRECTION('',(0.,0.,-1.));
#1207=DIRECTION('center_axis',(0.,0.,1.));
#1208=DIRECTION('ref_axis',(1.,0.,0.));
#1209=DIRECTION('center_axis',(0.,0.,-1.));
#1210=DIRECTION('ref_axis',(1.,0.,0.));
#1211=DIRECTION('center_axis',(0.,0.,-1.));
#1212=DIRECTION('ref_axis',(1.,0.,0.));
#1213=DIRECTION('',(0.,0.,-1.));
#1214=DIRECTION('center_axis',(0.,0.,1.));
#1215=DIRECTION('ref_axis',(1.,0.,0.));
#1216=DIRECTION('center_axis',(0.,1.,0.));
#1217=DIRECTION('ref_axis',(1.,0.,0.));
#1218=DIRECTION('',(-1.,0.,0.));
#1219=DIRECTION('',(0.,0.,-1.));
#1220=DIRECTION('',(1.,0.,0.));
#1221=DIRECTION('',(0.,0.,-1.));
#1222=DIRECTION('center_axis',(-1.,0.,0.));
#1223=DIRECTION('ref_axis',(0.,1.,0.));
#1224=DIRECTION('',(0.,-1.,0.));
#1225=DIRECTION('',(0.,1.,0.));
#1226=DIRECTION('',(0.,0.,-1.));
#1227=DIRECTION('center_axis',(0.,-1.,0.));
#1228=DIRECTION('ref_axis',(-1.,0.,0.));
#1229=DIRECTION('',(1.,0.,0.));
#1230=DIRECTION('',(-1.,0.,0.));
#1231=DIRECTION('',(0.,0.,-1.));
#1232=DIRECTION('center_axis',(1.,0.,0.));
#1233=DIRECTION('ref_axis',(0.,-1.,0.));
#1234=DIRECTION('',(0.,1.,0.));
#1235=DIRECTION('',(0.,-1.,0.));
#1236=DIRECTION('center_axis',(0.,0.,-1.));
#1237=DIRECTION('ref_axis',(1.,0.,0.));
#1238=DIRECTION('center_axis',(0.,0.,-1.));
#1239=DIRECTION('ref_axis',(1.,0.,0.));
#1240=DIRECTION('',(0.,0.,-1.));
#1241=DIRECTION('center_axis',(0.,0.,1.));
#1242=DIRECTION('ref_axis',(1.,0.,0.));
#1243=DIRECTION('center_axis',(0.,0.,-1.));
#1244=DIRECTION('ref_axis',(1.,0.,0.));
#1245=DIRECTION('center_axis',(0.,0.,-1.));
#1246=DIRECTION('ref_axis',(1.,0.,0.));
#1247=DIRECTION('',(0.,0.,-1.));
#1248=DIRECTION('center_axis',(0.,0.,1.));
#1249=DIRECTION('ref_axis',(1.,0.,0.));
#1250=DIRECTION('center_axis',(0.,0.,-1.));
#1251=DIRECTION('ref_axis',(1.,0.,0.));
#1252=DIRECTION('center_axis',(0.,0.,-1.));
#1253=DIRECTION('ref_axis',(1.,0.,0.));
#1254=DIRECTION('',(0.,0.,-1.));
#1255=DIRECTION('center_axis',(0.,0.,1.));
#1256=DIRECTION('ref_axis',(1.,0.,0.));
#1257=DIRECTION('center_axis',(0.,0.,-1.));
#1258=DIRECTION('ref_axis',(1.,0.,0.));
#1259=DIRECTION('center_axis',(0.,0.,-1.));
#1260=DIRECTION('ref_axis',(1.,0.,0.));
#1261=DIRECTION('',(0.,0.,-1.));
#1262=DIRECTION('center_axis',(0.,0.,1.));
#1263=DIRECTION('ref_axis',(1.,0.,0.));
#1264=DIRECTION('center_axis',(0.,0.,-1.));
#1265=DIRECTION('ref_axis',(1.,0.,0.));
#1266=DIRECTION('center_axis',(0.,0.,-1.));
#1267=DIRECTION('ref_axis',(1.,0.,0.));
#1268=DIRECTION('',(0.,0.,-1.));
#1269=DIRECTION('center_axis',(0.,0.,1.));
#1270=DIRECTION('ref_axis',(1.,0.,0.));
#1271=DIRECTION('center_axis',(0.,0.,-1.));
#1272=DIRECTION('ref_axis',(1.,0.,0.));
#1273=DIRECTION('center_axis',(0.,0.,-1.));
#1274=DIRECTION('ref_axis',(1.,0.,0.));
#1275=DIRECTION('',(0.,0.,-1.));
#1276=DIRECTION('center_axis',(0.,0.,1.));
#1277=DIRECTION('ref_axis',(1.,0.,0.));
#1278=DIRECTION('center_axis',(0.,0.,-1.));
#1279=DIRECTION('ref_axis',(1.,0.,0.));
#1280=DIRECTION('center_axis',(0.,0.,-1.));
#1281=DIRECTION('ref_axis',(1.,0.,0.));
#1282=DIRECTION('',(0.,0.,-1.));
#1283=DIRECTION('center_axis',(0.,0.,1.));
#1284=DIRECTION('ref_axis',(1.,0.,0.));
#1285=DIRECTION('center_axis',(0.,0.,-1.));
#1286=DIRECTION('ref_axis',(1.,0.,0.));
#1287=DIRECTION('center_axis',(0.,0.,-1.));
#1288=DIRECTION('ref_axis',(1.,0.,0.));
#1289=DIRECTION('',(0.,0.,-1.));
#1290=DIRECTION('center_axis',(0.,0.,1.));
#1291=DIRECTION('ref_axis',(1.,0.,0.));
#1292=DIRECTION('center_axis',(0.,1.,0.));
#1293=DIRECTION('ref_axis',(-1.,0.,0.));
#1294=DIRECTION('',(-1.,0.,0.));
#1295=DIRECTION('',(0.,0.,1.));
#1296=DIRECTION('',(-1.,0.,0.));
#1297=DIRECTION('',(0.,0.,1.));
#1298=DIRECTION('center_axis',(1.,0.,0.));
#1299=DIRECTION('ref_axis',(0.,1.,0.));
#1300=DIRECTION('',(0.,1.,0.));
#1301=DIRECTION('',(0.,0.,1.));
#1302=DIRECTION('',(0.,1.,0.));
#1303=DIRECTION('center_axis',(0.,-1.,0.));
#1304=DIRECTION('ref_axis',(1.,0.,0.));
#1305=DIRECTION('',(1.,0.,0.));
#1306=DIRECTION('',(0.,0.,1.));
#1307=DIRECTION('',(1.,0.,0.));
#1308=DIRECTION('center_axis',(-1.,0.,0.));
#1309=DIRECTION('ref_axis',(0.,-1.,0.));
#1310=DIRECTION('',(0.,-1.,0.));
#1311=DIRECTION('',(0.,-1.,0.));
#1312=DIRECTION('center_axis',(0.,0.,1.));
#1313=DIRECTION('ref_axis',(1.,0.,0.));
#1314=DIRECTION('center_axis',(0.,1.,0.));
#1315=DIRECTION('ref_axis',(-1.,0.,0.));
#1316=DIRECTION('',(-1.,0.,0.));
#1317=DIRECTION('',(0.,0.,1.));
#1318=DIRECTION('',(-1.,0.,0.));
#1319=DIRECTION('',(0.,0.,1.));
#1320=DIRECTION('center_axis',(1.,0.,0.));
#1321=DIRECTION('ref_axis',(0.,1.,0.));
#1322=DIRECTION('',(0.,1.,0.));
#1323=DIRECTION('',(0.,1.,0.));
#1324=DIRECTION('',(0.,0.,1.));
#1325=DIRECTION('center_axis',(0.,-1.,0.));
#1326=DIRECTION('ref_axis',(1.,0.,0.));
#1327=DIRECTION('',(1.,0.,0.));
#1328=DIRECTION('',(1.,0.,0.));
#1329=DIRECTION('',(0.,0.,1.));
#1330=DIRECTION('center_axis',(-1.,0.,0.));
#1331=DIRECTION('ref_axis',(0.,-1.,0.));
#1332=DIRECTION('',(0.,-1.,0.));
#1333=DIRECTION('',(0.,-1.,0.));
#1334=DIRECTION('center_axis',(0.,0.,1.));
#1335=DIRECTION('ref_axis',(1.,0.,0.));
#1336=DIRECTION('center_axis',(0.,0.,1.));
#1337=DIRECTION('ref_axis',(1.,0.,0.));
#1338=CARTESIAN_POINT('',(0.,0.,0.));
#1339=CARTESIAN_POINT('Origin',(-19.,25.1,14.));
#1340=CARTESIAN_POINT('',(1.,25.1,11.4));
#1341=CARTESIAN_POINT('',(-19.,25.1,11.4));
#1342=CARTESIAN_POINT('',(-9.5,25.1,11.4));
#1343=CARTESIAN_POINT('',(1.,25.1,14.));
#1344=CARTESIAN_POINT('',(1.,25.1,14.));
#1345=CARTESIAN_POINT('',(-19.,25.1,14.));
#1346=CARTESIAN_POINT('',(-9.5,25.1,14.));
#1347=CARTESIAN_POINT('',(-19.,25.1,14.));
#1348=CARTESIAN_POINT('Origin',(-19.,22.9,14.));
#1349=CARTESIAN_POINT('',(-19.,22.9,11.4));
#1350=CARTESIAN_POINT('',(-19.,11.45,11.4));
#1351=CARTESIAN_POINT('',(-19.,22.9,14.));
#1352=CARTESIAN_POINT('',(-19.,11.45,14.));
#1353=CARTESIAN_POINT('',(-19.,22.9,14.));
#1354=CARTESIAN_POINT('Origin',(1.,22.9,14.));
#1355=CARTESIAN_POINT('',(1.,22.9,11.4));
#1356=CARTESIAN_POINT('',(0.5,22.9,11.4));
#1357=CARTESIAN_POINT('',(1.,22.9,14.));
#1358=CARTESIAN_POINT('',(0.5,22.9,14.));
#1359=CARTESIAN_POINT('',(1.,22.9,14.));
#1360=CARTESIAN_POINT('Origin',(1.,25.1,14.));
#1361=CARTESIAN_POINT('',(1.,12.55,11.4));
#1362=CARTESIAN_POINT('',(1.,12.55,14.));
#1363=CARTESIAN_POINT('Origin',(-19.,19.1,14.));
#1364=CARTESIAN_POINT('',(1.,19.1,11.4));
#1365=CARTESIAN_POINT('',(-19.,19.1,11.4));
#1366=CARTESIAN_POINT('',(-9.5,19.1,11.4));
#1367=CARTESIAN_POINT('',(1.,19.1,14.));
#1368=CARTESIAN_POINT('',(1.,19.1,14.));
#1369=CARTESIAN_POINT('',(-19.,19.1,14.));
#1370=CARTESIAN_POINT('',(-9.5,19.1,14.));
#1371=CARTESIAN_POINT('',(-19.,19.1,14.));
#1372=CARTESIAN_POINT('Origin',(-19.,16.9,14.));
#1373=CARTESIAN_POINT('',(-19.,16.9,11.4));
#1374=CARTESIAN_POINT('',(-19.,8.45,11.4));
#1375=CARTESIAN_POINT('',(-19.,16.9,14.));
#1376=CARTESIAN_POINT('',(-19.,8.45,14.));
#1377=CARTESIAN_POINT('',(-19.,16.9,14.));
#1378=CARTESIAN_POINT('Origin',(1.,16.9,14.));
#1379=CARTESIAN_POINT('',(1.,16.9,11.4));
#1380=CARTESIAN_POINT('',(0.5,16.9,11.4));
#1381=CARTESIAN_POINT('',(1.,16.9,14.));
#1382=CARTESIAN_POINT('',(0.5,16.9,14.));
#1383=CARTESIAN_POINT('',(1.,16.9,14.));
#1384=CARTESIAN_POINT('Origin',(1.,19.1,14.));
#1385=CARTESIAN_POINT('',(1.,9.55,11.4));
#1386=CARTESIAN_POINT('',(1.,9.55,14.));
#1387=CARTESIAN_POINT('Origin',(-19.,13.1,14.));
#1388=CARTESIAN_POINT('',(1.,13.1,11.4));
#1389=CARTESIAN_POINT('',(-19.,13.1,11.4));
#1390=CARTESIAN_POINT('',(-9.5,13.1,11.4));
#1391=CARTESIAN_POINT('',(1.,13.1,14.));
#1392=CARTESIAN_POINT('',(1.,13.1,14.));
#1393=CARTESIAN_POINT('',(-19.,13.1,14.));
#1394=CARTESIAN_POINT('',(-9.5,13.1,14.));
#1395=CARTESIAN_POINT('',(-19.,13.1,14.));
#1396=CARTESIAN_POINT('Origin',(-19.,10.9,14.));
#1397=CARTESIAN_POINT('',(-19.,10.9,11.4));
#1398=CARTESIAN_POINT('',(-19.,5.45,11.4));
#1399=CARTESIAN_POINT('',(-19.,10.9,14.));
#1400=CARTESIAN_POINT('',(-19.,5.45,14.));
#1401=CARTESIAN_POINT('',(-19.,10.9,14.));
#1402=CARTESIAN_POINT('Origin',(1.,10.9,14.));
#1403=CARTESIAN_POINT('',(1.,10.9,11.4));
#1404=CARTESIAN_POINT('',(0.5,10.9,11.4));
#1405=CARTESIAN_POINT('',(1.,10.9,14.));
#1406=CARTESIAN_POINT('',(0.5,10.9,14.));
#1407=CARTESIAN_POINT('',(1.,10.9,14.));
#1408=CARTESIAN_POINT('Origin',(1.,13.1,14.));
#1409=CARTESIAN_POINT('',(1.,6.55,11.4));
#1410=CARTESIAN_POINT('',(1.,6.55,14.));
#1411=CARTESIAN_POINT('Origin',(-19.,7.1,14.));
#1412=CARTESIAN_POINT('',(1.,7.1,11.4));
#1413=CARTESIAN_POINT('',(-19.,7.1,11.4));
#1414=CARTESIAN_POINT('',(-9.5,7.1,11.4));
#1415=CARTESIAN_POINT('',(1.,7.1,14.));
#1416=CARTESIAN_POINT('',(1.,7.1,14.));
#1417=CARTESIAN_POINT('',(-19.,7.1,14.));
#1418=CARTESIAN_POINT('',(-9.5,7.1,14.));
#1419=CARTESIAN_POINT('',(-19.,7.1,14.));
#1420=CARTESIAN_POINT('Origin',(-19.,4.9,14.));
#1421=CARTESIAN_POINT('',(-19.,4.9,11.4));
#1422=CARTESIAN_POINT('',(-19.,2.45,11.4));
#1423=CARTESIAN_POINT('',(-19.,4.9,14.));
#1424=CARTESIAN_POINT('',(-19.,2.45,14.));
#1425=CARTESIAN_POINT('',(-19.,4.9,14.));
#1426=CARTESIAN_POINT('Origin',(1.,4.9,14.));
#1427=CARTESIAN_POINT('',(1.,4.9,11.4));
#1428=CARTESIAN_POINT('',(0.5,4.9,11.4));
#1429=CARTESIAN_POINT('',(1.,4.9,14.));
#1430=CARTESIAN_POINT('',(0.5,4.9,14.));
#1431=CARTESIAN_POINT('',(1.,4.9,14.));
#1432=CARTESIAN_POINT('Origin',(1.,7.1,14.));
#1433=CARTESIAN_POINT('',(1.,3.55,11.4));
#1434=CARTESIAN_POINT('',(1.,3.55,14.));
#1435=CARTESIAN_POINT('Origin',(-19.,1.1,14.));
#1436=CARTESIAN_POINT('',(1.,1.1,11.4));
#1437=CARTESIAN_POINT('',(-19.,1.1,11.4));
#1438=CARTESIAN_POINT('',(-9.5,1.1,11.4));
#1439=CARTESIAN_POINT('',(1.,1.1,14.));
#1440=CARTESIAN_POINT('',(1.,1.1,14.));
#1441=CARTESIAN_POINT('',(-19.,1.1,14.));
#1442=CARTESIAN_POINT('',(-9.5,1.1,14.));
#1443=CARTESIAN_POINT('',(-19.,1.1,14.));
#1444=CARTESIAN_POINT('Origin',(-19.,-1.1,14.));
#1445=CARTESIAN_POINT('',(-19.,-1.1,11.4));
#1446=CARTESIAN_POINT('',(-19.,-0.55,11.4));
#1447=CARTESIAN_POINT('',(-19.,-1.1,14.));
#1448=CARTESIAN_POINT('',(-19.,-0.55,14.));
#1449=CARTESIAN_POINT('',(-19.,-1.1,14.));
#1450=CARTESIAN_POINT('Origin',(1.,-1.1,14.));
#1451=CARTESIAN_POINT('',(1.,-1.1,11.4));
#1452=CARTESIAN_POINT('',(0.5,-1.1,11.4));
#1453=CARTESIAN_POINT('',(1.,-1.1,14.));
#1454=CARTESIAN_POINT('',(0.5,-1.1,14.));
#1455=CARTESIAN_POINT('',(1.,-1.1,14.));
#1456=CARTESIAN_POINT('Origin',(1.,1.1,14.));
#1457=CARTESIAN_POINT('',(1.,0.55,11.4));
#1458=CARTESIAN_POINT('',(1.,0.55,14.));
#1459=CARTESIAN_POINT('Origin',(31.,-5.6,14.));
#1460=CARTESIAN_POINT('',(30.1,-5.6,14.));
#1461=CARTESIAN_POINT('Origin',(31.,-5.6,14.));
#1462=CARTESIAN_POINT('',(30.1,-5.6,11.4));
#1463=CARTESIAN_POINT('',(30.1,-5.6,14.));
#1464=CARTESIAN_POINT('Origin',(31.,-5.6,11.4));
#1465=CARTESIAN_POINT('Origin',(28.6,-8.,14.));
#1466=CARTESIAN_POINT('',(27.7,-8.,14.));
#1467=CARTESIAN_POINT('Origin',(28.6,-8.,14.));
#1468=CARTESIAN_POINT('',(27.7,-8.,11.4));
#1469=CARTESIAN_POINT('',(27.7,-8.,14.));
#1470=CARTESIAN_POINT('Origin',(28.6,-8.,11.4));
#1471=CARTESIAN_POINT('Origin',(38.,-22.,14.));
#1472=CARTESIAN_POINT('',(36.4,-22.,14.));
#1473=CARTESIAN_POINT('Origin',(38.,-22.,14.));
#1474=CARTESIAN_POINT('',(36.4,-22.,11.4));
#1475=CARTESIAN_POINT('',(36.4,-22.,14.));
#1476=CARTESIAN_POINT('Origin',(38.,-22.,11.4));
#1477=CARTESIAN_POINT('Origin',(31.,-22.,14.));
#1478=CARTESIAN_POINT('',(29.4,-22.,14.));
#1479=CARTESIAN_POINT('Origin',(31.,-22.,14.));
#1480=CARTESIAN_POINT('',(29.4,-22.,11.4));
#1481=CARTESIAN_POINT('',(29.4,-22.,14.));
#1482=CARTESIAN_POINT('Origin',(31.,-22.,11.4));
#1483=CARTESIAN_POINT('Origin',(-7.,-6.75,14.));
#1484=CARTESIAN_POINT('',(19.,-6.75,11.4));
#1485=CARTESIAN_POINT('',(-7.,-6.75,11.4));
#1486=CARTESIAN_POINT('',(-3.5,-6.75,11.4));
#1487=CARTESIAN_POINT('',(19.,-6.75,14.));
#1488=CARTESIAN_POINT('',(19.,-6.75,14.));
#1489=CARTESIAN_POINT('',(-7.,-6.75,14.));
#1490=CARTESIAN_POINT('',(-3.5,-6.75,14.));
#1491=CARTESIAN_POINT('',(-7.,-6.75,14.));
#1492=CARTESIAN_POINT('Origin',(-7.,-21.25,14.));
#1493=CARTESIAN_POINT('',(-7.,-21.25,11.4));
#1494=CARTESIAN_POINT('',(-7.,-10.625,11.4));
#1495=CARTESIAN_POINT('',(-7.,-21.25,14.));
#1496=CARTESIAN_POINT('',(-7.,-10.625,14.));
#1497=CARTESIAN_POINT('',(-7.,-21.25,14.));
#1498=CARTESIAN_POINT('Origin',(19.,-21.25,14.));
#1499=CARTESIAN_POINT('',(19.,-21.25,11.4));
#1500=CARTESIAN_POINT('',(9.5,-21.25,11.4));
#1501=CARTESIAN_POINT('',(19.,-21.25,14.));
#1502=CARTESIAN_POINT('',(9.5,-21.25,14.));
#1503=CARTESIAN_POINT('',(19.,-21.25,14.));
#1504=CARTESIAN_POINT('Origin',(19.,-6.75,14.));
#1505=CARTESIAN_POINT('',(19.,-3.375,11.4));
#1506=CARTESIAN_POINT('',(19.,-3.375,14.));
#1507=CARTESIAN_POINT('Origin',(49.5,37.,14.));
#1508=CARTESIAN_POINT('',(47.85,37.,14.));
#1509=CARTESIAN_POINT('Origin',(49.5,37.,14.));
#1510=CARTESIAN_POINT('',(47.85,37.,11.4));
#1511=CARTESIAN_POINT('',(47.85,37.,14.));
#1512=CARTESIAN_POINT('Origin',(49.5,37.,11.4));
#1513=CARTESIAN_POINT('Origin',(49.5,-37.,14.));
#1514=CARTESIAN_POINT('',(47.85,-37.,14.));
#1515=CARTESIAN_POINT('Origin',(49.5,-37.,14.));
#1516=CARTESIAN_POINT('',(47.85,-37.,11.4));
#1517=CARTESIAN_POINT('',(47.85,-37.,14.));
#1518=CARTESIAN_POINT('Origin',(49.5,-37.,11.4));
#1519=CARTESIAN_POINT('Origin',(-49.5,37.,14.));
#1520=CARTESIAN_POINT('',(-51.15,37.,14.));
#1521=CARTESIAN_POINT('Origin',(-49.5,37.,14.));
#1522=CARTESIAN_POINT('',(-51.15,37.,11.4));
#1523=CARTESIAN_POINT('',(-51.15,37.,14.));
#1524=CARTESIAN_POINT('Origin',(-49.5,37.,11.4));
#1525=CARTESIAN_POINT('Origin',(24.,-22.,14.));
#1526=CARTESIAN_POINT('',(22.4,-22.,14.));
#1527=CARTESIAN_POINT('Origin',(24.,-22.,14.));
#1528=CARTESIAN_POINT('',(22.4,-22.,11.4));
#1529=CARTESIAN_POINT('',(22.4,-22.,14.));
#1530=CARTESIAN_POINT('Origin',(24.,-22.,11.4));
#1531=CARTESIAN_POINT('Origin',(-49.5,-37.,14.));
#1532=CARTESIAN_POINT('',(-51.15,-37.,14.));
#1533=CARTESIAN_POINT('Origin',(-49.5,-37.,14.));
#1534=CARTESIAN_POINT('',(-51.15,-37.,11.4));
#1535=CARTESIAN_POINT('',(-51.15,-37.,14.));
#1536=CARTESIAN_POINT('Origin',(-49.5,-37.,11.4));
#1537=CARTESIAN_POINT('Origin',(31.,-8.,14.));
#1538=CARTESIAN_POINT('',(30.1,-8.,14.));
#1539=CARTESIAN_POINT('Origin',(31.,-8.,14.));
#1540=CARTESIAN_POINT('',(30.1,-8.,11.4));
#1541=CARTESIAN_POINT('',(30.1,-8.,14.));
#1542=CARTESIAN_POINT('Origin',(31.,-8.,11.4));
#1543=CARTESIAN_POINT('Origin',(33.4,-8.,14.));
#1544=CARTESIAN_POINT('',(32.5,-8.,14.));
#1545=CARTESIAN_POINT('Origin',(33.4,-8.,14.));
#1546=CARTESIAN_POINT('',(32.5,-8.,11.4));
#1547=CARTESIAN_POINT('',(32.5,-8.,14.));
#1548=CARTESIAN_POINT('Origin',(33.4,-8.,11.4));
#1549=CARTESIAN_POINT('Origin',(31.,-10.4,14.));
#1550=CARTESIAN_POINT('',(30.1,-10.4,14.));
#1551=CARTESIAN_POINT('Origin',(31.,-10.4,14.));
#1552=CARTESIAN_POINT('',(30.1,-10.4,11.4));
#1553=CARTESIAN_POINT('',(30.1,-10.4,14.));
#1554=CARTESIAN_POINT('Origin',(31.,-10.4,11.4));
#1555=CARTESIAN_POINT('Origin',(53.,40.5,0.));
#1556=CARTESIAN_POINT('',(53.,40.5,0.));
#1557=CARTESIAN_POINT('',(-53.,40.5,0.));
#1558=CARTESIAN_POINT('',(26.5,40.5,0.));
#1559=CARTESIAN_POINT('',(53.,40.5,11.4));
#1560=CARTESIAN_POINT('',(53.,40.5,0.));
#1561=CARTESIAN_POINT('',(-53.,40.5,11.4));
#1562=CARTESIAN_POINT('',(53.,40.5,11.4));
#1563=CARTESIAN_POINT('',(-53.,40.5,0.));
#1564=CARTESIAN_POINT('Origin',(53.,-40.5,0.));
#1565=CARTESIAN_POINT('',(53.,-40.5,0.));
#1566=CARTESIAN_POINT('',(53.,-20.25,0.));
#1567=CARTESIAN_POINT('',(53.,-40.5,11.4));
#1568=CARTESIAN_POINT('',(53.,-40.5,0.));
#1569=CARTESIAN_POINT('',(53.,-40.5,11.4));
#1570=CARTESIAN_POINT('Origin',(-53.,-40.5,0.));
#1571=CARTESIAN_POINT('',(-53.,-40.5,0.));
#1572=CARTESIAN_POINT('',(-26.5,-40.5,0.));
#1573=CARTESIAN_POINT('',(-53.,-40.5,11.4));
#1574=CARTESIAN_POINT('',(-53.,-40.5,0.));
#1575=CARTESIAN_POINT('',(-53.,-40.5,11.4));
#1576=CARTESIAN_POINT('Origin',(-53.,40.5,0.));
#1577=CARTESIAN_POINT('',(-53.,20.25,0.));
#1578=CARTESIAN_POINT('',(-53.,40.5,11.4));
#1579=CARTESIAN_POINT('Origin',(0.,0.,11.4));
#1580=CARTESIAN_POINT('Origin',(55.5,43.,0.));
#1581=CARTESIAN_POINT('',(55.5,43.,0.));
#1582=CARTESIAN_POINT('',(-55.5,43.,0.));
#1583=CARTESIAN_POINT('',(55.5,43.,0.));
#1584=CARTESIAN_POINT('',(-55.5,43.,14.));
#1585=CARTESIAN_POINT('',(-55.5,43.,0.));
#1586=CARTESIAN_POINT('',(55.5,43.,14.));
#1587=CARTESIAN_POINT('',(55.5,43.,14.));
#1588=CARTESIAN_POINT('',(55.5,43.,0.));
#1589=CARTESIAN_POINT('Origin',(55.5,-43.,0.));
#1590=CARTESIAN_POINT('',(55.5,-43.,0.));
#1591=CARTESIAN_POINT('',(55.5,-43.,0.));
#1592=CARTESIAN_POINT('',(55.5,-43.,14.));
#1593=CARTESIAN_POINT('',(55.5,-43.,14.));
#1594=CARTESIAN_POINT('',(55.5,-43.,0.));
#1595=CARTESIAN_POINT('Origin',(-55.5,-43.,0.));
#1596=CARTESIAN_POINT('',(-55.5,-43.,0.));
#1597=CARTESIAN_POINT('',(-55.5,-43.,0.));
#1598=CARTESIAN_POINT('',(-55.5,-43.,14.));
#1599=CARTESIAN_POINT('',(-55.5,-43.,14.));
#1600=CARTESIAN_POINT('',(-55.5,-43.,0.));
#1601=CARTESIAN_POINT('Origin',(-55.5,43.,0.));
#1602=CARTESIAN_POINT('',(-55.5,43.,0.));
#1603=CARTESIAN_POINT('',(-55.5,43.,14.));
#1604=CARTESIAN_POINT('Origin',(0.,0.,14.));
#1605=CARTESIAN_POINT('Origin',(0.,0.,0.));
#1606=UNCERTAINTY_MEASURE_WITH_UNIT(LENGTH_MEASURE(0.01),#1610,
'DISTANCE_ACCURACY_VALUE',
'Maximum model space distance between geometric entities at asserted c
onnectivities');
#1607=UNCERTAINTY_MEASURE_WITH_UNIT(LENGTH_MEASURE(0.01),#1610,
'DISTANCE_ACCURACY_VALUE',
'Maximum model space distance between geometric entities at asserted c
onnectivities');
#1608=(
GEOMETRIC_REPRESENTATION_CONTEXT(3)
GLOBAL_UNCERTAINTY_ASSIGNED_CONTEXT((#1606))
GLOBAL_UNIT_ASSIGNED_CONTEXT((#1610,#1612,#1613))
REPRESENTATION_CONTEXT('','3D')
);
#1609=(
GEOMETRIC_REPRESENTATION_CONTEXT(3)
GLOBAL_UNCERTAINTY_ASSIGNED_CONTEXT((#1607))
GLOBAL_UNIT_ASSIGNED_CONTEXT((#1610,#1612,#1613))
REPRESENTATION_CONTEXT('','3D')
);
#1610=(
LENGTH_UNIT()
NAMED_UNIT(*)
SI_UNIT(.MILLI.,.METRE.)
);
#1611=(
LENGTH_UNIT()
NAMED_UNIT(*)
SI_UNIT($,.METRE.)
);
#1612=(
NAMED_UNIT(*)
PLANE_ANGLE_UNIT()
SI_UNIT($,.RADIAN.)
);
#1613=(
NAMED_UNIT(*)
SI_UNIT($,.STERADIAN.)
SOLID_ANGLE_UNIT()
);
#1614=SHAPE_DEFINITION_REPRESENTATION(#1615,#1616);
#1615=PRODUCT_DEFINITION_SHAPE('',$,#1618);
#1616=SHAPE_REPRESENTATION('',(#1014),#1608);
#1617=PRODUCT_DEFINITION_CONTEXT('part definition',#1622,'design');
#1618=PRODUCT_DEFINITION('(N\X\E3o salvo)','(N\X\E3o salvo)',#1619,#1617);
#1619=PRODUCT_DEFINITION_FORMATION('',$,#1624);
#1620=PRODUCT_RELATED_PRODUCT_CATEGORY('(N\X\E3o salvo)','(N\X\E3o sal
vo)',(#1624));
#1621=APPLICATION_PROTOCOL_DEFINITION('international standard',
'automotive_design',2009,#1622);
#1622=APPLICATION_CONTEXT(
'Core Data for Automotive Mechanical Design Process');
#1623=PRODUCT_CONTEXT('part definition',#1622,'mechanical');
#1624=PRODUCT('(N\X\E3o salvo)','(N\X\E3o salvo)',$,(#1623));
#1625=PRESENTATION_STYLE_ASSIGNMENT((#1627));
#1626=PRESENTATION_STYLE_ASSIGNMENT((#1628));
#1627=SURFACE_STYLE_USAGE(.BOTH.,#1629);
#1628=SURFACE_STYLE_USAGE(.BOTH.,#1630);
#1629=SURFACE_SIDE_STYLE('',(#1631));
#1630=SURFACE_SIDE_STYLE('',(#1632));
#1631=SURFACE_STYLE_FILL_AREA(#1633);
#1632=SURFACE_STYLE_FILL_AREA(#1634);
#1633=FILL_AREA_STYLE('A\X\E7o - Acetinado',(#1635));
#1634=FILL_AREA_STYLE('Azul_Industrial_Tampa',(#1636));
#1635=FILL_AREA_STYLE_COLOUR('A\X\E7o - Acetinado',#1637);
#1636=FILL_AREA_STYLE_COLOUR('Azul_Industrial_Tampa',#1638);
#1637=COLOUR_RGB('A\X\E7o - Acetinado',0.627450980392157,0.627450980392157,
0.627450980392157);
#1638=COLOUR_RGB('Azul_Industrial_Tampa',0.964705882352941,0.964705882352941,
0.952941176470588);
ENDSEC;
END-ISO-10303-21;
