ISO-10303-21;
HEADER;
/* Generated by software containing ST-Developer
 * from STEP Tools, Inc. (www.steptools.com) 
 */

FILE_DESCRIPTION(
/* description */ (''),
/* implementation_level */ '2;1');

FILE_NAME(
/* name */ '11_Suporte_Bateria_Dupla_2x18650.step',
/* time_stamp */ '2026-09-22T21:11:16-03:00',
/* author */ (''),
/* organization */ (''),
/* preprocessor_version */ 'ST-DEVELOPER v20.2',
/* originating_system */ 'Autodesk Translation Framework v15.15.0.0',
/* authorisation */ '');

FILE_SCHEMA (('AUTOMOTIVE_DESIGN { 1 0 10303 214 3 1 1 }'));
ENDSEC;

DATA;
#10=MECHANICAL_DESIGN_GEOMETRIC_PRESENTATION_REPRESENTATION('',(#13),#651);
#11=SHAPE_REPRESENTATION_RELATIONSHIP('SRR','None',#658,#12);
#12=ADVANCED_BREP_SHAPE_REPRESENTATION('',(#14),#650);
#13=STYLED_ITEM('',(#668),#14);
#14=MANIFOLD_SOLID_BREP('Corpo1',#395);
#15=FACE_BOUND('',#67,.T.);
#16=FACE_BOUND('',#69,.T.);
#17=FACE_BOUND('',#70,.T.);
#18=CYLINDRICAL_SURFACE('',#417,9.3);
#19=CYLINDRICAL_SURFACE('',#419,9.3);
#20=CYLINDRICAL_SURFACE('',#426,9.3);
#21=CYLINDRICAL_SURFACE('',#427,9.3);
#22=CIRCLE('',#415,9.3);
#23=CIRCLE('',#416,9.3);
#24=CIRCLE('',#418,9.3);
#25=CIRCLE('',#420,9.3);
#26=CIRCLE('',#421,9.3);
#27=CIRCLE('',#423,9.3);
#28=CIRCLE('',#425,9.3);
#29=CIRCLE('',#428,9.3);
#30=FACE_OUTER_BOUND('',#49,.T.);
#31=FACE_OUTER_BOUND('',#50,.T.);
#32=FACE_OUTER_BOUND('',#51,.T.);
#33=FACE_OUTER_BOUND('',#52,.T.);
#34=FACE_OUTER_BOUND('',#53,.T.);
#35=FACE_OUTER_BOUND('',#54,.T.);
#36=FACE_OUTER_BOUND('',#55,.T.);
#37=FACE_OUTER_BOUND('',#56,.T.);
#38=FACE_OUTER_BOUND('',#57,.T.);
#39=FACE_OUTER_BOUND('',#58,.T.);
#40=FACE_OUTER_BOUND('',#59,.T.);
#41=FACE_OUTER_BOUND('',#60,.T.);
#42=FACE_OUTER_BOUND('',#61,.T.);
#43=FACE_OUTER_BOUND('',#62,.T.);
#44=FACE_OUTER_BOUND('',#63,.T.);
#45=FACE_OUTER_BOUND('',#64,.T.);
#46=FACE_OUTER_BOUND('',#65,.T.);
#47=FACE_OUTER_BOUND('',#66,.T.);
#48=FACE_OUTER_BOUND('',#68,.T.);
#49=EDGE_LOOP('',(#253,#254,#255,#256,#257,#258,#259,#260));
#50=EDGE_LOOP('',(#261,#262,#263,#264));
#51=EDGE_LOOP('',(#265,#266,#267,#268,#269,#270,#271,#272));
#52=EDGE_LOOP('',(#273,#274,#275,#276));
#53=EDGE_LOOP('',(#277,#278,#279,#280,#281,#282,#283,#284,#285,#286,#287,
#288));
#54=EDGE_LOOP('',(#289,#290,#291,#292,#293));
#55=EDGE_LOOP('',(#294,#295,#296,#297));
#56=EDGE_LOOP('',(#298,#299,#300,#301));
#57=EDGE_LOOP('',(#302,#303,#304,#305,#306));
#58=EDGE_LOOP('',(#307,#308,#309,#310,#311));
#59=EDGE_LOOP('',(#312,#313,#314,#315));
#60=EDGE_LOOP('',(#316,#317,#318,#319));
#61=EDGE_LOOP('',(#320,#321,#322,#323,#324));
#62=EDGE_LOOP('',(#325,#326,#327,#328));
#63=EDGE_LOOP('',(#329,#330,#331,#332));
#64=EDGE_LOOP('',(#333,#334,#335,#336));
#65=EDGE_LOOP('',(#337,#338,#339,#340));
#66=EDGE_LOOP('',(#341,#342,#343,#344));
#67=EDGE_LOOP('',(#345,#346,#347,#348));
#68=EDGE_LOOP('',(#349,#350,#351,#352));
#69=EDGE_LOOP('',(#353,#354,#355,#356));
#70=EDGE_LOOP('',(#357,#358,#359,#360));
#71=LINE('',#542,#117);
#72=LINE('',#544,#118);
#73=LINE('',#546,#119);
#74=LINE('',#548,#120);
#75=LINE('',#550,#121);
#76=LINE('',#552,#122);
#77=LINE('',#554,#123);
#78=LINE('',#555,#124);
#79=LINE('',#558,#125);
#80=LINE('',#560,#126);
#81=LINE('',#561,#127);
#82=LINE('',#565,#128);
#83=LINE('',#567,#129);
#84=LINE('',#569,#130);
#85=LINE('',#570,#131);
#86=LINE('',#572,#132);
#87=LINE('',#574,#133);
#88=LINE('',#575,#134);
#89=LINE('',#577,#135);
#90=LINE('',#578,#136);
#91=LINE('',#581,#137);
#92=LINE('',#583,#138);
#93=LINE('',#584,#139);
#94=LINE('',#586,#140);
#95=LINE('',#588,#141);
#96=LINE('',#589,#142);
#97=LINE('',#594,#143);
#98=LINE('',#599,#144);
#99=LINE('',#604,#145);
#100=LINE('',#609,#146);
#101=LINE('',#613,#147);
#102=LINE('',#615,#148);
#103=LINE('',#619,#149);
#104=LINE('',#621,#150);
#105=LINE('',#625,#151);
#106=LINE('',#627,#152);
#107=LINE('',#629,#153);
#108=LINE('',#630,#154);
#109=LINE('',#633,#155);
#110=LINE('',#635,#156);
#111=LINE('',#636,#157);
#112=LINE('',#639,#158);
#113=LINE('',#641,#159);
#114=LINE('',#642,#160);
#115=LINE('',#644,#161);
#116=LINE('',#645,#162);
#117=VECTOR('',#440,10.);
#118=VECTOR('',#441,10.);
#119=VECTOR('',#442,10.);
#120=VECTOR('',#443,10.);
#121=VECTOR('',#444,10.);
#122=VECTOR('',#445,10.);
#123=VECTOR('',#446,10.);
#124=VECTOR('',#447,10.);
#125=VECTOR('',#450,10.);
#126=VECTOR('',#451,10.);
#127=VECTOR('',#452,10.);
#128=VECTOR('',#455,10.);
#129=VECTOR('',#456,10.);
#130=VECTOR('',#457,10.);
#131=VECTOR('',#458,10.);
#132=VECTOR('',#459,10.);
#133=VECTOR('',#460,10.);
#134=VECTOR('',#461,10.);
#135=VECTOR('',#464,10.);
#136=VECTOR('',#465,10.);
#137=VECTOR('',#468,10.);
#138=VECTOR('',#469,10.);
#139=VECTOR('',#470,10.);
#140=VECTOR('',#471,10.);
#141=VECTOR('',#472,10.);
#142=VECTOR('',#473,10.);
#143=VECTOR('',#478,10.);
#144=VECTOR('',#485,10.);
#145=VECTOR('',#490,10.);
#146=VECTOR('',#497,10.);
#147=VECTOR('',#502,10.);
#148=VECTOR('',#505,10.);
#149=VECTOR('',#510,10.);
#150=VECTOR('',#513,10.);
#151=VECTOR('',#516,10.);
#152=VECTOR('',#517,10.);
#153=VECTOR('',#518,10.);
#154=VECTOR('',#519,10.);
#155=VECTOR('',#522,10.);
#156=VECTOR('',#523,10.);
#157=VECTOR('',#524,10.);
#158=VECTOR('',#527,10.);
#159=VECTOR('',#528,10.);
#160=VECTOR('',#529,10.);
#161=VECTOR('',#532,10.);
#162=VECTOR('',#533,10.);
#163=VERTEX_POINT('',#540);
#164=VERTEX_POINT('',#541);
#165=VERTEX_POINT('',#543);
#166=VERTEX_POINT('',#545);
#167=VERTEX_POINT('',#547);
#168=VERTEX_POINT('',#549);
#169=VERTEX_POINT('',#551);
#170=VERTEX_POINT('',#553);
#171=VERTEX_POINT('',#557);
#172=VERTEX_POINT('',#559);
#173=VERTEX_POINT('',#563);
#174=VERTEX_POINT('',#564);
#175=VERTEX_POINT('',#566);
#176=VERTEX_POINT('',#568);
#177=VERTEX_POINT('',#571);
#178=VERTEX_POINT('',#573);
#179=VERTEX_POINT('',#580);
#180=VERTEX_POINT('',#582);
#181=VERTEX_POINT('',#585);
#182=VERTEX_POINT('',#587);
#183=VERTEX_POINT('',#591);
#184=VERTEX_POINT('',#593);
#185=VERTEX_POINT('',#597);
#186=VERTEX_POINT('',#601);
#187=VERTEX_POINT('',#603);
#188=VERTEX_POINT('',#607);
#189=VERTEX_POINT('',#611);
#190=VERTEX_POINT('',#617);
#191=VERTEX_POINT('',#623);
#192=VERTEX_POINT('',#624);
#193=VERTEX_POINT('',#626);
#194=VERTEX_POINT('',#628);
#195=VERTEX_POINT('',#632);
#196=VERTEX_POINT('',#634);
#197=VERTEX_POINT('',#638);
#198=VERTEX_POINT('',#640);
#199=EDGE_CURVE('',#163,#164,#71,.T.);
#200=EDGE_CURVE('',#163,#165,#72,.T.);
#201=EDGE_CURVE('',#166,#165,#73,.T.);
#202=EDGE_CURVE('',#167,#166,#74,.T.);
#203=EDGE_CURVE('',#167,#168,#75,.T.);
#204=EDGE_CURVE('',#168,#169,#76,.T.);
#205=EDGE_CURVE('',#170,#169,#77,.T.);
#206=EDGE_CURVE('',#164,#170,#78,.T.);
#207=EDGE_CURVE('',#171,#167,#79,.T.);
#208=EDGE_CURVE('',#171,#172,#80,.T.);
#209=EDGE_CURVE('',#172,#168,#81,.T.);
#210=EDGE_CURVE('',#173,#174,#82,.T.);
#211=EDGE_CURVE('',#175,#173,#83,.T.);
#212=EDGE_CURVE('',#176,#175,#84,.T.);
#213=EDGE_CURVE('',#176,#172,#85,.T.);
#214=EDGE_CURVE('',#177,#171,#86,.T.);
#215=EDGE_CURVE('',#177,#178,#87,.T.);
#216=EDGE_CURVE('',#178,#174,#88,.T.);
#217=EDGE_CURVE('',#166,#177,#89,.T.);
#218=EDGE_CURVE('',#165,#178,#90,.T.);
#219=EDGE_CURVE('',#179,#163,#91,.T.);
#220=EDGE_CURVE('',#180,#179,#92,.T.);
#221=EDGE_CURVE('',#169,#180,#93,.T.);
#222=EDGE_CURVE('',#181,#176,#94,.T.);
#223=EDGE_CURVE('',#182,#181,#95,.T.);
#224=EDGE_CURVE('',#174,#182,#96,.T.);
#225=EDGE_CURVE('',#164,#183,#22,.T.);
#226=EDGE_CURVE('',#184,#183,#97,.T.);
#227=EDGE_CURVE('',#184,#179,#23,.T.);
#228=EDGE_CURVE('',#170,#185,#24,.T.);
#229=EDGE_CURVE('',#183,#185,#98,.T.);
#230=EDGE_CURVE('',#181,#186,#25,.T.);
#231=EDGE_CURVE('',#187,#186,#99,.T.);
#232=EDGE_CURVE('',#182,#187,#26,.T.);
#233=EDGE_CURVE('',#188,#175,#27,.T.);
#234=EDGE_CURVE('',#186,#188,#100,.T.);
#235=EDGE_CURVE('',#189,#180,#28,.T.);
#236=EDGE_CURVE('',#185,#189,#101,.T.);
#237=EDGE_CURVE('',#189,#184,#102,.T.);
#238=EDGE_CURVE('',#190,#173,#29,.T.);
#239=EDGE_CURVE('',#188,#190,#103,.T.);
#240=EDGE_CURVE('',#190,#187,#104,.T.);
#241=EDGE_CURVE('',#191,#192,#105,.T.);
#242=EDGE_CURVE('',#192,#193,#106,.T.);
#243=EDGE_CURVE('',#194,#193,#107,.T.);
#244=EDGE_CURVE('',#191,#194,#108,.T.);
#245=EDGE_CURVE('',#195,#191,#109,.T.);
#246=EDGE_CURVE('',#196,#194,#110,.T.);
#247=EDGE_CURVE('',#195,#196,#111,.T.);
#248=EDGE_CURVE('',#197,#195,#112,.T.);
#249=EDGE_CURVE('',#198,#196,#113,.T.);
#250=EDGE_CURVE('',#197,#198,#114,.T.);
#251=EDGE_CURVE('',#192,#197,#115,.T.);
#252=EDGE_CURVE('',#193,#198,#116,.T.);
#253=ORIENTED_EDGE('',*,*,#199,.F.);
#254=ORIENTED_EDGE('',*,*,#200,.T.);
#255=ORIENTED_EDGE('',*,*,#201,.F.);
#256=ORIENTED_EDGE('',*,*,#202,.F.);
#257=ORIENTED_EDGE('',*,*,#203,.T.);
#258=ORIENTED_EDGE('',*,*,#204,.T.);
#259=ORIENTED_EDGE('',*,*,#205,.F.);
#260=ORIENTED_EDGE('',*,*,#206,.F.);
#261=ORIENTED_EDGE('',*,*,#207,.F.);
#262=ORIENTED_EDGE('',*,*,#208,.T.);
#263=ORIENTED_EDGE('',*,*,#209,.T.);
#264=ORIENTED_EDGE('',*,*,#203,.F.);
#265=ORIENTED_EDGE('',*,*,#210,.F.);
#266=ORIENTED_EDGE('',*,*,#211,.F.);
#267=ORIENTED_EDGE('',*,*,#212,.F.);
#268=ORIENTED_EDGE('',*,*,#213,.T.);
#269=ORIENTED_EDGE('',*,*,#208,.F.);
#270=ORIENTED_EDGE('',*,*,#214,.F.);
#271=ORIENTED_EDGE('',*,*,#215,.T.);
#272=ORIENTED_EDGE('',*,*,#216,.T.);
#273=ORIENTED_EDGE('',*,*,#217,.F.);
#274=ORIENTED_EDGE('',*,*,#201,.T.);
#275=ORIENTED_EDGE('',*,*,#218,.T.);
#276=ORIENTED_EDGE('',*,*,#215,.F.);
#277=ORIENTED_EDGE('',*,*,#219,.F.);
#278=ORIENTED_EDGE('',*,*,#220,.F.);
#279=ORIENTED_EDGE('',*,*,#221,.F.);
#280=ORIENTED_EDGE('',*,*,#204,.F.);
#281=ORIENTED_EDGE('',*,*,#209,.F.);
#282=ORIENTED_EDGE('',*,*,#213,.F.);
#283=ORIENTED_EDGE('',*,*,#222,.F.);
#284=ORIENTED_EDGE('',*,*,#223,.F.);
#285=ORIENTED_EDGE('',*,*,#224,.F.);
#286=ORIENTED_EDGE('',*,*,#216,.F.);
#287=ORIENTED_EDGE('',*,*,#218,.F.);
#288=ORIENTED_EDGE('',*,*,#200,.F.);
#289=ORIENTED_EDGE('',*,*,#219,.T.);
#290=ORIENTED_EDGE('',*,*,#199,.T.);
#291=ORIENTED_EDGE('',*,*,#225,.T.);
#292=ORIENTED_EDGE('',*,*,#226,.F.);
#293=ORIENTED_EDGE('',*,*,#227,.T.);
#294=ORIENTED_EDGE('',*,*,#206,.T.);
#295=ORIENTED_EDGE('',*,*,#228,.T.);
#296=ORIENTED_EDGE('',*,*,#229,.F.);
#297=ORIENTED_EDGE('',*,*,#225,.F.);
#298=ORIENTED_EDGE('',*,*,#223,.T.);
#299=ORIENTED_EDGE('',*,*,#230,.T.);
#300=ORIENTED_EDGE('',*,*,#231,.F.);
#301=ORIENTED_EDGE('',*,*,#232,.F.);
#302=ORIENTED_EDGE('',*,*,#222,.T.);
#303=ORIENTED_EDGE('',*,*,#212,.T.);
#304=ORIENTED_EDGE('',*,*,#233,.F.);
#305=ORIENTED_EDGE('',*,*,#234,.F.);
#306=ORIENTED_EDGE('',*,*,#230,.F.);
#307=ORIENTED_EDGE('',*,*,#221,.T.);
#308=ORIENTED_EDGE('',*,*,#235,.F.);
#309=ORIENTED_EDGE('',*,*,#236,.F.);
#310=ORIENTED_EDGE('',*,*,#228,.F.);
#311=ORIENTED_EDGE('',*,*,#205,.T.);
#312=ORIENTED_EDGE('',*,*,#220,.T.);
#313=ORIENTED_EDGE('',*,*,#227,.F.);
#314=ORIENTED_EDGE('',*,*,#237,.F.);
#315=ORIENTED_EDGE('',*,*,#235,.T.);
#316=ORIENTED_EDGE('',*,*,#211,.T.);
#317=ORIENTED_EDGE('',*,*,#238,.F.);
#318=ORIENTED_EDGE('',*,*,#239,.F.);
#319=ORIENTED_EDGE('',*,*,#233,.T.);
#320=ORIENTED_EDGE('',*,*,#224,.T.);
#321=ORIENTED_EDGE('',*,*,#232,.T.);
#322=ORIENTED_EDGE('',*,*,#240,.F.);
#323=ORIENTED_EDGE('',*,*,#238,.T.);
#324=ORIENTED_EDGE('',*,*,#210,.T.);
#325=ORIENTED_EDGE('',*,*,#241,.T.);
#326=ORIENTED_EDGE('',*,*,#242,.T.);
#327=ORIENTED_EDGE('',*,*,#243,.F.);
#328=ORIENTED_EDGE('',*,*,#244,.F.);
#329=ORIENTED_EDGE('',*,*,#245,.T.);
#330=ORIENTED_EDGE('',*,*,#244,.T.);
#331=ORIENTED_EDGE('',*,*,#246,.F.);
#332=ORIENTED_EDGE('',*,*,#247,.F.);
#333=ORIENTED_EDGE('',*,*,#248,.T.);
#334=ORIENTED_EDGE('',*,*,#247,.T.);
#335=ORIENTED_EDGE('',*,*,#249,.F.);
#336=ORIENTED_EDGE('',*,*,#250,.F.);
#337=ORIENTED_EDGE('',*,*,#251,.T.);
#338=ORIENTED_EDGE('',*,*,#250,.T.);
#339=ORIENTED_EDGE('',*,*,#252,.F.);
#340=ORIENTED_EDGE('',*,*,#242,.F.);
#341=ORIENTED_EDGE('',*,*,#252,.T.);
#342=ORIENTED_EDGE('',*,*,#249,.T.);
#343=ORIENTED_EDGE('',*,*,#246,.T.);
#344=ORIENTED_EDGE('',*,*,#243,.T.);
#345=ORIENTED_EDGE('',*,*,#202,.T.);
#346=ORIENTED_EDGE('',*,*,#217,.T.);
#347=ORIENTED_EDGE('',*,*,#214,.T.);
#348=ORIENTED_EDGE('',*,*,#207,.T.);
#349=ORIENTED_EDGE('',*,*,#251,.F.);
#350=ORIENTED_EDGE('',*,*,#241,.F.);
#351=ORIENTED_EDGE('',*,*,#245,.F.);
#352=ORIENTED_EDGE('',*,*,#248,.F.);
#353=ORIENTED_EDGE('',*,*,#229,.T.);
#354=ORIENTED_EDGE('',*,*,#236,.T.);
#355=ORIENTED_EDGE('',*,*,#237,.T.);
#356=ORIENTED_EDGE('',*,*,#226,.T.);
#357=ORIENTED_EDGE('',*,*,#231,.T.);
#358=ORIENTED_EDGE('',*,*,#234,.T.);
#359=ORIENTED_EDGE('',*,*,#239,.T.);
#360=ORIENTED_EDGE('',*,*,#240,.T.);
#361=PLANE('',#409);
#362=PLANE('',#410);
#363=PLANE('',#411);
#364=PLANE('',#412);
#365=PLANE('',#413);
#366=PLANE('',#414);
#367=PLANE('',#422);
#368=PLANE('',#424);
#369=PLANE('',#429);
#370=PLANE('',#430);
#371=PLANE('',#431);
#372=PLANE('',#432);
#373=PLANE('',#433);
#374=PLANE('',#434);
#375=PLANE('',#435);
#376=ADVANCED_FACE('',(#30),#361,.F.);
#377=ADVANCED_FACE('',(#31),#362,.F.);
#378=ADVANCED_FACE('',(#32),#363,.F.);
#379=ADVANCED_FACE('',(#33),#364,.F.);
#380=ADVANCED_FACE('',(#34),#365,.F.);
#381=ADVANCED_FACE('',(#35),#366,.T.);
#382=ADVANCED_FACE('',(#36),#18,.F.);
#383=ADVANCED_FACE('',(#37),#19,.F.);
#384=ADVANCED_FACE('',(#38),#367,.F.);
#385=ADVANCED_FACE('',(#39),#368,.F.);
#386=ADVANCED_FACE('',(#40),#20,.F.);
#387=ADVANCED_FACE('',(#41),#21,.F.);
#388=ADVANCED_FACE('',(#42),#369,.T.);
#389=ADVANCED_FACE('',(#43),#370,.T.);
#390=ADVANCED_FACE('',(#44),#371,.T.);
#391=ADVANCED_FACE('',(#45),#372,.T.);
#392=ADVANCED_FACE('',(#46),#373,.T.);
#393=ADVANCED_FACE('',(#47,#15),#374,.T.);
#394=ADVANCED_FACE('',(#48,#16,#17),#375,.F.);
#395=CLOSED_SHELL('',(#376,#377,#378,#379,#380,#381,#382,#383,#384,#385,
#386,#387,#388,#389,#390,#391,#392,#393,#394));
#396=DERIVED_UNIT_ELEMENT(#398,1.);
#397=DERIVED_UNIT_ELEMENT(#653,-3.);
#398=(
MASS_UNIT()
NAMED_UNIT(*)
SI_UNIT(.KILO.,.GRAM.)
);
#399=DERIVED_UNIT((#396,#397));
#400=MEASURE_REPRESENTATION_ITEM('density measure',
POSITIVE_RATIO_MEASURE(7850.),#399);
#401=PROPERTY_DEFINITION_REPRESENTATION(#406,#403);
#402=PROPERTY_DEFINITION_REPRESENTATION(#407,#404);
#403=REPRESENTATION('material name',(#405),#650);
#404=REPRESENTATION('density',(#400),#650);
#405=DESCRIPTIVE_REPRESENTATION_ITEM('A\X\E7o','A\X\E7o');
#406=PROPERTY_DEFINITION('material property','material name',#660);
#407=PROPERTY_DEFINITION('material property','density of part',#660);
#408=AXIS2_PLACEMENT_3D('',#538,#436,#437);
#409=AXIS2_PLACEMENT_3D('',#539,#438,#439);
#410=AXIS2_PLACEMENT_3D('',#556,#448,#449);
#411=AXIS2_PLACEMENT_3D('',#562,#453,#454);
#412=AXIS2_PLACEMENT_3D('',#576,#462,#463);
#413=AXIS2_PLACEMENT_3D('',#579,#466,#467);
#414=AXIS2_PLACEMENT_3D('',#590,#474,#475);
#415=AXIS2_PLACEMENT_3D('',#592,#476,#477);
#416=AXIS2_PLACEMENT_3D('',#595,#479,#480);
#417=AXIS2_PLACEMENT_3D('',#596,#481,#482);
#418=AXIS2_PLACEMENT_3D('',#598,#483,#484);
#419=AXIS2_PLACEMENT_3D('',#600,#486,#487);
#420=AXIS2_PLACEMENT_3D('',#602,#488,#489);
#421=AXIS2_PLACEMENT_3D('',#605,#491,#492);
#422=AXIS2_PLACEMENT_3D('',#606,#493,#494);
#423=AXIS2_PLACEMENT_3D('',#608,#495,#496);
#424=AXIS2_PLACEMENT_3D('',#610,#498,#499);
#425=AXIS2_PLACEMENT_3D('',#612,#500,#501);
#426=AXIS2_PLACEMENT_3D('',#614,#503,#504);
#427=AXIS2_PLACEMENT_3D('',#616,#506,#507);
#428=AXIS2_PLACEMENT_3D('',#618,#508,#509);
#429=AXIS2_PLACEMENT_3D('',#620,#511,#512);
#430=AXIS2_PLACEMENT_3D('',#622,#514,#515);
#431=AXIS2_PLACEMENT_3D('',#631,#520,#521);
#432=AXIS2_PLACEMENT_3D('',#637,#525,#526);
#433=AXIS2_PLACEMENT_3D('',#643,#530,#531);
#434=AXIS2_PLACEMENT_3D('',#646,#534,#535);
#435=AXIS2_PLACEMENT_3D('',#647,#536,#537);
#436=DIRECTION('axis',(0.,0.,1.));
#437=DIRECTION('refdir',(1.,0.,0.));
#438=DIRECTION('center_axis',(0.,-1.,0.));
#439=DIRECTION('ref_axis',(-1.,0.,0.));
#440=DIRECTION('',(0.,0.,1.));
#441=DIRECTION('',(-1.,0.,0.));
#442=DIRECTION('',(0.,0.,-1.));
#443=DIRECTION('',(-1.,0.,0.));
#444=DIRECTION('',(0.,0.,-1.));
#445=DIRECTION('',(-1.,0.,0.));
#446=DIRECTION('',(0.,0.,-1.));
#447=DIRECTION('',(1.,0.,0.));
#448=DIRECTION('center_axis',(1.,0.,0.));
#449=DIRECTION('ref_axis',(0.,-1.,0.));
#450=DIRECTION('',(0.,-1.,0.));
#451=DIRECTION('',(0.,0.,-1.));
#452=DIRECTION('',(0.,-1.,0.));
#453=DIRECTION('center_axis',(0.,1.,0.));
#454=DIRECTION('ref_axis',(1.,0.,0.));
#455=DIRECTION('',(0.,0.,-1.));
#456=DIRECTION('',(-1.,0.,0.));
#457=DIRECTION('',(0.,0.,1.));
#458=DIRECTION('',(1.,0.,0.));
#459=DIRECTION('',(1.,0.,0.));
#460=DIRECTION('',(0.,0.,-1.));
#461=DIRECTION('',(1.,0.,0.));
#462=DIRECTION('center_axis',(-1.,0.,0.));
#463=DIRECTION('ref_axis',(0.,1.,0.));
#464=DIRECTION('',(0.,1.,0.));
#465=DIRECTION('',(0.,1.,0.));
#466=DIRECTION('center_axis',(0.,0.,-1.));
#467=DIRECTION('ref_axis',(-1.,0.,0.));
#468=DIRECTION('',(0.,-1.,0.));
#469=DIRECTION('',(-1.,0.,0.));
#470=DIRECTION('',(0.,1.,0.));
#471=DIRECTION('',(0.,1.,0.));
#472=DIRECTION('',(1.,0.,0.));
#473=DIRECTION('',(0.,-1.,0.));
#474=DIRECTION('center_axis',(1.,0.,0.));
#475=DIRECTION('ref_axis',(0.,0.,-1.));
#476=DIRECTION('center_axis',(1.,0.,0.));
#477=DIRECTION('ref_axis',(0.,0.,-1.));
#478=DIRECTION('',(0.,-1.,0.));
#479=DIRECTION('center_axis',(1.,0.,0.));
#480=DIRECTION('ref_axis',(0.,0.,-1.));
#481=DIRECTION('center_axis',(1.,0.,0.));
#482=DIRECTION('ref_axis',(0.,0.,-1.));
#483=DIRECTION('center_axis',(1.,0.,0.));
#484=DIRECTION('ref_axis',(0.,0.,-1.));
#485=DIRECTION('',(1.,0.,0.));
#486=DIRECTION('center_axis',(1.,0.,0.));
#487=DIRECTION('ref_axis',(0.,0.,-1.));
#488=DIRECTION('center_axis',(1.,0.,0.));
#489=DIRECTION('ref_axis',(0.,0.,-1.));
#490=DIRECTION('',(1.,0.,0.));
#491=DIRECTION('center_axis',(1.,0.,0.));
#492=DIRECTION('ref_axis',(0.,0.,-1.));
#493=DIRECTION('center_axis',(1.,0.,0.));
#494=DIRECTION('ref_axis',(0.,0.,-1.));
#495=DIRECTION('center_axis',(1.,0.,0.));
#496=DIRECTION('ref_axis',(0.,0.,-1.));
#497=DIRECTION('',(0.,1.,0.));
#498=DIRECTION('center_axis',(1.,0.,0.));
#499=DIRECTION('ref_axis',(0.,0.,-1.));
#500=DIRECTION('center_axis',(1.,0.,0.));
#501=DIRECTION('ref_axis',(0.,0.,-1.));
#502=DIRECTION('',(0.,1.,0.));
#503=DIRECTION('center_axis',(1.,0.,0.));
#504=DIRECTION('ref_axis',(0.,0.,-1.));
#505=DIRECTION('',(-1.,0.,0.));
#506=DIRECTION('center_axis',(1.,0.,0.));
#507=DIRECTION('ref_axis',(0.,0.,-1.));
#508=DIRECTION('center_axis',(1.,0.,0.));
#509=DIRECTION('ref_axis',(0.,0.,-1.));
#510=DIRECTION('',(-1.,0.,0.));
#511=DIRECTION('center_axis',(1.,0.,0.));
#512=DIRECTION('ref_axis',(0.,0.,-1.));
#513=DIRECTION('',(0.,-1.,0.));
#514=DIRECTION('center_axis',(0.,1.,0.));
#515=DIRECTION('ref_axis',(-1.,0.,0.));
#516=DIRECTION('',(-1.,0.,0.));
#517=DIRECTION('',(0.,0.,1.));
#518=DIRECTION('',(-1.,0.,0.));
#519=DIRECTION('',(0.,0.,1.));
#520=DIRECTION('center_axis',(1.,0.,0.));
#521=DIRECTION('ref_axis',(0.,1.,0.));
#522=DIRECTION('',(0.,1.,0.));
#523=DIRECTION('',(0.,1.,0.));
#524=DIRECTION('',(0.,0.,1.));
#525=DIRECTION('center_axis',(0.,-1.,0.));
#526=DIRECTION('ref_axis',(1.,0.,0.));
#527=DIRECTION('',(1.,0.,0.));
#528=DIRECTION('',(1.,0.,0.));
#529=DIRECTION('',(0.,0.,1.));
#530=DIRECTION('center_axis',(-1.,0.,0.));
#531=DIRECTION('ref_axis',(0.,-1.,0.));
#532=DIRECTION('',(0.,-1.,0.));
#533=DIRECTION('',(0.,-1.,0.));
#534=DIRECTION('center_axis',(0.,0.,1.));
#535=DIRECTION('ref_axis',(1.,0.,0.));
#536=DIRECTION('center_axis',(0.,0.,1.));
#537=DIRECTION('ref_axis',(1.,0.,0.));
#538=CARTESIAN_POINT('',(0.,0.,0.));
#539=CARTESIAN_POINT('Origin',(34.,-17.,18.5));
#540=CARTESIAN_POINT('',(-33.5,-17.,10.));
#541=CARTESIAN_POINT('',(-33.5,-17.,15.3729078059367));
#542=CARTESIAN_POINT('',(-33.5,-17.,13.875));
#543=CARTESIAN_POINT('',(-34.,-17.,10.));
#544=CARTESIAN_POINT('',(-34.,-17.,10.));
#545=CARTESIAN_POINT('',(-34.,-17.,18.5));
#546=CARTESIAN_POINT('',(-34.,-17.,18.5));
#547=CARTESIAN_POINT('',(34.,-17.,18.5));
#548=CARTESIAN_POINT('',(17.,-17.,18.5));
#549=CARTESIAN_POINT('',(34.,-17.,10.));
#550=CARTESIAN_POINT('',(34.,-17.,18.5));
#551=CARTESIAN_POINT('',(33.5,-17.,10.));
#552=CARTESIAN_POINT('',(-34.,-17.,10.));
#553=CARTESIAN_POINT('',(33.5,-17.,15.3729078059367));
#554=CARTESIAN_POINT('',(33.5,-17.,13.875));
#555=CARTESIAN_POINT('',(-33.5,-17.,15.3729078059367));
#556=CARTESIAN_POINT('Origin',(34.,17.,18.5));
#557=CARTESIAN_POINT('',(34.,17.,18.5));
#558=CARTESIAN_POINT('',(34.,8.5,18.5));
#559=CARTESIAN_POINT('',(34.,17.,10.));
#560=CARTESIAN_POINT('',(34.,17.,18.5));
#561=CARTESIAN_POINT('',(34.,-17.,10.));
#562=CARTESIAN_POINT('Origin',(-34.,17.,18.5));
#563=CARTESIAN_POINT('',(-33.5,17.,15.3729078059367));
#564=CARTESIAN_POINT('',(-33.5,17.,10.));
#565=CARTESIAN_POINT('',(-33.5,17.,13.875));
#566=CARTESIAN_POINT('',(33.5,17.,15.3729078059367));
#567=CARTESIAN_POINT('',(-33.5,17.,15.3729078059367));
#568=CARTESIAN_POINT('',(33.5,17.,10.));
#569=CARTESIAN_POINT('',(33.5,17.,13.875));
#570=CARTESIAN_POINT('',(34.,17.,10.));
#571=CARTESIAN_POINT('',(-34.,17.,18.5));
#572=CARTESIAN_POINT('',(-17.,17.,18.5));
#573=CARTESIAN_POINT('',(-34.,17.,10.));
#574=CARTESIAN_POINT('',(-34.,17.,18.5));
#575=CARTESIAN_POINT('',(34.,17.,10.));
#576=CARTESIAN_POINT('Origin',(-34.,-17.,18.5));
#577=CARTESIAN_POINT('',(-34.,-8.5,18.5));
#578=CARTESIAN_POINT('',(-34.,17.,10.));
#579=CARTESIAN_POINT('Origin',(0.,0.,10.));
#580=CARTESIAN_POINT('',(-33.5,-0.730291266711773,10.));
#581=CARTESIAN_POINT('',(-33.5,-5.,10.));
#582=CARTESIAN_POINT('',(33.5,-0.730291266711773,10.));
#583=CARTESIAN_POINT('',(-33.5,-0.730291266711773,10.));
#584=CARTESIAN_POINT('',(33.5,-5.,10.));
#585=CARTESIAN_POINT('',(33.5,0.730291266711773,10.));
#586=CARTESIAN_POINT('',(33.5,5.,10.));
#587=CARTESIAN_POINT('',(-33.5,0.730291266711773,10.));
#588=CARTESIAN_POINT('',(-33.5,0.730291266711773,10.));
#589=CARTESIAN_POINT('',(-33.5,5.,10.));
#590=CARTESIAN_POINT('Origin',(-33.5,-10.,9.25));
#591=CARTESIAN_POINT('',(-33.5,-10.9630680142129,0.));
#592=CARTESIAN_POINT('Origin',(-33.5,-10.,9.25));
#593=CARTESIAN_POINT('',(-33.5,-9.03693198578709,0.));
#594=CARTESIAN_POINT('',(-33.5,-5.,0.));
#595=CARTESIAN_POINT('Origin',(-33.5,-10.,9.25));
#596=CARTESIAN_POINT('Origin',(-33.5,-10.,9.25));
#597=CARTESIAN_POINT('',(33.5,-10.9630680142129,0.));
#598=CARTESIAN_POINT('Origin',(33.5,-10.,9.25));
#599=CARTESIAN_POINT('',(-33.5,-10.9630680142129,0.));
#600=CARTESIAN_POINT('Origin',(-33.5,10.,9.25));
#601=CARTESIAN_POINT('',(33.5,9.03693198578709,0.));
#602=CARTESIAN_POINT('Origin',(33.5,10.,9.25));
#603=CARTESIAN_POINT('',(-33.5,9.03693198578709,0.));
#604=CARTESIAN_POINT('',(-33.5,9.03693198578709,0.));
#605=CARTESIAN_POINT('Origin',(-33.5,10.,9.25));
#606=CARTESIAN_POINT('Origin',(33.5,10.,9.25));
#607=CARTESIAN_POINT('',(33.5,10.9630680142129,0.));
#608=CARTESIAN_POINT('Origin',(33.5,10.,9.25));
#609=CARTESIAN_POINT('',(33.5,5.,0.));
#610=CARTESIAN_POINT('Origin',(33.5,-10.,9.25));
#611=CARTESIAN_POINT('',(33.5,-9.03693198578709,0.));
#612=CARTESIAN_POINT('Origin',(33.5,-10.,9.25));
#613=CARTESIAN_POINT('',(33.5,-5.,0.));
#614=CARTESIAN_POINT('Origin',(-33.5,-10.,9.25));
#615=CARTESIAN_POINT('',(-33.5,-9.03693198578709,0.));
#616=CARTESIAN_POINT('Origin',(-33.5,10.,9.25));
#617=CARTESIAN_POINT('',(-33.5,10.9630680142129,0.));
#618=CARTESIAN_POINT('Origin',(-33.5,10.,9.25));
#619=CARTESIAN_POINT('',(-33.5,10.9630680142129,0.));
#620=CARTESIAN_POINT('Origin',(-33.5,10.,9.25));
#621=CARTESIAN_POINT('',(-33.5,5.,0.));
#622=CARTESIAN_POINT('Origin',(37.5,20.,0.));
#623=CARTESIAN_POINT('',(37.5,20.,0.));
#624=CARTESIAN_POINT('',(-37.5,20.,0.));
#625=CARTESIAN_POINT('',(37.5,20.,0.));
#626=CARTESIAN_POINT('',(-37.5,20.,18.5));
#627=CARTESIAN_POINT('',(-37.5,20.,0.));
#628=CARTESIAN_POINT('',(37.5,20.,18.5));
#629=CARTESIAN_POINT('',(37.5,20.,18.5));
#630=CARTESIAN_POINT('',(37.5,20.,0.));
#631=CARTESIAN_POINT('Origin',(37.5,-20.,0.));
#632=CARTESIAN_POINT('',(37.5,-20.,0.));
#633=CARTESIAN_POINT('',(37.5,-20.,0.));
#634=CARTESIAN_POINT('',(37.5,-20.,18.5));
#635=CARTESIAN_POINT('',(37.5,-20.,18.5));
#636=CARTESIAN_POINT('',(37.5,-20.,0.));
#637=CARTESIAN_POINT('Origin',(-37.5,-20.,0.));
#638=CARTESIAN_POINT('',(-37.5,-20.,0.));
#639=CARTESIAN_POINT('',(-37.5,-20.,0.));
#640=CARTESIAN_POINT('',(-37.5,-20.,18.5));
#641=CARTESIAN_POINT('',(-37.5,-20.,18.5));
#642=CARTESIAN_POINT('',(-37.5,-20.,0.));
#643=CARTESIAN_POINT('Origin',(-37.5,20.,0.));
#644=CARTESIAN_POINT('',(-37.5,20.,0.));
#645=CARTESIAN_POINT('',(-37.5,20.,18.5));
#646=CARTESIAN_POINT('Origin',(0.,0.,18.5));
#647=CARTESIAN_POINT('Origin',(0.,0.,0.));
#648=UNCERTAINTY_MEASURE_WITH_UNIT(LENGTH_MEASURE(0.01),#652,
'DISTANCE_ACCURACY_VALUE',
'Maximum model space distance between geometric entities at asserted c
onnectivities');
#649=UNCERTAINTY_MEASURE_WITH_UNIT(LENGTH_MEASURE(0.01),#652,
'DISTANCE_ACCURACY_VALUE',
'Maximum model space distance between geometric entities at asserted c
onnectivities');
#650=(
GEOMETRIC_REPRESENTATION_CONTEXT(3)
GLOBAL_UNCERTAINTY_ASSIGNED_CONTEXT((#648))
GLOBAL_UNIT_ASSIGNED_CONTEXT((#652,#654,#655))
REPRESENTATION_CONTEXT('','3D')
);
#651=(
GEOMETRIC_REPRESENTATION_CONTEXT(3)
GLOBAL_UNCERTAINTY_ASSIGNED_CONTEXT((#649))
GLOBAL_UNIT_ASSIGNED_CONTEXT((#652,#654,#655))
REPRESENTATION_CONTEXT('','3D')
);
#652=(
LENGTH_UNIT()
NAMED_UNIT(*)
SI_UNIT(.MILLI.,.METRE.)
);
#653=(
LENGTH_UNIT()
NAMED_UNIT(*)
SI_UNIT($,.METRE.)
);
#654=(
NAMED_UNIT(*)
PLANE_ANGLE_UNIT()
SI_UNIT($,.RADIAN.)
);
#655=(
NAMED_UNIT(*)
SI_UNIT($,.STERADIAN.)
SOLID_ANGLE_UNIT()
);
#656=SHAPE_DEFINITION_REPRESENTATION(#657,#658);
#657=PRODUCT_DEFINITION_SHAPE('',$,#660);
#658=SHAPE_REPRESENTATION('',(#408),#650);
#659=PRODUCT_DEFINITION_CONTEXT('part definition',#664,'design');
#660=PRODUCT_DEFINITION('(N\X\E3o salvo)','(N\X\E3o salvo)',#661,#659);
#661=PRODUCT_DEFINITION_FORMATION('',$,#666);
#662=PRODUCT_RELATED_PRODUCT_CATEGORY('(N\X\E3o salvo)','(N\X\E3o salv
o)',(#666));
#663=APPLICATION_PROTOCOL_DEFINITION('international standard',
'automotive_design',2009,#664);
#664=APPLICATION_CONTEXT(
'Core Data for Automotive Mechanical Design Process');
#665=PRODUCT_CONTEXT('part definition',#664,'mechanical');
#666=PRODUCT('(N\X\E3o salvo)','(N\X\E3o salvo)',$,(#665));
#667=PRESENTATION_STYLE_ASSIGNMENT((#669));
#668=PRESENTATION_STYLE_ASSIGNMENT((#670));
#669=SURFACE_STYLE_USAGE(.BOTH.,#671);
#670=SURFACE_STYLE_USAGE(.BOTH.,#672);
#671=SURFACE_SIDE_STYLE('',(#673));
#672=SURFACE_SIDE_STYLE('',(#674));
#673=SURFACE_STYLE_FILL_AREA(#675);
#674=SURFACE_STYLE_FILL_AREA(#676);
#675=FILL_AREA_STYLE('A\X\E7o - Acetinado',(#677));
#676=FILL_AREA_STYLE('Plastico_Fosco_Preto_Suporte',(#678));
#677=FILL_AREA_STYLE_COLOUR('A\X\E7o - Acetinado',#679);
#678=FILL_AREA_STYLE_COLOUR('Plastico_Fosco_Preto_Suporte',#680);
#679=COLOUR_RGB('A\X\E7o - Acetinado',0.627450980392157,0.627450980392157,
0.627450980392157);
#680=COLOUR_RGB('Plastico_Fosco_Preto_Suporte',0.964705882352941,0.964705882352941,
0.952941176470588);
ENDSEC;
END-ISO-10303-21;
