ISO-10303-21;
HEADER;
/* Generated by software containing ST-Developer
 * from STEP Tools, Inc. (www.steptools.com) 
 */

FILE_DESCRIPTION(
/* description */ (''),
/* implementation_level */ '2;1');

FILE_NAME(
/* name */ '04_Motor_Eletrico_Trifasico.step',
/* time_stamp */ '2026-09-24T00:12:47-03:00',
/* author */ (''),
/* organization */ (''),
/* preprocessor_version */ 'ST-DEVELOPER v20.2',
/* originating_system */ 'Autodesk Translation Framework v15.15.0.0',
/* authorisation */ '');

FILE_SCHEMA (('AUTOMOTIVE_DESIGN { 1 0 10303 214 3 1 1 }'));
ENDSEC;

DATA;
#10=MECHANICAL_DESIGN_GEOMETRIC_PRESENTATION_REPRESENTATION('',(#45,#46),
#749);
#11=SHAPE_REPRESENTATION_RELATIONSHIP('SRR','None',#756,#12);
#12=ADVANCED_BREP_SHAPE_REPRESENTATION('',(#47,#48),#748);
#13=CYLINDRICAL_SURFACE('',#478,4.5);
#14=CYLINDRICAL_SURFACE('',#479,4.5);
#15=CYLINDRICAL_SURFACE('',#481,4.5);
#16=CYLINDRICAL_SURFACE('',#482,4.5);
#17=CYLINDRICAL_SURFACE('',#496,50.);
#18=CYLINDRICAL_SURFACE('',#499,7.);
#19=FACE_BOUND('',#82,.T.);
#20=FACE_BOUND('',#83,.T.);
#21=FACE_BOUND('',#84,.T.);
#22=FACE_BOUND('',#85,.T.);
#23=FACE_BOUND('',#87,.T.);
#24=FACE_BOUND('',#88,.T.);
#25=FACE_BOUND('',#98,.T.);
#26=FACE_BOUND('',#99,.T.);
#27=FACE_BOUND('',#104,.T.);
#28=FACE_BOUND('',#106,.T.);
#29=CIRCLE('',#467,4.5);
#30=CIRCLE('',#468,4.5);
#31=CIRCLE('',#469,4.5);
#32=CIRCLE('',#470,4.5);
#33=CIRCLE('',#472,4.5);
#34=CIRCLE('',#473,4.5);
#35=CIRCLE('',#475,50.);
#36=CIRCLE('',#480,4.5);
#37=CIRCLE('',#483,4.5);
#38=CIRCLE('',#485,50.);
#39=CIRCLE('',#488,50.);
#40=CIRCLE('',#490,50.);
#41=CIRCLE('',#492,50.);
#42=CIRCLE('',#494,50.);
#43=CIRCLE('',#495,7.);
#44=CIRCLE('',#498,7.);
#45=STYLED_ITEM('',(#766),#47);
#46=STYLED_ITEM('',(#766),#48);
#47=MANIFOLD_SOLID_BREP('Corpo1',#444);
#48=MANIFOLD_SOLID_BREP('Corpo1',#445);
#49=FACE_OUTER_BOUND('',#74,.T.);
#50=FACE_OUTER_BOUND('',#75,.T.);
#51=FACE_OUTER_BOUND('',#76,.T.);
#52=FACE_OUTER_BOUND('',#77,.T.);
#53=FACE_OUTER_BOUND('',#78,.T.);
#54=FACE_OUTER_BOUND('',#79,.T.);
#55=FACE_OUTER_BOUND('',#80,.T.);
#56=FACE_OUTER_BOUND('',#81,.T.);
#57=FACE_OUTER_BOUND('',#86,.T.);
#58=FACE_OUTER_BOUND('',#89,.T.);
#59=FACE_OUTER_BOUND('',#90,.T.);
#60=FACE_OUTER_BOUND('',#91,.T.);
#61=FACE_OUTER_BOUND('',#92,.T.);
#62=FACE_OUTER_BOUND('',#93,.T.);
#63=FACE_OUTER_BOUND('',#94,.T.);
#64=FACE_OUTER_BOUND('',#95,.T.);
#65=FACE_OUTER_BOUND('',#96,.T.);
#66=FACE_OUTER_BOUND('',#97,.T.);
#67=FACE_OUTER_BOUND('',#100,.T.);
#68=FACE_OUTER_BOUND('',#101,.T.);
#69=FACE_OUTER_BOUND('',#102,.T.);
#70=FACE_OUTER_BOUND('',#103,.T.);
#71=FACE_OUTER_BOUND('',#105,.T.);
#72=FACE_OUTER_BOUND('',#107,.T.);
#73=FACE_OUTER_BOUND('',#108,.T.);
#74=EDGE_LOOP('',(#286,#287,#288,#289));
#75=EDGE_LOOP('',(#290,#291,#292,#293));
#76=EDGE_LOOP('',(#294,#295,#296,#297,#298));
#77=EDGE_LOOP('',(#299,#300,#301,#302));
#78=EDGE_LOOP('',(#303,#304,#305,#306,#307));
#79=EDGE_LOOP('',(#308,#309,#310,#311));
#80=EDGE_LOOP('',(#312,#313,#314,#315));
#81=EDGE_LOOP('',(#316,#317,#318,#319,#320,#321));
#82=EDGE_LOOP('',(#322));
#83=EDGE_LOOP('',(#323));
#84=EDGE_LOOP('',(#324));
#85=EDGE_LOOP('',(#325));
#86=EDGE_LOOP('',(#326,#327,#328,#329));
#87=EDGE_LOOP('',(#330));
#88=EDGE_LOOP('',(#331));
#89=EDGE_LOOP('',(#332,#333,#334,#335));
#90=EDGE_LOOP('',(#336,#337,#338,#339));
#91=EDGE_LOOP('',(#340,#341,#342,#343));
#92=EDGE_LOOP('',(#344,#345,#346,#347));
#93=EDGE_LOOP('',(#348,#349,#350,#351));
#94=EDGE_LOOP('',(#352,#353,#354,#355));
#95=EDGE_LOOP('',(#356,#357,#358,#359));
#96=EDGE_LOOP('',(#360,#361,#362,#363));
#97=EDGE_LOOP('',(#364,#365,#366,#367));
#98=EDGE_LOOP('',(#368));
#99=EDGE_LOOP('',(#369));
#100=EDGE_LOOP('',(#370,#371,#372,#373));
#101=EDGE_LOOP('',(#374,#375,#376,#377));
#102=EDGE_LOOP('',(#378));
#103=EDGE_LOOP('',(#379));
#104=EDGE_LOOP('',(#380));
#105=EDGE_LOOP('',(#381,#382,#383,#384,#385,#386,#387,#388));
#106=EDGE_LOOP('',(#389,#390,#391,#392,#393,#394));
#107=EDGE_LOOP('',(#395));
#108=EDGE_LOOP('',(#396,#397,#398,#399));
#109=LINE('',#629,#150);
#110=LINE('',#631,#151);
#111=LINE('',#633,#152);
#112=LINE('',#634,#153);
#113=LINE('',#637,#154);
#114=LINE('',#639,#155);
#115=LINE('',#640,#156);
#116=LINE('',#643,#157);
#117=LINE('',#645,#158);
#118=LINE('',#646,#159);
#119=LINE('',#649,#160);
#120=LINE('',#651,#161);
#121=LINE('',#652,#162);
#122=LINE('',#654,#163);
#123=LINE('',#655,#164);
#124=LINE('',#661,#165);
#125=LINE('',#663,#166);
#126=LINE('',#665,#167);
#127=LINE('',#667,#168);
#128=LINE('',#669,#169);
#129=LINE('',#670,#170);
#130=LINE('',#682,#171);
#131=LINE('',#684,#172);
#132=LINE('',#686,#173);
#133=LINE('',#687,#174);
#134=LINE('',#694,#175);
#135=LINE('',#697,#176);
#136=LINE('',#699,#177);
#137=LINE('',#700,#178);
#138=LINE('',#702,#179);
#139=LINE('',#704,#180);
#140=LINE('',#707,#181);
#141=LINE('',#710,#182);
#142=LINE('',#713,#183);
#143=LINE('',#718,#184);
#144=LINE('',#721,#185);
#145=LINE('',#722,#186);
#146=LINE('',#737,#187);
#147=LINE('',#739,#188);
#148=LINE('',#740,#189);
#149=LINE('',#745,#190);
#150=VECTOR('',#504,10.);
#151=VECTOR('',#505,10.);
#152=VECTOR('',#506,10.);
#153=VECTOR('',#507,10.);
#154=VECTOR('',#510,10.);
#155=VECTOR('',#511,10.);
#156=VECTOR('',#512,10.);
#157=VECTOR('',#515,10.);
#158=VECTOR('',#516,10.);
#159=VECTOR('',#517,10.);
#160=VECTOR('',#520,10.);
#161=VECTOR('',#521,10.);
#162=VECTOR('',#522,10.);
#163=VECTOR('',#525,10.);
#164=VECTOR('',#526,10.);
#165=VECTOR('',#533,10.);
#166=VECTOR('',#534,10.);
#167=VECTOR('',#535,10.);
#168=VECTOR('',#536,10.);
#169=VECTOR('',#537,10.);
#170=VECTOR('',#538,10.);
#171=VECTOR('',#549,10.);
#172=VECTOR('',#550,10.);
#173=VECTOR('',#551,10.);
#174=VECTOR('',#552,10.);
#175=VECTOR('',#561,10.);
#176=VECTOR('',#564,10.);
#177=VECTOR('',#565,10.);
#178=VECTOR('',#566,10.);
#179=VECTOR('',#569,10.);
#180=VECTOR('',#572,4.5);
#181=VECTOR('',#575,4.5);
#182=VECTOR('',#580,4.5);
#183=VECTOR('',#583,4.5);
#184=VECTOR('',#590,10.);
#185=VECTOR('',#593,10.);
#186=VECTOR('',#594,10.);
#187=VECTOR('',#615,50.);
#188=VECTOR('',#616,10.);
#189=VECTOR('',#617,50.);
#190=VECTOR('',#624,7.);
#191=VERTEX_POINT('',#627);
#192=VERTEX_POINT('',#628);
#193=VERTEX_POINT('',#630);
#194=VERTEX_POINT('',#632);
#195=VERTEX_POINT('',#636);
#196=VERTEX_POINT('',#638);
#197=VERTEX_POINT('',#642);
#198=VERTEX_POINT('',#644);
#199=VERTEX_POINT('',#648);
#200=VERTEX_POINT('',#650);
#201=VERTEX_POINT('',#659);
#202=VERTEX_POINT('',#660);
#203=VERTEX_POINT('',#662);
#204=VERTEX_POINT('',#664);
#205=VERTEX_POINT('',#666);
#206=VERTEX_POINT('',#668);
#207=VERTEX_POINT('',#671);
#208=VERTEX_POINT('',#673);
#209=VERTEX_POINT('',#675);
#210=VERTEX_POINT('',#677);
#211=VERTEX_POINT('',#680);
#212=VERTEX_POINT('',#681);
#213=VERTEX_POINT('',#683);
#214=VERTEX_POINT('',#685);
#215=VERTEX_POINT('',#688);
#216=VERTEX_POINT('',#690);
#217=VERTEX_POINT('',#696);
#218=VERTEX_POINT('',#698);
#219=VERTEX_POINT('',#706);
#220=VERTEX_POINT('',#712);
#221=VERTEX_POINT('',#716);
#222=VERTEX_POINT('',#720);
#223=VERTEX_POINT('',#728);
#224=VERTEX_POINT('',#731);
#225=VERTEX_POINT('',#733);
#226=VERTEX_POINT('',#736);
#227=VERTEX_POINT('',#738);
#228=VERTEX_POINT('',#742);
#229=EDGE_CURVE('',#191,#192,#109,.T.);
#230=EDGE_CURVE('',#193,#191,#110,.T.);
#231=EDGE_CURVE('',#194,#193,#111,.T.);
#232=EDGE_CURVE('',#192,#194,#112,.T.);
#233=EDGE_CURVE('',#193,#195,#113,.T.);
#234=EDGE_CURVE('',#196,#195,#114,.T.);
#235=EDGE_CURVE('',#194,#196,#115,.T.);
#236=EDGE_CURVE('',#197,#192,#116,.T.);
#237=EDGE_CURVE('',#198,#196,#117,.T.);
#238=EDGE_CURVE('',#197,#198,#118,.T.);
#239=EDGE_CURVE('',#199,#197,#119,.T.);
#240=EDGE_CURVE('',#200,#198,#120,.T.);
#241=EDGE_CURVE('',#199,#200,#121,.T.);
#242=EDGE_CURVE('',#191,#199,#122,.T.);
#243=EDGE_CURVE('',#195,#200,#123,.T.);
#244=EDGE_CURVE('',#201,#202,#124,.T.);
#245=EDGE_CURVE('',#203,#201,#125,.T.);
#246=EDGE_CURVE('',#204,#203,#126,.T.);
#247=EDGE_CURVE('',#205,#204,#127,.T.);
#248=EDGE_CURVE('',#206,#205,#128,.T.);
#249=EDGE_CURVE('',#202,#206,#129,.T.);
#250=EDGE_CURVE('',#207,#207,#29,.T.);
#251=EDGE_CURVE('',#208,#208,#30,.T.);
#252=EDGE_CURVE('',#209,#209,#31,.T.);
#253=EDGE_CURVE('',#210,#210,#32,.T.);
#254=EDGE_CURVE('',#211,#212,#130,.T.);
#255=EDGE_CURVE('',#212,#213,#131,.T.);
#256=EDGE_CURVE('',#213,#214,#132,.T.);
#257=EDGE_CURVE('',#214,#211,#133,.T.);
#258=EDGE_CURVE('',#215,#215,#33,.T.);
#259=EDGE_CURVE('',#216,#216,#34,.T.);
#260=EDGE_CURVE('',#204,#211,#35,.T.);
#261=EDGE_CURVE('',#205,#214,#134,.T.);
#262=EDGE_CURVE('',#201,#217,#135,.T.);
#263=EDGE_CURVE('',#218,#217,#136,.T.);
#264=EDGE_CURVE('',#203,#218,#137,.T.);
#265=EDGE_CURVE('',#206,#213,#138,.T.);
#266=EDGE_CURVE('',#208,#216,#139,.T.);
#267=EDGE_CURVE('',#210,#219,#140,.T.);
#268=EDGE_CURVE('',#219,#219,#36,.T.);
#269=EDGE_CURVE('',#207,#215,#141,.T.);
#270=EDGE_CURVE('',#209,#220,#142,.T.);
#271=EDGE_CURVE('',#220,#220,#37,.T.);
#272=EDGE_CURVE('',#221,#204,#38,.T.);
#273=EDGE_CURVE('',#221,#218,#143,.T.);
#274=EDGE_CURVE('',#222,#221,#144,.T.);
#275=EDGE_CURVE('',#217,#222,#145,.T.);
#276=EDGE_CURVE('',#212,#202,#39,.T.);
#277=EDGE_CURVE('',#202,#222,#40,.T.);
#278=EDGE_CURVE('',#223,#223,#41,.T.);
#279=EDGE_CURVE('',#224,#224,#42,.T.);
#280=EDGE_CURVE('',#225,#225,#43,.T.);
#281=EDGE_CURVE('',#224,#226,#146,.T.);
#282=EDGE_CURVE('',#227,#226,#147,.T.);
#283=EDGE_CURVE('',#227,#223,#148,.T.);
#284=EDGE_CURVE('',#228,#228,#44,.T.);
#285=EDGE_CURVE('',#228,#225,#149,.T.);
#286=ORIENTED_EDGE('',*,*,#229,.F.);
#287=ORIENTED_EDGE('',*,*,#230,.F.);
#288=ORIENTED_EDGE('',*,*,#231,.F.);
#289=ORIENTED_EDGE('',*,*,#232,.F.);
#290=ORIENTED_EDGE('',*,*,#231,.T.);
#291=ORIENTED_EDGE('',*,*,#233,.T.);
#292=ORIENTED_EDGE('',*,*,#234,.F.);
#293=ORIENTED_EDGE('',*,*,#235,.F.);
#294=ORIENTED_EDGE('',*,*,#236,.T.);
#295=ORIENTED_EDGE('',*,*,#232,.T.);
#296=ORIENTED_EDGE('',*,*,#235,.T.);
#297=ORIENTED_EDGE('',*,*,#237,.F.);
#298=ORIENTED_EDGE('',*,*,#238,.F.);
#299=ORIENTED_EDGE('',*,*,#239,.T.);
#300=ORIENTED_EDGE('',*,*,#238,.T.);
#301=ORIENTED_EDGE('',*,*,#240,.F.);
#302=ORIENTED_EDGE('',*,*,#241,.F.);
#303=ORIENTED_EDGE('',*,*,#230,.T.);
#304=ORIENTED_EDGE('',*,*,#242,.T.);
#305=ORIENTED_EDGE('',*,*,#241,.T.);
#306=ORIENTED_EDGE('',*,*,#243,.F.);
#307=ORIENTED_EDGE('',*,*,#233,.F.);
#308=ORIENTED_EDGE('',*,*,#243,.T.);
#309=ORIENTED_EDGE('',*,*,#240,.T.);
#310=ORIENTED_EDGE('',*,*,#237,.T.);
#311=ORIENTED_EDGE('',*,*,#234,.T.);
#312=ORIENTED_EDGE('',*,*,#229,.T.);
#313=ORIENTED_EDGE('',*,*,#236,.F.);
#314=ORIENTED_EDGE('',*,*,#239,.F.);
#315=ORIENTED_EDGE('',*,*,#242,.F.);
#316=ORIENTED_EDGE('',*,*,#244,.F.);
#317=ORIENTED_EDGE('',*,*,#245,.F.);
#318=ORIENTED_EDGE('',*,*,#246,.F.);
#319=ORIENTED_EDGE('',*,*,#247,.F.);
#320=ORIENTED_EDGE('',*,*,#248,.F.);
#321=ORIENTED_EDGE('',*,*,#249,.F.);
#322=ORIENTED_EDGE('',*,*,#250,.T.);
#323=ORIENTED_EDGE('',*,*,#251,.T.);
#324=ORIENTED_EDGE('',*,*,#252,.T.);
#325=ORIENTED_EDGE('',*,*,#253,.T.);
#326=ORIENTED_EDGE('',*,*,#254,.T.);
#327=ORIENTED_EDGE('',*,*,#255,.T.);
#328=ORIENTED_EDGE('',*,*,#256,.T.);
#329=ORIENTED_EDGE('',*,*,#257,.T.);
#330=ORIENTED_EDGE('',*,*,#258,.T.);
#331=ORIENTED_EDGE('',*,*,#259,.T.);
#332=ORIENTED_EDGE('',*,*,#260,.T.);
#333=ORIENTED_EDGE('',*,*,#257,.F.);
#334=ORIENTED_EDGE('',*,*,#261,.F.);
#335=ORIENTED_EDGE('',*,*,#247,.T.);
#336=ORIENTED_EDGE('',*,*,#245,.T.);
#337=ORIENTED_EDGE('',*,*,#262,.T.);
#338=ORIENTED_EDGE('',*,*,#263,.F.);
#339=ORIENTED_EDGE('',*,*,#264,.F.);
#340=ORIENTED_EDGE('',*,*,#248,.T.);
#341=ORIENTED_EDGE('',*,*,#261,.T.);
#342=ORIENTED_EDGE('',*,*,#256,.F.);
#343=ORIENTED_EDGE('',*,*,#265,.F.);
#344=ORIENTED_EDGE('',*,*,#251,.F.);
#345=ORIENTED_EDGE('',*,*,#266,.T.);
#346=ORIENTED_EDGE('',*,*,#259,.F.);
#347=ORIENTED_EDGE('',*,*,#266,.F.);
#348=ORIENTED_EDGE('',*,*,#253,.F.);
#349=ORIENTED_EDGE('',*,*,#267,.T.);
#350=ORIENTED_EDGE('',*,*,#268,.F.);
#351=ORIENTED_EDGE('',*,*,#267,.F.);
#352=ORIENTED_EDGE('',*,*,#250,.F.);
#353=ORIENTED_EDGE('',*,*,#269,.T.);
#354=ORIENTED_EDGE('',*,*,#258,.F.);
#355=ORIENTED_EDGE('',*,*,#269,.F.);
#356=ORIENTED_EDGE('',*,*,#252,.F.);
#357=ORIENTED_EDGE('',*,*,#270,.T.);
#358=ORIENTED_EDGE('',*,*,#271,.F.);
#359=ORIENTED_EDGE('',*,*,#270,.F.);
#360=ORIENTED_EDGE('',*,*,#272,.T.);
#361=ORIENTED_EDGE('',*,*,#246,.T.);
#362=ORIENTED_EDGE('',*,*,#264,.T.);
#363=ORIENTED_EDGE('',*,*,#273,.F.);
#364=ORIENTED_EDGE('',*,*,#274,.T.);
#365=ORIENTED_EDGE('',*,*,#273,.T.);
#366=ORIENTED_EDGE('',*,*,#263,.T.);
#367=ORIENTED_EDGE('',*,*,#275,.T.);
#368=ORIENTED_EDGE('',*,*,#271,.T.);
#369=ORIENTED_EDGE('',*,*,#268,.T.);
#370=ORIENTED_EDGE('',*,*,#276,.T.);
#371=ORIENTED_EDGE('',*,*,#249,.T.);
#372=ORIENTED_EDGE('',*,*,#265,.T.);
#373=ORIENTED_EDGE('',*,*,#255,.F.);
#374=ORIENTED_EDGE('',*,*,#277,.T.);
#375=ORIENTED_EDGE('',*,*,#275,.F.);
#376=ORIENTED_EDGE('',*,*,#262,.F.);
#377=ORIENTED_EDGE('',*,*,#244,.T.);
#378=ORIENTED_EDGE('',*,*,#278,.F.);
#379=ORIENTED_EDGE('',*,*,#279,.T.);
#380=ORIENTED_EDGE('',*,*,#280,.T.);
#381=ORIENTED_EDGE('',*,*,#279,.F.);
#382=ORIENTED_EDGE('',*,*,#281,.T.);
#383=ORIENTED_EDGE('',*,*,#282,.F.);
#384=ORIENTED_EDGE('',*,*,#283,.T.);
#385=ORIENTED_EDGE('',*,*,#278,.T.);
#386=ORIENTED_EDGE('',*,*,#283,.F.);
#387=ORIENTED_EDGE('',*,*,#282,.T.);
#388=ORIENTED_EDGE('',*,*,#281,.F.);
#389=ORIENTED_EDGE('',*,*,#272,.F.);
#390=ORIENTED_EDGE('',*,*,#274,.F.);
#391=ORIENTED_EDGE('',*,*,#277,.F.);
#392=ORIENTED_EDGE('',*,*,#276,.F.);
#393=ORIENTED_EDGE('',*,*,#254,.F.);
#394=ORIENTED_EDGE('',*,*,#260,.F.);
#395=ORIENTED_EDGE('',*,*,#284,.T.);
#396=ORIENTED_EDGE('',*,*,#284,.F.);
#397=ORIENTED_EDGE('',*,*,#285,.T.);
#398=ORIENTED_EDGE('',*,*,#280,.F.);
#399=ORIENTED_EDGE('',*,*,#285,.F.);
#400=PLANE('',#459);
#401=PLANE('',#460);
#402=PLANE('',#461);
#403=PLANE('',#462);
#404=PLANE('',#463);
#405=PLANE('',#464);
#406=PLANE('',#465);
#407=PLANE('',#466);
#408=PLANE('',#471);
#409=PLANE('',#474);
#410=PLANE('',#476);
#411=PLANE('',#477);
#412=PLANE('',#484);
#413=PLANE('',#486);
#414=PLANE('',#487);
#415=PLANE('',#489);
#416=PLANE('',#491);
#417=PLANE('',#493);
#418=PLANE('',#497);
#419=ADVANCED_FACE('',(#49),#400,.F.);
#420=ADVANCED_FACE('',(#50),#401,.T.);
#421=ADVANCED_FACE('',(#51),#402,.T.);
#422=ADVANCED_FACE('',(#52),#403,.T.);
#423=ADVANCED_FACE('',(#53),#404,.T.);
#424=ADVANCED_FACE('',(#54),#405,.T.);
#425=ADVANCED_FACE('',(#55),#406,.F.);
#426=ADVANCED_FACE('',(#56,#19,#20,#21,#22),#407,.F.);
#427=ADVANCED_FACE('',(#57,#23,#24),#408,.T.);
#428=ADVANCED_FACE('',(#58),#409,.T.);
#429=ADVANCED_FACE('',(#59),#410,.T.);
#430=ADVANCED_FACE('',(#60),#411,.T.);
#431=ADVANCED_FACE('',(#61),#13,.F.);
#432=ADVANCED_FACE('',(#62),#14,.F.);
#433=ADVANCED_FACE('',(#63),#15,.F.);
#434=ADVANCED_FACE('',(#64),#16,.F.);
#435=ADVANCED_FACE('',(#65),#412,.T.);
#436=ADVANCED_FACE('',(#66,#25,#26),#413,.T.);
#437=ADVANCED_FACE('',(#67),#414,.T.);
#438=ADVANCED_FACE('',(#68),#415,.T.);
#439=ADVANCED_FACE('',(#69),#416,.F.);
#440=ADVANCED_FACE('',(#70,#27),#417,.T.);
#441=ADVANCED_FACE('',(#71,#28),#17,.T.);
#442=ADVANCED_FACE('',(#72),#418,.T.);
#443=ADVANCED_FACE('',(#73),#18,.T.);
#444=CLOSED_SHELL('',(#419,#420,#421,#422,#423,#424,#425));
#445=CLOSED_SHELL('',(#426,#427,#428,#429,#430,#431,#432,#433,#434,#435,
#436,#437,#438,#439,#440,#441,#442,#443));
#446=DERIVED_UNIT_ELEMENT(#448,1.);
#447=DERIVED_UNIT_ELEMENT(#751,-3.);
#448=(
MASS_UNIT()
NAMED_UNIT(*)
SI_UNIT(.KILO.,.GRAM.)
);
#449=DERIVED_UNIT((#446,#447));
#450=MEASURE_REPRESENTATION_ITEM('density measure',
POSITIVE_RATIO_MEASURE(7850.),#449);
#451=PROPERTY_DEFINITION_REPRESENTATION(#456,#453);
#452=PROPERTY_DEFINITION_REPRESENTATION(#457,#454);
#453=REPRESENTATION('material name',(#455),#748);
#454=REPRESENTATION('density',(#450),#748);
#455=DESCRIPTIVE_REPRESENTATION_ITEM('A\X\E7o','A\X\E7o');
#456=PROPERTY_DEFINITION('material property','material name',#758);
#457=PROPERTY_DEFINITION('material property','density of part',#758);
#458=AXIS2_PLACEMENT_3D('',#625,#500,#501);
#459=AXIS2_PLACEMENT_3D('',#626,#502,#503);
#460=AXIS2_PLACEMENT_3D('',#635,#508,#509);
#461=AXIS2_PLACEMENT_3D('',#641,#513,#514);
#462=AXIS2_PLACEMENT_3D('',#647,#518,#519);
#463=AXIS2_PLACEMENT_3D('',#653,#523,#524);
#464=AXIS2_PLACEMENT_3D('',#656,#527,#528);
#465=AXIS2_PLACEMENT_3D('',#657,#529,#530);
#466=AXIS2_PLACEMENT_3D('',#658,#531,#532);
#467=AXIS2_PLACEMENT_3D('',#672,#539,#540);
#468=AXIS2_PLACEMENT_3D('',#674,#541,#542);
#469=AXIS2_PLACEMENT_3D('',#676,#543,#544);
#470=AXIS2_PLACEMENT_3D('',#678,#545,#546);
#471=AXIS2_PLACEMENT_3D('',#679,#547,#548);
#472=AXIS2_PLACEMENT_3D('',#689,#553,#554);
#473=AXIS2_PLACEMENT_3D('',#691,#555,#556);
#474=AXIS2_PLACEMENT_3D('',#692,#557,#558);
#475=AXIS2_PLACEMENT_3D('',#693,#559,#560);
#476=AXIS2_PLACEMENT_3D('',#695,#562,#563);
#477=AXIS2_PLACEMENT_3D('',#701,#567,#568);
#478=AXIS2_PLACEMENT_3D('',#703,#570,#571);
#479=AXIS2_PLACEMENT_3D('',#705,#573,#574);
#480=AXIS2_PLACEMENT_3D('',#708,#576,#577);
#481=AXIS2_PLACEMENT_3D('',#709,#578,#579);
#482=AXIS2_PLACEMENT_3D('',#711,#581,#582);
#483=AXIS2_PLACEMENT_3D('',#714,#584,#585);
#484=AXIS2_PLACEMENT_3D('',#715,#586,#587);
#485=AXIS2_PLACEMENT_3D('',#717,#588,#589);
#486=AXIS2_PLACEMENT_3D('',#719,#591,#592);
#487=AXIS2_PLACEMENT_3D('',#723,#595,#596);
#488=AXIS2_PLACEMENT_3D('',#724,#597,#598);
#489=AXIS2_PLACEMENT_3D('',#725,#599,#600);
#490=AXIS2_PLACEMENT_3D('',#726,#601,#602);
#491=AXIS2_PLACEMENT_3D('',#727,#603,#604);
#492=AXIS2_PLACEMENT_3D('',#729,#605,#606);
#493=AXIS2_PLACEMENT_3D('',#730,#607,#608);
#494=AXIS2_PLACEMENT_3D('',#732,#609,#610);
#495=AXIS2_PLACEMENT_3D('',#734,#611,#612);
#496=AXIS2_PLACEMENT_3D('',#735,#613,#614);
#497=AXIS2_PLACEMENT_3D('',#741,#618,#619);
#498=AXIS2_PLACEMENT_3D('',#743,#620,#621);
#499=AXIS2_PLACEMENT_3D('',#744,#622,#623);
#500=DIRECTION('axis',(0.,0.,1.));
#501=DIRECTION('refdir',(1.,0.,0.));
#502=DIRECTION('center_axis',(0.,0.,1.));
#503=DIRECTION('ref_axis',(1.,0.,0.));
#504=DIRECTION('',(1.,0.,0.));
#505=DIRECTION('',(0.,-1.,0.));
#506=DIRECTION('',(-1.,0.,0.));
#507=DIRECTION('',(0.,1.,0.));
#508=DIRECTION('center_axis',(0.,1.,0.));
#509=DIRECTION('ref_axis',(-1.,0.,0.));
#510=DIRECTION('',(0.,0.,1.));
#511=DIRECTION('',(-1.,0.,0.));
#512=DIRECTION('',(0.,0.,1.));
#513=DIRECTION('center_axis',(1.,0.,0.));
#514=DIRECTION('ref_axis',(0.,1.,0.));
#515=DIRECTION('',(0.,1.,0.));
#516=DIRECTION('',(0.,1.,0.));
#517=DIRECTION('',(0.,0.,1.));
#518=DIRECTION('center_axis',(0.,-1.,0.));
#519=DIRECTION('ref_axis',(1.,0.,0.));
#520=DIRECTION('',(1.,0.,0.));
#521=DIRECTION('',(1.,0.,0.));
#522=DIRECTION('',(0.,0.,1.));
#523=DIRECTION('center_axis',(-1.,0.,0.));
#524=DIRECTION('ref_axis',(0.,-1.,0.));
#525=DIRECTION('',(0.,-1.,0.));
#526=DIRECTION('',(0.,-1.,0.));
#527=DIRECTION('center_axis',(0.,0.,1.));
#528=DIRECTION('ref_axis',(1.,0.,0.));
#529=DIRECTION('center_axis',(0.,0.,1.));
#530=DIRECTION('ref_axis',(1.,0.,0.));
#531=DIRECTION('center_axis',(0.,0.,1.));
#532=DIRECTION('ref_axis',(1.,0.,0.));
#533=DIRECTION('',(0.,1.,0.));
#534=DIRECTION('',(1.,0.,0.));
#535=DIRECTION('',(0.,-1.,0.));
#536=DIRECTION('',(0.,-1.,0.));
#537=DIRECTION('',(-1.,0.,0.));
#538=DIRECTION('',(0.,1.,0.));
#539=DIRECTION('center_axis',(0.,0.,1.));
#540=DIRECTION('ref_axis',(1.,0.,0.));
#541=DIRECTION('center_axis',(0.,0.,1.));
#542=DIRECTION('ref_axis',(1.,0.,0.));
#543=DIRECTION('center_axis',(0.,0.,1.));
#544=DIRECTION('ref_axis',(1.,0.,0.));
#545=DIRECTION('center_axis',(0.,0.,1.));
#546=DIRECTION('ref_axis',(1.,0.,0.));
#547=DIRECTION('center_axis',(0.,0.,1.));
#548=DIRECTION('ref_axis',(1.,0.,0.));
#549=DIRECTION('',(1.,0.,0.));
#550=DIRECTION('',(0.,1.,0.));
#551=DIRECTION('',(-1.,0.,0.));
#552=DIRECTION('',(0.,-1.,0.));
#553=DIRECTION('center_axis',(0.,0.,-1.));
#554=DIRECTION('ref_axis',(1.,0.,0.));
#555=DIRECTION('center_axis',(0.,0.,-1.));
#556=DIRECTION('ref_axis',(1.,0.,0.));
#557=DIRECTION('center_axis',(-1.,0.,0.));
#558=DIRECTION('ref_axis',(0.,-1.,0.));
#559=DIRECTION('center_axis',(1.,0.,0.));
#560=DIRECTION('ref_axis',(0.,0.,-1.));
#561=DIRECTION('',(0.,0.,1.));
#562=DIRECTION('center_axis',(0.,-1.,0.));
#563=DIRECTION('ref_axis',(1.,0.,0.));
#564=DIRECTION('',(0.,0.,1.));
#565=DIRECTION('',(1.,0.,0.));
#566=DIRECTION('',(0.,0.,1.));
#567=DIRECTION('center_axis',(0.,1.,0.));
#568=DIRECTION('ref_axis',(-1.,0.,0.));
#569=DIRECTION('',(0.,0.,1.));
#570=DIRECTION('center_axis',(0.,0.,1.));
#571=DIRECTION('ref_axis',(1.,0.,0.));
#572=DIRECTION('',(0.,0.,1.));
#573=DIRECTION('center_axis',(0.,0.,1.));
#574=DIRECTION('ref_axis',(1.,0.,0.));
#575=DIRECTION('',(0.,0.,1.));
#576=DIRECTION('center_axis',(0.,0.,-1.));
#577=DIRECTION('ref_axis',(1.,0.,0.));
#578=DIRECTION('center_axis',(0.,0.,1.));
#579=DIRECTION('ref_axis',(1.,0.,0.));
#580=DIRECTION('',(0.,0.,1.));
#581=DIRECTION('center_axis',(0.,0.,1.));
#582=DIRECTION('ref_axis',(1.,0.,0.));
#583=DIRECTION('',(0.,0.,1.));
#584=DIRECTION('center_axis',(0.,0.,-1.));
#585=DIRECTION('ref_axis',(1.,0.,0.));
#586=DIRECTION('center_axis',(-1.,0.,0.));
#587=DIRECTION('ref_axis',(0.,-1.,0.));
#588=DIRECTION('center_axis',(1.,0.,0.));
#589=DIRECTION('ref_axis',(0.,0.,-1.));
#590=DIRECTION('',(0.,-1.,0.));
#591=DIRECTION('center_axis',(0.,0.,1.));
#592=DIRECTION('ref_axis',(1.,0.,0.));
#593=DIRECTION('',(-1.,0.,0.));
#594=DIRECTION('',(0.,1.,0.));
#595=DIRECTION('center_axis',(1.,0.,0.));
#596=DIRECTION('ref_axis',(0.,1.,0.));
#597=DIRECTION('center_axis',(-1.,0.,0.));
#598=DIRECTION('ref_axis',(0.,0.,-1.));
#599=DIRECTION('center_axis',(1.,0.,0.));
#600=DIRECTION('ref_axis',(0.,1.,0.));
#601=DIRECTION('center_axis',(-1.,0.,0.));
#602=DIRECTION('ref_axis',(0.,0.,-1.));
#603=DIRECTION('center_axis',(1.,0.,0.));
#604=DIRECTION('ref_axis',(0.,0.,-1.));
#605=DIRECTION('center_axis',(1.,0.,0.));
#606=DIRECTION('ref_axis',(0.,0.,-1.));
#607=DIRECTION('center_axis',(1.,0.,0.));
#608=DIRECTION('ref_axis',(0.,0.,-1.));
#609=DIRECTION('center_axis',(1.,0.,0.));
#610=DIRECTION('ref_axis',(0.,0.,-1.));
#611=DIRECTION('center_axis',(-1.,0.,0.));
#612=DIRECTION('ref_axis',(0.,0.,-1.));
#613=DIRECTION('center_axis',(1.,0.,0.));
#614=DIRECTION('ref_axis',(0.,0.,-1.));
#615=DIRECTION('',(-1.,0.,0.));
#616=DIRECTION('',(1.,0.,0.));
#617=DIRECTION('',(-1.,0.,0.));
#618=DIRECTION('center_axis',(1.,0.,0.));
#619=DIRECTION('ref_axis',(0.,0.,-1.));
#620=DIRECTION('center_axis',(1.,0.,0.));
#621=DIRECTION('ref_axis',(0.,0.,-1.));
#622=DIRECTION('center_axis',(1.,0.,0.));
#623=DIRECTION('ref_axis',(0.,0.,-1.));
#624=DIRECTION('',(-1.,0.,0.));
#625=CARTESIAN_POINT('',(0.,0.,0.));
#626=CARTESIAN_POINT('Origin',(0.,0.,100.));
#627=CARTESIAN_POINT('',(-27.5,0.,100.));
#628=CARTESIAN_POINT('',(27.5,0.,100.));
#629=CARTESIAN_POINT('',(-65.,0.,100.));
#630=CARTESIAN_POINT('',(-27.5,25.,100.));
#631=CARTESIAN_POINT('',(-27.5,25.,100.));
#632=CARTESIAN_POINT('',(27.5,25.,100.));
#633=CARTESIAN_POINT('',(27.5,25.,100.));
#634=CARTESIAN_POINT('',(27.5,-25.,100.));
#635=CARTESIAN_POINT('Origin',(27.5,25.,100.));
#636=CARTESIAN_POINT('',(-27.5,25.,135.));
#637=CARTESIAN_POINT('',(-27.5,25.,100.));
#638=CARTESIAN_POINT('',(27.5,25.,135.));
#639=CARTESIAN_POINT('',(27.5,25.,135.));
#640=CARTESIAN_POINT('',(27.5,25.,100.));
#641=CARTESIAN_POINT('Origin',(27.5,-25.,100.));
#642=CARTESIAN_POINT('',(27.5,-25.,100.));
#643=CARTESIAN_POINT('',(27.5,-25.,100.));
#644=CARTESIAN_POINT('',(27.5,-25.,135.));
#645=CARTESIAN_POINT('',(27.5,-25.,135.));
#646=CARTESIAN_POINT('',(27.5,-25.,100.));
#647=CARTESIAN_POINT('Origin',(-27.5,-25.,100.));
#648=CARTESIAN_POINT('',(-27.5,-25.,100.));
#649=CARTESIAN_POINT('',(-27.5,-25.,100.));
#650=CARTESIAN_POINT('',(-27.5,-25.,135.));
#651=CARTESIAN_POINT('',(-27.5,-25.,135.));
#652=CARTESIAN_POINT('',(-27.5,-25.,100.));
#653=CARTESIAN_POINT('Origin',(-27.5,25.,100.));
#654=CARTESIAN_POINT('',(-27.5,25.,100.));
#655=CARTESIAN_POINT('',(-27.5,25.,135.));
#656=CARTESIAN_POINT('Origin',(0.,0.,135.));
#657=CARTESIAN_POINT('Origin',(0.,0.,100.));
#658=CARTESIAN_POINT('Origin',(0.,0.,0.));
#659=CARTESIAN_POINT('',(55.,-70.,0.));
#660=CARTESIAN_POINT('',(55.,0.,0.));
#661=CARTESIAN_POINT('',(55.,-70.,0.));
#662=CARTESIAN_POINT('',(-55.,-70.,0.));
#663=CARTESIAN_POINT('',(-55.,-70.,0.));
#664=CARTESIAN_POINT('',(-55.,0.,0.));
#665=CARTESIAN_POINT('',(-55.,70.,0.));
#666=CARTESIAN_POINT('',(-55.,70.,0.));
#667=CARTESIAN_POINT('',(-55.,70.,0.));
#668=CARTESIAN_POINT('',(55.,70.,0.));
#669=CARTESIAN_POINT('',(55.,70.,0.));
#670=CARTESIAN_POINT('',(55.,-70.,0.));
#671=CARTESIAN_POINT('',(-44.5,50.,0.));
#672=CARTESIAN_POINT('Origin',(-40.,50.,0.));
#673=CARTESIAN_POINT('',(35.5,50.,0.));
#674=CARTESIAN_POINT('Origin',(40.,50.,0.));
#675=CARTESIAN_POINT('',(35.5,-50.,0.));
#676=CARTESIAN_POINT('Origin',(40.,-50.,0.));
#677=CARTESIAN_POINT('',(-44.5,-50.,0.));
#678=CARTESIAN_POINT('Origin',(-40.,-50.,0.));
#679=CARTESIAN_POINT('Origin',(0.,0.,10.));
#680=CARTESIAN_POINT('',(-55.,30.,10.));
#681=CARTESIAN_POINT('',(55.,30.,10.));
#682=CARTESIAN_POINT('',(-65.,30.,10.));
#683=CARTESIAN_POINT('',(55.,70.,10.));
#684=CARTESIAN_POINT('',(55.,-70.,10.));
#685=CARTESIAN_POINT('',(-55.,70.,10.));
#686=CARTESIAN_POINT('',(55.,70.,10.));
#687=CARTESIAN_POINT('',(-55.,70.,10.));
#688=CARTESIAN_POINT('',(-44.5,50.,10.));
#689=CARTESIAN_POINT('Origin',(-40.,50.,10.));
#690=CARTESIAN_POINT('',(35.5,50.,10.));
#691=CARTESIAN_POINT('Origin',(40.,50.,10.));
#692=CARTESIAN_POINT('Origin',(-55.,70.,0.));
#693=CARTESIAN_POINT('Origin',(-55.,0.,50.));
#694=CARTESIAN_POINT('',(-55.,70.,0.));
#695=CARTESIAN_POINT('Origin',(-55.,-70.,0.));
#696=CARTESIAN_POINT('',(55.,-70.,10.));
#697=CARTESIAN_POINT('',(55.,-70.,0.));
#698=CARTESIAN_POINT('',(-55.,-70.,10.));
#699=CARTESIAN_POINT('',(-55.,-70.,10.));
#700=CARTESIAN_POINT('',(-55.,-70.,0.));
#701=CARTESIAN_POINT('Origin',(55.,70.,0.));
#702=CARTESIAN_POINT('',(55.,70.,0.));
#703=CARTESIAN_POINT('Origin',(40.,50.,0.));
#704=CARTESIAN_POINT('',(35.5,50.,0.));
#705=CARTESIAN_POINT('Origin',(-40.,-50.,0.));
#706=CARTESIAN_POINT('',(-44.5,-50.,10.));
#707=CARTESIAN_POINT('',(-44.5,-50.,0.));
#708=CARTESIAN_POINT('Origin',(-40.,-50.,10.));
#709=CARTESIAN_POINT('Origin',(-40.,50.,0.));
#710=CARTESIAN_POINT('',(-44.5,50.,0.));
#711=CARTESIAN_POINT('Origin',(40.,-50.,0.));
#712=CARTESIAN_POINT('',(35.5,-50.,10.));
#713=CARTESIAN_POINT('',(35.5,-50.,0.));
#714=CARTESIAN_POINT('Origin',(40.,-50.,10.));
#715=CARTESIAN_POINT('Origin',(-55.,70.,0.));
#716=CARTESIAN_POINT('',(-55.,-30.,10.));
#717=CARTESIAN_POINT('Origin',(-55.,0.,50.));
#718=CARTESIAN_POINT('',(-55.,70.,10.));
#719=CARTESIAN_POINT('Origin',(0.,0.,10.));
#720=CARTESIAN_POINT('',(55.,-30.,10.));
#721=CARTESIAN_POINT('',(-65.,-30.,10.));
#722=CARTESIAN_POINT('',(55.,-70.,10.));
#723=CARTESIAN_POINT('Origin',(55.,-70.,0.));
#724=CARTESIAN_POINT('Origin',(55.,0.,50.));
#725=CARTESIAN_POINT('Origin',(55.,-70.,0.));
#726=CARTESIAN_POINT('Origin',(55.,0.,50.));
#727=CARTESIAN_POINT('Origin',(-65.,0.,50.));
#728=CARTESIAN_POINT('',(-65.,-6.12323399573677E-15,100.));
#729=CARTESIAN_POINT('Origin',(-65.,0.,50.));
#730=CARTESIAN_POINT('Origin',(65.,0.,50.));
#731=CARTESIAN_POINT('',(65.,-6.12323399573677E-15,100.));
#732=CARTESIAN_POINT('Origin',(65.,0.,50.));
#733=CARTESIAN_POINT('',(65.,-8.57252759403147E-16,57.));
#734=CARTESIAN_POINT('Origin',(65.,0.,50.));
#735=CARTESIAN_POINT('Origin',(-65.,0.,50.));
#736=CARTESIAN_POINT('',(27.5,0.,100.));
#737=CARTESIAN_POINT('',(-65.,-6.12323399573677E-15,100.));
#738=CARTESIAN_POINT('',(-27.5,0.,100.));
#739=CARTESIAN_POINT('',(-65.,0.,100.));
#740=CARTESIAN_POINT('',(-65.,-6.12323399573677E-15,100.));
#741=CARTESIAN_POINT('Origin',(95.,0.,50.));
#742=CARTESIAN_POINT('',(95.,-8.57252759403147E-16,57.));
#743=CARTESIAN_POINT('Origin',(95.,0.,50.));
#744=CARTESIAN_POINT('Origin',(65.,0.,50.));
#745=CARTESIAN_POINT('',(65.,-8.57252759403147E-16,57.));
#746=UNCERTAINTY_MEASURE_WITH_UNIT(LENGTH_MEASURE(0.01),#750,
'DISTANCE_ACCURACY_VALUE',
'Maximum model space distance between geometric entities at asserted c
onnectivities');
#747=UNCERTAINTY_MEASURE_WITH_UNIT(LENGTH_MEASURE(0.01),#750,
'DISTANCE_ACCURACY_VALUE',
'Maximum model space distance between geometric entities at asserted c
onnectivities');
#748=(
GEOMETRIC_REPRESENTATION_CONTEXT(3)
GLOBAL_UNCERTAINTY_ASSIGNED_CONTEXT((#746))
GLOBAL_UNIT_ASSIGNED_CONTEXT((#750,#752,#753))
REPRESENTATION_CONTEXT('','3D')
);
#749=(
GEOMETRIC_REPRESENTATION_CONTEXT(3)
GLOBAL_UNCERTAINTY_ASSIGNED_CONTEXT((#747))
GLOBAL_UNIT_ASSIGNED_CONTEXT((#750,#752,#753))
REPRESENTATION_CONTEXT('','3D')
);
#750=(
LENGTH_UNIT()
NAMED_UNIT(*)
SI_UNIT(.MILLI.,.METRE.)
);
#751=(
LENGTH_UNIT()
NAMED_UNIT(*)
SI_UNIT($,.METRE.)
);
#752=(
NAMED_UNIT(*)
PLANE_ANGLE_UNIT()
SI_UNIT($,.RADIAN.)
);
#753=(
NAMED_UNIT(*)
SI_UNIT($,.STERADIAN.)
SOLID_ANGLE_UNIT()
);
#754=SHAPE_DEFINITION_REPRESENTATION(#755,#756);
#755=PRODUCT_DEFINITION_SHAPE('',$,#758);
#756=SHAPE_REPRESENTATION('',(#458),#748);
#757=PRODUCT_DEFINITION_CONTEXT('part definition',#762,'design');
#758=PRODUCT_DEFINITION('(N\X\E3o salvo)','(N\X\E3o salvo)',#759,#757);
#759=PRODUCT_DEFINITION_FORMATION('',$,#764);
#760=PRODUCT_RELATED_PRODUCT_CATEGORY('(N\X\E3o salvo)','(N\X\E3o salv
o)',(#764));
#761=APPLICATION_PROTOCOL_DEFINITION('international standard',
'automotive_design',2009,#762);
#762=APPLICATION_CONTEXT(
'Core Data for Automotive Mechanical Design Process');
#763=PRODUCT_CONTEXT('part definition',#762,'mechanical');
#764=PRODUCT('(N\X\E3o salvo)','(N\X\E3o salvo)',$,(#763));
#765=PRESENTATION_STYLE_ASSIGNMENT((#767));
#766=PRESENTATION_STYLE_ASSIGNMENT((#768));
#767=SURFACE_STYLE_USAGE(.BOTH.,#769);
#768=SURFACE_STYLE_USAGE(.BOTH.,#770);
#769=SURFACE_SIDE_STYLE('',(#771));
#770=SURFACE_SIDE_STYLE('',(#772));
#771=SURFACE_STYLE_FILL_AREA(#773);
#772=SURFACE_STYLE_FILL_AREA(#774);
#773=FILL_AREA_STYLE('A\X\E7o - Acetinado',(#775));
#774=FILL_AREA_STYLE('Mat_Azul_WEG',(#776));
#775=FILL_AREA_STYLE_COLOUR('A\X\E7o - Acetinado',#777);
#776=FILL_AREA_STYLE_COLOUR('Mat_Azul_WEG',#778);
#777=COLOUR_RGB('A\X\E7o - Acetinado',0.627450980392157,0.627450980392157,
0.627450980392157);
#778=COLOUR_RGB('Mat_Azul_WEG',0.0392156862745098,0.294117647058824,0.588235294117647);
ENDSEC;
END-ISO-10303-21;
